<svg xmlns="http://www.w3.org/2000/svg" version="1.1" xmlns:xlink="http://www.w3.org/1999/xlink" xmlns:svgjs="http://svgjs.com/svgjs" width="512" height="512" x="0" y="0" viewBox="0 0 111 111" style="enable-background:new 0 0 512 512" xml:space="preserve" class=""><g><g xmlns="http://www.w3.org/2000/svg" id="layer1"><g id="g889"><path id="path940-1-1" d="m55.437686 1.9364902a11.619014 11.619014 0 0 0 -10.666566 7.1688076l-34.755364 83.8951722a11.617852 11.617852 0 0 0 6.287071 15.17894 11.617852 11.617852 0 0 0 15.180118-6.28707l5.364512-12.948755h37.305731l5.364102 12.951955a11.617852 11.617852 0 0 0 15.178522 6.28707 11.617852 11.617852 0 0 0 6.288668-15.178934l-34.747766-83.8967772a11.619014 11.619014 0 0 0 -10.669349-7.1704086 11.619014 11.619014 0 0 0 -.129679 0zm.06483 41.9758078 9.026746 21.795403h-18.05591z" fill="#F8C09D" font-variant-ligatures="normal" font-variant-position="normal" font-variant-caps="normal" font-variant-numeric="normal" font-variant-alternates="normal" font-variant-east-asian="normal" font-feature-settings="normal" font-variation-settings="normal" text-indent="0" text-align="start" text-decoration-line="none" text-decoration-style="solid" text-decoration-color="#000000" text-transform="none" text-orientation="mixed" white-space="normal" shape-padding="0" shape-margin="0" inline-size="0" isolation="auto" mix-blend-mode="normal" solid-color="#000000" solid-opacity="1" vector-effect="none" data-original="#f8c09d"></path><path id="path1038" d="m44.636719 82.056641a3.8726151 3.8726151 0 0 0 -3.873047 3.873047 3.8726151 3.8726151 0 0 0 3.873047 3.873046h31.023437l5.931641 13.896486a3.8726151 3.8726151 0 0 0 5.082031 2.04297 3.8726151 3.8726151 0 0 0 2.041016-5.08203l-6.933594-16.250004a3.8730024 3.8730024 0 0 0 -3.5625-2.353515z" fill="#F4A16C" font-variant-ligatures="normal" font-variant-position="normal" font-variant-caps="normal" font-variant-numeric="normal" font-variant-alternates="normal" font-variant-east-asian="normal" font-feature-settings="normal" font-variation-settings="normal" text-indent="0" text-align="start" text-decoration-line="none" text-decoration-style="solid" text-decoration-color="#000000" text-transform="none" text-orientation="mixed" white-space="normal" shape-padding="0" shape-margin="0" inline-size="0" isolation="auto" mix-blend-mode="normal" solid-color="#000000" solid-opacity="1" vector-effect="none" data-original="#f4a16c"></path><path id="path1042" d="m55.425781 0c-5.447292.03118043-10.357043 3.3312585-12.443359 8.3632812l-34.7558595 83.8964848c-2.8556018 6.894532.4416322 14.852834 7.3359375 17.708984 6.894904 2.85651 14.852836-.44088 17.708984-7.33594l4.869141-11.751951h34.71875l4.869141 11.755861c2.856152 6.89404 10.814584 10.19122 17.708984 7.33594 6.89502-2.85543 10.19132-10.813948 7.33594-17.708988a1.9366936 1.9366936 0 0 0 0-.002l-34.748049-83.8964376c-2.086193-5.0338315-6.998344-8.33504093-12.447266-8.3652344-.05043-.00028143-.09996-.00028143-.150391 0a1.9366936 1.9366936 0 0 0 -.002 0zm.02344 3.8730469c.03602-.000201.0714-.000201.107422 0 3.901395.021618 7.396923 2.3704161 8.890625 5.9746093l34.748044 83.8964848c2.054538 4.961189-.279057 10.593869-5.240234 12.648439-4.960719 2.05445-10.593354-.27782-12.648437-5.23828l-5.365235-12.951175a1.9366936 1.9366936 0 0 0 -1.789062-1.195313h-37.304688a1.9366936 1.9366936 0 0 0 -1.789062 1.195313l-5.365235 12.947265c-2.055087 4.96121-7.68734 7.29558-12.648437 5.24023-4.960654-2.05508-7.2949235-7.687615-5.240234-12.648432l34.755859-83.8945318v-.00195c1.494153-3.6019968 4.989024-5.9503377 8.888672-5.9726593zm-.0059 38.1035151a1.9366936 1.9366936 0 0 0 -1.730468 1.195313l-9.029297 21.794922a1.9366936 1.9366936 0 0 0 1.789062 2.677734h18.056641a1.9366936 1.9366936 0 0 0 1.789062-2.677734l-9.027305-21.794922a1.9366936 1.9366936 0 0 0 -1.847657-1.195313zm.05859 6.996094 6.128906 14.798828h-12.259723z" font-variant-ligatures="normal" font-variant-position="normal" font-variant-caps="normal" font-variant-numeric="normal" font-variant-alternates="normal" font-variant-east-asian="normal" font-feature-settings="normal" font-variation-settings="normal" text-indent="0" text-align="start" text-decoration-line="none" text-decoration-style="solid" text-decoration-color="#000000" text-transform="none" text-orientation="mixed" white-space="normal" shape-padding="0" shape-margin="0" inline-size="0" isolation="auto" mix-blend-mode="normal" solid-color="#000000" solid-opacity="1" vector-effect="none" fill="#000000" data-original="#000000"></path><path id="path1046" d="m53.914062 4.6972656a1.936305 1.936305 0 0 0 -.232421.00977c-2.063109.2133599-3.758225 1.3760242-4.976563 2.84375-1.218338 1.4677259-2.09445 3.2511354-2.914062 5.1679684a1.9364987 1.9364987 0 0 0 -.0078.01953l-10.74806 25.941404a1.936305 1.936305 0 0 0 1.048828 2.529296 1.936305 1.936305 0 0 0 2.529297-1.046875l10.738281-25.919921c.759417-1.776052 1.539434-3.261959 2.332032-4.216797.792598-.9548389 1.462962-1.3702555 2.396484-1.4667972a1.936305 1.936305 0 0 0 1.726563-2.125 1.936305 1.936305 0 0 0 -1.892579-1.7363282z" fill="#FFFFFF" font-variant-ligatures="normal" font-variant-position="normal" font-variant-caps="normal" font-variant-numeric="normal" font-variant-alternates="normal" font-variant-east-asian="normal" font-feature-settings="normal" font-variation-settings="normal" text-indent="0" text-align="start" text-decoration-line="none" text-decoration-style="solid" text-decoration-color="#000000" text-transform="none" text-orientation="mixed" white-space="normal" shape-padding="0" shape-margin="0" inline-size="0" isolation="auto" mix-blend-mode="normal" solid-color="#000000" solid-opacity="1" vector-effect="none" data-original="#ffffff"></path></g></g></g></svg>