<svg xmlns="http://www.w3.org/2000/svg" version="1.1" xmlns:xlink="http://www.w3.org/1999/xlink" xmlns:svgjs="http://svgjs.com/svgjs" width="512" height="512" x="0" y="0" viewBox="0 0 512 512" style="enable-background:new 0 0 512 512" xml:space="preserve"><g><g xmlns="http://www.w3.org/2000/svg"><path d="m77.694 148.288h-62.765c-19.903.788-19.907 29.211 0 30h47.757v278.489c0 8.284 6.72 15 15.008 15s15.008-6.716 15.008-15v-293.489c0-8.285-6.719-15-15.008-15z" fill="#000000" data-original="#000000"></path><path d="m295.776 332.603c-44.531.561-93.23.839-121.161.557 15.844-20.72 42.462-55.527 89.393-122.497 20.252-29.962 32.498-53.284 34.758-82.228-2.872-106.953-152.293-121.4-175.747-17.168-1.597 8.128 3.701 16.012 11.835 17.608 8.133 1.595 16.022-3.699 17.619-11.828 15.378-68.461 113.39-59.657 116.27 10.485l-1.196 9.355c-3.986 16.577-13.447 35.605-28.13 56.572-55.89 79.825-72.394 99.384-100.821 137.799-2.813 4.094-7.523 10.947-4.952 19.301 1.574 5.113 5.514 9.058 10.806 10.821 2.906.968 5.662 1.889 55.209 1.889 23.485.086 98.342-.634 96.494-.669 19.879-1.039 19.557-29.444-.377-29.997z" fill="#000000" data-original="#000000"></path><path d="m473.013 310.033c71.588-48.299 38.374-161.051-49.232-161.745-42.158 0-78.647 29.969-86.76 71.26-1.598 8.129 3.701 16.013 11.835 17.609 8.133 1.593 16.022-3.699 17.619-11.828 15.429-68.565 113.822-59.108 115.712 11.332 0 32.186-26.2 58.372-58.404 58.372-8.289 0-15.008 6.716-15.008 15s6.72 15 15.008 15c32.204 0 58.404 26.186 58.404 58.372-2.299 72.39-103.842 79.377-116.246 8.159-.374-2.68-.564-5.425-.564-8.159-.794-19.915-29.24-19.872-30.017 0-.753 47.729 40.605 89.103 88.422 88.371 87.6-.724 120.835-113.401 49.231-161.743z" fill="#000000" data-original="#000000"></path></g></g></svg>