<svg id="Layer_1" data-name="Layer 1" xmlns="http://www.w3.org/2000/svg" viewBox="0 0 90.32 98.79"><defs><style>.cls-1{fill:#ed8f07;}.cls-2{fill:#ffa000;}.cls-3{fill:#fff;opacity:0.2;}</style></defs><path class="cls-1" d="M149.38,69.43H115.56c-2.44-6.53-5.17-13-8.23-19.21a3.46,3.46,0,0,0-6.22,0h0q-4.58,9.41-8.22,19.21H59.07V81.86a3.39,3.39,0,0,0,1.06,2.66h0a215,215,0,0,0,18.38,15.86l3.24,2.5L80.6,106.8c-.79,2.66-1.5,5.35-2.18,8l-3.41,4v11.9a4.56,4.56,0,0,0,0,.64h0a3.47,3.47,0,0,0,5.07,2.67h0a216,216,0,0,0,20.77-12.58l3.37-2.32,3.38,2.32a216,216,0,0,0,20.77,12.58,3.46,3.46,0,0,0,5.06-2.67h0a2.91,2.91,0,0,0,0-.66V118.89l-6.61-15.58-.13-.43,3.25-2.5a216.57,216.57,0,0,0,18.38-15.86,3.41,3.41,0,0,0,1-3l0,0Z" transform="translate(-59.07 -35.72)"/><path class="cls-2" d="M148.32,72a3.46,3.46,0,0,0-1.92-5.92h0a217.74,217.74,0,0,0-24.2-2l-4.09-.11-1.37-3.85a215.32,215.32,0,0,0-9.41-22.39,3.46,3.46,0,0,0-6.22,0h0a215.25,215.25,0,0,0-9.4,22.39l-1.37,3.85L86.25,64a217.74,217.74,0,0,0-24.2,2h0A3.46,3.46,0,0,0,60.13,72h0A216.81,216.81,0,0,0,78.51,87.83l3.24,2.5L80.6,94.25a217.42,217.42,0,0,0-5.55,23.64,3.46,3.46,0,0,0,5,3.66h0A218.14,218.14,0,0,0,100.85,109l3.37-2.31L107.6,109a218.14,218.14,0,0,0,20.77,12.59,3.46,3.46,0,0,0,5-3.66h0a217.42,217.42,0,0,0-5.55-23.64l-1.16-3.92,3.25-2.5A218.39,218.39,0,0,0,148.32,72Z" transform="translate(-59.07 -35.72)"/><path class="cls-3" d="M95,70.59c0,2.15-2.68,3.9-6,3.9s-6-1.75-6-3.9,2.68-3.9,6-3.9S95,68.44,95,70.59Z" transform="translate(-59.07 -35.72)"/><path class="cls-3" d="M84.75,76.42c0,1.06-1.32,1.92-3,1.92s-3-.86-3-1.92,1.33-1.93,3-1.93S84.75,75.35,84.75,76.42Z" transform="translate(-59.07 -35.72)"/></svg>