<svg xmlns="http://www.w3.org/2000/svg" version="1.1" xmlns:xlink="http://www.w3.org/1999/xlink" xmlns:svgjs="http://svgjs.com/svgjs" width="512" height="512" x="0" y="0" viewBox="0 0 496.987 496.987" style="enable-background:new 0 0 512 512" xml:space="preserve" class=""><g><g xmlns="http://www.w3.org/2000/svg"><path d="m80.997 262.403 3.726-4.416h336.124c10.083 0 18.589 7.505 19.844 17.509l13.806 109.992-7.813 26.499 13.838 21.5 4.205 33.501-4.363-.001c1.499 11.94-7.81 22.491-19.844 22.491l-380.97 3.755c-12.034 0-21.343-10.551-19.844-22.491l21.447-190.829c1.256-10.005 9.762-17.51 19.844-17.51z" fill="#FFCA28" data-original="#d2ea7b" class=""></path><path d="m445.823 496.987h-394.66c-12.04 0-21.35-10.55-19.85-22.49l5.148-41.01 11.415-20.042-5.39-27.957 13.807-109.99c1.26-10 9.76-17.51 19.85-17.51h8.58l-23.41 186.51c-1.5 11.94 7.81 22.49 19.85 22.49h383.57l.94 7.51c1.5 11.939-7.81 22.489-19.85 22.489z" fill="#FFA000" data-original="#c4e456" class=""></path><path d="m460.523 433.487h-65.03c-2.76 0-5 2.24-5 5v28.5l-2.021 10.415 2.021 19.585h-50l2.66-15-2.66-15v-28.5c0-2.76-2.24-5-5-5h-299.03l11.668-22.851-5.648-25.149h51.49c2.73 0 9.012-1.057 9.052-3.787l-2.212-123.713h50.02l-1.85 122.42c-.04 2.79 2.21 5.08 5 5.08h300.52l3.512 28-6.054 9.745z" fill="#F8F7F7" data-original="#f8f7f7" class=""></path><g fill="#EBEBEB"><path d="m100.813 257.987h20l-1.84 122.58c-.04 2.73-2.27 4.92-5 4.92h-20c2.73 0 4.96-2.19 5-4.92z" fill="#EBEBEB" data-original="#ebebeb" class=""></path><path d="m460.523 433.487h-65.03c-2.76 0-5 2.24-5 5v-20c0-2.76 2.24-5 5-5h62.52z" fill="#EBEBEB" data-original="#ebebeb" class=""></path><path d="m335.493 413.487h-265.753c-2.407 0-4.269-2.11-3.969-4.499l2.952-23.501h-26.24l-6.02 48h26.23 272.8c2.76 0 5 2.24 5 5v-20c0-2.762-2.238-5-5-5z" fill="#EBEBEB" data-original="#ebebeb" class=""></path><path d="m340.493 466.987h50v30h-50z" fill="#EBEBEB" data-original="#ebebeb" class=""></path></g><path d="m107.393 156.7c0-57.268 19.661-107.352 63.121-134.692 22.221-13.978 48.699-22.008 77.979-22.008 86.549 0 148.612 70.162 148.612 156.711 0 98.045-84.927 189.392-126.439 227.669-9.554 8.809-18.209 12.4-21.599 15.022-1.167.903-2.663-.246-3.83-1.149-18.118-14.014-137.844-120.943-137.844-241.553z" fill="#DC0113" data-original="#dd646e" class=""></path><path d="m270.673 384.387c-9.56 8.8-16.81 14.8-20.2 17.42-1.17.91-2.79.91-3.96 0-18.11-14.01-146.63-124.49-146.63-245.1 0-57.27 27.17-107.36 70.63-134.7-29.83 28.7-47.63 70.35-47.63 116.7 0 120.61 128.52 231.09 146.63 245.1.35.28.75.47 1.16.58z" fill="#BA000E" data-original="#da4955" class=""></path><g><path d="m358.493 156.7c0 25.279-8.527 48.566-22.862 67.143-20.115 26.067-51.666 38.367-87.138 38.367-60.751 0-103.936-47.004-103.936-107.755 0-35.477 10.731-64.786 36.804-84.901 18.575-14.33 41.858-22.854 67.132-22.854 60.752 0 110 49.249 110 110z" fill="#F8F7F7" data-original="#f8f7f7" class=""></path></g><g><path d="m335.623 223.837c-20.11 26.07-51.66 42.86-87.13 42.86-60.75 0-110-49.25-110-110 0-35.48 16.8-67.03 42.87-87.14-14.34 18.57-22.87 41.86-22.87 67.14 0 60.75 49.25 110 110 110 25.28 0 48.56-8.52 67.13-22.86z" fill="#EBEBEB" data-original="#ebebeb" class=""></path></g></g></g></svg>