<svg width="32" height="32" viewBox="0 0 32 32" fill="none" xmlns="http://www.w3.org/2000/svg">
<path d="M26.0417 5.94863C22.9711 5.94863 20.4359 8.28344 20.1174 11.2709C22.3459 12.6534 23.8334 15.1221 23.8334 17.932V21.9487C23.8334 23.4139 23.1731 24.7609 22.0917 25.6583V31.0528C22.0917 31.5706 22.5114 31.9903 23.0292 31.9903H29.0542C29.5719 31.9903 29.9917 31.5706 29.9917 31.0528V21.7291C31.1579 21.3366 32 20.2329 32 18.9361V11.9069C32 8.62157 29.3271 5.94863 26.0417 5.94863Z" fill="#FFA000"/>
<path d="M26.0417 5.94863C27.6844 5.94863 29.0209 4.61219 29.0209 2.96944C28.8711 -0.977437 23.2117 -0.976312 23.0625 2.9695C23.0625 4.61219 24.3989 5.94863 26.0417 5.94863Z" fill="#FFA000"/>
<path d="M18.9792 8.99444C18.9792 7.35169 17.6427 6.01525 16 6.01525C12.0531 6.165 12.0542 11.8244 16 11.9736C17.6427 11.9736 18.9792 10.6372 18.9792 8.99444Z" fill="#FFA000"/>
<path d="M16 11.9736C12.9294 11.9736 10.3942 14.3084 10.0757 17.2959C12.3042 18.6784 13.7917 21.1471 13.7917 23.957V24.9611C13.7917 26.4263 13.1314 27.7733 12.05 28.6707V31.0528C12.05 31.5706 12.4697 31.9903 12.9875 31.9903H19.0125C19.5302 31.9903 19.95 31.5706 19.95 31.0528V24.7416C21.1162 24.3491 21.9583 23.2454 21.9583 21.9486V17.9319C21.9583 14.6465 19.2854 11.9736 16 11.9736Z" fill="#FFA000"/>
<path d="M5.95831 17.9986C2.66169 17.9986 0 20.6669 0 23.9569V24.9611C0 26.2579 0.842125 27.3616 2.00831 27.754V31.0528C2.00831 31.5705 2.42806 31.9903 2.94581 31.9903H8.97081C9.48856 31.9903 9.90831 31.5705 9.90831 31.0528V27.754C11.0745 27.3616 11.9166 26.2579 11.9166 24.9611V23.9569C11.9167 20.6608 9.24906 17.9986 5.95831 17.9986Z" fill="#FFA000"/>
<path d="M5.95831 17.9986C7.601 17.9986 8.9375 16.6622 8.9375 15.0194C8.78775 11.0726 3.12831 11.0737 2.97913 15.0195C2.97919 16.6622 4.31563 17.9986 5.95831 17.9986Z" fill="#FFA000"/>
</svg>
