<svg width="150" height="150" viewBox="0 0 150 150" fill="none" xmlns="http://www.w3.org/2000/svg">
<path d="M89.2498 134.836L84.8201 136.336C84.2326 136.537 83.5896 136.496 83.0317 136.224C82.4739 135.952 82.0466 135.469 81.8435 134.883L79.7342 128.648L71.0623 103.125L69.4685 98.4375L64.8748 84.9375C64.7751 84.6451 64.7343 84.336 64.7546 84.0278C64.7749 83.7196 64.8561 83.4185 64.9933 83.1418C65.1306 82.8651 65.3213 82.6183 65.5543 82.4156C65.7874 82.2129 66.0583 82.0584 66.3514 81.9609L68.8357 81.1172L70.781 80.4609C71.3685 80.2602 72.0115 80.3005 72.5694 80.5728C73.1273 80.8452 73.5545 81.3274 73.7576 81.914L90.7263 131.859C90.826 132.152 90.8669 132.461 90.8465 132.769C90.8262 133.077 90.7451 133.378 90.6078 133.655C90.4705 133.932 90.2799 134.179 90.0468 134.381C89.8137 134.584 89.5429 134.738 89.2498 134.836Z" fill="#D6D6D4"/>
<path opacity="0.2" d="M71.0623 103.125L71.5102 104.443L73.1248 103.898C73.7123 103.698 74.3553 103.738 74.9131 104.01C75.471 104.283 75.8982 104.765 76.1014 105.352L86.4415 135.787L89.2498 134.836C89.5429 134.738 89.8137 134.584 90.0468 134.381C90.2799 134.179 90.4705 133.932 90.6078 133.655C90.7451 133.378 90.8262 133.077 90.8465 132.769C90.8669 132.461 90.826 132.152 90.7263 131.859L73.7576 81.914C73.5545 81.3274 73.1273 80.8452 72.5694 80.5728C72.0115 80.3005 71.3685 80.2602 70.781 80.4609L68.8357 81.1172L66.3514 81.9609C66.0583 82.0584 65.7874 82.2129 65.5543 82.4156C65.3213 82.6183 65.1306 82.8651 64.9933 83.1418C64.8561 83.4185 64.7749 83.7196 64.7546 84.0278C64.7343 84.336 64.7751 84.6451 64.8748 84.9375L69.4685 98.4375L71.0623 103.125Z" fill="black"/>
<path d="M43.4251 134.802L47.8642 136.312C49.09 136.729 50.4216 136.073 50.8384 134.847L67.8189 84.9075C68.2357 83.6817 67.5799 82.3501 66.3541 81.9333L61.915 80.424C60.6892 80.0072 59.3576 80.663 58.9408 81.8888L41.9603 131.828C41.5435 133.054 42.1993 134.386 43.4251 134.802Z" fill="#D6D6D4"/>
<path opacity="0.2" d="M66.3413 81.9691L61.9032 80.4609C61.3146 80.2609 60.6708 80.3028 60.1132 80.5776C59.5556 80.8523 59.1299 81.3372 58.9299 81.9258L52.0433 102.187C52.6734 102.401 53.2552 102.737 53.7554 103.176C54.2556 103.615 54.6644 104.148 54.9585 104.745C55.2527 105.342 55.4263 105.992 55.4695 106.656C55.5128 107.32 55.4248 107.986 55.2106 108.616L46.0032 135.705L47.8618 136.337C48.1532 136.436 48.4613 136.477 48.7684 136.457C49.0756 136.437 49.3758 136.357 49.6519 136.221C49.9281 136.085 50.1747 135.896 50.3777 135.664C50.5808 135.433 50.7362 135.164 50.8353 134.872L67.8061 84.9438C67.9054 84.6523 67.9462 84.3441 67.9263 84.0368C67.9064 83.7295 67.8262 83.4292 67.6901 83.1529C67.5541 82.8767 67.3649 82.6299 67.1335 82.4268C66.9021 82.2237 66.6329 82.0681 66.3413 81.9691Z" fill="black"/>
<path d="M117.645 133.594H14.5195C11.9307 133.594 9.83203 135.692 9.83203 138.281C9.83203 140.87 11.9307 142.969 14.5195 142.969H117.645C120.233 142.969 122.332 140.87 122.332 138.281C122.332 135.692 120.233 133.594 117.645 133.594Z" fill="#44546C"/>
<path opacity="0.2" d="M117.644 133.594H115.3C115.3 134.837 114.806 136.029 113.927 136.908C113.048 137.787 111.856 138.281 110.613 138.281H9.83154C9.83154 139.524 10.3254 140.717 11.2045 141.596C12.0836 142.475 13.2758 142.969 14.519 142.969H117.644C118.887 142.969 120.08 142.475 120.959 141.596C121.838 140.717 122.332 139.524 122.332 138.281C122.332 137.038 121.838 135.846 120.959 134.967C120.08 134.088 118.887 133.594 117.644 133.594Z" fill="black"/>
<path d="M7.0415 96.6248L44.6728 77.5138L48.9196 85.8763L11.2884 104.987L7.0415 96.6248Z" fill="#44546C"/>
<path opacity="0.2" d="M44.6438 77.4822L37.1907 81.2679C37.4958 81.8684 37.6796 82.5231 37.7316 83.1946C37.7836 83.8661 37.7029 84.5413 37.494 85.1817C37.285 85.822 36.952 86.4149 36.5139 86.9265C36.0758 87.4381 35.5413 87.8584 34.9407 88.1634L9.354 101.162L11.2771 104.947L48.8905 85.8405L44.6438 77.4822Z" fill="black"/>
<path d="M38.3679 75.4518L59.2742 64.8347L67.7679 81.5597L46.8617 92.1769L38.3679 75.4518Z" fill="#D6D6D4"/>
<path opacity="0.2" d="M59.2377 64.811L46.1966 71.4356L47.3331 73.6729C47.8571 74.7044 48.1728 75.8291 48.2622 76.9826C48.3516 78.1361 48.2129 79.2959 47.854 80.3959C47.4952 81.4958 46.9232 82.5142 46.1707 83.3931C45.4182 84.272 44.5 84.994 43.4685 85.518L46.8337 92.1426L67.7296 81.5278L59.2377 64.811Z" fill="black"/>
<path d="M49.8477 66.9873L91.6602 45.7529L102.277 66.6592L60.4648 87.8936L49.8477 66.9873Z" fill="#44546C"/>
<path opacity="0.2" d="M91.6099 45.7378L85.1042 49.0425C87.1582 53.0863 87.5218 57.7804 86.1149 62.0922C84.708 66.404 81.646 69.9804 77.6023 72.0347L57.5632 82.2143L60.4327 87.8627L102.225 66.6328L91.6099 45.7378Z" fill="black"/>
<path d="M90.5947 43.6541L107.32 35.1604L120.06 60.2479L103.335 68.7416L90.5947 43.6541Z" fill="#D6D6D4"/>
<path opacity="0.2" d="M107.265 35.1562L100.759 38.4609L105.441 47.6766C106.122 49.0175 106.532 50.4795 106.649 51.9791C106.765 53.4787 106.584 54.9864 106.118 56.4163C105.651 57.8462 104.908 59.1702 103.93 60.3127C102.951 61.4552 101.758 62.3938 100.417 63.075L103.286 68.7234L120.003 60.2316L107.265 35.1562Z" fill="black"/>
<path d="M75.457 82.0312H56.707C55.4126 82.0312 54.3633 83.0806 54.3633 84.375V98.4375C54.3633 99.7319 55.4126 100.781 56.707 100.781H75.457C76.7515 100.781 77.8008 99.7319 77.8008 98.4375V84.375C77.8008 83.0806 76.7515 82.0312 75.457 82.0312Z" fill="#44546C"/>
<path opacity="0.2" d="M75.4565 82.0312H73.1128C73.1128 85.7609 71.6312 89.3377 68.994 91.9749C66.3568 94.6122 62.7799 96.0938 59.0503 96.0938H54.3628V98.4375C54.3628 99.0591 54.6097 99.6552 55.0493 100.095C55.4888 100.534 56.0849 100.781 56.7065 100.781H75.4565C76.0781 100.781 76.6743 100.534 77.1138 100.095C77.5534 99.6552 77.8003 99.0591 77.8003 98.4375V84.375C77.8003 83.7534 77.5534 83.1573 77.1138 82.7177C76.6743 82.2782 76.0781 82.0312 75.4565 82.0312Z" fill="black"/>
<path d="M66.082 91.4062C72.5541 91.4062 77.8008 86.1596 77.8008 79.6875C77.8008 73.2154 72.5541 67.9688 66.082 67.9688C59.6099 67.9688 54.3633 73.2154 54.3633 79.6875C54.3633 86.1596 59.6099 91.4062 66.082 91.4062Z" fill="#D6D6D4"/>
<path opacity="0.2" d="M72.8223 70.125C73.3409 72.4319 73.1476 74.8419 72.2679 77.0367C71.3882 79.2315 69.8636 81.1079 67.8952 82.418C65.9269 83.7282 63.6074 84.4105 61.2432 84.375C58.879 84.3394 56.5811 83.5876 54.6531 82.2188C55.0617 84.0785 55.9178 85.8106 57.147 87.2648C58.3762 88.719 59.9415 89.8515 61.7073 90.5642C63.473 91.2769 65.3859 91.5482 67.2802 91.3546C69.1745 91.161 70.9929 90.5084 72.578 89.4533C74.1632 88.3983 75.467 86.9726 76.3767 85.2998C77.2864 83.627 77.7744 81.7576 77.7985 79.8536C77.8225 77.9496 77.3819 76.0685 76.5148 74.3732C75.6477 72.678 74.3802 71.2198 72.8223 70.125Z" fill="black"/>
<path d="M66.0803 84.3749C65.1532 84.3749 64.2469 84.1 63.4761 83.585C62.7052 83.0699 62.1044 82.3378 61.7496 81.4813C61.3949 80.6247 61.302 79.6822 61.4829 78.773C61.6638 77.8637 62.1102 77.0284 62.7658 76.3729C63.4213 75.7173 64.2566 75.2709 65.1658 75.09C66.0751 74.9091 67.0176 75.002 67.8741 75.3568C68.7307 75.7115 69.4628 76.3123 69.9778 77.0832C70.4929 77.8541 70.7678 78.7603 70.7678 79.6874C70.7661 80.9301 70.2717 82.1214 69.393 83.0002C68.5143 83.8789 67.323 84.3733 66.0803 84.3749ZM66.0827 79.6874L66.0782 79.6898L66.0803 82.0312L66.0827 79.6874Z" fill="#44546C"/>
<path d="M135.937 21.0937C134.252 21.0983 132.621 20.4954 131.343 19.3955C130.066 18.2955 129.227 16.7722 128.981 15.1045C128.736 13.4368 129.099 11.7363 130.004 10.3145C130.91 8.89274 132.298 7.84479 133.913 7.36263C131.403 6.7555 128.764 6.9852 126.398 8.01674C124.031 9.04829 122.066 10.8251 120.802 13.0767C119.539 15.3282 119.046 17.931 119.399 20.4886C119.751 23.0463 120.93 25.4186 122.756 27.2442C124.581 29.0698 126.954 30.2487 129.511 30.6014C132.069 30.954 134.672 30.461 136.923 29.1975C139.175 27.9339 140.952 25.9691 141.983 23.6023C143.015 21.2355 143.244 18.5964 142.637 16.087C142.207 17.5309 141.323 18.7976 140.116 19.6995C138.909 20.6013 137.444 21.0902 135.937 21.0937Z" fill="#FFA912"/>
<g opacity="0.1">
<path opacity="0.1" d="M142.637 16.087C142.309 17.1737 141.724 18.1651 140.93 18.9767C140.137 19.7883 139.159 20.3962 138.08 20.7485C137.682 23.0684 136.593 25.2143 134.957 26.9061C133.32 28.5979 131.212 29.7572 128.906 30.2325C130.833 30.6424 132.832 30.5566 134.716 29.9833C136.601 29.4101 138.309 28.3679 139.681 26.9546C141.053 25.5412 142.044 23.8028 142.561 21.9021C143.078 20.0014 143.104 18.0006 142.637 16.087Z" fill="black"/>
<path opacity="0.1" d="M129.225 7.36264C127.61 7.8448 126.223 8.89274 125.317 10.3145C124.411 11.7363 124.048 13.4368 124.294 15.1045C124.54 16.7722 125.378 18.2956 126.656 19.3955C127.933 20.4954 129.564 21.0983 131.25 21.0937C132.058 21.0926 132.861 20.9498 133.62 20.6719C132.219 20.1897 131.008 19.275 130.161 18.0597C129.314 16.8444 128.875 15.3915 128.908 13.9106C128.941 12.4297 129.443 10.9974 130.343 9.82062C131.242 8.64382 132.492 7.78332 133.913 7.36334C132.245 6.94756 130.504 6.92214 128.825 7.28904C128.958 7.31623 129.094 7.33217 129.225 7.36264Z" fill="black"/>
</g>
<path d="M85.5468 7.21167L88.6101 14.5148L95.9132 17.5781L88.6101 20.6414L85.5468 27.9445L82.4835 20.6414L75.1804 17.5781L82.4835 14.5148L85.5468 7.21167Z" fill="#FFA912"/>
<path d="M132.422 61.1179L135.485 68.421L142.788 71.4843L135.485 74.5476L132.422 81.8507L129.359 74.5476L122.055 71.4843L129.359 68.421L132.422 61.1179Z" fill="#FFA912"/>
<g opacity="0.1">
<path opacity="0.1" d="M133.141 66.0773L134.794 66.7687L132.422 61.1179L131.742 62.7398L133.141 66.0773Z" fill="black"/>
<path opacity="0.1" d="M138.823 69.8203L133.141 72.2038L130.758 77.8851L132.422 81.8507L135.485 74.5476L142.788 71.4843L138.823 69.8203Z" fill="black"/>
<path opacity="0.1" d="M127.015 72.2038L123.677 70.8046L122.055 71.4843L127.706 73.8562L127.015 72.2038Z" fill="black"/>
</g>
<g opacity="0.1">
<path opacity="0.1" d="M86.2664 12.171L87.9187 12.8625L85.5469 7.21167L84.8672 8.83355L86.2664 12.171Z" fill="black"/>
<path opacity="0.1" d="M91.9477 15.914L86.2664 18.2976L83.8828 23.9788L85.5469 27.9445L88.6102 20.6413L95.9133 17.5781L91.9477 15.914Z" fill="black"/>
<path opacity="0.1" d="M80.1398 18.2976L76.8023 16.8984L75.1804 17.5781L80.8312 19.9499L80.1398 18.2976Z" fill="black"/>
</g>
</svg>
