<svg xmlns="http://www.w3.org/2000/svg" version="1.1" xmlns:xlink="http://www.w3.org/1999/xlink" xmlns:svgjs="http://svgjs.com/svgjs" width="512" height="512" x="0" y="0" viewBox="0 0 512 512" style="enable-background:new 0 0 512 512" xml:space="preserve"><g><path xmlns="http://www.w3.org/2000/svg" d="m98.139 50.247h11v296.642h-11z" fill="#514C45" transform="matrix(.953 .304 -.304 .953 65.344 -22.121)" data-original="#514c45"></path><g xmlns="http://www.w3.org/2000/svg" fill="#006DA2"><circle cx="106.505" cy="211.393" r="23.828" fill="#006DA2" data-original="#006da2"></circle><circle cx="425.039" cy="368.124" r="23.828" fill="#006DA2" data-original="#006da2"></circle><g fill="#006DA2"><path d="m181.286 185.48h-14.161c-4.255 0-7.705-3.45-7.705-7.705v-38.525c0-4.255 3.45-7.705 7.705-7.705h14.161z" fill="#000000" data-original="#000000"></path><path d="m397.133 185.48h14.161c4.255 0 7.705-3.45 7.705-7.705v-38.525c0-4.255-3.45-7.705-7.705-7.705h-14.161z" fill="#000000" data-original="#000000"></path></g></g><g xmlns="http://www.w3.org/2000/svg" fill="#99E8FF"><path d="m175.741 163.745c0 62.667 50.802 85.147 113.468 85.147s113.468-22.48 113.468-85.147-50.8-116.124-113.467-116.124-113.469 53.457-113.469 116.124z" fill="#99E8FF" data-original="#99e8ff"></path><path d="m248.824 236.175.775 57.727-40.476.943c-31.937.744-63.032-10.282-87.364-30.98l-21.765-18.513c-4.442-3.778-4.942-10.457-1.112-14.854l24.078-27.648c3.798-4.361 10.413-4.818 14.774-1.02l3.027 2.636c24.148 21.028 55.201 32.417 87.219 31.989z" fill="#99E8FF" data-original="#99e8ff"></path><path d="m317.387 272.352 30.931-48.747 34.399 21.353c27.141 16.848 47.139 43.088 56.185 73.726l8.092 27.404c1.651 5.592-1.584 11.457-7.195 13.043l-35.281 9.972c-5.565 1.573-11.352-1.663-12.925-7.228l-1.092-3.862c-8.711-30.813-28.475-57.334-55.512-74.49z" fill="#99E8FF" data-original="#99e8ff"></path><g fill="#99E8FF"><path d="m261.458 479.298h-42.222c-5.737 0-10.389-4.651-10.389-10.389v-114.224c0-5.737 4.651-10.389 10.389-10.389h42.222c5.737 0 10.389 4.651 10.389 10.389v114.224c0 5.738-4.651 10.389-10.389 10.389z" fill="#000000" data-original="#000000"></path><path d="m359.183 479.298h-42.222c-5.737 0-10.389-4.651-10.389-10.389v-114.224c0-5.737 4.651-10.389 10.389-10.389h42.222c5.737 0 10.389 4.651 10.389 10.389v114.224c-.001 5.738-4.652 10.389-10.389 10.389z" fill="#000000" data-original="#000000"></path></g><path d="m375.062 391.466c-.104.311-.208.634-.322.945-.021.073-.052.145-.083.218-2.909 7.677-10.337 13.131-19.032 13.131-6.732 0-126.138 0-132.87 0-9.35 0-17.235-6.306-19.603-14.897-.041-.125-.073-.249-.104-.364-4.467-15.417-2.535-54.156 4.54-92.697 3.792-20.632 8.384-40.381 17.526-59.651 1.392-2.95 3.563-5.88 6.898-6.992 1.818-.602 3.813-.613 5.745-.613 16.206.01 86.693.01 102.899 0 1.932 0 3.927.01 5.745.613 3.335 1.112 5.506 4.041 6.898 6.992 9.142 19.271 13.734 39.02 17.526 59.651 7.229 39.373 9.078 78.964 4.237 93.664z" fill="#99E8FF" data-original="#99e8ff"></path></g><g xmlns="http://www.w3.org/2000/svg" fill="#62CFF0"><path d="m218.325 284.578c-40.8-10.643-92.196-19.779-117.347-56.488l-2.097 2.408c-3.83 4.397-3.33 11.076 1.112 14.854l21.765 18.513c24.083 20.485 54.79 31.489 86.38 30.992-.185.981-.37 1.961-.551 2.945-1.561 8.506-2.871 17.02-3.918 25.292 3.452-12.362 14.464-37.51 14.656-38.516z" fill="#62CFF0" data-original="#62cff0"></path><path d="m363.765 250.846c14.666-2.75 28.416 2.383 35.658 6.43-5.202-4.519-10.784-8.642-16.706-12.318l-18.921-11.745c23.826-13.153 38.883-35.354 38.883-69.467 0-13.622-2.403-26.808-6.804-39.106-4.396 42.876-26.359 81.444-73.663 92.413-37.412 8.314-78.814 21.945-115.69 11.088 4.396 3.114 9.184 5.842 14.311 8.206-6.479-.269-12.894-1.049-19.207-2.264 44.076 30.145 97.608 27.946 162.139 16.763z" fill="#62CFF0" data-original="#62cff0"></path><path d="m402.264 349.782c-12.222-21.877-19.188-32.51-32.693-47.054-5.399 28.345-7.208 57.824-11.151 85.069-1.255 8.673-9.199 12.951-23.255 16.617 11.702 1.008 17.351 5.214 17.661 7.384.917 6.427-.469 11.548-2.139 17.793-2.871 10.74-28.844-.367-44.115 9.166v30.152c0 5.737 4.651 10.389 10.389 10.389h42.221c5.738 0 10.389-4.651 10.389-10.389 0 0 0-68.679 0-68.682 0-.307 1.404-1.454 1.649-1.746.545-.649 1.049-1.331 1.509-2.043 1.004-1.552 1.749-3.222 2.332-4.972 3.798-11.532 3.477-38.386-.329-68.434 6.9 10.732 12.24 22.503 15.767 34.979l1.092 3.862c1.573 5.565 7.36 8.801 12.925 7.228l11.413-3.226c-6.94-2.707-8.945-9.486-13.665-16.093z" fill="#62CFF0" data-original="#62cff0"></path><path d="m256.763 434.174c-23.719-5.142-34.893-2.139-47.915 6.06v28.675c0 5.737 4.651 10.389 10.389 10.389h42.221c5.738 0 10.389-4.651 10.389-10.389v-52.667c-2.312 11.515-6.345 19.826-15.084 17.932z" fill="#62CFF0" data-original="#62cff0"></path></g><path xmlns="http://www.w3.org/2000/svg" d="m186.264 154.738c-2.39 27.965 9.045 49.722 28.156 60.235 21.831 12.009 51.407 6.419 74.887 6.105 22.447-.3 47.491 3.881 69.294-4.334 23.51-8.858 37.019-39.047 33.694-62.005-6.41-44.264-46.11-89.814-102.989-89.814-52.873 0-98.661 38.551-103.042 89.813z" fill="#8F6A1D" data-original="#8f6a1d"></path><path xmlns="http://www.w3.org/2000/svg" d="m194.723 150.323c-2.149 25.148 8.134 44.714 25.32 54.168 19.632 10.8 46.229 5.772 67.344 5.49 20.186-.27 42.707 3.49 62.315-3.897 21.142-7.965 33.29-35.114 30.3-55.759-5.764-39.806-41.465-80.767-92.615-80.767-47.548-.002-88.725 34.666-92.664 80.765z" fill="#E8B037" data-original="#e8b037"></path><g xmlns="http://www.w3.org/2000/svg" fill="#F6DB3D"><path d="m289.171 136.07c7.146-6.81 15.069-13.054 17.571-23.161 6.007-24.26-22.464-32.056-40.967-30.218-20.992 2.086-39.66 15.251-50.256 33.283-7.237 12.315-10.591 26.893-9.35 41.123.805 9.23 3.632 18.518 9.543 25.653 4.972 6.003 12.369 10.326 20.238 10.792 13.838.82 23.781-17.501 30.049-27.229 6.317-9.804 12.69-19.732 20.937-28.057.731-.738 1.479-1.465 2.235-2.186z" fill="#F6DB3D" data-original="#f6db3d"></path><path d="m365.729 138.067c-2.782-9.105-13.841-17.555-17.849-10.4-10.615 19.623-30.881 28.953-43.339 47.167-8.233 12.685 1.853 26.23 15.294 27.743 13.659 3.138 27.856-2.07 38.15-11.721 10.076-11.277 11.588-24.718 10.834-39.178-.321-4.927-1.346-9.705-3.09-13.611z" fill="#F6DB3D" data-original="#f6db3d"></path></g><g xmlns="http://www.w3.org/2000/svg" fill="#FFFFD1"><path d="m289.48 94.376c-3.354-6.41-14.352-6.734-20.55-6.345-12.073.758-22.911 6.038-32.265 13.501-2.397 1.912-4.646 3.97-6.624 6.126-8.637 6.854-13.28 22.331-3.995 26.974 4.601 2.301 7.916 1.922 11.681-1.756 3.967-3.876 7.542-8.164 11.567-12.019 2.641-2.529 5.381-5.022 8.607-6.744 3.899-2.08 8.31-2.935 12.599-4 4.676-1.162 9.316-2.618 13.557-4.905 3.146-1.697 5.976-4.2 6.074-8.014.028-1.041-.212-1.977-.651-2.818z" fill="#FFFFD1" data-original="#ffffd1"></path><path d="m222.043 138.127c-13.978 0-14.001 21.723 0 21.723 13.977 0 14-21.723 0-21.723z" fill="#FFFFD1" data-original="#ffffd1"></path><path d="m353.943 160.884c-3.889 11.339-16.763 15.71-24.174 22.206-4.941 4.331-4.085 12.754 2.916 12.297 15.42-.848 30.969-17.081 28.437-34.457-.467-3.204-5.75-4.214-7.179-.046z" fill="#FFFFD1" data-original="#ffffd1"></path></g><g xmlns="http://www.w3.org/2000/svg" fill="#006DA2"><path d="m275.159 490.635h-70.738c-5.328 0-9.321-4.954-8.115-10.143 4.595-19.764 22.325-34.499 43.483-34.499s38.888 14.735 43.483 34.499c1.208 5.19-2.785 10.143-8.113 10.143z" fill="#006DA2" data-original="#006da2"></path><path d="m375.745 490.635h-70.738c-5.328 0-9.321-4.954-8.115-10.143 4.595-19.764 22.325-34.499 43.483-34.499 21.159 0 38.888 14.735 43.483 34.499 1.208 5.19-2.785 10.143-8.113 10.143z" fill="#006DA2" data-original="#006da2"></path><path d="m343.881 323.26h-109.343c-3.714 0-6.604-3.227-6.195-6.919l5.152-46.565c.349-3.158 3.018-5.548 6.195-5.548h99.039c3.177 0 5.846 2.39 6.195 5.548l5.152 46.565c.409 3.692-2.481 6.919-6.195 6.919z" fill="#006DA2" data-original="#006da2"></path><path d="m377.08 360.933h-175.753c-1.97 0-3.524-1.673-3.381-3.637l.721-9.857c.13-1.771 1.605-3.142 3.381-3.142h174.31c1.776 0 3.251 1.371 3.381 3.142l.721 9.857c.145 1.964-1.41 3.637-3.38 3.637z" fill="#006DA2" data-original="#006da2"></path></g><path xmlns="http://www.w3.org/2000/svg" d="m222.546 233.545 24.596 3.747c29.16 4.443 58.824 4.443 87.984.001l24.429-3.721c1.981-.302 2.66 2.548.752 3.159-25.06 8.028-78.826 19.885-138.518-.024-1.893-.63-1.214-3.463.757-3.162z" fill="#006DA2" data-original="#006da2"></path><path xmlns="http://www.w3.org/2000/svg" d="m122.878 125.894-98.153-63.653c-1.576-1.022-.836-3.469 1.042-3.446l118.037 1.413c1.26.015 2.146 1.244 1.763 2.444l-19.884 62.24c-.376 1.177-1.768 1.675-2.805 1.002z" fill="#FF3333" data-original="#ff3333"></path><path xmlns="http://www.w3.org/2000/svg" d="m143.804 60.208-8.769-.105c-4.617 13.607-11.55 25.685-22.673 31.247-10.688 5.678-22.558 6.948-34.677 5.236l45.193 29.308c1.037.672 2.429.175 2.805-1.002l19.884-62.24c.383-1.2-.503-2.429-1.763-2.444z" fill="#D12A2A" data-original="#d12a2a"></path><g xmlns="http://www.w3.org/2000/svg" fill="#C2FFF9"><path d="m280.939 292.307c-.12 10.041-8.626 18.364-18.997 18.364s-18.304-8.323-17.731-18.364c.559-9.799 9.047-17.571 18.97-17.571 9.923.001 17.875 7.773 17.758 17.571z" fill="#C2FFF9" data-original="#c2fff9"></path><g fill="#C2FFF9"><path d="m334.342 282.055h-43.285c-1.158 0-2.095-.906-2.093-2.02.002-1.111.938-2.009 2.09-2.009h43.068c1.152 0 2.138.898 2.201 2.009.064 1.114-.823 2.02-1.981 2.02z" fill="#000000" data-original="#000000"></path><path d="m335.707 307.109h-44.635c-1.194 0-2.16-.963-2.158-2.147.002-1.181.968-2.136 2.155-2.136h44.405c1.188 0 2.206.955 2.273 2.136.067 1.184-.846 2.147-2.04 2.147z" fill="#000000" data-original="#000000"></path><path d="m335.014 294.389h-43.95c-1.176 0-2.127-.934-2.125-2.082.002-1.145.953-2.071 2.122-2.071h43.726c1.17 0 2.171.926 2.236 2.071.067 1.149-.833 2.082-2.009 2.082z" fill="#000000" data-original="#000000"></path></g></g></g></svg>