<svg xmlns="http://www.w3.org/2000/svg" version="1.1" xmlns:xlink="http://www.w3.org/1999/xlink" xmlns:svgjs="http://svgjs.com/svgjs" width="512" height="512" x="0" y="0" viewBox="0 0 497.003 497.003" style="enable-background:new 0 0 512 512" xml:space="preserve" class=""><g><g xmlns="http://www.w3.org/2000/svg"><path d="m381.183 402.127c-7.239 0-13.972-4.59-16.368-11.835-2.987-9.037 1.919-18.792 10.956-21.774 51.895-17.137 86.762-65.367 86.762-120.02 0-53.906-34.281-101.94-85.302-119.52-8.997-3.102-13.777-12.909-10.674-21.912 3.097-8.997 12.886-13.782 21.906-10.68 64.919 22.371 108.541 83.498 108.541 152.111 0 69.549-44.375 130.941-110.414 152.755-1.793.594-3.62.875-5.407.875z" fill="#FFFFFF" data-original="#000000" class=""></path><path d="m410.856 248.499c0-41.077-33.333-74.496-74.364-74.668v-123.018c0-19.148-10.002-36.188-26.1-44.467-14.77-7.606-31.747-6.308-45.409 3.459l-162.481 116.4h-56.542c-25.341 0-45.96 20.619-45.96 45.96v152.669c0 25.341 20.619 45.96 45.96 45.96h56.543l162.493 116.417c7.756 5.544 16.58 8.353 25.468 8.353 6.756 0 13.547-1.626 19.93-4.906 16.103-8.279 26.1-25.318 26.1-44.467v-123.023c41.024-.173 74.362-33.597 74.362-74.669zm-320.033 87.825h-44.863c-6.337 0-11.49-5.153-11.49-11.49v-152.669c0-6.337 5.153-11.49 11.49-11.49h44.863zm211.193 109.862c0 7.382-3.82 11.978-7.394 13.817-3.263 1.66-6.48 1.385-9.571-.827l-159.752-114.453v-192.447l159.741-114.441c3.12-2.218 6.337-2.505 9.588-.839 3.573 1.838 7.394 6.434 7.394 13.817v395.373zm34.471-157.489v-80.396c22.026.172 39.894 18.131 39.894 40.198.005 22.067-17.868 40.026-39.894 40.198z" fill="#FFFFFF" data-original="#000000" class=""></path></g></g></svg>