<svg width="146" height="146" viewBox="0 0 146 146" fill="none" xmlns="http://www.w3.org/2000/svg">
<path d="M73 143.861C112.136 143.861 143.861 112.136 143.861 73C143.861 33.8644 112.136 2.13867 73 2.13867C33.8644 2.13867 2.13867 33.8644 2.13867 73C2.13867 112.136 33.8644 143.861 73 143.861Z" fill="#6746C3"/>
<path d="M13.5449 73C13.5449 35.7845 42.2348 5.27225 78.7031 2.36765C76.8217 2.21766 74.92 2.13867 73 2.13867C33.8643 2.13867 2.13867 33.8643 2.13867 73C2.13867 112.136 33.8643 143.861 73 143.861C74.92 143.861 76.8217 143.782 78.7031 143.632C42.2348 140.728 13.5449 110.215 13.5449 73Z" fill="#6746C3"/>
<path d="M124.619 21.381C110.831 7.59343 92.499 0 73 0C51.7136 0 31.5354 9.26473 17.6392 25.4183C16.8689 26.3136 16.9705 27.6639 17.8656 28.4344C18.7612 29.2046 20.1112 29.1033 20.8817 28.2079C33.9646 12.9997 52.9609 4.27734 73 4.27734C91.3563 4.27734 108.614 11.4256 121.594 24.4057C134.574 37.3857 141.723 54.6434 141.723 73C141.723 90.2343 135.313 106.719 123.673 119.418C122.875 120.289 122.934 121.642 123.805 122.44C124.215 122.816 124.733 123.002 125.249 123.002C125.828 123.002 126.405 122.768 126.827 122.308C139.191 108.818 146 91.307 146 73C146 53.501 138.407 35.1692 124.619 21.381Z" fill="black"/>
<path d="M15.2262 31.9102C14.2441 31.254 12.9159 31.5181 12.26 32.5005C4.23913 44.5058 0 58.5104 0 73.0001C0 92.4991 7.59314 110.831 21.381 124.619C35.1689 138.407 53.501 146 73 146C90.4176 146 107.284 139.762 120.493 128.436C121.39 127.667 121.493 126.317 120.725 125.42C119.956 124.523 118.605 124.42 117.709 125.189C105.275 135.851 89.3968 141.723 73 141.723C54.6433 141.723 37.3854 134.574 24.4057 121.594C11.4256 108.614 4.27734 91.3567 4.27734 73.0001C4.27734 59.359 8.26753 46.1763 15.8165 34.8767C16.4726 33.8943 16.2083 32.5663 15.2262 31.9102Z" fill="black"/>
<path d="M51.6309 24.6089C54.2353 24.6089 56.7119 23.4809 58.4259 21.5144C59.2018 20.6239 59.1092 19.2731 58.2189 18.4969C57.3284 17.721 55.9776 17.8137 55.2014 18.7042C54.3 19.7385 52.9985 20.3319 51.6309 20.3319C50.2633 20.3319 48.9619 19.7385 48.0605 18.7042C47.2846 17.8137 45.9335 17.721 45.0433 18.4969C44.1527 19.2731 44.06 20.6239 44.836 21.5144C46.55 23.4811 49.0266 24.6089 51.6309 24.6089Z" fill="black"/>
<path d="M94.3688 24.609C96.9731 24.609 99.4497 23.4809 101.164 21.5142C101.94 20.6236 101.847 19.2728 100.956 18.4967C100.066 17.7205 98.7151 17.8134 97.9389 18.704C97.0375 19.7382 95.7361 20.3316 94.3685 20.3316C93.0009 20.3316 91.6997 19.7382 90.798 18.704C90.0218 17.8134 88.6711 17.7207 87.7805 18.4967C86.89 19.2726 86.7973 20.6236 87.5732 21.5142C89.2876 23.4812 91.7644 24.609 94.3688 24.609Z" fill="black"/>
<path d="M77.007 27.1835C77.007 24.8233 75.2131 22.9099 73 22.9099C70.7869 22.9099 68.9927 24.8233 68.9927 27.1835C68.9927 29.5438 70.7869 31.4572 73 31.4572C75.2131 31.4572 77.007 29.5438 77.007 27.1835Z" fill="black"/>
<g clip-path="url(#clip0_226_859)">
<path d="M98.1311 66.8713L61.4707 41.7737C59.7776 40.6139 58.0717 40 56.6538 40C53.9126 40 52.2169 42.2001 52.2169 45.8827V100.126C52.2169 103.804 53.9104 106 56.6453 106C58.0653 106 59.7439 105.386 61.4407 104.223L98.1183 79.1255C100.477 77.5088 101.783 75.3333 101.783 72.9971C101.784 70.6624 100.492 68.4874 98.1311 66.8713Z" fill="white"/>
</g>
<defs>
<clipPath id="clip0_226_859">
<rect width="66" height="66" fill="white" transform="translate(44 40)"/>
</clipPath>
</defs>
</svg>
