<svg xmlns="http://www.w3.org/2000/svg" version="1.1" xmlns:xlink="http://www.w3.org/1999/xlink" xmlns:svgjs="http://svgjs.com/svgjs" width="512" height="512" x="0" y="0" viewBox="0 0 512 512" style="enable-background:new 0 0 512 512" xml:space="preserve" class=""><g><path xmlns="http://www.w3.org/2000/svg" d="m400.178 466.624h-284.694l17.274-48.298h250.144z" fill="#DED5EF" data-original="#a7a6ac" class=""></path><g xmlns="http://www.w3.org/2000/svg" fill="#FDBC44"><path d="m171.212 332.584c-12.649-3.615-22.406-13.708-25.59-26.472l-2.942-11.824 21.553-5.362 2.942 11.824c1.973 7.795 9.89 12.514 17.685 10.542 7.75-1.961 12.469-9.806 10.57-17.572l-54.48-218.984 21.553-5.362 54.48 218.984c4.908 19.697-7.082 39.644-26.779 44.552-6.25 1.557-12.799 1.445-18.992-.326z" fill="#FFA000" data-original="#fdbc44" class=""></path><path d="m142.92 82.466-1.97-7.73c-3.984-15.521 5.369-31.332 20.89-35.316s31.332 5.369 35.316 20.89c.036.139.07.278.104.417l.722 2.903c1.135 4.357 8.75 39.771-30.88 80.037-37.587 39.28-26.967 73.82-26.855 74.165l.213.746c2.905 10.016 9.25 18.686 17.918 24.484 5.488 3.796 16.641 9.68 29.673 6.439 16.428-4.087 30.678-19.341 26.087-37.794-2.711-10.901-15.536-19.503-25.41-17.05-5.457 1.091-10.195 4.444-13.038 9.228-1.741 3.795-1.738 8.16.008 11.953.18.314.377.618.589.911 1.334 5.673 4.302 16.708 6.13 24.672-11.005.336-21.248-5.599-26.429-15.313l-.562-1.157c-4.453-9.903-4.298-21.268.423-31.046 5.711-10.606 15.757-18.199 27.518-20.8 21.714-5.404 46.654 10.441 52.325 33.24 7.119 28.617-11.451 57.04-42.278 64.709-9.462 2.329-19.372 2.111-28.723-.631-6.768-1.98-13.168-5.052-18.946-9.093-13.048-8.796-22.537-21.952-26.766-37.11-1.553-5.28-12.647-49.224 32.138-95.973l.108-.111c31.756-32.235 25.574-57.729 25.296-58.798l.045.16-.123-.454-.735-2.957c-.886-3.651-4.565-5.892-8.216-5.006s-5.892 4.565-5.006 8.216c.006.025.012.051.019.076l2.096 8.344" fill="#FFA000" data-original="#fdbc44" class=""></path><path d="m390.414 228.232-77.918-122.867-26.753 5.293-37.883 214.842c-5.29-4.559-11.184-8.365-17.516-11.309-32.132-14.984-68.306-5.416-80.796 21.369s3.433 60.646 35.565 75.63 68.306 5.416 80.797-21.369c3.175-6.853 4.609-14.384 4.175-21.925l37.912-215.009 57.716 91.011c7.733 12.192 4.118 28.345-8.074 36.078-.67.425-1.36.82-2.066 1.182-11.627 5.918-25.835 2.399-33.355-8.263l-23.958 16.776c17.546 25.061 52.086 31.153 77.146 13.607 24.257-16.983 30.868-50.04 15.008-75.046z" fill="#FFA000" data-original="#fdbc44" class=""></path></g><path xmlns="http://www.w3.org/2000/svg" d="m452.134 131.767c-3.191 2.906-6.584 6.367-10.514 10.375-14.414 14.705-34.365 35.033-66.591 50.602l-8.018-12.643c33.914-13.542 56.014-32.425 70.956-45.219 4.125-3.531 7.688-6.582 10.85-8.992l-7.273-9.543c-3.434 2.615-7.117 5.77-11.38 9.42-15.463 13.24-36.78 31.49-69.594 44.174l-6.03-9.507c33.18-11.112 55.648-27.797 70.977-39.197 4.344-3.23 8.096-6.021 11.404-8.2l-6.598-10.023c-3.598 2.367-7.477 5.254-11.969 8.594-15.972 11.88-37.903 28.156-70.36 38.505l-6.387-10.073c34.303-8.675 58.09-23.92 74.275-34.305 4.543-2.914 8.469-5.434 11.91-7.371l-5.887-10.457c-3.744 2.109-7.803 4.713-12.504 7.729-17.017 10.918-40.473 25.96-74.487 33.852l-17.335-27.336-6.23-2.674-26.754 5.293-4.744 4.846-4.396 24.93c-13.977-.68-27.887-2.366-41.622-5.047-14.316-2.788-28.79-4.688-43.34-5.689 19.942-32.339 14.215-58.228 13.331-61.625l-.723-2.908c-4.669-18.765-23.665-30.193-42.43-25.524s-30.193 23.665-25.524 42.43v.002l11.864 47.695-.043.046-.166.172c-.078.081-.147.162-.224.243-63.371 6.231-90.042 35.132-91.534 36.806l8.945 8c.308-.342 21.387-22.753 70.788-30.923-7.431 9.757-13.376 20.561-17.64 32.06-33.366 13.248-47.444 30.766-48.474 32.094l9.48 7.355c.203-.263 10.405-12.94 34.682-24.341-2.306 10.819-2.706 21.959-1.18 32.915-16.858 11.639-24.107 22.007-24.801 23.04l9.953 6.7c.14-.208 5.438-7.784 17.992-17.09 4.099 11.249 10.934 21.301 19.89 29.248-17.487 13.881-24.371 25.86-25.001 27l10.5 5.809c.146-.264 6.806-11.823 24.514-25.193 5.684 3.661 11.868 6.481 18.36 8.371 5.628 1.621 11.456 2.446 17.313 2.451 1.703 0 3.4-.097 5.091-.239l4.171 16.764c.554 2.203.204 4.535-.971 6.479-.056.092-.131.166-.189.255-2.493.368-4.964.872-7.402 1.51-1.37.362-2.705.778-4.023 1.217-2.011-1.154-3.465-3.079-4.025-5.329l-2.941-11.824-7.271-4.373-21.553 5.363-4.373 7.271 2.941 11.822c1.605 6.426 4.686 12.389 8.997 17.417-1.802 2.536-3.37 5.229-4.687 8.048-6.807 14.596-6.432 31.404 1.057 47.328 7.504 15.391 19.963 27.814 35.375 35.274h-47.783l-5.65 3.979-17.275 48.297 5.65 8.021h284.693l5.65-8.021-17.273-48.297-5.65-3.979h-133.06c9.392-5.357 16.901-13.484 21.5-23.27 3.502-7.524 5.135-15.782 4.762-24.072l25.171-142.751c13.75-1.564 27.36-4.188 40.706-7.847l18.66 29.426c5.958 9.392 3.173 21.836-6.219 27.793-.517.328-1.049.632-1.594.912-8.959 4.559-19.906 1.848-25.701-6.365l-8.355-1.473-23.959 16.777-1.473 8.355c19.447 27.775 57.728 34.526 85.503 15.079 26.883-18.822 34.209-55.458 16.633-83.172l-14.086-22.211c33.807-16.603 54.722-37.925 68.78-52.265 3.799-3.877 7.082-7.225 10.021-9.9zm-220.563 9.518c13.793 2.687 27.758 4.401 41.791 5.129l-2.39 13.552c-8.202-.272-16.799-.911-25.815-1.972-18.233-2.228-36.615-2.985-54.97-2.264l-5.002-20.106c15.577.785 31.078 2.677 46.386 5.661zm-8.748 145.623-5.083-20.428c12.215-8.49 20.83-21.226 24.162-35.723 5.424-.8 11.074-1.48 16.948-2.041l-15.178 86.08c-3.435-2.281-7.037-4.301-10.775-6.041-3.101-1.447-6.288-2.702-9.543-3.76 1.12-5.998.939-12.166-.531-18.087zm20.391-68.486c-.018-4.559-.583-9.099-1.683-13.524-.76-3.032-1.818-5.981-3.158-8.805 6.8-.091 13.893.023 21.279.344 1.647.073 3.244.1 4.864.149l-3.505 19.879c-6.159.524-12.092 1.176-17.797 1.957zm16.973-33.973c-10.42-.467-20.266-.503-29.578-.18-3.432-3.947-7.416-7.377-11.829-10.185-4.721-3.011-9.896-5.241-15.326-6.605 13.47.015 26.926.827 40.3 2.433 8.736 1.028 17.089 1.647 25.121 1.946l-2.255 12.792c-2.128-.053-4.254-.104-6.433-.201zm-93.823 80.207c-6.142-1.8-11.949-4.591-17.191-8.262-11.858-7.97-20.494-19.9-24.363-33.654l-.059-.213c-1.336-4.547-11.834-45.713 30.764-90.18 33.191-33.691 27.725-60.967 26.855-64.422h.004l-.826-3.283c-1.71-6.861-8.659-11.036-15.52-9.326s-11.036 8.659-9.326 15.52l2.051 8.166-.019.004 5.494 22.083c-2.214 4.111-4.756 8.036-7.601 11.739l-6.47-26.008.074-.019-3.441-13.512c-3.078-12.332 4.423-24.824 16.755-27.902s24.824 4.423 27.902 16.755c.002.01.005.02.007.03l.738 2.973c.94 3.6 8.086 36.28-29.406 74.375-38.512 40.242-29.162 76.904-28.289 79.959h-.002l.186.652c3.288 11.383 10.473 21.246 20.3 27.865 6.32 4.375 19.211 11.148 34.535 7.328 19.289-4.799 35.957-22.969 30.46-45.064-3.492-14.045-19.686-24.658-32.682-21.426-7.152 1.516-13.318 6.01-16.949 12.355-2.528 5.304-2.611 11.449-.225 16.818l.412.855c.059.1.117.197.176.297.566 2.344 1.338 5.363 2.17 8.627.533 2.092 1.098 4.303 1.65 6.5-5.693-1.74-10.451-5.691-13.209-10.967l-.404-.832c-3.704-8.256-3.59-17.724.312-25.888 4.927-9.041 13.543-15.492 23.605-17.674 9.508-2.04 19.437-.132 27.512 5.287 8.629 5.348 14.901 13.779 17.541 23.582 6.307 25.35-10.344 50.58-37.904 57.438-8.438 2.09-17.281 1.891-25.617-.576zm2.56-197.703c.069-.018.14-.028.211-.027.364.008.677.258.766.611l.828 3.3c.543 2.698.679 5.462.404 8.2l-2.791-11.111c-.101-.429.157-.86.582-.973zm11.852 100.647c-3.316.897-6.537 2.114-9.618 3.633l-4.502-18.098c1.49-1.74 3.049-3.49 4.74-5.258 1.228-1.247 2.402-2.49 3.545-3.729zm-33.379 32.19c-.84.32-1.675.643-2.495.969.876-9.999 3.807-19.71 8.608-28.525 1.729-.351 3.482-.692 5.28-1.011l1.764 7.091c-4.143 3.616-7.554 7.993-10.047 12.895-1.361 2.732-2.405 5.611-3.11 8.581zm.717 22.448c-.763-1.643-1.37-3.353-1.814-5.109l-.305-1.076c-.223-.79-.405-1.59-.547-2.399.318-.135.646-.269.967-.403.266 3.044.835 6.055 1.699 8.987zm32.376-13.493c.06-.75.255-1.483.577-2.163 1.819-2.874 4.673-4.939 7.972-5.766l9.287 37.328c-2.829 2.097-5.975 3.73-9.318 4.838l-.797-3.204c-1.056-4.575-2.459-10.078-3.704-14.957-.257-1.006-.505-1.981-.745-2.925l-1.493-6.002c-.04-.166-.088-.36-.125-.518l-.008-.018zm21.755-4.549c2.927 2.266 5.059 5.404 6.088 8.96 1.027 4.034.872 8.278-.447 12.227-.116.031-.231.062-.347.092zm-.974 88.075-3.993-16.05c3.297-.937 6.52-2.118 9.643-3.532l4.259 17.117c1.008 4.039 1.183 8.242.515 12.351-3.375-.564-6.784-.901-10.204-1.011.575-2.938.5-5.968-.22-8.875zm-41.393 3.926 1.492 6.002c.71 2.846 2.025 5.504 3.856 7.795-2.935 1.732-5.704 3.733-8.271 5.976-2.594-3.349-4.465-7.199-5.494-11.308l-1.492-6zm218.816 131.43 12.982 36.297h-267.657l12.984-36.297zm-75.227-214.398 3.223-18.278c6.629-.753 12.987-1.711 19.074-2.872l9.562 15.079c-10.482 2.689-21.123 4.717-31.859 6.071zm5.382-30.523 2.206-12.512c.258-.032.507-.072.764-.104l7.06 11.131c-3.268.549-6.597 1.055-10.03 1.485zm76.515 48.74c14.609 23.037 7.776 53.555-15.261 68.164-20.353 12.907-47.049 9.24-63.169-8.676l14.293-10.01c9.911 9.584 24.813 11.821 37.102 5.57 15.792-8.104 22.024-27.477 13.92-43.269-.446-.868-.93-1.716-1.453-2.54l-57.715-91.012-10.975 2.172-37.912 215.01-.084 1.352c.388 6.561-.856 13.116-3.621 19.078-5.275 11.313-15.621 19.51-29.129 23.082-30.187 6.936-61.226-7.537-75.316-35.12-5.947-12.645-6.316-25.84-1.041-37.152s15.621-19.51 29.129-23.082c4.91-1.287 9.965-1.933 15.041-1.922 9.914.065 19.693 2.297 28.654 6.537 5.83 2.712 11.258 6.216 16.131 10.412l9.828-3.5 37.168-210.795 18.691-3.697z" fill="#000000" data-original="#000000" class=""></path></g></svg>