<svg width="150" height="150" viewBox="0 0 150 150" fill="none" xmlns="http://www.w3.org/2000/svg">
<path d="M78.4814 23.8881L73.0411 23.7873C73.1419 18.2127 71.1941 12.6493 67.6568 8.35076C67.2762 7.88061 67.2986 7.19778 67.7575 6.79479L70.1307 4.64554C70.6008 4.22017 71.3284 4.25375 71.7314 4.74629C76.1531 10.0523 78.6045 16.9702 78.4814 23.8881Z" fill="#ED0707"/>
<path d="M85.0522 24.3918L79.6455 23.8209L81.7164 4.36567C81.7836 3.75 82.3321 3.30224 82.9477 3.3694L86.1268 3.70522C86.7425 3.77239 87.1903 4.32089 87.1231 4.93657L85.0522 24.3918Z" fill="#ED0707"/>
<path d="M91.0523 27.6605L86.0486 25.5448C88.7687 19.1082 93.3919 13.444 99.1456 9.48136C99.6605 9.12315 100.377 9.27987 100.724 9.80599L102.448 12.4926C102.772 13.0075 102.627 13.6791 102.134 14.0261C97.265 17.3955 93.3583 22.209 91.0523 27.6605Z" fill="#ED0707"/>
<path d="M62.7873 24.5821C68.3284 20.5634 75.3358 18.4142 82.1194 19.3209C88.903 20.2276 95.3172 24.3694 98.3843 30.4813C102.067 37.8246 100.657 46.5895 99.1679 54.6716C98.0709 60.6157 96.9627 66.5597 95.8657 72.5037C95.1269 76.5112 94.3321 80.653 92.0373 84.0336C88.5448 89.194 81.9403 91.6791 75.7276 91.3097C69.5149 90.9403 63.6716 88.0298 58.7239 84.2574C39.5373 69.6604 44.25 38.0485 62.7873 24.5821Z" fill="#ED0707"/>
<g opacity="0.15">
<path opacity="0.15" d="M76.9702 89.9888C76.5896 89.9888 76.1978 89.9776 75.8172 89.9552C70.5112 89.6306 65.0373 87.347 59.5522 83.1828C51.8396 77.3172 47.6642 68.194 47.7873 57.4813C47.9328 44.8433 53.9776 32.653 63.5933 25.6791C68.2164 22.3209 73.6903 20.4739 79.0075 20.4739C79.9925 20.4739 80.9888 20.541 81.9515 20.6642C88.5672 21.5485 94.3993 25.5448 97.1866 31.0858C100.545 37.791 99.4702 45.6157 97.847 54.4142L94.5448 72.2575C93.8619 75.9179 93.1007 80.0709 90.9291 83.2724C88.1082 87.4142 82.7687 89.9888 76.9702 89.9888Z" fill="white"/>
</g>
<path d="M69.1232 28.0298L64.9814 21C64.5896 20.3395 63.7388 20.1268 63.0896 20.5298C57.6941 23.9104 52.9926 28.2873 49.1978 33.347C48.5261 34.2425 47.1045 33.985 46.8135 32.8992C44.7538 25.2761 41.5858 18.5933 37.2538 12.8059C36.7948 12.2015 35.9217 12.0895 35.3172 12.5597L28.903 17.6082C28.3209 18.0671 28.2314 18.8955 28.6679 19.4888C36.4142 29.9776 39.6717 44.3731 38.6194 63.4365H38.6306C38.2724 69.3134 38.5187 75.1231 38.7538 80.5074L40.9142 128.407C40.9478 129.157 41.5858 129.739 42.3358 129.705L50.4851 129.336C51.2351 129.302 51.8172 128.664 51.7836 127.914L49.6232 80.0149C49.2314 71.3843 48.8284 62.4627 50.9217 54.3134C53.4515 44.4179 60.0448 35.3731 68.6642 29.8768C69.2911 29.4739 69.5038 28.6679 69.1232 28.0298Z" fill="#045AA9"/>
<g opacity="0.2">
<path opacity="0.2" d="M40.1308 80.4403C39.8957 75.2911 39.6382 69.4478 39.9964 63.5149L40.0748 62.194H40.0412C40.892 43.444 37.5226 29.194 29.7539 18.6828L36.1457 13.6343C40.3435 19.2314 43.4778 25.847 45.4815 33.2575C45.8061 34.4552 46.8584 35.2612 48.1009 35.2612C48.9629 35.2612 49.7464 34.8694 50.2726 34.1754C54.0338 29.1717 58.5785 24.9739 63.8061 21.694L67.9479 28.7351C59.0487 34.3993 52.1979 43.8358 49.6009 53.9776C47.4629 62.3284 47.8658 71.3508 48.2688 80.0709L50.4293 127.97L42.28 128.34L40.1308 80.4403Z" fill="white"/>
</g>
<path d="M40.0075 108.448C30.1904 100.175 25.8247 85.9701 29.2948 73.6119C28.0411 73.6455 26.7314 73.6231 25.4441 73.6343C24.4478 73.6343 23.5971 72.9067 23.4851 71.9104L22.959 67.5671C22.8247 66.4925 23.5971 65.5298 24.6717 65.3843C27.7389 64.9813 30.806 64.4216 33.8732 64.1082C31.6344 62.4179 29.7874 60.5933 27.7165 58.8358C26.821 58.0858 26.7986 56.7201 27.6493 55.9141C28.5896 55.041 29.5187 54.1567 30.459 53.2835C31.0747 52.7015 31.9926 52.6007 32.7314 52.9925C36.3695 54.9067 40.2538 56.3507 43.9143 58.2089C45.0896 58.8134 46.5225 58.5783 47.4851 57.6604C48.8396 56.3619 50.1605 55.1306 51.5038 53.8432C52.4441 52.9477 53.8546 52.791 54.9628 53.4627C56.0486 54.1119 57.4702 54.4365 58.6344 54.5149C60.5038 54.638 62.4963 54.4701 64.1531 55.3432C65.9665 56.3059 66.9516 58.2985 67.8247 60.1567C70.2426 65.3507 72.6605 70.5559 75.0784 75.75L40.0075 108.448Z" fill="#FDB44C"/>
<path d="M112.735 60.6269C112.422 62.1717 111.034 63.5373 109.578 63.7836C108.817 63.9067 108.425 64.7351 108.683 65.4627C110.026 69.2575 109.836 73.5784 108.213 77.25C106.802 80.4403 105.884 79.4888 102.761 79.2985C100.03 79.1306 97.2985 79.4328 94.5672 79.4776C90.4478 79.5336 85.9366 78.8284 83.1828 75.7724C81.3022 73.6791 80.5634 70.8023 80.2724 68.0037C79.847 63.8396 80.3731 59.4739 82.6008 55.9478C85.0187 52.1194 89.2164 49.7015 93.5933 48.5037C97.6008 47.4067 101.799 47.2388 105.974 47.1493C106.757 47.1269 107.451 47.6418 107.687 48.3806C108.123 49.7687 108.269 50.2052 108.705 51.5933C108.94 52.3321 108.66 53.1493 108.011 53.5858C106.993 54.2687 105.963 54.9627 104.933 55.6455C106.5 55.2873 108.056 54.9515 109.612 54.6045C110.563 54.403 111.504 54.9067 111.884 55.7687C112.556 57.3246 113.049 58.9814 112.735 60.6269Z" fill="#FDB44C"/>
<path d="M60.5933 79.4328C62.3059 74.5298 64.097 69.2798 66.4254 63.9067C68.7425 58.556 71.6306 53.0485 75.5037 48C79.5 42.7948 84.403 38.4291 90.2127 35.2388C95.2052 32.4851 101.082 30.7052 107.06 30.7052C108.571 30.7052 109.791 31.9701 109.757 33.4813L109.59 43.6119C109.567 44.8433 108.716 45.8731 107.53 46.1977C104.843 46.9365 102.325 48.3918 100.052 50.3619C97.2313 52.8134 94.847 56.0485 93.2463 59.4739C89.7761 66.7052 88.5112 75.638 87.1343 85.8358L60.5933 79.4328Z" fill="#045AA9"/>
<g opacity="0.2">
<path opacity="0.2" d="M62.3733 78.4702C63.9516 73.9478 65.586 69.2687 67.6681 64.4553C70.3546 58.265 73.2651 53.1493 76.5785 48.8396C80.5972 43.612 85.3994 39.4366 90.8621 36.4366C96.0449 33.5821 101.642 32.0709 107.049 32.0709C107.418 32.0709 107.754 32.2164 108.011 32.4739C108.269 32.7426 108.414 33.0896 108.414 33.4702L108.246 43.6008C108.235 44.2053 107.81 44.7314 107.194 44.8993C104.396 45.6605 101.698 47.1605 99.1793 49.3433C96.28 51.862 93.739 55.265 92.0375 58.9142C88.5785 66.1232 87.224 75.2351 86.0151 84.1791L62.3733 78.4702Z" fill="white"/>
</g>
<g opacity="0.1">
<path opacity="0.1" d="M89.3396 54.5261C82.8135 62.4403 77.5187 70.8694 75.2575 68.9776C73.0075 67.0634 74.6418 55.5783 81.168 47.6418C87.7053 39.7164 96.6717 38.3731 98.9217 40.2761C101.172 42.1679 95.8769 46.6007 89.3396 54.5261Z" fill="white"/>
</g>
<path d="M64.209 133.444C75.3807 139.713 88.0523 142.679 100.534 145.578C104.429 146.485 108.649 147.358 112.31 145.746C115.276 144.437 117.347 141.705 119.037 138.94C126.75 126.291 129.067 110.474 125.306 96.1567C123.425 89.0037 117.761 73.2649 109.008 72.0784C106.746 71.7761 104.44 72.2239 102.157 72.1343C96.7277 71.9216 91.9478 68.7313 87.1232 66.2239C82.2986 63.7164 76.4553 61.8022 71.5635 64.1642C67.7687 66 65.5411 69.9291 62.7874 73.1194C57.974 78.694 51.2463 82.209 45.6941 87.0448C41.1046 91.041 36.5822 97.097 36.9404 103.522C37.2762 109.478 44.1381 116.575 48.0672 120.761C52.7575 125.765 58.209 130.086 64.209 133.444Z" fill="#ED0707"/>
<path d="M69.4478 122.787C69.3918 122.798 69.3582 122.798 69.3023 122.798C68.9888 122.798 68.709 122.586 68.6418 122.272L67.0411 115.153L66.1791 111.358L65.25 107.228C65.015 106.231 64.7239 105.146 63.9739 104.743C63.2015 104.34 62.2612 104.698 61.1866 105.146C60.4366 105.448 59.6642 105.761 58.8359 105.84C56.3844 106.086 54.3471 104.104 53.6194 102.022C53.3396 101.216 53.1829 100.388 53.1269 99.5709C53.1045 99.0448 53.1045 98.4963 53.1269 97.9813C53.1493 97.1754 53.25 96.403 53.3172 95.6977C53.9105 90.3582 54.6381 84.9739 55.4553 79.6455C55.9814 79.2537 56.4963 78.8619 57.0224 78.4478C56.1157 84.2127 55.3209 90.056 54.6829 95.8433C54.6045 96.6045 54.5038 97.4328 54.4926 98.306C54.4814 98.3507 54.4814 98.3843 54.4814 98.4291C54.459 99.4925 54.5485 100.578 54.9068 101.563C55.4553 103.097 56.9888 104.675 58.7127 104.485C59.3396 104.418 59.9888 104.16 60.6829 103.869C61.903 103.377 63.2799 102.806 64.6232 103.534C65.8881 104.216 66.2911 105.638 66.5821 106.914L69.9851 121.959C70.0411 122.34 69.8172 122.709 69.4478 122.787Z" fill="#D30000"/>
<path d="M61.1865 121.646C60.9291 121.646 60.6828 121.5 60.5709 121.243C60.4141 120.895 60.5709 120.493 60.9179 120.347C64.1865 118.881 66.3694 115.231 66.1231 111.66C66.1007 111.291 66.3806 110.966 66.75 110.933C67.1194 110.888 67.444 111.19 67.4776 111.56C67.7574 115.679 65.2388 119.888 61.4664 121.578C61.3768 121.623 61.2761 121.646 61.1865 121.646Z" fill="#D30000"/>
<path d="M47.9777 108.94C47.6194 108.94 47.3172 108.649 47.2948 108.28C47.1381 103.948 49.6344 99.7276 53.4963 97.7686C53.8321 97.6007 54.2351 97.7351 54.4142 98.0709C54.5933 98.4067 54.4478 98.8097 54.112 98.9888C50.765 100.679 48.515 104.485 48.6493 108.235C48.6605 108.604 48.3694 108.929 48 108.94C47.9888 108.94 47.9888 108.94 47.9777 108.94Z" fill="#D30000"/>
<path d="M103.601 127.019C103.59 127.388 103.287 127.668 102.918 127.668C102.907 127.668 102.907 127.668 102.896 127.668C102.526 127.668 102.235 127.354 102.246 126.974C102.358 123.549 101.127 120.101 98.9889 117.403C98.6083 116.899 98.1717 116.429 97.7015 115.981C97.1194 115.41 96.4926 114.896 95.8097 114.448C95.418 114.179 94.9926 113.933 94.5896 113.675C93.3694 112.937 92.1045 112.164 91.1866 110.966C89.5411 108.795 89.3956 105.515 90.7948 102.19C91.3769 100.802 92.1493 99.5037 92.8881 98.2388C93.5709 97.097 94.2762 95.9104 94.8023 94.6903C94.9142 94.4328 95.015 94.1866 95.1157 93.9291C95.1269 93.8843 95.1381 93.8507 95.1605 93.806C96.056 91.2649 95.9441 88.847 94.8359 87.2127C93.862 85.791 92.2501 84.9963 90.5709 84.1455C89.6978 83.7201 88.8023 83.2724 87.9739 82.7351C87.9291 82.7127 87.8956 82.6791 87.8508 82.6567C87.4254 82.3769 87.0224 82.041 86.6418 81.694C84.4254 79.7351 82.9814 76.959 82.6903 74.0037C82.3769 70.8918 83.3396 67.7239 85.2985 65.306C85.7351 65.5075 86.1605 65.709 86.5635 65.9216C84.6829 68.0933 83.765 71.0037 84.0448 73.8694C84.3135 76.5448 85.6456 79.0634 87.6717 80.8097C87.7277 80.8321 87.7836 80.8769 87.8172 80.9328C88.0971 81.1791 88.3993 81.3918 88.7127 81.5933C89.4739 82.097 90.3247 82.5224 91.1642 82.9366C92.9441 83.8209 94.7799 84.7276 95.9441 86.4403C97.7351 89.0485 97.1306 92.2164 96.4702 94.1418C96.3247 94.5784 96.168 94.9478 96.0448 95.2276C95.9217 95.5298 95.7874 95.8097 95.6418 96.1007C95.1493 97.0746 94.6008 98.0149 94.0523 98.9328C93.3359 100.153 92.5859 101.418 92.0374 102.728C90.8284 105.593 90.9068 108.381 92.2724 110.16C93.0224 111.157 94.1194 111.817 95.2948 112.522C95.7202 112.78 96.1456 113.037 96.5598 113.328C97.265 113.787 97.9142 114.325 98.5299 114.918H98.5411C98.7202 115.086 98.8993 115.254 99.056 115.433V115.444C102 118.511 103.724 122.776 103.601 127.019Z" fill="#D30000"/>
<path d="M106.354 104.922C106.019 104.922 105.739 104.675 105.683 104.34C105.28 101.664 103.187 99.2574 100.59 98.4962C100.164 98.3731 99.7276 98.2836 99.291 98.2052C98.6082 98.0709 97.903 97.9253 97.2202 97.6567C95.8657 97.1194 95.1269 95.4515 95.0821 94.097C95.0709 93.7276 95.3619 93.4142 95.7425 93.403C96.1119 93.3806 96.4254 93.6828 96.4366 94.0634C96.459 94.9477 96.9627 96.1007 97.7239 96.403C98.2948 96.6268 98.8993 96.75 99.5485 96.8843C100.019 96.9739 100.5 97.0746 100.959 97.2089C104.093 98.1268 106.534 100.914 107.015 104.149C107.071 104.519 106.813 104.866 106.444 104.922C106.422 104.91 106.388 104.922 106.354 104.922Z" fill="#D30000"/>
<path d="M78.3919 99.0336C78.112 99.0336 77.8546 98.8657 77.7538 98.5858C76.7912 95.9105 77.2949 92.7314 79.0188 90.4702C79.9031 89.3172 81.0449 88.4329 82.1419 87.5821C82.6344 87.2015 83.1382 86.8209 83.6083 86.4067C85.0635 85.153 86.7202 83.0933 86.6307 81.4142C86.6083 81.0448 86.8994 80.7202 87.2688 80.6978C87.6382 80.6418 87.9628 80.9664 87.9852 81.3358C88.1307 84.056 85.3434 86.6866 84.4926 87.4254C84.0001 87.8508 83.4852 88.2538 82.9703 88.6455C81.8956 89.4851 80.877 90.2687 80.0934 91.2761C78.6382 93.1679 78.224 95.8545 79.03 98.1045C79.1531 98.4627 78.974 98.8433 78.6158 98.9776C78.5486 99.0224 78.4703 99.0336 78.3919 99.0336Z" fill="#D30000"/>
<path d="M95.9777 128.172C95.8881 128.172 95.7986 128.16 95.7202 128.116C95.3732 127.97 95.2053 127.578 95.3508 127.231C96.862 123.56 97.6792 119.53 97.7128 115.567C97.7128 115.187 98.0374 114.951 98.3956 114.896C98.7762 114.896 99.0673 115.209 99.0673 115.578C99.0337 119.709 98.1829 123.918 96.6046 127.746C96.5038 128.015 96.2464 128.172 95.9777 128.172Z" fill="#D30000"/>
<path d="M118.959 80.5411C118.366 82.9366 116.966 85.0858 115.601 87.1567L115.276 87.6493L115.063 87.9851C114.828 88.3433 114.604 88.7015 114.381 89.0821C113.026 91.3881 111.84 94.153 112.556 96.8172C112.645 97.1754 112.444 97.556 112.075 97.6456C112.019 97.6567 111.951 97.6679 111.895 97.6679C111.593 97.6679 111.325 97.4664 111.246 97.1642C110.25 93.5597 112.153 89.9664 113.91 87.2463L114.459 86.4067C116.026 84.0112 117.638 81.5597 117.862 78.8508C118.242 79.3993 118.601 79.9478 118.959 80.5411Z" fill="#D30000"/>
<path d="M118.209 93C118.097 93 117.974 92.9664 117.873 92.9104C115.993 91.847 114.571 90.0447 113.955 87.9739C113.855 87.6156 114.056 87.235 114.414 87.1343C114.773 87.0336 115.153 87.2351 115.254 87.5933C115.769 89.3283 116.967 90.8395 118.545 91.735C118.87 91.9253 118.981 92.3395 118.802 92.6642C118.679 92.8768 118.444 93 118.209 93Z" fill="#D30000"/>
<g opacity="0.1">
<path opacity="0.1" d="M35.9554 99.6492C36.4815 94.444 39.2353 89.4963 43.3771 86.2836C46.6345 83.7649 50.6084 82.3433 53.9554 79.9589C60.336 75.4142 63.9629 67.2761 63.0897 59.4963C61.3659 57.6268 57.9181 57.9963 55.6345 59.1268C53.3509 60.2574 51.2576 61.9477 48.7278 62.2612C45.9853 62.597 43.3547 61.2089 40.9368 59.8768C37.6233 58.041 34.2987 56.2052 30.9853 54.3694C30.2465 55.2089 29.239 56.138 28.5002 56.9776C31.5674 59.7537 34.78 62.3283 38.4405 64.2649C33.7838 65.0261 29.239 66.0783 24.5823 66.8395C24.7502 68.5186 24.683 70.2201 24.8509 71.9104C27.6271 72.1903 30.4815 72.0783 33.1681 71.3507C31.3994 72.9179 30.6606 75.2015 30.4144 77.5522C29.6308 85.1642 31.7912 93.2127 35.9554 99.6492Z" fill="white"/>
</g>
<g opacity="0.2">
<path opacity="0.2" d="M107.653 145.287C105.47 145.287 103.187 144.795 100.836 144.257C88.6007 141.425 75.9626 138.481 64.8694 132.269C59.0373 129 53.7201 124.813 49.041 119.821L48.582 119.328C44.8432 115.343 38.5858 108.672 38.2835 103.444C37.8806 96.4254 43.9477 90.347 46.5671 88.0634C48.6604 86.2388 50.9888 84.5597 53.25 82.9366C56.9328 80.2836 60.7388 77.541 63.7947 74.0037C64.5223 73.1642 65.2052 72.2799 65.8992 71.3955C67.8022 68.9328 69.6044 66.6157 72.1455 65.3843C73.444 64.7575 74.8992 64.444 76.4888 64.444C79.332 64.444 82.6903 65.4515 86.485 67.4216C87.3134 67.847 88.1306 68.306 88.9589 68.7537C93.0447 70.9925 97.2761 73.2985 102.09 73.4888C102.325 73.5 102.56 73.5 102.795 73.5C103.556 73.5 104.317 73.4552 105.09 73.4105C105.795 73.3657 106.511 73.3209 107.216 73.3209C107.81 73.3209 108.336 73.3545 108.817 73.4216C116.284 74.4291 121.869 88.4105 123.985 96.5037C127.623 110.384 125.34 125.989 117.873 138.235C116.485 140.519 114.537 143.284 111.761 144.515C110.575 145.03 109.231 145.287 107.653 145.287Z" fill="white"/>
</g>
<g opacity="0.1">
<path opacity="0.1" d="M100.567 108.627C94.3322 93.0559 86.1382 79.1977 91.1867 76.6679C96.2576 74.1492 112.612 83.888 118.881 99.4589C125.127 115.052 118.87 130.578 113.832 133.097C108.784 135.627 106.814 124.209 100.567 108.627Z" fill="white"/>
</g>
</svg>
