<svg xmlns="http://www.w3.org/2000/svg" version="1.1" xmlns:xlink="http://www.w3.org/1999/xlink" xmlns:svgjs="http://svgjs.com/svgjs" width="512" height="512" x="0" y="0" viewBox="0 0 511.99998 511" style="enable-background:new 0 0 512 512" xml:space="preserve" class=""><g><path xmlns="http://www.w3.org/2000/svg" d="m512 238.292969c0 43.09375-33.621094 79.585937-57.207031 116.152343-23.417969 36.308594-42.15625 82.042969-79.492188 102.53125-38.328125 21.035157-85.25 11.523438-128.304687 5.894532-41.5-5.421875-87.253906 1.386718-121.285156-17.90625-36.191407-20.519532-52.398438-63.109375-73.582032-96.953125-20.683594-33.046875-52.128906-66.257813-52.128906-109.71875 0-41.5625 31.21875-79.277344 50.640625-116.824219 20.09375-38.84375 33.914063-86.117188 68.03125-107.519531 35.917969-22.527344 80.511719-12.539063 124.152344-.527344 43.539062 11.984375 90.796875 6.195313 125.386719 23.0625 41.460937 20.21875 62.445312 60.699219 86.277343 91.265625 24.765625 31.765625 57.511719 63.597656 57.511719 110.542969zm0 0" fill="#6746C3" data-original="#d7abf4" class=""></path><path xmlns="http://www.w3.org/2000/svg" d="m317.1875 423.609375c-15.574219 0-32.535156-2.351563-50.492188-4.84375-4.597656-.636719-44.007812-4.402344-58.453124-4.917969-23.828126-.851562-46.335938-1.652344-59.664063-9.210937-16.4375-9.320313-28.660156-31.230469-41.605469-54.433594-4.90625-8.792969-26.042968-42.6875-31.292968-50.230469-15.734376-22.621094-29.320313-42.15625-29.320313-61.679687 0-18.007813 13.296875-40.253907 27.375-63.800781 6.097656-10.199219 28.214844-52.578126 32.835937-62.738282 11.105469-24.414062 22.589844-49.660156 36.734376-58.53125 6.925781-4.34375 15.3125-6.363281 26.402343-6.363281 18.371094 0 41.023438 5.8125 60.8125 11.257813 22.679688 6.246093 45.1875 8.394531 65.042969 10.289062 20.683594 1.976562 40.222656 3.84375 52.332031 9.746094 21.648438 10.554687 36.945313 32.152344 53.144531 55.019531 5.394532 7.617187 25.050782 33.308594 29.050782 38.203125 22.121094 27.078125 35.550781 45.09375 35.550781 66.917969 0 19.445312-16.078125 42.332031-33.101563 66.5625-5.546874 7.894531-28.386718 43.554687-33.8125 52.917969-14.628906 25.238281-28.449218 49.078124-45.730468 58.558593-9.039063 4.964844-20.417969 7.277344-35.808594 7.277344zm0 0" fill="#311B92" data-original="#c596ea" class=""></path><path xmlns="http://www.w3.org/2000/svg" d="m386.242188 238.292969c0 77.660156-62.953126 140.617187-140.613282 140.617187s-140.617187-62.957031-140.617187-140.617187c0-77.660157 62.957031-140.617188 140.617187-140.617188s140.613282 62.957031 140.613282 140.617188zm0 0" fill="#FFCA28" data-original="#bdfaff" class=""></path><g xmlns="http://www.w3.org/2000/svg" fill="#57565C"><path d="m328.71875 248.386719c-4.265625 0-7.726562-3.460938-7.726562-7.726563v-12.828125c0-4.265625 3.460937-7.726562 7.726562-7.726562 4.269531 0 7.726562 3.460937 7.726562 7.726562v12.828125c0 4.269532-3.457031 7.726563-7.726562 7.726563zm0 0" fill="#040404" data-original="#57565c" class=""></path><path d="m162.535156 248.386719c-4.265625 0-7.726562-3.460938-7.726562-7.726563v-12.828125c0-4.265625 3.460937-7.726562 7.726562-7.726562 4.269532 0 7.726563 3.460937 7.726563 7.726562v12.828125c0 4.269532-3.457031 7.726563-7.726563 7.726563zm0 0" fill="#040404" data-original="#57565c" class=""></path><path d="m245.628906 256.476562c-10 0-20-3.234374-28.34375-9.707031-3.375-2.617187-3.984375-7.46875-1.371094-10.84375 2.613282-3.371093 7.46875-3.984375 10.839844-1.367187 11.113282 8.617187 26.632813 8.617187 37.746094 0 3.371094-2.617188 8.226562-2.003906 10.839844 1.367187 2.617187 3.375 2.003906 8.226563-1.367188 10.84375-8.34375 6.472657-18.34375 9.707031-28.34375 9.707031zm0 0" fill="#040404" data-original="#57565c" class=""></path></g><path xmlns="http://www.w3.org/2000/svg" d="m165.972656 403.804688c0 10.132812-8.214844 18.347656-18.347656 18.347656s-18.347656-8.214844-18.347656-18.347656c0-10.132813 8.214844-18.347657 18.347656-18.347657s18.347656 8.214844 18.347656 18.347657zm0 0" fill="#EFDF9A" data-original="#ffeb99" class=""></path><path xmlns="http://www.w3.org/2000/svg" d="m346.808594 417.03125c0 9.875-8.003906 17.878906-17.875 17.878906-9.875 0-17.878906-8.003906-17.878906-17.878906s8.003906-17.878906 17.878906-17.878906c9.871094 0 17.875 8.003906 17.875 17.878906zm0 0" fill="#B1EF97" data-original="#b1ef97" class=""></path><path xmlns="http://www.w3.org/2000/svg" d="m372.203125 85.96875c0 9.871094-8.003906 17.878906-17.878906 17.878906s-17.878907-8.007812-17.878907-17.878906c0-9.875 8.003907-17.878906 17.878907-17.878906s17.878906 8.003906 17.878906 17.878906zm0 0" fill="#EFDF9A" data-original="#ffeb99" class=""></path><path xmlns="http://www.w3.org/2000/svg" d="m150.4375 92.613281c-6.261719-1.214843-12.535156 2.207031-14.902344 8.132813-3.167968 7.925781-12.15625 11.785156-20.082031 8.617187s-11.785156-12.160156-8.617187-20.085937c7.867187-19.683594 28.675781-31.042969 49.488281-27.003906 8.378906 1.625 13.851562 9.734374 12.226562 18.113281-2.078125 10.726562-14.441406 12.941406-18.113281 12.226562zm0 0" fill="#B1EF97" data-original="#b1ef97" class=""></path><path xmlns="http://www.w3.org/2000/svg" d="m445.246094 233.527344c.941406-6.308594-2.746094-12.425782-8.773438-14.535156-8.054687-2.816407-12.296875-11.632813-9.480468-19.6875 2.820312-8.054688 11.636718-12.300782 19.691406-9.480469 20.007812 7.003906 32.257812 27.300781 29.128906 48.269531-1.261719 8.4375-9.125 14.257812-17.566406 13-10.804688-1.613281-13.554688-13.867188-13-17.566406zm0 0" fill="#DED5EF" data-original="#a0f0f2" class=""></path><path xmlns="http://www.w3.org/2000/svg" d="m228.351562 325.804688c0 8.769531-7.105468 15.875-15.875 15.875-8.765624 0-15.875-7.105469-15.875-15.875 0-8.765626 7.109376-15.875 15.875-15.875 8.769532 0 15.875 7.109374 15.875 15.875zm0 0" fill="#FFA000" data-original="#91e8e8" class=""></path><path xmlns="http://www.w3.org/2000/svg" d="m336.867188 298.050781c0 8.765625-7.105469 15.875-15.875 15.875-8.765626 0-15.875-7.109375-15.875-15.875 0-8.769531 7.109374-15.875 15.875-15.875 8.769531 0 15.875 7.105469 15.875 15.875zm0 0" fill="#FFA000" data-original="#91e8e8" class=""></path><path xmlns="http://www.w3.org/2000/svg" d="m256 154.800781c0 8.769531-7.109375 15.875-15.875 15.875-8.769531 0-15.875-7.105469-15.875-15.875 0-8.765625 7.105469-15.875 15.875-15.875 8.765625 0 15.875 7.109375 15.875 15.875zm0 0" fill="#FFA000" data-original="#91e8e8" class=""></path></g></svg>