<svg xmlns="http://www.w3.org/2000/svg" version="1.1" xmlns:xlink="http://www.w3.org/1999/xlink" xmlns:svgjs="http://svgjs.com/svgjs" width="512" height="512" x="0" y="0" viewBox="0 0 512 512" style="enable-background:new 0 0 512 512" xml:space="preserve" class=""><g><g xmlns="http://www.w3.org/2000/svg"><g><path d="m232 176h48v16h-48z" fill="#F0915A" data-original="#f0915a"></path></g><g><path d="m352 192h-192c-26.51 0-48 21.49-48 48v64h48v192h80v-16h32v16h80v-192h48v-64c0-26.51-21.49-48-48-48z" fill="#FAB991" data-original="#fab991"></path></g><g><path d="m160 272v32h-10.667v-21.333c0-5.891 4.776-10.667 10.667-10.667z" fill="#F0915A" data-original="#f0915a"></path></g><g><path d="m282.667 464v32h-10.667v-21.333c0-5.891 4.776-10.667 10.667-10.667z" fill="#F0915A" data-original="#f0915a"></path></g><g><path d="m229.333 464v32h10.667v-21.333c0-5.891-4.776-10.667-10.667-10.667z" fill="#F0915A" data-original="#f0915a"></path></g><g><path d="m352 272v32h10.667v-21.333c0-5.891-4.776-10.667-10.667-10.667z" fill="#F0915A" data-original="#f0915a"></path></g><g><path d="m320 464h-128c-8.837 0-16-7.163-16-16v-176c0-35.346 28.654-64 64-64h32c35.346 0 64 28.654 64 64v176c0 8.837-7.163 16-16 16z" fill="#555A6E" data-original="#555a6e"></path></g><g><path d="m240 16h-8c-35.346 0-64 28.654-64 64v16c-7.364 0-13.333 5.97-13.333 13.333v5.333c0 7.364 5.969 13.333 13.333 13.333v24c0 13.255 10.745 24 24 24h72c8.836 0 16 7.163 16 16v-48c13.255 0 24-10.745 24-24v-39.999c0-35.346-28.654-64-64-64z" fill="#FAB991" data-original="#fab991"></path></g><g><path d="m264 208h-16v-32c0-17.645-14.355-32-32-32h-48v-16h48c26.467 0 48 21.533 48 48z" fill="#F05A4B" data-original="#f05a4b"></path></g><path d="m296 288h-32v-80h-16v80c0 8.822 7.178 16 16 16 4.411 0 8 3.589 8 8v32c0 4.411-3.589 8-8 8h-24c-13.233 0-24 10.766-24 24v16h16v-16c0-4.411 3.589-8 8-8h56c13.233 0 24-10.766 24-24v-32c0-13.234-10.767-24-24-24z" fill="#F58CAA" data-original="#f58caa"></path><path d="m296 288h-8v24c0 8.822 7.178 16 16 16h16v-16c0-13.234-10.767-24-24-24z" fill="#FAC3C8" data-original="#fac3c8" class=""></path><g><path d="m204.564 368h-4.564c-4.418 0-8-3.582-8-8v-24c0-17.673 14.327-32 32-32h64c4.418 0 8 3.582 8 8 0 4.932-2.694 9.469-7.023 11.831l-77.96 42.524c-1.98 1.079-4.199 1.645-6.453 1.645z" fill="#DC6950" data-original="#dc6950"></path></g><g><path d="m237.333 317.333v34.667l51.644-28.169c4.329-2.362 7.023-6.899 7.023-11.831 0-4.418-3.582-8-8-8h-64c7.364 0 13.333 5.97 13.333 13.333z" fill="#C85541" data-original="#c85541"></path></g><g><path d="m288 440h-64c-13.255 0-24-10.745-24-24 0-13.255 10.745-24 24-24h64c13.255 0 24 10.745 24 24 0 13.255-10.745 24-24 24z" fill="#F58CAA" data-original="#f58caa"></path></g><g><path d="m256 392c2.946 0 5.333 2.388 5.333 5.333v32h-10.667v-32c.001-2.945 2.388-5.333 5.334-5.333z" fill="#D76E8C" data-original="#d76e8c"></path></g><g><path d="m234.667 410.667c2.946 0 5.333 2.388 5.333 5.333v24h-10.667v-24c0-2.946 2.388-5.333 5.334-5.333z" fill="#D76E8C" data-original="#d76e8c"></path></g><g><path d="m208 392h10.667v18.667c0 2.945-2.388 5.333-5.333 5.333-2.946 0-5.333-2.388-5.333-5.333v-18.667z" fill="#D76E8C" data-original="#d76e8c"></path></g><g><path d="m277.333 410.667c-2.946 0-5.333 2.388-5.333 5.333v24h10.667v-24c0-2.946-2.388-5.333-5.334-5.333z" fill="#D76E8C" data-original="#d76e8c"></path></g><g><path d="m304 392h-10.667v18.667c0 2.945 2.388 5.333 5.333 5.333 2.945 0 5.333-2.388 5.333-5.333v-18.667z" fill="#D76E8C" data-original="#d76e8c"></path></g><path d="m288 384h-64c-17.645 0-32 14.355-32 32s14.355 32 32 32h8c4.418 0 8-3.582 8-8s-3.582-8-8-8h-8c-8.822 0-16-7.178-16-16s7.178-16 16-16h64c8.822 0 16 7.178 16 16s-7.178 16-16 16h-8c-17.645 0-32 14.355-32 32h16c0-8.822 7.178-16 16-16h8c17.645 0 32-14.355 32-32s-14.355-32-32-32z" fill="#FAC3C8" data-original="#fac3c8" class=""></path><g><path d="m288 384h-56v-8c0-4.418 3.582-8 8-8h48c4.418 0 8 3.582 8 8 0 4.418-3.582 8-8 8z" fill="#FAD741" data-original="#fad741"></path></g></g></g></svg>