<svg xmlns="http://www.w3.org/2000/svg" version="1.1" xmlns:xlink="http://www.w3.org/1999/xlink" xmlns:svgjs="http://svgjs.com/svgjs" width="512" height="512" x="0" y="0" viewBox="0 0 512 512" style="enable-background:new 0 0 512 512" xml:space="preserve"><g><g xmlns="http://www.w3.org/2000/svg"><g><path d="m241.84 396.493-6.432 18.773c-11.042 32.227-41.342 53.875-75.408 53.875-53.019 0-96-42.981-96-96 0-53.019 42.981-96 96-96l81.84-10z" fill="#FC8F71" data-original="#fc8f71"></path><circle cx="159.999" cy="373.141" fill="#FFE11C" r="32.001" data-original="#ffe11c"></circle><path d="m228.671 146.581c-39.989-64.102-110.49-103.721-187.009-103.721-43.073 0-57.744 57.435-19.949 78.092v-.001c0 .001 205.463 96.548 205.463 96.548h13.802l15.018-54.262z" fill="#FFE11C" data-original="#ffe11c"></path><path d="m41.662 116.14c-7.571 0-14.264 1.774-19.949 4.811v.001c.001 0 .002.001.002.001 0 86.26 69.927 156.187 156.187 156.187h63.938l-.862-59.642h-13.802c-40.236-62.711-109.94-101.358-185.514-101.358z" fill="#27A9DB" data-original="#27a9db"></path></g><path d="m270.16 396.493 6.432 18.773c11.042 32.227 41.342 53.875 75.408 53.875 53.019 0 96-42.981 96-96 0-53.019-42.981-96-96-96l-81.84-10z" fill="#E64567" data-original="#e64567"></path><circle cx="352.001" cy="373.141" fill="#FFB500" r="32.001" data-original="#ffb500"></circle><path d="m283.329 146.581c39.989-64.102 110.49-103.721 187.009-103.721 43.073 0 57.744 57.435 19.949 78.092v-.001c0 .001-205.463 96.548-205.463 96.548h-13.802l-15.018-54.262z" fill="#FFB500" data-original="#ffb500"></path><path d="m470.338 116.14c7.571 0 14.264 1.774 19.949 4.811v.001c-.001 0-.002.001-.002.001 0 86.26-69.927 156.187-156.187 156.187h-63.938l.862-59.642h13.802c40.236-62.711 109.94-101.358 185.514-101.358z" fill="#2E63CA" data-original="#2e63ca"></path><path d="m274.26 260.627c0 101.02-18.26 158.613-18.26 158.613-17.67 0-32-106.98-32-160 0-28.68 4.19-54.41 10.84-72.01h21.16s18.26 44.717 18.26 73.397z" fill="#4D5C61" data-original="#4d5c61"></path><path d="m288 259.24c0 53.02-14.33 160-32 160v-232.01h21.16c6.65 17.59 10.84 43.33 10.84 72.01z" fill="#3D4647" data-original="#3d4647"></path><path d="m239.532 89.304h77.235v30h-77.235z" fill="#36383F" transform="matrix(.207 -.978 .978 .207 118.654 354.918)" data-original="#36383f"></path><path d="m218.844 65.686h30v77.235h-30z" fill="#3D4647" transform="matrix(.978 -.207 .207 .978 -16.498 50.535)" data-original="#3d4647"></path><path d="m281.589 158.72c0 20.17-25.589 36.52-25.589 36.52-20.17 0-36.53-16.35-36.53-36.52s16.36-36.53 36.53-36.53c0 0 25.589 16.36 25.589 36.53z" fill="#657B84" data-original="#657b84"></path><path d="m292.52 158.72c0 20.17-16.35 36.52-36.52 36.52v-73.05c20.17 0 36.52 16.36 36.52 36.53z" fill="#4D5C61" data-original="#4d5c61"></path></g></g></svg>