<svg xmlns="http://www.w3.org/2000/svg" version="1.1" xmlns:xlink="http://www.w3.org/1999/xlink" xmlns:svgjs="http://svgjs.com/svgjs" width="512" height="512" x="0" y="0" viewBox="0 0 511.99879 511" style="enable-background:new 0 0 512 512" xml:space="preserve" class=""><g><path xmlns="http://www.w3.org/2000/svg" d="m364.328125 62.515625c0 30.109375-15.539063 131.304687-45.648437 131.304687-30.109376 0-45.648438-101.195312-45.648438-131.304687s15.539062-54.519531 45.648438-54.519531c30.109374.003906 45.648437 24.410156 45.648437 54.519531zm0 0" fill="#6DC847" data-original="#6dc847"></path><path xmlns="http://www.w3.org/2000/svg" d="m449.980469 239.46875c-30.109375 0-131.300781-15.539062-131.300781-45.648438 0-30.109374 101.191406-45.648437 131.300781-45.648437s54.519531 15.539063 54.519531 45.648437c0 30.109376-24.410156 45.648438-54.519531 45.648438zm0 0" fill="#6DC847" data-original="#6dc847"></path><path xmlns="http://www.w3.org/2000/svg" d="m443.804688 133.253906c-21.292969 21.289063-103.835938 81.855469-125.125 60.566406-21.289063-21.289062 39.277343-103.835937 60.566406-125.125 21.289062-21.289062 49.539062-27.5625 70.828125-6.269531 21.289062 21.289063 15.019531 49.539063-6.269531 70.828125zm0 0" fill="#8DD470" data-original="#8dd470"></path><path xmlns="http://www.w3.org/2000/svg" d="m346.5625 365.21875c-65.71875 65.71875-254.324219 186.484375-320.042969 120.761719-65.722656-65.71875 55.039063-254.324219 120.761719-320.042969 65.71875-65.722656 152.917969-85.078125 218.636719-19.359375 65.722656 65.722656 46.363281 152.917969-19.355469 218.640625zm0 0" fill="#FFA000" data-original="#ffa93f" class=""></path><path xmlns="http://www.w3.org/2000/svg" d="m288.007812 224.492188c-6.710937-6.710938-6.710937-17.585938 0-24.296876l7.03125-7.03125c1.160157-1.160156 3.039063-1.160156 4.199219 0l20.097657 20.09375c1.160156 1.160157 1.160156 3.039063 0 4.199219l-7.035157 7.035157c-6.707031 6.707031-17.585937 6.707031-24.292969 0zm0 0" fill="#454545" data-original="#454545" class=""></path><path xmlns="http://www.w3.org/2000/svg" d="m181.371094 200.023438c59.777344-59.777344 137.320312-81.1875 200.308594-35.117188-4.578126-6.261719-9.816407-12.382812-15.757813-18.328125-65.722656-65.71875-152.921875-46.363281-218.640625 19.359375-65.722656 65.71875-186.484375 254.320312-120.761719 320.042969 5.941407 5.941406 12.894531 10.355469 20.664063 13.425781-30.902344-78.164062 74.40625-239.601562 134.1875-299.382812zm0 0" fill="#FFA000" data-original="#ff9c20" class=""></path><path xmlns="http://www.w3.org/2000/svg" d="m449.980469 140.671875c-.96875 0-2.007813.015625-3.097657.046875.792969-.753906 1.539063-1.476562 2.222657-2.160156 26.230469-26.230469 28.75-58.957032 6.273437-81.4375-11.757812-11.753906-26.160156-16.933594-41.660156-14.96875-13.882812 1.757812-27.640625 9.101562-39.777344 21.242187-.683594.683594-1.410156 1.433594-2.164062 2.230469.03125-1.089844.050781-2.140625.050781-3.109375 0-37.09375-21.359375-62.015625-53.148437-62.015625-31.792969 0-53.148438 24.921875-53.148438 62.015625 0 8.714844 1.207031 22.042969 3.21875 35.984375-26.621094.890625-54.265625 9.625-80.695312 25.617188-3.542969 2.144531-4.679688 6.753906-2.535157 10.300781 2.144531 3.542969 6.753907 4.675781 10.300781 2.53125 59.335938-35.90625 119.398438-30.460938 164.796876 14.9375 57.304687 57.304687 49.707031 138.964843-19.359376 208.03125-16.214843 16.214843-41.738281 37.296875-72.105468 58.183593l-90.539063-90.535156c-2.925781-2.929687-7.675781-2.929687-10.605469 0-2.925781 2.929688-2.925781 7.675782 0 10.605469l88.453126 88.449219c-17.761719 11.65625-36.859376 23.03125-56.511719 33.230468-3.679688 1.90625-5.113281 6.433594-3.203125 10.109376 1.332031 2.574218 3.949218 4.046874 6.664062 4.046874 1.160156 0 2.34375-.269531 3.445313-.84375 60.824219-31.558593 116.65625-74.289062 145.007812-102.640624 34.992188-34.992188 56.125-74.304688 61.105469-113.683594.558594-4.398438.894531-8.761719 1.035156-13.09375 13.945313 2.011718 27.269532 3.222656 35.976563 3.222656 37.09375 0 62.019531-21.359375 62.019531-53.148438 0-31.792968-24.921875-53.148437-62.019531-53.148437zm-131.300781-125.171875c28.125 0 38.148437 24.285156 38.148437 47.015625 0 5.394531-.539063 13.144531-1.511719 21.824219-.035156.289062-.042968.578125-.042968.863281-6.632813 8.550781-13.742188 18.441406-20.382813 28.695313-15.949219-8.539063-32.96875-13.574219-50.925781-15.039063-2.511719-16.617187-3.433594-29.519531-3.433594-36.34375 0-22.730469 10.019531-47.015625 38.148438-47.015625zm29.035156 106.183594c13.125-20.1875 28.335937-39.1875 36.835937-47.683594 9.621094-9.625 20.652344-15.652344 31.050781-16.96875 10.882813-1.378906 20.695313 2.222656 29.171876 10.695312 19.886718 19.890626 9.800781 44.152344-6.273438 60.222657-8.5 8.5-27.519531 23.726562-47.726562 36.859375-5.554688-8.183594-12.066407-16.050782-19.550782-23.53125-7.511718-7.511719-15.355468-14.042969-23.507812-19.59375zm102.265625 110.285156c-8.5625 0-22.179688-1.300781-36.34375-3.4375-1.457031-17.792969-6.527344-34.871094-15.089844-50.886719 10.242187-6.632812 20.125-13.734375 28.671875-20.359375.039062-.003906.074219-.003906.113281-.007812 9.027344-1.035156 17.074219-1.609375 22.652344-1.609375 22.730469 0 47.015625 10.023437 47.015625 38.152343 0 28.128907-24.289062 38.148438-47.019531 38.148438zm0 0" fill="#000000" data-original="#000000" class=""></path><path xmlns="http://www.w3.org/2000/svg" d="m175.113281 471.917969c-32.195312 14.546875-60.589843 22.972656-84.402343 25.050781-25.996094 2.273438-45.808594-3.210938-58.890626-16.292969-35.027343-35.027343-7.164062-109.957031 12.5625-151.5 2.125-4.476562 4.332032-8.9375 6.597657-13.378906l72.863281 72.859375c1.464844 1.464844 3.382812 2.195312 5.300781 2.195312s3.839844-.730468 5.304688-2.195312c2.929687-2.929688 2.929687-7.675781 0-10.605469l-76.136719-76.136719c20.734375-38.027343 45.511719-73.632812 67.488281-100.605468l92.695313 92.695312c1.464844 1.464844 3.386718 2.195313 5.304687 2.195313s3.839844-.730469 5.300781-2.195313c2.929688-2.929687 2.929688-7.675781 0-10.605468l-93.625-93.625c6.078126-7.027344 11.84375-13.265626 17.105469-18.53125 7.195313-7.195313 14.722657-13.875 22.378907-19.859376 3.261718-2.550781 3.839843-7.261718 1.289062-10.527343-2.550781-3.261719-7.261719-3.839844-10.527344-1.289063-8.132812 6.355469-16.121094 13.445313-23.746094 21.070313-6.667968 6.667969-14.101562 14.832031-21.972656 24.175781-.015625.015625-.03125.03125-.050781.042969-.308594.3125-.582031.648437-.824219.996093-28.9375 34.542969-63.621094 84.929688-88.292968 136.890626-26.167969 55.109374-49.082032 129.082031-9.621094 168.542968 14.109375 14.109375 33.8125 21.152344 58.488281 21.152344 27.832031 0 61.992187-8.960938 101.585937-26.847656 3.773438-1.707032 5.453126-6.148438 3.75-9.921875-1.707031-3.773438-6.148437-5.453125-9.925781-3.75zm0 0" fill="#000000" data-original="#000000" class=""></path><path xmlns="http://www.w3.org/2000/svg" d="m282.703125 229.792969c4.664063 4.664062 10.859375 7.230469 17.453125 7.230469 6.589844 0 12.789062-2.566407 17.449219-7.230469l7.035156-7.035157c4.078125-4.078124 4.078125-10.722656 0-14.804687l-20.097656-20.09375c-1.976563-1.976563-4.605469-3.066406-7.402344-3.066406s-5.425781 1.089843-7.402344 3.066406l-7.03125 7.03125c-4.664062 4.660156-7.230469 10.859375-7.230469 17.449219 0 6.59375 2.566407 12.792968 7.226563 17.453125zm10.605469-24.292969 3.832031-3.828125 13.6875 13.6875-3.828125 3.828125c-1.828125 1.828125-4.261719 2.835938-6.847656 2.835938-2.585938 0-5.015625-1.007813-6.84375-2.835938s-2.835938-4.257812-2.835938-6.84375 1.007813-5.015625 2.835938-6.84375zm0 0" fill="#000000" data-original="#000000" class=""></path><path xmlns="http://www.w3.org/2000/svg" d="m358.996094 254.078125 8.03125-8.027344c2.925781-2.929687 2.925781-7.675781 0-10.605469-2.929688-2.929687-7.679688-2.929687-10.609375 0l-8.027344 8.027344c-2.929687 2.929688-2.929687 7.679688 0 10.605469 1.464844 1.464844 3.382813 2.199219 5.300781 2.199219 1.921875 0 3.839844-.734375 5.304688-2.199219zm0 0" fill="#000000" data-original="#000000" class=""></path><path xmlns="http://www.w3.org/2000/svg" d="m266.449219 145.472656-8.03125 8.03125c-2.925781 2.925782-2.925781 7.675782 0 10.605469 1.464843 1.460937 3.386719 2.195313 5.304687 2.195313 1.917969 0 3.839844-.734376 5.304688-2.199219l8.027344-8.027344c2.929687-2.929687 2.929687-7.679687 0-10.605469-2.929688-2.925781-7.675782-2.929687-10.605469 0zm0 0" fill="#000000" data-original="#000000" class=""></path><g xmlns="http://www.w3.org/2000/svg" fill="#F4F4F4"><path d="m342.527344 275.464844c-1.917969 0-3.839844-.734375-5.304688-2.199219l-8.019531-8.019531c-2.929687-2.929688-2.929687-7.675782 0-10.605469s7.675781-2.925781 10.605469 0l8.019531 8.023437c2.929687 2.925782 2.929687 7.675782 0 10.605469-1.464844 1.460938-3.382813 2.195313-5.300781 2.195313zm0 0" fill="#F4F4F4" data-original="#f4f4f4" class=""></path><path d="m252.554688 185.492188c-1.917969 0-3.839844-.730469-5.300782-2.195313l-8.023437-8.019531c-2.925781-2.929688-2.925781-7.679688 0-10.605469 2.929687-2.929687 7.679687-2.929687 10.605469 0l8.023437 8.019531c2.925781 2.929688 2.925781 7.675782 0 10.605469-1.464844 1.464844-3.386719 2.195313-5.304687 2.195313zm0 0" fill="#F4F4F4" data-original="#f4f4f4" class=""></path></g></g></svg>