<svg width="41" height="41" viewBox="0 0 41 41" fill="none" xmlns="http://www.w3.org/2000/svg">
<path d="M32.2195 30.5144H15.938L14.9926 26.7328H36.3404L41 8.0947H10.3331L8.71907 1.6384H0V4.31301H6.63079L13.2139 30.6449C11.2877 31.123 9.85553 32.866 9.85553 34.9379C9.85553 37.3772 11.84 39.3616 14.2791 39.3616C16.7182 39.3616 18.7027 37.3772 18.7027 34.9379C18.7027 34.3169 18.5736 33.7257 18.3415 33.1889H28.1572C27.9252 33.7257 27.796 34.3169 27.796 34.9379C27.796 37.3772 29.7804 39.3616 32.2196 39.3616C34.6587 39.3616 36.6432 37.3772 36.6432 34.9379C36.6431 32.4989 34.6587 30.5144 32.2195 30.5144ZM22.9847 24.0582H20.0154L19.3521 18.751H22.9848V24.0582H22.9847ZM32.9851 10.7692H37.5744L36.2477 16.0764H32.3218L32.9851 10.7692ZM31.9874 18.7511H35.579L34.2522 24.0583H31.3241L31.9874 18.7511ZM25.6593 10.7692H30.2897L29.6263 16.0764H25.6594V10.7692H25.6593ZM25.6593 18.751H29.292L28.6287 24.0582H25.6594V18.751H25.6593ZM22.9847 10.7692V16.0764H19.0178L18.3544 10.7692H22.9847ZM11.0018 10.7692H15.659L16.3223 16.0764H12.3286L11.0018 10.7692ZM12.9972 18.751H16.6567L17.3201 24.0582H14.3241L12.9972 18.751ZM14.2791 36.6871C13.3147 36.6871 12.5301 35.9025 12.5301 34.938C12.5301 33.9736 13.3147 33.189 14.2791 33.189C15.2435 33.189 16.0281 33.9736 16.0281 34.938C16.0281 35.9025 15.2435 36.6871 14.2791 36.6871ZM32.2195 36.6871C31.2551 36.6871 30.4705 35.9025 30.4705 34.938C30.4705 33.9736 31.2551 33.189 32.2195 33.189C33.1839 33.189 33.9685 33.9736 33.9685 34.938C33.9685 35.9025 33.1839 36.6871 32.2195 36.6871Z" fill="#FFA000"/>
</svg>
