<svg xmlns="http://www.w3.org/2000/svg" version="1.1" xmlns:xlink="http://www.w3.org/1999/xlink" xmlns:svgjs="http://svgjs.com/svgjs" width="512" height="512" x="0" y="0" viewBox="0 0 512 512" style="enable-background:new 0 0 512 512" xml:space="preserve" class=""><g><g xmlns="http://www.w3.org/2000/svg"><g><g><path d="m324.103 335.258-15.144 26.23c-7.903 13.688 1.976 30.798 17.781 30.798 15.806 0 25.684-17.11 17.781-30.798l-15.144-26.23c-1.171-2.03-4.102-2.03-5.274 0z" fill="#B9C2CC" data-original="#fac600" class=""></path></g><g><path d="m326.088 361.489 9.217-15.964-5.927-10.266c-1.172-2.03-4.102-2.03-5.275 0l-15.144 26.23c-7.903 13.688 1.976 30.798 17.781 30.798 3.117 0 5.999-.674 8.564-1.847-10.44-4.778-15.56-17.963-9.216-28.951z" fill="#A2ABB4" data-original="#e8b800" class=""></path></g><g><g><path d="m318.924 293.19-27.608-27.608c-.669-.669-1.137-1.511-1.353-2.432l-3.727-15.924c-.216-.921-.684-1.763-1.353-2.432l-138.225-138.226-32.3 32.3 138.226 138.226c.669.669 1.511 1.138 2.432 1.353l15.924 3.727c.921.216 1.763.684 2.432 1.353l27.608 27.608c1.982 1.982 5.196 1.982 7.178 0l10.767-10.767c1.981-1.982 1.981-5.196-.001-7.178z" fill="#000063" data-original="#99e6fc" class=""></path></g><g><path d="m290.479 274.925c-.669-.669-1.511-1.137-2.432-1.353l-15.924-3.727c-.921-.216-1.763-.684-2.432-1.353l-142.479-142.478-12.854 12.854 138.226 138.226c.669.669 1.511 1.138 2.432 1.353l15.924 3.727c.921.216 1.763.684 2.432 1.353l27.608 27.608c1.982 1.982 5.196 1.982 7.178 0l9.265-9.265z" fill="#62DBFB" data-original="#62dbfb" class=""></path></g><g><path d="m264.014 263.725c-1.92 0-3.839-.732-5.304-2.196l-103.359-103.36c-2.929-2.93-2.929-7.678 0-10.607 2.929-2.928 7.678-2.928 10.606 0l103.36 103.36c2.929 2.93 2.929 7.678 0 10.607-1.464 1.463-3.384 2.196-5.303 2.196z" fill="#B9C2CC" data-original="#fac600" class=""></path></g><g><path d="m124.513 82.774-23.568-18.606c-10.885-8.594-17.907-20.965-20.56-34.577-1.347-6.91-4.696-13.507-10.049-18.859-14.189-14.19-37.12-14.308-51.455-.356-14.693 14.3-14.943 37.38-.549 51.981 5.529 5.609 12.413 9.056 19.607 10.343 13.769 2.463 25.999 10.298 34.666 21.277l17.958 22.747z" fill="#766E6E" data-original="#766e6e" class=""></path></g><g><path d="m98.833 85.36c-8.667-10.978-20.898-18.814-34.666-21.277-7.194-1.287-14.078-4.734-19.607-10.343-14.394-14.601-14.144-37.681.549-51.981.598-.582 1.216-1.131 1.843-1.664-10.043-.689-20.315 2.732-28.07 10.28-14.693 14.3-14.943 37.38-.549 51.981 5.529 5.609 12.413 9.056 19.607 10.343 13.769 2.463 25.999 10.298 34.666 21.277l17.958 22.747 18.458-18.458z" fill="#5B5555" data-original="#5b5555"></path></g><g><path d="m161.372 93.289-60.293 60.293c-3.964 3.964-10.391 3.964-14.356 0l-10.049-10.049c-3.964-3.964-3.964-10.391 0-14.356l60.293-60.293c3.964-3.964 10.391-3.964 14.356 0l10.049 10.049c3.964 3.965 3.964 10.392 0 14.356z" fill="#B9ACAC" data-original="#b9acac" class=""></path></g><g><path d="m100.929 138.734c-3.964-3.964-3.964-10.391 0-14.356l52.944-52.944-2.55-2.55c-3.964-3.964-10.391-3.964-14.356 0l-60.293 60.293c-3.964 3.964-3.964 10.391 0 14.356l10.049 10.049c3.964 3.964 10.391 3.964 14.355 0l7.35-7.35z" fill="#9E9797" data-original="#9e9797" class=""></path></g></g><g><path d="m491.728 413.255h-370.188c-6.934 0-12.576 5.642-12.576 12.575v63.443c0 12.531 10.195 22.727 22.727 22.727h349.886c12.531 0 22.727-10.195 22.727-22.727v-63.443c-.001-6.934-5.643-12.575-12.576-12.575zm-2.425 39.745h-365.339v-24.745h365.339z" fill="#000063" data-original="#99e6fc" class=""></path><path d="m123.964 489.273c0 4.261 3.466 7.727 7.727 7.727h349.886c4.261 0 7.727-3.466 7.727-7.727v-37.002h-365.34z" fill="#B9C2CC" data-original="#fac600" class=""></path><path d="m123.964 452.271v37.002c0 4.261 3.466 7.727 7.727 7.727h45.535c-1.34-2.267-2.122-4.902-2.122-7.726v-37.002h-51.14z" fill="#A2ABB4" data-original="#e8b800" class=""></path></g></g><g><g><path d="m404.586 317.23c-4.143 0-7.5-3.357-7.5-7.5v-8.244c0-4.143 3.357-7.5 7.5-7.5s7.5 3.357 7.5 7.5v8.244c0 4.143-3.357 7.5-7.5 7.5z" fill="#000063" data-original="#99e6fc" class=""></path></g><g><path d="m404.586 365.319c-4.143 0-7.5-3.357-7.5-7.5v-8.244c0-4.143 3.357-7.5 7.5-7.5s7.5 3.357 7.5 7.5v8.244c0 4.143-3.357 7.5-7.5 7.5z" fill="#000063" data-original="#99e6fc" class=""></path></g><g><path d="m384.663 337.153h-7.557c-4.143 0-7.5-3.357-7.5-7.5s3.357-7.5 7.5-7.5h7.557c4.143 0 7.5 3.357 7.5 7.5s-3.357 7.5-7.5 7.5z" fill="#000063" data-original="#99e6fc" class=""></path></g><g><path d="m432.065 337.153h-7.558c-4.143 0-7.5-3.357-7.5-7.5s3.357-7.5 7.5-7.5h7.558c4.143 0 7.5 3.357 7.5 7.5s-3.357 7.5-7.5 7.5z" fill="#000063" data-original="#99e6fc" class=""></path></g></g><g><g><path d="m230.861 340.065c-4.142 0-7.5-3.357-7.5-7.5v-8.244c0-4.143 3.358-7.5 7.5-7.5s7.5 3.357 7.5 7.5v8.244c0 4.143-3.358 7.5-7.5 7.5z" fill="#000063" data-original="#99e6fc" class=""></path></g><g><path d="m230.861 388.154c-4.142 0-7.5-3.357-7.5-7.5v-8.244c0-4.143 3.358-7.5 7.5-7.5s7.5 3.357 7.5 7.5v8.244c0 4.143-3.358 7.5-7.5 7.5z" fill="#000063" data-original="#99e6fc" class=""></path></g><g><path d="m210.938 359.988h-7.557c-4.142 0-7.5-3.357-7.5-7.5s3.358-7.5 7.5-7.5h7.557c4.142 0 7.5 3.357 7.5 7.5s-3.357 7.5-7.5 7.5z" fill="#000063" data-original="#99e6fc" class=""></path></g><g><path d="m258.341 359.988h-7.557c-4.142 0-7.5-3.357-7.5-7.5s3.358-7.5 7.5-7.5h7.557c4.143 0 7.5 3.357 7.5 7.5s-3.358 7.5-7.5 7.5z" fill="#000063" data-original="#99e6fc" class=""></path></g></g></g></g></svg>