<svg xmlns="http://www.w3.org/2000/svg" version="1.1" xmlns:xlink="http://www.w3.org/1999/xlink" xmlns:svgjs="http://svgjs.com/svgjs" width="512" height="512" x="0" y="0" viewBox="0 0 512 512" style="enable-background:new 0 0 512 512" xml:space="preserve" class=""><g>
<path xmlns="http://www.w3.org/2000/svg" style="" d="M498.998,431.399c0,23.375-18.945,42.31-42.32,42.31c-4.996,0-9.776-0.876-14.216-2.452  c-3.843,19.409-20.964,34.058-41.506,34.058c-12.64,0-23.993-5.542-31.73-14.33c-6.593-7.448-10.58-17.245-10.58-27.98  l-169.691-225.94c-42.722,0-77.356-34.635-77.356-77.367c0-22.273,9.406-42.351,24.487-56.464  c13.835-12.97,32.43-20.892,52.869-20.892c0.299,0,0.587,0.031,0.876,0.031c-0.577-2.977-0.876-6.047-0.876-9.169  c0-26.64,21.593-48.254,48.233-48.254c14.453,0,27.413,6.356,36.242,16.411C286.389,16.771,312.185,0,341.895,0  c39.847,0,72.648,30.122,76.893,68.826c24.57,2.225,43.824,22.88,43.824,48.037c0,23.818-17.256,43.587-39.95,47.512  c2.483,5.388,3.873,11.363,3.873,17.678c0,0.587-0.021,1.174-0.041,1.762c17.462,5.223,30.184,21.397,30.184,40.548  c0,6.686-1.556,13.011-4.327,18.636c-0.082,0.165-0.165,0.34-0.247,0.505c4.584,2.369,8.973,5.089,13.125,8.097  c25.672,18.636,42.371,48.861,42.371,83.012c0,24.621-8.684,47.203-23.148,64.871C493.363,407.251,498.998,418.655,498.998,431.399z  " fill="#FFCA28" data-original="#fec007" class=""></path>
<path xmlns="http://www.w3.org/2000/svg" style="" d="M369.231,490.981c-6.6-7.446-10.588-17.245-10.588-27.977L188.957,237.063  c-42.726,0-77.361-34.634-77.361-77.361c0-22.281,9.412-42.353,24.491-56.471h144.219c27.647,0,50.144,22.497,50.144,50.158  c0,27.647-22.497,50.144-50.144,50.144h-2.941v47.547l49.297,85.969l41.923,73.114C383.104,435.472,383.32,465.558,369.231,490.981z  " fill="#FFA000" data-original="#ff9300" class=""></path>
<path xmlns="http://www.w3.org/2000/svg" style="" d="M297.124,512H65.354c-46.77,0-76.069-50.561-52.797-91.13l94.076-164.046v-103.43h149.211v103.43  l52.148,90.924l41.928,73.122C373.192,461.439,343.894,512,297.124,512z" fill="#311B92" data-original="#a7f9e9" class=""></path>
<g xmlns="http://www.w3.org/2000/svg">
	<rect x="106.63" y="153.39" style="" width="149.21" height="47.543" fill="#000063" data-original="#3eddbf" class=""></rect>
	<path style="" d="M307.996,347.752c-9.412,3.945-19.613,6.012-30.129,6.012c-20.832,0-40.416-8.106-55.151-22.841   c-30.402-30.402-30.402-79.886,0-110.288c9.383-9.383,20.732-16.083,33.128-19.699v55.883L307.996,347.752z" fill="#000063" data-original="#3eddbf" class=""></path>
	<path style="" d="M298.843,511.986c32.654-13.07,49.226-53.343,30.029-86.815l-94.075-164.047V153.39h21.047v103.43   l94.075,164.047C372.904,460.938,344.611,510.752,298.843,511.986z" fill="#000063" data-original="#3eddbf" class=""></path>
</g>
<path xmlns="http://www.w3.org/2000/svg" style="" d="M296.103,476.132H66.374c-19.67,0-31.98-21.248-22.195-38.307l98.322-171.45h77.475l49.886,86.988  l48.436,84.462C328.083,454.883,315.773,476.132,296.103,476.132z" fill="#FFA000" data-original="#ff9300" class=""></path>
<g xmlns="http://www.w3.org/2000/svg">
	<path style="" d="M269.861,353.362c-17.805-1.808-34.319-9.613-47.145-22.439   c-17.59-17.59-25.007-41.578-22.224-64.548h19.484L269.861,353.362z" fill="#F17309" data-original="#ff7400" class=""></path>
	<path style="" d="M296.103,476.132h-25.28c19.656,0,31.966-21.248,22.181-38.307l-98.322-171.45h25.294l98.322,171.45   C328.083,454.883,315.773,476.132,296.103,476.132z" fill="#F17309" data-original="#ff7400" class=""></path>
</g>
<path xmlns="http://www.w3.org/2000/svg" style="" d="M280.3,182.012H82.176c-15.811,0-28.629-12.817-28.629-28.629l0,0  c0-15.811,12.817-28.629,28.629-28.629H280.3c15.811,0,28.629,12.817,28.629,28.629l0,0  C308.929,169.195,296.112,182.012,280.3,182.012z" fill="#311B92" data-original="#a7f9e9" class=""></path>
<g xmlns="http://www.w3.org/2000/svg">
	<path style="" d="M229.707,376.106c-4.267,0-7.726-3.459-7.726-7.726v-1.007c0-4.267,3.459-7.726,7.726-7.726   s7.726,3.459,7.726,7.726v1.007C237.433,372.646,233.974,376.106,229.707,376.106z" fill="#F17309" data-original="#ff7400" class=""></path>
	<circle style="" cx="168.5" cy="350.28" r="31.391" fill="#F17309" data-original="#ff7400" class=""></circle>
	<circle style="" cx="214.7" cy="420.31" r="20.658" fill="#F17309" data-original="#ff7400" class=""></circle>
</g>
<circle xmlns="http://www.w3.org/2000/svg" style="" cx="277.86" cy="275.78" r="56.46" fill="#FFCA28" data-original="#fec007" class=""></circle>
<g xmlns="http://www.w3.org/2000/svg">
	<path style="" d="M410.795,125.176c-4.267,0-7.726-3.459-7.726-7.726v-1.007c0-4.267,3.459-7.726,7.726-7.726   s7.726,3.459,7.726,7.726v1.007C418.521,121.717,415.062,125.176,410.795,125.176z" fill="#FFA000" data-original="#ff9300" class=""></path>
	<path style="" d="M379.638,94.619c-4.267,0-7.726-3.459-7.726-7.726v-1.007c0-4.267,3.459-7.726,7.726-7.726   s7.726,3.459,7.726,7.726v1.007C387.365,91.159,383.905,94.619,379.638,94.619z" fill="#FFA000" data-original="#ff9300" class=""></path>
	<path style="" d="M437.576,407.881c-4.267,0-7.726-3.459-7.726-7.726v-1.007c0-4.267,3.459-7.726,7.726-7.726   s7.726,3.459,7.726,7.726v1.007C445.303,404.422,441.843,407.881,437.576,407.881z" fill="#FFA000" data-original="#ff9300" class=""></path>
	<path style="" d="M465.229,251.601c-2.503,4.224-15.504,23.303-47.337,23.303c-3.111,0-6.408-0.185-9.89-0.587   c-4.244-0.484-7.283-4.306-6.799-8.551c0.474-4.234,4.306-7.283,8.551-6.799c31.554,3.595,41.784-14.515,42.206-15.288   c0.124-0.237,0.247-0.464,0.391-0.68c-0.082,0.165-0.165,0.34-0.247,0.505C456.688,245.873,461.077,248.593,465.229,251.601z" fill="#FFA000" data-original="#ff9300" class=""></path>
	<path style="" d="M371.525,187.194c-19.885,0-36.062-16.178-36.062-36.062c0-4.267,3.459-7.726,7.726-7.726   s7.726,3.459,7.726,7.726c0,11.364,9.245,20.61,20.609,20.61s20.61-9.245,20.61-20.61c0-4.267,3.459-7.726,7.726-7.726   s7.726,3.459,7.726,7.726C407.588,171.017,391.41,187.194,371.525,187.194z" fill="#FFA000" data-original="#ff9300" class=""></path>
	<path style="" d="M396.711,377.215c-8.05,0-15.816-2.678-22.239-7.735c-3.353-2.64-3.93-7.498-1.29-10.851   c2.641-3.352,7.499-3.928,10.851-1.29c4.325,3.406,9.715,4.924,15.184,4.274c5.466-0.65,10.353-3.39,13.758-7.715   c7.031-8.929,5.486-21.912-3.442-28.943c-3.353-2.64-3.93-7.498-1.29-10.851c2.641-3.352,7.499-3.928,10.851-1.29   c15.622,12.302,18.323,35.021,6.022,50.643c-5.959,7.568-14.509,12.363-24.074,13.5   C399.593,377.13,398.147,377.215,396.711,377.215z" fill="#FFA000" data-original="#ff9300" class=""></path>
	<path style="" d="M115.379,94.063c-4.267,0-7.726-3.459-7.726-7.726v-0.902c0-4.267,3.459-7.726,7.726-7.726   s7.726,3.459,7.726,7.726v0.902C123.106,90.604,119.646,94.063,115.379,94.063z" fill="#FFA000" data-original="#ff9300" class=""></path>
	<path style="" d="M141.134,70.567c-4.267,0-7.726-3.459-7.726-7.726v-0.902c0-4.267,3.459-7.726,7.726-7.726   s7.726,3.459,7.726,7.726v0.902C148.86,67.108,145.401,70.567,141.134,70.567z" fill="#FFA000" data-original="#ff9300" class=""></path>
</g>
<g xmlns="http://www.w3.org/2000/svg">
</g>
<g xmlns="http://www.w3.org/2000/svg">
</g>
<g xmlns="http://www.w3.org/2000/svg">
</g>
<g xmlns="http://www.w3.org/2000/svg">
</g>
<g xmlns="http://www.w3.org/2000/svg">
</g>
<g xmlns="http://www.w3.org/2000/svg">
</g>
<g xmlns="http://www.w3.org/2000/svg">
</g>
<g xmlns="http://www.w3.org/2000/svg">
</g>
<g xmlns="http://www.w3.org/2000/svg">
</g>
<g xmlns="http://www.w3.org/2000/svg">
</g>
<g xmlns="http://www.w3.org/2000/svg">
</g>
<g xmlns="http://www.w3.org/2000/svg">
</g>
<g xmlns="http://www.w3.org/2000/svg">
</g>
<g xmlns="http://www.w3.org/2000/svg">
</g>
<g xmlns="http://www.w3.org/2000/svg">
</g>
</g></svg>