<svg width="150" height="150" viewBox="0 0 150 150" fill="none" xmlns="http://www.w3.org/2000/svg">
<g clip-path="url(#clip0_3059_3693)">
<path d="M75 6.44531C41.1085 6.44531 12.7072 29.9364 5.17998 61.5234L5.56641 61.8164H74.6839V70.6055H4.10156L3.5918 70.8984C3.34775 73.3069 3.22266 75.75 3.22266 78.2227C3.22266 89.9294 6.029 100.979 11.0004 110.742L11.4258 111.035H56.6572C57.8323 114.642 59.7369 117.894 62.3212 120.703L62.9886 120.996H132.643C141.522 109.05 146.777 94.2507 146.777 78.2227C146.777 38.5811 114.642 6.44531 75 6.44531Z" fill="#9FACBA"/>
<path d="M120.338 86.1056C120.338 86.9271 120.555 87.7377 120.966 88.4493L134.766 112.352V76.4648C134.766 74.8468 133.454 73.5352 131.836 73.5352H120.338V86.1056Z" fill="#7A8C98"/>
<path d="M88.2068 76.5867C88.2068 77.3549 88.6999 78.0272 89.4338 78.2599C96.3054 80.4378 101.741 85.2428 104.795 91.3679L106.48 88.4496C106.89 87.7386 107.108 86.9279 107.108 86.1059V73.5352H88.2065V76.5867H88.2068Z" fill="#7A8C98"/>
<path d="M66.2109 70.6055V82.084C68.451 80.4413 70.9834 79.1367 73.7499 78.2599C74.4838 78.0273 74.9769 77.3549 74.9769 76.587V70.6055H66.2109Z" fill="#FFBD86"/>
<path d="M19.4824 53.9062H33.5449V61.8164H19.4824V53.9062Z" fill="white"/>
<path d="M19.4824 53.9062H24.3164V61.8164H19.4824V53.9062Z" fill="#EAF6FF"/>
<path d="M19.4824 70.6055V100.488C19.4824 104.372 22.6304 107.52 26.5137 107.52C30.397 107.52 33.5449 104.372 33.5449 100.488V70.6055H19.4824Z" fill="white"/>
<path d="M24.3164 100.488V70.6055H19.4824V100.488C19.4824 104.372 22.6304 107.52 26.5137 107.52C27.363 107.52 28.1769 107.369 28.9307 107.093C26.238 106.107 24.3164 103.522 24.3164 100.488Z" fill="#EAF6FF"/>
<path d="M23.877 70.6055V100.488C23.877 101.942 25.0597 103.125 26.5137 103.125C27.9677 103.125 29.1504 101.942 29.1504 100.488V70.6055H23.877Z" fill="#60B7FF"/>
<path d="M23.877 70.6055H29.1504V76.7578H23.877V70.6055Z" fill="#8AC9FE"/>
<path d="M33.6914 54.1992H19.3359C17.7179 54.1992 16.4062 52.8876 16.4062 51.2695V47.7539C16.4062 46.1358 17.7179 44.8242 19.3359 44.8242H33.6914C35.3095 44.8242 36.6211 46.1358 36.6211 47.7539V51.2695C36.6211 52.8876 35.3095 54.1992 33.6914 54.1992Z" fill="#D8ECFE"/>
<path d="M23.4375 51.2695V47.7539C23.4375 46.1358 24.7491 44.8242 26.3672 44.8242H19.3359C17.7179 44.8242 16.4062 46.1358 16.4062 47.7539V51.2695C16.4062 52.8876 17.7179 54.1992 19.3359 54.1992H26.3672C24.7491 54.1992 23.4375 52.8876 23.4375 51.2695Z" fill="#C4E2FF"/>
<path d="M43.7988 53.9062H57.8613V61.8164H43.7988V53.9062Z" fill="white"/>
<path d="M43.7988 53.9062H48.6328V61.8164H43.7988V53.9062Z" fill="#EAF6FF"/>
<path d="M43.7988 70.6055V100.488C43.7988 104.372 46.9468 107.52 50.8301 107.52C54.7134 107.52 57.8613 104.372 57.8613 100.488V70.6055H43.7988Z" fill="white"/>
<path d="M48.6328 100.488V70.6055H43.7988V100.488C43.7988 104.372 46.9468 107.52 50.8301 107.52C51.6794 107.52 52.4933 107.369 53.2471 107.093C50.5544 106.107 48.6328 103.522 48.6328 100.488Z" fill="#EAF6FF"/>
<path d="M48.1934 70.6055V100.488C48.1934 101.942 49.3761 103.125 50.8301 103.125C52.2841 103.125 53.4668 101.942 53.4668 100.488V70.6055H48.1934Z" fill="#97D729"/>
<path d="M48.1934 70.6055H53.4668V76.7578H48.1934V70.6055Z" fill="#BBEC6C"/>
<path d="M58.0078 54.1992H43.6523C42.0343 54.1992 40.7227 52.8876 40.7227 51.2695V47.7539C40.7227 46.1358 42.0343 44.8242 43.6523 44.8242H58.0078C59.6259 44.8242 60.9375 46.1358 60.9375 47.7539V51.2695C60.9375 52.8876 59.6259 54.1992 58.0078 54.1992Z" fill="#D8ECFE"/>
<path d="M47.7539 51.2695V47.7539C47.7539 46.1358 49.0655 44.8242 50.6836 44.8242H43.6523C42.0343 44.8242 40.7227 46.1358 40.7227 47.7539V51.2695C40.7227 52.8876 42.0343 54.1992 43.6523 54.1992H50.6836C49.0655 54.1992 47.7539 52.8876 47.7539 51.2695Z" fill="#C4E2FF"/>
<path d="M74.9769 61.5234H5.17998C4.45225 64.5779 3.91553 67.7065 3.5918 70.8984H74.9766V61.5234H74.9769Z" fill="#FFBD86"/>
<path d="M74.9769 65.918H17.5781C16.7692 65.918 16.1133 65.262 16.1133 64.4531V61.5234H5.17998C4.45225 64.5779 3.91553 67.7065 3.5918 70.8984H74.9766V65.918H74.9769Z" fill="#F6A96C"/>
<path d="M62.9887 120.996L62.5369 120.505C59.9222 117.662 58.0073 114.328 56.8709 110.742H11.0005C12.8356 114.346 14.9632 117.775 17.3567 120.996H62.9887Z" fill="#FFBD86"/>
<path d="M59.3922 116.309H28.813C27.8614 116.309 26.9693 115.847 26.4186 115.071C25.421 113.665 24.4738 112.221 23.5768 110.742H11.0005C12.8356 114.346 14.9632 117.775 17.3567 120.996H62.9887L62.5369 120.505C61.3387 119.202 60.289 117.795 59.3922 116.309Z" fill="#F6A96C"/>
<path d="M121.219 88.3028C120.834 87.6349 120.631 86.877 120.631 86.1056V63.5057C120.48 63.5323 120.326 63.549 120.168 63.549H107.277C107.119 63.549 106.965 63.5326 106.815 63.5057V86.1056C106.815 86.877 106.612 87.6349 106.226 88.3028L87.3508 120.996H140.095L121.219 88.3028Z" fill="#EAF6FF"/>
<path d="M107.278 63.549C107.119 63.549 106.966 63.5326 106.815 63.5057V86.1056C106.815 86.877 106.612 87.6349 106.226 88.3028L104.802 90.7702C105.642 92.3637 106.32 94.055 106.82 95.8213L111.161 88.3028C111.547 87.6349 111.75 86.877 111.75 86.1056V63.549H107.278Z" fill="#D8ECFE"/>
<path d="M131.891 115.576L122.912 100.024C122.65 99.5704 122.166 99.2912 121.643 99.2912H117.534C116.984 97.7692 115.53 96.6797 113.818 96.6797C112.106 96.6797 110.653 97.7692 110.102 99.2912H107.255C107.426 100.499 107.519 101.73 107.519 102.979C107.519 108.323 105.893 113.456 102.885 117.773H130.622C131.75 117.773 132.455 116.553 131.891 115.576Z" fill="#FEA613"/>
<path d="M89.5222 77.9806C88.9137 77.7879 88.4998 77.2251 88.4998 76.5867V47.6856C88.3492 47.7123 88.1954 47.729 88.0372 47.729H75.1465C74.9883 47.729 74.8345 47.7126 74.6839 47.6856V76.5867C74.6839 77.2248 74.27 77.7876 73.6615 77.9803C63.0557 81.3419 55.3691 91.2638 55.3708 102.983C55.372 109.924 58.1169 116.28 62.5858 120.996H100.64C105.086 116.298 107.813 109.957 107.813 102.978C107.813 91.2618 100.127 81.3416 89.5222 77.9806Z" fill="white"/>
<path d="M60.0586 105.395C60.0569 93.6762 67.7432 83.7542 78.349 80.3927C78.9575 80.1999 79.3714 79.6371 79.3714 78.9987V47.7287H75.1465C74.9883 47.7287 74.8345 47.7123 74.6839 47.6854V76.5864C74.6839 77.2245 74.27 77.7873 73.6615 77.9801C63.0557 81.3416 55.3691 91.2636 55.3708 102.982C55.372 109.923 58.1169 116.279 62.5858 120.996H65.2533C61.9952 116.62 60.0595 111.215 60.0586 105.395Z" fill="#EAF6FF"/>
<path d="M79.3945 47.7287H83.7891V91.9922H79.3945V47.7287Z" fill="#C4E2FF"/>
<path d="M79.3945 30.4435H83.7891V37.5H79.3945V30.4435Z" fill="#C4E2FF"/>
<path d="M111.328 24.6094H115.723V18.164C115.723 8.05428 107.421 -0.152658 97.2762 0.00202932C87.3097 0.154373 79.3945 8.47205 79.3945 18.4397V20.2148H83.7891V18.3952C83.7891 10.8554 89.7539 4.54012 97.2926 4.39715C105.006 4.25066 111.328 10.483 111.328 18.164V24.6094Z" fill="#C4E2FF"/>
<path d="M111.328 47.4609H115.723V53.3203H111.328V47.4609Z" fill="white"/>
<path d="M111.328 63.549V74.1797C111.328 74.5043 111.507 74.8025 111.793 74.9552L114.43 76.3614C115.015 76.6737 115.723 76.2495 115.723 75.5859V63.549H111.328Z" fill="white"/>
<path d="M88.0371 48.0217H75.1465C73.5284 48.0217 72.2168 46.7101 72.2168 45.092V40.1367C72.2168 38.5187 73.5284 37.207 75.1465 37.207H88.0371C89.6552 37.207 90.9668 38.5187 90.9668 40.1367V45.092C90.9668 46.7101 89.6552 48.0217 88.0371 48.0217Z" fill="#EAF6FF"/>
<path d="M79.3945 45.092V40.1367C79.3945 38.5187 80.7062 37.207 82.3242 37.207H75.1465C73.5284 37.207 72.2168 38.5187 72.2168 40.1367V45.092C72.2168 46.7101 73.5284 48.0217 75.1465 48.0217H82.3242C80.7062 48.0217 79.3945 46.7101 79.3945 45.092Z" fill="#D8ECFE"/>
<path d="M77.3438 29.2717V21.3867C77.3438 20.5778 77.9997 19.9219 78.8086 19.9219H84.375C85.1839 19.9219 85.8398 20.5778 85.8398 21.3867V29.2717C85.8398 30.0806 85.1839 30.7365 84.375 30.7365H78.8086C77.9997 30.7365 77.3438 30.0809 77.3438 29.2717Z" fill="#EAF6FF"/>
<path d="M80.8594 29.2717V21.3867C80.8594 20.5778 81.5153 19.9219 82.3242 19.9219H78.8086C77.9997 19.9219 77.3438 20.5778 77.3438 21.3867V29.2717C77.3438 30.0806 77.9997 30.7365 78.8086 30.7365H82.3242C81.5153 30.7365 80.8594 30.0809 80.8594 29.2717Z" fill="#D8ECFE"/>
<path d="M69.3184 120.996H93.8868C99.6351 117.061 103.418 110.455 103.418 102.979C103.418 99.167 102.435 95.5811 100.711 92.4595C100.452 91.991 99.9594 91.6992 99.4242 91.6992H63.7593C63.2238 91.6992 62.7313 91.9913 62.4723 92.4601C60.6272 95.8005 59.6314 99.6727 59.7802 103.784C60.0383 110.915 63.7728 117.198 69.3184 120.996Z" fill="#FE76A8"/>
<path d="M67.1044 103.784C66.9556 99.6727 67.9514 95.8005 69.7965 92.4601C70.0555 91.9913 70.548 91.6992 71.0835 91.6992H63.7593C63.2238 91.6992 62.7313 91.9913 62.4723 92.4601C60.6272 95.8005 59.6314 99.6727 59.7802 103.784C60.0383 110.915 63.7728 117.198 69.3184 120.996H76.6426C71.097 117.198 67.3625 110.915 67.1044 103.784Z" fill="#FE5694"/>
<path d="M118.666 30.3223C118.666 29.5072 118.221 28.7974 117.562 28.418C118.221 28.0386 118.666 27.3287 118.666 26.5137C118.666 25.3002 117.683 24.3164 116.469 24.3164H110.289C109.075 24.3164 108.092 25.3002 108.092 26.5137C108.092 27.3287 108.537 28.0386 109.196 28.418C108.537 28.7974 108.092 29.5072 108.092 30.3223C108.092 31.1373 108.537 31.8472 109.196 32.2266C108.537 32.606 108.092 33.3158 108.092 34.1309C108.092 34.9459 108.537 35.6558 109.196 36.0352C108.537 36.4146 108.092 37.1244 108.092 37.9395C108.092 38.7545 108.537 39.4644 109.196 39.8438C108.537 40.2231 108.092 40.933 108.092 41.748C108.092 42.5631 108.537 43.2729 109.196 43.6523C108.537 44.0317 108.092 44.7416 108.092 45.5566C108.092 46.7701 109.075 47.7539 110.289 47.7539H116.469C117.683 47.7539 118.666 46.7701 118.666 45.5566C118.666 44.7416 118.221 44.0317 117.562 43.6523C118.221 43.2729 118.666 42.5631 118.666 41.748C118.666 40.933 118.221 40.2231 117.562 39.8438C118.221 39.4644 118.666 38.7545 118.666 37.9395C118.666 37.1244 118.221 36.4146 117.562 36.0352C118.221 35.6558 118.666 34.9459 118.666 34.1309C118.666 33.3158 118.221 32.606 117.562 32.2266C118.221 31.8472 118.666 31.1373 118.666 30.3223Z" fill="#EAF6FF"/>
<path d="M112.473 45.5566C112.473 44.973 112.701 44.4431 113.072 44.0502C113.284 43.827 113.284 43.4777 113.072 43.2545C112.701 42.8613 112.473 42.3316 112.473 41.748C112.473 41.1645 112.701 40.6345 113.072 40.2416C113.284 40.0184 113.284 39.6691 113.072 39.4459C112.701 39.0527 112.473 38.523 112.473 37.9395C112.473 37.3559 112.701 36.8259 113.072 36.433C113.284 36.2098 113.284 35.8605 113.072 35.6373C112.701 35.2441 112.473 34.7145 112.473 34.1309C112.473 33.5473 112.701 33.0173 113.072 32.6244C113.284 32.4012 113.284 32.052 113.072 31.8287C112.701 31.4355 112.473 30.9059 112.473 30.3223C112.473 29.7387 112.701 29.2087 113.072 28.8158C113.284 28.5926 113.284 28.2434 113.072 28.0201C112.701 27.627 112.473 27.0973 112.473 26.5137C112.473 25.3002 113.456 24.3164 114.67 24.3164H110.362C109.223 24.3164 108.217 25.1531 108.103 26.2872C108.012 27.196 108.476 28.004 109.196 28.418C108.537 28.7974 108.092 29.5072 108.092 30.3223C108.092 31.1373 108.537 31.8472 109.196 32.2266C108.537 32.606 108.092 33.3158 108.092 34.1309C108.092 34.9459 108.537 35.6558 109.196 36.0352C108.537 36.4146 108.092 37.1244 108.092 37.9395C108.092 38.7545 108.537 39.4644 109.196 39.8438C108.537 40.2231 108.092 40.933 108.092 41.748C108.092 42.5631 108.537 43.2729 109.196 43.6523C108.476 44.0663 108.012 44.8743 108.103 45.7831C108.217 46.9172 109.223 47.7539 110.362 47.7539H114.67C113.456 47.7539 112.473 46.7701 112.473 45.5566Z" fill="#D8ECFE"/>
<path d="M24.7732 129.492C37.7186 142.177 55.4444 150 75.0001 150C94.5557 150 112.282 142.177 125.227 129.492H24.7732Z" fill="#60B7FF"/>
<path d="M140.845 129.785H9.15527C8.02266 129.785 7.10449 128.867 7.10449 127.734V122.754C7.10449 121.621 8.02266 120.703 9.15527 120.703H140.845C141.977 120.703 142.896 121.621 142.896 122.754V127.734C142.896 128.867 141.977 129.785 140.845 129.785Z" fill="#B3DAFE"/>
<path d="M20.7275 125.098C19.5949 125.098 18.6768 124.179 18.6768 123.047V120.703H9.15527C8.02266 120.703 7.10449 121.621 7.10449 122.754V127.734C7.10449 128.867 8.02266 129.785 9.15527 129.785H140.845C141.977 129.785 142.896 128.867 142.896 127.734V125.098H20.7275Z" fill="#8AC9FE"/>
<path d="M50.9766 40.1367C52.5946 40.1367 53.9062 38.8251 53.9062 37.207C53.9062 35.589 52.5946 34.2773 50.9766 34.2773C49.3585 34.2773 48.0469 35.589 48.0469 37.207C48.0469 38.8251 49.3585 40.1367 50.9766 40.1367Z" fill="white"/>
<path d="M48.6328 25.4883C50.2508 25.4883 51.5625 24.1766 51.5625 22.5586C51.5625 20.9406 50.2508 19.6289 48.6328 19.6289C47.0148 19.6289 45.7031 20.9406 45.7031 22.5586C45.7031 24.1766 47.0148 25.4883 48.6328 25.4883Z" fill="white"/>
<path d="M59.1797 30.7617C60.7977 30.7617 62.1094 29.4501 62.1094 27.832C62.1094 26.214 60.7977 24.9023 59.1797 24.9023C57.5617 24.9023 56.25 26.214 56.25 27.832C56.25 29.4501 57.5617 30.7617 59.1797 30.7617Z" fill="#C5D3DD"/>
<path d="M120.168 63.842H107.278C105.66 63.842 104.348 62.5304 104.348 60.9123V55.957C104.348 54.339 105.66 53.0273 107.278 53.0273H120.168C121.786 53.0273 123.098 54.339 123.098 55.957V60.9123C123.098 62.5304 121.786 63.842 120.168 63.842Z" fill="#D8ECFE"/>
<path d="M111.621 60.9123V55.957C111.621 54.339 112.933 53.0273 114.551 53.0273H107.278C105.66 53.0273 104.348 54.339 104.348 55.957V60.9123C104.348 62.5304 105.66 63.842 107.278 63.842H114.551C112.933 63.842 111.621 62.5304 111.621 60.9123Z" fill="#C4E2FF"/>
<path d="M113.232 84.375C114.446 84.375 115.43 83.3913 115.43 82.1777C115.43 80.9642 114.446 79.9805 113.232 79.9805C112.019 79.9805 111.035 80.9642 111.035 82.1777C111.035 83.3913 112.019 84.375 113.232 84.375Z" fill="#FE9901"/>
<path d="M116.455 93.1641C117.669 93.1641 118.652 92.1803 118.652 90.9668C118.652 89.7533 117.669 88.7695 116.455 88.7695C115.242 88.7695 114.258 89.7533 114.258 90.9668C114.258 92.1803 115.242 93.1641 116.455 93.1641Z" fill="#FE9901"/>
<path d="M121.729 113.086C122.942 113.086 123.926 112.102 123.926 110.889C123.926 109.675 122.942 108.691 121.729 108.691C120.515 108.691 119.531 109.675 119.531 110.889C119.531 112.102 120.515 113.086 121.729 113.086Z" fill="#FED2A4"/>
<path d="M113.232 107.812C114.446 107.812 115.43 106.829 115.43 105.615C115.43 104.402 114.446 103.418 113.232 103.418C112.019 103.418 111.035 104.402 111.035 105.615C111.035 106.829 112.019 107.812 113.232 107.812Z" fill="white"/>
<path d="M89.7949 103.418C91.0084 103.418 91.9922 102.434 91.9922 101.221C91.9922 100.007 91.0084 99.0234 89.7949 99.0234C88.5814 99.0234 87.5977 100.007 87.5977 101.221C87.5977 102.434 88.5814 103.418 89.7949 103.418Z" fill="#FE5694"/>
<path d="M90.6738 115.137C91.8873 115.137 92.8711 114.153 92.8711 112.939C92.8711 111.726 91.8873 110.742 90.6738 110.742C89.4603 110.742 88.4766 111.726 88.4766 112.939C88.4766 114.153 89.4603 115.137 90.6738 115.137Z" fill="#FE93BB"/>
<path d="M79.834 111.035C81.0475 111.035 82.0312 110.051 82.0312 108.838C82.0312 107.624 81.0475 106.641 79.834 106.641C78.6205 106.641 77.6367 107.624 77.6367 108.838C77.6367 110.051 78.6205 111.035 79.834 111.035Z" fill="#FE5694"/>
<path d="M70.166 105.469C71.3795 105.469 72.3633 104.485 72.3633 103.271C72.3633 102.058 71.3795 101.074 70.166 101.074C68.9525 101.074 67.9688 102.058 67.9688 103.271C67.9688 104.485 68.9525 105.469 70.166 105.469Z" fill="#FE93BB"/>
</g>
<defs>
<clipPath id="clip0_3059_3693">
<rect width="150" height="150" fill="white"/>
</clipPath>
</defs>
</svg>
