<svg width="116" height="116" viewBox="0 0 116 116" fill="none" xmlns="http://www.w3.org/2000/svg">
<path d="M93.264 92.5511L89.378 93.9135C89.378 96.0597 91.1178 97.7995 93.264 97.7995C95.4102 97.7995 97.15 96.0595 97.15 93.9135L93.264 92.5511Z" fill="#EFEDFF"/>
<path d="M85.492 92.5511L81.606 93.9135C81.606 96.0597 83.3458 97.7995 85.492 97.7995C87.6382 97.7995 89.378 96.0595 89.378 93.9135L85.492 92.5511Z" fill="#D4D4FF"/>
<path d="M77.1733 81.1916C76.1139 83.621 76.0704 85.5287 76.0704 87.2383C76.0704 89.3154 77.7542 90.9995 79.8315 90.9995H89.3782L89.3787 81.1916H77.1733Z" fill="#FFBF9D"/>
<path d="M89.3784 81.1916L89.378 90.9995H98.9262C101.003 90.9995 102.687 89.3154 102.687 87.2383C102.687 85.127 102.553 83.4133 101.584 81.1916H89.3784Z" fill="#FFD4BD"/>
<path d="M81.606 87.2383V93.9135H89.376H97.15V87.2383L89.5044 84.6561L81.606 87.2383Z" fill="#9EA2E3"/>
<path d="M95.6479 87.2383H81.606V93.9135H89.376V93.476C89.376 90.0121 92.184 87.2383 95.6479 87.2383Z" fill="#8288CB"/>
<path d="M93.8524 73.9574C92.4479 73.4544 90.9363 73.183 89.3787 73.183C87.8093 73.183 86.3038 73.4562 84.9045 73.9574C81.5154 75.1711 78.6686 77.7618 77.1733 81.1915C78.4937 82.3522 80.0251 83.4633 81.606 84.4046V87.2385H97.15V84.4055C98.7314 83.4639 100.264 82.3527 101.585 81.1915C100.145 77.8905 97.3736 75.218 93.8524 73.9574Z" fill="#7CE3FF"/>
<path d="M89.3787 73.183C87.8093 73.183 86.3038 73.4562 84.9045 73.9574C81.5154 75.1711 78.6689 77.7618 77.1733 81.1915C78.4937 82.3522 80.0251 83.4633 81.606 84.4046V86.4917V87.2383H83.875V86.4917C83.8816 80.7087 87.3322 75.7327 92.2862 73.5042C91.3462 73.2938 90.3719 73.183 89.3787 73.183Z" fill="#55DAFE"/>
<path d="M89.3787 27.2321L64.457 52.1542L75.6263 67.4245C79.8787 73.2381 86.6495 76.6743 93.8524 76.6743C94.7058 76.5194 95.5444 76.3211 96.3654 76.0817C106.728 73.0609 114.301 63.4923 114.301 52.1542L89.3787 27.2321Z" fill="#FFD4BD"/>
<path d="M72.7184 52.1542H64.457C64.457 63.4923 72.0294 73.0607 82.3922 76.0817C84.6091 76.728 86.9531 77.0758 89.3787 77.0758C90.8837 77.0758 92.377 76.9422 93.8524 76.6741C82.0548 74.7058 72.7184 64.5104 72.7184 52.1542Z" fill="#FFBF9D"/>
<path d="M110.217 38.4784L103.845 41.6983L101.877 47.4274C105.247 50.377 109.661 52.1519 114.301 52.1526C114.3 47.103 112.798 42.4038 110.217 38.4784Z" fill="#E8B5B1"/>
<path d="M109.574 29.6141C107.971 30.6626 106.271 31.5739 104.491 32.3351C103.419 31.5165 102.279 30.7832 101.08 30.1445L71.3192 34.9798L76.5009 51.0168C76.7197 51.6944 77.3507 52.1534 78.0628 52.153L87.0736 52.1485C99.4299 51.9153 109.705 43.4475 112.946 32.0848C113.514 30.0942 111.307 28.4813 109.574 29.6141Z" fill="#D6948C"/>
<path d="M93.5094 27.5728C92.1658 27.3487 90.7859 27.2321 89.3787 27.2321C82.2716 27.2321 75.8592 30.2073 71.3192 34.9798C67.0668 39.4499 64.457 45.4971 64.457 52.1537L78.0628 52.153C76.98 50.5202 76.7272 48.4984 77.2361 46.6063C78.5078 41.8766 81.3729 37.7822 85.2808 34.9766C87.8374 33.1415 90.8389 31.8567 94.1324 31.3072L101.08 30.1445C98.752 28.9034 96.2048 28.0223 93.5094 27.5728Z" fill="#CE857A"/>
<path d="M76.8063 65.8356C79.3684 65.8356 81.4454 64.1815 81.4454 62.1412C81.4454 60.1009 79.3684 58.4469 76.8063 58.4469C74.2442 58.4469 72.1672 60.1009 72.1672 62.1412C72.1672 64.1815 74.2442 65.8356 76.8063 65.8356Z" fill="#FF8E9E"/>
<path d="M101.952 65.8356C104.514 65.8356 106.591 64.1815 106.591 62.1412C106.591 60.1009 104.514 58.4469 101.952 58.4469C99.3895 58.4469 97.3125 60.1009 97.3125 62.1412C97.3125 64.1815 99.3895 65.8356 101.952 65.8356Z" fill="#FF8E9E"/>
<path d="M32.2851 91.3916V94.1027C32.2851 96.1444 33.9402 97.7995 35.9819 97.7995C38.0237 97.7995 39.6788 96.1442 39.6788 94.1027V91.3916L35.9819 88.9271L32.2851 91.3916Z" fill="#FFDDCF"/>
<path d="M24.8915 91.3916V94.1027C24.8915 96.1444 26.5465 97.7995 28.5883 97.7995C30.6301 97.7995 32.2851 96.1442 32.2851 94.1027V91.3916L28.5883 88.9271L24.8915 91.3916Z" fill="#FFCBBE"/>
<path d="M10.8041 18.6959C9.19275 17.7085 7.083 18.2491 6.13824 19.8855L2.15617 26.7826C1.02132 28.7482 2.09704 31.2762 4.31169 31.7735C8.85993 32.7948 12.8622 35.2578 15.8172 38.6558L21.0683 38.1046C21.085 37.7561 21.0936 37.4058 21.0936 37.0533C21.0936 29.2845 16.9759 22.4783 10.8041 18.6959Z" fill="#676FB2"/>
<path d="M62.4141 26.7851L58.432 19.8881C57.487 18.2516 55.3773 17.7111 53.7662 18.6984C47.5946 22.4807 43.4769 29.2868 43.4769 37.0557C43.4769 37.4048 43.4853 37.7519 43.5018 38.0969L48.7585 38.6525C51.7129 35.2577 55.7131 32.797 60.2588 31.7761C62.4732 31.2788 63.549 28.7508 62.4141 26.7851Z" fill="#676FB2"/>
<path d="M42.373 87.4188L45.0331 82.4589C44.584 80.4941 43.6986 78.6959 42.4861 77.1734C40.6042 74.8104 37.934 73.1118 34.8817 72.489C32.9904 72.489 31.1555 73.1343 29.6805 74.3181L19.5371 82.4587L22.1972 87.4186L21.8476 87.9431C20.865 89.4171 21.9217 91.3913 23.6932 91.3913H40.8766C42.6481 91.3913 43.7048 89.4171 42.7222 87.9428L42.373 87.4188Z" fill="#FFB5C0"/>
<path d="M45.0331 82.4587C43.4404 83.0901 41.791 83.6062 40.0925 83.9977L42.373 87.4186H43.3711C44.4728 87.4186 45.3662 86.5255 45.3662 85.4235C45.3662 84.4042 45.2511 83.4123 45.0331 82.4587Z" fill="#FFDDCF"/>
<path d="M19.5371 82.4587C19.5371 82.4587 19.2095 84.3695 19.2054 85.37C19.2054 85.3881 19.2039 85.4056 19.2039 85.4237C19.2039 85.6992 19.2596 85.9616 19.3606 86.2004C19.4363 86.3793 19.5374 86.545 19.6595 86.6927C19.9796 87.0806 20.4436 87.3454 20.9699 87.4057C21.0451 87.4143 21.1215 87.4188 21.199 87.4188H22.197L24.4776 83.9979L22.0669 82.4589H19.5371V82.4587Z" fill="#FFCBBE"/>
<path d="M24.4778 83.9977H24.4809C25.0958 78.27 29.3643 73.6164 34.8818 72.489C34.7667 72.4654 34.6495 72.4473 34.5333 72.4269C33.8022 72.2985 33.052 72.2278 32.2849 72.2278C31.5123 72.2278 30.7551 72.2958 30.019 72.426C29.5283 72.5128 29.0469 72.6274 28.5765 72.7679C25.9892 73.5412 23.7337 75.1017 22.0841 77.1732C21.781 77.5538 21.4983 77.9517 21.2379 78.3651C20.4563 79.6053 19.874 80.9851 19.5374 82.4587C21.1299 83.0903 22.7795 83.6062 24.4778 83.9977Z" fill="#FF8E9E"/>
<path d="M36.3451 28.5676C35.0245 28.3472 33.6681 28.2325 32.2849 28.2325L7.78918 52.7287L28.8162 76.8884H36.3449C37.3003 76.7287 38.2372 76.5137 39.152 76.247C49.3378 73.2779 56.7808 63.8729 56.7808 52.7287C56.7808 40.5829 47.9417 30.5018 36.3451 28.5676Z" fill="#FFDDCF"/>
<path d="M15.9094 52.7295C15.9094 40.5839 24.7492 30.503 36.3451 28.5684C35.0245 28.3482 33.6681 28.2335 32.2849 28.2335C18.7566 28.2335 7.78918 39.2007 7.78918 52.7295C7.78918 63.8738 15.2322 73.2787 25.4178 76.2478C27.5969 76.8831 29.9008 77.2249 32.2849 77.2249C33.6683 77.2249 35.0245 77.1099 36.3451 76.8892C24.7492 74.9546 15.9094 64.8746 15.9094 52.7295Z" fill="#FFCBBE"/>
<path d="M56.6408 44.4147C55.1861 40.1506 52.6649 36.4162 49.3976 33.5116C48.7895 32.971 48.0305 32.7164 47.2369 32.7164H46.4154C46.3053 31.6669 45.6852 30.7396 44.7622 30.2285C43.1851 29.3551 41.5069 28.6428 39.7495 28.1122H24.8283L8.50128 46.843L8.50241 46.8441H16.6145H18.3021C27.2552 46.8441 35.8417 43.2876 42.1723 36.9567L49.8566 44.641C51.2672 46.0516 53.1803 46.8439 55.175 46.8439H56.0679L56.0681 46.8437C56.7043 46.2082 56.9311 45.2657 56.6408 44.4147Z" fill="#8288CB"/>
<path d="M36.5703 27.3687C33.7426 26.8947 30.8281 26.8947 28.0002 27.3687C18.6261 28.9403 10.9599 35.5285 7.92875 44.4152C7.63875 45.2655 7.866 46.2076 8.50128 46.8428L8.50264 46.8442H16.6211C18.9245 37.3757 26.6437 29.9472 36.3454 28.5674C37.287 28.4335 38.4424 28.2797 39.7497 28.112C38.7157 27.8 37.6544 27.5506 36.5703 27.3687Z" fill="#676FB2"/>
<path d="M19.9998 64.6568C22.5181 64.6568 24.5596 63.0311 24.5596 61.0256C24.5596 59.0202 22.5181 57.3945 19.9998 57.3945C17.4815 57.3945 15.44 59.0202 15.44 61.0256C15.44 63.0311 17.4815 64.6568 19.9998 64.6568Z" fill="#FF8E9E"/>
<path d="M44.7153 64.6568C47.2336 64.6568 49.2751 63.0311 49.2751 61.0257C49.2751 59.0202 47.2336 57.3945 44.7153 57.3945C42.1969 57.3945 40.1555 59.0202 40.1555 61.0257C40.1555 63.0311 42.1969 64.6568 44.7153 64.6568Z" fill="#FF8E9E"/>
<path d="M63.8898 25.9354L59.9077 19.0384C58.4826 16.5698 55.3089 15.7619 52.8822 17.2495C48.8043 19.7487 45.5994 23.4485 43.7051 27.796C36.2537 24.3882 27.935 24.5965 20.8769 27.8021C18.983 23.451 15.7767 19.748 11.6961 17.247C9.27481 15.7632 6.09954 16.5607 4.67061 19.0359L0.688774 25.9332C-0.131156 27.3537 -0.223367 29.0305 0.435703 30.5342C1.08775 32.0214 2.36624 33.0776 3.94312 33.4315C6.22755 33.9449 8.43336 34.8835 10.4092 36.1738C8.6674 38.4752 7.28038 41.0641 6.32452 43.8667C5.94276 44.9864 6.08753 46.2189 6.67501 47.2248C4.11508 59.1323 10.0345 70.9416 20.6822 76.2135C18.5691 78.9076 17.5085 82.1653 17.5085 85.4235C17.5085 86.9116 18.4184 88.268 19.7952 88.8376C19.6156 90.9247 21.1093 92.79 23.1959 93.0575V94.1022C23.1959 97.0776 25.6168 99.4982 28.592 99.4982C30.0216 99.4982 31.3223 98.9382 32.2888 98.0274C33.2553 98.9382 34.556 99.4982 35.9856 99.4982C38.9611 99.4982 41.3817 97.0774 41.3817 94.1022V93.0575C43.4679 92.79 44.962 90.9251 44.7824 88.8376C46.1229 88.2827 47.0691 86.9621 47.0691 85.4235C47.0691 83.5457 46.6932 82.0799 46.6932 82.0799C46.2004 79.9248 45.2457 77.9352 43.897 76.2167C44.921 75.7092 45.9165 75.1364 46.8738 74.4921C47.6522 73.9683 47.8586 72.912 47.3346 72.1338C46.8106 71.3549 45.7546 71.1485 44.9761 71.673C41.2321 74.193 36.8448 75.525 32.2884 75.525C18.0985 75.525 7.23145 62.6436 9.87634 48.5434H18.3063C27.2084 48.5434 35.6102 45.2843 42.1484 39.3316L48.6593 45.8428C50.2863 47.4695 52.4141 48.4132 54.6947 48.5303C56.0067 55.4987 53.9978 62.3601 49.6748 67.4639C49.0683 68.1801 49.1568 69.2524 49.873 69.8587C50.5894 70.4656 51.6615 70.3761 52.2678 69.6604C57.3244 63.691 59.6838 55.5315 57.9003 47.2296C58.4901 46.2232 58.6358 44.9878 58.2529 43.8656C57.3081 41.0961 55.922 38.4995 54.1652 36.1781C56.1422 34.8865 58.3496 33.9467 60.635 33.4333C63.9625 32.6865 65.6039 28.905 63.8898 25.9354ZM30.59 94.1027C30.59 95.2042 29.694 96.1003 28.5924 96.1003C27.4909 96.1003 26.5948 95.2042 26.5948 94.1027V93.0908H30.59V94.1027ZM37.9837 94.1027C37.9837 95.2042 37.0874 96.1003 35.9861 96.1003C34.8848 96.1003 33.9885 95.2042 33.9885 94.1027V93.0908H37.9837V94.1027ZM21.1977 82.8377L21.1997 82.8382C21.6526 80.8567 22.6089 79.0562 23.983 77.5763C26.5942 78.4495 29.3872 78.9234 32.289 78.9234C35.1449 78.9234 37.9429 78.464 40.5964 77.5788C41.9719 79.0596 42.9286 80.8592 43.3809 82.8375C43.5734 83.6805 43.6711 84.5506 43.6711 85.4235C43.6711 85.5866 43.5383 85.7194 43.3752 85.7194H43.2864L41.5101 83.0552C40.9899 82.2745 39.9344 82.0634 39.1539 82.584C38.3731 83.1046 38.162 84.1595 38.6826 84.9402C40.1786 87.1843 39.8089 86.6297 41.3128 88.8854C41.5423 89.2297 41.2992 89.6922 40.881 89.6922H23.6973C23.2829 89.6922 23.034 89.2331 23.2655 88.8854L25.8957 84.9405C26.4163 84.1595 26.2054 83.1044 25.4244 82.584C24.6441 82.0638 23.5886 82.2745 23.0679 83.055L21.2031 85.7194C21.04 85.7194 20.9072 85.5866 20.9072 85.4235C20.9074 84.58 21.0105 83.662 21.1977 82.8377ZM4.68806 30.1157C3.59806 29.8708 3.06587 28.6132 3.63182 27.6324L7.61388 20.7354C8.08332 19.9225 9.12664 19.6588 9.92029 20.145C13.4832 22.3288 16.2629 25.5856 17.8643 29.4075C15.9505 30.5843 14.1987 31.9867 12.6424 33.5803C10.2329 31.9396 7.51261 30.7501 4.68806 30.1157ZM55.0697 45.1441C53.5555 45.1164 52.1364 44.5138 51.0625 43.4399L43.3781 35.7553C42.7152 35.0924 41.6386 35.0917 40.9752 35.7556C34.9203 41.8107 26.8697 45.1452 18.3065 45.1452H9.5084C9.51021 45.0838 9.52109 45.0229 9.54125 44.9637C14.3772 30.7855 30.8504 24.5783 43.8016 31.6394C44.5588 32.0517 44.6938 32.5527 44.7296 32.8936C44.8202 33.7586 45.5497 34.4157 46.4195 34.4157C47.3221 34.4157 47.7927 34.355 48.2728 34.7816C52.9968 38.982 55.049 44.5455 55.0697 45.1441ZM51.9331 33.5844C50.533 32.1482 49.6066 31.2128 47.7096 31.0428C47.4606 30.4893 47.1031 29.9902 46.6542 29.5548C48.2456 25.6699 51.0504 22.3582 54.6582 20.147C55.4551 19.6585 56.4972 19.9277 56.9649 20.7374L60.9467 27.6342C61.5138 28.6161 60.9791 29.8731 59.8905 30.1178C57.065 30.7526 54.3435 31.9425 51.9331 33.5844Z" fill="black"/>
<path d="M20.9579 55.6661V57.5303C20.9579 58.4689 21.7187 59.2295 22.6572 59.2295C23.5956 59.2295 24.3564 58.4689 24.3564 57.5303V55.6661C24.3564 54.7275 23.5956 53.9669 22.6572 53.9669C21.7187 53.9669 20.9579 54.7277 20.9579 55.6661Z" fill="black"/>
<path d="M40.3587 55.6661V57.5303C40.3587 58.4689 41.1195 59.2295 42.0579 59.2295C42.9963 59.2295 43.7571 58.4689 43.7571 57.5303V55.6661C43.7571 54.7275 42.9963 53.9669 42.0579 53.9669C41.1195 53.9669 40.3587 54.7277 40.3587 55.6661Z" fill="black"/>
<path d="M33.6341 56.3583C33.3117 56.7285 32.8463 56.9406 32.3577 56.9406C31.869 56.9406 31.4038 56.7283 31.0812 56.3583C30.4645 55.651 29.3913 55.5773 28.6837 56.1936C27.9762 56.8103 27.9025 57.8835 28.519 58.5911C29.4871 59.7017 30.8861 60.339 32.3574 60.339C33.8287 60.339 35.2277 59.7019 36.1958 58.5911C36.8123 57.8835 36.7387 56.8103 36.0311 56.1936C35.324 55.5773 34.2506 55.6508 33.6341 56.3583Z" fill="black"/>
<path d="M77.8106 56.6886V58.5849C77.8106 59.5236 78.5712 60.2841 79.5099 60.2841C80.4485 60.2841 81.2091 59.5236 81.2091 58.5849V56.6886C81.2091 55.7499 80.4485 54.9894 79.5099 54.9894C78.5712 54.9894 77.8106 55.7499 77.8106 56.6886Z" fill="black"/>
<path d="M97.5487 56.6886V58.5849C97.5487 59.5236 98.3093 60.2841 99.248 60.2841C100.187 60.2841 100.947 59.5236 100.947 58.5849V56.6886C100.947 55.7499 100.187 54.9894 99.248 54.9894C98.3093 54.9894 97.5487 55.7499 97.5487 56.6886Z" fill="black"/>
<path d="M90.7 57.412C90.366 57.7947 89.8846 58.0145 89.3789 58.0145C88.8732 58.0145 88.3918 57.7949 88.058 57.4123C87.4416 56.7045 86.3681 56.6311 85.6608 57.2473C84.9532 57.8638 84.8794 58.9373 85.4958 59.6446C86.4748 60.7683 87.8902 61.4129 89.3789 61.4129C90.867 61.4129 92.2823 60.7686 93.2617 59.6448C93.8784 58.9375 93.8048 57.8643 93.0972 57.2476C92.3901 56.6306 91.3165 56.7045 90.7 57.412Z" fill="black"/>
<path d="M112.189 38.4252C113.196 36.556 113.997 34.5915 114.574 32.5715C115.587 29.0314 111.676 26.2123 108.645 28.1918C107.388 29.0131 106.065 29.7476 104.699 30.382C100.201 27.206 94.9256 25.5328 89.3787 25.5328C74.6999 25.5328 62.7578 37.4752 62.7578 52.1542C62.7578 62.8878 69.1439 72.1572 78.3159 76.3646C77.196 77.5869 76.2802 78.9885 75.6157 80.5123C74.4663 83.1484 74.3712 85.1979 74.3712 87.2383C74.3712 90.2493 76.8208 92.6989 79.8316 92.6989H79.907V93.9135C79.907 96.9934 82.4126 99.4987 85.492 99.4987C87.0009 99.4987 88.3721 98.8972 89.378 97.9214C90.3839 98.8972 91.7551 99.4987 93.264 99.4987C96.3437 99.4987 98.849 96.9932 98.849 93.9135V92.6989H98.9263C101.937 92.6989 104.387 90.2493 104.387 87.2383C104.387 85.1981 104.291 83.1486 103.142 80.5121C102.478 78.9896 101.564 77.5897 100.446 76.3685C101.635 75.8243 102.788 75.1917 103.894 74.4708C104.68 73.9585 104.902 72.9059 104.39 72.1195C103.877 71.3331 102.824 71.1111 102.039 71.6238C98.271 74.0788 93.8934 75.3764 89.3785 75.3764C77.1448 75.3764 67.091 65.8673 66.2183 53.8525L87.0739 53.8477C87.0843 53.8477 87.0949 53.8477 87.1056 53.8475C92.4103 53.7476 97.4411 52.2273 101.781 49.5412C104.917 51.9541 108.676 53.4256 112.539 53.7711C112.186 58.8389 110.189 63.6601 106.814 67.4915C106.194 68.1957 106.262 69.2696 106.967 69.8899C107.671 70.5098 108.745 70.4418 109.365 69.7377C113.643 64.8795 116 58.635 116 52.1542C116 47.2876 114.686 42.5635 112.189 38.4252ZM79.9068 87.2383V89.3004H79.8313C78.6942 89.3004 77.7694 88.3754 77.7694 87.2383C77.7694 86.3311 77.771 85.2799 78.0274 84.0589C78.636 84.5098 79.2654 84.9441 79.9068 85.3531V87.2383ZM95.4508 93.9135C95.4508 95.1193 94.47 96.1003 93.2642 96.1003C92.0585 96.1003 91.0775 95.1193 91.0775 93.9135V92.2988C91.0775 91.3601 90.3169 90.5996 89.3782 90.5996C88.4396 90.5996 87.679 91.3601 87.679 92.2988V93.9135C87.679 95.1193 86.698 96.1003 85.4922 96.1003C84.2865 96.1003 83.3057 95.1193 83.3057 93.9135V88.9375H95.4508V93.9135ZM100.735 84.0551C100.937 85.0329 100.988 86.0187 100.988 87.2383C100.988 88.3754 100.063 89.3004 98.9263 89.3004H98.8492V87.2383V85.354C99.4929 84.9434 100.125 84.5075 100.735 84.0551ZM81.8323 77.6837C84.226 78.3924 86.7583 78.7748 89.3787 78.7748C91.9565 78.7748 94.4956 78.4051 96.9289 77.6864C97.9434 78.5575 98.7978 79.5972 99.4589 80.7525C98.4657 81.5411 97.3854 82.2877 96.2809 82.9451C95.7662 83.2515 95.4508 83.8063 95.4508 84.4051V85.5388H83.3054V84.4044C83.3054 83.8054 82.9901 83.2508 82.4755 82.9445C81.3715 82.2872 80.2919 81.5411 79.2989 80.7527C79.9607 79.5963 80.8162 78.5557 81.8323 77.6837ZM87.0571 50.4495L66.2188 50.4543C67.0922 38.4399 77.1454 28.9315 89.3787 28.9315C94.5158 28.9315 99.3846 30.5759 103.459 33.6871C103.972 34.0795 104.642 34.1338 105.196 33.8817C107.041 33.0903 108.826 32.1331 110.503 31.0367C110.925 30.7617 111.444 31.155 111.307 31.6367C110.713 33.714 109.851 35.7266 108.746 37.6181C108.736 37.634 108.73 37.6512 108.721 37.6673C104.125 45.4984 96.0319 50.2751 87.0571 50.4495ZM104.709 47.4657C106.739 45.8283 108.566 43.9064 110.131 41.7273C111.484 44.4148 112.299 47.3374 112.531 50.3534C109.76 50.0535 107.061 49.0589 104.709 47.4657Z" fill="black"/>
</svg>
