<svg xmlns="http://www.w3.org/2000/svg" version="1.1" xmlns:xlink="http://www.w3.org/1999/xlink" xmlns:svgjs="http://svgjs.com/svgjs" width="512" height="512" x="0" y="0" viewBox="0 0 512 512" style="enable-background:new 0 0 512 512" xml:space="preserve"><g><g xmlns="http://www.w3.org/2000/svg"><g><g><path d="m411.648 408.502-17.152 6.013c0 9.473 7.679 17.152 17.152 17.152s17.152-7.68 17.152-17.152z" fill="#EFEDFF" data-original="#efedff" style=""></path><path d="m377.344 408.502-17.152 6.013c0 9.473 7.679 17.152 17.152 17.152s17.152-7.68 17.152-17.152z" fill="#D4D4FF" data-original="#d4d4ff" style=""></path></g><g><path d="m340.627 358.363c-4.676 10.723-4.868 19.143-4.868 26.689 0 9.168 7.432 16.601 16.601 16.601h42.137l.002-43.29z" fill="#FFBF9D" data-original="#ffbf9d" style=""></path><path d="m394.498 358.363-.002 43.29h42.144c9.168 0 16.601-7.433 16.601-16.601 0-9.319-.593-16.883-4.868-26.689z" fill="#FFD4BD" data-original="#ffd4bd" style=""></path></g><g><path d="m360.192 385.052v29.463h34.295 34.313v-29.463l-33.746-11.397z" fill="#9EA2E3" data-original="#9ea2e3" style=""></path><path d="m422.17 385.052h-61.978v29.463h34.295v-1.931c0-15.289 12.394-27.532 27.683-27.532z" fill="#8288CB" data-original="#8288cb" style=""></path></g><g><g><path d="m414.245 326.433c-6.199-2.22-12.871-3.418-19.746-3.418-6.927 0-13.572 1.206-19.748 3.418-14.959 5.357-27.524 16.792-34.124 31.93 5.828 5.123 12.587 10.027 19.565 14.182v12.508h68.608v-12.504c6.98-4.156 13.743-9.061 19.573-14.186-6.353-14.57-18.586-26.366-34.128-31.93z" fill="#7CE3FF" data-original="#7ce3ff" style=""></path><path d="m394.499 323.015c-6.927 0-13.572 1.206-19.748 3.418-14.959 5.357-27.523 16.792-34.124 31.93 5.828 5.123 12.587 10.027 19.565 14.182v9.212 3.295h10.015v-3.295c.029-25.525 15.259-47.488 37.125-57.324-4.149-.929-8.449-1.418-12.833-1.418z" fill="#55DAFE" data-original="#55dafe" style=""></path></g></g><g><path d="m394.499 120.197-109.999 110.001 49.299 67.4c18.769 25.66 48.654 40.827 80.446 40.827 3.767-.684 7.468-1.559 11.092-2.616 45.74-13.333 79.163-55.567 79.163-105.611z" fill="#FFD4BD" data-original="#ffd4bd" style=""></path><path d="m320.964 230.198h-36.464c0 50.044 33.423 92.277 79.162 105.611 9.785 2.853 20.131 4.388 30.837 4.388 6.643 0 13.234-.59 19.746-1.773-52.072-8.688-93.281-53.688-93.281-108.226z" fill="#FFBF9D" data-original="#ffbf9d" style=""></path><g><path d="m486.474 169.836-28.124 14.212-8.684 25.287c14.874 13.019 34.355 20.853 54.834 20.856-.002-22.288-6.631-43.029-18.026-60.355z" fill="#E8B5B1" data-original="#e8b5b1" style=""></path><path d="m483.639 130.711c-7.079 4.628-14.581 8.65-22.437 12.01-4.731-3.613-9.764-6.85-15.054-9.669l-131.36 21.342 22.871 70.784c.966 2.991 3.751 5.017 6.894 5.015l39.772-.02c54.538-1.029 99.888-38.404 114.196-88.557 2.506-8.786-7.234-15.905-14.882-10.905z" fill="#D6948C" data-original="#d6948c" style=""></path><path d="m412.731 121.701c-5.93-.989-12.021-1.504-18.232-1.504-31.369 0-59.672 13.132-79.711 34.197-18.769 19.73-30.288 46.421-30.288 75.802l60.053-.003c-4.779-7.207-5.895-16.131-3.649-24.482 5.613-20.876 18.259-38.948 35.508-51.331 11.284-8.1 24.532-13.771 39.069-16.196l30.667-5.132c-10.277-5.478-21.52-9.367-33.417-11.351z" fill="#CE857A" data-original="#ce857a" style=""></path></g></g><g><g><g><g><ellipse cx="339.007" cy="274.279" fill="#FF8E9E" rx="20.476" ry="16.306" data-original="#ff8e9e" style=""></ellipse></g><g><ellipse cx="449.993" cy="274.279" fill="#FF8E9E" rx="20.476" ry="16.306" data-original="#ff8e9e" style=""></ellipse></g></g></g></g></g><g><g><path d="m142.5 403.384v11.966c0 9.012 7.305 16.317 16.317 16.317s16.317-7.306 16.317-16.317v-11.966l-16.317-10.878z" fill="#FFDDCF" data-original="#ffddcf" style=""></path><path d="m109.866 403.384v11.966c0 9.012 7.305 16.317 16.317 16.317s16.317-7.306 16.317-16.317v-11.966l-16.317-10.878z" fill="#FFCBBE" data-original="#ffcbbe" style=""></path></g><g fill="#676FB2"><path d="m47.687 82.52c-7.112-4.358-16.424-1.972-20.594 5.251l-17.576 30.442c-5.009 8.676-.261 19.834 9.514 22.029 20.075 4.508 37.74 15.379 50.783 30.377l23.177-2.433c.074-1.538.112-3.084.112-4.64 0-34.29-18.175-64.331-45.416-81.026z" fill="#676FB2" data-original="#676fb2" style=""></path><path d="m275.483 118.224-17.576-30.442c-4.171-7.223-13.483-9.609-20.594-5.251-27.24 16.694-45.415 46.735-45.415 81.025 0 1.541.037 3.073.11 4.596l23.202 2.452c13.04-14.984 30.696-25.845 50.76-30.351 9.774-2.195 14.522-13.353 9.513-22.029z" fill="#676FB2" data-original="#676fb2" style=""></path></g><g><path d="m187.026 385.849 11.741-21.892c-1.982-8.672-5.89-16.609-11.242-23.329-8.306-10.43-20.092-17.927-33.564-20.676-8.348 0-16.447 2.848-22.957 8.073l-44.771 35.931 11.741 21.892-1.543 2.315c-4.337 6.506.327 15.22 8.146 15.22h75.844c7.819 0 12.483-8.714 8.146-15.221z" fill="#FFB5C0" data-original="#ffb5c0" style=""></path><path d="m198.767 363.956c-7.03 2.787-14.31 5.065-21.807 6.793l10.066 15.099h4.405c4.863 0 8.806-3.942 8.806-8.806 0-4.499-.508-8.877-1.47-13.086z" fill="#FFDDCF" data-original="#ffddcf" style=""></path><path d="m86.233 363.956s-1.446 8.434-1.464 12.85c0 .08-.007.157-.007.237 0 1.216.246 2.374.692 3.428.334.79.78 1.521 1.319 2.173 1.413 1.712 3.461 2.881 5.784 3.147.332.038.669.058 1.011.058h4.405l10.066-15.099-10.64-6.793h-11.166z" fill="#FFCBBE" data-original="#ffcbbe" style=""></path><path d="m108.04 370.749h.014c2.714-25.281 21.554-45.821 45.907-50.797-.508-.104-1.025-.184-1.538-.274-3.227-.567-6.538-.879-9.924-.879-3.41 0-6.752.3-10.001.875-2.166.383-4.291.889-6.367 1.509-11.42 3.413-21.375 10.301-28.656 19.444-1.338 1.68-2.586 3.436-3.735 5.261-3.45 5.474-6.02 11.564-7.506 18.068 7.029 2.788 14.31 5.065 21.806 6.793z" fill="#FF8E9E" data-original="#ff8e9e" style=""></path></g><g><path d="m160.42 126.092c-5.829-.973-11.816-1.479-17.921-1.479l-108.119 108.121 92.809 106.636h33.23c4.217-.705 8.352-1.654 12.39-2.831 44.958-13.105 77.81-54.617 77.81-103.805 0-53.609-39.014-98.105-90.199-106.642z" fill="#FFDDCF" data-original="#ffddcf" style=""></path><path d="m70.221 232.734c0-53.608 39.017-98.103 90.199-106.642-5.829-.972-11.816-1.478-17.921-1.478-59.711 0-108.119 48.407-108.119 108.12 0 49.189 32.852 90.7 77.809 103.805 9.618 2.804 19.787 4.313 30.31 4.313 6.106 0 12.092-.508 17.921-1.482-51.182-8.539-90.199-53.03-90.199-106.636z" fill="#FFCBBE" data-original="#ffcbbe" style=""></path></g><g><path d="m250.001 196.038c-6.421-18.821-17.549-35.304-31.97-48.124-2.684-2.386-6.034-3.51-9.537-3.51h-3.626c-.486-4.632-3.223-8.725-7.297-10.981-6.961-3.855-14.368-6.999-22.125-9.341h-65.859l-72.064 82.674.005.005h35.805 7.449c39.517 0 77.416-15.698 105.358-43.641l33.917 33.917c6.226 6.226 14.67 9.723 23.474 9.723h3.941l.001-.001c2.808-2.805 3.809-6.965 2.528-10.721z" fill="#8288CB" data-original="#8288cb" style=""></path><path d="m161.414 120.8c-12.481-2.092-25.345-2.092-37.827 0-41.375 6.937-75.212 36.016-88.591 75.24-1.28 3.753-.277 7.911 2.527 10.715l.006.006h35.833c10.167-41.792 44.238-74.58 87.059-80.67 4.156-.591 9.256-1.27 15.026-2.01-4.564-1.377-9.248-2.478-14.033-3.281z" fill="#676FB2" data-original="#676fb2" style=""></path></g><g><g><g><ellipse cx="88.275" cy="269.355" fill="#FF8E9E" rx="20.126" ry="16.027" data-original="#ff8e9e" style=""></ellipse></g><g><ellipse cx="197.364" cy="269.355" fill="#FF8E9E" rx="20.126" ry="16.027" data-original="#ff8e9e" style=""></ellipse></g></g></g></g><g><path d="m281.996 114.474-17.576-30.442c-6.29-10.896-20.298-14.462-31.009-7.896-17.999 11.031-32.145 27.361-40.506 46.55-32.889-15.041-69.606-14.122-100.759.027-8.359-19.205-22.511-35.549-40.522-46.588-10.687-6.549-24.702-3.029-31.009 7.896l-17.575 30.443c-3.619 6.27-4.026 13.671-1.117 20.308 2.878 6.564 8.521 11.226 15.481 12.788 10.083 2.266 19.819 6.409 28.54 12.104-7.688 10.158-13.81 21.585-18.029 33.955-1.685 4.942-1.046 10.382 1.547 14.822-11.299 52.557 14.828 104.681 61.825 127.95-9.327 11.891-14.008 26.27-14.008 40.651 0 6.568 4.016 12.555 10.093 15.069-.793 9.212 5.8 17.445 15.01 18.626v4.611c0 13.133 10.685 23.817 23.817 23.817 6.31 0 12.051-2.472 16.317-6.492 4.266 4.02 10.007 6.492 16.317 6.492 13.133 0 23.817-10.685 23.817-23.817v-4.611c9.208-1.181 15.803-9.412 15.01-18.626 5.917-2.449 10.093-8.278 10.093-15.069 0-8.288-1.659-14.758-1.659-14.758-2.175-9.512-6.389-18.294-12.342-25.879 4.52-2.24 8.914-4.768 13.139-7.612 3.436-2.312 4.347-6.974 2.034-10.409-2.313-3.438-6.974-4.349-10.41-2.034-16.525 11.123-35.89 17.002-56.001 17.002-62.631 0-110.596-56.856-98.922-119.091h37.208c39.292 0 76.376-14.385 105.234-40.659l28.738 28.739c7.181 7.18 16.573 11.345 26.639 11.862 5.791 30.757-3.076 61.042-22.157 83.569-2.677 3.161-2.286 7.894.875 10.57 3.162 2.679 7.894 2.284 10.57-.875 22.319-26.348 32.733-62.362 24.861-99.005 2.603-4.442 3.246-9.895 1.556-14.848-4.17-12.224-10.288-23.685-18.042-33.931 8.726-5.701 18.469-9.849 28.556-12.115 14.687-3.296 21.932-19.987 14.366-33.094zm-146.978 300.876c0 4.862-3.955 8.817-8.817 8.817s-8.817-3.955-8.817-8.817v-4.466h17.634zm32.634 0c0 4.862-3.956 8.817-8.817 8.817s-8.817-3.955-8.817-8.817v-4.466h17.634zm-74.09-49.721.009.002c1.999-8.746 6.22-16.693 12.285-23.225 11.525 3.854 23.853 5.946 36.661 5.946 12.605 0 24.955-2.028 36.667-5.935 6.071 6.536 10.294 14.479 12.29 23.211.85 3.721 1.281 7.561 1.281 11.414 0 .72-.586 1.306-1.306 1.306h-.392l-7.84-11.759c-2.296-3.446-6.955-4.378-10.4-2.08-3.446 2.298-4.378 6.954-2.08 10.4 6.603 9.905 4.971 7.457 11.609 17.413 1.013 1.52-.06 3.561-1.906 3.561h-75.845c-1.829 0-2.928-2.026-1.906-3.561l11.609-17.412c2.298-3.447 1.367-8.104-2.08-10.401-3.444-2.296-8.103-1.366-10.401 2.079l-8.231 11.76c-.72 0-1.306-.586-1.306-1.306.001-3.723.456-7.775 1.282-11.413zm-72.87-232.704c-4.811-1.081-7.16-6.632-4.662-10.961l17.576-30.442c2.072-3.588 6.677-4.752 10.18-2.606 15.726 9.639 27.995 24.014 35.063 40.883-8.447 5.194-16.179 11.384-23.048 18.418-10.635-7.242-22.642-12.492-35.109-15.292zm222.374 66.332c-6.683-.122-12.947-2.782-17.687-7.522l-33.917-33.918c-2.926-2.926-7.678-2.929-10.606.001-26.725 26.726-62.259 41.444-100.055 41.444h-38.833c.008-.271.056-.54.145-.801 21.345-62.58 94.054-89.977 151.218-58.811 3.342 1.82 3.938 4.031 4.096 5.536.4 3.818 3.62 6.718 7.459 6.718 3.984 0 6.061-.268 8.18 1.615 20.851 18.54 29.909 43.096 30 45.738zm-13.844-51.022c-6.18-6.339-10.269-10.468-18.642-11.218-1.099-2.443-2.677-4.646-4.658-6.568 7.024-17.147 19.404-31.764 35.328-41.524 3.517-2.156 8.117-.968 10.181 2.606l17.575 30.441c2.503 4.334.143 9.882-4.662 10.962-12.471 2.802-24.483 8.054-35.122 15.301z" fill="#000000" data-original="#000000" style=""></path><path d="m92.504 245.699v8.228c0 4.143 3.358 7.5 7.5 7.5s7.5-3.357 7.5-7.5v-8.228c0-4.143-3.358-7.5-7.5-7.5s-7.5 3.358-7.5 7.5z" fill="#000000" data-original="#000000" style=""></path><path d="m178.135 245.699v8.228c0 4.143 3.358 7.5 7.5 7.5s7.5-3.357 7.5-7.5v-8.228c0-4.143-3.358-7.5-7.5-7.5s-7.5 3.358-7.5 7.5z" fill="#000000" data-original="#000000" style=""></path><path d="m148.454 248.754c-1.423 1.634-3.477 2.57-5.634 2.57s-4.21-.937-5.634-2.57c-2.722-3.122-7.459-3.447-10.582-.727-3.123 2.722-3.448 7.459-.727 10.582 4.273 4.902 10.448 7.715 16.942 7.715s12.669-2.812 16.942-7.715c2.721-3.123 2.396-7.86-.727-10.582-3.121-2.72-7.859-2.396-10.58.727z" fill="#000000" data-original="#000000" style=""></path><path d="m343.44 250.212v8.37c0 4.143 3.357 7.5 7.5 7.5s7.5-3.357 7.5-7.5v-8.37c0-4.143-3.357-7.5-7.5-7.5s-7.5 3.357-7.5 7.5z" fill="#000000" data-original="#000000" style=""></path><path d="m430.56 250.212v8.37c0 4.143 3.357 7.5 7.5 7.5s7.5-3.357 7.5-7.5v-8.37c0-4.143-3.357-7.5-7.5-7.5s-7.5 3.357-7.5 7.5z" fill="#000000" data-original="#000000" style=""></path><path d="m400.331 253.405c-1.474 1.689-3.599 2.659-5.831 2.659s-4.357-.969-5.83-2.658c-2.721-3.124-7.459-3.448-10.581-.728-3.123 2.721-3.449 7.459-.728 10.581 4.321 4.96 10.568 7.805 17.139 7.805 6.568 0 12.815-2.844 17.138-7.804 2.722-3.122 2.397-7.859-.726-10.581-3.121-2.723-7.86-2.397-10.581.726z" fill="#000000" data-original="#000000" style=""></path><path d="m495.181 169.601c4.442-8.25 7.976-16.921 10.526-25.837 4.468-15.625-12.793-28.068-26.172-19.331-5.546 3.625-11.388 6.867-17.415 9.667-19.854-14.018-43.138-21.403-67.621-21.403-64.789 0-117.499 52.711-117.499 117.501 0 47.376 28.187 88.289 68.67 106.86-4.943 5.395-8.985 11.581-11.918 18.307-5.073 11.635-5.493 20.681-5.493 29.687 0 13.29 10.812 24.102 24.101 24.102h.333v5.361c0 13.594 11.059 24.652 24.651 24.652 6.66 0 12.712-2.655 17.152-6.962 4.44 4.307 10.492 6.962 17.152 6.962 13.593 0 24.651-11.059 24.651-24.652v-5.361h.341c13.289 0 24.101-10.812 24.101-24.102 0-9.005-.42-18.051-5.493-29.688-2.931-6.72-6.967-12.899-11.9-18.289 5.248-2.402 10.336-5.194 15.219-8.376 3.471-2.261 4.45-6.907 2.188-10.378-2.263-3.471-6.911-4.451-10.378-2.188-16.629 10.836-35.951 16.563-55.879 16.563-53.997 0-98.372-41.971-102.224-95.002l92.052-.021c.046 0 .093 0 .14-.001 23.414-.441 45.619-7.151 64.773-19.007 13.844 10.65 30.436 17.145 47.486 18.67-1.558 22.368-10.375 43.648-25.268 60.559-2.737 3.108-2.437 7.848.672 10.586 3.109 2.736 7.848 2.436 10.586-.672 18.883-21.443 29.283-49.005 29.284-77.61.001-21.48-5.8-42.331-16.818-60.597zm-142.489 215.451v9.102h-.333c-5.019 0-9.101-4.083-9.101-9.102 0-4.004.007-8.644 1.139-14.033 2.686 1.99 5.464 3.907 8.295 5.712zm68.608 29.463c0 5.322-4.329 9.652-9.651 9.652s-9.652-4.33-9.652-9.652v-7.127c0-4.143-3.357-7.5-7.5-7.5s-7.5 3.357-7.5 7.5v7.127c0 5.322-4.33 9.652-9.652 9.652s-9.651-4.33-9.651-9.652v-21.963h53.606zm23.324-43.513c.891 4.316 1.117 8.667 1.117 14.05 0 5.019-4.082 9.102-9.101 9.102h-.34v-9.102-8.317c2.841-1.812 5.629-3.736 8.324-5.733zm-83.433-28.122c10.565 3.128 21.742 4.816 33.308 4.816 11.378 0 22.585-1.632 33.325-4.804 4.478 3.845 8.249 8.434 11.167 13.533-4.384 3.481-9.152 6.776-14.027 9.678-2.272 1.352-3.664 3.801-3.664 6.444v5.004h-53.607v-5.007c0-2.644-1.392-5.092-3.663-6.444-4.873-2.901-9.638-6.194-14.021-9.674 2.921-5.104 6.697-9.697 11.182-13.546zm23.061-120.206-91.976.021c3.855-53.029 48.228-94.997 102.223-94.997 22.674 0 44.164 7.258 62.146 20.99 2.268 1.732 5.225 1.972 7.669.859 8.143-3.493 16.023-7.718 23.425-12.557 1.861-1.214 4.151.522 3.546 2.648-2.622 9.169-6.426 18.052-11.304 26.401-.041.07-.068.146-.107.217-20.287 34.565-56.009 55.648-95.622 56.418zm77.911-13.17c8.96-7.227 17.025-15.71 23.933-25.328 5.973 11.862 9.567 24.762 10.592 38.074-12.229-1.324-24.144-5.714-34.525-12.746z" fill="#000000" data-original="#000000" style=""></path></g></g></g></svg>