<svg xmlns="http://www.w3.org/2000/svg" version="1.1" xmlns:xlink="http://www.w3.org/1999/xlink" xmlns:svgjs="http://svgjs.com/svgjs" width="512" height="512" x="0" y="0" viewBox="0 0 502 502" style="enable-background:new 0 0 512 512" xml:space="preserve" class=""><g>
<g xmlns="http://www.w3.org/2000/svg">
	<g>
		<circle style="" cx="251" cy="251" r="241" fill="#6746C3" data-original="#4d93e8" class=""></circle>
		<path d="M251,502c-67.044,0-130.076-26.108-177.484-73.516S0,318.044,0,251S26.108,120.924,73.516,73.516S183.956,0,251,0    s130.076,26.108,177.484,73.516S502,183.956,502,251s-26.108,130.076-73.516,177.484S318.044,502,251,502z M251,20    C123.626,20,20,123.626,20,251s103.626,231,231,231s231-103.626,231-231S378.374,20,251,20z" fill="#000000" data-original="#000000" class=""></path>
	</g>
	<g>
		<path d="M251,461c-115.794,0-210-94.206-210-210c0-5.523,4.477-10,10-10s10,4.477,10,10c0,104.766,85.234,190,190,190    c5.523,0,10,4.477,10,10S256.523,461,251,461z" fill="#000000" data-original="#000000" class=""></path>
	</g>
	<g>
		<path d="M451,261c-5.523,0-10-4.477-10-10c0-78.745-47.358-148.202-120.651-176.95c-5.142-2.017-7.675-7.819-5.658-12.961    c2.017-5.142,7.823-7.674,12.961-5.658c38.864,15.244,72.041,41.493,95.945,75.91C448.066,166.574,461,207.951,461,251    C461,256.523,456.523,261,451,261z" fill="#000000" data-original="#000000" class=""></path>
	</g>
	<g>
		<path d="M274.012,62.309c-0.38,0-0.764-0.021-1.15-0.066C265.659,61.418,258.304,61,251,61c-5.523,0-10-4.477-10-10    s4.477-10,10-10c8.061,0,16.182,0.462,24.138,1.373c5.487,0.628,9.426,5.586,8.797,11.073    C283.351,58.546,279.026,62.309,274.012,62.309z" fill="#000000" data-original="#000000" class=""></path>
	</g>
</g>















</g></svg>