<svg width="38" height="46" viewBox="0 0 38 46" fill="none" xmlns="http://www.w3.org/2000/svg">
<path d="M18 45.18V37.98C7.98 37.46 0 29.14 0 19C0 8.52 8.52 0 19 0C29.48 0 38 8.52 38 19C38 28.9 31.12 38.86 20.86 43.8L18 45.18ZM19 4C10.72 4 4 10.72 4 19C4 27.28 10.72 34 19 34H22V38.6C29.28 34 34 26.44 34 19C34 10.72 27.28 4 19 4ZM17 27H21V31H17V27ZM21 24H17C17 17.5 23 18 23 14C23 11.8 21.2 10 19 10C16.8 10 15 11.8 15 14H11C11 9.58 14.58 6 19 6C23.42 6 27 9.58 27 14C27 19 21 19.5 21 24Z" fill="#FFA000"/>
</svg>
