<svg xmlns="http://www.w3.org/2000/svg" version="1.1" xmlns:xlink="http://www.w3.org/1999/xlink" xmlns:svgjs="http://svgjs.com/svgjs" width="512" height="512" x="0" y="0" viewBox="0 0 256 256" style="enable-background:new 0 0 512 512" xml:space="preserve"><g><g xmlns="http://www.w3.org/2000/svg" fill="#F98080"><path d="m29.039 177.799c-6.441 8.428-10.891 16.425-7.471 19.326 3.675 3.118 12.476-4.731 21.173-14.487-6.711-.992-12.109-2.513-13.702-4.839z" fill="#F98080" data-original="#f98080"></path><path d="m21.608 197.15c1.977 15.518 6.489 42.027 14.124 40.628 7.317-1.34 2.159-28.677-1.892-46.037-5.273 4.751-9.827 7.381-12.232 5.409z" fill="#F98080" data-original="#f98080"></path><path d="m47.194 193.769c-3.39 8.924-5.173 16.966-1.478 18.589 3.971 1.745 9.545-7.286 14.54-17.936-6.042.869-11.09.944-13.062-.653z" fill="#F98080" data-original="#f98080"></path><path d="m45.758 212.369c5.693 12.877 16.397 34.582 22.623 31.413 5.967-3.036-5.507-25.289-13.462-39.222-3.328 5.453-6.58 8.892-9.161 7.809z" fill="#F98080" data-original="#f98080"></path><path d="m226.961 177.799c6.441 8.428 10.891 16.425 7.471 19.326-3.675 3.118-12.476-4.731-21.173-14.487 6.71-.992 12.109-2.513 13.702-4.839z" fill="#F98080" data-original="#f98080"></path><path d="m234.392 197.15c-1.977 15.518-6.489 42.027-14.124 40.628-7.317-1.34-2.159-28.677 1.892-46.037 5.273 4.751 9.827 7.381 12.232 5.409z" fill="#F98080" data-original="#f98080"></path><path d="m208.806 193.769c3.39 8.924 5.173 16.966 1.478 18.589-3.971 1.745-9.545-7.286-14.54-17.936 6.042.869 11.09.944 13.062-.653z" fill="#F98080" data-original="#f98080"></path><path d="m210.242 212.369c-5.693 12.877-16.397 34.582-22.623 31.413-5.967-3.036 5.507-25.289 13.462-39.222 3.328 5.453 6.58 8.892 9.161 7.809z" fill="#F98080" data-original="#f98080"></path><path d="m70.465 184.429c-3.138-.038-6.845-.125-10.738-.303-7.78 2.178-14.111 5.004-13.364 8.347 1.155 5.173 19.108 1.471 32.278-1.991-2.854-1.772-5.603-3.783-8.176-6.053z" fill="#F98080" data-original="#f98080"></path><path d="m60.462 172.524c-13.362-1.422-31.486-2.254-31.897 3.631-.478 6.836 27.082 8.092 41.901 8.274-3.809-3.359-7.227-7.291-10.004-11.905z" fill="#F98080" data-original="#f98080"></path><path d="m196.273 184.126c-3.893.178-7.6.265-10.738.303-2.573 2.27-5.321 4.281-8.176 6.053 13.17 3.461 31.123 7.163 32.278 1.991.747-3.343-5.584-6.169-13.364-8.347z" fill="#F98080" data-original="#f98080"></path><path d="m195.538 172.524c-2.777 4.614-6.195 8.546-10.004 11.905 14.819-.182 42.379-1.437 41.901-8.274-.411-5.885-18.535-5.053-31.897-3.631z" fill="#F98080" data-original="#f98080"></path></g><path xmlns="http://www.w3.org/2000/svg" d="m202.748 59.758c-3.209 8.915-2.712 16.005.016 21.345-10.344-6.597-18.03-16.497-22.334-29.151-.813-2.388 1.725-4.522 3.952-3.338 4.691 2.494 11.861 4.873 20.553 3.244-.48 2.503-1.191 5.133-2.187 7.9z" fill="#FD605B" data-original="#fd605b"></path><path xmlns="http://www.w3.org/2000/svg" d="m199.013 140.485c-8.677-6.542-31.836-20.558-71.013-20.558s-62.336 14.016-71.013 20.558c-2.59 1.953-3.997 5.084-3.76 8.32 4.055 55.162 74.773 55.162 74.773 55.162s70.718 0 74.772-55.161c.238-3.236-1.169-6.368-3.759-8.321z" fill="#FD605B" data-original="#fd605b"></path><path xmlns="http://www.w3.org/2000/svg" d="m53.252 59.758c-7.49-20.805.766-34.061 7.325-40.716 1.987-2.016.506-5.431-2.324-5.322-19.516.747-35.865 9.123-47.191 23.875-10.864 14.15-12.698 41.011 2.19 51.382 15.956 11.113 51.412 2.482 40-29.219z" fill="#F98080" data-original="#f98080"></path><path xmlns="http://www.w3.org/2000/svg" d="m53.252 59.758c3.209 8.915 2.712 16.005-.016 21.345 10.344-6.597 18.03-16.497 22.334-29.151.813-2.388-1.725-4.522-3.952-3.338-4.691 2.494-11.861 4.873-20.553 3.244.48 2.503 1.191 5.133 2.187 7.9z" fill="#FD605B" data-original="#fd605b"></path><path xmlns="http://www.w3.org/2000/svg" d="m13.252 88.977c-1.844-1.285-3.431-2.825-4.777-4.56-3.474 4.273-3.201 10.568.799 14.518 4.253 4.2 11.106 4.157 15.306-.096 1.498-1.517 2.446-3.366 2.866-5.306-5.249-.313-10.302-1.845-14.194-4.556z" fill="#FD605B" data-original="#fd605b"></path><path xmlns="http://www.w3.org/2000/svg" d="m20.595 101.389c-3.809 1.39-8.244.584-11.32-2.454-.523-.516-.978-1.074-1.374-1.661-5.23 15.566-2.657 26.665 1.003 33.688 2.92 5.605 10.248 7.098 15.072 3.015 3.726-3.152 4.533-8.549 1.966-12.7-4.723-7.636-5.443-15.323-5.347-19.888z" fill="#F98080" data-original="#f98080"></path><path xmlns="http://www.w3.org/2000/svg" d="m202.748 59.758c7.49-20.805-.766-34.061-7.325-40.716-1.987-2.016-.506-5.431 2.324-5.322 19.516.747 35.865 9.123 47.191 23.875 10.864 14.15 12.698 41.011-2.19 51.382-15.956 11.113-51.412 2.482-40-29.219z" fill="#F98080" data-original="#f98080"></path><path xmlns="http://www.w3.org/2000/svg" d="m242.748 88.977c1.844-1.285 3.431-2.825 4.777-4.56 3.475 4.273 3.201 10.568-.799 14.519-4.253 4.2-11.106 4.157-15.306-.096-1.498-1.517-2.446-3.366-2.866-5.306 5.249-.314 10.302-1.846 14.194-4.557z" fill="#FD605B" data-original="#fd605b"></path><path xmlns="http://www.w3.org/2000/svg" d="m235.405 101.389c3.809 1.39 8.244.584 11.32-2.454.523-.516.978-1.074 1.374-1.661 5.23 15.566 2.657 26.665-1.003 33.688-2.92 5.605-10.248 7.098-15.072 3.015-3.726-3.152-4.533-8.549-1.966-12.7 4.723-7.636 5.443-15.323 5.347-19.888z" fill="#F98080" data-original="#f98080"></path><path xmlns="http://www.w3.org/2000/svg" d="m196.725 138.837c.846.586 1.616 1.142 2.288 1.649 2.59 1.953 3.997 5.084 3.76 8.32-.033.452-.083.891-.125 1.336 13.068-1.837 28.044-5.73 36.875-13.93-2.584.317-5.299-.374-7.497-2.234-2.818-2.384-3.963-6.052-3.245-9.495-4.225 4.236-13.721 11.269-32.056 14.354z" fill="#F98080" data-original="#f98080"></path><path xmlns="http://www.w3.org/2000/svg" d="m53.228 148.805c-.238-3.236 1.169-6.367 3.76-8.32.672-.507 1.441-1.062 2.288-1.649-18.335-3.085-27.831-10.118-32.055-14.354.719 3.442-.426 7.11-3.245 9.495-2.198 1.86-4.914 2.551-7.497 2.234 8.83 8.199 23.807 12.093 36.875 13.93-.044-.444-.093-.883-.126-1.336z" fill="#F98080" data-original="#f98080"></path><path xmlns="http://www.w3.org/2000/svg" d="m153.021 108.511c-2.899 0-5.6-.818-7.914-2.213l-2.24 14.338c3.952.381 7.706.901 11.255 1.536l2.191-14.024c-1.061.232-2.16.363-3.292.363z" fill="#FD605B" data-original="#fd605b"></path><path xmlns="http://www.w3.org/2000/svg" d="m102.979 108.511c-1.131 0-2.231-.131-3.292-.363l2.191 14.024c3.548-.635 7.303-1.155 11.254-1.536l-2.24-14.338c-2.314 1.396-5.015 2.213-7.913 2.213z" fill="#FD605B" data-original="#fd605b"></path><circle xmlns="http://www.w3.org/2000/svg" cx="153.021" cy="93.147" fill="#F9BD55" r="15.364" data-original="#f9bd55"></circle><circle xmlns="http://www.w3.org/2000/svg" cx="102.979" cy="93.147" fill="#F9BD55" r="15.364" data-original="#f9bd55"></circle><path xmlns="http://www.w3.org/2000/svg" d="m128 206.467c-.741 0-18.349-.08-36.752-7.058-24.77-9.392-38.779-26.826-40.513-50.42-.302-4.105 1.473-8.031 4.748-10.5 8.398-6.333 32.277-21.062 72.518-21.062 40.239 0 64.119 14.729 72.518 21.062 3.274 2.468 5.049 6.394 4.748 10.499-1.733 23.595-15.743 41.029-40.514 50.421-18.403 6.978-36.012 7.058-36.753 7.058zm0-84.039c-38.73 0-61.511 14.024-69.508 20.054-1.912 1.441-2.948 3.737-2.771 6.141 1.601 21.781 14.109 37.28 37.177 46.065 17.557 6.687 34.93 6.779 35.104 6.779.171 0 17.545-.093 35.102-6.779 23.068-8.785 35.576-24.284 37.177-46.065.176-2.403-.86-4.699-2.771-6.141-7.999-6.03-30.781-20.054-69.51-20.054z" fill="#000000" data-original="#000000"></path><path xmlns="http://www.w3.org/2000/svg" d="m23.519 200.343c-1.36 0-2.543-.441-3.569-1.312-5.593-4.744 1.375-15.256 7.103-22.75.487-.638 1.227-1.038 2.052-.981.801.021 1.544.425 1.998 1.087.255.372 2.032 2.305 12.004 3.777.909.135 1.671.757 1.985 1.621s.127 1.83-.484 2.516c-9.686 10.865-16.43 16.042-21.089 16.042zm5.925-18.908c-8.493 11.658-6.284 13.763-6.259 13.784.027.018 2.975 1.453 14.638-10.911-4.196-.884-6.757-1.897-8.379-2.873z" fill="#000000" data-original="#000000"></path><path xmlns="http://www.w3.org/2000/svg" d="m35.158 240.331c-1.262 0-2.503-.426-3.64-1.257-5.188-3.795-9.356-17.794-12.39-41.608-.129-1.017.374-2.009 1.27-2.504.895-.496 2.004-.395 2.795.255.018.014 1.915 1.025 8.974-5.333.657-.592 1.577-.792 2.422-.527.844.265 1.485.955 1.686 1.816 8.953 38.368 4.952 44.473 3.638 46.479-1.172 1.787-2.675 2.393-3.729 2.586-.343.062-.685.093-1.026.093zm-10.616-40.077c2.665 19.251 6.329 32.152 9.928 34.784.469.342.698.301.812.281.05-.01.205-.038.448-.409.932-1.422 3.324-8.339-3.416-38.614-2.487 1.928-5.229 3.594-7.772 3.958z" fill="#000000" data-original="#000000"></path><path xmlns="http://www.w3.org/2000/svg" d="m46.787 215.099c-.702 0-1.393-.151-2.076-.451-6.238-2.742-2.904-13.735.146-21.767.285-.75.912-1.317 1.686-1.526.773-.207 1.602-.034 2.225.472.185.149 2.069 1.425 11.132.121.909-.126 1.817.248 2.365.986.547.738.645 1.718.254 2.55-6.277 13.385-11.235 19.615-15.732 19.615zm1.85-17.996c-4.004 11.421-1.939 12.956-1.915 12.967.026.012 2.79.16 9.294-12.651-3.105.233-5.526.132-7.379-.316z" fill="#000000" data-original="#000000"></path><path xmlns="http://www.w3.org/2000/svg" d="m67.08 246.594c-.681 0-1.38-.125-2.084-.375-5.516-1.964-12.758-13.012-21.524-32.839-.414-.937-.215-2.03.502-2.762.718-.731 1.808-.95 2.752-.555.003.014 1.935-.047 6.06-6.806.46-.754 1.286-1.218 2.17-1.197.884.013 1.696.492 2.134 1.261 17.635 30.886 15.729 37.256 15.104 39.35-.577 1.927-1.774 2.88-2.678 3.34-.764.387-1.585.583-2.436.583zm-17.664-32.182c8.381 18.373 14.372 26.069 17.256 27.096.394.138.521.075.576.046.036-.018.101-.132.156-.316.429-1.436.698-7.879-12.658-31.894-1.562 2.128-3.368 4.082-5.33 5.068z" fill="#000000" data-original="#000000"></path><path xmlns="http://www.w3.org/2000/svg" d="m232.48 200.344c-4.659 0-11.402-5.177-21.087-16.043-.611-.686-.797-1.652-.483-2.516.312-.864 1.075-1.486 1.984-1.621 9.972-1.473 11.749-3.405 12.004-3.777.453-.662 1.195-1.066 1.997-1.087.833-.021 1.565.344 2.052.98 5.728 7.494 12.695 18.006 7.103 22.751-1.027.87-2.209 1.313-3.57 1.313zm-14.302-16.036c11.658 12.359 14.612 10.931 14.638 10.911.024-.021 2.233-2.127-6.259-13.784-1.623.976-4.184 1.989-8.379 2.873z" fill="#000000" data-original="#000000"></path><path xmlns="http://www.w3.org/2000/svg" d="m220.842 240.331c-.341 0-.683-.031-1.024-.094-1.055-.193-2.559-.799-3.729-2.586-5.315-8.11 1.423-36.988 3.637-46.479.201-.861.842-1.552 1.686-1.816.845-.265 1.764-.065 2.422.527 7.063 6.362 8.959 5.345 8.975 5.333.793-.65 1.899-.751 2.795-.255s1.399 1.487 1.27 2.504c-3.034 23.815-7.203 37.814-12.39 41.608-1.139.832-2.38 1.258-3.642 1.258zm2.843-44.035c-6.739 30.274-4.347 37.192-3.415 38.614.243.371.397.399.448.409.114.021.343.062.812-.281 3.599-2.632 7.263-15.532 9.928-34.784-2.544-.364-5.284-2.03-7.773-3.958z" fill="#000000" data-original="#000000"></path><path xmlns="http://www.w3.org/2000/svg" d="m209.213 215.099c-4.498 0-9.455-6.229-15.732-19.615-.39-.832-.292-1.812.255-2.55s1.451-1.116 2.365-.986c9.063 1.304 10.946.028 11.131-.121.622-.507 1.451-.68 2.226-.472.773.209 1.401.776 1.686 1.526 3.051 8.031 6.385 19.024.146 21.767-.684.299-1.375.451-2.077.451zm-9.23-17.681c6.502 12.806 9.267 12.677 9.294 12.651.024-.011 2.09-1.546-1.914-12.967-1.852.45-4.273.552-7.38.316z" fill="#000000" data-original="#000000"></path><path xmlns="http://www.w3.org/2000/svg" d="m188.92 246.594c-.851 0-1.672-.195-2.435-.584-.903-.459-2.102-1.412-2.679-3.34-.626-2.093-2.531-8.463 15.104-39.349.438-.769 1.25-1.247 2.135-1.261.889.002 1.71.443 2.17 1.197 4.144 6.788 6.054 6.838 6.06 6.806.945-.396 2.036-.177 2.752.555.718.731.916 1.825.502 2.762-8.766 19.827-16.008 30.876-21.524 32.839-.704.25-1.404.375-2.085.375zm12.334-37.25c-13.355 24.015-13.087 30.458-12.657 31.894.056.184.12.299.156.316.057.028.184.093.575-.046 2.884-1.026 8.875-8.723 17.257-27.096-1.963-.987-3.769-2.94-5.331-5.068z" fill="#000000" data-original="#000000"></path><path xmlns="http://www.w3.org/2000/svg" d="m52.926 197.525c-4.427 0-5.918-.909-6.666-1.364-1.564-.952-2.134-2.235-2.337-3.144-1.316-5.893 7.395-9.134 15.13-11.299.256-.071.527-.102.788-.09 3.386.154 6.971.255 10.655.3.599.008 1.174.229 1.624.625 2.379 2.099 5.018 4.052 7.841 5.805.849.527 1.302 1.509 1.153 2.496s-.871 1.792-1.837 2.046c-13.756 3.616-21.685 4.625-26.351 4.625zm-4.091-5.652c.61.387 4.656 2.128 23.808-2.459-1.078-.807-2.121-1.64-3.125-2.498-3.272-.048-6.461-.14-9.5-.274-9.43 2.684-10.964 4.807-11.183 5.231z" fill="#000000" data-original="#000000"></path><path xmlns="http://www.w3.org/2000/svg" d="m70.465 186.929c-.01 0-.021 0-.031 0-24.454-.3-38.887-2.66-42.898-7.015-1.337-1.452-1.536-2.94-1.466-3.934.104-1.477.808-2.802 2.038-3.832 1.461-1.225 5.907-4.951 32.619-2.11.778.083 1.474.526 1.877 1.197 2.492 4.14 5.693 7.948 9.515 11.318.784.691 1.055 1.798.679 2.773-.371.967-1.299 1.603-2.333 1.603zm-26.653-12.94c-9.158 0-11.797 1.408-12.493 1.991-.252.211-.259.314-.261.349.428 1.312 7.355 4.692 33.194 5.47-1.966-2.183-3.728-4.493-5.27-6.915-6.406-.65-11.355-.895-15.17-.895z" fill="#000000" data-original="#000000"></path><path xmlns="http://www.w3.org/2000/svg" d="m203.073 197.525c-4.666 0-12.593-1.01-26.35-4.625-.966-.254-1.688-1.059-1.837-2.046-.148-.987.306-1.969 1.154-2.496 2.824-1.754 5.461-3.706 7.839-5.805.449-.396 1.025-.617 1.624-.625 3.71-.045 7.294-.146 10.654-.3.268-.012.531.019.788.09 7.735 2.165 16.446 5.406 15.132 11.299-.204.908-.774 2.191-2.338 3.144-.747.455-2.24 1.364-6.666 1.364zm-19.715-8.111c19.21 4.601 23.223 2.834 23.813 2.455-.193-.374-1.658-2.515-11.189-5.228-3.019.134-6.208.227-9.5.274-1.003.859-2.046 1.692-3.124 2.499z" fill="#000000" data-original="#000000"></path><path xmlns="http://www.w3.org/2000/svg" d="m185.534 186.929c-1.033 0-1.961-.636-2.333-1.602-.376-.976-.104-2.082.68-2.773 3.82-3.369 7.022-7.178 9.516-11.318.403-.671 1.099-1.114 1.877-1.197 26.708-2.841 31.157.886 32.618 2.11 1.23 1.03 1.935 2.355 2.038 3.833.069.992-.129 2.48-1.467 3.933-4.011 4.354-18.443 6.715-42.898 7.015-.01-.001-.021-.001-.031-.001zm11.484-12.045c-1.542 2.422-3.304 4.733-5.271 6.915 25.84-.777 32.768-4.159 33.198-5.493-.006-.011-.014-.114-.265-.325-.986-.827-5.878-3.308-27.662-1.097z" fill="#000000" data-original="#000000"></path><path xmlns="http://www.w3.org/2000/svg" d="m29.42 96.126c-6.376 0-12.699-1.687-17.596-5.098-6.051-4.215-9.964-11.058-11.318-19.793-1.88-12.128 1.485-25.931 8.574-35.163 11.889-15.484 28.86-24.077 49.078-24.85 2.314-.106 4.41 1.222 5.345 3.339.939 2.129.49 4.577-1.145 6.236-6.842 6.94-13.568 19.187-6.754 38.114 6.373 17.701-1.429 27.054-6.647 31.053-5.335 4.091-12.47 6.162-19.537 6.162zm28.961-79.908c-.011 0-.021.001-.032.001-18.684.715-34.35 8.633-45.304 22.898-6.2 8.075-9.253 20.675-7.599 31.353.795 5.126 3.042 12.142 9.234 16.455 8.525 5.938 22.829 5.514 31.234-.929 5.05-3.87 10.014-11.418 4.984-25.391-8.101-22.503 1.471-36.799 7.897-43.317.253-.257.211-.526.131-.708-.104-.24-.288-.362-.545-.362z" fill="#000000" data-original="#000000"></path><path xmlns="http://www.w3.org/2000/svg" d="m53.236 83.604c-.606 0-1.209-.22-1.682-.65-.834-.759-1.058-1.982-.544-2.987 2.67-5.227 2.633-11.74-.11-19.36-.998-2.774-1.769-5.56-2.29-8.276-.156-.812.1-1.648.684-2.234s1.416-.85 2.232-.693c8.12 1.519 14.769-.789 18.919-2.995 1.931-1.024 4.255-.774 5.919.643 1.656 1.409 2.273 3.65 1.573 5.709-4.421 12.994-12.498 23.524-23.357 30.45-.413.264-.879.393-1.344.393zm2.368-24.692c2.054 5.705 2.783 10.956 2.187 15.697 6.99-6.036 12.16-13.9 15.413-23.462.023-.069.059-.173-.08-.291-.153-.129-.269-.067-.333-.035-4.211 2.238-10.627 4.571-18.481 3.979.367 1.364.8 2.739 1.294 4.112z" fill="#000000" data-original="#000000"></path><path xmlns="http://www.w3.org/2000/svg" d="m16.878 104.552c-3.384 0-6.769-1.277-9.361-3.837-4.906-4.846-5.328-12.531-.981-17.876.48-.592 1.225-.911 1.968-.923.763.009 1.479.365 1.947.968 1.224 1.578 2.646 2.938 4.23 4.041 3.384 2.357 7.97 3.817 12.914 4.113.729.043 1.402.402 1.843.984.441.581.606 1.326.452 2.039-.536 2.479-1.757 4.738-3.53 6.534-2.603 2.636-6.042 3.957-9.482 3.957zm-7.927-15.879c-.95 2.911-.231 6.201 2.08 8.484 3.266 3.225 8.545 3.192 11.771-.074.427-.433.803-.908 1.122-1.419-4.567-.719-8.776-2.321-12.1-4.636v-.001c-1.014-.705-1.973-1.493-2.873-2.354z" fill="#000000" data-original="#000000"></path><path xmlns="http://www.w3.org/2000/svg" d="m17.677 138.798c-.794 0-1.594-.077-2.39-.234-3.711-.729-6.846-3.079-8.601-6.446-3.642-6.989-6.798-18.846-1.155-35.639.303-.902 1.092-1.554 2.035-1.682.942-.127 1.875.291 2.408 1.08.314.467.669.896 1.056 1.278 2.274 2.245 5.693 2.984 8.708 1.886.774-.283 1.64-.165 2.312.315s1.062 1.261 1.045 2.086c-.097 4.623.687 11.588 4.974 18.521 3.252 5.26 2.211 11.956-2.478 15.923-2.247 1.901-5.04 2.912-7.914 2.912zm-8.593-36.762c-3.401 13.01-.871 22.192 2.036 27.771 1.048 2.013 2.918 3.416 5.13 3.852 2.184.429 4.409-.151 6.11-1.589 2.783-2.354 3.394-6.34 1.454-9.477-4.031-6.521-5.369-13.051-5.661-18.111-3.203.309-6.443-.56-9.069-2.446z" fill="#000000" data-original="#000000"></path><path xmlns="http://www.w3.org/2000/svg" d="m226.58 96.126c-7.068 0-14.201-2.071-19.537-6.161-5.218-3.999-13.02-13.352-6.647-31.053 6.813-18.928.089-31.174-6.753-38.114-1.636-1.659-2.085-4.107-1.146-6.236.934-2.116 3.024-3.418 5.345-3.339 20.219.772 37.189 9.366 49.078 24.85 7.089 9.232 10.454 23.035 8.574 35.163-1.354 8.734-5.268 15.578-11.318 19.793-4.897 3.41-11.221 5.096-17.596 5.097zm-28.962-79.908c-.257 0-.44.122-.546.362-.08.181-.122.451.131.708 6.426 6.519 15.997 20.814 7.897 43.317-5.03 13.973-.066 21.521 4.983 25.391 8.404 6.443 22.709 6.869 31.234.929 6.192-4.313 8.439-11.329 9.234-16.455 1.655-10.678-1.398-23.277-7.599-31.353-10.953-14.266-26.619-22.184-45.304-22.898-.008 0-.019-.001-.03-.001zm5.13 43.541h.01z" fill="#000000" data-original="#000000"></path><path xmlns="http://www.w3.org/2000/svg" d="m202.763 83.604c-.464 0-.931-.129-1.344-.393-10.858-6.926-18.935-17.457-23.355-30.454-.7-2.059-.083-4.299 1.573-5.708 1.663-1.417 3.986-1.669 5.919-.642 4.15 2.205 10.802 4.514 18.918 2.994.812-.155 1.648.107 2.232.693.583.586.84 1.422.684 2.234-.521 2.716-1.291 5.5-2.289 8.276-2.743 7.62-2.78 14.134-.11 19.36.513 1.005.29 2.229-.545 2.988-.473.432-1.077.652-1.683.652zm-19.701-32.827c-.053 0-.115.02-.186.079-.139.117-.103.222-.079.29 3.252 9.562 8.422 17.427 15.412 23.463-.597-4.74.132-9.992 2.186-15.697.494-1.374.927-2.748 1.295-4.111-7.859.59-14.27-1.741-18.481-3.979-.034-.018-.084-.045-.147-.045zm19.686 8.982h.01z" fill="#000000" data-original="#000000"></path><path xmlns="http://www.w3.org/2000/svg" d="m239.121 104.552c-3.439 0-6.877-1.32-9.479-3.955-1.774-1.797-2.995-4.057-3.531-6.535-.154-.713.011-1.458.451-2.039.441-.582 1.114-.941 1.843-.984 4.944-.296 9.53-1.756 12.914-4.113 1.584-1.104 3.008-2.463 4.23-4.04.467-.604 1.184-.96 1.946-.969.771.002 1.488.332 1.969.923 4.347 5.346 3.925 13.03-.981 17.875-2.592 2.559-5.978 3.837-9.362 3.837zm-7.045-8.888c.32.511.696.986 1.123 1.42 3.225 3.265 8.505 3.297 11.77.073 2.312-2.283 3.03-5.573 2.08-8.484-.899.862-1.859 1.649-2.873 2.355-3.323 2.315-7.532 3.917-12.1 4.636zm10.671-6.687h.01z" fill="#000000" data-original="#000000"></path><path xmlns="http://www.w3.org/2000/svg" d="m238.323 138.798c-2.875 0-5.667-1.011-7.914-2.912-4.688-3.967-5.729-10.663-2.477-15.924 4.286-6.932 5.07-13.897 4.974-18.52-.018-.825.373-1.605 1.044-2.086.672-.479 1.536-.599 2.312-.315 3.017 1.104 6.434.36 8.707-1.885.388-.382.743-.812 1.058-1.279.532-.788 1.469-1.205 2.408-1.08.943.128 1.731.779 2.035 1.682 5.643 16.793 2.486 28.649-1.156 35.639-1.754 3.367-4.889 5.717-8.601 6.446-.796.157-1.597.234-2.39.234zm-.476-34.317c-.293 5.061-1.631 11.591-5.662 18.11-1.939 3.138-1.328 7.123 1.455 9.478 1.699 1.438 3.924 2.017 6.109 1.589 2.212-.436 4.082-1.839 5.131-3.852 2.906-5.578 5.438-14.761 2.036-27.771-2.625 1.887-5.868 2.754-9.069 2.446z" fill="#000000" data-original="#000000"></path><path xmlns="http://www.w3.org/2000/svg" d="m147.4 95.842c-1.377 0-2.496-1.114-2.5-2.492-.014-4.478 3.617-8.133 8.095-8.146h.026c4.466 0 8.106 3.626 8.12 8.095.004 1.381-1.111 2.504-2.492 2.508-.003 0-.006 0-.008 0-1.377 0-2.496-1.114-2.5-2.492-.006-1.717-1.404-3.11-3.121-3.11-.003 0-.007 0-.01 0-1.721.006-3.116 1.41-3.11 3.131.004 1.381-1.111 2.504-2.492 2.508-.003-.002-.005-.002-.008-.002z" fill="#000000" data-original="#000000"></path><path xmlns="http://www.w3.org/2000/svg" d="m153.021 111.011c-9.851 0-17.864-8.014-17.864-17.864s8.014-17.863 17.864-17.863 17.864 8.014 17.864 17.863c.001 9.85-8.013 17.864-17.864 17.864zm0-30.728c-7.094 0-12.864 5.771-12.864 12.863 0 7.094 5.771 12.864 12.864 12.864s12.864-5.771 12.864-12.864c.001-7.092-5.77-12.863-12.864-12.863z" fill="#000000" data-original="#000000"></path><path xmlns="http://www.w3.org/2000/svg" d="m97.358 95.842c-1.377 0-2.496-1.114-2.5-2.492-.014-4.478 3.617-8.133 8.095-8.146h.026c2.159 0 4.191.838 5.723 2.36 1.539 1.528 2.39 3.565 2.397 5.734.004 1.381-1.111 2.504-2.492 2.508-.002 0-.005 0-.008 0-1.377 0-2.496-1.114-2.5-2.492-.002-.834-.33-1.616-.921-2.203s-1.369-.918-2.21-.907c-1.72.006-3.116 1.41-3.11 3.131.004 1.381-1.111 2.504-2.492 2.508-.003-.001-.006-.001-.008-.001z" fill="#000000" data-original="#000000"></path><path xmlns="http://www.w3.org/2000/svg" d="m102.979 111.011c-9.85 0-17.864-8.014-17.864-17.864s8.014-17.863 17.864-17.863c9.851 0 17.864 8.014 17.864 17.863 0 9.85-8.014 17.864-17.864 17.864zm0-30.728c-7.093 0-12.864 5.771-12.864 12.863 0 7.094 5.771 12.864 12.864 12.864s12.864-5.771 12.864-12.864c0-7.092-5.771-12.863-12.864-12.863z" fill="#000000" data-original="#000000"></path><path xmlns="http://www.w3.org/2000/svg" d="m202.647 152.642c-.639 0-1.259-.245-1.727-.692-.554-.528-.834-1.281-.763-2.042l.044-.443c.028-.278.056-.557.077-.841.177-2.404-.859-4.7-2.771-6.142-.648-.488-1.39-1.024-2.206-1.589-.836-.579-1.238-1.606-1.018-2.6.222-.993 1.022-1.753 2.025-1.922 17.859-3.004 26.901-9.844 30.701-13.653.779-.783 1.981-.962 2.957-.435.974.525 1.485 1.628 1.26 2.711-.551 2.639.373 5.35 2.412 7.075 1.561 1.319 3.54 1.909 5.579 1.661 1.076-.129 2.114.445 2.571 1.428.456.983.228 2.148-.566 2.886-7.748 7.193-20.61 12.097-38.229 14.573-.114.017-.23.025-.346.025zm-.239-12.381c1.671 1.944 2.675 4.375 2.859 6.955 11.917-1.938 21.487-5.159 28.145-9.448-1.069-.471-2.079-1.101-3.002-1.881-1.929-1.633-3.268-3.784-3.908-6.141-4.767 3.591-12.448 7.854-24.094 10.515z" fill="#000000" data-original="#000000"></path><path xmlns="http://www.w3.org/2000/svg" d="m53.353 152.642c-.116 0-.232-.008-.348-.024-17.618-2.477-30.48-7.38-38.228-14.573-.794-.737-1.023-1.903-.566-2.886s1.495-1.566 2.571-1.428c2.035.246 4.018-.342 5.579-1.662 2.039-1.725 2.963-4.436 2.412-7.074-.226-1.083.287-2.186 1.26-2.711.974-.527 2.177-.349 2.958.435 3.799 3.81 12.838 10.648 30.7 13.653 1.003.169 1.804.929 2.025 1.922.222.992-.181 2.021-1.017 2.6-.816.564-1.558 1.1-2.206 1.589-1.912 1.441-2.948 3.737-2.772 6.141v.001c.021.284.049.562.077.841l.043.443c.072.761-.209 1.514-.762 2.042-.468.445-1.088.691-1.726.691zm-30.765-14.875c6.657 4.29 16.228 7.511 28.145 9.449.185-2.58 1.189-5.011 2.86-6.955-11.646-2.661-19.328-6.924-24.094-10.515-.641 2.356-1.979 4.508-3.907 6.14-.925.781-1.934 1.411-3.004 1.881z" fill="#000000" data-original="#000000"></path><path xmlns="http://www.w3.org/2000/svg" d="m154.123 124.672c-.146 0-.294-.013-.44-.039-3.557-.636-7.276-1.144-11.056-1.508-.685-.065-1.312-.412-1.735-.956-.422-.544-.601-1.237-.494-1.918l2.24-14.339c.128-.823.658-1.527 1.413-1.88.754-.351 1.635-.305 2.348.125 2.793 1.685 6.066 2.271 9.383 1.549.808-.179 1.646.059 2.246.623.601.565.884 1.391.756 2.205l-2.19 14.023c-.104.665-.471 1.26-1.019 1.649-.428.306-.935.466-1.452.466zm-8.38-6.246c2.131.243 4.236.53 6.301.859l1.293-8.277c-2.158.037-4.266-.314-6.274-1.03z" fill="#000000" data-original="#000000"></path><path xmlns="http://www.w3.org/2000/svg" d="m101.878 124.672c-.517 0-1.025-.16-1.451-.465-.548-.39-.915-.984-1.019-1.649l-2.191-14.023c-.127-.814.156-1.64.756-2.205.601-.565 1.441-.802 2.247-.623 3.314.721 6.588.136 9.382-1.548.714-.431 1.594-.475 2.348-.125.755.353 1.284 1.057 1.413 1.88l2.24 14.338c.106.68-.073 1.374-.495 1.918s-1.05.891-1.735.956c-3.778.364-7.497.872-11.053 1.508-.148.025-.296.038-.442.038zm.786-13.664 1.293 8.277c2.063-.329 4.168-.616 6.299-.859l-1.32-8.447c-2.008.714-4.132 1.073-6.272 1.029z" fill="#000000" data-original="#000000"></path><path xmlns="http://www.w3.org/2000/svg" d="m128 152.24c-9.405 0-18.409-4.013-24.702-11.01-.923-1.026-.839-2.607.187-3.53 1.027-.923 2.608-.839 3.531.187 5.346 5.944 12.995 9.354 20.984 9.354s15.638-3.409 20.984-9.354c.922-1.026 2.504-1.109 3.53-.187s1.11 2.504.187 3.53c-6.293 6.998-15.296 11.01-24.701 11.01z" fill="#000000" data-original="#000000"></path></g></svg>