<svg width="144" height="89" viewBox="0 0 144 89" fill="none" xmlns="http://www.w3.org/2000/svg">
<path d="M9.0708 22.1217C9.0708 12.9586 21.0759 5.5304 35.885 5.5304H107.389C122.198 5.5304 134.204 12.9586 134.204 22.1217V66.365C134.204 75.5281 122.198 82.9563 107.389 82.9563H35.885C21.0759 82.9563 9.0708 75.5281 9.0708 66.365V22.1217Z" fill="#AF6E00"/>
<path d="M9.0708 19.3564C9.0708 11.7205 19.0751 5.5304 31.4159 5.5304H102.92C115.261 5.5304 125.266 11.7205 125.266 19.3564V63.5998C125.266 71.2358 115.261 77.4259 102.92 77.4259H31.4159C19.0751 77.4259 9.0708 71.2358 9.0708 63.5998V19.3564Z" fill="#FFA000"/>
<path fill-rule="evenodd" clip-rule="evenodd" d="M6.83629 22.1217C6.83629 12.195 19.8418 4.14783 35.885 4.14783H107.389C123.433 4.14783 136.438 12.195 136.438 22.1217V66.3651C136.438 76.2918 123.433 84.3389 107.389 84.3389H35.885C19.8418 84.3389 6.83629 76.2918 6.83629 66.3651V22.1217ZM35.885 6.91304C22.31 6.91304 11.3053 13.7222 11.3053 22.1217V66.3651C11.3053 74.7646 22.31 81.5737 35.885 81.5737H107.389C120.964 81.5737 131.969 74.7646 131.969 66.3651V22.1217C131.969 13.7222 120.964 6.91304 107.389 6.91304H35.885Z" fill="black"/>
<path d="M35.885 33.1825C35.885 27.0739 43.8884 22.1217 53.7611 22.1217H89.5133C99.3859 22.1217 107.389 27.0739 107.389 33.1825V55.3042C107.389 61.4129 99.3859 66.3651 89.5133 66.3651H53.7611C43.8884 66.3651 35.885 61.4129 35.885 55.3042V33.1825Z" fill="white"/>
<path fill-rule="evenodd" clip-rule="evenodd" d="M33.6505 33.1826C33.6505 26.3102 42.6541 20.7391 53.7611 20.7391H89.5133C100.62 20.7391 109.624 26.3102 109.624 33.1826V55.3043C109.624 62.1765 100.62 67.7477 89.5133 67.7477H53.7611C42.6541 67.7477 33.6505 62.1765 33.6505 55.3043V33.1826ZM53.7611 23.5043C45.1224 23.5043 38.1195 27.8374 38.1195 33.1826V55.3043C38.1195 60.6494 45.1224 64.9825 53.7611 64.9825H89.5133C98.1519 64.9825 105.155 60.6494 105.155 55.3043V33.1826C105.155 27.8374 98.1519 23.5043 89.5133 23.5043H53.7611Z" fill="black"/>
</svg>
