<svg width="144" height="89" viewBox="0 0 144 89" fill="none" xmlns="http://www.w3.org/2000/svg">
<path d="M9.0708 22.1217C9.0708 12.9586 21.0759 5.5304 35.885 5.5304H107.389C122.198 5.5304 134.204 12.9586 134.204 22.1217V66.365C134.204 75.5281 122.198 82.9563 107.389 82.9563H35.885C21.0759 82.9563 9.0708 75.5281 9.0708 66.365V22.1217Z" fill="#AF6E00"/>
<path d="M9.0708 19.3564C9.0708 11.7205 19.0751 5.5304 31.4159 5.5304H102.92C115.261 5.5304 125.266 11.7205 125.266 19.3564V63.5998C125.266 71.2358 115.261 77.4259 102.92 77.4259H31.4159C19.0751 77.4259 9.0708 71.2358 9.0708 63.5998V19.3564Z" fill="#FFA000"/>
<path fill-rule="evenodd" clip-rule="evenodd" d="M6.83629 22.1217C6.83629 12.195 19.8418 4.14783 35.885 4.14783H107.389C123.433 4.14783 136.438 12.195 136.438 22.1217V66.3651C136.438 76.2918 123.433 84.3389 107.389 84.3389H35.885C19.8418 84.3389 6.83629 76.2918 6.83629 66.3651V22.1217ZM35.885 6.91304C22.31 6.91304 11.3053 13.7222 11.3053 22.1217V66.3651C11.3053 74.7646 22.31 81.5737 35.885 81.5737H107.389C120.964 81.5737 131.969 74.7646 131.969 66.3651V22.1217C131.969 13.7222 120.964 6.91304 107.389 6.91304H35.885Z" fill="black"/>
<path d="M35.885 33.1825C35.885 27.0739 43.8884 22.1217 53.7611 22.1217H89.5133C99.3859 22.1217 107.389 27.0739 107.389 33.1825V55.3042C107.389 61.4129 99.3859 66.3651 89.5133 66.3651H53.7611C43.8884 66.3651 35.885 61.4129 35.885 55.3042V33.1825Z" fill="white"/>
<path fill-rule="evenodd" clip-rule="evenodd" d="M33.6505 33.1826C33.6505 26.3102 42.6541 20.7391 53.7611 20.7391H89.5133C100.62 20.7391 109.624 26.3102 109.624 33.1826V55.3043C109.624 62.1765 100.62 67.7477 89.5133 67.7477H53.7611C42.6541 67.7477 33.6505 62.1765 33.6505 55.3043V33.1826ZM53.7611 23.5043C45.1224 23.5043 38.1195 27.8374 38.1195 33.1826V55.3043C38.1195 60.6494 45.1224 64.9825 53.7611 64.9825H89.5133C98.1519 64.9825 105.155 60.6494 105.155 55.3043V33.1826C105.155 27.8374 98.1519 23.5043 89.5133 23.5043H53.7611Z" fill="black"/>
<path d="M50.1466 47.1231C50.26 46.3978 50.4073 45.6838 50.5886 44.9811C50.7926 44.2558 51.0533 43.5644 51.3706 42.9071C52.028 41.5698 52.7306 40.7651 53.4786 40.4931C54.544 40.0851 55.836 40.5271 57.3546 41.8191C57.7626 42.1591 58.148 42.5218 58.5106 42.9071C58.8733 43.2924 59.2246 43.7004 59.5646 44.1311C59.7686 44.3804 59.8593 44.6184 59.8366 44.8451C59.678 45.8198 59.542 46.6018 59.4286 47.1911C59.3153 47.7578 59.236 48.0978 59.1906 48.2111C59.0773 48.4604 58.8846 48.5511 58.6126 48.4831C54.8726 47.5991 52.0506 48.2791 50.1466 50.5231C49.9653 50.7498 49.9086 50.9764 49.9766 51.2031C50.7926 54.1951 51.5406 57.4364 52.2206 60.9271C53.2406 66.1858 53.3313 68.8604 52.4926 68.9511C52.2206 68.9738 52.0506 68.6791 51.9826 68.0671C51.892 66.9791 51.722 65.8004 51.4726 64.5311C51.2233 63.2618 50.9173 61.9131 50.5546 60.4851C49.1946 55.2718 48.6166 52.0191 48.8206 50.7271C48.934 49.8658 49.104 49.1404 49.3306 48.5511C49.58 47.9391 49.852 47.4631 50.1466 47.1231ZM51.9146 45.8651C52.3226 45.6838 52.776 45.5364 53.2746 45.4231C53.7733 45.2871 54.306 45.1851 54.8726 45.1171C54.034 44.4144 53.4106 44.1311 53.0026 44.2671C52.3906 44.4484 52.028 44.9811 51.9146 45.8651ZM73.0337 51.7811C72.331 55.8158 70.189 58.6378 66.6077 60.2471C66.1543 60.4511 65.7123 60.6098 65.2817 60.7231C64.851 60.8591 64.443 60.9384 64.0577 60.9611C63.2417 61.0064 61.791 60.3151 59.7057 58.8871C59.4563 58.7058 59.377 58.5358 59.4677 58.3771C59.5583 58.2184 59.717 58.1958 59.9437 58.3091C61.825 59.2838 64.1937 58.9551 67.0497 57.3231C69.475 55.9404 71.1297 54.0251 72.0137 51.5771C72.0137 51.4864 71.9797 51.4298 71.9117 51.4071C70.2343 51.3618 69.0217 51.1351 68.2737 50.7271C67.4803 50.2738 67.1857 49.3898 67.3897 48.0751C67.4123 47.9164 67.4463 47.7578 67.4917 47.5991C67.537 47.4178 67.5937 47.2251 67.6617 47.0211C68.1377 45.6158 68.8403 44.6524 69.7697 44.1311C70.699 43.6098 71.481 43.7911 72.1157 44.6751C72.773 45.5818 73.147 46.8058 73.2377 48.3471C73.3283 48.3471 73.4077 48.3471 73.4757 48.3471C73.5663 48.3244 73.657 48.3131 73.7477 48.3131C74.0877 48.3131 74.2917 48.5738 74.3597 49.0951C74.4277 49.5938 74.3937 50.1038 74.2577 50.6251C74.1217 51.1464 73.9517 51.4071 73.7477 51.4071H73.1017C73.1017 51.4751 73.079 51.5998 73.0337 51.7811ZM71.4017 47.9731C70.9483 47.0211 70.4043 46.5564 69.7697 46.5791C69.3843 46.6471 69.0783 46.8284 68.8517 47.1231C68.7383 47.2591 68.761 47.4178 68.9197 47.5991C69.2823 48.0751 70.0643 48.2904 71.2657 48.2451C71.4017 48.2451 71.447 48.1544 71.4017 47.9731ZM82.0004 48.3471C82.4084 48.4604 82.6237 48.5851 82.6464 48.7211C82.6917 48.9024 82.6917 49.1744 82.6464 49.5371C82.4877 50.7838 82.2724 51.4071 82.0004 51.4071C80.7764 51.4071 79.5524 50.7158 78.3284 49.3331C77.2857 50.5798 75.7444 51.2711 73.7044 51.4071C73.4777 51.4071 73.3304 51.2371 73.2624 50.8971L72.9904 49.4691C72.9224 49.2651 72.9677 49.0271 73.1264 48.7551C73.2624 48.5284 73.455 48.3924 73.7044 48.3471C76.1977 48.1431 77.875 47.3951 78.7364 46.1031C78.8497 45.9218 79.0084 45.8311 79.2124 45.8311C79.4164 45.8311 79.5184 45.9331 79.5184 46.1371C79.5184 46.3184 79.541 46.4544 79.5864 46.5451C80.3344 47.5651 81.139 48.1658 82.0004 48.3471ZM79.4164 53.5831C79.4617 53.5151 79.5524 53.4924 79.6884 53.5151C80.1417 53.6738 80.561 53.8664 80.9464 54.0931C81.3544 54.3198 81.7397 54.5918 82.1024 54.9091C82.193 54.9998 82.2044 55.1018 82.1364 55.2151L80.5044 57.7991C80.459 57.8671 80.357 57.8444 80.1984 57.7311C80.1304 57.6631 79.9377 57.5271 79.6204 57.3231C79.303 57.1418 78.8497 56.8811 78.2604 56.5411L76.9684 58.5471C76.9004 58.6604 76.787 58.6491 76.6284 58.5131C76.5377 58.4451 76.2997 58.2864 75.9144 58.0371C75.529 57.7878 74.9737 57.4478 74.2484 57.0171C74.1577 56.9491 74.1464 56.8811 74.2144 56.8131L75.8804 54.3311C75.9257 54.2631 76.0164 54.2404 76.1524 54.2631C76.5377 54.3764 76.9004 54.5238 77.2404 54.7051C77.5804 54.9091 77.8977 55.1358 78.1924 55.3851L79.4164 53.5831ZM82.5492 28.9671C82.8892 28.1511 83.0932 27.6411 83.1612 27.4371C83.2292 27.2331 83.3425 27.1311 83.5012 27.1311C83.6825 27.1311 83.8072 27.2444 83.8752 27.4711C84.2152 28.4911 84.7025 29.3184 85.3372 29.9531C85.5638 30.1571 85.5525 30.4178 85.3032 30.7351L84.5552 31.7891C84.6232 32.4238 84.6912 33.0358 84.7592 33.6251C84.8272 34.2144 84.8952 34.7811 84.9632 35.3251C85.7112 40.9691 85.9718 44.3918 85.7452 45.5931C85.0198 49.1971 83.7732 51.1351 82.0052 51.4071C81.9598 51.4071 81.9145 51.4071 81.8692 51.4071C81.5518 51.3164 81.4272 50.5684 81.4952 49.1631C81.4952 48.6418 81.6652 48.3698 82.0052 48.3471C83.2518 48.2111 84.1132 47.7011 84.5892 46.8171C84.5665 45.9331 84.4758 44.7884 84.3172 43.3831C84.1812 41.9778 83.9885 40.3344 83.7392 38.4531C83.5125 36.5718 83.3198 35.0531 83.1612 33.8971C83.0025 32.7411 82.9005 31.9478 82.8552 31.5171L82.5152 29.5791C82.4925 29.3071 82.5038 29.1031 82.5492 28.9671ZM90.9745 28.6271C91.4505 27.5164 91.7565 27.4938 91.8925 28.5591L92.6745 36.8891C93.5359 44.3918 93.4339 49.1518 92.3685 51.1691C92.2099 51.4411 92.0852 51.5091 91.9945 51.3731C91.9039 51.2598 91.8585 51.0671 91.8585 50.7951C91.9039 48.8911 91.7679 46.7491 91.4505 44.3691C91.4505 44.2784 91.2125 42.1251 90.7365 37.9091L89.9885 31.7551C89.9432 31.3018 89.9885 30.9164 90.1245 30.5991L90.9745 28.6271Z" fill="black"/>
</svg>
