<svg xmlns="http://www.w3.org/2000/svg" version="1.1" xmlns:xlink="http://www.w3.org/1999/xlink" xmlns:svgjs="http://svgjs.com/svgjs" width="512" height="512" x="0" y="0" viewBox="0 0 512.002 512.002" style="enable-background:new 0 0 512 512" xml:space="preserve"><g>
<path xmlns="http://www.w3.org/2000/svg" style="" d="M408.282,380.949l-82.792-29.221H186.51l-82.792,29.221c-19.23,6.787-32.089,24.963-32.089,45.355  V504.5h368.742v-78.196C440.371,405.911,427.511,387.736,408.282,380.949z" fill="#EDEBED" data-original="#edebed"></path>
<rect xmlns="http://www.w3.org/2000/svg" x="215.919" y="352.19" style="" width="80.16" height="152.31" fill="#A5CDFF" data-original="#a5cdff"></rect>
<path xmlns="http://www.w3.org/2000/svg" style="" d="M215.919,396.141c11.465,7.677,25.246,12.165,40.081,12.165c14.835,0,28.615-4.489,40.081-12.165  v-43.948h-80.162V396.141z" fill="#8CB4EB" data-original="#8cb4eb"></path>
<path xmlns="http://www.w3.org/2000/svg" style="" d="M400.177,257.719c-3.97-10.039-7.903-25.995-7.903-49.816v-64.129  C392.274,68.511,331.262,7.5,256,7.5S119.726,68.511,119.726,143.774v64.129c0,23.821-3.933,39.777-7.903,49.816  c-3.324,8.406,1.229,17.891,9.792,20.787c19.083,6.454,51.306,16.163,86.289,21.579h96.194  c34.983-5.415,67.206-15.124,86.288-21.579C398.948,275.61,403.501,266.125,400.177,257.719z" fill="#64505A" data-original="#64505a"></path>
<path xmlns="http://www.w3.org/2000/svg" style="" d="M256,384.258L256,384.258c-26.563,0-48.097-21.534-48.097-48.097v-56.113h96.194v56.113  C304.097,362.724,282.563,384.258,256,384.258z" fill="#E3AA75" data-original="#e3aa75"></path>
<path xmlns="http://www.w3.org/2000/svg" style="" d="M207.903,318.035c14.744,6.465,30.994,10.11,48.097,10.11s33.353-3.645,48.097-10.11v-37.987h-96.194  L207.903,318.035L207.903,318.035z" fill="#D29B6E" data-original="#d29b6e"></path>
<path xmlns="http://www.w3.org/2000/svg" style="" d="M256,304.097L256,304.097c-57.554,0-104.21-46.656-104.21-104.21V79.645h208.419v120.242  C360.21,257.441,313.553,304.097,256,304.097z" fill="#F5B97D" data-original="#f5b97d"></path>
<path xmlns="http://www.w3.org/2000/svg" style="" d="M219.696,123.356c1.69-1.344,3.487-1.626,4.695-1.626c1.184,0,2.961,0.271,4.692,1.564  c21.598,16.119,65.395,43.127,131.126,57.541V79.645H151.79v120.242c0,57.553,46.656,104.21,104.21,104.21  c5.467,0,10.793-0.548,16.032-1.358c-49.921-7.73-88.177-50.764-88.177-102.851V165.24c0-10.998,5.677-21.14,14.946-27.059  C205.973,133.6,213.032,128.656,219.696,123.356z" fill="#E3AA75" data-original="#e3aa75"></path>
<rect xmlns="http://www.w3.org/2000/svg" x="111.709" y="456.4" style="" width="80.16" height="48.1" fill="#A5CDFF" data-original="#a5cdff"></rect>
<path xmlns="http://www.w3.org/2000/svg" style="" d="M219.928,227.914c0,17.709,16.15,32.064,36.072,32.064s36.073-14.355,36.072-32.064H219.928z" fill="#FFFFFF" data-original="#ffffff"></path>
<path xmlns="http://www.w3.org/2000/svg" style="" d="M238.673,99.907c23.381,17.451,74.581,48.611,153.601,59.899v-12.461  c0-76.384-62.507-141.251-138.877-139.821c-74.061,1.388-133.671,61.857-133.671,136.25v5.115  c17.098-6.445,58.412-23.505,89.991-48.618C218.143,93.57,230.046,93.468,238.673,99.907z" fill="#6E5A64" data-original="#6e5a64"></path>
<g xmlns="http://www.w3.org/2000/svg">
	<path style="" d="M339.598,338.236l-35.501-16.745L256,504.5h40.081l44.337-96.063   c2.336-5.062,1.875-10.973-1.217-15.611l-11.055-16.583l15.692-20.923C348.152,349.566,346.101,341.303,339.598,338.236z" fill="#DBD9DC" data-original="#dbd9dc"></path>
	<path style="" d="M172.402,338.236l35.501-16.745L256,504.5h-40.081l-44.337-96.063   c-2.336-5.062-1.875-10.973,1.217-15.611l11.055-16.583l-15.692-20.923C163.848,349.566,165.899,341.303,172.402,338.236z" fill="#DBD9DC" data-original="#dbd9dc"></path>
</g>
<path xmlns="http://www.w3.org/2000/svg" style="" d="M392.109,137.55C388.853,62.921,326.448,6.155,253.397,7.524  c-15.032,0.282-29.417,3.105-42.881,7.877C242.124,56.358,302.45,116.876,392.109,137.55z" fill="#84737B" data-original="#84737b"></path>
<path xmlns="http://www.w3.org/2000/svg" d="M410.778,373.876l-57.831-20.41c0.837-3.064,0.895-6.325,0.106-9.502c-1.371-5.522-5.109-10.083-10.256-12.511  l-31.201-14.717v-10.274c32.328-5.506,61.735-14.27,81.191-20.852c6.079-2.055,11.113-6.575,13.814-12.401  c2.703-5.83,2.897-12.312,0.55-18.247c-3.366-8.511-7.377-23.584-7.377-47.059v-64.129C399.774,64.497,335.277,0,256,0  S112.226,64.497,112.226,143.774v64.129c0,23.477-4.012,38.548-7.377,47.059c-2.348,5.937-2.153,12.417,0.55,18.248  c2.7,5.825,7.735,10.346,13.813,12.4c19.457,6.582,48.863,15.346,81.192,20.852v10.274l-31.2,14.717  c-5.147,2.428-8.886,6.988-10.256,12.511c-0.789,3.177-0.731,6.438,0.106,9.502l-57.83,20.41  c-22.187,7.831-37.093,28.899-37.093,52.428V504.5c0,4.143,3.358,7.5,7.5,7.5s7.5-3.357,7.5-7.5v-78.196  c0-17.18,10.885-32.565,27.085-38.283l60.963-21.516l7.494,9.993l-8.113,12.168c-4.506,6.76-5.19,15.54-1.786,22.914l17.225,37.323  H159.29v-8.532c0-4.143-3.358-7.5-7.5-7.5s-7.5,3.357-7.5,7.5v8.532h-32.581c-4.142,0-7.5,3.357-7.5,7.5V504.5  c0,4.143,3.358,7.5,7.5,7.5h80.162c4.142,0,7.5-3.357,7.5-7.5v-17.958l9.739,21.101c1.266,2.744,3.979,4.359,6.814,4.359  c1.052,0,2.121-0.223,3.138-0.692c3.761-1.735,5.402-6.191,3.667-9.952l-44.337-96.064c-1.234-2.674-0.986-5.856,0.647-8.308  l11.056-16.583c1.764-2.646,1.667-6.116-0.24-8.66l-15.693-20.924c-0.956-1.274-0.822-2.577-0.657-3.241  c0.165-0.663,0.656-1.878,2.097-2.558l27.341-12.896l16.319,62.096c1.053,4.007,5.157,6.403,9.16,5.348  c4.006-1.053,6.4-5.154,5.348-9.16l-0.628-2.388c7.327,2.462,15.051,3.74,22.858,3.74c7.799,0,15.527-1.276,22.857-3.738  L256,474.995l-13.821-52.589c-1.053-4.005-5.153-6.402-9.16-5.348c-4.006,1.053-6.4,5.154-5.348,9.16l21.075,80.189  c0.866,3.296,3.846,5.594,7.254,5.594s6.387-2.298,7.253-5.594l45.804-174.283l27.341,12.896c1.44,0.68,1.932,1.895,2.097,2.558  c0.165,0.664,0.298,1.967-0.658,3.241l-15.692,20.924c-1.908,2.544-2.004,6.015-0.24,8.66l11.055,16.583  c1.634,2.451,1.882,5.634,0.648,8.309l-44.337,96.063c-1.736,3.761-0.094,8.217,3.667,9.952c1.018,0.47,2.086,0.692,3.138,0.692  c2.835,0,5.548-1.616,6.814-4.359l44.337-96.063c3.404-7.375,2.72-16.155-1.786-22.915l-8.112-12.168l7.494-9.992l60.963,21.516  c16.201,5.718,27.085,21.103,27.085,38.283V504.5c0,4.143,3.358,7.5,7.5,7.5s7.5-3.357,7.5-7.5v-78.196  C447.871,402.775,432.964,381.707,410.778,373.876z M184.371,497h-65.162v-33.097h25.081v0.516c0,4.143,3.358,7.5,7.5,7.5  s7.5-3.357,7.5-7.5v-0.516h25.081V497z M392.992,266.901c-0.995,2.146-2.773,3.743-5.01,4.5  c-16.038,5.426-39.01,12.371-64.719,17.614c26.98-20.412,44.446-52.767,44.446-89.129v-36.732c5.644,1.15,11.336,2.19,17.064,3.103  v41.646c0,20.742,2.835,38.431,8.429,52.575C394.024,262.556,393.949,264.836,392.992,266.901z M256,376.758  c-9.735,0-19.299-2.507-27.721-7.245l-12.876-48.992v-16.562c12.589,4.928,26.282,7.638,40.597,7.638s28.007-2.71,40.597-7.638  v16.562l-12.877,48.998C275.302,374.253,265.724,376.758,256,376.758z M256,296.597c-53.326,0-96.709-43.384-96.709-96.71v-32.064  c0-4.143-3.358-7.5-7.5-7.5s-7.5,3.357-7.5,7.5v32.064c0,36.362,17.466,68.717,44.446,89.129  c-25.709-5.244-48.681-12.189-64.72-17.614c-2.236-0.756-4.015-2.354-5.009-4.5c-0.958-2.065-1.032-4.347-0.21-6.424  c5.592-14.142,8.428-31.83,8.428-52.574v-56.426c1.158-0.195,2.259-0.4,2.577-0.491c1.861-0.532,46.021-13.384,84.703-44.775  c5.658-4.593,13.805-4.674,19.81-0.198c14.775,11.013,39.802,26.955,75.128,40.367c3.873,1.473,8.204-0.478,9.674-4.35  s-0.477-8.203-4.35-9.674c-33.707-12.797-57.48-27.93-71.489-38.371c-11.516-8.581-27.234-8.344-38.226,0.579  c-32.013,25.98-69.106,38.747-77.586,41.448C131.494,68.606,187.601,15,256,15c71.006,0,128.774,57.768,128.774,128.774v7.276  c-13.143-2.176-26.089-5-38.586-8.443c-3.99-1.102-8.122,1.245-9.223,5.238c-1.1,3.993,1.245,8.123,5.238,9.223  c3.47,0.956,6.977,1.858,10.506,2.723v40.095C352.709,253.213,309.326,296.597,256,296.597z" fill="#000000" data-original="#000000" style=""></path>
<path xmlns="http://www.w3.org/2000/svg" d="M199.887,167.307h16.032c4.142,0,7.5-3.357,7.5-7.5s-3.358-7.5-7.5-7.5h-16.032c-4.142,0-7.5,3.357-7.5,7.5  S195.745,167.307,199.887,167.307z" fill="#000000" data-original="#000000" style=""></path>
<path xmlns="http://www.w3.org/2000/svg" d="M296.081,167.307h16.032c4.142,0,7.5-3.357,7.5-7.5s-3.358-7.5-7.5-7.5h-16.032c-4.142,0-7.5,3.357-7.5,7.5  S291.938,167.307,296.081,167.307z" fill="#000000" data-original="#000000" style=""></path>
<path xmlns="http://www.w3.org/2000/svg" d="M400.291,452.911H387.75v-12.54c0-4.143-3.358-7.5-7.5-7.5s-7.5,3.357-7.5,7.5v12.54h-12.541c-4.142,0-7.5,3.357-7.5,7.5  s3.358,7.5,7.5,7.5h12.541v12.54c0,4.143,3.358,7.5,7.5,7.5s7.5-3.357,7.5-7.5v-12.54h12.541c4.142,0,7.5-3.357,7.5-7.5  S404.433,452.911,400.291,452.911z" fill="#000000" data-original="#000000" style=""></path>
<path xmlns="http://www.w3.org/2000/svg" d="M215.403,191.871v-8.017c0-4.143-3.358-7.5-7.5-7.5s-7.5,3.357-7.5,7.5v8.017c0,4.143,3.358,7.5,7.5,7.5  S215.403,196.014,215.403,191.871z" fill="#000000" data-original="#000000" style=""></path>
<path xmlns="http://www.w3.org/2000/svg" d="M304.097,176.354c-4.142,0-7.5,3.357-7.5,7.5v8.017c0,4.143,3.358,7.5,7.5,7.5s7.5-3.357,7.5-7.5v-8.017  C311.597,179.712,308.239,176.354,304.097,176.354z" fill="#000000" data-original="#000000" style=""></path>
<path xmlns="http://www.w3.org/2000/svg" d="M212.427,227.915c0,21.816,19.547,39.564,43.573,39.564s43.573-17.748,43.573-39.564c0-4.143-3.358-7.5-7.5-7.5h-72.146  C215.785,220.415,212.427,223.772,212.427,227.915z M283.211,235.415c-3.695,9.889-14.497,17.064-27.211,17.064  s-23.516-7.176-27.211-17.064H283.211z" fill="#000000" data-original="#000000" style=""></path>
<g xmlns="http://www.w3.org/2000/svg">
</g>
<g xmlns="http://www.w3.org/2000/svg">
</g>
<g xmlns="http://www.w3.org/2000/svg">
</g>
<g xmlns="http://www.w3.org/2000/svg">
</g>
<g xmlns="http://www.w3.org/2000/svg">
</g>
<g xmlns="http://www.w3.org/2000/svg">
</g>
<g xmlns="http://www.w3.org/2000/svg">
</g>
<g xmlns="http://www.w3.org/2000/svg">
</g>
<g xmlns="http://www.w3.org/2000/svg">
</g>
<g xmlns="http://www.w3.org/2000/svg">
</g>
<g xmlns="http://www.w3.org/2000/svg">
</g>
<g xmlns="http://www.w3.org/2000/svg">
</g>
<g xmlns="http://www.w3.org/2000/svg">
</g>
<g xmlns="http://www.w3.org/2000/svg">
</g>
<g xmlns="http://www.w3.org/2000/svg">
</g>
</g></svg>