<svg width="80" height="80" viewBox="0 0 80 80" fill="none" xmlns="http://www.w3.org/2000/svg">
<path d="M63.7938 59.523L50.8576 54.9573H29.1421L16.2059 59.523C13.2012 60.5835 11.192 63.4235 11.192 66.6097V78.8278H68.8077V66.6097C68.8077 63.4233 66.7984 60.5835 63.7938 59.523Z" fill="#EDEBED"/>
<path d="M46.2622 55.0295H33.7372V78.8279H46.2622V55.0295Z" fill="#A5CDFF"/>
<path d="M33.7372 61.8968C35.5286 63.0964 37.6819 63.7976 39.9998 63.7976C42.3178 63.7976 44.4709 63.0962 46.2625 61.8968V55.03H33.7372V61.8968Z" fill="#8CB4EB"/>
<path d="M62.5276 40.2684C61.9073 38.6999 61.2927 36.2067 61.2927 32.4847V22.4646C61.2927 10.7048 51.7596 1.17188 40 1.17188C28.2404 1.17188 18.7073 10.7048 18.7073 22.4646V32.4847C18.7073 36.2067 18.0927 38.6999 17.4724 40.2684C16.9531 41.5819 17.6645 43.0639 19.0024 43.5164C21.9841 44.5248 27.019 46.0419 32.485 46.8881H47.5153C52.9813 46.042 58.0162 44.525 60.9977 43.5164C62.3355 43.0639 63.0469 41.5819 62.5276 40.2684Z" fill="#64505A"/>
<path d="M39.9999 60.0401C35.8494 60.0401 32.4847 56.6754 32.4847 52.525V43.7573H47.515V52.525C47.515 56.6754 44.1504 60.0401 39.9999 60.0401Z" fill="#E3AA75"/>
<path d="M32.4847 49.6928C34.7885 50.703 37.3276 51.2725 39.9999 51.2725C42.6722 51.2725 45.2113 50.703 47.515 49.6928V43.7573H32.4847V49.6928Z" fill="#D29B6E"/>
<path d="M40 47.5151C31.0072 47.5151 23.7172 40.2251 23.7172 31.2323V12.4445H56.2826V31.2323C56.2828 40.2251 48.9926 47.5151 40 47.5151Z" fill="#F5B97D"/>
<path d="M34.3275 19.2744C34.5915 19.0644 34.8723 19.0203 35.0611 19.0203C35.2461 19.0203 35.5237 19.0626 35.7942 19.2647C39.1689 21.7833 46.0122 26.0033 56.2826 28.2555V12.4445H23.7172V31.2323C23.7172 40.225 31.0072 47.5151 40 47.5151C40.8542 47.5151 41.6864 47.4295 42.505 47.303C34.7048 46.0951 28.7273 39.3711 28.7273 31.2325V25.8187C28.7273 24.1003 29.6144 22.5156 31.0626 21.5908C32.1833 20.875 33.2862 20.1025 34.3275 19.2744Z" fill="#E3AA75"/>
<path d="M29.9796 71.3123H17.4546V78.8279H29.9796V71.3123Z" fill="#A5CDFF"/>
<path d="M34.3638 35.6116C34.3638 38.3786 36.8872 40.6216 40 40.6216C43.1128 40.6216 45.6364 38.3786 45.6363 35.6116H34.3638Z" fill="white"/>
<path d="M37.2927 15.6104C40.9459 18.3371 48.9459 23.2059 61.2927 24.9696V23.0226C61.2927 11.0876 51.5261 0.952186 39.5933 1.17562C28.0213 1.3925 18.7073 10.8407 18.7073 22.4646V23.2638C21.3788 22.2568 27.8341 19.5912 32.7683 15.6673C34.0849 14.6203 35.9447 14.6043 37.2927 15.6104Z" fill="#6E5A64"/>
<path d="M53.0622 52.8492L47.5152 50.2328L40 78.8279H46.2627L53.1903 63.8181C53.5553 63.0272 53.4833 62.1036 53.0002 61.3789L51.2728 58.7878L53.7247 55.5186C54.3988 54.6195 54.0783 53.3284 53.0622 52.8492Z" fill="#DBD9DC"/>
<path d="M26.9378 52.8492L32.4848 50.2328L40 78.8279H33.7373L26.8097 63.8181C26.4447 63.0272 26.5167 62.1036 26.9998 61.3789L28.7272 58.7878L26.2753 55.5186C25.6013 54.6195 25.9217 53.3284 26.9378 52.8492Z" fill="#DBD9DC"/>
<path d="M61.2671 21.4922C60.7583 9.83144 51.0076 0.961757 39.5933 1.17566C37.2446 1.21973 34.9969 1.66082 32.8932 2.40644C37.8319 8.80597 47.2579 18.2619 61.2671 21.4922Z" fill="#84737B"/>
<path d="M64.1839 58.4179L55.1478 55.2288C55.2786 54.7501 55.2877 54.2406 55.1644 53.7442C54.9502 52.8814 54.3661 52.1687 53.5619 51.7893L48.6868 49.4898V47.8845C53.738 47.0242 58.3328 45.6548 61.3728 44.6264C62.3226 44.3053 63.1092 43.5991 63.5312 42.6887C63.9536 41.7778 63.9839 40.765 63.6172 39.8377C63.0912 38.5078 62.4645 36.1527 62.4645 32.4847V22.4646C62.4645 10.0776 52.3869 0 39.9999 0C27.6129 0 17.5353 10.0776 17.5353 22.4646V32.4847C17.5353 36.153 16.9085 38.5078 16.3827 39.8377C16.0158 40.7653 16.0463 41.7778 16.4686 42.6889C16.8905 43.599 17.6772 44.3055 18.6269 44.6264C21.667 45.6548 26.2617 47.0242 31.3131 47.8845V49.4898L26.4381 51.7893C25.6339 52.1687 25.0497 52.8812 24.8356 53.7442C24.7123 54.2406 24.7214 54.7501 24.8522 55.2288L15.8163 58.4179C12.3496 59.6415 10.0205 62.9333 10.0205 66.6097V78.8278C10.0205 79.4752 10.5452 79.9997 11.1924 79.9997C11.8396 79.9997 12.3642 79.4752 12.3642 78.8278V66.6097C12.3642 63.9254 14.065 61.5215 16.5963 60.628L26.1217 57.2662L27.2926 58.8276L26.025 60.7288C25.3209 61.7851 25.214 63.1569 25.7459 64.3091L28.4373 70.1408H24.889V68.8077C24.889 68.1604 24.3644 67.6358 23.7172 67.6358C23.07 67.6358 22.5453 68.1604 22.5453 68.8077V70.1408H17.4545C16.8074 70.1408 16.2827 70.6654 16.2827 71.3127V78.8278C16.2827 79.4752 16.8074 79.9997 17.4545 79.9997H29.9798C30.627 79.9997 31.1517 79.4752 31.1517 78.8278V76.0219L32.6734 79.3189C32.8712 79.7477 33.2951 80 33.7381 80C33.9024 80 34.0695 79.9652 34.2284 79.8919C34.816 79.6208 35.0724 78.9245 34.8013 78.3369L27.8737 63.3269C27.6809 62.9091 27.7197 62.4119 27.9748 62.0288L29.7023 59.4377C29.9779 59.0243 29.9628 58.4821 29.6648 58.0846L27.2128 54.8153C27.0634 54.6162 27.0843 54.4126 27.1101 54.3088C27.1359 54.2053 27.2126 54.0154 27.4378 53.9092L31.7098 51.8942L34.2596 61.5966C34.4242 62.2227 35.0654 62.5971 35.6909 62.4323C36.3168 62.2677 36.6909 61.6269 36.5265 61.001L36.4284 60.6279C37.5732 61.0126 38.7801 61.2123 39.9999 61.2123C41.2185 61.2123 42.426 61.0129 43.5713 60.6282L39.9999 74.2177L37.8404 66.0007C37.6759 65.3749 37.0352 65.0004 36.4092 65.1651C35.7832 65.3296 35.4092 65.9704 35.5735 66.5963L38.8665 79.1258C39.0018 79.6408 39.4674 79.9998 39.9999 79.9998C40.5324 79.9998 40.9979 79.6408 41.1332 79.1258L48.29 51.8942L52.5621 53.9092C52.7871 54.0154 52.8639 54.2053 52.8897 54.3088C52.9155 54.4126 52.9363 54.6162 52.7869 54.8153L50.335 58.0846C50.0369 58.4821 50.0219 59.0245 50.2975 59.4377L52.0249 62.0288C52.2802 62.4118 52.3189 62.9091 52.1261 63.3271L45.1985 78.3369C44.9272 78.9245 45.1838 79.6208 45.7715 79.8919C45.9305 79.9653 46.0974 80 46.2618 80C46.7047 80 47.1286 79.7475 47.3265 79.3189L54.2541 64.3091C54.786 63.1568 54.6791 61.7849 53.975 60.7287L52.7075 58.8274L53.8785 57.2662L63.4039 60.628C65.9353 61.5215 67.6359 63.9254 67.6359 66.6097V78.8278C67.6359 79.4752 68.1606 79.9997 68.8078 79.9997C69.455 79.9997 69.9796 79.4752 69.9796 78.8278V66.6097C69.9796 62.9333 67.6504 59.6415 64.1839 58.4179ZM28.8079 77.6559H18.6264V72.4846H22.5453V72.5652C22.5453 73.2125 23.07 73.7371 23.7172 73.7371C24.3644 73.7371 24.889 73.2125 24.889 72.5652V72.4846H28.8079V77.6559ZM61.4048 41.7031C61.2494 42.0384 60.9716 42.288 60.622 42.4062C58.1161 43.2541 54.5267 44.3392 50.5097 45.1584C54.7253 41.9691 57.4544 36.9136 57.4544 31.2321V25.4927C58.3363 25.6724 59.2256 25.8349 60.1206 25.9776V32.4847C60.1206 35.7256 60.5636 38.4895 61.4376 40.6995C61.5661 41.0242 61.5544 41.3805 61.4048 41.7031ZM39.9999 58.8682C38.4788 58.8682 36.9845 58.4765 35.6685 57.7362L33.6567 50.0812V47.4934C35.6237 48.2634 37.7632 48.6868 39.9999 48.6868C42.2366 48.6868 44.376 48.2634 46.3432 47.4934V50.0812L44.3312 57.7371C43.0159 58.4768 41.5193 58.8682 39.9999 58.8682ZM39.9999 46.3431C31.6678 46.3431 24.8892 39.5644 24.8892 31.2322V26.2222C24.8892 25.5749 24.3645 25.0504 23.7173 25.0504C23.0701 25.0504 22.5455 25.5749 22.5455 26.2222V31.2322C22.5455 36.9138 25.2745 41.9692 29.4901 45.1586C25.4731 44.3392 21.8837 43.2541 19.3777 42.4064C19.0283 42.2883 18.7503 42.0386 18.595 41.7033C18.4453 41.3806 18.4338 41.0241 18.5622 40.6995C19.4359 38.4898 19.8791 35.7261 19.8791 32.4849V23.6683C20.06 23.6379 20.232 23.6058 20.2817 23.5916C20.5725 23.5085 27.4725 21.5004 33.5165 16.5956C34.4006 15.8779 35.6735 15.8653 36.6118 16.5646C38.9204 18.2854 42.8308 20.7763 48.3505 22.8719C48.9557 23.1021 49.6324 22.7973 49.8621 22.1923C50.0918 21.5873 49.7875 20.9105 49.1824 20.6807C43.9157 18.6812 40.2012 16.3167 38.0123 14.6853C36.2129 13.3445 33.757 13.3815 32.0395 14.7757C27.0375 18.8351 21.2417 20.8299 19.9167 21.2519C20.5459 10.7196 29.3126 2.34374 39.9999 2.34374C51.0946 2.34374 60.1208 11.37 60.1208 22.4646V23.6015C58.0672 23.2615 56.0444 22.8202 54.0917 22.2823C53.4683 22.1101 52.8227 22.4768 52.6507 23.1007C52.4788 23.7246 52.8452 24.3699 53.4691 24.5418C54.0113 24.6912 54.5592 24.8321 55.1106 24.9672V31.2321C55.1106 39.5644 48.3321 46.3431 39.9999 46.3431Z" fill="black"/>
<path d="M31.2324 26.1417H33.7374C34.3846 26.1417 34.9093 25.6172 34.9093 24.9698C34.9093 24.3225 34.3846 23.798 33.7374 23.798H31.2324C30.5852 23.798 30.0605 24.3225 30.0605 24.9698C30.0605 25.6172 30.5852 26.1417 31.2324 26.1417Z" fill="black"/>
<path d="M46.2626 26.1416H48.7676C49.4148 26.1416 49.9394 25.6171 49.9394 24.9697C49.9394 24.3224 49.4148 23.7979 48.7676 23.7979H46.2626C45.6154 23.7979 45.0907 24.3224 45.0907 24.9697C45.0907 25.6171 45.6152 26.1416 46.2626 26.1416Z" fill="black"/>
<path d="M62.5453 70.7671H60.5857V68.8077C60.5857 68.1604 60.0611 67.6359 59.4139 67.6359C58.7667 67.6359 58.242 68.1604 58.242 68.8077V70.7671H56.2825C55.6353 70.7671 55.1106 71.2916 55.1106 71.939C55.1106 72.5863 55.6353 73.1109 56.2825 73.1109H58.242V75.0702C58.242 75.7176 58.7667 76.2421 59.4139 76.2421C60.0611 76.2421 60.5857 75.7176 60.5857 75.0702V73.1109H62.5453C63.1925 73.1109 63.7172 72.5863 63.7172 71.939C63.7172 71.2916 63.1925 70.7671 62.5453 70.7671Z" fill="black"/>
<path d="M33.6567 29.9798V28.7272C33.6567 28.0798 33.1321 27.5553 32.4849 27.5553C31.8377 27.5553 31.313 28.0798 31.313 28.7272V29.9798C31.313 30.6272 31.8377 31.1517 32.4849 31.1517C33.1321 31.1517 33.6567 30.6272 33.6567 29.9798Z" fill="black"/>
<path d="M47.515 27.5552C46.8678 27.5552 46.3431 28.0797 46.3431 28.7271V29.9797C46.3431 30.6271 46.8678 31.1516 47.515 31.1516C48.1622 31.1516 48.6869 30.6271 48.6869 29.9797V28.7271C48.6869 28.0799 48.1622 27.5552 47.515 27.5552Z" fill="black"/>
<path d="M33.1918 35.6117C33.1918 39.0204 36.246 41.7936 40 41.7936C43.7541 41.7936 46.8083 39.0204 46.8083 35.6117C46.8083 34.9644 46.2836 34.4398 45.6364 34.4398H34.3636C33.7165 34.4398 33.1918 34.9644 33.1918 35.6117ZM44.2518 36.7836C43.6744 38.3287 41.9866 39.4498 40 39.4498C38.0135 39.4498 36.3257 38.3286 35.7483 36.7836H44.2518Z" fill="black"/>
</svg>
