<svg width="41" height="41" viewBox="0 0 41 41" fill="none" xmlns="http://www.w3.org/2000/svg">
<path d="M40.2534 20.5C40.2565 23.1267 39.7337 25.7275 38.7159 28.1491C38.1358 29.5323 37.3974 30.8436 36.5154 32.0569C35.9436 32.8572 35.3096 33.6113 34.6192 34.3119C31.8368 37.1556 28.2609 39.0934 24.3593 39.8718C20.4577 40.6502 16.412 40.2329 12.7514 38.6745L12.745 38.6713C9.18266 37.1539 6.1455 34.6219 4.01189 31.3908C1.87827 28.1596 0.742515 24.3721 0.746102 20.5C0.746041 19.3838 0.839256 18.2695 1.02477 17.1687C1.55171 14.1426 2.77289 11.2797 4.59246 8.80486C6.41203 6.33005 8.78045 4.31066 11.5118 2.90523C14.2939 1.48223 17.3749 0.742185 20.4998 0.746325C22.5502 0.744524 24.5883 1.06224 26.5409 1.68804C28.0121 2.15942 29.4218 2.8046 30.7402 3.60992C32.7019 4.8017 34.4424 6.32434 35.8844 8.11031C37.6448 10.2885 38.9193 12.8178 39.6224 15.5287V15.5352C39.9957 16.9631 40.2052 18.4289 40.247 19.9042C40.2534 20.1028 40.2534 20.3014 40.2534 20.5Z" fill="#E59206"/>
<path d="M26.5407 1.68821C25.9513 2.58188 24.2024 2.65235 23.0461 3.4211C19.6123 5.71134 15.0991 3.83431 14.4585 1.68821C18.388 0.432584 22.6112 0.432584 26.5407 1.68821Z" fill="#FFA000"/>
<path d="M20.0354 12.2103C19.5902 12.8253 15.3909 13.2417 13.1615 14.7856C10.7272 16.4705 11.0058 18.7575 9.25053 19.475C8.29279 19.869 5.75271 19.7921 5.65021 18.213C5.54771 16.6338 4.89428 16.1405 4.03584 16.0028C3.1774 15.8651 1.8417 16.3712 1.02811 17.1752L1.0249 17.1687C1.47855 14.5237 2.46628 11.9988 3.92786 9.74807C5.38943 7.49733 7.29421 5.56793 9.526 4.07758C8.22553 7.94054 11.9956 9.81117 13.9847 8.88547C15.9739 7.95976 16.3647 9.55492 17.2231 9.79515C18.0815 10.0354 19.3692 9.25703 20.0354 9.43961C20.7081 9.62539 20.4839 11.5921 20.0354 12.2103Z" fill="#FFA000"/>
<path d="M38.1718 11.6626C35.353 13.5556 33.492 13.8087 30.5323 15.2597C29.7508 15.6441 25.0198 16.7652 23.4951 16.1534C22.9121 15.9195 21.7334 15.3846 22.2619 13.9656C22.6078 13.0271 24.6834 12.8157 25.6316 12.4249C26.7975 11.9444 27.1755 8.83742 30.8398 9.69906C33.098 10.2276 34.9655 8.77335 35.8848 8.11031C36.7726 9.20875 37.5393 10.3997 38.1718 11.6626Z" fill="#FFA000"/>
<path d="M40.2536 20.5C40.2567 23.1267 39.7339 25.7275 38.7161 28.1491C38.3889 28.1391 38.0679 28.057 37.7761 27.9086C37.4843 27.7602 37.2289 27.5492 37.0281 27.2906C36.2497 26.2816 36.5156 24.2028 37.0633 22.9696C37.611 21.7364 35.4169 18.2034 35.356 17.0278C35.2535 15.0355 36.9256 15.0483 39.6226 15.5288V15.5352C39.9958 16.9631 40.2054 18.4289 40.2472 19.9042C40.2536 20.1028 40.2536 20.3014 40.2536 20.5Z" fill="#FFA000"/>
<path d="M36.5154 32.0569C35.9436 32.8573 35.3095 33.6113 34.6191 34.3119C33.6678 34.2863 32.1719 34.5745 30.7113 33.8987C29.2507 33.2228 26.2013 33.2388 25.1026 34.3375C24.004 35.4362 23.3473 36.7559 21.4254 36.5829C19.5036 36.4099 18.4081 35.7949 16.6592 37.4061C14.9103 39.0173 14.6957 39.3856 12.7514 38.6745L12.745 38.6713C10.0829 37.5328 7.70296 35.824 5.77309 33.6656C3.84323 31.5071 2.41041 28.9516 1.57568 26.1791C2.03373 25.1285 2.43092 24.5904 3.45592 24.6673C5.08631 24.7858 4.88771 26.4162 5.94154 27.7775C6.79678 28.8858 7.76732 29.8627 9.62193 29.8627C11.121 29.8627 12.7033 23.6359 14.7053 25.6122C18.0301 28.9018 20.0545 27.9088 21.2204 28.1491C22.3864 28.3893 24.7855 29.6898 25.6792 30.4777C26.5729 31.2657 26.5697 32.3323 28.8663 31.2337C31.163 30.135 34.9394 28.4373 36.5154 32.0569Z" fill="#FFA000"/>
<path d="M27.6799 23.1323C25.5877 26.0007 23.3756 22.9677 24.1761 21.2928C24.2749 21.113 24.4087 20.9549 24.5696 20.8276C24.7305 20.7004 24.9153 20.6067 25.113 20.5519C25.3106 20.4972 25.5173 20.4825 25.7207 20.5089C25.9242 20.5352 26.1203 20.602 26.2975 20.7053C27.4224 21.3607 28.2274 22.3818 27.6799 23.1323Z" fill="#FFA000"/>
<path d="M30.5626 19.0176C30.7782 17.8862 32.7231 17.5762 33.006 19.0176C33.2888 20.459 32.2472 20.7127 31.2571 20.3517C30.992 20.2613 30.7719 20.0722 30.6426 19.8238C30.5132 19.5753 30.4846 19.2866 30.5626 19.0176Z" fill="#FFA000"/>
<path d="M30.2589 25.4136C30.4264 24.5334 31.9399 24.2925 32.1599 25.4136C32.38 26.5347 31.5696 26.7323 30.7993 26.4517C30.5931 26.3812 30.422 26.234 30.3214 26.0407C30.2208 25.8475 30.1984 25.6229 30.2589 25.4136Z" fill="#FFA000"/>
</svg>
