<svg width="116" height="116" viewBox="0 0 116 116" fill="none" xmlns="http://www.w3.org/2000/svg">
<g clip-path="url(#clip0_230_478)">
<path d="M112.602 116H3.39844C1.52159 116 0 114.479 0 112.602V48.7111C0 47.7002 0.449953 46.7416 1.2282 46.0959L55.8298 0.783414C57.0883 -0.260812 58.9119 -0.260812 60.1702 0.783414L114.772 46.0959C115.55 46.7416 116 47.7002 116 48.7111V112.602C116 114.479 114.478 116 112.602 116Z" fill="#FFCD14"/>
<path d="M114.772 46.0957L60.1702 0.783227C59.5411 0.261 58.7705 0 58 0V116H112.602C114.478 116 116 114.478 116 112.602V48.7109C116 47.7 115.55 46.7414 114.772 46.0957Z" fill="#FFB400"/>
<path d="M96.5156 86.0938H19.4844C17.6075 86.0938 16.0859 84.5722 16.0859 82.6953V16.9922C16.0859 15.1153 17.6075 13.5938 19.4844 13.5938H96.5156C98.3925 13.5938 99.9141 15.1153 99.9141 16.9922V82.6953C99.9141 84.5722 98.3925 86.0938 96.5156 86.0938Z" fill="#DCF5FA"/>
<path d="M96.5156 13.5938H58V86.0938H96.5156C98.3925 86.0938 99.9141 84.5722 99.9141 82.6953V16.9922C99.9141 15.1153 98.3925 13.5938 96.5156 13.5938Z" fill="#BEDCE6"/>
<path d="M78.7574 41.4336C78.7511 41.41 78.7443 41.3864 78.7373 41.3631C77.0584 35.801 73.3027 31.2464 68.1613 28.5388C63.0211 25.8316 57.139 25.3123 51.5985 27.0756C46.3483 28.7468 41.9807 32.3498 39.3 37.2206C36.6181 42.0929 35.9131 47.7103 37.3141 53.0381C38.5276 57.6525 41.148 61.6334 44.8922 64.5504C48.4968 67.3589 52.9871 68.9747 57.5353 69.1005C57.5568 69.1012 57.5779 69.1014 57.599 69.1014C58.8213 69.1014 59.8286 68.1279 59.8626 66.8983C59.897 65.6474 58.9112 64.6055 57.6604 64.571C50.1707 64.364 43.606 59.1476 41.6961 51.8856C39.3963 43.1396 44.3494 34.1383 52.9726 31.3932C57.3475 30.0003 61.9918 30.4106 66.0495 32.5478C70.0975 34.6797 73.058 38.2622 74.3886 42.6371C75.231 45.8228 74.9543 48.7826 73.4656 52.5256C73.0571 53.5526 71.7911 55.9413 68.8625 55.9413C68.3108 55.9413 67.8851 55.596 67.6801 55.3903C67.1919 54.8993 66.9023 54.1764 66.9059 53.4557L66.934 47.781C66.9386 47.6258 66.9433 47.4708 66.9433 47.314C66.9433 47.2157 66.9395 47.1192 66.9379 47.0217L66.9898 36.5627C66.9959 35.3116 65.9865 34.2921 64.7355 34.286C64.7314 34.286 64.728 34.286 64.7239 34.286C63.478 34.286 62.4646 35.2931 62.4585 36.5405L62.4547 37.3215C60.9743 36.2555 59.1987 35.6558 57.234 35.6558C52.1594 35.6558 46.9102 40.0386 46.9102 47.3731C46.9102 54.0599 51.4496 59.4999 57.0292 59.4999C59.3936 59.4999 61.5384 58.5291 63.2247 56.8906C63.5533 57.5127 63.9708 58.0864 64.4686 58.5864C65.6789 59.8028 67.2394 60.4725 68.863 60.4725C73.5222 60.4725 76.4707 57.2322 77.6765 54.2001C79.5338 49.5298 79.8673 45.5921 78.7574 41.4336ZM57.0289 54.9691C54.3417 54.9691 51.4412 52.0653 51.4412 47.3736C51.4412 42.8754 54.3865 40.1875 57.2338 40.1875C60.1997 40.1875 62.2945 42.9608 62.4069 46.9742L62.403 47.7492C62.2437 51.7685 59.8945 54.9691 57.0289 54.9691Z" fill="#696969"/>
<path d="M59.8628 66.8985C59.8941 65.7637 59.0846 64.8035 58 64.6089V69.0642C59.034 68.8787 59.8324 67.9903 59.8628 66.8985Z" fill="#555555"/>
<path d="M78.7372 41.3632C77.0584 35.8011 73.3027 31.2465 68.1613 28.5388C64.9734 26.8598 61.5001 26.0233 57.9998 26.0501V30.5838C60.7727 30.558 63.5247 31.2184 66.0495 32.5481C70.0975 34.6801 73.058 38.2625 74.3886 42.6374C75.231 45.8231 74.9543 48.7829 73.4656 52.5259C73.0571 53.5529 71.7911 55.9416 68.8625 55.9416C68.3108 55.9416 67.8851 55.5963 67.6801 55.3906C67.1919 54.8996 66.9023 54.1767 66.9059 53.456L66.934 47.7812C66.9386 47.6261 66.9433 47.4711 66.9433 47.3143C66.9433 47.216 66.9395 47.1195 66.9379 47.022L66.9898 36.563C66.9959 35.3119 65.9865 34.2924 64.7355 34.2863C64.7314 34.2863 64.728 34.2863 64.7239 34.2863C63.478 34.2863 62.4646 35.2934 62.4585 36.5408L62.4547 37.3218C61.1694 36.3963 59.6611 35.8228 58 35.6878V40.2528C60.5547 40.6896 62.3044 43.3164 62.4068 46.9742L62.403 47.7493C62.2623 51.3034 60.4086 54.2156 58 54.8425V59.4433C59.9797 59.2163 61.7725 58.3024 63.2245 56.8913C63.553 57.5135 63.9706 58.0871 64.4683 58.5871C65.6786 59.8036 67.2392 60.4733 68.8627 60.4733C73.522 60.4733 76.4705 57.233 77.6762 54.2009C79.5338 49.5301 79.8673 45.5924 78.7574 41.4339C78.7511 41.4101 78.7445 41.3867 78.7372 41.3632Z" fill="#555555"/>
<path d="M112.602 116H3.39844C1.52159 116 0 114.478 0 112.602V48.711C0 47.4767 0.669266 46.3395 1.74816 45.7401C2.82705 45.1408 4.14609 45.1734 5.19417 45.8257L58 78.6924L110.806 45.8257C111.853 45.1734 113.172 45.1408 114.252 45.7401C115.331 46.3395 116 47.4767 116 48.711V112.602C116 114.478 114.478 116 112.602 116Z" fill="#FFF037"/>
<path d="M114.252 45.7401C113.172 45.1408 111.853 45.1734 110.806 45.8257L58 78.6924V116H112.602C114.478 116 116 114.478 116 112.602V48.711C116 47.4767 115.331 46.3395 114.252 45.7401Z" fill="#FFCD14"/>
</g>
<defs>
<clipPath id="clip0_230_478">
<rect width="116" height="116" fill="white"/>
</clipPath>
</defs>
</svg>
