<svg xmlns="http://www.w3.org/2000/svg" version="1.1" xmlns:xlink="http://www.w3.org/1999/xlink" xmlns:svgjs="http://svgjs.com/svgjs" width="512" height="512" x="0" y="0" viewBox="0 0 512 512" style="enable-background:new 0 0 512 512" xml:space="preserve"><g><g xmlns="http://www.w3.org/2000/svg"><g><path d="m497 512h-482c-8.284 0-15-6.716-15-15v-282c0-4.462 1.986-8.693 5.421-11.543l241-200c5.555-4.609 13.604-4.609 19.158 0l241 200c3.435 2.85 5.421 7.081 5.421 11.543v282c0 8.284-6.716 15-15 15z" fill="#FFCD14" data-original="#ffcd14" style=""></path><path d="m506.579 203.457-241-200c-2.777-2.305-6.178-3.457-9.579-3.457v512h241c8.284 0 15-6.716 15-15v-282c0-4.462-1.986-8.693-5.421-11.543z" fill="#FFB400" data-original="#ffb400" style=""></path></g><path d="m426 380h-340c-8.284 0-15-6.716-15-15v-290c0-8.284 6.716-15 15-15h340c8.284 0 15 6.716 15 15v290c0 8.284-6.716 15-15 15z" fill="#DCF5FA" data-original="#dcf5fa" style=""></path><path d="m426 60h-170v320h170c8.284 0 15-6.716 15-15v-290c0-8.284-6.716-15-15-15z" fill="#BEDCE6" data-original="#bedce6" style=""></path><g><path d="m347.619 182.879c-.028-.104-.058-.208-.089-.311-7.41-24.55-23.987-44.653-46.68-56.604-22.688-11.949-48.65-14.241-73.105-6.458-23.173 7.376-42.451 23.279-54.283 44.778-11.837 21.505-14.949 46.299-8.765 69.815 5.356 20.367 16.922 37.938 33.448 50.813 15.91 12.396 35.729 19.528 55.804 20.083.095.003.188.004.281.004 5.395 0 9.841-4.297 9.991-9.724.152-5.521-4.199-10.12-9.72-10.272-33.058-.914-62.033-23.938-70.463-55.991-10.151-38.603 11.711-78.333 49.772-90.449 19.31-6.148 39.809-4.337 57.719 5.096 17.867 9.41 30.934 25.222 36.807 44.532 3.718 14.061 2.497 27.125-4.074 43.646-1.803 4.533-7.391 15.076-20.317 15.076-2.435 0-4.314-1.524-5.219-2.432-2.155-2.167-3.433-5.358-3.417-8.539l.124-25.047c.02-.685.041-1.369.041-2.061 0-.434-.017-.86-.024-1.29l.229-46.164c.027-5.522-4.428-10.022-9.95-10.049-.018 0-.033 0-.051 0-5.499 0-9.972 4.445-9.999 9.951l-.017 3.447c-6.534-4.705-14.371-7.352-23.043-7.352-22.398 0-45.567 19.345-45.567 51.718 0 29.514 20.036 53.525 44.663 53.525 10.436 0 19.903-4.285 27.346-11.517 1.45 2.746 3.293 5.278 5.49 7.485 5.342 5.369 12.23 8.325 19.396 8.325 20.565 0 33.579-14.302 38.901-27.685 8.198-20.614 9.67-37.994 4.771-56.349zm-95.905 59.743c-11.861 0-24.663-12.817-24.663-33.525 0-19.854 13-31.718 25.567-31.718 13.091 0 22.337 12.241 22.833 29.955l-.017 3.421c-.703 17.74-11.072 31.867-23.72 31.867z" fill="#696969" data-original="#696969" style=""></path><g fill="#555555"><path d="m264.222 295.276c.138-5.009-3.435-9.247-8.222-10.106v19.665c4.564-.819 8.088-4.74 8.222-9.559z" fill="#555555" data-original="#555555" style=""></path><path d="m347.53 182.568c-7.41-24.55-23.987-44.653-46.68-56.604-14.071-7.411-29.401-11.103-44.851-10.985v20.011c12.239-.114 24.386 2.801 35.53 8.67 17.867 9.41 30.934 25.222 36.807 44.532 3.718 14.061 2.497 27.125-4.074 43.646-1.803 4.533-7.391 15.076-20.317 15.076-2.435 0-4.314-1.524-5.219-2.432-2.155-2.167-3.433-5.358-3.417-8.539l.124-25.047c.02-.685.041-1.369.041-2.061 0-.434-.017-.86-.024-1.29l.229-46.164c.027-5.522-4.428-10.022-9.95-10.049-.018 0-.033 0-.051 0-5.499 0-9.972 4.445-9.999 9.951l-.017 3.447c-5.673-4.085-12.33-6.616-19.662-7.212v20.149c11.276 1.928 18.999 13.522 19.451 29.667l-.017 3.421c-.621 15.687-8.803 28.541-19.434 31.308v20.307c8.738-1.002 16.651-5.036 23.06-11.264 1.45 2.746 3.293 5.278 5.49 7.485 5.342 5.369 12.23 8.325 19.396 8.325 20.565 0 33.579-14.302 38.901-27.685 8.199-20.616 9.671-37.996 4.772-56.351-.028-.105-.057-.208-.089-.312z" fill="#555555" data-original="#555555" style=""></path></g></g><path d="m497 512h-482c-8.284 0-15-6.716-15-15v-282c0-5.448 2.954-10.467 7.716-13.113 4.762-2.645 10.584-2.501 15.21.378l233.074 145.067 233.074-145.067c4.624-2.879 10.445-3.023 15.21-.378 4.762 2.646 7.716 7.665 7.716 13.113v282c0 8.284-6.716 15-15 15z" fill="#FFF037" data-original="#fff037" style=""></path><path d="m504.284 201.887c-4.765-2.645-10.586-2.501-15.21.378l-233.074 145.067v164.668h241c8.284 0 15-6.716 15-15v-282c0-5.448-2.954-10.467-7.716-13.113z" fill="#FFCD14" data-original="#ffcd14" style=""></path></g></g></svg>