<svg xmlns="http://www.w3.org/2000/svg" version="1.1" xmlns:xlink="http://www.w3.org/1999/xlink" xmlns:svgjs="http://svgjs.com/svgjs" width="512" height="512" x="0" y="0" viewBox="0 0 64 64" style="enable-background:new 0 0 512 512" xml:space="preserve" class=""><g><g xmlns="http://www.w3.org/2000/svg" id="Icons"><g><g><path d="m36 12v16.829l-6.829-6.829h-21.171v30h37.548c-.977-1.453-1.548-3.18-1.548-5 0-4.962 4.038-9 9-9 2.826 0 5.349 1.312 7 3.356v-29.356z" fill="#FFCA28" data-original="#fab400" class=""></path></g><g><path d="m8 22h4v30h-4z" fill="#FFA000" data-original="#dc9600" class=""></path></g><g><path d="m60 12-26 24-15.167-14h-3.935l10.612 10-17.51 16.5v3.5l19.567-18.062 6.433 6.062 6.433-6.062 6.737 6.219c.716-.611 1.526-1.113 2.409-1.477l-7.089-6.68 17.51-16.5z" fill="#B07003" data-original="#be7800" class=""></path></g><g><path d="m34 24-4-4h-24c-1.105 0-2-.895-2-2v-12c0-1.105.895-2 2-2h26c1.105 0 2 .895 2 2z" fill="#311B92" data-original="#64c8f0" class=""></path></g><g><path d="m6 18v-12c0-1.105.895-2 2-2h-2c-1.105 0-2 .895-2 2v12c0 1.105.895 2 2 2h2c-1.105 0-2-.895-2-2z" fill="#000063" data-original="#46aad2" class=""></path></g><g><path d="m60 47c0-3.866-3.134-7-7-7s-7 3.134-7 7c0 3.016 1.912 5.58 4.586 6.564l2.414 6.436 2.414-6.436c2.674-.984 4.586-3.548 4.586-6.564z" fill="#F12A0E" data-original="#fa6450" class=""></path></g><g><path d="m52.586 53.564c-2.674-.984-4.586-3.548-4.586-6.564 0-3.526 2.609-6.434 6-6.92-.327-.047-.66-.08-1-.08-3.866 0-7 3.134-7 7 0 3.016 1.912 5.58 4.586 6.564l2.414 6.436 1-2.667z" fill="#D62008" data-original="#dc4632" class=""></path></g><g><circle cx="53" cy="47" fill="#F0F0F0" r="3" data-original="#f0f0f0" class=""></circle></g><g><path d="m12 14v-6h-2l-2 2h2v4h-2v2h6v-2z" fill="#F0F0F0" data-original="#f0f0f0" class=""></path></g><g><path d="m20 14v-6h-2l-2 2h2v4h-2v2h6v-2z" fill="#F0F0F0" data-original="#f0f0f0" class=""></path></g><g><path d="m28 14v-6h-2l-2 2h2v4h-2v2h6v-2z" fill="#F0F0F0" data-original="#f0f0f0" class=""></path></g></g></g></g></svg>