<svg width="121" height="121" viewBox="0 0 121 121" fill="none" xmlns="http://www.w3.org/2000/svg">
<g clip-path="url(#clip0_226_792)">
<path d="M112.081 104.396C114.143 95.9419 111.102 87.9394 105.289 86.5222C99.4768 85.1049 93.0938 90.8096 91.0324 99.264C88.971 107.718 92.0118 115.721 97.8243 117.138C103.637 118.555 110.02 112.851 112.081 104.396Z" fill="#828487"/>
<path d="M23.6907 117.203C29.5031 115.786 32.544 107.784 30.4826 99.3292C28.4212 90.8749 22.0382 85.1702 16.2257 86.5874C10.4132 88.0047 7.37233 96.0072 9.43372 104.462C11.4951 112.916 17.8782 118.621 23.6907 117.203Z" fill="#828487"/>
<path d="M104.55 80.1714C100.071 79.08 95.4529 80.6115 91.8059 83.9044C93.1738 84.4447 94.1427 85.7757 94.1427 87.3359C94.1427 88.6896 93.412 89.8694 92.3258 90.5117C92.6955 91.0865 92.9124 91.769 92.9124 92.5035C92.9124 94.5421 91.26 96.1945 89.2214 96.1945C87.6267 96.1945 86.2735 95.1801 85.7583 93.7636C85.6538 94.1181 85.555 94.4759 85.4667 94.8394C83.0117 104.911 87.5757 114.673 95.6604 116.643C96.0542 116.739 96.4498 116.809 96.8449 116.865C91.6395 114.869 89.0234 107.283 90.9717 99.2904C93.0315 90.8397 99.4109 85.1371 105.221 86.5532C111.031 87.9693 114.071 95.9676 112.011 104.418C110.94 108.81 108.702 112.456 105.985 114.75C110.054 112.199 113.363 107.641 114.744 101.975C117.198 91.9037 112.634 82.1419 104.55 80.1714Z" fill="#52565B"/>
<path d="M16.8705 80.1714C24.9553 78.2009 33.499 84.768 35.954 94.8393C38.409 104.911 33.845 114.673 25.7602 116.643C25.3665 116.739 24.9709 116.809 24.5758 116.865C29.7811 114.869 32.3973 107.283 30.449 99.2904C28.3892 90.8397 22.0097 85.1371 16.1998 86.5532C10.3899 87.9693 7.34981 95.9676 9.40964 104.418C10.4802 108.81 12.7182 112.456 15.436 114.75C11.3664 112.199 8.05785 107.641 6.67674 101.975C4.22177 91.9037 8.78574 82.1419 16.8705 80.1714Z" fill="#52565B"/>
<path d="M89.9389 113.473C85.6084 109.347 83.4068 101.794 85.763 93.7753C85.7157 93.6463 85.6727 93.5149 85.6396 93.3797C71.3531 92.347 58.3744 85.8541 54.234 71.9528C51.9477 71.5402 49.7674 70.913 47.7231 70.1061C44.9661 71.3658 42.3084 71.0793 40.3814 70.5027C39.4332 70.2191 39.4285 68.8706 40.3714 68.57C41.2066 68.3034 41.9775 67.9669 42.6908 67.5822C40.3246 66.1065 38.2676 64.344 36.5888 62.3683C35.4445 65.389 34.4112 69.1457 33.7094 73.8018C33.102 77.8312 31.8977 81.5903 30.5596 84.8209C33.0434 87.3997 34.9794 90.842 35.954 94.8402C37.7439 102.184 35.7994 109.359 31.4817 113.473C33.5449 112.952 36.326 112.291 39.3155 111.701C39.3354 111.946 39.3552 112.184 39.3756 112.416C39.42 112.927 39.3543 113.448 39.1222 113.905C38.8793 114.384 38.7412 114.922 38.7412 115.493V116.27C38.7412 118.222 40.3384 119.819 42.2904 119.819H54.8787C56.8307 119.819 58.4278 118.222 58.4278 116.27V115.493C58.4278 114.757 58.201 114.073 57.8139 113.504C57.2401 112.663 56.8842 111.694 56.9191 110.676C56.9243 110.527 56.9295 110.375 56.9343 110.221H64.4864C64.4968 110.548 64.5081 110.865 64.5194 111.173C64.553 112.077 64.2784 112.945 63.8251 113.727C63.5231 114.247 63.3496 114.851 63.3496 115.493V116.27C63.3496 118.222 64.9467 119.819 66.8988 119.819H79.487C81.4391 119.819 83.0362 118.222 83.0362 116.27V115.493C83.0362 114.843 82.859 114.232 82.5503 113.706C82.2223 113.147 82.0384 112.52 82.0919 111.874C82.0966 111.817 82.1013 111.759 82.106 111.7C85.0942 112.29 87.8753 112.951 89.9389 113.473Z" fill="#52565B"/>
<path d="M94.1428 87.3359C94.1428 85.2974 92.4904 83.645 90.4518 83.645C89.1312 83.645 87.976 84.3407 87.3238 85.3834C76.827 84.1096 72.1104 77.6356 70.0293 71.3658C71.5054 70.9797 72.9271 70.5018 74.287 69.9441C72.3514 68.9704 70.38 67.2126 68.5905 64.2339L68.5588 63.8317C70.5941 63.1813 72.2593 62.2776 73.3813 61.2132C74.4566 63.1 76.3364 65.6391 79.2697 67.353C85.721 63.1959 89.8369 56.9101 89.8369 49.868C89.8369 46.2493 88.7483 42.8306 86.8157 39.7966C85.3684 37.5241 84.3711 34.9874 83.9547 32.3083C81.9662 19.5225 72.3037 11.5739 60.6763 11.5739C48.9412 11.5739 39.2064 19.6955 37.3432 32.6713C36.9622 35.3234 35.9838 37.8332 34.5919 40.1034C32.7792 43.0603 31.7616 46.3708 31.7616 49.8685C31.7616 57.041 36.0316 63.4299 42.6904 67.5827C45.6974 65.9586 47.6495 63.4531 48.8009 61.5157C49.8227 62.3764 51.209 63.1194 52.8619 63.6908L52.991 65.4316C51.3055 67.853 49.4938 69.2984 47.7227 70.1071C49.767 70.9135 51.9473 71.5407 54.2336 71.9538C59.4853 89.5867 77.8177 92.815 85.6392 93.3807C86.0329 94.9958 87.4854 96.1959 89.2215 96.1959C91.26 96.1959 92.9124 94.5435 92.9124 92.5049C92.9124 91.7704 92.6955 91.0883 92.3259 90.5131C93.412 89.8694 94.1428 88.6891 94.1428 87.3359Z" fill="#52565B"/>
<path d="M87.7109 73.8014C87.0203 69.2195 86.0093 65.5063 84.8868 62.5106C83.2878 64.3615 81.3324 66.022 79.2749 67.3483C80.0969 67.8285 80.9921 68.252 81.987 68.5691C82.93 68.8697 82.9248 70.2182 81.9771 70.5018C79.9688 71.103 77.1664 71.3918 74.2855 69.9427C74.286 69.9427 74.286 69.9431 74.2865 69.9431C72.9271 70.5009 71.5049 70.9787 70.0288 71.3649C72.1104 77.6351 76.827 84.1086 87.3233 85.3825C87.9529 84.3766 89.0745 83.6696 90.3913 83.6483C89.2456 80.6937 88.2459 77.353 87.7109 73.8014Z" fill="#52565B"/>
<path d="M81.987 68.5696C77.4443 67.12 74.7577 63.6285 73.3809 61.2128C72.2588 62.2772 70.5936 63.1809 68.5583 63.8313L68.59 64.2335C73.0434 71.6452 78.6198 71.5072 81.9771 70.5023C82.9247 70.2183 82.9295 68.8703 81.987 68.5696Z" fill="#F4DBCE"/>
<path d="M52.8619 63.6899C51.209 63.1185 49.8227 62.375 48.8008 61.5148C47.3767 63.9111 44.7284 67.1791 40.371 68.5696C39.428 68.8703 39.4332 70.2187 40.3809 70.5023C43.5453 71.4495 48.6817 71.6216 52.9904 65.4303L52.8619 63.6899Z" fill="#F4DBCE"/>
<path d="M31.7615 49.867C31.7615 46.3698 32.7787 43.0588 34.5918 40.1019C35.9838 37.8317 36.9622 35.3219 37.3431 32.6699C38.4477 24.976 42.3202 18.9893 47.7359 15.3895C37.9883 8.19666 15.8448 -6.04211 6.93952 5.59941C-0.766671 15.6736 12.515 18.1442 10.6565 32.547C8.798 46.9502 10.6565 53.9195 17.6258 53.9195C23.4645 53.9195 24.088 66.306 34.7898 59.9464C32.8538 56.911 31.7615 53.4894 31.7615 49.867Z" fill="#F98080"/>
<path d="M6.93957 5.59941C6.83417 5.73743 6.73396 5.87308 6.6366 6.00826C8.87982 5.35741 12.3538 4.84364 17.1031 5.53135C17.1031 5.53135 33.1498 7.73393 41.1736 22.1003H41.1793C42.9271 19.3717 45.1534 17.1062 47.7359 15.3895C37.9884 8.19666 15.8449 -6.04211 6.93957 5.59941Z" fill="#52565B"/>
<path d="M114.061 5.59945C105.207 -5.97401 83.2684 8.03221 73.4343 15.2639C78.8599 18.7894 82.7697 24.6891 83.9542 32.3069C84.3706 34.9859 85.3679 37.5231 86.8152 39.7952C88.7474 42.8292 89.8364 46.2479 89.8364 49.8665C89.8364 53.5897 88.6765 57.0972 86.6384 60.195C96.9314 65.977 97.6144 53.9191 103.374 53.9191C110.344 53.9191 112.202 46.9498 110.344 32.5465C108.485 18.1442 121.767 15.6736 114.061 5.59945Z" fill="#F98080"/>
<path d="M114.06 5.59945C105.207 -5.97401 83.2683 8.03221 73.4343 15.2639C76.0036 16.9337 78.2275 19.1415 79.9881 21.8064L79.9943 21.8031C88.0715 7.70325 103.897 5.53092 103.897 5.53092C108.463 5.07433 112.33 6.02957 115.111 7.13889C114.815 6.64497 114.469 6.13355 114.06 5.59945Z" fill="#52565B"/>
<path d="M70.0964 119.818C69.6625 117.144 68.5995 115.252 67.354 115.252C66.2258 115.252 65.2464 116.804 64.7492 119.084C65.3471 119.542 66.0911 119.818 66.8979 119.818H70.0964Z" fill="#828487"/>
<path d="M73.014 115.252C71.769 115.252 70.706 117.144 70.2717 119.818H75.7559C75.322 117.144 74.259 115.252 73.014 115.252Z" fill="#828487"/>
<path d="M79.4861 119.818C80.1572 119.818 80.784 119.626 81.3209 119.299C80.8393 116.903 79.8363 115.251 78.6736 115.251C77.4286 115.251 76.3656 117.144 75.9312 119.818H79.4861V119.818Z" fill="#828487"/>
<path d="M51.3238 119.818H54.8782C55.5493 119.818 56.1761 119.626 56.713 119.299C56.2314 116.903 55.2284 115.251 54.0657 115.251C52.8207 115.252 51.7577 117.144 51.3238 119.818Z" fill="#828487"/>
<path d="M45.4884 119.819C45.0545 117.144 43.9915 115.252 42.746 115.252C41.6178 115.252 40.6385 116.805 40.1412 119.085C40.7391 119.543 41.4831 119.819 42.2899 119.819H45.4884Z" fill="#828487"/>
<path d="M45.6638 119.818H51.148C50.7141 117.144 49.6511 115.252 48.4056 115.252C47.1602 115.252 46.0977 117.144 45.6638 119.818Z" fill="#828487"/>
<path d="M96.8459 118.047C96.791 118.047 96.7353 118.043 96.679 118.035C96.1979 117.967 95.7729 117.887 95.3797 117.791C86.6752 115.669 81.7128 105.248 84.3181 94.5595C84.4117 94.1771 84.5152 93.8023 84.6234 93.4313C84.7676 92.9411 85.2095 92.5989 85.7195 92.5828C86.2309 92.5635 86.6937 92.8792 86.8681 93.3599C87.2278 94.3487 88.1736 95.0132 89.221 95.0132C90.6049 95.0132 91.7308 93.8874 91.7308 92.5034C91.7308 92.0242 91.5928 91.5567 91.3319 91.1507C91.1584 90.8808 91.1021 90.5518 91.1759 90.2394C91.2496 89.927 91.4477 89.6585 91.7242 89.4945C92.4988 89.0365 92.9611 88.2292 92.9611 87.3359C92.9611 86.3008 92.3372 85.3852 91.3716 85.0033C90.9911 84.853 90.716 84.517 90.6432 84.1147C90.5704 83.7125 90.7108 83.3013 91.0142 83.0271C95.0999 79.3381 100.136 77.878 104.83 79.0233C113.534 81.145 118.497 91.5666 115.892 102.255C114.488 108.015 111.105 112.934 106.612 115.751C106.086 116.08 105.395 115.948 105.029 115.447C104.664 114.946 104.748 114.247 105.222 113.847C107.841 111.636 109.897 108.097 110.862 104.138C112.764 96.3343 110.108 88.9604 104.941 87.7008C99.7749 86.443 94.0213 91.7656 92.1193 99.5701C90.3426 106.861 92.6042 113.973 97.2684 115.761C97.8299 115.977 98.14 116.579 97.9887 117.161C97.8522 117.689 97.3771 118.047 96.8459 118.047ZM86.3373 96.4232C85.1396 103.015 87.0675 109.308 91.0038 112.856C89.0981 109.196 88.564 104.179 89.8236 99.0105C89.9701 98.4102 90.1375 97.8227 90.3246 97.2503C89.9701 97.3326 89.6005 97.376 89.2214 97.376C88.1617 97.3765 87.1564 97.0277 86.3373 96.4232ZM103.448 85.1593C104.135 85.1593 104.821 85.2392 105.5 85.4051C111.044 86.7559 114.361 93.3679 113.759 100.973C115.677 91.8105 111.519 83.0862 104.27 81.3194C100.788 80.471 97.0434 81.3705 93.8005 83.7924C94.7581 84.6923 95.3253 85.9595 95.3253 87.3359C95.3253 88.0529 95.1642 88.751 94.8683 89.3848C97.3644 86.728 100.41 85.1593 103.448 85.1593Z" fill="black"/>
<path d="M24.5739 118.047C24.0431 118.047 23.5676 117.689 23.431 117.162C23.2802 116.58 23.5903 115.977 24.1513 115.762C28.8155 113.973 31.0771 106.861 29.3004 99.5702C27.3985 91.7666 21.6481 86.4436 16.4792 87.7013C11.3116 88.9609 8.65527 96.3349 10.5572 104.139C11.5224 108.097 13.5785 111.636 16.1979 113.847C16.672 114.248 16.7561 114.946 16.3903 115.447C16.0249 115.949 15.3344 116.081 14.8078 115.752C10.3143 112.934 6.93197 108.015 5.52818 102.255C2.9229 91.5672 7.88531 81.1456 16.5902 79.0238C25.297 76.9025 34.4963 83.8719 37.1016 94.56C39.7069 105.248 34.7445 115.67 26.0396 117.792C25.6468 117.888 25.2219 117.967 24.7407 118.035C24.6849 118.043 24.6287 118.047 24.5739 118.047ZM17.9718 85.1594C23.785 85.1594 29.6195 90.8984 31.5961 99.0106C32.8557 104.179 32.3226 109.195 30.4164 112.855C34.6112 109.073 36.5254 102.175 34.8055 95.1192C32.5093 85.6968 24.5899 79.5064 17.1498 81.3195C9.90167 83.0863 5.74371 91.8106 7.6608 100.974C7.05958 93.368 10.3767 86.7565 15.92 85.4051C16.5992 85.2397 17.2855 85.1594 17.9718 85.1594Z" fill="black"/>
<path d="M79.4862 121H66.8979C64.2893 121 62.1671 118.878 62.1671 116.269V115.493C62.1671 114.665 62.3869 113.849 62.8028 113.133C63.1436 112.545 63.3237 111.964 63.3393 111.402H58.159C58.2771 111.984 58.5484 112.485 58.7895 112.839C59.326 113.625 59.6091 114.542 59.6091 115.493V116.269C59.6091 118.878 57.4869 121 54.8783 121H42.29C39.6814 121 37.5592 118.878 37.5592 116.269V115.493C37.5592 114.749 37.7303 114.035 38.0682 113.369C38.1056 113.296 38.1339 113.219 38.1547 113.141C36.102 113.569 33.9613 114.064 31.771 114.618C31.2506 114.749 30.7066 114.514 30.4471 114.044C30.1876 113.574 30.2779 112.988 30.6664 112.617C34.8097 108.669 36.4343 101.801 34.806 95.1186C33.9122 91.4518 32.1496 88.1739 29.7084 85.6395C29.3827 85.3011 29.2877 84.8015 29.4678 84.3676C30.9841 80.7078 32.0182 77.093 32.5415 73.6246C33.1895 69.3197 34.1797 65.3909 35.4838 61.9481C35.6317 61.5572 35.9753 61.2736 36.3875 61.2023C36.7977 61.1314 37.2184 61.2826 37.4892 61.6012C39.0996 63.4965 41.0602 65.1707 43.3161 66.5778C43.6735 66.8004 43.8847 67.1965 43.872 67.6172C43.8588 68.0383 43.6229 68.4202 43.2519 68.6201C42.6081 68.968 41.9388 69.2677 41.2568 69.5149C42.8288 69.8987 44.9983 70.0504 47.2321 69.0299C47.5252 68.8966 47.8584 68.8881 48.1571 69.0053C50.164 69.7975 52.2796 70.3973 54.4439 70.7882C54.8825 70.8671 55.2394 71.1867 55.3665 71.6139C58.9237 83.5589 69.9891 91.0623 85.7248 92.1995C86.2357 92.2364 86.6649 92.5989 86.7868 93.0966C86.8095 93.1888 86.8393 93.2777 86.8719 93.3656C86.9598 93.6033 86.9683 93.8637 86.897 94.1072C84.8286 101.147 86.3425 108.412 90.7543 112.616C91.1428 112.987 91.2331 113.573 90.9736 114.043C90.7141 114.513 90.171 114.749 89.6497 114.618C87.5894 114.097 85.5726 113.628 83.6323 113.218C84.0156 113.913 84.2175 114.697 84.2175 115.493V116.269C84.217 118.878 82.0948 121 79.4862 121ZM56.9338 109.039H64.4864C65.124 109.039 65.6468 109.545 65.6676 110.183L65.6997 111.13C65.7399 112.201 65.453 113.274 64.8471 114.319C64.64 114.676 64.5304 115.082 64.5304 115.493V116.269C64.5304 117.575 65.5924 118.637 66.8979 118.637H79.4862C80.7916 118.637 81.8537 117.575 81.8537 116.269V115.493C81.8537 115.075 81.7422 114.664 81.5304 114.304C81.0568 113.497 80.8436 112.623 80.9131 111.777L80.9264 111.607C80.9533 111.271 81.122 110.963 81.3905 110.759C81.659 110.556 82.0031 110.477 82.3325 110.541C83.7665 110.824 85.2488 111.142 86.7656 111.491C83.7481 106.893 82.817 100.627 84.3526 94.4583C68.5149 92.9804 57.2803 85.2113 53.3157 72.9799C51.4075 72.5961 49.5396 72.0596 47.7454 71.3814C44.7492 72.5876 41.9232 72.1972 40.0421 71.6338C39.1199 71.3578 38.4941 70.5235 38.4851 69.5574C38.4761 68.587 39.0897 67.7372 40.0113 67.4432C40.0936 67.4167 40.1758 67.3898 40.2576 67.3619C39.1015 66.5149 38.029 65.5956 37.0487 64.6111C36.1166 67.4432 35.3883 70.5845 34.8773 73.9772C34.3598 77.4115 33.371 80.9706 31.9365 84.5685C34.3938 87.316 36.1738 90.7541 37.1012 94.56C38.5872 100.656 37.6131 106.932 34.6401 111.494C36.1615 111.144 37.648 110.825 39.0863 110.541C39.4153 110.476 39.7589 110.555 40.0274 110.758C40.2959 110.961 40.4656 111.269 40.4925 111.605L40.5516 112.312C40.6192 113.087 40.4882 113.822 40.1744 114.44C40.0071 114.771 39.9215 115.125 39.9215 115.493V116.27C39.9215 117.575 40.9836 118.637 42.2891 118.637H54.8778C56.1833 118.637 57.2453 117.575 57.2453 116.27V115.493C57.2453 115.02 57.104 114.563 56.8365 114.17C56.0764 113.055 55.696 111.832 55.7376 110.635L55.7522 110.182C55.7739 109.545 56.2962 109.039 56.9338 109.039Z" fill="black"/>
<path d="M54.8782 121H42.29C39.6814 121 37.5591 118.878 37.5591 116.269V115.492C37.5591 114.749 37.7307 114.034 38.0691 113.368C38.2124 113.086 38.2185 112.752 38.1986 112.521C37.7331 107.197 37.4433 99.6571 38.7077 93.9696C40.5667 85.6059 38.7677 80.4053 38.7493 80.3538C38.5309 79.7403 38.849 79.0639 39.4616 78.8432C40.0727 78.6234 40.7491 78.9372 40.9717 79.5493C41.0568 79.7838 43.0349 85.3914 41.0147 94.4824C39.7527 100.16 40.1833 108.093 40.5525 112.316C40.6196 113.088 40.4891 113.821 40.1758 114.439C40.0075 114.77 39.922 115.125 39.922 115.492V116.269C39.922 117.575 40.984 118.637 42.2895 118.637H54.8782C56.1837 118.637 57.2457 117.575 57.2457 116.269V115.492C57.2457 115.017 57.103 114.558 56.8336 114.165C56.0754 113.058 55.6964 111.836 55.7384 110.632C55.8939 106.143 55.9648 99.4137 55.417 92.847C55.3627 92.1971 55.8457 91.6257 56.4961 91.5713C57.155 91.5179 57.7179 92.0005 57.7718 92.6509C58.3291 99.3324 58.2577 106.161 58.0994 110.713C58.0696 111.593 58.4543 112.349 58.7828 112.829C59.3231 113.617 59.6086 114.539 59.6086 115.492V116.269C59.609 118.878 57.4868 121 54.8782 121Z" fill="black"/>
<path d="M79.4861 121H66.8979C64.2893 121 62.1671 118.878 62.1671 116.269V115.493C62.1671 114.665 62.3868 113.85 62.8023 113.134C63.1809 112.482 63.361 111.837 63.3378 111.217C63.1634 106.537 63.0755 99.5168 63.6479 92.6515C63.7018 92.0015 64.2647 91.5185 64.9236 91.5719C65.574 91.6263 66.057 92.1972 66.0027 92.8476C65.4407 99.5957 65.5272 106.514 65.6987 111.129C65.7389 112.203 65.452 113.276 64.8456 114.32C64.639 114.676 64.5299 115.082 64.5299 115.493V116.27C64.5299 117.575 65.5919 118.637 66.8974 118.637H79.4857C80.7911 118.637 81.8532 117.575 81.8532 116.27V115.493C81.8532 115.076 81.7416 114.664 81.5299 114.304C81.0568 113.499 80.8436 112.625 80.9131 111.777C81.3243 106.782 81.5701 99.7266 80.4045 94.4825C80.2991 94.0075 80.2046 93.5429 80.1204 93.0882C80.0013 92.4463 80.4258 91.83 81.0672 91.7109C81.7081 91.5932 82.3254 92.0162 82.444 92.6576C82.5234 93.0858 82.6123 93.5235 82.7111 93.9702C83.9414 99.5026 83.6928 106.813 83.2678 111.971C83.2305 112.425 83.4106 112.84 83.5675 113.107C83.992 113.83 84.216 114.655 84.216 115.493V116.269C84.2169 118.878 82.0947 121 79.4861 121Z" fill="black"/>
<path d="M89.2215 97.3766C87.2694 97.3766 85.5475 96.2275 84.7766 94.4957C80.1441 94.0869 72.0957 92.7261 65.1401 88.2581C56.1691 82.4954 51.6202 73.4635 51.6202 61.4136V55.8381C51.6202 55.1854 52.1491 54.6565 52.8019 54.6565C53.4546 54.6565 53.9835 55.1854 53.9835 55.8381V61.4136C53.9835 87.1294 76.1814 91.5109 85.7248 92.201C86.2366 92.2383 86.6658 92.6013 86.7873 93.0995C87.0619 94.2263 88.063 95.0133 89.2215 95.0133C90.6054 95.0133 91.7313 93.8874 91.7313 92.5035C91.7313 92.0242 91.5933 91.5567 91.3323 91.1507C91.1589 90.8808 91.1026 90.5519 91.1764 90.2394C91.2501 89.927 91.4482 89.6586 91.7247 89.4945C92.4993 89.0365 92.9616 88.2292 92.9616 87.3359C92.9616 85.952 91.8357 84.8261 90.4518 84.8261C89.584 84.8261 88.7885 85.2685 88.3253 86.0092C88.0819 86.3982 87.6319 86.6104 87.1815 86.5556C79.4914 85.6225 73.897 81.9434 70.552 75.6207C67.908 70.6223 67.3063 65.1428 67.2671 61.4254V55.8372C67.2671 55.1844 67.796 54.6555 68.4487 54.6555C69.1014 54.6555 69.6303 55.1844 69.6303 55.8372V61.4126C69.6951 67.5269 71.5134 81.863 86.7939 84.119C87.7113 83.0702 89.0305 82.4628 90.4513 82.4628C93.1384 82.4628 95.3244 84.6489 95.3244 87.3359C95.3244 88.6754 94.7619 89.9511 93.8076 90.8615C93.9962 91.3856 94.0936 91.9401 94.0936 92.5035C94.0941 95.1905 91.9081 97.3766 89.2215 97.3766Z" fill="black"/>
<path d="M68.5578 65.0123C68.0573 65.0123 67.5931 64.6923 67.4324 64.1899C67.2339 63.5684 67.577 62.9033 68.1986 62.7048C71.6334 61.6073 73.7669 59.8245 73.7669 58.052C73.7669 57.3993 74.2958 56.8704 74.9486 56.8704C75.6013 56.8704 76.1302 57.3993 76.1302 58.052C76.1302 60.9319 73.4342 63.5131 68.9175 64.9561C68.7984 64.9944 68.6769 65.0123 68.5578 65.0123Z" fill="black"/>
<path d="M52.8619 64.8715C52.7338 64.8715 52.6038 64.8507 52.4762 64.8063C48.1788 63.3207 45.7139 60.8586 45.7139 58.052C45.7139 57.3993 46.2428 56.8704 46.8956 56.8704C47.5483 56.8704 48.0772 57.3993 48.0772 58.052C48.0772 59.738 50.0581 61.4703 53.2476 62.5725C53.8649 62.7857 54.1915 63.4587 53.9788 64.0755C53.8096 64.5647 53.3516 64.8715 52.8619 64.8715Z" fill="black"/>
<path d="M89.2215 97.3765C87.2694 97.3765 85.548 96.2275 84.7766 94.4957C76.5491 93.7716 58.8727 90.1874 53.3157 72.9804C51.245 72.5635 49.2215 71.9675 47.2888 71.2056C46.8478 71.0316 46.5539 70.611 46.5416 70.1373C46.5293 69.6637 46.8011 69.2284 47.2316 69.0313C48.8963 68.2708 50.4254 66.9469 51.7814 65.0922L51.7398 64.5354C50.7605 64.1512 49.8837 63.7087 49.1175 63.2125C47.8716 65.0275 45.9682 67.1539 43.2523 68.6211C42.8789 68.8229 42.4261 68.8087 42.065 68.5837C34.7663 64.0316 30.58 57.2097 30.58 49.867C30.58 46.229 31.591 42.736 33.5846 39.4846C34.9586 37.2424 35.8298 34.8933 36.1734 32.5021C38.0725 19.2767 47.9189 10.3907 60.6759 10.3907C73.276 10.3907 83.0996 19.125 85.1221 32.1254C85.5059 34.5941 86.4115 36.9611 87.812 39.1604C89.9394 42.5011 91.0181 46.1032 91.0181 49.867C91.0181 57.0608 86.9693 63.7957 79.9092 68.345C79.5344 68.5861 79.0565 68.5965 78.6732 68.372C76.0816 66.8581 74.27 64.7628 73.0789 62.9728C72.2489 63.5532 71.2676 64.0713 70.1654 64.5099C71.5418 66.5551 73.1039 68.0255 74.8173 68.8872C75.2309 69.0951 75.4851 69.5257 75.4672 69.988C75.4497 70.4507 75.1628 70.8605 74.735 71.0359C73.7051 71.4584 72.645 71.8337 71.5692 72.1584C74.2198 79.0039 79.3349 83.0229 86.7944 84.119C87.7118 83.0702 89.031 82.4623 90.4518 82.4623C93.1389 82.4623 95.3249 84.6484 95.3249 87.3354C95.3249 88.6749 94.7624 89.9506 93.8081 90.861C93.9967 91.3851 94.0941 91.9396 94.0941 92.503C94.0941 95.1905 91.9081 97.3765 89.2215 97.3765ZM50.475 69.8211C51.7696 70.2224 53.0973 70.5462 54.4434 70.7896C54.8821 70.8685 55.2389 71.1881 55.3656 71.6149C60.4183 88.579 78.2795 91.6626 85.7238 92.2005C86.2352 92.2378 86.6649 92.6008 86.7864 93.099C87.061 94.2258 88.0621 95.0128 89.2205 95.0128C90.6045 95.0128 91.7304 93.8869 91.7304 92.503C91.7304 92.0237 91.5923 91.5562 91.3314 91.1502C91.158 90.8803 91.1017 90.5514 91.1754 90.239C91.2492 89.9265 91.4472 89.6581 91.7237 89.494C92.4984 89.036 92.9607 88.2287 92.9607 87.3354C92.9607 85.9515 91.8348 84.8256 90.4509 84.8256C89.5831 84.8256 88.7876 85.268 88.3244 86.0087C88.081 86.3977 87.631 86.6099 87.1806 86.5551C78.0772 85.4505 71.7583 80.3264 68.9062 71.7363C68.8032 71.4263 68.8335 71.0874 68.9894 70.8005C69.1454 70.5136 69.4129 70.3037 69.7287 70.221C70.3767 70.0513 71.0209 69.8613 71.6576 69.6524C70.1489 68.458 68.7815 66.8477 67.5757 64.8408C67.4812 64.6834 67.4249 64.5066 67.4103 64.3242L67.3791 63.9214C67.3361 63.3751 67.6754 62.8707 68.1973 62.7039C70.0619 62.1079 71.573 61.2954 72.5665 60.3534C72.8302 60.1033 73.1942 59.9885 73.5525 60.0419C73.9117 60.0953 74.2265 60.3103 74.4061 60.6261C75.3107 62.2133 76.8639 64.3676 79.247 65.9463C85.2351 61.8559 88.6534 56.0309 88.6534 49.8661C88.6534 46.5589 87.6991 43.3841 85.8174 40.429C84.2397 37.9528 83.2197 35.2808 82.7849 32.4874C80.9491 20.6833 72.0636 12.7531 60.6745 12.7531C49.1431 12.7531 40.2359 20.8242 38.5111 32.8372C38.1217 35.5488 37.1418 38.2004 35.5982 40.7187C33.8356 43.5934 32.9418 46.6709 32.9418 49.8661C32.9418 56.1779 36.4967 62.096 42.722 66.1982C45.1973 64.681 46.8289 62.5153 47.7832 60.9097C47.9605 60.6114 48.2601 60.4063 48.6019 60.3482C48.9445 60.2905 49.2948 60.386 49.5599 60.6091C50.467 61.3729 51.7413 62.0516 53.2457 62.5715C53.6914 62.7256 54.0034 63.1302 54.0384 63.601L54.1674 65.3418C54.1873 65.6121 54.114 65.8815 53.959 66.1042C52.9054 67.6219 51.7389 68.8645 50.475 69.8211Z" fill="black"/>
<path d="M79.9938 22.9852C79.7943 22.9852 79.5925 22.9346 79.4077 22.8287C78.8414 22.504 78.6453 21.7822 78.9695 21.216C87.2401 6.77777 103.066 4.45277 103.736 4.36061C104.38 4.26844 104.979 4.72408 105.067 5.37067C105.156 6.0168 104.704 6.61234 104.059 6.70167C103.906 6.72294 88.6996 8.98413 81.0194 22.3906C80.8015 22.772 80.4031 22.9852 79.9938 22.9852Z" fill="black"/>
<path d="M41.174 23.2825C40.7599 23.2825 40.3577 23.0641 40.1412 22.6766C32.5126 9.01727 17.0959 6.72347 16.9409 6.7022C16.2953 6.6124 15.8439 6.0159 15.9327 5.36978C16.0225 4.72366 16.6181 4.26944 17.2633 4.36114C17.9425 4.45425 33.9882 6.8128 42.2049 21.5242C42.5229 22.0942 42.3192 22.8141 41.7492 23.1322C41.5668 23.2338 41.3692 23.2825 41.174 23.2825Z" fill="black"/>
<path d="M91.6287 62.938C90.0704 62.938 88.2417 62.4521 86.0594 61.226C85.7739 61.0653 85.5674 60.7935 85.4899 60.475C85.4128 60.1564 85.471 59.8199 85.651 59.5462C87.6447 56.5169 88.6548 53.2608 88.6548 49.8671C88.6548 46.56 87.7005 43.3851 85.8188 40.4301C84.2411 37.9538 83.2211 35.2819 82.7863 32.4885C81.7001 25.5026 78.15 19.7372 72.7905 16.2547C72.4654 16.0434 72.2645 15.6856 72.2531 15.298C72.2418 14.9104 72.4214 14.5417 72.7343 14.312C77.9813 10.4537 85.877 5.23325 93.6975 2.27443C103.633 -1.48461 110.801 -0.607833 114.999 4.8816C119.602 10.8995 117.348 14.7488 114.962 18.824C112.965 22.2328 110.703 26.0963 111.516 32.3959C112.88 42.9706 112.196 49.3964 109.363 52.6189C107.915 54.2661 105.9 55.1013 103.374 55.1013C101.73 55.1013 100.506 56.5765 99.0882 58.2847C97.3776 60.3454 95.2266 62.9375 91.6287 62.938ZM88.3149 59.7296C93.015 61.9038 94.9983 59.5131 97.2694 56.7755C98.9161 54.7903 100.62 52.738 103.374 52.738C105.216 52.738 106.594 52.1883 107.588 51.0582C109.907 48.4203 110.425 42.4148 109.172 32.6984C108.256 25.5981 110.843 21.1797 112.923 17.6296C115.235 13.6825 116.761 11.0748 113.122 6.31753C109.632 1.75498 103.378 1.13863 94.5337 4.48504C87.5937 7.11064 80.544 11.6122 75.4677 15.2488C80.6215 19.1535 84.027 25.082 85.1226 32.126C85.5064 34.5947 86.412 36.9617 87.8125 39.161C89.9399 42.5017 91.0185 46.1038 91.0185 49.8676C91.018 53.3142 90.1101 56.6256 88.3149 59.7296Z" fill="black"/>
<path d="M29.368 62.9346C25.7735 62.9346 23.6271 60.3487 21.9128 58.2836C20.4953 56.5759 19.2707 55.1012 17.6263 55.1012C15.1009 55.1012 13.0864 54.266 11.6377 52.6188C8.80464 49.3967 8.12071 42.9705 9.48479 32.3958C10.2978 26.0957 8.03516 22.2322 6.03866 18.8239C3.65174 14.7487 1.39764 10.8994 6.00132 4.88151C10.2202 -0.633919 17.4353 -1.49368 27.4434 2.32774C35.2895 5.32344 43.1904 10.5676 48.4373 14.4391C48.7474 14.6679 48.9265 15.0337 48.9171 15.4189C48.9076 15.8041 48.7105 16.1605 48.3901 16.3741C43.0339 19.9342 39.5259 25.7814 38.513 32.8382C38.1235 35.5498 37.1437 38.2014 35.6 40.7197C33.8375 43.5944 32.9437 46.6719 32.9437 49.867C32.9437 53.1756 33.8999 56.3533 35.7862 59.3107C35.9583 59.5801 36.0136 59.9081 35.9398 60.2192C35.8656 60.5306 35.669 60.7982 35.3939 60.9617C33.008 62.3797 31.0322 62.9346 29.368 62.9346ZM16.6545 2.36367C12.8298 2.36367 9.89317 3.68238 7.87776 6.31744C4.23878 11.0747 5.76593 13.6824 8.0777 17.6295C10.1569 21.1796 12.7447 25.598 11.8287 32.6983C10.5752 42.4151 11.0928 48.4207 13.4126 51.0581C14.4066 52.1883 15.7848 52.738 17.6263 52.738C20.3805 52.738 22.0839 54.7897 23.7311 56.774C26.0727 59.5943 28.1136 62.0559 33.1479 59.5036C31.4439 56.4682 30.5804 53.2319 30.5804 49.867C30.5804 46.229 31.5914 42.7361 33.5851 39.4847C34.9591 37.2424 35.8302 34.8933 36.1738 32.5021C37.1962 25.3797 40.5638 19.3646 45.7196 15.3825C40.6404 11.7293 33.5742 7.19752 26.6006 4.53552C22.8076 3.0873 19.4871 2.36367 16.6545 2.36367Z" fill="black"/>
<path d="M55.4762 52.6993C55.1113 52.6993 54.7511 52.5305 54.52 52.2124C54.1362 51.6845 54.2529 50.9457 54.7804 50.5619L55.0688 50.352C58.2327 48.0512 62.5759 48.1504 65.6307 50.595C66.1403 51.0029 66.223 51.7464 65.8155 52.2559C65.4072 52.765 64.6637 52.8477 64.1546 52.4402C61.9284 50.6593 58.7644 50.5865 56.4593 52.2635L56.171 52.4733C55.9607 52.6255 55.7172 52.6993 55.4762 52.6993Z" fill="black"/>
<path d="M53.8483 47.3176C53.4834 47.3176 53.1228 47.1488 52.8916 46.8307C52.5078 46.3028 52.6251 45.564 53.153 45.1802L53.5406 44.898C57.6503 41.909 63.2915 42.0399 67.2585 45.2133C67.768 45.6207 67.8507 46.3647 67.4433 46.8742C67.0354 47.3837 66.2919 47.466 65.7824 47.059C62.6421 44.5478 58.1802 44.4457 54.9307 46.8099L54.5421 47.0921C54.3323 47.2443 54.0893 47.3176 53.8483 47.3176Z" fill="black"/>
<path d="M45.9933 41.7293C45.3424 41.7293 44.814 41.2033 44.8116 40.5519C44.8078 39.5272 45.2039 38.5625 45.9261 37.8351C46.6484 37.1077 47.6102 36.7059 48.6354 36.7026H48.6472C50.7567 36.7026 52.4767 38.4155 52.4838 40.5264C52.4861 41.1792 51.9591 41.71 51.3064 41.7123C51.305 41.7123 51.3035 41.7123 51.3021 41.7123C50.6513 41.7123 50.1228 41.1863 50.1205 40.5349C50.1176 39.7243 49.4573 39.0664 48.6472 39.0664C48.6458 39.0664 48.6444 39.0664 48.6425 39.0664C48.2492 39.0678 47.8796 39.2224 47.6022 39.5012C47.3247 39.7801 47.173 40.1507 47.1744 40.5439C47.1768 41.1967 46.6498 41.7274 45.997 41.7298C45.9956 41.7293 45.9947 41.7293 45.9933 41.7293Z" fill="black"/>
<path d="M69.0655 41.7293C68.4146 41.7293 67.8862 41.2033 67.8838 40.5519C67.88 39.5272 68.2761 38.5625 68.9983 37.8351C69.7206 37.1077 70.6824 36.7059 71.7076 36.7026H71.7194C73.8289 36.7026 75.5489 38.4155 75.556 40.5264C75.5583 41.1792 75.0313 41.71 74.3786 41.7123C74.3772 41.7123 74.3758 41.7123 74.3743 41.7123C73.7235 41.7123 73.1951 41.1863 73.1927 40.5349C73.1899 39.7243 72.5296 39.0664 71.7194 39.0664C71.718 39.0664 71.7166 39.0664 71.7147 39.0664C71.3214 39.0678 70.9518 39.2224 70.6744 39.5012C70.3969 39.7801 70.2452 40.1507 70.2466 40.5439C70.249 41.1967 69.722 41.7274 69.0692 41.7298C69.0683 41.7293 69.0669 41.7293 69.0655 41.7293Z" fill="black"/>
<path d="M70.0963 121H66.8979C65.8566 121 64.865 120.662 64.0307 120.022C63.6668 119.744 63.4971 119.28 63.5949 118.832C64.2548 115.806 65.625 114.07 67.354 114.07C69.2366 114.07 70.6975 116.148 71.2628 119.629C71.3181 119.971 71.2208 120.32 70.9967 120.584C70.7713 120.848 70.4428 121 70.0963 121ZM66.1194 118.502C66.368 118.591 66.6299 118.637 66.8979 118.637H68.6278C68.1594 117.013 67.5237 116.433 67.354 116.433C67.1989 116.433 66.5925 116.949 66.1194 118.502Z" fill="black"/>
<path d="M75.7559 121H70.2717C69.9252 121 69.5963 120.848 69.3718 120.584C69.1473 120.32 69.0499 119.971 69.1057 119.629C69.6705 116.148 71.1315 114.07 73.0141 114.07C74.8966 114.07 76.3576 116.148 76.9229 119.629C76.9782 119.971 76.8809 120.32 76.6568 120.584C76.4314 120.848 76.1029 121 75.7559 121ZM71.7403 118.637H74.2879C73.8195 117.013 73.1837 116.433 73.0141 116.433C72.8444 116.433 72.2082 117.013 71.7403 118.637Z" fill="black"/>
<path d="M79.4861 121H75.9313C75.5848 121 75.2554 120.848 75.0313 120.584C74.8068 120.32 74.7094 119.971 74.7652 119.629C75.3305 116.148 76.792 114.07 78.6741 114.07C80.4281 114.07 81.8513 115.938 82.4799 119.066C82.5777 119.553 82.3603 120.049 81.9363 120.308C81.1924 120.761 80.3454 121 79.4861 121ZM77.3998 118.637H79.4861C79.6359 118.637 79.7862 118.622 79.9332 118.592C79.4596 116.972 78.8367 116.433 78.6736 116.433C78.5039 116.433 77.8687 117.012 77.3998 118.637Z" fill="black"/>
<path d="M54.8782 121H51.3233C50.9769 121 50.6479 120.848 50.4234 120.584C50.1989 120.32 50.1015 119.971 50.1573 119.629C50.7221 116.148 52.1831 114.07 54.0662 114.07C55.8197 114.07 57.2424 115.937 57.872 119.066C57.9698 119.553 57.7524 120.049 57.3284 120.308C56.585 120.761 55.738 121 54.8782 121ZM52.7919 118.637H54.8782C55.028 118.637 55.1783 118.622 55.3253 118.593C54.8513 116.973 54.2283 116.434 54.0657 116.434C53.896 116.433 53.2608 117.013 52.7919 118.637Z" fill="black"/>
<path d="M45.4884 121H42.2895C41.2492 121 40.2576 120.662 39.4228 120.022C39.0584 119.744 38.8887 119.28 38.9866 118.832C39.6464 115.806 41.0166 114.07 42.7461 114.07C44.6287 114.07 46.0897 116.148 46.655 119.629C46.7103 119.971 46.6129 120.32 46.3889 120.584C46.1639 120.848 45.8354 121 45.4884 121ZM41.511 118.502C41.7597 118.591 42.022 118.637 42.2895 118.637H44.0199C43.5515 117.013 42.9158 116.433 42.7461 116.433C42.5911 116.433 41.9842 116.949 41.511 118.502Z" fill="black"/>
<path d="M51.1485 121H45.6638C45.3173 121 44.9884 120.848 44.7639 120.584C44.5394 120.32 44.442 119.971 44.4978 119.629C45.0626 116.148 46.5236 114.07 48.4066 114.07C50.2883 114.07 51.7497 116.148 52.3155 119.629C52.3708 119.971 52.2734 120.32 52.0494 120.584C51.8244 120.848 51.495 121 51.1485 121ZM47.1323 118.637H49.6804C49.2116 117.012 48.5763 116.433 48.4066 116.433C48.2369 116.433 47.6007 117.013 47.1323 118.637Z" fill="black"/>
<path d="M87.3242 86.5646C87.2765 86.5646 87.2292 86.5617 87.1815 86.5561C78.0781 85.4515 71.7592 80.3274 68.9072 71.7373C68.8041 71.4273 68.8344 71.0884 68.9904 70.8015C69.1463 70.5146 69.4139 70.3047 69.7296 70.222C71.1149 69.8595 72.4833 69.4038 73.7973 68.8669C74.1102 68.7251 74.4817 68.7204 74.8135 68.8863C74.8149 68.8868 74.8163 68.8872 74.8177 68.8882C77.1531 70.0632 79.4441 69.9214 81.1017 69.5159C80.2821 69.2176 79.4847 68.84 78.6784 68.3687C78.3234 68.1617 78.1018 67.785 78.0932 67.3743C78.0838 66.9635 78.2889 66.5778 78.6344 66.3552C80.6565 65.0516 82.5093 63.455 83.9925 61.7378C84.2652 61.4221 84.6821 61.2732 85.0947 61.3469C85.505 61.4202 85.8467 61.7047 85.9927 62.0952C87.268 65.4983 88.2393 69.3774 88.8788 73.6247C89.3458 76.7229 90.2254 79.9516 91.493 83.2205C91.633 83.5807 91.5871 83.9867 91.3716 84.3076C91.1556 84.6281 90.7968 84.8228 90.4102 84.8295C89.5575 84.8432 88.7781 85.2842 88.3248 86.0087C88.1079 86.3576 87.7274 86.5646 87.3242 86.5646ZM71.5692 72.159C74.2198 79.0044 79.3354 83.0234 86.7953 84.12C87.3403 83.4985 88.0289 83.031 88.797 82.7545C87.7288 79.7735 86.9716 76.8269 86.5424 73.9777C86.0386 70.6346 85.3244 67.5373 84.4145 64.7411C83.543 65.6013 82.5939 66.4185 81.5904 67.1734C81.84 67.2726 82.0919 67.3629 82.3462 67.4442C83.2674 67.7382 83.8809 68.5876 83.8724 69.5579C83.8634 70.524 83.2376 71.3583 82.3155 71.6343C80.3332 72.228 77.3639 72.616 74.2477 71.2321C73.3719 71.5757 72.4762 71.8858 71.5692 72.159Z" fill="black"/>
<path d="M99.5343 118.549C98.8475 118.549 98.1617 118.469 97.482 118.303C91.0487 116.736 87.613 108.081 89.8236 99.0105C92.0347 89.9407 99.0716 83.8378 105.5 85.4051C111.934 86.9729 115.369 95.6277 113.159 104.698C111.182 112.81 105.347 118.549 99.5343 118.549ZM103.398 87.517C98.6755 87.517 93.8341 92.5361 92.1197 99.5702C90.2182 107.374 92.8746 114.748 98.0417 116.008C103.205 117.265 108.961 111.943 110.863 104.139C112.764 96.3348 110.108 88.9609 104.941 87.7013C104.431 87.577 103.915 87.517 103.398 87.517Z" fill="black"/>
<path d="M21.8859 118.549C16.0727 118.549 10.2382 112.81 8.26155 104.698C6.05094 95.6282 9.48668 86.9734 15.92 85.4051C22.3543 83.8359 29.386 89.9403 31.5966 99.0105C33.8072 108.08 30.3715 116.735 23.9381 118.303C23.2585 118.469 22.5722 118.549 21.8859 118.549ZM18.0219 87.517C17.5048 87.517 16.9892 87.577 16.4792 87.7013C11.3116 88.9609 8.65528 96.3348 10.5572 104.139C12.4592 111.942 18.2095 117.265 23.3785 116.008C28.5461 114.748 31.2024 107.374 29.3004 99.5702C27.5861 92.5366 22.7442 87.517 18.0219 87.517Z" fill="black"/>
<path d="M78.7166 72.1745C75.3423 72.1745 71.0983 70.7032 67.5771 64.8418C67.4825 64.6844 67.4263 64.5076 67.4116 64.3251L67.3804 63.9224C67.3374 63.376 67.6768 62.8717 68.1986 62.7049C70.0632 62.1089 71.5743 61.2964 72.5678 60.3544C72.8316 60.1043 73.1955 59.9895 73.5538 60.0429C73.913 60.0963 74.2278 60.3114 74.4074 60.6266C75.7682 63.0145 78.2496 66.1359 82.3461 67.4428C83.2678 67.7368 83.8813 68.5866 83.8724 69.557C83.8634 70.5231 83.2376 71.3573 82.3154 71.6333C81.3351 71.9278 80.0987 72.1745 78.7166 72.1745ZM70.1653 64.5104C73.7741 69.8746 77.9807 70.2858 81.1016 69.5163C77.2377 68.1229 74.6806 65.3952 73.0774 62.9743C72.2474 63.5542 71.2666 64.0723 70.1653 64.5104ZM81.6277 69.6955H81.6324H81.6277Z" fill="black"/>
<path d="M43.6257 72.1707C42.237 72.1707 41.0044 71.9221 40.0425 71.6338C39.1203 71.3577 38.4946 70.5235 38.4856 69.5574C38.4766 68.587 39.0901 67.7372 40.0118 67.4432C43.9802 66.1765 46.4295 63.1917 47.7846 60.9106C47.9619 60.6124 48.2615 60.4068 48.6032 60.3491C48.9459 60.2914 49.2962 60.3869 49.5613 60.61C50.4683 61.3738 51.7426 62.0525 53.2471 62.5725C53.6928 62.7266 54.0048 63.1312 54.0397 63.6019L54.1688 65.3427C54.1886 65.6131 54.1154 65.8825 53.9603 66.1051C50.6035 70.9281 46.7273 72.1707 43.6257 72.1707ZM41.2563 69.5163C44.2113 70.2432 48.2469 69.9289 51.7814 65.0917L51.7398 64.5349C50.7609 64.1507 49.8846 63.7083 49.118 63.2124C47.5303 65.5332 45.013 68.1607 41.2563 69.5163Z" fill="black"/>
</g>
<defs>
<clipPath id="clip0_226_792">
<rect width="121" height="121" fill="white"/>
</clipPath>
</defs>
</svg>
