<svg xmlns="http://www.w3.org/2000/svg" version="1.1" xmlns:xlink="http://www.w3.org/1999/xlink" xmlns:svgjs="http://svgjs.com/svgjs" width="512" height="512" x="0" y="0" viewBox="0 0 512 512" style="enable-background:new 0 0 512 512" xml:space="preserve"><g><g xmlns="http://www.w3.org/2000/svg"><path d="m0 256c0-141.385 114.615-256 256-256s256 114.615 256 256c0 83.6-40.073 157.84-102.057 204.561-42.844-32.294-310.822-2.239-312.272-3.381-59.482-46.878-97.671-119.569-97.671-201.18z" fill="#4BCD5C" data-original="#4bcd5c" style=""></path><path d="m463.732 256c0 114.727-93.005 207.732-207.732 207.732s-207.732-93.005-207.732-207.732 93.005-207.732 207.732-207.732 207.732 93.005 207.732 207.732z" fill="#74D579" data-original="#74d579" style=""></path><path d="m461.912 142.023h-98.598c-4.142 0-7.5 3.357-7.5 7.5s3.358 7.5 7.5 7.5h41.772v40.799c0 4.143 3.358 7.5 7.5 7.5h41.826v42.8c0 4.143 3.358 7.5 7.5 7.5s7.5-3.357 7.5-7.5v-98.599c0-4.143-3.358-7.5-7.5-7.5zm-41.826 48.299v-33.299h34.326v33.299z" fill="#FFFFFF" data-original="#ffffff" style=""></path><path d="m141.643 293.989h-41.772v-40.799c0-4.143-3.358-7.5-7.5-7.5h-41.826v-42.8c0-4.143-3.358-7.5-7.5-7.5s-7.5 3.357-7.5 7.5v98.599c0 4.143 3.358 7.5 7.5 7.5h98.598c4.142 0 7.5-3.357 7.5-7.5s-3.358-7.5-7.5-7.5zm-91.098-33.299h34.326v33.299h-34.326zm-13.012-99.203v-27.667c0-4.143 3.358-7.5 7.5-7.5h47.338c4.142 0 7.5 3.357 7.5 7.5s-3.358 7.5-7.5 7.5h-39.838v20.167c0 4.143-3.358 7.5-7.5 7.5s-7.5-3.357-7.5-7.5zm431.879 162.709c0 4.142-3.358 7.5-7.5 7.5h-25.752c-4.142 0-7.5-3.358-7.5-7.5s3.358-7.5 7.5-7.5h25.753c4.141 0 7.499 3.357 7.499 7.5zm0-30.413c0 4.142-3.358 7.5-7.5 7.5h-49.326c-4.142 0-7.5-3.358-7.5-7.5s3.358-7.5 7.5-7.5h49.326c4.142 0 7.5 3.358 7.5 7.5z" fill="#AFE6AF" data-original="#afe6af" style=""></path><path d="m172.512 310v-197.128h207.66v197.128c0 58.681-45.949 106.629-103.83 109.829-57.881-3.2-103.83-51.148-103.83-109.829z" fill="#883F2E" data-original="#883f2e" style=""></path><path d="m278.009 419.594c-3.134.268-6.305.406-9.508.406h-25.002c-60.751 0-110-49.249-110-110v-180c0-60.751 49.249-110 110-110h25.002c3.203 0 6.374.137 9.508.406-56.299 4.82-100.491 52.046-100.491 109.594v180c0 57.548 44.192 104.774 100.491 109.594z" fill="#6D3326" data-original="#6d3326" style=""></path><path d="m135.17 395.488v61.691c.087.069.175.137.263.206-.174 2.011-.263 4.047-.263 6.103 0 0-5.025 15.508-7.499 14.072-10.496-6.092-20.519-12.908-30-20.381v-61.691c0-38.66 31.34-70 70-70h37.499c-38.66 0-70 31.34-70 70z" fill="#005F80" data-original="#005f80" style=""></path><path d="m417.671 395.488v59.013c-44.08 35.945-100.359 57.499-161.671 57.499-46.765 0-90.601-12.54-128.329-34.439v-82.073c0-38.66 31.34-70 70-70h150c38.66 0 70 31.34 70 70z" fill="#007298" data-original="#007298" style=""></path><path d="m417.671 395.488v28.013c-44.08 35.945-100.359 57.499-161.671 57.499-12.083 0-23.97-.837-35.607-2.456-3.786-.527-7.545 29.864-11.275 29.173-29.188-5.402-56.638-15.755-81.447-30.156v-82.073c0-38.66 31.34-70 70-70h12.946l8.426 13.001h75.574l6.766-13.001h46.288c38.66 0 70 31.34 70 70z" fill="#007298" data-original="#007298" style=""></path><path d="m147.671 235.488c-13.807 0-25-11.193-25-25v-10c0-13.807 11.193-25 25-25 13.807 0 25 11.193 25 25v10c0 13.807-11.193 25-25 25z" fill="#FFCEBF" data-original="#ffcebf" style=""></path><path d="m392.671 200.488v9.404c0 13.714-10.792 25.324-24.503 25.591-2.645.051-5.199-.308-7.602-1.019-12.254 32.332-39.31 57.383-72.895 66.883v24.141h13.712v73.338c0 5.686-4.609 10.295-10.295 10.295h-70.177c-5.686 0-10.295-4.609-10.295-10.295v-73.338h17.054v-24.142c-46.17-13.059-80-55.508-80-105.858v-40c0-60.751 49.249-110 110-110 60.751 0 110 49.249 110 110v20c13.808 0 25.001 11.193 25.001 25zm-245.002-25c-13.806.001-24.998 11.194-24.998 25v10c0 13.806 11.192 24.999 24.998 25-6.071-4.561-9.998-11.822-9.998-20v-20c0-8.178 3.927-15.439 9.998-20z" fill="#FFBFAB" data-original="#ffbfab" style=""></path><path d="m367.671 155.488v40c0 50.792-34.425 93.543-81.216 106.195-9.023 2.44-18.545 2.44-27.568 0-46.791-12.652-81.216-55.403-81.216-106.195v-40c0-55.663 41.345-101.669 95-108.985 53.655 7.316 95 53.322 95 108.985z" fill="#FFCEBF" data-original="#ffcebf" style=""></path><path d="m243.171 202.219c-2.929-2.93-2.929-7.678 0-10.607 2.929-2.928 7.678-2.928 10.606 0 1.042 1.042 2.424 1.616 3.893 1.616s2.851-.574 3.893-1.616c2.929-2.928 7.678-2.928 10.606 0 2.929 2.93 2.929 7.678 0 10.607-3.875 3.875-9.024 6.009-14.5 6.009s-10.623-2.134-14.498-6.009zm44.803 27.601c-2.929-2.928-7.678-2.928-10.606 0-10.861 10.861-28.532 10.861-39.394 0-2.929-2.928-7.678-2.928-10.606 0-2.929 2.93-2.929 7.678 0 10.607 8.354 8.354 19.329 12.531 30.303 12.531s21.949-4.177 30.303-12.531c2.929-2.929 2.929-7.677 0-10.607z" fill="#FFA78F" data-original="#ffa78f" style=""></path><path d="m236.116 150.34c2.929 2.929 2.928 7.678 0 10.606-5.361 5.36-12.403 8.041-19.445 8.041s-14.084-2.681-19.445-8.041c-2.929-2.929-2.929-7.678 0-10.606 2.93-2.93 7.677-2.929 10.607-.001 4.874 4.873 12.804 4.873 17.678 0 2.928-2.929 7.676-2.928 10.605.001zm82 0c-2.929-2.929-7.678-2.93-10.607-.001-4.874 4.873-12.804 4.873-17.678 0-2.93-2.928-7.677-2.929-10.607.001-2.929 2.929-2.928 7.678 0 10.606 5.361 5.36 12.403 8.041 19.445 8.041s14.084-2.681 19.445-8.041c2.931-2.928 2.931-7.677.002-10.606z" fill="#F89580" data-original="#f89580" style=""></path><path d="m301.383 489.511h-90.766v-90.766h90.766z" fill="#FFFFFF" data-original="#ffffff" style=""></path><path d="m172.512 381.214v116.863c-5.074-1.75-10.076-3.654-15-5.708v-111.155c0-4.142 3.358-7.5 7.5-7.5s7.5 3.358 7.5 7.5zm177.817-7.5c-4.142 0-7.5 3.358-7.5 7.5v115.685c5.076-1.83 10.078-3.816 15-5.952v-109.733c0-4.142-3.358-7.5-7.5-7.5z" fill="#005F80" data-original="#005f80" style=""></path><path d="m195.029 117.702v7.298c0 5.523-4.477 10-10 10h-34.936c-5.523 0-10-4.477-10-10v-7.298c0-5.523 4.477-10 10-10h34.936c5.522 0 10 4.477 10 10z" fill="#6D3326" data-original="#6d3326" style=""></path><path d="m378.663 131.351v34.137c0 5.523-4.477 10-10 10-20.282 0-36.723-16.442-36.723-36.723v-3.765h-147.068c-5.523 0-10-4.477-10-10v-7.298c0-5.523 4.477-10 10-10h174.887c5.523 0 10 4.477 10 10v3.709c5.007.546 8.904 4.788 8.904 9.94z" fill="#883F2E" data-original="#883f2e" style=""></path><path d="m378.663 102.127v5.745c0 2.761-2.239 5-5 5h-235.326c-2.761 0-5-2.239-5-5v-5.745c0-46.944 38.056-85 85-85h75.326c46.944.001 85 38.056 85 85z" fill="#FFF261" data-original="#fff261" style=""></path><path d="m176.007 102.127v5.745c0 2.761 2.239 5 5 5h-42.67c-2.761 0-5-2.239-5-5v-5.745c0-46.944 38.056-85 85-85h42.67c-46.944.001-85 38.056-85 85z" fill="#FFEF31" data-original="#ffef31" style=""></path><path d="m384.329 120h-256.658c-2.761 0-5-2.239-5-5v-10c0-2.761 2.239-5 5-5h256.659c2.761 0 5 2.239 5 5v10c-.001 2.761-2.239 5-5.001 5zm-117.329-120h-22c-2.761 0-5 2.239-5 5v80c0 2.761 2.239 5 5 5h22c2.761 0 5-2.239 5-5v-80c0-2.761-2.239-5-5-5zm-53.67 15v70c0 2.761-2.239 5-5 5h-22c-2.761 0-5-2.239-5-5v-70c0-2.761 2.239-5 5-5h22c2.761 0 5 2.239 5 5zm117.34 0v70c0 2.761-2.239 5-5 5h-22c-2.761 0-5-2.239-5-5v-70c0-2.761 2.239-5 5-5h22c2.762 0 5 2.239 5 5z" fill="#EAD000" data-original="#ead000" style=""></path><path d="m254.171 5v80c0 2.761 2.239 5 5 5h-14.171c-2.761 0-5-2.239-5-5v-80c0-2.761 2.239-5 5-5h14.171c-2.762 0-5 2.239-5 5zm58.67 80v-70c0-2.761 2.239-5 5-5h-14.171c-2.761 0-5 2.239-5 5v70c0 2.761 2.239 5 5 5h14.171c-2.762 0-5-2.239-5-5zm-112.341-75h-14.17c-2.761 0-5 2.239-5 5v70c0 2.761 2.239 5 5 5h14.17c-2.761 0-5-2.239-5-5v-70c0-2.761 2.239-5 5-5zm-25.329 90h-47.5c-2.761 0-5 2.239-5 5v10c0 2.761 2.239 5 5 5h47.5c-2.761 0-5-2.239-5-5v-10c0-2.761 2.238-5 5-5z" fill="#D8C100" data-original="#d8c100" style=""></path><path d="m482.399 511.968c-.464.021-.93.032-1.399.032h-212.872c-17.121 0-31-13.879-31-31 0-17.121 13.879-31 31-31h212.872c.469 0 .935.011 1.399.032-16.471.731-29.601 14.316-29.601 30.968 0 16.652 13.13 30.237 29.601 30.968z" fill="#8ABBD5" data-original="#8abbd5" style=""></path><path d="m482.399 511.968c-.464.021-.93.032-1.399.032h-219.834c-17.121 0-24.038-13.879-24.038-31 0-3.969.746-7.762 2.105-11.25 4.504 11.559 15.743 19.75 28.895 19.75h185.851c3.572 12.559 14.864 21.866 28.42 22.468z" fill="#6DACCB" data-original="#6daccb" style=""></path><path d="m223.101 459.909 132.482-48.889c14.694-5.422 31.041 1.126 38.099 15.108.094.186.187.371.28.557 8.192 16.326.284 36.154-16.852 42.477l-115.945 42.787c-1.718.034-3.44.051-5.166.051-16.013 0-31.683-1.47-46.882-4.283-1.799-2.376-3.283-5.053-4.368-7.993-5.926-16.062 2.29-33.888 18.352-39.815z" fill="#AFEAF2" data-original="#afeaf2" style=""></path><path d="m469.724 434.986-104.324 38.498c-16.062 5.927-33.888-2.289-39.815-18.351-5.927-16.062 2.289-33.888 18.351-39.815l104.324-38.498c16.062-5.927 33.888 2.289 39.815 18.351 5.927 16.062-2.289 33.888-18.351 39.815z" fill="#D5F3F7" data-original="#d5f3f7" style=""></path><path d="m512 481c0 17.121-13.879 31-31 31-17.121 0-31-13.879-31-31 0-17.121 13.879-31 31-31 17.121 0 31 13.879 31 31z" fill="#D9E7EC" data-original="#d9e7ec" style=""></path><path d="m495.809 482.809c4.34 16.021 1.705 29.191-14.809 29.191-16.514 0-30.011-12.912-30.948-29.191z" fill="#B5D3E3" data-original="#b5d3e3" style=""></path><path d="m480.92 383.974c12.106 12.106 12.106 31.734 0 43.841-12.106 12.106-31.734 12.106-43.841 0-12.106-12.106-12.106-31.734 0-43.841 12.107-12.106 31.735-12.106 43.841 0z" fill="#AFEAF2" data-original="#afeaf2" style=""></path><path d="m470.75 396.702c14.398 8.26 21.847 19.436 10.17 31.113-11.677 11.677-30.351 12.091-42.525 1.242z" fill="#87E0EC" data-original="#87e0ec" style=""></path></g></g></svg>