<svg width="80" height="80" viewBox="0 0 80 80" fill="none" xmlns="http://www.w3.org/2000/svg">
<path d="M0 40C0 17.9086 17.9086 0 40 0C62.0914 0 80 17.9086 80 40C80 53.0625 73.7386 64.6625 64.0536 71.9627C57.3592 66.9167 15.4877 71.6128 15.2611 71.4344C5.96703 64.1097 0 52.7517 0 40H0Z" fill="#4BCD5C"/>
<path d="M72.4581 40C72.4581 57.9261 57.9261 72.4581 40 72.4581C22.0739 72.4581 7.54187 57.9261 7.54187 40C7.54187 22.0739 22.0739 7.54187 40 7.54187C57.9261 7.54187 72.4581 22.0739 72.4581 40Z" fill="#74D579"/>
<path d="M72.1738 22.191H56.7678C56.1206 22.191 55.5959 22.7156 55.5959 23.3629C55.5959 24.0103 56.1206 24.5348 56.7678 24.5348H63.2947V30.9096C63.2947 31.557 63.8194 32.0815 64.4666 32.0815H71.0019V38.769C71.0019 39.4163 71.5266 39.9409 72.1738 39.9409C72.8209 39.9409 73.3456 39.4163 73.3456 38.769V23.3629C73.3456 22.7156 72.8209 22.191 72.1738 22.191ZM65.6384 29.7378V24.5348H71.0019V29.7378H65.6384Z" fill="white"/>
<path d="M22.1316 45.9358H15.6048V39.561C15.6048 38.9136 15.0801 38.3891 14.4329 38.3891H7.89758V31.7016C7.89758 31.0543 7.3729 30.5297 6.72571 30.5297C6.07852 30.5297 5.55383 31.0543 5.55383 31.7016V47.1077C5.55383 47.7551 6.07852 48.2796 6.72571 48.2796H22.1316C22.7788 48.2796 23.3035 47.7551 23.3035 47.1077C23.3035 46.4604 22.7788 45.9358 22.1316 45.9358ZM7.89758 40.7329H13.261V45.9358H7.89758V40.7329ZM5.86446 25.2324V20.9094C5.86446 20.2621 6.38915 19.7375 7.03633 19.7375H14.4329C15.0801 19.7375 15.6048 20.2621 15.6048 20.9094C15.6048 21.5568 15.0801 22.0813 14.4329 22.0813H8.20821V25.2324C8.20821 25.8797 7.68352 26.4043 7.03633 26.4043C6.38915 26.4043 5.86446 25.8797 5.86446 25.2324ZM73.3456 50.6557C73.3456 51.3029 72.8209 51.8276 72.1737 51.8276H68.1499C67.5027 51.8276 66.9781 51.3029 66.9781 50.6557C66.9781 50.0085 67.5027 49.4838 68.1499 49.4838H72.1738C72.8209 49.4838 73.3456 50.0083 73.3456 50.6557ZM73.3456 45.9036C73.3456 46.5508 72.8209 47.0755 72.1737 47.0755H64.4665C63.8193 47.0755 63.2946 46.5508 63.2946 45.9036C63.2946 45.2565 63.8193 44.7318 64.4665 44.7318H72.1737C72.8209 44.7318 73.3456 45.2565 73.3456 45.9036Z" fill="#AFE6AF"/>
<path d="M26.955 48.4375V17.6362H59.4018V48.4375C59.4018 57.6064 52.2223 65.0983 43.1784 65.5983C34.1345 65.0983 26.955 57.6064 26.955 48.4375Z" fill="#883F2E"/>
<path d="M43.4389 65.5616C42.9493 65.6034 42.4538 65.625 41.9533 65.625H38.0468C28.5544 65.625 20.8593 57.9298 20.8593 48.4375V20.3125C20.8593 10.8202 28.5544 3.125 38.0468 3.125H41.9533C42.4538 3.125 42.9493 3.14641 43.4389 3.18844C34.6422 3.94156 27.7372 11.3206 27.7372 20.3125V48.4375C27.7372 57.4294 34.6422 64.8084 43.4389 65.5616Z" fill="#6D3326"/>
<path d="M21.1203 61.795V71.4343C21.1339 71.445 21.1477 71.4557 21.1614 71.4664C21.1342 71.7807 21.1203 72.0988 21.1203 72.42C21.1203 72.42 20.3352 74.8432 19.9486 74.6188C18.3086 73.6669 16.7425 72.6019 15.2611 71.4343V61.795C15.2611 55.7544 20.158 50.8575 26.1986 50.8575H32.0578C26.0172 50.8575 21.1203 55.7544 21.1203 61.795Z" fill="#005F80"/>
<path d="M65.2611 61.795V71.0158C58.3736 76.6322 49.58 80.0001 40 80.0001C32.693 80.0001 25.8436 78.0407 19.9486 74.619V61.795C19.9486 55.7544 24.8455 50.8575 30.8861 50.8575H54.3236C60.3642 50.8575 65.2611 55.7544 65.2611 61.795Z" fill="#007298"/>
<path d="M65.2611 61.7951V66.1721C58.3736 71.7885 49.58 75.1563 40 75.1563C38.1121 75.1563 36.2547 75.0255 34.4364 74.7726C33.8449 74.6902 33.2575 79.4388 32.6747 79.3308C28.1141 78.4868 23.825 76.8691 19.9486 74.619V61.7951C19.9486 55.7544 24.8455 50.8575 30.8861 50.8575H32.9089L34.2255 52.889H46.0339L47.0911 50.8575H54.3236C60.3642 50.8575 65.2611 55.7544 65.2611 61.7951Z" fill="#007298"/>
<path d="M23.0736 36.795C20.9163 36.795 19.1674 35.0461 19.1674 32.8888V31.3263C19.1674 29.1689 20.9163 27.42 23.0736 27.42C25.231 27.42 26.9799 29.1689 26.9799 31.3263V32.8888C26.9799 35.0461 25.231 36.795 23.0736 36.795Z" fill="#FFCEBF"/>
<path d="M61.3549 31.3263V32.7957C61.3549 34.9385 59.6686 36.7525 57.5263 36.7943C57.113 36.8022 56.7139 36.7461 56.3385 36.635C54.4238 41.6869 50.1963 45.6011 44.9486 47.0855V50.8575H47.0911V62.3166C47.0911 63.205 46.371 63.9252 45.4825 63.9252H34.5174C33.6289 63.9252 32.9088 63.205 32.9088 62.3166V50.8575H35.5735V47.0854C28.3594 45.0449 23.0735 38.4122 23.0735 30.545V24.295C23.0735 14.8027 30.7686 7.10754 40.261 7.10754C49.7533 7.10754 57.4485 14.8027 57.4485 24.295V27.42C59.606 27.42 61.3549 29.169 61.3549 31.3263ZM23.0733 27.42C20.9161 27.4202 19.1674 29.1691 19.1674 31.3263V32.8888C19.1674 35.046 20.9161 36.7949 23.0733 36.795C22.1247 36.0824 21.5111 34.9479 21.5111 33.67V30.545C21.5111 29.2672 22.1247 28.1327 23.0733 27.42Z" fill="#FFBFAB"/>
<path d="M57.4486 24.295V30.545C57.4486 38.4813 52.0697 45.1611 44.7586 47.138C43.3488 47.5192 41.861 47.5192 40.4511 47.138C33.14 45.1611 27.7611 38.4813 27.7611 30.545V24.295C27.7611 15.5977 34.2213 8.40924 42.6049 7.26611C50.9884 8.40924 57.4486 15.5977 57.4486 24.295Z" fill="#FFCEBF"/>
<path d="M37.9954 31.5968C37.5378 31.139 37.5378 30.3971 37.9954 29.9394C38.4531 29.4819 39.1951 29.4819 39.6526 29.9394C39.8154 30.1023 40.0314 30.1919 40.2609 30.1919C40.4904 30.1919 40.7064 30.1023 40.8692 29.9394C41.3268 29.4819 42.0689 29.4819 42.5264 29.9394C42.984 30.3973 42.984 31.1391 42.5264 31.5968C41.9209 32.2023 41.1164 32.5357 40.2608 32.5357C39.4051 32.5357 38.6009 32.2023 37.9954 31.5968ZM44.9959 35.9094C44.5383 35.4519 43.7962 35.4519 43.3387 35.9094C41.6417 37.6065 38.8806 37.6065 37.1834 35.9094C36.7258 35.4519 35.9837 35.4519 35.5262 35.9094C35.0686 36.3673 35.0686 37.1091 35.5262 37.5668C36.8315 38.8721 38.5464 39.5247 40.2611 39.5247C41.9758 39.5247 43.6906 38.8721 44.9959 37.5668C45.4536 37.1091 45.4536 36.3673 44.9959 35.9094Z" fill="#FFA78F"/>
<path d="M36.8931 23.4907C37.3507 23.9483 37.3506 24.6903 36.8931 25.1478C36.0554 25.9853 34.9551 26.4043 33.8548 26.4043C32.7545 26.4043 31.6542 25.9853 30.8165 25.1478C30.3589 24.6902 30.3589 23.9482 30.8165 23.4907C31.2743 23.0328 32.016 23.033 32.4739 23.4905C33.2354 24.2519 34.4745 24.2519 35.236 23.4905C35.6935 23.0328 36.4354 23.033 36.8931 23.4907ZM49.7056 23.4907C49.2479 23.033 48.5059 23.0328 48.0482 23.4905C47.2867 24.2519 46.0476 24.2519 45.286 23.4905C44.8282 23.033 44.0865 23.0328 43.6287 23.4907C43.171 23.9483 43.1712 24.6903 43.6287 25.1478C44.4663 25.9853 45.5667 26.4043 46.667 26.4043C47.7673 26.4043 48.8676 25.9853 49.7053 25.1478C50.1632 24.6903 50.1632 23.9483 49.7056 23.4907Z" fill="#F89580"/>
<path d="M47.0911 76.4862H32.9089V62.304H47.0911V76.4862Z" fill="white"/>
<path d="M26.955 59.5647V77.8245C26.1621 77.5511 25.3806 77.2536 24.6112 76.9327V59.5647C24.6112 58.9175 25.1359 58.3928 25.7831 58.3928C26.4303 58.3928 26.955 58.9175 26.955 59.5647ZM54.7389 58.3928C54.0917 58.3928 53.567 58.9175 53.567 59.5647V77.6405C54.3601 77.3545 55.1417 77.0442 55.9107 76.7105V59.5647C55.9107 58.9175 55.3861 58.3928 54.7389 58.3928Z" fill="#005F80"/>
<path d="M30.4733 18.3909V19.5312C30.4733 20.3941 29.7737 21.0937 28.9108 21.0937H23.452C22.5891 21.0937 21.8895 20.3941 21.8895 19.5312V18.3909C21.8895 17.5279 22.5891 16.8284 23.452 16.8284H28.9108C29.7736 16.8284 30.4733 17.5279 30.4733 18.3909Z" fill="#6D3326"/>
<path d="M59.1661 20.5235V25.8574C59.1661 26.7204 58.4665 27.4199 57.6036 27.4199C54.4345 27.4199 51.8656 24.8509 51.8656 21.682V21.0937H28.8862C28.0233 21.0937 27.3237 20.3942 27.3237 19.5312V18.3909C27.3237 17.5279 28.0233 16.8284 28.8862 16.8284H56.2123C57.0753 16.8284 57.7748 17.5279 57.7748 18.3909V18.9704C58.5572 19.0557 59.1661 19.7185 59.1661 20.5235Z" fill="#883F2E"/>
<path d="M59.166 15.9574V16.8551C59.166 17.2865 58.8162 17.6363 58.3848 17.6363H21.6151C21.1837 17.6363 20.8339 17.2865 20.8339 16.8551V15.9574C20.8339 8.6224 26.7801 2.67615 34.1151 2.67615H45.8848C53.2198 2.6763 59.166 8.6224 59.166 15.9574Z" fill="#FFF261"/>
<path d="M27.501 15.9574V16.8551C27.501 17.2865 27.8509 17.6363 28.2823 17.6363H21.6151C21.1837 17.6363 20.8339 17.2865 20.8339 16.8551V15.9574C20.8339 8.6224 26.7801 2.67615 34.1151 2.67615H40.7823C33.4473 2.6763 27.501 8.6224 27.501 15.9574Z" fill="#FFEF31"/>
<path d="M60.0514 18.75H19.9486C19.5172 18.75 19.1674 18.4002 19.1674 17.9688V16.4062C19.1674 15.9748 19.5172 15.625 19.9486 15.625H60.0516C60.483 15.625 60.8328 15.9748 60.8328 16.4062V17.9688C60.8327 18.4002 60.483 18.75 60.0514 18.75ZM41.7188 0H38.2813C37.8499 0 37.5 0.349844 37.5 0.78125V13.2812C37.5 13.7127 37.8499 14.0625 38.2813 14.0625H41.7188C42.1502 14.0625 42.5 13.7127 42.5 13.2812V0.78125C42.5 0.349844 42.1502 0 41.7188 0ZM33.3328 2.34375V13.2812C33.3328 13.7127 32.983 14.0625 32.5516 14.0625H29.1141C28.6827 14.0625 28.3328 13.7127 28.3328 13.2812V2.34375C28.3328 1.91234 28.6827 1.5625 29.1141 1.5625H32.5516C32.983 1.5625 33.3328 1.91234 33.3328 2.34375ZM51.6672 2.34375V13.2812C51.6672 13.7127 51.3174 14.0625 50.886 14.0625H47.4485C47.017 14.0625 46.6672 13.7127 46.6672 13.2812V2.34375C46.6672 1.91234 47.017 1.5625 47.4485 1.5625H50.886C51.3175 1.5625 51.6672 1.91234 51.6672 2.34375Z" fill="#EAD000"/>
<path d="M39.7142 0.78125V13.2812C39.7142 13.7127 40.0641 14.0625 40.4955 14.0625H38.2813C37.8499 14.0625 37.5 13.7127 37.5 13.2812V0.78125C37.5 0.349844 37.8499 0 38.2813 0H40.4955C40.0639 0 39.7142 0.349844 39.7142 0.78125ZM48.8814 13.2812V2.34375C48.8814 1.91234 49.2313 1.5625 49.6627 1.5625H47.4485C47.0171 1.5625 46.6672 1.91234 46.6672 2.34375V13.2812C46.6672 13.7127 47.0171 14.0625 47.4485 14.0625H49.6627C49.2311 14.0625 48.8814 13.7127 48.8814 13.2812ZM31.3281 1.5625H29.1141C28.6827 1.5625 28.3328 1.91234 28.3328 2.34375V13.2812C28.3328 13.7127 28.6827 14.0625 29.1141 14.0625H31.3281C30.8967 14.0625 30.5469 13.7127 30.5469 13.2812V2.34375C30.5469 1.91234 30.8967 1.5625 31.3281 1.5625ZM27.3705 15.625H19.9486C19.5172 15.625 19.1674 15.9748 19.1674 16.4062V17.9688C19.1674 18.4002 19.5172 18.75 19.9486 18.75H27.3705C26.9391 18.75 26.5892 18.4002 26.5892 17.9688V16.4062C26.5892 15.9748 26.9389 15.625 27.3705 15.625Z" fill="#D8C100"/>
<path d="M75.3749 79.995C75.3024 79.9983 75.2295 80 75.1563 80H41.895C39.2199 80 37.0513 77.8314 37.0513 75.1562C37.0513 72.4811 39.2199 70.3125 41.895 70.3125H75.1563C75.2295 70.3125 75.3024 70.3142 75.3749 70.3175C72.8013 70.4317 70.7497 72.5544 70.7497 75.1562C70.7497 77.7581 72.8013 79.8808 75.3749 79.995Z" fill="#8ABBD5"/>
<path d="M75.3749 79.995C75.3024 79.9983 75.2295 80 75.1563 80H40.8072C38.132 80 37.0513 77.8314 37.0513 75.1562C37.0513 74.5361 37.1678 73.9434 37.3802 73.3984C38.0839 75.2045 39.84 76.4844 41.895 76.4844H70.9342C71.4924 78.4467 73.2567 79.9009 75.3749 79.995Z" fill="#6DACCB"/>
<path d="M34.8595 71.8608L55.5599 64.2219C57.8558 63.3747 60.41 64.3979 61.5128 66.5825C61.5275 66.6116 61.542 66.6405 61.5566 66.6696C62.8366 69.2205 61.6009 72.3186 58.9234 73.3066L40.807 79.9921C40.5386 79.9974 40.2695 80 39.9998 80C37.4978 80 35.0494 79.7704 32.6745 79.3308C32.3934 78.9596 32.1616 78.5413 31.992 78.0819C31.0661 75.5722 32.3498 72.7869 34.8595 71.8608Z" fill="#AFEAF2"/>
<path d="M73.3943 67.9665L57.0937 73.9819C54.584 74.9079 51.7987 73.6242 50.8726 71.1145C49.9465 68.6048 51.2303 65.8195 53.74 64.8934L70.0406 58.8781C72.5503 57.952 75.3356 59.2358 76.2617 61.7454C77.1878 64.2551 75.904 67.0404 73.3943 67.9665Z" fill="#D5F3F7"/>
<path d="M80 75.1562C80 77.8314 77.8314 80 75.1562 80C72.4811 80 70.3125 77.8314 70.3125 75.1562C70.3125 72.4811 72.4811 70.3125 75.1562 70.3125C77.8314 70.3125 80 72.4811 80 75.1562Z" fill="#D9E7EC"/>
<path d="M77.4702 75.439C78.1483 77.9422 77.7366 80 75.1563 80C72.576 80 70.4671 77.9826 70.3207 75.439H77.4702Z" fill="#B5D3E3"/>
<path d="M75.1437 59.9959C77.0353 61.8875 77.0353 64.9544 75.1437 66.8461C73.2522 68.7377 70.1853 68.7377 68.2936 66.8461C66.402 64.9545 66.402 61.8877 68.2936 59.9959C70.1853 58.1044 73.2522 58.1044 75.1437 59.9959Z" fill="#AFEAF2"/>
<path d="M73.5547 61.9846C75.8044 63.2752 76.9683 65.0215 75.1438 66.846C73.3193 68.6706 70.4015 68.7352 68.4993 67.0401L73.5547 61.9846Z" fill="#87E0EC"/>
</svg>
