<svg width="48" height="48" viewBox="0 0 48 48" fill="none" xmlns="http://www.w3.org/2000/svg">
<path d="M20.5 26C20.5 27.38 19.38 28.5 18 28.5C16.62 28.5 15.5 27.38 15.5 26C15.5 24.62 16.62 23.5 18 23.5C19.38 23.5 20.5 24.62 20.5 26ZM30 23.5C28.62 23.5 27.5 24.62 27.5 26C27.5 27.38 28.62 28.5 30 28.5C31.38 28.5 32.5 27.38 32.5 26C32.5 24.62 31.38 23.5 30 23.5ZM44 24C44 35.04 35.04 44 24 44C12.96 44 4 35.04 4 24C4 12.96 12.96 4 24 4C35.04 4 44 12.96 44 24ZM21.32 8.24C24.12 12.88 29.2 16 35 16C35.92 16 36.82 15.9 37.68 15.76C34.88 11.12 29.8 8 24 8C23.08 8 22.18 8.1 21.32 8.24ZM8.84 18.94C12.26 17 14.9 13.84 16.16 10.06C12.74 12 10.1 15.16 8.84 18.94ZM40 24C40 22.44 39.76 20.94 39.34 19.52C37.94 19.82 36.5 20 35 20C28.74 20 23.16 17.12 19.48 12.62C17.38 17.74 13.2 21.76 8 23.72C8.02 23.8 8 23.9 8 24C8 32.82 15.18 40 24 40C32.82 40 40 32.82 40 24Z" fill="#FFA000"/>
</svg>
