<svg width="191" height="210" viewBox="0 0 191 210" fill="none" xmlns="http://www.w3.org/2000/svg">
<rect x="9.63708" y="0.5" width="168.949" height="208.239" rx="41.5" fill="#DED5EF" stroke="#FFA000"/>
<g clip-path="url(#clip0_234_628)">
<path d="M151.878 168.694C151.16 163.311 147.822 158.634 142.964 156.205L135.906 152.676C134.855 152.15 133.65 152.617 133.135 153.614L129.579 152.305C154.1 145.625 167.114 133.874 167.114 133.874C154.211 108.684 157.693 70.3869 147.453 48.6785C137.213 26.9701 117.963 19.1879 95.0254 19.1879C72.0883 19.1879 52.8374 26.9701 42.5976 48.6785C32.3578 70.3869 35.8393 108.684 22.9372 133.874C22.9372 133.874 35.9516 145.625 60.4726 152.305L56.9165 153.614C56.4078 152.615 55.2045 152.146 54.1551 152.67L47.7187 155.888C42.2261 158.635 38.8912 163.311 38.1736 168.693L38.0147 169.884C38.0147 169.885 38.0147 169.885 38.0147 169.885L34.2514 198.109C33.4658 204.002 38.0503 209.239 43.9956 209.239H146.056C152.001 209.239 156.585 204.002 155.799 198.109L151.878 168.694Z" fill="#FFD7A3"/>
<path d="M147.453 48.6785C137.213 26.9701 117.963 19.1879 95.0254 19.1879C72.0883 19.1879 52.8374 26.9701 42.5976 48.6785C32.3578 70.3869 35.8393 108.684 22.9372 133.874C22.9372 133.874 48.3319 156.811 95.0254 156.811C141.719 156.811 167.114 133.874 167.114 133.874C154.211 108.684 157.693 70.3869 147.453 48.6785Z" fill="#9D6E48"/>
<path d="M75.365 77.7595C75.365 54.8224 83.9292 33.4036 101.225 19.4131C99.1885 19.2776 97.1287 19.1879 95.0254 19.1879C72.0883 19.1879 52.8374 26.9701 42.5976 48.6785C32.3578 70.3869 35.8393 108.684 22.9372 133.874C22.9372 133.874 41.5454 150.214 75.365 155.281C75.365 155.281 75.365 95.7816 75.365 77.7595Z" fill="#8D5F3D"/>
<path d="M152.037 169.885C151.233 163.859 147.159 158.774 141.454 156.675L119.167 148.475C116.491 147.583 114.686 145.078 114.686 142.258V120.767H75.3654V142.257C75.3654 145.078 73.5603 147.582 70.8845 148.474L48.5977 156.674C42.8925 158.774 38.8187 163.859 38.0151 169.885L34.2518 198.109C33.4662 204.002 38.0507 209.239 43.9956 209.239H146.056C152.001 209.239 156.586 204.002 155.8 198.109L152.037 169.885Z" fill="#FFD7A3"/>
<path d="M75.3649 142.258C75.3649 142.418 75.358 142.576 75.3461 142.733C75.3404 142.815 75.3297 142.895 75.3207 142.977C75.3133 143.042 75.3068 143.108 75.2974 143.173C75.2797 143.298 75.2572 143.422 75.2326 143.546C75.2322 143.548 75.2318 143.551 75.231 143.554C74.8673 145.356 73.7618 146.924 72.1902 147.87C99.6017 152.605 114.686 131.689 114.686 131.689L75.3649 131.416V142.258Z" fill="#FDC88E"/>
<path d="M140.9 84.7226V78.1691C140.9 69.1208 133.564 61.7854 124.516 61.7854H65.5348C56.4865 61.7854 49.1511 69.1208 49.1511 78.1691V84.7226C43.7219 84.7226 39.3209 89.124 39.3209 94.5528C39.3209 99.9819 43.7219 104.383 49.1511 104.383V107.66C49.1511 115.596 53.9232 122.755 61.2496 125.808L82.4218 134.63C86.4154 136.294 90.6989 137.15 95.025 137.15C99.3511 137.15 103.634 136.293 107.628 134.63L128.801 125.808C136.128 122.755 140.9 115.597 140.9 107.66V104.383C146.329 104.383 150.73 99.9819 150.73 94.5528C150.73 89.1236 146.329 84.7226 140.9 84.7226Z" fill="#FFE1B2"/>
<path d="M123.697 71.4621V63.0142H59.3135C53.3514 65.464 49.1511 71.324 49.1511 78.1691V84.7226C43.7219 84.7226 39.3209 89.1237 39.3209 94.5528C39.3209 99.982 43.7219 104.383 49.1511 104.383V107.66C49.1511 115.597 53.9232 122.755 61.2496 125.808L82.4214 134.63C83.4577 135.061 84.5153 135.433 85.5863 135.756C76.2296 128.911 70.0014 122.927 66.3519 119.015C63.6969 116.168 62.258 112.412 62.258 108.519V84.6767C72.828 84.4166 106.365 82.7021 123.697 71.4621Z" fill="#FFD7A3"/>
<path d="M72.0883 97.8296C70.2861 97.8296 68.8115 96.3551 68.8115 94.5529V91.2761C68.8115 89.4739 70.2861 87.9994 72.0883 87.9994C73.8905 87.9994 75.365 89.4739 75.365 91.2761V94.5529C75.365 96.3551 73.8905 97.8296 72.0883 97.8296Z" fill="#623F33"/>
<path d="M117.963 97.8296C116.16 97.8296 114.686 96.3551 114.686 94.5529V91.2761C114.686 89.4739 116.16 87.9994 117.963 87.9994C119.765 87.9994 121.239 89.4739 121.239 91.2761V94.5529C121.239 96.3551 119.765 97.8296 117.963 97.8296Z" fill="#623F33"/>
<path d="M95.0254 120.856C89.1998 120.856 83.7506 119.423 80.0753 116.922C78.5795 115.905 78.1904 113.866 79.2098 112.37C80.2256 110.876 82.2658 110.487 83.7616 111.505C86.3376 113.257 90.5486 114.303 95.0254 114.303C99.5023 114.303 103.713 113.257 106.289 111.505C107.788 110.484 109.824 110.875 110.841 112.37C111.86 113.866 111.471 115.905 109.976 116.922C106.301 119.423 100.851 120.856 95.0254 120.856Z" fill="#E4B07B"/>
<path d="M55.7046 78.1691C55.7046 78.1691 76.5938 80.2171 88.4719 74.8924C90.1435 74.1432 95.0254 63.4238 95.0254 63.4238V78.1691C95.0254 78.1691 110.093 77.3897 125.745 71.0725V59.3279H53.4723C54.9603 66.8222 55.7046 78.1691 55.7046 78.1691Z" fill="#9D6E48"/>
<path d="M142.964 156.205L135.906 152.676C134.71 152.078 133.315 152.763 132.964 154.053C128.422 170.748 113.159 183.026 95.025 183.026C76.8862 183.026 61.6207 170.742 57.0824 154.04C56.7335 152.757 55.3449 152.076 54.1555 152.67L47.7192 155.888C42.2265 158.635 38.8916 163.311 38.174 168.693L34.2518 198.109C33.4662 204.002 38.0507 209.238 43.9956 209.238H146.056C152.001 209.238 156.586 204.002 155.8 198.109L151.878 168.693C151.16 163.311 147.822 158.634 142.964 156.205Z" fill="#FF6473"/>
<path d="M39.6661 163.825C38.9235 165.354 38.4017 166.982 38.1732 168.694L34.2509 198.109C33.4653 204.002 38.0499 209.239 43.9951 209.239H58.9813V196.132C58.9813 191.878 57.6014 187.739 55.0492 184.335L39.6661 163.825Z" fill="#F05467"/>
<path d="M150.385 163.825C151.127 165.354 151.649 166.982 151.878 168.694L155.8 198.109C156.585 204.002 152.001 209.239 146.056 209.239H131.069V196.132C131.069 191.878 132.449 187.739 135.002 184.335L150.385 163.825Z" fill="#F05467"/>
<path d="M135.985 61.6417C135.985 66.053 127.084 69.6287 122.673 69.6287C118.262 69.6287 114.686 66.053 114.686 61.6417C114.686 57.2303 118.262 53.6546 122.673 53.6546C127.084 53.6546 135.985 57.2308 135.985 61.6417Z" fill="#BD445A"/>
<path d="M135.985 61.6417C135.985 57.2303 144.885 53.6546 149.296 53.6546C153.708 53.6546 157.283 57.2303 157.283 61.6417C157.283 66.053 153.708 69.6287 149.296 69.6287C144.885 69.6287 135.985 66.053 135.985 61.6417Z" fill="#BD445A"/>
<path d="M135.985 61.6417C139.805 63.8474 138.451 73.3433 136.246 77.1636C134.04 80.9839 129.155 82.2925 125.335 80.0873C121.515 77.882 120.206 72.9968 122.412 69.1766C124.618 65.3563 132.165 59.4361 135.985 61.6417Z" fill="#FF6473"/>
<path d="M135.985 61.6417C132.164 59.436 133.518 49.94 135.724 46.1198C137.929 42.2995 142.814 40.9909 146.634 43.1961C150.455 45.4013 151.763 50.2866 149.558 54.1068C147.352 57.9271 139.805 63.8473 135.985 61.6417Z" fill="#FF6473"/>
<path d="M135.985 61.6417C132.164 63.8474 133.518 73.3433 135.724 77.1636C137.929 80.9839 142.814 82.2925 146.634 80.0873C150.455 77.882 151.763 72.9968 149.558 69.1766C147.352 65.3563 139.805 59.4361 135.985 61.6417Z" fill="#F05467"/>
<path d="M135.985 61.6417C139.805 59.436 138.451 49.94 136.246 46.1198C134.04 42.2995 129.155 40.9909 125.335 43.1961C121.515 45.4013 120.206 50.2866 122.412 54.1068C124.618 57.9271 132.165 63.8473 135.985 61.6417Z" fill="#F05467"/>
<path d="M135.985 66.9664C138.925 66.9664 141.309 64.5825 141.309 61.6417C141.309 58.701 138.925 56.317 135.985 56.317C133.044 56.317 130.66 58.701 130.66 61.6417C130.66 64.5825 133.044 66.9664 135.985 66.9664Z" fill="white"/>
<path d="M53.4706 59.3279C54.9595 66.8222 55.705 78.1691 55.705 78.1691C55.705 78.1691 65.1547 79.0903 74.9558 78.077C74.9558 77.9721 74.9558 77.8619 74.9558 77.7595C74.9558 71.4575 75.6521 65.2768 76.996 59.3279H53.4706Z" fill="#8D5F3D"/>
</g>
<defs>
<clipPath id="clip0_234_628">
<rect width="190.051" height="190.051" fill="white" transform="translate(0 19.1879)"/>
</clipPath>
</defs>
</svg>
