<svg xmlns="http://www.w3.org/2000/svg" version="1.1" xmlns:xlink="http://www.w3.org/1999/xlink" xmlns:svgjs="http://svgjs.com/svgjs" width="512" height="512" x="0" y="0" viewBox="0 0 512 512" style="enable-background:new 0 0 512 512" xml:space="preserve" class=""><g><g xmlns="http://www.w3.org/2000/svg"><path d="m302.489 492.874c-14.796-74.73-62.052-105.724-89.123-117.598-3.837-1.684-7.039 3.306-3.961 6.15 33.206 30.678 49.518 69.511 57.053 105.566l.044 4.484 7.485 12.052 4.934.863h24.06l3.102-3.146v-6.597z" fill="#00C02C" data-original="#95d6a4" class=""></path><path d="m285.651 499.914-.048-4.901c-8.152-39.008-25.716-80.986-61.27-114.355-3.902-2.123-7.591-3.902-10.967-5.382-3.837-1.684-7.039 3.306-3.961 6.15 33.206 30.678 49.518 69.511 57.053 105.566l.044 4.484 7.485 12.052 4.934.863h9.511z" fill="#07A408" data-original="#78c2a4" class=""></path><g><path d="m307.43 403.99c-2.13-63.137-30.25-93.947-30.534-94.251-2.862-3.064-2.717-7.876.336-10.749s7.844-2.749 10.73.295c1.32 1.391 32.343 34.877 34.682 104.191.142 4.201-3.149 7.723-7.35 7.864-4.185.144-7.722-3.135-7.864-7.35z" fill="#00C02C" data-original="#95d6a4" class=""></path></g><path d="m357.828 275.803c-7.743.058-15.923-.817-23.474-2.116-14.776 36.343-37.194 112.46-31.385 230.703h34.431l2.383-1.582 2.283-10.402-2.157-2.266c-2.844-62.084-1.035-142.602 17.919-214.337z" fill="#4BDC11" data-original="#b3e59f" class=""></path><path d="m349.739 275.546c-5.199-.343-10.427-1.007-15.385-1.86-14.776 36.343-37.194 112.46-31.385 230.703h16.908c-3.891-110.444 14.593-186.161 29.862-228.843z" fill="#00C02C" data-original="#95d6a4" class=""></path><g><path d="m106.078 314.451c-2.146-63.605-30.23-93.933-30.514-94.232-2.892-3.05-2.765-7.867.286-10.76 3.05-2.892 7.868-2.765 10.761.286 1.32 1.391 32.343 34.877 34.681 104.192.142 4.201-3.149 7.723-7.35 7.864-4.186.144-7.722-3.135-7.864-7.35z" fill="#00C02C" data-original="#95d6a4" class=""></path></g><path d="m105.519 403.181-4.546-5.171c-23.211-53.271-62.617-78.079-87.258-88.887-4.345-1.906-7.97 3.743-4.485 6.963 60.686 56.066 71.553 136.193 71.191 188.304h30.305l3.926-10.377z" fill="#00C02C" data-original="#95d6a4" class=""></path><path d="m31.444 318.239c-6.39-3.788-12.406-6.781-17.729-9.116-4.345-1.906-7.97 3.743-4.485 6.963 60.686 56.066 71.553 136.193 71.191 188.304h19.928c.358-51.449-10.236-130.202-68.905-186.151z" fill="#07A408" data-original="#78c2a4" class=""></path><path d="m156.475 186.263-1.672-2.673-20.352-1.903-1.45 2.459c-18.22 44.811-48.06 150.083-22.275 320.242h26.678l6.425-5.556v-92.268l-5.272-5.965c-2.844-62.082-1.036-142.601 17.918-214.336z" fill="#4BDC11" data-original="#b3e59f" class=""></path><path d="m149.693 183.112-15.242-1.425-1.45 2.459c-18.22 44.811-48.06 150.083-22.275 320.242h18.678c-24.868-167.259 2.003-272.996 20.289-321.276z" fill="#00C02C" data-original="#95d6a4" class=""></path><path d="m242.316 504.389h36.603c-21.038-33.001-47.422-52.905-66.396-63.956-4.815-2.805-9.8 3.302-6.163 7.525 15.341 17.816 27.078 36.891 35.956 56.431z" fill="#4BDC11" data-original="#b3e59f" class=""></path><path d="m223.522 447.361c-3.859-2.617-7.552-4.921-10.999-6.928-4.815-2.805-9.8 3.302-6.164 7.525 15.342 17.816 27.079 36.891 35.957 56.431h17.591c-8.878-19.54-20.614-38.615-35.956-56.431-.168-.194-.298-.396-.429-.597z" fill="#00C02C" data-original="#95d6a4" class=""></path><path d="m372.352 504.389c5.679-40.548 21.45-87.274 60.08-122.964 3.078-2.844-.124-7.833-3.961-6.15-28.422 12.467-79.093 46.008-91.088 129.113h34.969z" fill="#00C02C" data-original="#95d6a4" class=""></path><path d="m432.98 380.798c2.071-2.884-.941-7.088-4.51-5.522-28.421 12.467-79.093 46.008-91.088 129.113h15.73c10.541-73.022 50.939-107.775 79.868-123.591z" fill="#07A408" data-original="#78c2a4" class=""></path><path d="m227.118 285.736c-36.997 16.229-111.708 68.153-89.714 218.653h34.722s-26.688-133.382 58.953-212.503c3.078-2.844-.123-7.833-3.961-6.15z" fill="#00C02C" data-original="#95d6a4" class=""></path><path d="m231.41 291.521c2.468-2.882-.612-7.4-4.292-5.785-36.997 16.229-111.708 68.153-89.714 218.653h15.989c-19.862-135.917 39.144-191.431 78.017-212.868z" fill="#07A408" data-original="#78c2a4" class=""></path><g><path d="m384.222 512h-348.848c-4.204 0-7.611-3.407-7.611-7.611s3.408-7.612 7.611-7.612h348.848c4.204 0 7.612 3.407 7.612 7.612s-3.408 7.611-7.612 7.611z" fill="#4BDC11" data-original="#b3e59f" class=""></path></g><path d="m179.163 1.09c-2.536-1.76-5.983-1.353-8.014.972-2.349 2.69-6.9 6.494-15.72 11.098-7.147 3.731-9.788 9.006-10.379 14.022l.992 4.157 23.681 30.661 30.408-26.769v-2.83c-.064-14.651-13.228-25.938-20.968-31.311z" fill="#740BAE" data-original="#bf7fe3" class=""></path><path d="m155.96 42.474c.651-5.527 3.56-11.337 11.433-15.447 9.716-5.073 14.73-9.263 17.317-12.226 1.941-2.223 5.055-2.849 7.671-1.71-4.24-5.24-9.392-9.345-13.219-12.002-2.536-1.76-5.983-1.353-8.014.972-2.349 2.69-6.9 6.494-15.72 11.098-7.147 3.731-9.788 9.006-10.379 14.022l.992 4.157 10.507 13.604z" fill="#670A9A" data-original="#b166db" class=""></path><path d="m219.091 55.398-5.138 3.387-37.468 42.63v22.193l5.208 2.18c7.849 11.027 24.085 24.634 56.491 17.003 47.037-11.076 68.163-4.86 74.007-28.248 7.91-31.66-46.63-89.952-93.1-59.145z" fill="#740BAE" data-original="#bf7fe3" class=""></path><path d="m237.848 118.371c-32.263-1.63-44.341-18.233-49.117-30.888l-12.245 13.932v22.193l5.208 2.18c7.849 11.027 24.085 24.634 56.491 17.003 43.516-10.247 64.844-5.712 72.422-23.492-12.399 9.907-31.975 1.132-72.759-.928z" fill="#670A9A" data-original="#b166db" class=""></path><path d="m261.218 88.036c-11.777-12.915-30.93-13.627-43.868-12.284l-2.127 1.554-12.178 18.569.444 2.594c24.607 17.992 47.675 4.673 56.92-2.351 2.565-1.951 2.981-5.701.809-8.082z" fill="#FFCA2B" data-original="#ffe07d" class=""></path><path d="m257.376 84.445c-10.754 6.163-28.227 11.802-46.922.132l-7.41 11.298.444 2.594c24.607 17.992 47.675 4.673 56.92-2.351 2.566-1.95 2.981-5.7.81-8.082-1.207-1.324-2.495-2.513-3.842-3.591z" fill="#FFA000" data-original="#ffd064" class=""></path><path d="m187.976 154.071c-6.93-22.017-7.828-40.52-7.603-50.822l-1.305-2.602-6.477-5.835-16.992 5.835-16.999-7.992-50.997 7.865-2.259 2.617c-13.524 8.967-26.935 22.374-28.568 40.81-3.588 40.511 31.724 27.626 56.394 35.478 24.672 7.853 88.312 17.558 74.806-25.354z" fill="#8839B4" data-original="#cc98e9" class=""></path><path d="m82.796 152.549c1.803-24.615 15.568-43.049 30.395-55.975l-25.589 3.947-2.259 2.617c-13.524 8.967-26.935 22.374-28.568 40.81-2.27 25.632 11.034 29.887 27.362 31.544-1.503-5.919-2.039-13.406-1.341-22.943z" fill="#740BAE" data-original="#bf7fe3" class=""></path><path d="m156.952 101.789-19.868-8.204-15.314 4.652-1.545 2.611c-6.068 7.648-10.528 18.774-9.293 34.814.346 4.494 4.54 7.656 8.984 6.903 12.792-2.168 36.681-10.152 39.368-39.499z" fill="#FFCA2B" data-original="#ffe07d" class=""></path><path d="m129.877 130.587c-1.235-16.039 3.225-27.166 9.293-34.814l.631-1.066-2.717-1.122-15.314 4.652-1.545 2.611c-6.068 7.648-10.528 18.774-9.293 34.814.346 4.494 4.54 7.656 8.984 6.903 4.49-.761 10.347-2.244 16.175-5.111-3.283-.629-5.941-3.331-6.214-6.867z" fill="#FFA000" data-original="#ffd064" class=""></path><path d="m133.018 43.815-7.865-19.663-2.119-2.387c-6.945-4.121-17.021-7.523-28.155-2.981-20.723 8.454-11.138 35.055-29.028 51.903-17.532 16.512 6.093 48.128 71.233 25.187l1.389-4.496z" fill="#740BAE" data-original="#bf7fe3" class=""></path><path d="m88.245 74.777c17.89-16.849 8.305-43.449 29.028-51.903 1.702-.694 3.375-1.183 5.019-1.532-6.912-3.921-16.665-6.943-27.414-2.558-20.723 8.454-11.138 35.055-29.028 51.903-13.184 12.416-3.091 33.371 30.423 33.248-14.914-6.701-17.574-20.167-8.028-29.158z" fill="#670A9A" data-original="#b166db" class=""></path><path d="m171.245 60.856-1.591-2.071c-2.258-6.18-4.98-11.419-7.844-15.806-7.867-12.052-20.687-19.987-34.908-22.203-4.222-.658-7.341 3.882-5.169 7.562 1.965 3.33 4.167 7.71 6.411 13.407 7.143 18.13-7.066 42.5 10.68 55.544s33.302.748 33.302.748l.98-2.761z" fill="#9132C2" data-original="#dbb3ef" class=""></path><path d="m156.274 97.289c-17.746-13.044-3.537-37.414-10.68-55.544-2.244-5.696-4.446-10.077-6.411-13.407-.826-1.4-.883-2.923-.408-4.238-3.786-1.554-7.767-2.685-11.872-3.324-4.222-.658-7.341 3.882-5.169 7.562 1.965 3.33 4.167 7.71 6.411 13.407 7.143 18.13-7.066 42.5 10.68 55.544 10.21 7.505 19.688 6.619 25.903 4.516-2.723-.943-5.558-2.387-8.454-4.516z" fill="#8839B4" data-original="#cc98e9" class=""></path><path d="m222.125 27.578c-17.307 1.811-49.395 9.352-55.145 40.222-1.242 6.667-1.515 12.218-1.092 16.839 1.652 18.06 23.44 26.366 37.026 14.354 7.413-6.554 15.409-16.856 15.066-30.637-.361-14.532 4.641-25.931 9.004-33.043 2.217-3.612-.645-8.176-4.859-7.735z" fill="#8839B4" data-original="#cc98e9" class=""></path><path d="m185.678 88.09c-.423-4.621-.149-10.171 1.093-16.839 4.387-23.553 24.103-33.519 40.891-37.728.572-3.159-2-6.316-5.537-5.946-17.307 1.811-49.395 9.352-55.144 40.222-1.242 6.667-1.515 12.218-1.093 16.839 1.339 14.636 15.901 22.862 28.606 19.064-4.765-3.473-8.198-8.86-8.816-15.612z" fill="#740BAE" data-original="#bf7fe3" class=""></path><path d="m370.367 91.644c-2.536-1.76-5.983-1.353-8.014.972-2.349 2.69-6.9 6.494-15.72 11.098-7.147 3.731-9.788 9.006-10.379 14.022l.992 4.157 23.68 30.659 30.408-26.769v-2.83c-.063-14.649-13.227-25.936-20.967-31.309z" fill="#740BAE" data-original="#bf7fe3" class=""></path><path d="m347.164 133.029c.651-5.527 3.56-11.337 11.433-15.447 9.716-5.073 14.73-9.263 17.317-12.226 1.941-2.223 5.055-2.849 7.671-1.71-4.24-5.24-9.392-9.345-13.219-12.002-2.536-1.76-5.983-1.353-8.014.972-2.349 2.69-6.9 6.494-15.72 11.098-7.147 3.731-9.788 9.006-10.379 14.022l.992 4.157 10.507 13.604z" fill="#670A9A" data-original="#b166db" class=""></path><path d="m410.295 145.952-5.138 3.387-37.468 42.63v22.193l5.208 2.18c7.849 11.027 24.085 24.634 56.491 17.003 47.037-11.076 68.163-4.86 74.007-28.248 7.91-31.659-46.63-89.952-93.1-59.145z" fill="#740BAE" data-original="#bf7fe3" class=""></path><path d="m429.051 208.925c-32.263-1.63-44.341-18.233-49.117-30.888l-12.245 13.932v22.193l5.208 2.18c7.849 11.027 24.085 24.634 56.491 17.003 43.516-10.247 64.844-5.712 72.422-23.492-12.399 9.907-31.975 1.133-72.759-.928z" fill="#670A9A" data-original="#b166db" class=""></path><path d="m452.422 178.59c-11.777-12.915-30.93-13.627-43.868-12.284l-2.127 1.554-12.178 18.569.444 2.594c24.607 17.992 47.675 4.673 56.92-2.351 2.565-1.95 2.981-5.7.809-8.082z" fill="#FFCA2B" data-original="#ffe07d" class=""></path><path d="m448.579 174.999c-10.754 6.163-28.227 11.802-46.922.132l-7.41 11.298.444 2.594c24.607 17.992 47.675 4.673 56.92-2.351 2.566-1.95 2.981-5.7.81-8.082-1.206-1.324-2.494-2.513-3.842-3.591z" fill="#FFA000" data-original="#ffd064" class=""></path><path d="m379.179 244.625c-6.93-22.017-7.828-40.52-7.603-50.822l-1.305-2.602-6.477-5.835-16.992 5.835-16.999-7.992-50.997 7.865-2.259 2.617c-13.524 8.967-26.935 22.374-28.568 40.81-3.588 40.511 31.724 27.626 56.394 35.478 24.672 7.853 88.313 17.558 74.806-25.354z" fill="#8839B4" data-original="#cc98e9" class=""></path><path d="m274 243.104c1.803-24.615 15.568-43.049 30.395-55.975l-25.589 3.947-2.259 2.617c-13.524 8.967-26.935 22.374-28.568 40.81-2.27 25.632 11.034 29.887 27.362 31.544-1.503-5.92-2.039-13.407-1.341-22.943z" fill="#740BAE" data-original="#bf7fe3" class=""></path><path d="m348.156 192.343-19.868-8.204-15.314 4.652-1.545 2.611c-6.068 7.648-10.528 18.774-9.293 34.814.346 4.494 4.54 7.656 8.984 6.903 12.792-2.168 36.681-10.152 39.368-39.499z" fill="#FFCA2B" data-original="#ffe07d" class=""></path><path d="m321.081 221.141c-1.235-16.039 3.225-27.166 9.293-34.814l.631-1.066-2.717-1.122-15.314 4.652-1.545 2.611c-6.068 7.648-10.528 18.774-9.293 34.814.346 4.494 4.54 7.656 8.984 6.903 4.49-.761 10.347-2.244 16.175-5.111-3.284-.629-5.941-3.331-6.214-6.867z" fill="#FFA000" data-original="#ffd064" class=""></path><path d="m324.222 134.369-7.865-19.663-2.119-2.387c-6.945-4.121-17.021-7.523-28.155-2.981-20.723 8.454-11.138 35.055-29.028 51.903-17.532 16.512 6.093 48.128 71.233 25.187l1.389-4.496z" fill="#740BAE" data-original="#bf7fe3" class=""></path><path d="m279.449 165.332c17.89-16.849 8.305-43.449 29.028-51.903 1.702-.694 3.375-1.183 5.019-1.532-6.912-3.921-16.665-6.943-27.413-2.558-20.723 8.454-11.138 35.055-29.028 51.903-13.184 12.416-3.091 33.371 30.423 33.248-14.915-6.702-17.575-20.168-8.029-29.158z" fill="#670A9A" data-original="#b166db" class=""></path><path d="m362.449 151.41-1.591-2.071c-2.258-6.18-4.98-11.419-7.844-15.806-7.867-12.052-20.687-19.987-34.908-22.203-4.222-.658-7.341 3.882-5.169 7.562 1.965 3.33 4.167 7.71 6.411 13.407 7.143 18.13-7.066 42.5 10.68 55.544s33.302.748 33.302.748l.98-2.761z" fill="#9132C2" data-original="#dbb3ef" class=""></path><path d="m347.477 187.844c-17.746-13.044-3.537-37.414-10.68-55.544-2.244-5.696-4.446-10.077-6.411-13.407-.826-1.4-.883-2.923-.408-4.238-3.786-1.554-7.767-2.685-11.872-3.324-4.222-.658-7.341 3.882-5.169 7.562 1.965 3.33 4.167 7.71 6.411 13.407 7.143 18.13-7.066 42.5 10.68 55.544 10.21 7.505 19.688 6.619 25.903 4.516-2.722-.943-5.558-2.387-8.454-4.516z" fill="#8839B4" data-original="#cc98e9" class=""></path><path d="m413.329 118.132c-17.307 1.811-49.395 9.352-55.145 40.222-1.242 6.667-1.515 12.218-1.092 16.839 1.652 18.06 23.44 26.366 37.026 14.354 7.413-6.554 15.409-16.856 15.066-30.637-.361-14.532 4.641-25.931 9.004-33.043 2.216-3.611-.645-8.175-4.859-7.735z" fill="#8839B4" data-original="#cc98e9" class=""></path><path d="m376.882 178.645c-.423-4.621-.149-10.171 1.093-16.839 4.387-23.553 24.103-33.519 40.891-37.728.572-3.159-2-6.316-5.537-5.946-17.307 1.811-49.395 9.352-55.144 40.222-1.242 6.667-1.515 12.218-1.093 16.839 1.339 14.636 15.901 22.862 28.606 19.064-4.766-3.473-8.199-8.861-8.816-15.612z" fill="#740BAE" data-original="#bf7fe3" class=""></path></g></g></svg>