<svg xmlns="http://www.w3.org/2000/svg" version="1.1" xmlns:xlink="http://www.w3.org/1999/xlink" xmlns:svgjs="http://svgjs.com/svgjs" width="512" height="512" x="0" y="0" viewBox="0 0 256 256" style="enable-background:new 0 0 512 512" xml:space="preserve" class=""><g><g xmlns="http://www.w3.org/2000/svg"><g><g><path d="m128 244.97c-2.209 0-4-1.791-4-4v-103.194c0-2.209 1.791-4 4-4s4 1.791 4 4v103.194c0 2.209-1.791 4-4 4z" fill="#47701F" data-original="#648940" class=""></path></g></g><g><g><g><path d="m90.424 69.233c-3.683-1.629-7.484-4.231-10.931-7.678-6.49-6.49-7.363-16.863-7.315-22.398.019-2.187 1.779-3.948 3.967-3.967 5.535-.048 15.908.825 22.398 7.315 3.446 3.446 6.049 7.248 7.678 10.931z" fill="#FFCA2B" data-original="#ffa91a" class=""></path></g></g><g><g><path d="m98.543 42.506c-1.421-1.421-3.028-2.573-4.729-3.504.952 1.477 1.757 2.966 2.407 4.435l-15.797 15.796c-1.47-.65-2.958-1.455-4.435-2.407.932 1.701 2.083 3.309 3.504 4.729 3.446 3.446 7.248 6.049 10.931 7.677l15.796-15.796c-1.629-3.683-4.231-7.484-7.677-10.93z" fill="#FFA000" data-original="#f79219" class=""></path></g></g><g><g><path d="m165.576 112.792c3.683 1.629 7.484 4.231 10.931 7.678 6.49 6.49 7.363 16.863 7.315 22.398-.019 2.187-1.779 3.948-3.967 3.967-5.535.048-15.908-.825-22.398-7.315-3.446-3.446-6.049-7.248-7.678-10.931z" fill="#FFCA2B" data-original="#ffa91a" class=""></path></g></g><g><g><path d="m176.507 120.469c-2.071-2.071-4.271-3.837-6.496-5.27 3.324 6.071 3.848 13.345 3.811 17.668-.019 2.187-1.779 3.948-3.967 3.967-4.323.037-11.598-.487-17.669-3.811 1.433 2.225 3.199 4.425 5.271 6.496 6.49 6.49 16.863 7.363 22.398 7.315 2.187-.019 3.948-1.779 3.967-3.967.048-5.534-.825-15.907-7.315-22.398z" fill="#FFA000" data-original="#f79219" class=""></path></g></g></g><g><g><g><path d="m84.569 90.938c-4.004.431-8.597.078-13.305-1.183-8.866-2.376-14.808-10.923-17.534-15.74-1.077-1.904-.433-4.309 1.452-5.419 4.769-2.809 14.189-7.24 23.055-4.864 4.708 1.262 8.862 3.253 12.114 5.628z" fill="#FFCA2B" data-original="#ffa91a" class=""></path></g></g><g><g><path d="m79.113 63.978-4.544 16.96c-4.004.431-8.597.078-13.305-1.184-1.956-.524-3.769-1.348-5.437-2.367 3.207 4.71 8.401 10.481 15.437 12.367 4.708 1.262 9.301 1.614 13.305 1.184l5.781-21.578c-3.048-2.226-6.89-4.115-11.237-5.382z" fill="#FFA000" data-original="#f79219" class=""></path></g></g><g><g><path d="m171.431 91.086c4.004-.431 8.597-.078 13.305 1.183 8.866 2.376 14.808 10.923 17.534 15.74 1.077 1.904.433 4.309-1.452 5.419-4.769 2.809-14.189 7.24-23.055 4.864-4.708-1.261-8.862-3.253-12.114-5.628z" fill="#FFCA2B" data-original="#ffa91a" class=""></path></g></g><g><g><path d="m202.271 108.009c-2.125-3.754-6.203-9.775-12.097-13.373.834 1.225 1.534 2.378 2.097 3.373 1.077 1.904.433 4.309-1.452 5.418-4.769 2.809-14.189 7.24-23.055 4.864-.295-.079-.587-.161-.877-.245l-1.237 4.618c3.252 2.375 7.406 4.366 12.114 5.628 8.866 2.376 18.286-2.055 23.055-4.864 1.885-1.11 2.529-3.515 1.452-5.419z" fill="#FFA000" data-original="#f79219" class=""></path></g></g></g><g><g><g><path d="m90.35 112.664c-3.252 2.375-7.406 4.366-12.114 5.628-8.866 2.376-18.286-2.055-23.055-4.864-1.885-1.11-2.529-3.515-1.452-5.419 2.726-4.817 8.668-13.364 17.534-15.74 4.708-1.262 9.301-1.614 13.305-1.183z" fill="#FFCA2B" data-original="#ffa91a" class=""></path></g></g><g><g><path d="m84.569 91.086c-2.275-.245-4.74-.236-7.308.048l3.089 11.53c-3.252 2.375-7.406 4.366-12.114 5.628-4.849 1.299-9.863.563-14.192-.831-.109.188-.215.371-.315.548-1.077 1.904-.433 4.309 1.452 5.418 4.769 2.809 14.189 7.24 23.055 4.864 4.708-1.261 8.862-3.253 12.114-5.628z" fill="#FFA000" data-original="#f79219" class=""></path></g></g><g><g><path d="m165.65 69.36c3.252-2.375 7.406-4.366 12.114-5.628 8.866-2.376 18.286 2.055 23.055 4.864 1.885 1.11 2.529 3.515 1.452 5.419-2.726 4.817-8.668 13.364-17.534 15.74-4.708 1.261-9.301 1.614-13.305 1.183z" fill="#FFCA2B" data-original="#ffa91a" class=""></path></g></g><g><g><path d="m200.819 68.597c-2.161-1.272-5.277-2.878-8.863-4.033-2.854 4.891-8.68 12.903-17.219 15.191-2.033.545-4.045.92-5.998 1.136l2.692 10.048c4.004.431 8.597.078 13.305-1.184 8.866-2.375 14.808-10.923 17.534-15.74 1.078-1.903.434-4.308-1.451-5.418z" fill="#FFA000" data-original="#f79219" class=""></path></g></g></g><g><g><g><path d="m106.22 128.588c-1.629 3.683-4.231 7.484-7.678 10.931-6.49 6.49-16.863 7.363-22.398 7.315-2.187-.019-3.948-1.779-3.967-3.967-.048-5.535.825-15.908 7.315-22.398 3.446-3.446 7.248-6.049 10.931-7.678z" fill="#FFCA2B" data-original="#ffa91a" class=""></path></g></g><g><g><path d="m96.22 118.588c-1.629 3.683-4.231 7.484-7.678 10.931-4.442 4.442-10.703 6.252-15.987 6.938-.316 2.436-.393 4.665-.378 6.411.019 2.187 1.779 3.948 3.967 3.967 5.535.048 15.908-.825 22.398-7.315 3.447-3.447 6.049-7.248 7.678-10.931z" fill="#FFA000" data-original="#f79219" class=""></path></g></g><g><g><path d="m149.78 53.436c1.629-3.683 4.231-7.484 7.678-10.931 6.49-6.49 16.863-7.363 22.398-7.315 2.187.019 3.948 1.779 3.967 3.967.048 5.535-.825 15.908-7.315 22.398-3.446 3.446-7.248 6.049-10.931 7.678z" fill="#FFCA2B" data-original="#ffa91a" class=""></path></g></g><g><g><path d="m183.822 39.157c-.019-2.187-1.779-3.948-3.967-3.967-1.747-.015-3.975.062-6.411.377-.685 5.284-2.495 11.545-6.938 15.987-3.446 3.446-7.248 6.049-10.931 7.677l10 10c3.683-1.629 7.484-4.231 10.931-7.677 6.491-6.489 7.364-16.862 7.316-22.397z" fill="#FFA000" data-original="#f79219" class=""></path></g></g></g><g><g><g><path d="m127.926 134.444c.431 4.004.078 8.597-1.183 13.305-2.376 8.866-10.923 14.808-15.74 17.534-1.904 1.077-4.309.433-5.419-1.452-2.809-4.769-7.24-14.189-4.864-23.055 1.262-4.708 3.253-8.862 5.628-12.114z" fill="#FFCA2B" data-original="#ffa91a" class=""></path></g></g><g><g><path d="m127.926 134.444-10.048-2.692c-.216 1.952-.591 3.964-1.136 5.997-2.288 8.539-10.3 14.365-15.191 17.219 1.155 3.586 2.76 6.702 4.033 8.863 1.11 1.885 3.515 2.529 5.419 1.452 4.817-2.726 13.364-8.668 15.74-17.534 1.261-4.708 1.614-9.301 1.183-13.305z" fill="#FFA000" data-original="#f79219" class=""></path></g></g><g><g><path d="m128.074 47.581c-.431-4.004-.078-8.597 1.183-13.305 2.376-8.866 10.923-14.808 15.74-17.534 1.904-1.077 4.309-.433 5.419 1.452 2.809 4.769 7.24 14.189 4.864 23.055-1.261 4.708-3.253 8.862-5.628 12.114z" fill="#FFCA2B" data-original="#ffa91a" class=""></path></g></g><g><g><path d="m150.416 18.193c-1.11-1.885-3.515-2.529-5.419-1.452-.178.101-.361.206-.548.315 1.394 4.329 2.13 9.343.831 14.192-1.262 4.708-3.253 8.862-5.628 12.115l-11.53-3.09c-.284 2.568-.293 5.033-.048 7.308l21.578 5.782c2.375-3.252 4.366-7.406 5.628-12.115 2.375-8.866-2.056-18.285-4.864-23.055z" fill="#FFA000" data-original="#f79219" class=""></path></g></g></g><g><g><g><path d="m149.652 128.662c2.375 3.252 4.366 7.406 5.628 12.114 2.376 8.866-2.055 18.286-4.864 23.055-1.11 1.885-3.515 2.529-5.419 1.452-4.817-2.726-13.364-8.668-15.74-17.534-1.262-4.708-1.614-9.301-1.183-13.305z" fill="#FFCA2B" data-original="#ffa91a" class=""></path></g></g><g><g><path d="m155.279 140.776c-1.262-4.708-3.253-8.862-5.628-12.115l-4.618 1.237c.085.29.166.583.245.877 2.376 8.866-2.055 18.285-4.864 23.055-1.11 1.885-3.515 2.529-5.419 1.452-.994-.563-2.148-1.263-3.373-2.097 3.598 5.894 9.618 9.972 13.373 12.097 1.904 1.077 4.309.433 5.419-1.452 2.81-4.768 7.241-14.188 4.865-23.054z" fill="#FFA000" data-original="#f79219" class=""></path></g></g><g><g><path d="m106.348 53.363c-2.375-3.252-4.366-7.406-5.628-12.114-2.376-8.866 2.055-18.286 4.864-23.055 1.11-1.885 3.515-2.529 5.419-1.452 4.817 2.726 13.364 8.668 15.74 17.534 1.262 4.708 1.614 9.301 1.183 13.305z" fill="#FFCA2B" data-original="#ffa91a" class=""></path></g></g><g><g><path d="m126.743 34.276c-1.885-7.036-7.657-12.23-12.367-15.437 1.018 1.668 1.843 3.481 2.367 5.437 1.261 4.708 1.614 9.301 1.183 13.305l-16.96 4.545c1.267 4.347 3.156 8.188 5.382 11.237l21.578-5.782c.431-4.004.078-8.597-1.183-13.305z" fill="#FFA000" data-original="#f79219" class=""></path></g></g></g><g><g><circle cx="128" cy="91.012" fill="#8C3F0A" r="44.514" data-original="#8c3f0a" class=""></circle></g></g><g><g><path d="m98.05 117.2c-.6 0-1.16-.261-1.54-.73-.01 0-.01-.01-.01-.01-.7-.86-.57-2.12.29-2.811.83-.67 2.15-.529 2.81.29.01 0 .01.011.01.011.33.42.48.93.43 1.46-.06.529-.32 1.01-.73 1.35-.36.29-.8.44-1.26.44zm-4.35-6.69c-.76 0-1.44-.42-1.78-1.09-2.9-5.66-4.43-12.021-4.43-18.41 0-22.33 18.17-40.51 40.51-40.51 1.1 0 2 .899 2 2 0 1.1-.9 2-2 2-9.73 0-18.9 3.8-25.81 10.7-6.9 6.909-10.7 16.08-10.7 25.81 0 5.84 1.34 11.42 3.98 16.59.51.98.12 2.19-.86 2.69-.29.149-.6.22-.91.22z" fill="#995222" data-original="#995222" class=""></path></g></g><g><g><path d="m159.476 59.536c-1.702-1.702-3.507-3.236-5.396-4.604 12.612 17.403 11.078 41.874-4.604 57.556s-40.153 17.216-57.556 4.604c1.369 1.888 2.903 3.694 4.604 5.396 17.384 17.384 45.568 17.384 62.952 0 17.383-17.384 17.383-45.568 0-62.952z" fill="#7C3108" data-original="#7c3108"></path></g></g><g><g><path d="m159.476 59.536c-.841-.842-1.708-1.642-2.598-2.402 14.941 17.489 14.14 43.811-2.402 60.353s-42.865 17.343-60.353 2.402c.76.89 1.56 1.757 2.402 2.598 17.384 17.384 45.568 17.384 62.952 0 17.382-17.383 17.382-45.567-.001-62.951z" fill="#6D2E03" data-original="#6d2e03" class=""></path></g></g><g><g><g><path d="m124.254 211.215c2.203-.726 3.443-3.036 2.832-5.274-1.915-7.008-7.192-21.621-19.055-27.99-11.863-6.37-26.959-2.696-33.858-.421-2.203.726-3.443 3.036-2.832 5.274 1.915 7.008 7.192 21.621 19.055 27.99s26.959 2.696 33.858.421z" fill="#6CB82A" data-original="#76a34f" class=""></path></g></g></g><g><g><path d="m127.086 205.941c-1.835-6.715-6.757-20.412-17.602-27.149 4.157 6.19 6.469 13.002 7.602 17.149.611 2.238-.629 4.548-2.832 5.274-6.899 2.275-21.995 5.948-33.858-.421-.496-.266-.98-.547-1.453-.841 2.867 4.268 6.611 8.241 11.453 10.841 11.863 6.37 26.959 2.696 33.858.421 2.203-.726 3.444-3.036 2.832-5.274z" fill="#47701F" data-original="#648940" class=""></path></g></g><g><g><g><path d="m132.048 227.97c-2.203-.726-3.443-3.037-2.832-5.274 1.915-7.008 7.192-21.621 19.055-27.99 11.863-6.37 26.959-2.696 33.858-.421 2.203.726 3.443 3.036 2.832 5.274-1.915 7.008-7.192 21.621-19.055 27.99-11.863 6.37-26.959 2.696-33.858.421z" fill="#6CB82A" data-original="#76a34f" class=""></path></g></g></g><g><g><path d="m182.129 194.285c-2.035-.671-4.783-1.464-7.95-2.084-2.409 7.561-7.75 19.698-18.273 25.349-8.364 4.491-18.336 3.99-25.908 2.506-.307.962-.566 1.85-.782 2.642-.611 2.238.629 4.548 2.832 5.274 6.899 2.275 21.995 5.948 33.858-.421s17.14-20.982 19.055-27.99c.611-2.24-.629-4.55-2.832-5.276z" fill="#47701F" data-original="#648940" class=""></path></g></g></g></g></svg>