<svg xmlns="http://www.w3.org/2000/svg" version="1.1" xmlns:xlink="http://www.w3.org/1999/xlink" xmlns:svgjs="http://svgjs.com/svgjs" width="512" height="512" x="0" y="0" viewBox="0 0 512 512" style="enable-background:new 0 0 512 512" xml:space="preserve"><g><path xmlns="http://www.w3.org/2000/svg" d="m469.036 276.015a13.467 13.467 0 0 0 -13.477-13.478h-138.083a13.478 13.478 0 0 0 0 26.956h138.083a13.467 13.467 0 0 0 13.477-13.478zm0 79.979a13.519 13.519 0 0 0 -13.477-13.478h-138.083a13.478 13.478 0 0 0 0 26.956h138.083a13.467 13.467 0 0 0 13.477-13.478zm-165.029-159.958a13.455 13.455 0 0 0 13.469 13.478h79.306a13.478 13.478 0 0 0 0-26.956h-79.306a13.455 13.455 0 0 0 -13.469 13.478zm-160.549 103.6a9.64 9.64 0 0 1 1.394-.459l1.06-.272 1.067.247a44.405 44.405 0 0 0 19.53 0l1.233-.285 1.2.4.658.222 26.614 8.084a26.646 26.646 0 0 1 19.287 23.9q.242 2.892.481 5.784l.184 2.236-1.679 1.49a86.545 86.545 0 0 1 -115.48-.176l-1.664-1.493.657-7.843a26.647 26.647 0 0 1 19.288-23.9l26.166-7.936zm-2.689-42.315a15.987 15.987 0 1 1 15.987 15.962 15.979 15.979 0 0 1 -15.987-15.962zm16.052-68.186a86.816 86.816 0 0 0 -83.466 110.998l2.554 8.773 5.386-7.381a53.76 53.76 0 0 1 28.125-19.687l9.839-2.977-1.973-4.612a42.939 42.939 0 1 1 78.932 0l-1.973 4.612 9.84 2.977a53.789 53.789 0 0 1 28.229 19.838l5.377 7.41 2.569-8.788a86.858 86.858 0 0 0 -83.439-111.16zm0-26.956a113.833 113.833 0 1 0 113.856 113.836 114 114 0 0 0 -113.856-113.833zm355.179 287.832a14.582 14.582 0 0 1 -14.591 14.6h-482.809a14.59 14.59 0 0 1 -14.6-14.6v-347.993a14.641 14.641 0 0 1 14.6-14.6h129.906v11.953a28.147 28.147 0 0 0 28.126 28.158h166.737a28.143 28.143 0 0 0 28.131-28.158v-11.951h129.909a14.634 14.634 0 0 1 14.591 14.598zm-340.546-402.621v53.184h169.092v-53.184z" fill="#FFA000" fill-rule="evenodd" data-original="#ffc007"></path></g></svg>