<svg xmlns="http://www.w3.org/2000/svg" version="1.1" xmlns:xlink="http://www.w3.org/1999/xlink" xmlns:svgjs="http://svgjs.com/svgjs" width="512" height="512" x="0" y="0" viewBox="0 0 512 512" style="enable-background:new 0 0 512 512" xml:space="preserve" class=""><g><g xmlns="http://www.w3.org/2000/svg"><path d="m325.05 426.19v16.77c0 38.13-30.92 69.04-69.05 69.04s-69.05-30.91-69.05-69.04v-16.77z" fill="#48578B" data-original="#48578b"></path><path d="m325.05 426.19v16.77c0 38.13-30.92 69.04-69.05 69.04v-85.81z" fill="#2A396C" data-original="#2a396c"></path><path d="m428.61 172.61c0 42.14-15.1 80.75-40.18 110.71-21.23 25.36-32.64 57.51-32.64 90.59l-99.79 14-99.79-14c0-33.08-11.41-65.24-32.64-90.6-25.08-29.97-40.18-68.56-40.18-110.69-.01-95.39 76.8-172.4 172.19-172.62h.42c95.34 0 172.61 77.28 172.61 172.61z" fill="#FEDD55" data-original="#fedd55"></path><path d="m428.61 172.61c0 42.14-15.1 80.75-40.18 110.71-21.23 25.36-32.64 57.51-32.64 90.59l-99.79 14v-387.91c95.34 0 172.61 77.28 172.61 172.61z" fill="#F9BD3F" data-original="#f9bd3f"></path><path d="m156.21 373.91h199.58v69.05h-199.58z" fill="#62739A" data-original="#62739a"></path><path d="m256 373.91h99.79v69.05h-99.79z" fill="#48578B" data-original="#48578b"></path><path d="m339.91 169.78-8.76-26.96-42.13-6.12-18.85-38.18h-28.34l-18.85 38.18-42.13 6.12-8.76 26.96 30.49 29.72-7.2 41.96 22.93 16.67 37.69-19.82 37.69 19.82 22.93-16.67-7.2-41.96z" fill="#F9BD3F" data-original="#f9bd3f"></path><path d="m309.42 199.5 7.2 41.96-22.93 16.67-37.69-19.82v-139.79h14.17l18.85 38.18 42.13 6.12 8.76 26.96z" fill="#FD9126" data-original="#fd9126"></path><g fill="#F9BD3F"><path d="m0 162.017h46.147v30h-46.147z" fill="#F9BD3F" data-original="#f9bd3f"></path><path d="m30.512 54.89h30v45.671h-30z" transform="matrix(.413 -.911 .911 .413 -44.075 87.04)" fill="#F9BD3F" data-original="#f9bd3f"></path><path d="m22.677 261.308h45.671v30h-45.671z" transform="matrix(.911 -.413 .413 .911 -110.14 43.521)" fill="#F9BD3F" data-original="#f9bd3f"></path></g><path d="m465.853 162.017h46.147v30h-46.147z" fill="#FD9126" data-original="#fd9126"></path><path d="m443.652 62.725h45.671v30h-45.671z" fill="#FD9126" transform="matrix(.911 -.413 .413 .911 9.589 199.771)" data-original="#fd9126"></path><path d="m451.488 253.472h30v45.671h-30z" fill="#FD9126" transform="matrix(.413 -.911 .911 .413 22.069 586.869)" data-original="#fd9126"></path></g></g></svg>