<svg xmlns="http://www.w3.org/2000/svg" version="1.1" xmlns:xlink="http://www.w3.org/1999/xlink" xmlns:svgjs="http://svgjs.com/svgjs" width="512" height="512" x="0" y="0" viewBox="0 0 58 60" style="enable-background:new 0 0 512 512" xml:space="preserve" class=""><g><g xmlns="http://www.w3.org/2000/svg" id="Page-1" fill="none" fill-rule="evenodd"><g id="027---Keys" transform="translate(-1 -1)" fill="none"><g id="Icons_copy" transform="translate(1 8)" fill="none"><path id="Path" d="m50.6 27.22c-2.9286551 4.9537877-8.7718656 7.3847262-14.35 5.97l-13.52 18.14c-.1220333.1672116-.3132271.2701621-.52.28l-5.64.39c-.3496226.0279467-.6659571-.2071668-.74-.55l-1.1-4.89c-.1323626-.5952432-.0011195-1.2186477.36-1.71.2691962-.366998.6525607-.634298 1.09-.76l2.16-.64c.3438701-.0971213.5593936-.4376485.5-.79l-.25-1.77c-.0519889-.3508228.1606807-.6868406.5-.79l2.24-.66c.3409936-.1009524.5547001-.4386086.5-.79-.11-.76-.28-1.7-.26-1.82-.0216189-.3295211.1849325-.6310861.5-.73l2.24-.66c.3438701-.0971213.5593936-.4376485.5-.79l-.3-2.09c-.0228755-.1834707.0234766-.3688791.13-.52l3.59-4.81c-.6463089-1.0959119-1.1249447-2.2823893-1.42-3.52-1.329806-5.3295553.8388444-10.9191855 5.4151227-13.95731332 4.5762783-3.03812786 10.569418-2.86699726 14.9648773.42731332.3918105.287048.7658319.5976193 1.12.93 4.4297405 4.1773675 5.3801863 10.863692 2.29 16.11z" fill="#FFA000" data-original="#9e9e9e" class=""></path><path id="Path" d="m33.25 33.19-13.52 18.14c-.1220333.1672116-.3132271.2701621-.52.28l-3.149.218c.1396921.1233473.3231218.1853314.509.172l5.64-.39c.2067729-.0098379.3979667-.1127884.52-.28l13.237-17.76c-.9165701-.0300688-1.8273502-.1574506-2.717-.38z" fill="#E99200" data-original="#707070" class=""></path><path id="Path" d="m48.31 11.11c-.3541681-.3323807-.7281895-.642952-1.12-.93-2.6574508-1.98556786-5.9756304-2.87542704-9.27-2.486 2.2730044.25986858 4.4364902 1.11767173 6.27 2.486.3918105.287048.7658319.5976193 1.12.93 3.6917175 3.4575709 5.0403464 8.7438546 3.4561922 13.5473981-1.5841541 4.8035434-5.8128977 8.2504729-10.8371922 8.8336019 5.5693179.6490229 10.9263957-2.3492221 13.2856667-7.4357113s1.1880445-11.1127637-2.9046667-14.9452887z" fill="#E99200" data-original="#707070" class=""></path><circle id="Oval" cx="42.401" cy="16.586" fill="#FFA814" r="3" data-original="#fec108" class=""></circle><path id="Path" d="m47.19 10.18c-4.3954593-3.29431058-10.388599-3.46544118-14.9648773-.42731332-4.5762783 3.03812782-6.7449287 8.62775802-5.4151227 13.95731332h-.01l-19.37 11.61c-.17540552.1034032-.38714171.1253069-.58.06l-5.37-1.79c-.33184594-.1091633-.53240905-.44628-.47-.79l.84-4.94c.09456202-.6052905.4587099-1.1349601.99-1.44.38541084-.2383518.83966025-.3404699 1.29-.29l2.25.23c.3471482.0349328.66701999-.1911099.75-.53l.44-1.75c.0926687-.3366183.41209728-.5593777.76-.53l2.33.24c.3553583.0369839.6837211-.1932965.77-.54.18-.75.39-1.69.44-1.79.1104227-.3129975.4195301-.5108262.75-.48l2.33.24c.3485806.040459.6717508-.1879146.75-.53l.53-2.05c.0405635-.18212.152156-.3405095.31-.44l5.16-3.08c-.9301748-6.40141907 2.9876665-12.51285236 9.1929025-14.33999151 6.205236-1.82713916 12.809806 1.18595757 15.4970975 7.06999151.3481049.74627459.6162646 1.52728954.8 2.33z" fill="#FFB537" data-original="#ffdc00" class=""></path><g fill="#FEC108"><path id="Path" d="m3.066 26.328.314.032c.21383273.0169513.42382092-.0639548.571-.22-.30550806-.0059711-.60830161.0583511-.885.188z" fill="#FFA814" data-original="#fec108" class=""></path><path id="Path" d="m12.538 20.985c-.1952778.001891-.3808879.0852706-.512.23.1959901.0014234.3828925-.0825367.512-.23z" fill="#FFA814" data-original="#fec108" class=""></path><path id="Path" d="m43.39 7.85c.066.141.114.289.174.432 1.3015971.43745816 2.5254953 1.07877272 3.626 1.9-.1837354-.80271046-.4518951-1.58372541-.8-2.33-2.3478515-5.15404805-7.7604859-8.196835-13.384-7.524 4.5445952.50336523 8.4891347 3.36072525 10.384 7.522z" fill="#FFA814" data-original="#fec108" class=""></path><path id="Path" d="m8.253 23.556c-.19252754.0033075-.37519068.0857772-.505.228.19252754-.0033075.37519068-.0857772.505-.228z" fill="#FFA814" data-original="#fec108" class=""></path><path id="Path" d="m25.99 12.82c-2.3303052 3.1161436-3.1312017 7.1169524-2.18 10.89h-.01l-18.569 11.13 1.619.54c.19285829.0653069.40459448.0434032.58-.06l19.37-11.61h.01c-.9083763-3.6224724-.2083854-7.4607486 1.9202512-10.5293574 2.1286366-3.0686087 5.478584-5.06865957 9.1897488-5.4866426-4.6067541-.54459988-9.1542044 1.40931716-11.93 5.126z" fill="#FFA814" data-original="#fec108" class=""></path></g></g><g id="Icons" fill="#000"><path id="Path" d="m33.556 37.791-12.868 17.256c-.3313708.4418278-.2418278 1.0686292.2 1.4s1.0686292.2418278 1.4-.2l12.871-17.261c.2143594-.2858125.2599565-.6642735.1196153-.9928203-.1403412-.3285469-.4452995-.5572657-.8-.6000001-.3547006-.0427344-.705256.1070079-.9196153.3928204z" fill="#000000" data-original="#000000" class=""></path><path id="Shape" d="m2.168 42.537 5.338 1.783c.17919585.0652328.36830234.0990623.559.1.30985903-.0012924.61371806-.0855443.88-.244l18.26-10.94c.2313199.6578065.5110866 1.2975596.837 1.914l-3.2 4.29c-.2677727.3632941-.3823135.8171486-.319 1.264l.264 1.852-1.985.588c-.7383458.2144049-1.2428177.8952168-1.233 1.664.0192924.4183925.0711155.8346491.155 1.245l.078.5-2 .591c-.8116034.2465772-1.3220227 1.0483007-1.202 1.888l.217 1.531-1.922.572c-1.5638321.4578353-2.5022212 2.0526152-2.143 3.642l1.1 4.876c.1655175.7798877.8507725 1.3399839 1.648 1.347.045 0 .091 0 .137-.006l5.61-.384c.5099782-.0219096.9825336-.2738165 1.285-.685l13.134-17.61c4.9640809 1.001987 10.0818433-.759552 13.3775781-4.6045759 3.2957348-3.845024 4.2538332-9.1719893 2.5044219-13.9244241 4.2373505-2.8986935 6.2680568-8.0959895 5.1183041-13.0995515-1.1497527-5.00356196-5.24551-8.79307727-10.3231725-9.55130334-5.0776625-.75822608-10.1018073 1.66945245-12.6631316 6.11885484-3.9710929-.04861319-7.7747683 1.59715194-10.4580321 4.5249562-2.6832638 2.9278042-3.9918754 6.8602367-3.5979679 10.8120438l-4.612 2.758c-.3765083.2366386-.6470129.6096125-.755 1.041l-.457 1.81-2.058-.212c-.7667326-.0859274-1.4962929.3513175-1.782 1.068-.141738.4018422-.2520694.8140804-.33 1.233l-.114.479-2.057-.208c-.85282502-.1005821-1.64809383.4465663-1.859 1.279l-.377 1.5-1.992-.2c-.66185954-.0742759-1.32973118.0719529-1.9.416-.78614957.4593529-1.32709146 1.2447448-1.476 2.143l-.835 4.919c-.16341545.8391908.33140882 1.6667715 1.148 1.92zm48.576-7.832c-2.6888507 4.5886027-8.0920346 6.8410173-13.244 5.521-.3922225-.0998012-.8059288.046654-1.048.371l-13.441 18.026-5.259.36-1.052-4.638c-.0698133-.3132176-.0009109-.6413245.189-.9.1425319-.1878432.3416528-.324914.568-.391l2.162-.643c.8184399-.2375481 1.3345204-1.0443782 1.207-1.887l-.217-1.531 2-.591c.8197623-.2381351 1.3357979-1.0472755 1.206-1.891l-.119-.772c-.046-.292-.09-.561-.114-.742l2.018-.597c.8152031-.2403228 1.3276736-1.0457557 1.2-1.886l-.282-1.98 3.513-4.711c.2415544-.3235516.2648282-.7606257.059-1.108-3.0554329-5.1409619-1.8591242-11.7470012 2.80513-15.4899802 4.6642542-3.7429791 11.3725997-3.4802809 15.72987.6159802.9627949.8994241 1.7682561 1.9536555 2.383 3.119-1.1510356.5508006-2.3938593.8843899-3.666.984-.3109835-1.8692691-1.8947155-3.261386-3.7884314-3.3300706-1.893716-.0686846-3.5741375 1.2050422-4.0197216 3.0468708-.4455841 1.8418285.4667946 3.7428182 2.1824931 4.5473406s3.7606288.2902691 4.8916599-1.2301408c.2265158-.3122021.4054636-.6562806.531-1.021 1.6118415-.0791476 3.1927349-.472163 4.654-1.157 1.1046269 3.2974155.7218086 6.9121107-1.049 9.905zm-8.6-11.667c.2773704-.2285609.6115918-.3775262.967-.431.0970472-.0139198.1949596-.0209374.293-.021.8445316.0024468 1.5965065.5351124 1.879 1.331-1.085981-.1248087-2.1452069-.4215135-3.138-.879zm2.761 2.852c-.5032143.588231-1.3021219.8308653-2.0474712.6218327-.7453494-.2090326-1.3015798-.8317143-1.4255288-1.5958327 1.1039922.4932106 2.2745146.8213881 3.474.974zm1.595-22.89c4.5348371-.00658815 8.55986 2.90319991 9.9753906 7.2114552 1.4155306 4.3082554-.0993482 9.0382467-3.7543906 11.7225448-.7103664-1.3268404-1.6336309-2.5281316-2.733-3.556-.3-.277-.608-.528-.922-.776-.1944301-.7449679-.4513404-1.4722116-.768-2.174-1.6415117-3.6373574-4.7699652-6.39160624-8.586-7.559-.590275-.17756278-1.1915672-.31619404-1.8-.415 1.9613499-2.80053979 5.1689629-4.4641062 8.588-4.454zm-42.664 33.031c.05173884-.3191426.24411343-.5981592.524-.76.19945776-.1217439.43382745-.1734741.666-.147l2.249.23c.84558792.0967013 1.62977566-.4545934 1.825-1.283l.378-1.5 2.079.214c.8491317.0797961 1.6292407-.4725687 1.836-1.3l.176-.739c.07-.293.132-.566.179-.747l2.094.215c.8446478.0921072 1.6268599-.4557406 1.829-1.281l.494-1.95 5.039-3.012c.3460011-.206742.5340609-.6009974.477-1-.8557783-5.8277899 2.6483296-11.41408 8.2675845-13.18028078 5.619255-1.76620082 11.6892001.81084688 14.3214155 6.08028078-2.2205298-1.0289801-4.6745374-1.4496573-7.111-1.219-3.9400727.3532028-7.5468156 2.3568088-9.9284401 5.5154144-2.3816245 3.1586057-3.315805 7.1773541-2.5715599 11.0625856l-18.624 11.158-4.995-1.668z" fill-rule="nonzero" fill="#000000" data-original="#000000" class=""></path><path id="Path" d="m24.271 30.329c.4662248-.2869395.6150627-.8954249.3339263-1.3651718s-.8877295-.6261183-1.3609263-.3508282l-15.993 9.587c-.31136305.1811407-.5012413.5157435-.49707271.87594s.20173974.6903154.51721156.8642016c.31547181.1738862.70008564.1646643 1.00686115-.0241416z" fill="#000000" data-original="#000000" class=""></path></g></g></g></g></svg>