<svg width="56" height="56" viewBox="0 0 56 56" fill="none" xmlns="http://www.w3.org/2000/svg">
<g clip-path="url(#clip0_193_285)" filter="url(#filter0_d_193_285)">
<path d="M51.4464 20.1732C51.6945 19.9224 51.8702 19.6036 51.9535 19.2533C52.0368 18.9029 52.0244 18.5351 51.9176 18.1918C51.8108 17.8484 51.614 17.5435 51.3496 17.3117C51.0852 17.0799 50.7638 16.9306 50.4223 16.8808C46.1581 16.2527 41.8637 15.8745 37.5592 15.7482L35.3955 15.684L34.6742 13.5394C33.228 9.29267 31.5582 5.13307 29.6725 1.0797C29.5215 0.755156 29.2864 0.481584 28.9941 0.290204C28.7017 0.0988247 28.3639 -0.00265503 28.0191 -0.00265503C27.6743 -0.00265503 27.3365 0.0988247 27.0441 0.290204C26.7517 0.481584 26.5167 0.755156 26.3657 1.0797C24.48 5.13307 22.8102 9.29267 21.364 13.5394L20.6427 15.684L18.479 15.7482C14.1745 15.8745 9.88011 16.2527 5.61591 16.8808C5.27226 16.9264 4.9479 17.0727 4.68017 17.3029C4.41244 17.533 4.21223 17.8376 4.10257 18.1816C3.99292 18.5256 3.97829 18.8951 4.06037 19.2474C4.14245 19.5998 4.3179 19.9207 4.56652 20.1732C7.66452 23.304 10.9272 26.2511 14.3392 29.0007L16.0629 30.3902L15.4499 32.5763C14.2328 36.9013 13.248 41.2942 12.5 45.7345C12.4399 46.09 12.4765 46.4561 12.6056 46.7909C12.7347 47.1258 12.9511 47.4158 13.2301 47.628C13.5091 47.8403 13.8395 47.966 14.1836 47.9911C14.5276 48.0161 14.8714 47.9393 15.1758 47.7695C18.9736 45.6523 22.6553 43.314 26.2034 40.7657L28.0065 39.4782L29.8095 40.7657C33.3624 43.3145 37.0488 45.6528 40.8516 47.7695C41.1559 47.9393 41.4998 48.0161 41.8438 47.9911C42.1878 47.966 42.5182 47.8403 42.7972 47.628C43.0763 47.4158 43.2927 47.1258 43.4218 46.7909C43.5509 46.4561 43.5874 46.09 43.5273 45.7345C42.7777 41.2946 41.7929 36.9017 40.5775 32.5763L39.9608 30.3902L41.6846 29.0007C45.0921 26.2497 48.3511 23.3027 51.4464 20.1732Z" fill="#FFA000"/>
<path opacity="0.2" d="M17.6565 22.6502C17.6565 23.2392 16.9353 23.7225 16.0842 23.7225C15.2332 23.7225 14.5083 23.2392 14.5083 22.6502C14.5083 22.0612 15.2295 21.5779 16.0842 21.5779C16.9389 21.5779 17.6565 22.0574 17.6565 22.6502Z" fill="white"/>
<path d="M26.9892 20.7737C26.9892 20.7737 27.7102 19.826 28.2365 20.4905C28.7628 21.155 28.3843 20.4225 26.9892 20.7737Z" fill="#F4D3B5"/>
<path d="M30.891 20.1507C30.7504 20.5773 31.3598 21.5024 31.6123 21.778C33.5451 24.017 38.1033 21.121 36.9962 18.2364C36.9962 18.2364 36.1199 15.922 34.5765 16.3486C33.0331 16.7753 32.0883 17.4133 31.7493 18.0363C31.4213 18.7217 31.1347 19.4278 30.891 20.1507Z" fill="white"/>
<path d="M33.1268 23.5563C34.4473 23.5563 35.5177 22.2581 35.5177 20.6566C35.5177 19.0552 34.4473 17.7569 33.1268 17.7569C31.8064 17.7569 30.736 19.0552 30.736 20.6566C30.736 22.2581 31.8064 23.5563 33.1268 23.5563Z" fill="url(#paint0_linear_193_285)"/>
<path d="M34.3842 20.9511C34.3564 21.2051 34.259 21.4452 34.1039 21.6425C33.9487 21.8399 33.7424 21.986 33.5098 22.0633C33.2771 22.1406 33.0281 22.1458 32.7927 22.0783C32.5573 22.0107 32.3456 21.8733 32.1831 21.6826C32.0206 21.4919 31.9142 21.256 31.8767 21.0034C31.8393 20.7508 31.8724 20.4923 31.9721 20.259C32.0717 20.0256 32.2337 19.8274 32.4384 19.6883C32.6432 19.5492 32.882 19.4751 33.1261 19.4749C33.4797 19.4963 33.8107 19.6637 34.0466 19.9405C34.2825 20.2173 34.4039 20.5807 34.3842 20.9511Z" fill="#3F4C29"/>
<path opacity="0.21" d="M30.8405 20.3357C30.8405 20.3357 30.8838 20.6075 31.0136 20.5924C31.1434 20.5773 32.9753 17.0811 34.6198 17.4888C36.2642 17.8966 37.0503 19.2898 37.1224 19.203C37.1945 19.1162 36.8015 17.3152 36.4913 17.0584C36.1812 16.8017 33.3792 16.3335 33.3792 16.3335L31.6555 18.1118L30.8405 20.3357Z" fill="#231F20"/>
<path opacity="0.66" d="M35.6495 19.8184C35.6495 19.8184 33.3387 19.4069 33.4866 19.7014C33.6344 19.9959 35.2386 21.0191 35.4657 20.936C35.6928 20.853 36.0785 19.8902 35.6495 19.8184Z" fill="white"/>
<path d="M37.2415 18.8556C37.2521 18.3673 37.1467 17.8839 36.9345 17.4489C36.7224 17.0139 36.4102 16.641 36.0262 16.3637C35.6489 16.1308 35.2279 15.9863 34.7921 15.94C34.3563 15.8937 33.9162 15.9468 33.5019 16.0956C32.6355 16.3779 31.8995 16.9858 31.4356 17.8022C31.2116 18.2209 31.0291 18.6624 30.891 19.1199C30.7169 19.5721 30.6512 20.0622 30.6999 20.5471C30.7054 20.566 30.716 20.5828 30.7304 20.5955C30.7449 20.6082 30.7625 20.6162 30.7812 20.6186C30.7999 20.621 30.8189 20.6177 30.8358 20.609C30.8528 20.6003 30.8669 20.5867 30.8766 20.5698C31.0596 20.2176 31.2082 19.8469 31.3202 19.4635C31.4536 19.0922 31.6304 18.7396 31.8467 18.4139C32.2602 17.7348 32.8651 17.207 33.5776 16.9036C33.9009 16.7692 34.2482 16.7098 34.5956 16.7294C34.9429 16.7489 35.2821 16.847 35.5898 17.0169C36.2642 17.4322 36.7005 18.2062 37.1116 18.8783C37.1192 18.8902 37.1301 18.8994 37.1429 18.9044C37.1557 18.9095 37.1697 18.9102 37.1829 18.9064C37.1961 18.9026 37.2078 18.8946 37.2164 18.8835C37.225 18.8723 37.2299 18.8586 37.2306 18.8443L37.2415 18.8556Z" fill="#3A302C"/>
<path d="M30.6422 18.3308C30.8292 17.7283 31.1448 17.1782 31.5651 16.7224C32.0121 16.3001 32.5626 16.0164 33.1548 15.9031C33.177 15.8942 33.1956 15.8778 33.2077 15.8563C33.2197 15.8349 33.2244 15.8099 33.2211 15.7853C33.2177 15.7607 33.2065 15.7381 33.1892 15.721C33.1719 15.704 33.1496 15.6937 33.126 15.6917C32.4566 15.7107 31.8195 15.9971 31.3452 16.4921C31.1035 16.7251 30.9117 17.0091 30.7825 17.3254C30.6533 17.6417 30.5895 17.9831 30.5953 18.3271C30.5972 18.332 30.6004 18.3362 30.6046 18.3391C30.6088 18.3421 30.6137 18.3437 30.6188 18.3437C30.6238 18.3437 30.6287 18.3421 30.6329 18.3391C30.6371 18.3362 30.6403 18.332 30.6422 18.3271V18.3308Z" fill="#BF875B"/>
<path d="M24.7606 20.1507C24.9012 20.5773 24.2918 21.5024 24.0394 21.778C22.1065 24.017 17.5483 21.121 18.6554 18.2364C18.6554 18.2364 19.5317 15.922 21.0751 16.3486C22.6185 16.7753 23.5634 17.4133 23.9023 18.0363C24.2319 18.7209 24.5186 19.4272 24.7606 20.1507Z" fill="white"/>
<path d="M22.517 23.4204C23.8375 23.4204 24.9079 22.1222 24.9079 20.5207C24.9079 18.9192 23.8375 17.621 22.517 17.621C21.1966 17.621 20.1262 18.9192 20.1262 20.5207C20.1262 22.1222 21.1966 23.4204 22.517 23.4204Z" fill="url(#paint1_linear_193_285)"/>
<path d="M21.2617 20.9058C21.2896 21.1598 21.3869 21.3999 21.542 21.5972C21.6972 21.7946 21.9035 21.9407 22.1361 22.018C22.3688 22.0953 22.6178 22.1005 22.8532 22.0329C23.0886 21.9654 23.3003 21.828 23.4628 21.6373C23.6254 21.4466 23.7317 21.2107 23.7692 20.9581C23.8066 20.7055 23.7735 20.447 23.6739 20.2136C23.5742 19.9803 23.4122 19.7821 23.2075 19.643C23.0027 19.5039 22.7639 19.4297 22.5199 19.4295C22.1666 19.4519 21.8361 19.6197 21.6004 19.8962C21.3648 20.1728 21.243 20.5357 21.2617 20.9058Z" fill="#3F4C29"/>
<path opacity="0.21" d="M24.8075 20.3357C24.8075 20.3357 24.7642 20.6075 24.6344 20.5924C24.5046 20.5773 22.6726 17.0811 21.0282 17.4888C19.3838 17.8966 18.5977 19.2898 18.5256 19.203C18.4534 19.1162 18.8465 17.3152 19.1566 17.0584C19.4668 16.8017 22.2687 16.3335 22.2687 16.3335L23.9925 18.1118L24.8075 20.3357Z" fill="#231F20"/>
<path opacity="0.66" d="M19.9964 19.8184C19.9964 19.8184 22.3072 19.4069 22.1413 19.7014C21.9755 19.9959 20.3893 21.0191 20.1622 20.936C19.9351 20.853 19.5674 19.8902 19.9964 19.8184Z" fill="white"/>
<path d="M18.5255 18.8896C18.9294 18.2327 19.355 17.4738 20.0077 17.0547C20.3189 16.8732 20.6649 16.7665 21.0204 16.7424C21.3759 16.7182 21.7321 16.7772 22.0632 16.915C22.7536 17.2105 23.3438 17.7154 23.7581 18.3648C23.9903 18.704 24.1794 19.0733 24.3206 19.4635C24.4297 19.8475 24.5772 20.2183 24.7606 20.5698C24.7703 20.5867 24.7844 20.6004 24.8013 20.609C24.8183 20.6177 24.8373 20.6211 24.856 20.6187C24.8747 20.6163 24.8923 20.6082 24.9068 20.5955C24.9212 20.5828 24.9318 20.566 24.9373 20.5472C24.9854 20.0808 24.9248 19.6092 24.7606 19.1728C24.6204 18.6962 24.4318 18.2367 24.198 17.8022C23.7341 16.9858 22.9981 16.3779 22.1317 16.0956C21.72 15.9499 21.2831 15.8984 20.8507 15.9447C20.4184 15.9909 20.0005 16.1338 19.6254 16.3637C19.2405 16.6403 18.9274 17.013 18.7146 17.4481C18.5018 17.8832 18.3959 18.367 18.4065 18.8557C18.4072 18.87 18.4122 18.8837 18.4208 18.8948C18.4294 18.906 18.4411 18.914 18.4543 18.9178C18.4675 18.9215 18.4815 18.9208 18.4943 18.9158C18.5071 18.9107 18.518 18.9016 18.5255 18.8896Z" fill="#3A302C"/>
<path d="M25.0518 18.3271C25.0586 17.9829 24.9952 17.6413 24.8659 17.3248C24.7366 17.0084 24.5444 16.7245 24.302 16.4921C23.8276 15.9971 23.1905 15.7107 22.5211 15.6917C22.4975 15.6937 22.4752 15.704 22.4579 15.721C22.4407 15.7381 22.4294 15.7607 22.4261 15.7853C22.4227 15.8099 22.4274 15.8349 22.4395 15.8563C22.4515 15.8778 22.4701 15.8942 22.4923 15.9031C23.0845 16.0164 23.635 16.3001 24.0821 16.7224C24.5023 17.1782 24.8179 17.7283 25.0049 18.3308C25.0068 18.3357 25.01 18.34 25.0142 18.3429C25.0184 18.3459 25.0233 18.3475 25.0284 18.3475C25.0334 18.3475 25.0383 18.3459 25.0425 18.3429C25.0467 18.34 25.0499 18.3357 25.0518 18.3308V18.3271Z" fill="#BF875B"/>
<path d="M23.0621 26.743C24.2052 28.4194 26.7151 28.7026 28.547 28.3854C29.6613 28.1966 31.8431 27.4906 32.0847 26.2069C32.091 26.179 32.0894 26.1499 32.0801 26.123C32.0708 26.0961 32.0543 26.0727 32.0325 26.0555C32.0107 26.0382 31.9846 26.028 31.9574 26.0261C31.9301 26.0242 31.9029 26.0306 31.8791 26.0445C30.9055 26.6335 30.0436 27.3962 28.9185 27.702C27.1659 28.174 24.5911 27.9323 23.228 26.6071C23.145 26.524 22.9864 26.6373 23.0621 26.743Z" fill="black"/>
<path opacity="0.27" d="M21.5511 24.6513C24.1283 24.6513 26.2175 22.4639 26.2175 19.7656C26.2175 17.0673 24.1283 14.8799 21.5511 14.8799C18.974 14.8799 16.8848 17.0673 16.8848 19.7656C16.8848 22.4639 18.974 24.6513 21.5511 24.6513Z" fill="#75787A"/>
<path d="M21.717 25.4366C20.649 25.4673 19.5962 25.1662 18.6915 24.5712C17.7868 23.9762 17.0706 23.114 16.6333 22.0934C16.196 21.0728 16.0571 19.9394 16.2342 18.8363C16.4114 17.7332 16.8965 16.7096 17.6286 15.8949C18.3606 15.0801 19.3067 14.5105 20.3475 14.258C21.3883 14.0054 22.4772 14.0813 23.4769 14.4759C24.4766 14.8705 25.3423 15.5663 25.9648 16.4754C26.5873 17.3846 26.9387 18.4664 26.9747 19.5843C27.0175 21.09 26.4878 22.552 25.5021 23.6492C24.5163 24.7464 23.155 25.3893 21.717 25.4366ZM21.4249 15.4387C20.6086 15.4652 19.8183 15.7446 19.1537 16.2414C18.4891 16.7383 17.9801 17.4303 17.6912 18.23C17.4022 19.0297 17.3462 19.9012 17.5303 20.7342C17.7144 21.5672 18.1303 22.3244 18.7253 22.9099C19.3204 23.4955 20.0679 23.8831 20.8734 24.0239C21.6789 24.1646 22.5062 24.0521 23.2506 23.7006C23.995 23.3491 24.6232 22.7743 25.0556 22.049C25.4881 21.3237 25.7054 20.4805 25.6801 19.6259C25.6434 18.4811 25.175 17.3982 24.3776 16.6142C23.5801 15.8302 22.5184 15.4088 21.4249 15.4424V15.4387Z" fill="#262728"/>
<path opacity="0.27" d="M34.4467 25.0289C37.0239 25.0289 39.1131 22.8415 39.1131 20.1432C39.1131 17.4449 37.0239 15.2574 34.4467 15.2574C31.8696 15.2574 29.7804 17.4449 29.7804 20.1432C29.7804 22.8415 31.8696 25.0289 34.4467 25.0289Z" fill="#75787A"/>
<path d="M34.6126 25.8142C33.5446 25.8449 32.4918 25.5437 31.5871 24.9487C30.6823 24.3538 29.9662 23.4916 29.5288 22.471C29.0915 21.4504 28.9527 20.317 29.1298 19.2139C29.3069 18.1107 29.7921 17.0872 30.5241 16.2724C31.2562 15.4576 32.2022 14.888 33.2431 14.6355C34.2839 14.383 35.3728 14.4588 36.3725 14.8535C37.3722 15.2481 38.2379 15.9439 38.8604 16.853C39.4829 17.7621 39.8343 18.8439 39.8703 19.9619C39.9121 21.4673 39.3821 22.9287 38.3966 24.0257C37.411 25.1227 36.0503 25.7658 34.6126 25.8142ZM34.3205 15.8124C33.5033 15.8383 32.7119 16.1172 32.0462 16.6141C31.3805 17.1109 30.8705 17.8033 30.5807 18.6036C30.291 19.404 30.2344 20.2764 30.4182 21.1104C30.6021 21.9444 31.018 22.7026 31.6135 23.289C32.2089 23.8755 32.9571 24.2639 33.7634 24.405C34.5698 24.5462 35.3979 24.4338 36.1432 24.0821C36.8885 23.7304 37.5174 23.1552 37.9504 22.4291C38.3834 21.7031 38.601 20.859 38.5757 20.0034C38.5399 18.8584 38.0719 17.7749 37.2741 16.9906C36.4764 16.2064 35.4142 15.7854 34.3205 15.82V15.8124Z" fill="#262728"/>
<path d="M27.2849 19.9883C27.6764 19.9246 28.0769 19.9648 28.4497 20.1054C28.8231 20.2524 29.1314 20.5388 29.3151 20.9096C29.4021 20.3627 29.4515 19.8101 29.463 19.2558C29.4703 19.2083 29.4703 19.1599 29.463 19.1124C29.4438 19.0589 29.4143 19.01 29.3765 18.9689C29.1995 18.7808 28.9846 18.6364 28.7475 18.5462C28.5105 18.4561 28.2572 18.4225 28.0061 18.4478C27.5079 18.4986 27.0265 18.6636 26.5961 18.9311C26.441 19.018 26.2752 19.135 26.2355 19.3087C26.2212 19.3898 26.2212 19.473 26.2355 19.5541C26.2575 19.8221 26.312 20.086 26.3978 20.3395C26.6864 20.2036 26.9826 20.0863 27.2849 19.9883Z" fill="#262728"/>
<path d="M11.9732 28.5893C11.9732 28.5893 12.954 27.8757 15.1971 27.4943C16.0861 27.6198 16.9569 27.8594 17.7899 28.2079L16.9821 27.3244C16.9821 27.3244 26.8846 29.7484 28.1612 32.7878C28.1612 32.7878 30.0039 29.9825 39.0986 27.0413V27.7964C39.7861 27.5115 40.5005 27.304 41.2298 27.1772C41.2298 27.1772 43.6496 27.6076 43.9922 28.4118L28.3343 35.5856L12.0417 28.7894" fill="#FFDB8E"/>
<path opacity="0.3" d="M27.8619 33.1956C27.8619 33.1956 27.577 32.2932 26.0805 31.2474C23.9204 29.7409 16.9821 27.3245 16.9821 27.3245L17.7322 28.1325C17.7322 28.1325 21.4466 29.3331 22.6258 29.8428C23.0549 30.0278 24.2666 30.6961 24.2666 30.6961L17.2706 28.6082L22.9575 31.0586L12.9505 28.0985L12.8459 28.1438H12.817L12.7377 28.1778H12.7052L12.6367 28.208H12.6043L12.543 28.2382H12.5141L12.4528 28.2646H12.4312L12.3699 28.2948L12.305 28.325L12.186 28.3892L12.1463 28.4119L12.1174 28.4307H12.0958L12.1535 28.6195L25.7523 34.283L27.8619 33.1956Z" fill="#FF6A00"/>
<path opacity="0.3" d="M43.5775 27.9701L43.5234 27.9474L33.3036 30.9378L39.0049 28.4571L32.0089 30.5489C32.0089 30.5489 33.3649 29.9032 33.812 29.7182C34.8614 29.2651 38.3594 28.0154 39.1058 27.7473V27.264C37.9627 27.702 32.2542 29.907 30.2996 31.27C28.8031 32.3159 28.428 33.0748 28.428 33.0748L30.6602 34.3283L35.0237 32.5084L43.9814 28.3967C43.8878 28.2175 43.7478 28.0696 43.5775 27.9701Z" fill="#FF6A00"/>
<path d="M30.1698 33.5052C28.2982 31.961 25.7919 33.5052 25.7919 33.5052C25.7307 33.7144 25.7324 33.9382 25.7969 34.1463C25.8614 34.3543 25.9856 34.5365 26.1526 34.6681L27.1551 35.0834C28.8572 35.3855 31.4067 34.5209 30.1698 33.5052Z" fill="#6D131A"/>
<path d="M15.4675 42.8991L10.7795 28.5176L11.1834 28.1853L26.4807 32.9577C26.4807 32.9577 26.1634 33.9772 28.0061 33.9545C29.9931 33.9319 29.5604 32.8218 29.5604 32.8218L44.9803 27.804L45.4022 28.1815L40.5663 43.3446L30.4367 43.473C30.4367 43.473 28.7454 45.4363 26.9026 43.6617L15.4675 42.8991Z" fill="#35736E"/>
<path d="M15.4675 43.3748L10.7795 28.4911L26.1381 33.3051C26.1381 33.3051 25.828 34.4378 27.9773 34.4378C30.1265 34.4378 29.9751 33.1088 29.9751 33.1088L45.4815 28.106L40.5663 43.809L30.4367 43.9374C30.4367 43.9374 28.7454 45.9007 26.9026 44.1262L15.4675 43.3748Z" fill="#311B92"/>
<path d="M29.9751 33.173C29.9751 33.4297 29.8561 34.4454 27.9773 34.4454C25.8136 34.4454 26.1381 33.3127 26.1381 33.3127L25.965 33.2598L26.9639 44.2092C28.6624 45.7761 30.2095 44.2092 30.415 43.9902L29.9751 33.173Z" fill="#000063"/>
<g style="mix-blend-mode:multiply" opacity="0.2">
<path d="M35.3482 41.3473C31.212 40.9697 30.6602 35.427 30.6386 32.9011L29.9751 33.1163C29.9839 33.2811 29.9559 33.4457 29.8933 33.5971C29.8307 33.7485 29.7352 33.8825 29.6145 33.9885C29.4846 36.6541 29.1132 40.7847 28.0746 40.6526C26.9928 40.5166 26.5132 36.3521 26.3293 33.9545C26.2523 33.8691 26.1964 33.7653 26.1662 33.6522C26.1361 33.5391 26.1326 33.4199 26.1562 33.3051L25.727 33.173C25.727 35.5705 25.1753 40.9735 20.7037 41.2189C15.6046 41.5021 12.0922 31.0548 11.3601 28.6686L10.8012 28.4911L15.4892 43.3748L26.9243 44.1299C28.767 45.9045 30.4583 43.9412 30.4583 43.9412L40.588 43.8128L44.699 30.6735C42.6435 35.0684 38.9544 41.672 35.3482 41.3473Z" fill="#35736E"/>
</g>
<path d="M30.0256 34.3887C29.7659 34.6417 29.2178 34.9626 28.0855 35.0155C26.8558 35.0721 26.304 34.6795 26.0696 34.3925L26.0985 34.7021C26.6102 35.076 27.2285 35.2558 27.8511 35.2118H28.0999C28.7822 35.2236 29.4537 35.0325 30.0364 34.6606L30.0256 34.3887Z" fill="#FFBE00"/>
<path d="M43.7645 35.0306C43.7645 35.0306 43.2238 34.3698 43.2779 33.9734C43.3319 33.577 42.4848 33.7355 42.4415 34.1886C42.4436 34.5171 42.5617 34.8332 42.7732 35.0759L43.7645 35.0306Z" fill="#FFA000"/>
<g style="mix-blend-mode:multiply" opacity="0.5">
<g style="mix-blend-mode:multiply" opacity="0.5">
<path d="M43.7645 35.0306C43.7645 35.0306 43.2238 34.3698 43.2779 33.9734C43.3319 33.577 42.4848 33.7355 42.4415 34.1886C42.4436 34.5171 42.5617 34.8332 42.7732 35.0759L43.7645 35.0306Z" fill="#FFA000"/>
</g>
</g>
<path d="M41.933 38.6817C41.933 38.6817 43.1808 38.3381 43.7361 37.413C44.0967 36.7976 44.5655 35.5592 43.7361 35.0306C43.3086 34.7888 42.8332 34.6544 42.3475 34.638C41.8619 34.6216 41.3792 34.7237 40.9377 34.9362C39.7152 35.6913 41.5544 36.1859 42.171 36.5673C41.8387 36.438 41.487 36.3716 41.1325 36.371C39.9028 36.5107 41.8789 37.2205 42.3153 37.33L41.933 38.6817Z" fill="#FFA000"/>
<g style="mix-blend-mode:multiply" opacity="0.5">
<path d="M42.3441 37.33C42.016 37.2469 40.8151 36.824 40.7647 36.5748C41.2706 36.6741 41.7676 36.8181 42.2504 37.0053C42.5749 37.1525 42.8346 36.7296 42.5064 36.5862C42.2165 36.4626 41.9174 36.3641 41.6121 36.2917C41.2918 36.1618 40.9907 35.9851 40.7178 35.7668C41.4704 36.1015 42.2916 36.2314 43.105 36.1444C43.3217 36.1184 43.5257 36.0244 43.6905 35.8748C43.8552 35.7253 43.9729 35.5271 44.0282 35.3062C44.4537 35.9103 44.0715 36.9033 43.7469 37.4357C43.1808 38.3607 41.9439 38.7043 41.9439 38.7043L42.3441 37.33Z" fill="#FFA000"/>
</g>
<path d="M42.5274 37.3828C42.5274 37.3828 42.0372 37.1601 41.5505 36.9486C41.3296 36.8635 41.1141 36.7639 40.9052 36.6504C40.882 36.6373 40.8619 36.6191 40.8463 36.5969C40.8307 36.5746 40.82 36.5491 40.8151 36.522C40.8104 36.5086 40.8104 36.4939 40.8151 36.4805C40.8151 36.4805 40.8151 36.4805 40.8547 36.4427C40.9136 36.4072 40.9785 36.3841 41.0458 36.3747C41.0936 36.3671 41.1422 36.3671 41.19 36.3747L41.3702 36.3974L41.5613 36.4238L41.7596 36.4654C41.893 36.4918 42.0228 36.5295 42.1453 36.5635C42.2577 36.5858 42.3676 36.6199 42.4734 36.6655C42.5759 36.7114 42.6821 36.748 42.7906 36.775C42.7007 36.7104 42.6039 36.6572 42.5022 36.6164C42.3984 36.5625 42.2897 36.5194 42.1778 36.488C42.0513 36.4418 41.9225 36.4027 41.792 36.371L41.5938 36.3181L41.3955 36.2841L41.2044 36.2501C41.1422 36.2423 41.0792 36.2423 41.017 36.2501C40.9231 36.2612 40.8324 36.292 40.7502 36.3408C40.7167 36.3595 40.6882 36.3868 40.6673 36.42C40.6548 36.4349 40.6454 36.4523 40.6398 36.4711C40.6342 36.49 40.6325 36.5099 40.6348 36.5295C40.6425 36.5767 40.6605 36.6213 40.6874 36.66C40.7143 36.6986 40.7493 36.7302 40.7899 36.7523C41.0145 36.8673 41.2471 36.9645 41.4856 37.043C41.738 37.1374 41.9939 37.228 42.185 37.2922C42.2962 37.3335 42.4109 37.3638 42.5274 37.3828Z" fill="#BF4320"/>
<path d="M42.2216 36.5333C42.0672 36.4461 41.9054 36.3741 41.7383 36.3181C41.5714 36.2538 41.4077 36.1808 41.2479 36.0991C41.1618 36.0547 41.0787 36.0042 40.9991 35.9481C40.9248 35.8938 40.858 35.829 40.8007 35.7555C40.7466 35.6931 40.7072 35.6181 40.6859 35.5368C40.6646 35.4554 40.662 35.37 40.6781 35.2873C40.6966 35.213 40.7297 35.1435 40.7755 35.0834C40.8269 35.0305 40.8838 34.9837 40.945 34.9437L41.0315 34.8871L41.1217 34.8494C41.1693 34.8278 41.2188 34.8113 41.2695 34.8003L41.4066 34.7625L41.5508 34.7323C41.6761 34.708 41.8025 34.6904 41.9295 34.6794C42.3204 34.6474 42.7138 34.6818 43.0943 34.7814C43.2876 34.8376 43.474 34.9175 43.6496 35.0193C43.7867 35.1081 43.9086 35.2204 44.0102 35.3515C44.0961 35.4789 44.1686 35.6156 44.2266 35.7593C44.2266 35.7593 44.2266 35.714 44.2085 35.6347C44.1999 35.5859 44.1841 35.5387 44.1617 35.495C44.1358 35.4341 44.1044 35.3759 44.0679 35.3213C43.9701 35.174 43.848 35.0462 43.7073 34.9437C43.5323 34.8358 43.346 34.7497 43.152 34.687C42.7568 34.5719 42.3462 34.526 41.9367 34.5511C41.8013 34.5581 41.6665 34.5732 41.5328 34.5964L41.3813 34.6304C41.3813 34.6304 41.3272 34.6304 41.2335 34.6719C41.175 34.6852 41.1181 34.7055 41.064 34.7323L40.963 34.7776L40.8657 34.8418C40.7934 34.8901 40.7279 34.9485 40.6709 35.0155C40.6159 35.0899 40.5777 35.1764 40.5591 35.2685C40.5422 35.3652 40.5477 35.4648 40.5754 35.5587C40.603 35.6527 40.6518 35.7384 40.7178 35.8084C40.7843 35.8893 40.8622 35.9593 40.9486 36.016C41.0344 36.0722 41.1236 36.1226 41.2155 36.1671C41.3758 36.2504 41.5407 36.3236 41.7095 36.3861C42.016 36.4691 42.218 36.5409 42.2216 36.5333Z" fill="#BF4320"/>
<path d="M40.7178 35.0759C40.7851 35.0659 40.8515 35.0495 40.916 35.0268C41.06 34.9901 41.2076 34.9711 41.3558 34.9702C41.5731 34.9678 41.7901 34.9842 42.0047 35.0193C42.0047 35.0193 42.3256 35.057 42.6428 35.1326C42.9601 35.2081 43.2629 35.3213 43.2737 35.3062C43.092 35.1844 42.8922 35.095 42.6825 35.0419C42.4688 34.973 42.2508 34.92 42.03 34.8834C41.8036 34.8578 41.5754 34.8552 41.3486 34.8758C41.1936 34.8885 41.0408 34.9228 40.8944 34.9777C40.7754 35.0193 40.7142 35.0684 40.7178 35.0759Z" fill="#BF4320"/>
<path d="M40.6457 35.5478C40.6457 35.5478 40.9413 35.5478 41.2261 35.5478C41.3703 35.5478 41.5109 35.5818 41.6154 35.6045L41.7884 35.6422L41.9651 35.6762C42.0696 35.6762 42.2066 35.7366 42.3256 35.7706C42.5959 35.8537 42.8447 35.9783 42.8627 35.9632C42.7167 35.8389 42.5507 35.743 42.3724 35.68C42.2354 35.6309 42.0985 35.578 41.9903 35.5516L41.8137 35.5063L41.6262 35.4799C41.5145 35.461 41.3667 35.4572 41.2152 35.4497C41.0214 35.447 40.8285 35.4803 40.6457 35.5478Z" fill="#BF4320"/>
<path d="M42.5172 34.6454C42.5143 34.5773 42.5022 34.5099 42.4812 34.4453C42.4611 34.3768 42.4543 34.3048 42.4611 34.2335C42.4679 34.1622 42.4882 34.093 42.5208 34.03C42.6116 33.9093 42.7386 33.8242 42.8813 33.7884C42.9277 33.7781 42.9756 33.7781 43.0219 33.7884C43.0543 33.7884 43.0688 33.7884 43.0688 33.7884C43.0945 33.7964 43.1183 33.81 43.1388 33.8282C43.1593 33.8464 43.1759 33.8688 43.1877 33.8941C43.2337 34.0321 43.2639 34.1753 43.2779 34.3207C43.3265 34.4789 43.4105 34.6226 43.523 34.7398C43.6095 34.838 43.6564 34.9097 43.6708 34.9022C43.6852 34.8946 43.6492 34.8191 43.5807 34.7096C43.4919 34.5907 43.4291 34.4528 43.3968 34.3056C43.3963 34.1509 43.3744 33.997 43.3319 33.8488C43.3071 33.7853 43.2643 33.7313 43.2094 33.694L43.1301 33.66C43.0334 33.6312 42.9311 33.6312 42.8344 33.66C42.6559 33.7084 42.5006 33.824 42.3983 33.9847C42.365 34.0578 42.3477 34.1378 42.3477 34.2188C42.3477 34.2998 42.365 34.3798 42.3983 34.4529C42.4631 34.5775 42.5064 34.6492 42.5172 34.6454Z" fill="#BF4320"/>
<path d="M12.4276 35.4082C12.4276 35.4082 12.9683 34.7474 12.9142 34.351C12.8601 33.9545 13.7073 34.1131 13.7542 34.5662C13.7504 34.8944 13.6325 35.2099 13.4225 35.4535L12.4276 35.4082Z" fill="#FFA000"/>
<g style="mix-blend-mode:multiply" opacity="0.5">
<g style="mix-blend-mode:multiply" opacity="0.5">
<path d="M12.4276 35.4082C12.4276 35.4082 12.9683 34.7474 12.9142 34.351C12.8601 33.9545 13.7073 34.1131 13.7542 34.5662C13.7504 34.8944 13.6325 35.2099 13.4225 35.4535L12.4276 35.4082Z" fill="#FFA000"/>
</g>
</g>
<path d="M14.2595 39.0592C14.2595 39.0592 13.0118 38.7156 12.4564 37.7906C12.0958 37.1752 11.627 35.9367 12.4348 35.4081C12.8629 35.1663 13.3389 35.0319 13.8251 35.0155C14.3114 34.9991 14.7946 35.1012 15.2368 35.3138C16.4592 36.0689 14.6165 36.5635 14.0035 36.9448C14.3309 36.8226 14.6763 36.7613 15.024 36.7636C16.2537 36.9033 14.2739 37.6131 13.8376 37.7226L14.2595 39.0592Z" fill="#FFA000"/>
<g style="mix-blend-mode:multiply" opacity="0.5">
<path d="M13.8484 37.7075C14.1766 37.6245 15.3774 37.2016 15.4279 36.9524C14.9223 37.0466 14.4253 37.1855 13.9422 37.3677C13.6176 37.515 13.358 37.0921 13.6825 36.9486C13.9724 36.825 14.2716 36.7265 14.5768 36.6541C14.8979 36.526 15.1992 36.3491 15.4712 36.1293C14.7187 36.4645 13.8973 36.5944 13.0839 36.5069C12.8679 36.4801 12.6646 36.3858 12.5006 36.2363C12.3366 36.0868 12.2194 35.889 12.1643 35.6687C11.7388 36.2728 12.1175 37.2658 12.4456 37.7981C13.0082 38.7232 14.2487 39.0668 14.2487 39.0668L13.8484 37.7075Z" fill="#FFA000"/>
</g>
<path d="M13.668 37.7604C13.668 37.7604 14.1546 37.5376 14.6413 37.3262C14.8633 37.241 15.08 37.1414 15.2902 37.0279C15.3587 36.9788 15.3803 36.926 15.3767 36.8996C15.3796 36.8931 15.3811 36.886 15.3811 36.8788C15.3811 36.8716 15.3796 36.8645 15.3767 36.858C15.3651 36.8437 15.3518 36.831 15.3371 36.8203C15.2782 36.7847 15.2133 36.7617 15.146 36.7523C15.097 36.7447 15.0472 36.7447 14.9982 36.7523L14.8216 36.775L14.6305 36.8014L14.4322 36.8429C14.2952 36.8694 14.1655 36.9071 14.0465 36.9411C13.9347 36.964 13.8249 36.9968 13.7184 37.0393C13.6152 37.0877 13.5078 37.1256 13.3976 37.1525C13.4894 37.0881 13.5872 37.0337 13.6896 36.9902C13.7932 36.9398 13.9005 36.8982 14.0104 36.8656C14.1371 36.8198 14.2658 36.7808 14.3962 36.7485L14.598 36.6957L14.7963 36.6617L14.9874 36.6277C15.0497 36.6199 15.1126 36.6199 15.1748 36.6277C15.2686 36.6393 15.3592 36.6701 15.4416 36.7183C15.4751 36.7371 15.5037 36.7643 15.5245 36.7976C15.5368 36.8125 15.5458 36.83 15.5507 36.849C15.5557 36.8679 15.5566 36.8878 15.5534 36.9071C15.5468 36.9581 15.5278 37.0065 15.4981 37.0475C15.4684 37.0885 15.4291 37.1208 15.3839 37.1412C15.1608 37.2569 14.9294 37.3541 14.6918 37.4319C14.4394 37.5263 14.1835 37.6169 13.9924 37.6811C13.8866 37.7169 13.778 37.7434 13.668 37.7604Z" fill="#BF4320"/>
<path d="M13.971 36.9109C14.1269 36.8242 14.2898 36.7522 14.4578 36.6956C14.6057 36.6352 14.7752 36.5673 14.9483 36.4767C15.0348 36.4351 15.1105 36.3785 15.1971 36.3256C15.2706 36.2704 15.3373 36.2057 15.3954 36.1331C15.4496 36.0706 15.4889 35.9957 15.5102 35.9143C15.5315 35.833 15.5342 35.7475 15.518 35.6649C15.4983 35.5903 15.4639 35.5209 15.4171 35.461C15.3664 35.4072 15.3094 35.3603 15.2476 35.3213L15.161 35.2533L15.0745 35.2156C15.0259 35.1934 14.9751 35.177 14.923 35.1665L14.786 35.1287L14.6634 35.1099C14.5369 35.0854 14.4093 35.0677 14.2811 35.057C13.8913 35.0231 13.4989 35.0576 13.1199 35.159C12.9263 35.2145 12.7399 35.2944 12.5646 35.3968C12.4275 35.4857 12.3056 35.598 12.204 35.7291C12.1173 35.8559 12.0447 35.9927 11.9876 36.1368C11.9876 36.1368 11.9876 36.0915 12.0056 36.0123C12.0143 35.9634 12.0301 35.9163 12.0525 35.8726C12.077 35.8109 12.1085 35.7526 12.1463 35.6989C12.2429 35.5505 12.3652 35.4224 12.5069 35.3213C12.6869 35.2068 12.8794 35.1155 13.0803 35.0495C13.4754 34.9343 13.8861 34.8884 14.2956 34.9135C14.4309 34.9208 14.5657 34.9359 14.6994 34.9588L14.8509 34.9928C14.8509 34.9928 14.905 34.9928 14.9988 35.0344C15.0571 35.0482 15.1139 35.0685 15.1682 35.0948L15.2656 35.1401L15.3666 35.2043C15.4381 35.2535 15.5035 35.3118 15.5613 35.3779C15.6486 35.4927 15.6922 35.6374 15.6835 35.7838C15.6748 35.9303 15.6146 36.0682 15.5144 36.1708C15.4479 36.2518 15.3701 36.3218 15.2836 36.3785C15.197 36.4355 15.1066 36.4859 15.0132 36.5295C14.8468 36.6078 14.6758 36.6747 14.5011 36.7296C14.1765 36.8467 13.9782 36.9184 13.971 36.9109Z" fill="#BF4320"/>
<path d="M15.4739 35.4535C15.4063 35.4427 15.3399 35.425 15.2756 35.4006C15.1312 35.3671 14.9838 35.3494 14.8358 35.3477C14.6198 35.3454 14.404 35.3619 14.1906 35.3968C14.1906 35.3968 13.8661 35.4346 13.5489 35.5101C13.2316 35.5856 12.9324 35.6989 12.918 35.6838C13.1012 35.5623 13.3021 35.4731 13.5128 35.4195C13.7253 35.3507 13.9421 35.2977 14.1617 35.2609C14.3895 35.2379 14.6189 35.2379 14.8467 35.2609C15.0016 35.2742 15.1543 35.3085 15.3009 35.3629C15.4162 35.3968 15.4811 35.4459 15.4739 35.4535Z" fill="#BF4320"/>
<path d="M15.5497 35.9254C15.5497 35.9254 15.2541 35.9254 14.9693 35.9254C14.8251 35.9254 14.6846 35.9594 14.58 35.982L14.4034 36.0198L14.2303 36.0538C14.1222 36.0538 13.9888 36.1142 13.8698 36.1482C13.5959 36.2312 13.3471 36.3558 13.3327 36.3407C13.4774 36.2144 13.6438 36.1183 13.823 36.0575C13.9564 36.0085 14.0933 35.9556 14.2015 35.9292L14.3817 35.8839L14.5656 35.8574C14.6773 35.8386 14.8288 35.8348 14.9802 35.8272C15.1741 35.8246 15.3669 35.8578 15.5497 35.9254Z" fill="#BF4320"/>
<path d="M13.6785 35.0231C13.6785 35.0231 13.6785 34.94 13.7109 34.8229C13.7318 34.7546 13.739 34.6824 13.7322 34.611C13.7254 34.5395 13.7047 34.4703 13.6713 34.4076C13.5815 34.2858 13.454 34.2004 13.3108 34.166C13.2632 34.1558 13.2142 34.1558 13.1666 34.166C13.1377 34.166 13.1197 34.166 13.1233 34.166C13.0972 34.1731 13.0729 34.1864 13.0524 34.2047C13.0318 34.223 13.0154 34.2459 13.0044 34.2717C12.9584 34.4097 12.9281 34.5529 12.9142 34.6983C12.8643 34.8559 12.7804 34.9993 12.6691 35.1174C12.5826 35.2156 12.5321 35.2873 12.5213 35.2798C12.5105 35.2722 12.5429 35.1967 12.6114 35.0872C12.7002 34.9683 12.763 34.8304 12.7953 34.6832C12.7958 34.5285 12.8177 34.3746 12.8602 34.2264C12.8824 34.1613 12.9258 34.1065 12.9827 34.0716L13.0584 34.0338C13.1565 34.0068 13.2596 34.0068 13.3576 34.0338C13.5352 34.0824 13.6893 34.198 13.7902 34.3585C13.8235 34.4316 13.8408 34.5116 13.8408 34.5926C13.8408 34.6736 13.8235 34.7536 13.7902 34.8267C13.7326 34.9551 13.6893 35.0268 13.6785 35.0231Z" fill="#BF4320"/>
</g>
<defs>
<filter id="filter0_d_193_285" x="0" y="0" width="56" height="56" filterUnits="userSpaceOnUse" color-interpolation-filters="sRGB">
<feFlood flood-opacity="0" result="BackgroundImageFix"/>
<feColorMatrix in="SourceAlpha" type="matrix" values="0 0 0 0 0 0 0 0 0 0 0 0 0 0 0 0 0 0 127 0" result="hardAlpha"/>
<feOffset dy="4"/>
<feGaussianBlur stdDeviation="2"/>
<feComposite in2="hardAlpha" operator="out"/>
<feColorMatrix type="matrix" values="0 0 0 0 0 0 0 0 0 0 0 0 0 0 0 0 0 0 0.25 0"/>
<feBlend mode="normal" in2="BackgroundImageFix" result="effect1_dropShadow_193_285"/>
<feBlend mode="normal" in="SourceGraphic" in2="effect1_dropShadow_193_285" result="shape"/>
</filter>
<linearGradient id="paint0_linear_193_285" x1="32.6184" y1="18.8405" x2="33.9483" y2="23.1532" gradientUnits="userSpaceOnUse">
<stop stop-color="#607244"/>
<stop offset="1" stop-color="#98BD6D"/>
</linearGradient>
<linearGradient id="paint1_linear_193_285" x1="314.702" y1="335.449" x2="291.722" y2="399.782" gradientUnits="userSpaceOnUse">
<stop stop-color="#607244"/>
<stop offset="1" stop-color="#98BD6D"/>
</linearGradient>
<clipPath id="clip0_193_285">
<rect width="48" height="48" fill="white" transform="translate(4)"/>
</clipPath>
</defs>
</svg>
