<svg width="249" height="249" viewBox="0 0 249 249" fill="none" xmlns="http://www.w3.org/2000/svg">
<path d="M143.661 169.763C146.634 175.159 148.198 181.46 148.01 188.002C147.504 203.046 127.399 239.387 125.101 243.395C124.183 244.969 122.409 245.936 120.52 245.882C118.63 245.827 116.914 244.76 116.018 243.061C114.025 239.003 96.1883 201.57 96.5487 186.523C96.737 179.982 98.6613 173.781 101.939 168.564L122.728 169.162L143.661 169.763Z" fill="#FFE470"/>
<path d="M122.729 169.162L143.661 169.764C146.634 175.159 148.199 181.46 148.011 188.002C147.505 203.046 127.4 239.388 125.102 243.395C124.183 244.969 122.41 245.937 120.52 245.882L122.729 169.162Z" fill="#FFD400"/>
<path d="M127.811 171.999L127.291 192.571C127.179 193.95 126.56 195.241 125.663 196.088C124.691 197.006 123.366 197.55 121.982 197.583L121.912 197.508C119.079 197.354 116.89 195.036 116.97 192.274L117.635 171.706C117.644 168.869 119.962 166.681 122.795 166.835L122.87 166.764C125.706 166.774 127.965 169.167 127.811 171.999Z" fill="#FFD400"/>
<path d="M122.87 166.765C125.707 166.774 127.966 169.167 127.812 171.999L127.292 192.571C127.179 193.95 126.56 195.241 125.663 196.088C124.691 197.006 123.366 197.55 121.982 197.583L121.912 197.509L122.795 166.835L122.87 166.765Z" fill="#FDBF00"/>
<path d="M78.1871 116.185C51.6328 141.254 64.4461 171.614 64.4819 172.999C64.9906 174.708 66.3483 176.036 68.075 176.498C69.7985 176.963 71.641 176.501 72.9407 175.274C89.5678 162.143 99.9424 153.949 99.1133 154.604L82.7906 111.837L78.1866 116.184L78.1871 116.185Z" fill="#FF7816"/>
<path d="M147.092 155.94C147.873 156.651 173.075 179.591 171.442 178.104C174.07 180.888 178.714 179.916 180.018 176.319C180.134 174.941 194.523 145.206 169.604 118.811L165.257 114.207L147.092 155.94Z" fill="#FF4B00"/>
<path d="M154.13 157.333C152.073 163.094 149.946 168.78 147.971 174.179C147.256 176.268 145.254 177.592 142.999 177.601L102.004 176.423C99.7537 176.285 97.8308 174.848 97.2377 172.721C95.5773 167.218 93.7802 161.419 92.0576 155.55C91.0659 152.102 104.611 149.073 103.549 145.55L143.234 146.691C141.97 150.146 155.319 153.949 154.13 157.333Z" fill="#FF9F00"/>
<path d="M154.13 157.333C152.073 163.094 149.946 168.78 147.971 174.179C147.256 176.268 145.255 177.592 142.999 177.601L122.502 177.012L123.464 146.123L143.234 146.691C141.97 150.146 155.319 153.949 154.13 157.333Z" fill="#FF7816"/>
<path d="M159.543 40.0792C168.32 56.1173 172.146 72.3035 171.265 90.2468C170.297 111.242 161.478 137.104 154.13 157.334L123.166 156.444L92.0574 155.55C85.8856 134.932 78.4983 108.531 78.8102 87.5897C78.9634 69.6266 83.7142 53.6861 93.3993 38.1783L103.563 33.8152C109.854 40.179 118.048 43.6157 126.334 43.8533C134.62 44.0914 142.999 41.1314 149.645 35.139L159.543 40.0792Z" fill="#ECECF1"/>
<path d="M159.543 40.0792C168.32 56.1173 172.146 72.3035 171.265 90.2468C170.297 111.242 161.478 137.104 154.13 157.334L123.166 156.444L126.334 43.8535C134.62 44.0916 142.999 41.1317 149.646 35.1392L159.543 40.0792Z" fill="#E2E2E7"/>
<path d="M125.757 63.9143C111.657 63.5091 99.767 74.734 99.3611 88.8344C99.0257 103.011 110.109 114.75 124.28 115.23L124.351 115.304C138.451 115.71 150.341 104.485 150.747 90.3843C151.157 76.1376 140.004 64.3239 125.757 63.9143Z" fill="#76E2F8"/>
<path d="M159.543 40.0792C158.944 40.6441 157.154 42.193 156.556 42.7577C147.815 50.7272 136.941 54.488 126.038 54.1747C115.136 53.8614 104.495 49.4819 96.2279 41.0246C95.663 40.4263 93.9652 38.7766 93.4005 38.1785C101.406 25.3873 112.66 13.4897 124.002 3.63089C124.974 2.71306 126.224 2.24011 127.533 2.27722C128.841 2.3153 130.062 2.85952 130.98 3.83165C141.733 14.3249 152.21 26.9197 159.543 40.0792Z" fill="#FF9F00"/>
<path d="M128.92 130.931C128.911 133.767 126.519 136.026 123.686 135.872C120.849 135.863 118.59 133.471 118.744 130.638C118.754 127.801 121.146 125.543 123.979 125.696C126.816 125.705 129.075 128.098 128.92 130.931Z" fill="#5A5A5A"/>
<path d="M159.543 40.0792C158.944 40.6441 157.154 42.193 156.556 42.7577C147.815 50.7272 136.941 54.488 126.038 54.1747L127.532 2.27769C128.84 2.31577 130.061 2.85999 130.979 3.83213C141.733 14.3249 152.21 26.9197 159.543 40.0792Z" fill="#FF7816"/>
<path d="M150.747 90.3842C150.341 104.485 138.451 115.71 124.351 115.304L124.281 115.23L125.757 63.9142C140.004 64.3239 151.157 76.1375 150.747 90.3842Z" fill="#25D9F8"/>
<path d="M128.92 130.931C128.911 133.767 126.519 136.026 123.686 135.872L123.979 125.696C126.816 125.705 129.075 128.098 128.92 130.931Z" fill="#444444"/>
</svg>
