<svg xmlns="http://www.w3.org/2000/svg" version="1.1" xmlns:xlink="http://www.w3.org/1999/xlink" xmlns:svgjs="http://svgjs.com/svgjs" width="512" height="512" x="0" y="0" viewBox="0 0 512.002 512.002" style="enable-background:new 0 0 512 512" xml:space="preserve" class=""><g><path xmlns="http://www.w3.org/2000/svg" d="m201.498 512.002c-1.992 0-4.008-.398-5.934-1.229-6.741-2.907-10.387-10.266-8.617-17.39l50.724-204.178h-136.67c-4.947 0-9.576-2.439-12.373-6.52s-3.402-9.278-1.617-13.892l100.262-259.204c2.235-5.779 7.793-9.589 13.989-9.589h137.961c5.069 0 9.795 2.56 12.565 6.806 2.768 4.246 3.206 9.603 1.162 14.242l-59.369 134.76h117.42c5.486 0 10.534 2.995 13.164 7.81 2.63 4.814 2.422 10.68-.543 15.296l-209.496 326.192c-2.833 4.412-7.651 6.896-12.628 6.896z" fill="#FFA000" data-original="#ffe645"></path><path xmlns="http://www.w3.org/2000/svg" d="m411.001 155.807h-117.42l59.369-134.76c2.044-4.639 1.606-9.996-1.162-14.242-2.769-4.245-7.495-6.805-12.564-6.805h-73.237v424.357l157.636-245.444c2.965-4.616 3.173-10.482.543-15.296-2.631-4.815-7.678-7.81-13.165-7.81z" fill="#FFA000" data-original="#ffcf2c" class=""></path></g></svg>