<svg width="100" height="90" viewBox="0 0 100 90" fill="none" xmlns="http://www.w3.org/2000/svg">
<g clip-path="url(#clip0_3061_3499)">
<path d="M98.1666 58.8787L77.35 40.1437C74.925 37.9612 70.9937 37.9612 68.5687 40.1437C66.1437 42.3281 66.1437 45.8662 68.5687 48.0487L74.8958 53.7431C32.425 55.6218 4.81245 29.9681 4.55621 3.67307C4.54787 2.72245 3.06454 2.52932 2.73537 3.40307C-7.5188 30.7387 11.1312 65.0718 59.875 71.28C64.5958 71.8331 69.3708 72.2531 74.1833 72.5568L68.5645 77.6137C66.1395 79.7962 66.1395 83.3362 68.5645 85.5168C70.9895 87.6993 74.9208 87.7012 77.3458 85.5168L98.1625 66.7818C100.592 64.6012 100.592 61.0631 98.1666 58.8787Z" fill="#FFA000"/>
</g>
<defs>
<clipPath id="clip0_3061_3499">
<rect width="90" height="100" fill="white" transform="matrix(0 -1 -1 0 100 90)"/>
</clipPath>
</defs>
</svg>
