<svg width="100" height="90" viewBox="0 0 100 90" fill="none" xmlns="http://www.w3.org/2000/svg">
<g clip-path="url(#clip0_3078_3579)">
<path d="M1.83337 58.8787L22.65 40.1437C25.075 37.9612 29.0063 37.9612 31.4313 40.1437C33.8563 42.3281 33.8563 45.8662 31.4313 48.0487L25.1042 53.7431C67.5751 55.6218 95.1876 29.9681 95.4438 3.67307C95.4521 2.72245 96.9355 2.52932 97.2646 3.40307C107.519 30.7387 88.8688 65.0718 40.125 71.28C35.4042 71.8331 30.6292 72.2531 25.8167 72.5568L31.4355 77.6137C33.8605 79.7962 33.8605 83.3362 31.4355 85.5168C29.0105 87.6993 25.0792 87.7012 22.6542 85.5168L1.83753 66.7818C-0.591634 64.6012 -0.591634 61.0631 1.83337 58.8787Z" fill="#FFA000"/>
</g>
<defs>
<clipPath id="clip0_3078_3579">
<rect width="90" height="100" fill="white" transform="translate(0 90) rotate(-90)"/>
</clipPath>
</defs>
</svg>
