<svg xmlns="http://www.w3.org/2000/svg" version="1.1" xmlns:xlink="http://www.w3.org/1999/xlink" xmlns:svgjs="http://svgjs.com/svgjs" width="512" height="512" x="0" y="0" viewBox="0 0 512 512" style="enable-background:new 0 0 512 512" xml:space="preserve" class=""><g><g xmlns="http://www.w3.org/2000/svg"><g><path d="m237.564 303.166c-.524 15.148-12.391 27.426-27.626 28.549-14.187 1.036-28.512 1.572-42.562 1.572s-28.362-.536-42.55-1.572c-15.236-1.123-27.115-13.401-27.626-28.549-2.271-66.308-2.271-133.477-.012-199.635.524-15.161 12.391-27.426 27.626-28.549 14.187-1.036 28.512-1.572 42.562-1.572s28.375.536 42.575 1.572c15.223 1.123 27.102 13.389 27.626 28.549.337 9.783.611 19.578.848 29.398h57.087c-.237-10.481-.537-20.925-.898-31.357-1.51-44.347-36.111-80.258-80.483-83.515-15.585-1.148-31.307-1.722-46.755-1.722-15.435 0-31.17.574-46.742 1.722-44.371 3.257-78.973 39.168-80.495 83.515-2.308 67.456-2.308 135.934.012 203.54 1.51 44.359 36.111 80.258 80.483 83.527 15.572 1.148 31.307 1.722 46.742 1.722 15.448 0 31.17-.574 46.755-1.722 44.359-3.269 78.96-39.168 80.483-83.527.187-5.578.362-11.168.524-16.77h-57.112c-.137 4.954-.287 9.895-.462 14.824z" fill="#665E66" data-original="#665e66"></path><g fill="#544F57"><path d="m209.951 74.982c-9.371-.686-18.804-1.123-28.175-1.36 4.816-.125 9.633-.212 14.4-.212 14.05 0 28.375.536 42.562 1.572 15.236 1.123 27.102 13.389 27.626 28.549.337 9.783.611 19.578.848 29.398h-28.787c-.237-9.82-.512-19.615-.848-29.398-.524-15.16-12.391-27.426-27.626-28.549z" fill="#544F57" data-original="#544f57"></path><path d="m149.425 388.638c-44.365-3.265-78.966-39.171-80.483-83.521-2.313-67.604-2.316-136.085-.008-203.54 1.519-44.353 36.121-80.258 80.489-83.518 10.763-.791 21.594-1.293 32.356-1.54-4.815-.11-9.621-.185-14.394-.185-15.441 0-31.17.58-46.75 1.725-44.367 3.261-78.97 39.165-80.489 83.518-2.308 67.456-2.306 135.937.008 203.54 1.518 44.35 36.118 80.256 80.483 83.521 15.577 1.146 31.305 1.727 46.747 1.727 4.774 0 9.579-.075 14.394-.186-10.762-.247-21.591-.75-32.353-1.541z" fill="#544F57" data-original="#544f57"></path></g><path d="m167.38 459.015c-37.777 0-75.873-1.096-113.906-3.27-27.334-1.562-49.19-23.31-50.919-50.634-3.401-53.733-3.407-107.649-.012-161.29 1.729-27.323 23.586-49.069 50.918-50.63 37.999-2.17 76.144-3.266 113.919-3.266s75.921 1.096 113.919 3.266c27.333 1.561 49.189 23.308 50.918 50.63 3.395 53.641 3.389 107.557-.012 161.29-1.73 27.324-23.585 49.072-50.919 50.634-38.033 2.174-76.129 3.27-113.906 3.27z" fill="#F4DD45" data-original="#f4dd45"></path><path d="m66.43 456.43c-4.324-.2-8.648-.442-12.957-.685-27.327-1.555-49.189-23.303-50.916-50.631-3.397-53.741-3.411-107.654-.015-161.296 1.727-27.313 23.589-49.061 50.916-50.631 4.324-.243 8.633-.485 12.957-.685-16.054 9.418-27.128 26.386-28.369 46.093-3.625 57.124-3.61 114.533.014 171.742 1.242 19.708 12.316 36.675 28.37 46.093z" fill="#ECC32E" data-original="#ecc32e"></path></g><g><path d="m467.525 485.248c-100.598 3.762-201.197 3.762-301.795 0-16.737-.626-30.614-13.033-33.34-29.558-4.719-28.607-4.719-57.213 0-85.819 2.726-16.525 16.603-28.932 33.34-29.558 100.598-3.762 201.197-3.762 301.795 0 16.737.626 30.615 13.033 33.34 29.558 4.719 28.606 4.719 57.213 0 85.819-2.725 16.525-16.603 28.932-33.34 29.558z" fill="#F9F6F9" data-original="#f9f6f9"></path><path d="m316.628 495.667c-50.512 0-101.024-.938-151.182-2.813-20.196-.755-37.257-15.864-40.566-35.926-4.833-29.295-4.833-59.002 0-88.297 3.309-20.062 20.37-35.171 40.566-35.926 100.318-3.751 202.048-3.751 302.364 0 20.196.755 37.257 15.864 40.566 35.926 4.833 29.295 4.833 59.002 0 88.297-3.309 20.062-20.369 35.171-40.566 35.926-50.159 1.876-100.67 2.813-151.182 2.813zm150.897-10.419h.01zm-150.897-140.132c-50.322 0-100.643.934-150.613 2.802-12.995.486-23.977 10.239-26.114 23.191-4.562 27.651-4.562 55.691 0 83.342 2.137 12.952 13.119 22.705 26.115 23.191 99.941 3.737 201.287 3.737 301.226 0 12.995-.486 23.978-10.239 26.114-23.191 4.562-27.651 4.562-55.691 0-83.342-2.136-12.952-13.119-22.705-26.114-23.191-49.971-1.868-100.293-2.802-150.614-2.802z" fill="#E2DFE2" data-original="#e2dfe2"></path><g fill="#665E66"><path d="m225.614 391.635c-2.102-3.641-6.757-4.888-10.398-2.786l-18.613 10.746v-21.493c0-4.204-3.408-7.612-7.612-7.612s-7.612 3.408-7.612 7.612v21.493l-18.614-10.747c-3.641-2.103-8.297-.854-10.398 2.786-2.102 3.641-.855 8.296 2.786 10.398l18.614 10.747-18.614 10.747c-3.641 2.102-4.888 6.757-2.786 10.398 1.41 2.442 3.968 3.807 6.599 3.807 1.291 0 2.6-.329 3.799-1.021l18.614-10.747v21.493c0 4.204 3.408 7.612 7.612 7.612s7.612-3.408 7.612-7.612v-21.493l18.613 10.746c1.199.692 2.508 1.021 3.799 1.021 2.63 0 5.189-1.366 6.599-3.807 2.102-3.641.855-8.296-2.786-10.398l-18.614-10.747 18.614-10.747c3.641-2.1 4.888-6.755 2.786-10.396z" fill="#665E66" data-original="#665e66"></path><path d="m309.375 391.635c-2.102-3.641-6.758-4.888-10.398-2.786l-18.614 10.747v-21.493c0-4.204-3.408-7.612-7.612-7.612s-7.612 3.408-7.612 7.612v21.493l-18.614-10.747c-3.641-2.103-8.296-.854-10.398 2.786-2.102 3.641-.855 8.296 2.786 10.398l18.614 10.747-18.614 10.747c-3.641 2.102-4.888 6.757-2.786 10.398 1.41 2.442 3.968 3.807 6.599 3.807 1.291 0 2.6-.329 3.799-1.021l18.614-10.747v21.493c0 4.204 3.408 7.612 7.612 7.612s7.612-3.408 7.612-7.612v-21.493l18.614 10.747c1.199.692 2.508 1.021 3.799 1.021 2.63 0 5.189-1.366 6.599-3.807 2.102-3.641.855-8.296-2.786-10.398l-18.614-10.747 18.614-10.747c3.64-2.102 4.888-6.757 2.786-10.398z" fill="#665E66" data-original="#665e66"></path><path d="m393.135 391.635c-2.102-3.641-6.758-4.888-10.398-2.786l-18.614 10.747v-21.493c0-4.204-3.408-7.612-7.612-7.612s-7.612 3.408-7.612 7.612v21.493l-18.614-10.747c-3.641-2.103-8.296-.854-10.398 2.786-2.102 3.641-.855 8.296 2.786 10.398l18.614 10.747-18.614 10.747c-3.641 2.102-4.888 6.757-2.786 10.398 1.41 2.442 3.968 3.807 6.599 3.807 1.291 0 2.6-.329 3.799-1.021l18.614-10.747v21.493c0 4.204 3.408 7.612 7.612 7.612s7.612-3.408 7.612-7.612v-21.493l18.614 10.747c1.199.692 2.508 1.021 3.799 1.021 2.63 0 5.189-1.366 6.599-3.807 2.102-3.641.855-8.296-2.786-10.398l-18.614-10.747 18.614-10.747c3.641-2.102 4.889-6.757 2.786-10.398z" fill="#665E66" data-original="#665e66"></path><path d="m474.11 423.526-18.614-10.747 18.614-10.747c3.641-2.102 4.888-6.757 2.786-10.398s-6.757-4.888-10.398-2.786l-18.613 10.746v-21.493c0-4.204-3.408-7.612-7.612-7.612s-7.612 3.408-7.612 7.612v21.493l-18.614-10.747c-3.64-2.103-8.296-.854-10.398 2.786-2.102 3.641-.855 8.296 2.786 10.398l18.614 10.747-18.614 10.747c-3.641 2.102-4.888 6.757-2.786 10.398 1.41 2.442 3.968 3.807 6.599 3.807 1.291 0 2.6-.329 3.799-1.021l18.614-10.747v21.493c0 4.204 3.408 7.612 7.612 7.612s7.612-3.408 7.612-7.612v-21.493l18.613 10.746c1.199.692 2.508 1.021 3.799 1.021 2.63 0 5.189-1.366 6.599-3.807 2.102-3.639.855-8.294-2.786-10.396z" fill="#665E66" data-original="#665e66"></path></g></g><g><path d="m322.53 148.718c-1.091 0-2.198-.235-3.25-.733-3.8-1.797-5.423-6.335-3.626-10.136l14.682-31.041c1.797-3.8 6.333-5.425 10.136-3.626 3.8 1.797 5.423 6.335 3.626 10.136l-14.682 31.041c-1.3 2.749-4.034 4.359-6.886 4.359z" fill="#DD636E" data-original="#dd636e"></path></g><g><path d="m368.384 204.802c-1.091 0-2.198-.235-3.249-.733l-31.041-14.682c-3.8-1.797-5.424-6.335-3.626-10.135 1.797-3.801 6.335-5.426 10.135-3.626l31.041 14.682c3.8 1.797 5.424 6.335 3.626 10.135-1.3 2.748-4.034 4.359-6.886 4.359z" fill="#DD636E" data-original="#dd636e"></path></g><g><path d="m338.517 166.351c-3.125 0-6.054-1.939-7.167-5.05-1.416-3.958.644-8.314 4.603-9.731l32.331-11.568c3.957-1.419 8.315.645 9.731 4.603s-.644 8.314-4.603 9.731l-32.331 11.568c-.848.303-1.713.447-2.564.447z" fill="#DD636E" data-original="#dd636e"></path></g></g></g></svg>