<svg xmlns="http://www.w3.org/2000/svg" version="1.1" xmlns:xlink="http://www.w3.org/1999/xlink" xmlns:svgjs="http://svgjs.com/svgjs" width="512" height="512" x="0" y="0" viewBox="0 0 32 32" style="enable-background:new 0 0 512 512" xml:space="preserve"><g><g xmlns="http://www.w3.org/2000/svg" id="Padlock"><path d="m25 13a1 1 0 0 1 -1-1 8 8 0 0 0 -16 0 1 1 0 0 1 -2 0 10 10 0 0 1 20 0 1 1 0 0 1 -1 1z" fill="#546F7A" data-original="#546f7a"></path><path d="m16 2v2a8 8 0 0 1 8 8 1 1 0 0 0 2 0 10 10 0 0 0 -10-10z" fill="#455B64" data-original="#455b64"></path><path d="m26.08 12h-20.16a2.92 2.92 0 0 0 -2.92 2.92v7.83a7.25 7.25 0 0 0 7.25 7.25h11.5a7.25 7.25 0 0 0 7.25-7.25v-7.83a2.92 2.92 0 0 0 -2.92-2.92z" fill="#FFCB29" data-original="#ffcb29"></path><path d="m26.08 12h-10.08v18h5.75a7.25 7.25 0 0 0 7.25-7.25v-7.83a2.92 2.92 0 0 0 -2.92-2.92z" fill="#FEC111" data-original="#fec111"></path><path d="m18 20a2 2 0 0 1 -.67 1.48 1 1 0 0 0 -.33.74v.78a1 1 0 0 1 -2 0v-.78a1 1 0 0 0 -.33-.74 2 2 0 1 1 3.33-1.48z" fill="#546F7A" data-original="#546f7a"></path><path d="m16 18v6a1 1 0 0 0 1-1v-.78a1 1 0 0 1 .33-.74 2 2 0 0 0 -1.33-3.48z" fill="#455B64" data-original="#455b64"></path></g></g></svg>