<svg id="Layer_1" data-name="Layer 1" xmlns="http://www.w3.org/2000/svg" width="992" height="992" viewBox="0 0 992 992"><path d="M512,16C238.06,16,16,238.06,16,512s222.06,496,496,496,496-222.06,496-496S785.94,16,512,16Z" transform="translate(-16 -16)" fill="#f14336"/><path d="M816.77,284.77,543.11,476.85c-23.79,23.82-38.52,23.82-62.33,0l-273.54-192a47.37,47.37,0,0,1,20.35-4.71H796.65A47.11,47.11,0,0,1,816.77,284.77Z" transform="translate(-16 -16)" fill="#fff"/><path d="M844.29,342.27v363h0A47.76,47.76,0,0,1,796.54,753H227.46a47.76,47.76,0,0,1-47.74-47.78v-363a44.76,44.76,0,0,1,.73-7L461.38,534.66a71.55,71.55,0,0,0,101.26,0L843.58,335.27A48.68,48.68,0,0,1,844.29,342.27Z" transform="translate(-16 -16)" fill="#fff"/></svg>