<svg xmlns="http://www.w3.org/2000/svg" version="1.1" xmlns:xlink="http://www.w3.org/1999/xlink" xmlns:svgjs="http://svgjs.com/svgjs" width="512" height="512" x="0" y="0" viewBox="0 0 512 512" style="enable-background:new 0 0 512 512" xml:space="preserve" class=""><g><g xmlns="http://www.w3.org/2000/svg"><path d="m365.775 51.208h-56.71v-43.597h56.71c2.532 0 4.584 2.052 4.584 4.584v34.43c0 2.531-2.052 4.583-4.584 4.583z" fill="#E7A561" data-original="#e7a561"></path><path d="m365.775 7.611h-19.227c2.532 0 4.584 2.052 4.584 4.584v34.429c0 2.532-2.052 4.584-4.584 4.584h19.227c2.532 0 4.584-2.052 4.584-4.584v-34.429c0-2.531-2.052-4.584-4.584-4.584z" fill="#E49542" data-original="#e49542"></path><path d="m148.386 77.682h215.228c49.282 0 89.233 39.951 89.233 89.233v118.131c0 4.859-3.939 8.797-8.797 8.797h-206.431l-112.938-131.1z" fill="#6746C3" data-original="#9dc6fb" class=""></path><path d="m363.614 77.682h-26.17c49.282 0 89.233 39.951 89.233 89.233v118.131c0 4.858-3.939 8.797-8.797 8.797h26.17c4.859 0 8.797-3.939 8.797-8.797v-118.13c.001-49.283-39.951-89.234-89.233-89.234z" fill="#311B92" data-original="#80b4fb" class=""></path><path d="m237.619 293.844h-169.67c-4.859 0-8.797-3.939-8.797-8.797v-118.131c0-49.282 39.951-89.233 89.234-89.233 49.282 0 89.234 39.951 89.234 89.233v126.928z" fill="#000063" data-original="#26457d" class=""></path><path d="m148.386 77.682c-3.308 0-6.572.186-9.786.536 44.677 4.875 79.447 42.722 79.447 88.697v126.928h19.572v-126.927c0-49.283-39.951-89.234-89.233-89.234z" fill="#000063" data-original="#21386b" class=""></path><path d="m323.718 336.01h-80.85c-9.629 0-17.435-7.806-17.435-17.435v-24.732h115.719v24.732c.001 9.629-7.805 17.435-17.434 17.435z" fill="#F9F6F6" data-original="#f9f6f6"></path><path d="m317.41 293.844v24.731c0 9.629-7.806 17.435-17.435 17.435h23.743c9.629 0 17.435-7.806 17.435-17.435v-24.731z" fill="#DDDAEC" data-original="#dddaec" class=""></path><path d="m303.953 512h-41.319c-2.824 0-5.113-2.289-5.113-5.113v-170.877h51.545v170.877c-.001 2.823-2.29 5.113-5.113 5.113z" fill="#DDDAEC" data-original="#dddaec" class=""></path><path d="m257.521 336.01v19.619c17.476 0 31.644 14.167 31.644 31.644v124.727h14.788c2.824 0 5.113-2.289 5.113-5.113v-170.877z" fill="#D0CEE7" data-original="#d0cee7" class=""></path><g><path d="m309.066 120.93c-4.204 0-7.612-3.407-7.612-7.611v-105.708c0-4.204 3.407-7.611 7.612-7.611s7.611 3.407 7.611 7.611v105.707c0 4.204-3.407 7.612-7.611 7.612z" fill="#000063" data-original="#21386b" class=""></path></g><path d="m237.619 293.844h-108.806v-106.463c0-3.656 2.964-6.62 6.62-6.62h102.186z" fill="#FFE07D" data-original="#ffe07d" class=""></path><path d="m218.047 180.761h19.572v113.083h-19.572z" fill="#FFD064" data-original="#ffd064" class=""></path><path d="m135.434 180.761c-1.716 0-3.275.659-4.451 1.729l82.55 53.04c3.506 2.253 8.086 1.881 11.183-.908l12.903-11.62v-42.241z" fill="#E7A561" data-original="#e7a561"></path><path d="m218.047 180.761v56.217c2.389.124 4.799-.672 6.669-2.356l12.903-11.62v-42.241z" fill="#E49542" data-original="#e49542"></path><path d="m392.865 250.268h-84.79c-4.473 0-8.099-3.626-8.099-8.099v-25.191c0-4.473 3.626-8.099 8.099-8.099h84.79c4.473 0 8.099 3.626 8.099 8.099v25.191c0 4.473-3.626 8.099-8.099 8.099z" fill="#F9F6F6" data-original="#f9f6f6"></path><path d="m392.865 208.879h-22.701c4.473 0 8.099 3.626 8.099 8.099v25.191c0 4.473-3.626 8.099-8.099 8.099h22.701c4.473 0 8.099-3.626 8.099-8.099v-25.191c0-4.473-3.626-8.099-8.099-8.099z" fill="#DDDAEC" data-original="#dddaec" class=""></path></g></g></svg>