<svg width="191" height="210" viewBox="0 0 191 210" fill="none" xmlns="http://www.w3.org/2000/svg">
<rect x="10.5508" y="0.5" width="168.949" height="208.239" rx="41.5" fill="#DED5EF" stroke="#FFA000"/>
<g clip-path="url(#clip0_234_630)">
<path d="M159.179 198.189L155.031 165.007C154.405 159.998 150.959 155.794 146.17 154.198L130.177 148.867C127.981 148.135 125.572 148.601 123.878 150.044L119.167 148.474C116.491 147.582 114.686 145.077 114.686 142.257V131.688L128.801 125.807C136.127 122.755 140.899 115.597 140.899 107.66V104.383C146.329 104.383 150.73 99.9818 150.73 94.5527C150.73 92.1037 149.832 89.8657 148.351 88.1446C151.132 78.0203 158.95 45.9952 150.73 32.2948L154.006 19.1879C154.006 19.1879 119.601 20.007 101.579 25.7413L108.132 19.1879C108.132 19.1879 62.0531 19.1879 52.4306 35.5687L52.4278 35.5715C52.4278 35.5715 36.0441 35.4351 36.0441 55.2319C36.0441 62.4776 40.0855 80.57 41.8206 88.0053C40.267 89.7437 39.3208 92.0374 39.3208 94.5527C39.3208 99.9818 43.7219 104.383 49.151 104.383V107.66C49.151 115.596 53.9232 122.755 61.2495 125.808L75.3649 131.689V142.257C75.3649 145.078 73.5598 147.582 70.8839 148.474L66.1728 150.044C64.4792 148.602 62.0699 148.135 59.8737 148.867L43.8804 154.199C39.0919 155.795 35.6456 159.999 35.0197 165.007L30.8722 198.189C30.1386 204.056 34.7133 209.238 40.6262 209.238H40.7184H149.332H149.424C155.337 209.238 159.912 204.056 159.179 198.189Z" fill="#FFD7A3"/>
<path d="M114.686 131.689L75.3647 131.689V142.257C75.3647 144.616 74.0598 146.694 72.0811 147.852C99.5622 152.662 114.686 131.689 114.686 131.689Z" fill="#FDC88E"/>
<path d="M42.5978 91.2759C42.5978 91.2759 36.0443 64.4583 36.0443 55.2319C36.0443 35.4351 52.428 35.5715 52.428 35.5715L52.4308 35.5686C62.0534 19.1879 108.132 19.1879 108.132 19.1879L101.579 25.7413C119.601 20.007 154.007 19.1879 154.007 19.1879L150.73 32.2948C160.56 48.6784 147.453 91.2759 147.453 91.2759H42.5978Z" fill="#734A3E"/>
<path d="M108.132 19.1879C108.132 19.1879 62.0534 19.1879 52.4308 35.5686L52.428 35.5715C52.428 35.5715 36.0443 35.4351 36.0443 55.2319C36.0443 64.4583 42.5978 91.2759 42.5978 91.2759C42.5978 91.2759 110.727 60.8298 154.007 19.1879C154.007 19.1879 119.601 20.007 101.579 25.7413L108.132 19.1879Z" fill="#623F33"/>
<path d="M140.899 84.7224V78.169C140.899 69.1207 133.564 61.7853 124.516 61.7853H65.5346C56.4864 61.7853 49.151 69.1207 49.151 78.169V84.7224C43.7219 84.7224 39.3208 89.1235 39.3208 94.5526C39.3208 99.9818 43.7219 104.383 49.151 104.383V107.66C49.151 115.596 53.9231 122.755 61.2495 125.808L82.4217 134.629C86.4152 136.294 90.6987 137.15 95.0248 137.15C99.3509 137.15 103.634 136.293 107.628 134.629L128.801 125.807C136.127 122.755 140.899 115.597 140.899 107.66V104.383C146.329 104.383 150.73 99.9818 150.73 94.5526C150.73 89.1235 146.329 84.7224 140.899 84.7224Z" fill="#FFE1B2"/>
<path d="M72.0881 97.8294C70.2859 97.8294 68.8114 96.3549 68.8114 94.5527V91.2759C68.8114 89.4737 70.2859 87.9992 72.0881 87.9992C73.8903 87.9992 75.3649 89.4737 75.3649 91.2759V94.5527C75.3649 96.3549 73.8903 97.8294 72.0881 97.8294Z" fill="#623F33"/>
<path d="M117.962 97.8294C116.16 97.8294 114.686 96.3549 114.686 94.5527V91.2759C114.686 89.4737 116.16 87.9992 117.962 87.9992C119.764 87.9992 121.239 89.4737 121.239 91.2759V94.5527C121.239 96.3549 119.764 97.8294 117.962 97.8294Z" fill="#623F33"/>
<path d="M95.0254 120.856C89.1998 120.856 83.7506 119.423 80.0753 116.922C78.5795 115.905 78.1904 113.866 79.2098 112.37C80.2256 110.876 82.2658 110.487 83.7616 111.505C86.3375 113.257 90.5486 114.303 95.0254 114.303C99.5022 114.303 103.713 113.257 106.289 111.505C107.788 110.484 109.824 110.875 110.841 112.37C111.86 113.866 111.471 115.905 109.975 116.922C106.301 119.423 100.851 120.856 95.0254 120.856Z" fill="#E4B07B"/>
<path d="M159.179 198.189L155.031 165.007C154.405 159.999 150.959 155.795 146.17 154.199L130.177 148.867C127.392 147.939 124.259 148.93 122.685 151.409C116.877 160.561 106.667 166.641 95.0252 166.641C83.383 166.641 73.174 160.561 67.3655 151.409C65.7923 148.93 62.6589 147.939 59.8737 148.867L43.8804 154.199C39.0919 155.795 35.6456 159.999 35.0197 165.007L30.8722 198.189C30.1386 204.056 34.7137 209.239 40.6266 209.239H149.425C155.337 209.239 159.912 204.056 159.179 198.189Z" fill="#00BEA4"/>
<path d="M37.7513 158.518C36.2964 160.36 35.3224 162.585 35.0197 165.007L30.8722 198.189C30.1386 204.056 34.7137 209.238 40.6266 209.238H58.9812V187.912C58.9812 184.759 57.845 181.713 55.7811 179.33L37.7513 158.518Z" fill="#00AB9A"/>
<path d="M152.299 158.518C153.754 160.36 154.728 162.585 155.031 165.007L159.178 198.189C159.912 204.056 155.337 209.238 149.424 209.238H131.069V187.912C131.069 184.759 132.206 181.713 134.269 179.33L152.299 158.518Z" fill="#00AB9A"/>
<path d="M66.3522 119.015C63.6972 116.168 62.2583 112.412 62.2583 108.519V71.3853C72.6877 70.6034 105.57 67.7596 124.516 61.7853H65.5346C64.4066 61.7853 63.3142 61.9168 62.2579 62.1462V62.1155C54.78 63.6338 49.151 70.243 49.151 78.169V84.7225C43.7219 84.7225 39.3208 89.1235 39.3208 94.5526C39.3208 99.9818 43.7219 104.383 49.151 104.383V107.66C49.151 115.597 53.9231 122.755 61.2495 125.808L82.4213 134.63C83.4575 135.061 84.5151 135.433 85.5862 135.755C76.2295 128.91 70.0012 122.927 66.3522 119.015Z" fill="#FFD7A3"/>
</g>
<defs>
<clipPath id="clip0_234_630">
<rect width="190.051" height="190.051" fill="white" transform="translate(0 19.1879)"/>
</clipPath>
</defs>
</svg>
