<svg xmlns="http://www.w3.org/2000/svg" version="1.1" xmlns:xlink="http://www.w3.org/1999/xlink" xmlns:svgjs="http://svgjs.com/svgjs" width="512" height="512" x="0" y="0" viewBox="0 0 512 512" style="enable-background:new 0 0 512 512" xml:space="preserve" class=""><g><path xmlns="http://www.w3.org/2000/svg" d="m285.9375 285.9375h226.0625v226.0625h-226.0625zm0 0" fill="#5BE167" data-original="#5be167"></path><path xmlns="http://www.w3.org/2000/svg" d="m389.839844 244.316406c67.359375 0 122.160156-54.800781 122.160156-122.160156 0-67.355469-54.800781-122.15625-122.160156-122.15625s-122.15625 54.800781-122.15625 122.160156 54.800781 122.15625 122.15625 122.15625zm0 0" fill="#FFDA2D" data-original="#ffda2d" class=""></path><path xmlns="http://www.w3.org/2000/svg" d="m0 231.3125h262.699219l-131.347657-231.3125zm0 0" fill="#FF0059" data-original="#ff0059" class=""></path><path xmlns="http://www.w3.org/2000/svg" d="m63.648438 291.511719-63.648438 110.246093 63.648438 110.242188h127.296874l63.648438-110.242188-63.648438-110.246093zm0 0" fill="#00D7DF" data-original="#00d7df"></path><path xmlns="http://www.w3.org/2000/svg" d="m398 285.9375h114v226.0625h-114zm0 0" fill="#1FC974" data-original="#1fc974"></path><path xmlns="http://www.w3.org/2000/svg" d="m389.839844 244.316406c67.359375 0 122.160156-54.800781 122.160156-122.160156 0-67.355469-54.800781-122.15625-122.160156-122.15625zm0 0" fill="#FDBF00" data-original="#fdbf00" class=""></path><path xmlns="http://www.w3.org/2000/svg" d="m131.203125 231.3125h131.496094l-131.347657-231.3125zm0 0" fill="#D20041" data-original="#d20041" class=""></path><path xmlns="http://www.w3.org/2000/svg" d="m190.945312 291.511719h-63.945312v220.488281h63.945312l63.648438-110.242188zm0 0" fill="#00AADF" data-original="#00aadf"></path></g></svg>