<svg width="183" height="101" viewBox="0 0 183 101" fill="none" xmlns="http://www.w3.org/2000/svg">
<g clip-path="url(#clip0_189_1032)">
<path d="M55.8589 57.0918C52.9418 57.2635 50.0171 57.2635 47.1 57.0918C44.7257 56.9036 42.7568 56.701 41.309 56.4693C39.8613 56.2377 38.7465 56.0929 38.0661 56.006C37.3856 55.9192 36.9658 56.006 36.8355 56.4259C36.7052 56.8457 36.9513 57.4248 37.6317 58.0474C38.492 58.8122 39.4065 59.5137 40.368 60.1466C41.5117 60.9284 42.8002 61.7826 44.2335 62.7381C45.6558 63.6847 47.0281 64.7043 48.3451 65.7928C49.6075 66.8411 50.7795 67.9937 51.8486 69.2384C52.8158 70.3527 53.523 71.6681 53.9189 73.0894C54.2656 74.4932 54.1695 75.9699 53.6438 77.3169C52.9087 79.0533 51.7607 80.584 50.2995 81.7759C48.52 82.9104 46.5624 83.7375 44.5085 84.2226C42.0934 84.8165 39.6246 85.1658 37.1395 85.265C31.5048 85.5047 25.8693 84.81 20.4615 83.2092C17.7543 82.3663 15.1398 81.2507 12.6581 79.8794C10.3022 78.6283 8.14953 77.0272 6.27355 75.1308C4.49104 73.3138 3.06672 71.1773 2.07508 68.8331C1.04891 66.331 0.61296 63.6262 0.801064 60.9284C0.848653 58.9146 1.34315 56.9366 2.24881 55.1374C2.99913 53.6736 4.08568 52.4084 5.41938 51.4456C6.64247 50.563 8.04716 49.9645 9.53098 49.6939C10.9665 49.4281 12.4387 49.4281 13.8742 49.6939C15.2434 49.9248 16.5556 50.4163 17.7397 51.1416C18.8479 51.8114 19.7614 52.7598 20.3891 53.8923C21.0205 55.0555 21.2783 56.385 21.1274 57.6999C20.8968 59.3865 20.239 60.9862 19.2164 62.3472C18.9051 62.7545 18.7076 63.2373 18.644 63.746C18.5804 64.2547 18.6531 64.7712 18.8545 65.2427C19.3815 66.3725 20.1648 67.3639 21.1419 68.1382C22.4057 69.185 23.7852 70.0837 25.2535 70.8165C26.8832 71.6612 28.5606 72.4104 30.2772 73.0605C31.9274 73.6858 33.6149 74.208 35.3298 74.6241C36.7078 74.9914 38.1192 75.2193 39.5428 75.3045C40.4134 75.4218 41.299 75.2649 42.0763 74.8557C42.5975 74.5082 42.5686 73.9002 42.0763 73.0605C41.655 72.4489 41.1309 71.915 40.5272 71.4824C39.7599 70.8744 38.8623 70.194 37.8055 69.4266C36.7486 68.6593 35.6339 67.8341 34.4322 66.9221C33.2306 66.01 32.0579 65.0255 30.8997 64.0266C29.7638 62.9804 28.6951 61.8634 27.7002 60.6823C26.7395 59.5556 25.936 58.304 25.3114 56.9615C24.8005 55.7525 24.5017 54.4645 24.4283 53.154C24.3842 52.0987 24.5314 51.0442 24.8626 50.0413C25.1695 49.1639 25.6635 48.3636 26.3104 47.696C26.9214 47.0603 27.6424 46.5404 28.4386 46.1614C29.2371 45.784 30.0937 45.5442 30.9721 45.452C31.8473 45.347 32.7342 45.396 33.5925 45.5967C34.4886 45.8544 35.397 46.067 36.3143 46.2337C37.7717 46.5329 39.5524 46.8225 41.6565 47.1024C43.7557 47.3775 45.9997 47.5802 48.5333 47.7394C50.9455 47.8883 53.3657 47.8496 55.772 47.6236L55.8589 57.0918ZM18.4491 93.7054C18.4379 92.8533 18.6107 92.0089 18.9558 91.2297C19.2735 90.4722 19.7358 89.7837 20.3167 89.2029C20.9031 88.6251 21.59 88.159 22.3435 87.8275C23.1257 87.4919 23.9681 87.3195 24.8192 87.3208C25.6706 87.3166 26.5136 87.4892 27.2948 87.8275C28.8215 88.4859 30.0386 89.7031 30.697 91.2297C31.0354 92.011 31.2079 92.854 31.2038 93.7054C31.2051 94.5565 31.0326 95.3989 30.697 96.181C30.3439 96.9403 29.853 97.6275 29.2493 98.2079C28.6684 98.7888 27.98 99.251 27.2224 99.5687C26.4433 99.9138 25.5989 100.087 24.7468 100.075C23.895 100.084 23.0512 99.9108 22.2712 99.5687C20.7415 98.9273 19.5249 97.7107 18.8834 96.181C18.5661 95.3955 18.4182 94.5519 18.4491 93.7054ZM32.5936 93.8936C32.5824 93.0415 32.7552 92.1971 33.1003 91.4179C33.418 90.6604 33.8803 89.9719 34.4612 89.3911C35.0476 88.8133 35.7345 88.3472 36.488 88.0157C37.2702 87.6801 38.1126 87.5077 38.9637 87.509C39.8151 87.5048 40.6581 87.6773 41.4393 88.0157C42.9903 88.6753 44.2254 89.9103 44.885 91.4614C45.2233 92.2426 45.3959 93.0856 45.3917 93.937C45.393 94.7881 45.2206 95.6305 44.885 96.4126C44.5534 97.1662 44.0874 97.8531 43.5096 98.4395C42.9287 99.0204 42.2403 99.4826 41.4828 99.8004C40.7036 100.145 39.8592 100.318 39.0071 100.307C38.1553 100.315 37.3116 100.142 36.5315 99.8004C35.0018 99.1589 33.7852 97.9423 33.1437 96.4126C32.7956 95.6192 32.6227 94.7599 32.637 93.8936H32.5936Z" fill="#000063"/>
<path d="M54.5414 47.667L55.5838 47.5512C56.1598 47.4969 56.7151 47.3085 57.2053 47.001C57.8711 46.6101 58.4967 46.1543 59.0729 45.6402C59.7291 45.053 60.3211 44.3978 60.8391 43.6857C61.3695 43.0029 61.7986 42.2471 62.1132 41.4417C62.5038 38.6168 63.2681 35.8564 64.3861 33.233C65.3119 31.0892 66.5566 29.0978 68.0779 27.3262C69.3935 25.8193 70.9795 24.5721 72.7541 23.6489C74.3783 22.839 76.1425 22.3476 77.9515 22.2012C79.6134 22.0193 81.2919 22.3368 82.7725 23.1132C84.2799 23.9462 85.6358 25.028 86.7828 26.3127C88.0874 27.7103 89.2512 29.233 90.2573 30.8587C91.3287 32.5815 92.3711 34.3043 93.3845 36.0416C94.3979 37.7789 95.4113 39.4438 96.4248 41.0363C97.3313 42.4809 98.3946 43.821 99.5953 45.0321C100.529 45.9409 101.642 46.6438 102.864 47.0951C104.086 47.5465 105.389 47.7364 106.689 47.6525H107.587V57.2222H107.239H106.877C105.328 57.0545 103.794 56.7689 102.288 56.368C100.805 55.9467 99.3877 55.3231 98.0752 54.5149C96.7429 53.7309 95.5331 52.7553 94.4848 51.6194C93.3183 50.3164 92.3433 48.854 91.5893 47.2761C91.9107 49.7495 91.7832 52.2605 91.2129 54.6886C90.7591 56.6013 89.9164 58.4001 88.7372 59.9729C87.6933 61.3482 86.3323 62.4509 84.7704 63.1869C83.2385 63.9052 81.5813 64.3182 79.8915 64.403C78.1512 64.4901 76.4096 64.2595 74.752 63.7225C72.999 63.1763 71.3569 62.3234 69.902 61.2035C68.3551 59.9868 67.0239 58.5186 65.9642 56.8602C64.7976 55.008 63.9829 52.9565 63.5609 50.8086C62.6517 52.5515 61.3599 54.066 59.7823 55.2387C58.2069 56.32 56.3846 56.9872 54.4835 57.1787L54.5414 47.667ZM78.4003 33.0448C77.4949 33.6615 76.7862 34.526 76.359 35.5349C75.8361 36.6441 75.5033 37.8334 75.3745 39.0529C75.2393 40.3278 75.2929 41.6157 75.5338 42.875C75.7283 44.0464 76.1408 45.1709 76.7499 46.1903C77.2771 47.0852 78.0512 47.809 78.9794 48.2751C80.0048 48.7312 81.167 48.7727 82.2224 48.3909C83.0107 48.1832 83.6987 47.7005 84.1623 47.03C84.5527 46.3723 84.7624 45.6232 84.7704 44.8584C84.758 43.9669 84.6066 43.0828 84.3216 42.238C84.0446 41.2751 83.6912 40.3359 83.2647 39.4293C82.8288 38.5168 82.3455 37.6277 81.817 36.7655C81.3821 36.0063 80.8985 35.2761 80.3692 34.5794C79.9885 34.1 79.5671 33.6544 79.1097 33.2474C78.7188 32.9145 78.5016 32.871 78.4003 33.0448Z" fill="#000063"/>
<path d="M105.792 47.5946C108.299 47.6367 110.806 47.4867 113.291 47.1458C118.712 46.4278 124.023 45.0369 129.1 43.0053C131.471 42.0668 133.753 40.9185 135.919 39.5741C134.829 38.6724 133.794 37.7055 132.821 36.6786C131.779 35.5928 130.78 34.4491 129.795 33.2619C128.811 32.0748 127.899 30.8876 127.045 29.6715C126.19 28.4554 125.394 27.3262 124.699 26.2693C125.089 27.0937 125.371 27.9646 125.539 28.8608C125.728 29.8144 125.825 30.784 125.829 31.7563C125.828 32.7773 125.726 33.7957 125.524 34.7966C125.335 35.7923 125.034 36.7635 124.627 37.692C123.936 38.7702 123.052 39.7124 122.021 40.4717C121.089 41.1455 120.022 41.6097 118.894 41.8326C117.809 42.0451 116.691 42.0104 115.622 41.7313C114.482 41.4261 113.424 40.8724 112.524 40.1098C111.488 39.24 110.624 38.1843 109.976 36.9971C109.171 35.5377 108.604 33.9591 108.296 32.3209C108.021 30.0343 107.967 27.7265 108.137 25.4296C108.262 23.3538 108.717 21.3111 109.483 19.3781C110.171 17.655 111.235 16.1069 112.596 14.8466C114.05 13.57 115.838 12.7361 117.75 12.4433C119.036 12.3316 120.331 12.5046 121.543 12.9501C122.718 13.3977 123.809 14.0387 124.772 14.8466C125.835 15.7079 126.806 16.6784 127.667 17.7421C128.565 18.8713 129.448 20.0585 130.331 21.3035C131.214 22.5486 132.083 23.8226 132.951 25.0967C133.82 26.3707 134.747 27.5723 135.717 28.716C136.654 29.8298 137.681 30.8659 138.786 31.8142C139.844 32.7233 141.042 33.4565 142.333 33.9858C142.836 33.8493 143.322 33.6549 143.781 33.4067C144.281 33.138 144.765 32.8382 145.228 32.5091C145.692 32.1617 146.14 31.8287 146.575 31.4667L147.805 30.4967C148.835 29.7917 150.015 29.3357 151.251 29.1648C152.207 29.0352 153.181 29.1536 154.078 29.5085C154.976 29.8634 155.767 30.443 156.376 31.1917C157.001 31.9306 157.491 32.7734 157.824 33.6818C158.11 34.5937 158.198 35.556 158.084 36.5049C157.97 37.6285 157.641 38.7196 157.114 39.7189C156.525 40.8466 155.735 41.8573 154.783 42.7013C153.702 43.671 152.4 44.3618 150.99 44.7136C151.655 45.2132 152.373 45.6357 153.133 45.9732C153.933 46.3388 154.761 46.6389 155.609 46.8708C156.445 47.1093 157.296 47.2931 158.157 47.4209C158.953 47.5372 159.756 47.6001 160.56 47.6091H161.385V57.1353H160.488C158.781 57.1243 157.087 56.8508 155.464 56.3245C153.7 55.7647 152.001 55.0173 150.397 54.095C148.682 53.1173 147.054 51.9936 145.532 50.7362C143.996 49.4525 142.545 48.0693 141.189 46.5957C139.886 47.1169 138.467 47.7539 136.947 48.4923C135.427 49.2306 133.791 49.94 132.068 50.7797C130.345 51.6194 128.536 52.3432 126.625 53.0961C124.714 53.8489 122.745 54.5438 120.703 55.1519C118.615 55.7583 116.493 56.2417 114.348 56.5996C112.133 56.9653 109.89 57.1349 107.645 57.1063H106.805C106.521 57.121 106.235 57.121 105.951 57.1063L105.792 47.5946Z" fill="#000063"/>
<path d="M159.214 47.6381C160.018 47.659 160.823 47.6008 161.617 47.4643C162.399 47.3242 163.165 47.1059 163.904 46.8128C164.62 46.5129 165.291 46.1185 165.902 45.6402C166.528 45.1706 167.059 44.5858 167.466 43.9174C167.956 43.0641 168.201 42.0923 168.175 41.1087C168.132 40.2397 167.915 39.3882 167.538 38.6041C167.149 37.7863 166.663 37.0183 166.09 36.3167C165.497 35.5783 164.918 34.8689 164.353 34.0727C163.799 33.3324 163.314 32.5424 162.905 31.7128C162.5 30.8992 162.291 30.0015 162.297 29.0924C162.262 27.5327 162.558 25.9833 163.166 24.5465C163.674 23.348 164.452 22.2829 165.439 21.4338C166.364 20.6479 167.459 20.0879 168.638 19.7979C169.84 19.4962 171.089 19.4323 172.316 19.6097C173.618 19.7987 174.874 20.2256 176.022 20.8692C177.265 21.5633 178.366 22.4869 179.265 23.591C180.256 24.8521 181.047 26.2585 181.61 27.7605C182.227 29.4226 182.64 31.1531 182.841 32.9145C183.044 34.7765 183.044 36.6552 182.841 38.5172C182.649 40.4397 182.221 42.3312 181.567 44.149C180.9 45.9764 179.989 47.7052 178.859 49.2885C177.702 50.9019 176.289 52.3152 174.675 53.4725C172.916 54.7157 170.958 55.6508 168.884 56.2377C166.438 56.9296 163.897 57.2277 161.356 57.1208C161.009 57.1208 160.661 57.1208 160.314 57.1208C159.963 57.1638 159.608 57.1638 159.257 57.1208L159.214 47.6381ZM162.109 7.94083C162.096 6.94569 162.294 5.95907 162.688 5.04534C163.061 4.17434 163.591 3.37936 164.252 2.7C164.911 2.03133 165.692 1.49559 166.554 1.12195C167.467 0.725007 168.454 0.527571 169.449 0.542846C170.444 0.530212 171.431 0.727538 172.345 1.12195C174.114 1.86864 175.521 3.27633 176.268 5.04534C176.662 5.95907 176.86 6.94569 176.847 7.94083C176.862 8.93622 176.665 9.92339 176.268 10.8363C175.898 11.7039 175.362 12.4908 174.69 13.1527C174.006 13.8041 173.212 14.3286 172.345 14.7018C171.431 15.0962 170.444 15.2936 169.449 15.2809C168.454 15.2962 167.467 15.0987 166.554 14.7018C165.699 14.3279 164.92 13.8032 164.252 13.1527C163.589 12.4865 163.058 11.7004 162.688 10.8363C162.301 9.92121 162.114 8.93412 162.138 7.94083H162.109Z" fill="#000063"/>
<path d="M129.274 69.0068C127.449 69.1838 125.706 69.8527 124.231 70.9421C122.757 72.0315 121.605 73.5007 120.899 75.193C120.193 76.8853 119.96 78.7374 120.224 80.5519C120.488 82.3665 121.239 84.0754 122.397 85.4967C123.343 86.6538 124.532 87.5875 125.881 88.2309C127.23 88.8744 128.704 89.2116 130.198 89.2186C131.692 89.2255 133.17 88.9019 134.524 88.2709C135.879 87.64 137.077 86.7173 138.033 85.569C139.315 84.0252 140.109 82.1356 140.316 80.1397C140.523 78.1438 140.133 76.1314 139.195 74.3576C138.257 72.5837 136.813 71.1283 135.047 70.1758C133.281 69.2232 131.272 68.8164 129.274 69.0068Z" fill="url(#paint0_radial_189_1032)"/>
<path d="M138.076 79.0831V79.2713C138.07 79.6846 138.027 80.0965 137.946 80.5019C137.953 80.5548 137.953 80.6083 137.946 80.6612C137.946 80.8059 137.946 80.9652 137.845 81.11C137.7 81.6105 137.506 82.0954 137.266 82.5577C137.192 82.7119 137.11 82.8618 137.02 83.0065L136.933 83.1513L136.658 83.5711C136.469 83.8317 136.252 84.0923 136.035 84.3384C135.68 84.7149 135.293 85.0589 134.877 85.3663C134.544 85.6091 134.19 85.8222 133.82 86.0033C132.729 86.5685 131.517 86.8615 130.288 86.8575H129.708C128.77 86.8 127.851 86.5642 127.001 86.1626C126.316 85.8487 125.681 85.434 125.119 84.932C124.679 84.5456 124.281 84.1137 123.932 83.6435C123.144 82.556 122.645 81.2854 122.484 79.9518C122.484 79.6622 122.484 79.3582 122.484 79.0542C122.484 78.7501 122.484 78.5764 122.484 78.3592C122.541 77.6927 122.683 77.0361 122.904 76.4048C122.976 76.2166 123.049 76.0284 123.136 75.8546C123.268 75.5564 123.418 75.2663 123.584 74.986C123.998 74.3059 124.51 73.6911 125.105 73.1618C126.227 72.1931 127.594 71.552 129.057 71.3087C129.464 71.2458 129.875 71.2119 130.288 71.2074C131.316 71.2079 132.333 71.4115 133.282 71.8065C134.232 72.2016 135.093 72.7802 135.818 73.5093C136.243 73.9481 136.617 74.4338 136.933 74.957C137.213 75.4148 137.446 75.8999 137.628 76.4048C137.73 76.6994 137.817 76.9989 137.888 77.3024C138.019 77.8187 138.092 78.348 138.105 78.8804L138.076 79.0831Z" fill="#BF0000"/>
<path d="M135.717 73.5962C135.195 75.2466 132.503 75.4638 128.71 74.5227C126.964 74.0728 125.115 74.2628 123.498 75.0584C124.211 73.9087 125.208 72.9616 126.393 72.3077C127.272 72.2753 128.145 72.4698 128.927 72.8723C130.374 73.5093 132.416 73.9291 132.604 73.1908C132.792 72.4524 132.01 72.1339 130.215 71.9023C129.462 71.8154 129.129 71.6127 128.999 71.41C129.4 71.3392 129.808 71.3053 130.215 71.3087C132.278 71.3183 134.255 72.14 135.717 73.5962Z" fill="url(#paint1_linear_189_1032)"/>
<path d="M137.57 76.3903C134.486 78.9963 130.592 78.2145 127.03 77.8381C125.477 77.5117 123.86 77.737 122.455 78.4751C122.513 77.818 122.654 77.1709 122.875 76.5496C125.018 76.0863 126.35 76.3179 130.244 76.8825C131.418 77.1169 132.631 77.0726 133.785 76.7533C134.939 76.434 136.002 75.8485 136.889 75.0439C137.161 75.4683 137.389 75.9195 137.57 76.3903Z" fill="url(#paint2_linear_189_1032)"/>
<path d="M138.062 79.3148C138.046 79.772 137.993 80.2272 137.903 80.6757C136.908 80.5029 135.884 80.682 135.007 81.1824C132.894 82.051 132.025 81.7325 129.216 81.0376C126.408 80.3427 125.264 81.0376 125.351 81.5877C125.438 82.1379 126.639 83.0355 128.941 82.6446C131.243 82.2537 133.284 83.2816 133.284 83.9331C133.284 84.5846 131.127 83.7883 127.305 84.8017C126.55 85.0011 125.765 85.06 124.989 84.9755C123.536 83.6994 122.608 81.9303 122.383 80.0097C123.585 78.4751 125.684 78.5619 127.725 79.2569C129.965 80.1023 132.424 80.1635 134.703 79.4306C135.787 79.0608 136.956 79.0205 138.062 79.3148Z" fill="url(#paint3_linear_189_1032)"/>
<path d="M137.164 82.6301C136.832 83.2773 136.413 83.8764 135.919 84.4109C135.775 83.6001 133.675 83.3395 134.79 82.7315C135.547 82.428 136.385 82.3922 137.164 82.6301Z" fill="url(#paint4_linear_189_1032)"/>
<path d="M134.819 85.4387C134.49 85.6794 134.141 85.8925 133.777 86.0757C132.655 85.8981 131.505 86.0594 130.476 86.539C130.213 86.6712 129.942 86.7873 129.665 86.8865C128.727 86.8269 127.808 86.5911 126.958 86.1916C127.58 86.0757 128.145 85.8151 129.506 85.3953C131.245 84.9072 133.088 84.9222 134.819 85.4387Z" fill="url(#paint5_linear_189_1032)"/>
<path d="M126.929 81.1823C126.335 81.1823 126.422 81.7759 126.741 82.051C127.059 82.3261 128.492 82.2392 128.594 81.9062C128.695 81.5732 127.667 81.081 126.929 81.1823Z" fill="url(#paint6_linear_189_1032)"/>
<path d="M130.881 72.2787C130.374 72.2787 129.824 72.0905 129.694 72.4524C129.564 72.8144 131.489 73.2342 131.663 73.0026C131.837 72.771 131.938 72.2787 130.881 72.2787Z" fill="url(#paint7_linear_189_1032)"/>
<path d="M138.062 78.866C137.237 78.866 136.252 78.6054 136.31 78.2869C136.412 77.7222 137.396 77.4038 137.845 77.2879C137.977 77.804 138.05 78.3334 138.062 78.866Z" fill="url(#paint8_linear_189_1032)"/>
<path d="M136.629 84.0199V83.8752C136.635 83.9232 136.635 83.9719 136.629 84.0199Z" fill="url(#paint9_linear_189_1032)"/>
<path style="mix-blend-mode:multiply" opacity="0.45" d="M136.629 83.6291C136.44 83.8897 136.223 84.1503 136.006 84.3964C135.651 84.7728 135.264 85.1168 134.848 85.4243C134.515 85.667 134.161 85.8802 133.791 86.0613C132.7 86.6264 131.488 86.9194 130.259 86.9155H129.68C128.741 86.8579 127.822 86.6221 126.972 86.2205C126.287 85.9067 125.652 85.4919 125.09 84.99C123.63 83.7118 122.696 81.9371 122.47 80.0097C122.47 79.7201 122.47 79.4161 122.47 79.1121C122.47 78.8081 122.47 78.6343 122.47 78.4172C122.527 77.7506 122.668 77.094 122.89 76.4627C122.962 76.2745 123.034 76.0863 123.121 75.9126C124.714 76.0863 126.871 76.9839 129.39 79.7346C132.401 82.9921 134.949 83.687 136.629 83.6291Z" fill="url(#paint10_linear_189_1032)"/>
<path style="mix-blend-mode:multiply" opacity="0.45" d="M137.816 81.11C137.671 81.6105 137.477 82.0955 137.237 82.5577C137.062 82.9116 136.859 83.2505 136.629 83.5712C136.44 83.8317 136.223 84.0923 136.006 84.3385C135.651 84.7149 135.264 85.0589 134.848 85.3663C134.515 85.6091 134.161 85.8223 133.791 86.0034C132.7 86.5685 131.488 86.8615 130.259 86.8575H129.679C128.741 86.8 127.822 86.5642 126.972 86.1626C126.287 85.8488 125.652 85.434 125.09 84.932C124.65 84.5457 124.252 84.1137 123.903 83.6435C125.249 84.1786 126.671 84.5009 128.116 84.599C134.529 85.1058 136.918 82.7749 137.816 81.11Z" fill="url(#paint11_linear_189_1032)"/>
<path style="mix-blend-mode:hard-light" opacity="0.75" d="M138.076 79.0831V79.2713C138.07 79.6846 138.027 80.0965 137.946 80.5019L136.991 83.0644L136.701 83.8462C136.781 83.638 136.849 83.4253 136.904 83.2092C137.454 81.2837 138.351 76.4048 134.283 73.7554C132.97 72.7745 131.4 72.1986 129.764 72.0982C128.128 71.9979 126.499 72.3777 125.076 73.1908C126.198 72.2221 127.565 71.581 129.028 71.3377C129.435 71.2748 129.846 71.2409 130.259 71.2363C131.287 71.2368 132.304 71.4404 133.253 71.8355C134.203 72.2305 135.064 72.8092 135.789 73.5382C136.214 73.977 136.588 74.4627 136.904 74.986C137.184 75.4438 137.417 75.9288 137.599 76.4337C137.701 76.7283 137.788 77.0279 137.859 77.3313C137.99 77.8476 138.063 78.3769 138.076 78.9094V79.0831Z" fill="url(#paint12_linear_189_1032)"/>
<path d="M134.124 53.2987C132.307 53.481 130.572 54.1509 129.105 55.2377C127.637 56.3246 126.49 57.7879 125.785 59.4729C125.081 61.158 124.845 63.0021 125.102 64.8103C125.359 66.6185 126.101 68.3236 127.247 69.7451C128.193 70.8997 129.382 71.8312 130.729 72.4731C132.076 73.115 133.549 73.4514 135.041 73.4583C136.533 73.4652 138.009 73.1425 139.362 72.5131C140.715 71.8837 141.912 70.9633 142.868 69.8175C144.134 68.2735 144.916 66.39 145.115 64.4034C145.314 62.4167 144.922 60.4155 143.988 58.6509C143.054 56.8863 141.62 55.437 139.865 54.4848C138.11 53.5326 136.113 53.12 134.124 53.2987Z" fill="url(#paint13_radial_189_1032)"/>
<path d="M135.08 70.7152C133.683 70.7128 132.315 70.3111 131.139 69.5573C129.963 68.8035 129.027 67.7291 128.441 66.4609C127.856 65.1926 127.645 63.7833 127.834 62.3992C128.022 61.015 128.603 59.7137 129.507 58.6487C130.411 57.5837 131.601 56.7995 132.936 56.3884C134.271 55.9772 135.696 55.9565 137.043 56.3285C138.389 56.7005 139.601 57.4497 140.536 58.4879C141.471 59.5261 142.089 60.8099 142.318 62.1879C142.509 63.2404 142.464 64.322 142.186 65.355C141.909 66.3879 141.406 67.3466 140.714 68.162C140.022 68.9774 139.157 69.6292 138.183 70.0707C137.209 70.5122 136.149 70.7323 135.08 70.7152Z" fill="#00AE1D"/>
<g opacity="0.75">
<path opacity="0.75" d="M137.975 64.5767C137.671 64.5043 137.584 64.8807 137.758 64.9676C137.932 65.0545 138.366 65.3151 138.453 65.1413C138.54 64.9676 138.323 64.6636 137.975 64.5767Z" fill="#168E19"/>
<path opacity="0.75" d="M140.986 61.3917C140.697 61.464 140.349 61.6088 140.653 61.826C140.957 62.0431 141.421 61.9563 141.464 61.6957C141.508 61.4351 141.508 61.2614 140.986 61.3917Z" fill="#168E19"/>
<path opacity="0.75" d="M135.094 68.2974C134.457 67.921 133.545 67.7763 133.458 68.1671C133.371 68.558 133.979 69.1661 134.703 69.0792C135.427 68.9923 135.528 68.587 135.094 68.2974Z" fill="#168E19"/>
<path opacity="0.75" d="M137.164 70.4256C136.584 70.5899 135.986 70.687 135.384 70.7152C135.528 69.8175 136.383 70.1071 136.831 70.2229C136.956 70.2639 137.07 70.3333 137.164 70.4256Z" fill="#168E19"/>
<path opacity="0.75" d="M131.098 68.2974C131.373 68.4277 131.562 67.8197 131.185 67.313C130.809 66.8062 130.62 66.1403 130.143 66.0244C129.665 65.9086 129.419 67.5591 131.098 68.2974Z" fill="#168E19"/>
<path opacity="0.75" d="M129.202 66.1692C129.042 66.1692 128.985 66.5167 129.332 66.5601C129.679 66.6036 129.679 66.0824 129.202 66.1692Z" fill="#168E19"/>
<path opacity="0.75" d="M133.024 64.403C132.72 64.403 132.43 64.5333 132.474 64.8807C132.517 65.2282 132.98 64.8807 133.198 64.8807C133.415 64.8807 133.502 64.4464 133.024 64.403Z" fill="#168E19"/>
<path opacity="0.75" d="M136.006 60.4072C135.731 60.2769 135.702 60.8415 135.919 60.9139C136.136 60.9863 136.73 60.7547 136.006 60.4072Z" fill="#168E19"/>
</g>
<path d="M133.241 63.2013C132.091 63.2898 131.017 63.8064 130.23 64.6491C129.916 64.9238 129.526 65.0959 129.112 65.1425C128.698 65.1891 128.28 65.1079 127.913 64.9097C127.811 64.4338 127.757 63.9487 127.754 63.4619C127.75 62.4701 127.949 61.488 128.34 60.5765C128.731 59.665 129.305 58.8436 130.027 58.1632C130.343 58.3409 130.619 58.5825 130.838 58.8726C131.344 59.8708 132.199 60.6485 133.241 61.0587C135.137 61.9997 134.703 62.9407 133.241 63.2013Z" fill="url(#paint14_linear_189_1032)"/>
<path d="M141.681 60.2624C140.335 59.9729 139.408 61.5075 138.496 61.3917C137.584 61.2758 137.714 59.6688 136.817 57.9895C136.477 57.4563 136.334 56.8216 136.411 56.1942C137.548 56.409 138.618 56.8895 139.534 57.5965C140.45 58.3035 141.186 59.217 141.681 60.2624Z" fill="url(#paint15_linear_189_1032)"/>
<path d="M142.391 63.404C142.39 64.751 142.018 66.0718 141.316 67.2212C140.614 68.3705 139.608 69.304 138.409 69.9189C137.874 69.0647 138.742 68.4712 139.857 67.7762C141.146 66.951 139.944 66.6036 140.161 65.2716C140.378 63.9397 139.553 63.8239 139.944 62.7236C140.219 61.9273 141.652 62.7236 142.463 63.1869L142.391 63.404Z" fill="url(#paint16_linear_189_1032)"/>
<path d="M135.528 65.6191C134.747 65.8652 134.327 64.9242 133.328 65.1413C132.329 65.3585 131.518 67.1247 132.85 67.0813C134.182 67.0379 134.529 66.8642 135.528 67.5591C135.737 67.7145 135.981 67.8163 136.238 67.8558C136.495 67.8952 136.758 67.871 137.004 67.7853C137.25 67.6996 137.471 67.555 137.647 67.3641C137.824 67.1732 137.952 66.9419 138.019 66.6904C138.366 65.6191 138.149 64.7939 135.528 65.6191Z" fill="url(#paint17_linear_189_1032)"/>
<path d="M137.164 62.3906C136.744 62.5209 136.643 62.7236 136.773 62.9842C136.904 63.2448 137.425 63.2013 137.671 63.5922C137.917 63.9831 138.583 64.4464 138.757 63.5922C138.931 62.7381 138.105 62.0866 137.164 62.3906Z" fill="url(#paint18_linear_189_1032)"/>
<path opacity="0.5" d="M135.717 60.1466C135.63 60.7257 135.109 60.1466 134.269 59.9729C133.429 59.7991 133.053 59.2779 133.444 58.9449C133.615 58.7379 133.851 58.5951 134.114 58.5399C134.377 58.4846 134.651 58.5203 134.891 58.6409C135.161 58.784 135.382 59.0028 135.529 59.2703C135.676 59.5379 135.741 59.8425 135.717 60.1466Z" fill="#168E19"/>
<path d="M134.747 56.7154C133.675 56.7154 133.154 57.3235 132.17 57.6565C131.943 57.7392 131.697 57.7587 131.46 57.7128C131.223 57.6669 131.003 57.5573 130.823 57.3959C132.065 56.5099 133.554 56.0386 135.08 56.0495H135.239C135.311 56.3825 135.282 56.7154 134.747 56.7154Z" fill="url(#paint19_linear_189_1032)"/>
<path style="mix-blend-mode:multiply" opacity="0.45" d="M142.043 65.6336C141.755 66.5617 141.285 67.4235 140.661 68.169C140.037 68.9145 139.272 69.5289 138.409 69.9768C137.467 70.4639 136.429 70.7359 135.369 70.7731H135.08C133.386 70.8072 131.734 70.2464 130.412 69.1883C129.089 68.1302 128.179 66.6418 127.841 64.9821C127.738 64.5063 127.685 64.0211 127.682 63.5343C127.68 62.6747 127.832 61.8216 128.13 61.0153C128.562 62.6295 129.457 64.082 130.705 65.1934C131.953 66.3048 133.499 67.0266 135.152 67.2695C135.934 67.3787 136.725 67.4029 137.512 67.3419C139.145 67.1736 140.706 66.585 142.043 65.6336Z" fill="url(#paint20_linear_189_1032)"/>
<path style="mix-blend-mode:multiply" opacity="0.45" d="M142.391 63.404C142.395 64.161 142.278 64.9139 142.043 65.6336C141.755 66.5617 141.285 67.4235 140.661 68.169C140.037 68.9144 139.272 69.5289 138.409 69.9768C137.467 70.4639 136.429 70.7359 135.369 70.7731H135.08C133.769 70.7831 132.479 70.4368 131.35 69.7713C130.22 69.1058 129.293 68.146 128.666 66.9944C130.119 67.5752 131.663 67.8938 133.226 67.9355C134.705 68.0172 136.184 67.7904 137.57 67.2695C139.685 66.4043 141.39 64.7622 142.333 62.6801C142.333 62.8684 142.333 63.0566 142.333 63.2448L142.391 63.404Z" fill="url(#paint21_linear_189_1032)"/>
<path style="mix-blend-mode:hard-light" d="M142.289 62.2024C141.831 60.936 141.059 59.8061 140.047 58.9177C139.034 58.0293 137.814 57.4112 136.498 57.1208C135.511 56.8095 134.471 56.7016 133.441 56.8037C132.411 56.9057 131.412 57.2155 130.505 57.7144C131.365 57.0154 132.373 56.5211 133.452 56.2689C134.531 56.0167 135.654 56.0132 136.735 56.2587C137.815 56.5041 138.826 56.9921 139.691 57.6857C140.555 58.3794 141.251 59.2604 141.725 60.2624C142.005 60.8785 142.195 61.5319 142.289 62.2024Z" fill="url(#paint22_linear_189_1032)"/>
<path d="M117.678 56.2811C115.853 56.4581 114.11 57.127 112.635 58.2164C111.16 59.3058 110.008 60.775 109.303 62.4673C108.597 64.1596 108.363 66.0117 108.627 67.8262C108.891 69.6407 109.642 71.3497 110.801 72.7709C111.752 73.9211 112.945 74.847 114.295 75.4827C115.645 76.1183 117.119 76.4478 118.611 76.4478C120.104 76.4478 121.578 76.1183 122.928 75.4827C124.278 74.847 125.471 73.9211 126.422 72.7709C127.678 71.2263 128.452 69.3458 128.646 67.3643C128.84 65.3828 128.446 63.388 127.513 61.6291C126.58 59.8701 125.15 58.4249 123.401 57.4738C121.652 56.5227 119.661 56.1078 117.678 56.2811Z" fill="url(#paint23_radial_189_1032)"/>
<path d="M126.466 66.3429C126.471 66.7945 126.433 67.2455 126.35 67.6894C126.315 67.9237 126.267 68.1557 126.205 68.3843C125.873 69.6116 125.247 70.7395 124.381 71.6707C124.076 72.0043 123.742 72.3096 123.382 72.5828C123.048 72.8446 122.689 73.0725 122.31 73.2632C121.803 73.5409 121.263 73.7548 120.703 73.9002C120.03 74.0886 119.333 74.1812 118.633 74.1753C118.315 74.1973 117.996 74.1973 117.678 74.1753C116.388 74.0094 115.16 73.5256 114.104 72.7675C113.047 72.0094 112.196 71.0007 111.626 69.832C111.181 68.9253 110.911 67.9431 110.83 66.9365C110.83 66.7483 110.83 66.5601 110.83 66.3719C110.829 65.2322 111.076 64.1058 111.554 63.071C111.968 62.1786 112.548 61.373 113.262 60.6967C114.202 59.8007 115.35 59.1529 116.603 58.8118C117.856 58.4707 119.174 58.4471 120.439 58.743C121.703 59.039 122.874 59.6453 123.845 60.507C124.816 61.3688 125.558 62.459 126.002 63.6791C126.28 64.4419 126.441 65.2424 126.48 66.0534L126.466 66.3429Z" fill="url(#paint24_radial_189_1032)"/>
<path d="M111.626 69.8465C111.626 69.7307 111.525 69.6293 111.481 69.5135C111.116 68.6939 110.896 67.8171 110.83 66.9221C110.989 66.9221 111.206 66.922 111.366 67.4288C111.525 67.9355 112.553 69.3977 111.626 69.8465Z" fill="#F79C41"/>
<path d="M117.779 68.5146C117.785 68.5723 117.785 68.6306 117.779 68.6883C117.508 68.9511 117.172 69.1367 116.806 69.2258C116.439 69.3149 116.055 69.3043 115.694 69.195C115.352 69.1623 115.02 69.0577 114.721 68.8881C114.421 68.7184 114.161 68.4876 113.957 68.2105C113.898 68.0891 113.873 67.9541 113.885 67.8196C113.986 67.255 114.941 67.1247 116.027 67.3129C117.113 67.5012 117.88 67.9499 117.779 68.5146Z" fill="#F79C41"/>
<path d="M115.448 64.7794C115.231 65.1124 114.551 64.7794 113.769 64.3016C112.987 63.8239 112.668 63.4619 112.64 63.1434C112.625 63.1116 112.618 63.077 112.618 63.0421C112.618 63.0071 112.625 62.9726 112.64 62.9407C112.857 62.6078 113.725 62.5788 114.507 63.1C115.289 63.6212 115.68 64.4464 115.448 64.7794Z" fill="#F79C41"/>
<path d="M124.135 69.6004C123.498 70.1361 122.687 70.2664 122.441 69.9044C122.209 69.528 122.441 68.862 123.092 68.3553C123.744 67.8486 124.424 67.7038 124.743 68.0079C125.047 68.2974 124.772 69.0792 124.135 69.6004Z" fill="#F79C41"/>
<path d="M119.56 65.2571C118.923 65.7638 118.271 66.0534 117.895 65.5756C117.853 65.5365 117.823 65.4864 117.808 65.4309C117.713 65.1337 117.717 64.814 117.819 64.5192C117.921 64.2245 118.115 63.9704 118.373 63.7949C119.024 63.2882 119.82 63.0566 120.486 63.7949C120.848 64.2871 120.197 64.7504 119.56 65.2571Z" fill="#F79C41"/>
<path d="M116.997 72.3511C116.833 72.4653 116.631 72.5119 116.433 72.4814C115.376 72.4814 114.218 71.135 114.536 70.7296C114.869 70.3677 115.709 71.0337 116.143 71.2653C116.896 71.5983 117.243 72.1195 116.997 72.3511Z" fill="#F79C41"/>
<path d="M121.152 71.3956C121.152 71.6417 120.819 71.9023 120.298 71.9312C119.343 71.9312 118.85 71.7865 118.662 71.439C118.662 71.439 118.662 71.439 118.662 71.3232C118.662 70.9033 119.502 70.9757 119.965 70.9612C120.79 70.9033 121.152 71.1929 121.152 71.3956Z" fill="#F79C41"/>
<path d="M124.048 65.8941C123.982 65.985 123.895 66.0579 123.793 66.106C123.692 66.154 123.581 66.1758 123.469 66.1692C122.643 66.1692 121.543 65.5612 121.673 65.011C121.671 64.958 121.671 64.9048 121.673 64.8518C121.891 64.5043 122.426 64.6636 122.947 64.7794C124.048 64.9966 124.279 65.5612 124.048 65.8941Z" fill="#F79C41"/>
<path d="M121.355 61.826C121.346 61.8027 121.346 61.7769 121.355 61.7536C121.355 61.5075 121.558 61.1745 122.021 61.0442C122.33 60.9553 122.661 60.9863 122.947 61.1311C123.004 61.1592 123.052 61.2 123.09 61.2502C123.128 61.3005 123.153 61.3588 123.165 61.4206C123.223 61.7246 121.5 62.2024 121.355 61.826Z" fill="#F79C41"/>
<path d="M116.635 61.0587C116.606 61.0799 116.57 61.0913 116.534 61.0913C116.498 61.0913 116.462 61.0799 116.433 61.0587C115.926 60.552 115.882 59.7268 116.158 59.6109C116.248 59.5863 116.343 59.5863 116.433 59.6109C116.983 59.6109 116.896 60.9139 116.635 61.0587Z" fill="#F79C41"/>
<path d="M125.322 63.9542H125.192C125.044 63.881 124.918 63.7702 124.826 63.633C124.735 63.4958 124.681 63.337 124.67 63.1724C124.648 63.0587 124.66 62.9407 124.707 62.8345C124.754 62.7283 124.832 62.639 124.931 62.5788C125.119 62.492 125.365 62.5788 125.452 63.1724C125.582 63.5343 125.496 63.9542 125.322 63.9542Z" fill="#F79C41"/>
<path d="M124.381 71.6707C123.787 72.3159 123.086 72.8546 122.31 73.2632C122.268 73.2457 122.23 73.2201 122.198 73.1878C122.165 73.1555 122.14 73.1172 122.122 73.075C122.1 73.0249 122.088 72.9706 122.088 72.9157C122.088 72.8609 122.1 72.8066 122.122 72.7565C122.455 72.2498 122.774 71.468 123.57 71.4101C123.742 71.3785 123.919 71.3785 124.091 71.4101C124.213 71.4646 124.314 71.5557 124.381 71.6707Z" fill="#F79C41"/>
<path d="M120.703 73.9002C120.03 74.0886 119.333 74.1812 118.633 74.1753C118.315 74.1973 117.996 74.1973 117.678 74.1753C117.652 74.0854 117.652 73.99 117.678 73.9002C117.75 73.809 117.853 73.7472 117.967 73.7265C118.517 73.6396 118.792 73.2777 119.574 73.3211C119.739 73.3255 119.901 73.3637 120.051 73.4334C120.2 73.5032 120.334 73.6029 120.443 73.7265C120.538 73.7717 120.625 73.8302 120.703 73.9002Z" fill="#F79C41"/>
<path d="M119.704 59.6109C119.704 59.8136 119.328 59.886 119.169 59.8136V59.7412C119.082 59.553 119.69 59.22 119.777 59.5096L119.704 59.6109Z" fill="#F79C41"/>
<path d="M117.301 69.9913C117.099 69.8899 116.939 69.8031 116.983 70.2229C116.99 70.2986 117.012 70.372 117.048 70.4389C117.085 70.5057 117.134 70.5645 117.193 70.6119C117.253 70.6592 117.321 70.694 117.395 70.7142C117.468 70.7345 117.544 70.7397 117.62 70.7296C117.909 70.7296 117.489 70.0781 117.301 69.9913Z" fill="#EF903A"/>
<path d="M113.479 69.7451C113.291 69.7451 113.291 70.0202 113.161 70.3387C113.127 70.3943 113.109 70.4579 113.108 70.523C113.107 70.588 113.124 70.6521 113.157 70.7084C113.189 70.7647 113.236 70.8112 113.293 70.8429C113.35 70.8747 113.414 70.8906 113.479 70.8889C113.754 70.8599 113.856 69.7451 113.479 69.7451Z" fill="#EF903A"/>
<path d="M112.654 65.5612C112.48 65.4888 112.278 65.373 112.234 65.5612C112.191 65.7494 112.611 66.2561 112.842 66.2561C113.074 66.2561 113.161 65.7928 112.654 65.5612Z" fill="#EF903A"/>
<path d="M126.465 66.3429C126.471 66.7945 126.433 67.2455 126.35 67.6894C126.275 67.6525 126.206 67.6036 126.147 67.5446C125.684 67.0813 126.031 66.4298 126.147 66.2127C126.263 65.9955 126.393 65.981 126.465 66.0244V66.3429Z" fill="#EF903A"/>
<path d="M121.731 66.8497C121.456 66.8497 121.312 67.0379 121.731 67.2261C122.151 67.4143 122.093 66.8497 121.731 66.8497Z" fill="#EF903A"/>
<path d="M111.829 64.7794C111.698 64.7794 111.684 65.0979 112.003 65.0544C112.321 65.011 112.104 64.6491 111.829 64.7794Z" fill="#EF903A"/>
<path d="M118.344 61.5509C118.213 61.5509 118.025 61.7391 118.344 61.7825C118.662 61.826 118.503 61.5075 118.344 61.5509Z" fill="#EF903A"/>
<path d="M119.14 61.5509C118.981 61.4496 118.966 61.9273 119.14 62.1011C119.314 62.2748 119.705 61.8694 119.14 61.5509Z" fill="#EF903A"/>
<path d="M120.617 72.4814C120.515 72.4814 120.486 72.6551 120.761 72.7565C121.036 72.8578 121.036 72.3801 120.617 72.4814Z" fill="#EF903A"/>
<path d="M116.606 73.2632C116.476 73.2632 116.331 73.3935 116.606 73.4948C116.881 73.5962 116.751 73.2197 116.606 73.2632Z" fill="#EF903A"/>
<path d="M116.896 66.4877C116.664 66.4877 117.171 66.8062 117.316 66.8497C117.461 66.8931 117.808 66.4443 116.896 66.4877Z" fill="#EF903A"/>
<path d="M124.395 65.2861C124.279 65.3729 124.482 65.8797 124.67 65.8362C124.858 65.7928 124.815 64.9676 124.395 65.2861Z" fill="#EF903A"/>
<path d="M120.689 68.5146C120.674 68.5943 120.649 68.672 120.617 68.7462C120.486 69.1082 119.69 69.2385 119.487 69.0792C119.299 68.891 119.487 68.4277 119.574 68.2106C119.69 68.0431 119.85 67.9111 120.037 67.8293C120.224 67.7475 120.429 67.7191 120.631 67.7473C120.805 67.8052 120.776 68.1816 120.689 68.5146Z" fill="#F79C41"/>
<path d="M112.654 63.1434C112.64 63.1116 112.632 63.077 112.632 63.0421C112.632 63.0071 112.64 62.9726 112.654 62.9407C112.871 62.6078 113.74 62.5788 114.522 63.1C115.303 63.6212 115.636 64.4464 115.419 64.7794C115.399 64.4576 115.271 64.1519 115.057 63.9107C114.333 62.8828 112.929 62.5064 112.654 63.1434Z" fill="#E27C37"/>
<path d="M117.779 68.5146C117.785 68.5723 117.785 68.6306 117.779 68.6883C117.708 68.4617 117.583 68.256 117.413 68.0894C117.244 67.9228 117.037 67.8003 116.809 67.7328C116.414 67.5408 115.981 67.441 115.542 67.441C115.103 67.441 114.67 67.5408 114.275 67.7328C114.115 67.8478 114.001 68.0178 113.957 68.2105C113.898 68.0891 113.873 67.9541 113.885 67.8196C113.986 67.255 114.941 67.1247 116.027 67.3129C117.113 67.5012 117.88 67.9499 117.779 68.5146Z" fill="#E27C37"/>
<path d="M119.053 63.6791C118.696 63.8159 118.387 64.0551 118.166 64.3668C117.944 64.6785 117.82 65.0487 117.808 65.4309C117.713 65.1337 117.717 64.814 117.819 64.5192C117.921 64.2245 118.115 63.9704 118.373 63.7949C119.024 63.2882 119.82 63.0566 120.486 63.7949C120.278 63.6524 120.036 63.5668 119.785 63.5465C119.534 63.5262 119.281 63.5719 119.053 63.6791Z" fill="#E27C37"/>
<path d="M120.689 68.5146C120.689 68.1816 120.602 67.8052 120.255 67.921C120.04 68.0343 119.857 68.1997 119.723 68.4021C119.589 68.6045 119.508 68.8373 119.487 69.0792C119.299 68.891 119.487 68.4277 119.574 68.2106C119.69 68.0431 119.85 67.9111 120.037 67.8293C120.224 67.7475 120.429 67.7191 120.631 67.7473C120.805 67.8052 120.776 68.1816 120.689 68.5146Z" fill="#E27C37"/>
<path d="M124.048 65.8942C124.149 65.2861 123.179 65.0979 122.687 64.9242C122.382 64.8194 122.051 64.8194 121.746 64.9242C121.963 64.5767 122.499 64.736 123.02 64.8518C124.048 64.9966 124.279 65.5612 124.048 65.8942Z" fill="#E27C37"/>
<path d="M121.355 61.826C121.346 61.8027 121.346 61.7769 121.355 61.7536C121.84 61.8831 122.357 61.8263 122.803 61.5943C123.092 61.464 123.049 61.2758 122.947 61.1311C123.004 61.1592 123.052 61.2 123.09 61.2503C123.128 61.3005 123.153 61.3588 123.165 61.4206C123.223 61.7246 121.5 62.2024 121.355 61.826Z" fill="#E27C37"/>
<path d="M116.635 61.0587C116.606 61.0799 116.57 61.0913 116.534 61.0913C116.498 61.0913 116.462 61.0799 116.433 61.0587C115.926 60.552 115.882 59.7268 116.158 59.6109C116.248 59.5863 116.343 59.5863 116.433 59.6109C116.331 59.6109 116.158 59.7268 116.158 60.1321C116.196 60.4896 116.366 60.8199 116.635 61.0587Z" fill="#E27C37"/>
<path d="M119.704 59.6109C119.704 59.6109 119.704 59.4662 119.429 59.5096C119.36 59.5272 119.298 59.5659 119.251 59.6203C119.204 59.6747 119.176 59.7423 119.169 59.8136V59.7412C119.082 59.553 119.69 59.22 119.777 59.5096L119.704 59.6109Z" fill="#E27C37"/>
<path d="M116.997 72.3511C116.997 72.105 116.722 71.8589 116.331 71.6417C115.917 71.4098 115.521 71.1485 115.144 70.8599C114.962 70.7587 114.759 70.7039 114.551 70.7007C114.884 70.3387 115.723 71.0047 116.158 71.2363C116.896 71.5983 117.243 72.1195 116.997 72.3511Z" fill="#E27C37"/>
<path d="M121.152 71.3956C121.152 71.2218 120.848 71.135 120.486 71.135H119.198C118.691 71.135 118.662 71.4245 118.662 71.439C118.662 71.4535 118.662 71.439 118.662 71.3232C118.662 70.9033 119.502 70.9757 119.965 70.9612C120.79 70.9033 121.152 71.1929 121.152 71.3956Z" fill="#E27C37"/>
<path d="M120.515 73.6686C120.588 73.7369 120.652 73.8148 120.703 73.9002C120.03 74.0886 119.333 74.1812 118.633 74.1753C118.315 74.1973 117.996 74.1973 117.678 74.1753C117.652 74.0854 117.652 73.99 117.678 73.9002C118.618 74.1943 119.635 74.1113 120.515 73.6686Z" fill="#E27C37"/>
<path d="M124.381 71.6707C123.787 72.3159 123.086 72.8546 122.31 73.2632C122.268 73.2457 122.23 73.2201 122.198 73.1878C122.165 73.1555 122.14 73.1172 122.122 73.075C122.939 72.7813 123.633 72.2201 124.091 71.4825C124.203 71.5173 124.303 71.5825 124.381 71.6707Z" fill="#E27C37"/>
<path d="M124.699 67.9499C124.598 67.9499 123.874 67.7183 123.02 68.7028C122.709 69.0181 122.493 69.4144 122.397 69.8465C122.166 69.4701 122.397 68.8041 123.049 68.2974C123.7 67.7907 124.381 67.6459 124.699 67.9499Z" fill="#E27C37"/>
<path d="M125.192 63.9542C125.044 63.881 124.918 63.7702 124.826 63.633C124.735 63.4958 124.681 63.337 124.67 63.1724C124.648 63.0587 124.66 62.9407 124.707 62.8345C124.754 62.7283 124.832 62.639 124.931 62.5788C124.882 62.642 124.847 62.7143 124.827 62.7915C124.807 62.8686 124.803 62.9489 124.815 63.0276C124.844 63.3673 124.976 63.6903 125.192 63.9542Z" fill="#E27C37"/>
<path d="M111.626 69.8465C111.626 69.7307 111.525 69.6293 111.481 69.5135C111.638 69.3721 111.74 69.1799 111.769 68.9707C111.798 68.7615 111.753 68.5487 111.641 68.3698C111.293 67.6604 111.134 67.0524 110.83 66.9221C110.989 66.9221 111.206 66.922 111.366 67.4288C111.525 67.9355 112.553 69.3977 111.626 69.8465Z" fill="#E27C37"/>
<path style="mix-blend-mode:multiply" opacity="0.35" d="M126.466 66.3429C126.471 66.7945 126.433 67.2455 126.35 67.6894C126.146 68.8651 125.677 69.9786 124.977 70.9448C124.276 71.9109 123.364 72.7039 122.31 73.2632C121.803 73.5409 121.263 73.7548 120.703 73.9002C120.03 74.0885 119.333 74.1811 118.633 74.1753C118.315 74.1973 117.996 74.1973 117.678 74.1753C116.388 74.0093 115.16 73.5256 114.104 72.7675C113.047 72.0094 112.196 71.0007 111.626 69.832C111.181 68.9253 110.911 67.9431 110.83 66.9365C110.83 66.7483 110.83 66.5601 110.83 66.3719C110.829 65.2322 111.076 64.1058 111.554 63.071C111.554 69.861 125.626 71.5548 126.031 63.6791C126.309 64.4419 126.47 65.2424 126.509 66.0534L126.466 66.3429Z" fill="url(#paint25_linear_189_1032)"/>
<path style="mix-blend-mode:multiply" opacity="0.45" d="M123.382 72.6407C123.048 72.9025 122.689 73.1304 122.31 73.3211C121.803 73.5988 121.263 73.8128 120.703 73.9581C120.03 74.1465 119.333 74.2391 118.633 74.2332C118.315 74.2552 117.996 74.2552 117.678 74.2332C116.388 74.0673 115.16 73.5835 114.104 72.8254C113.047 72.0673 112.196 71.0586 111.626 69.8899C111.181 68.9833 110.911 68.001 110.83 66.9944C110.83 66.8062 110.83 66.618 110.83 66.4298C110.829 65.2901 111.076 64.1637 111.554 63.1289C111.968 62.2365 112.548 61.4309 113.262 60.7546C111.105 71.0916 119.096 72.5248 123.382 72.6407Z" fill="url(#paint26_linear_189_1032)"/>
<path style="mix-blend-mode:hard-light" d="M126.465 66.3429C126.471 66.7945 126.433 67.2455 126.35 67.6893C126.315 67.9237 126.267 68.1557 126.205 68.3843C125.93 62.0866 121.659 58.4962 115.506 59.1621C116.485 58.7358 117.541 58.5142 118.609 58.5109C119.677 58.5076 120.734 58.7228 121.716 59.1431C122.698 59.5634 123.583 60.1801 124.318 60.9552C125.052 61.7302 125.621 62.6473 125.988 63.6501C126.266 64.4129 126.427 65.2134 126.465 66.0244V66.3429Z" fill="url(#paint27_linear_189_1032)"/>
</g>
<defs>
<radialGradient id="paint0_radial_189_1032" cx="0" cy="0" r="1" gradientUnits="userSpaceOnUse" gradientTransform="translate(128.865 90.4433) scale(10.7087)">
<stop stop-color="#FFD1B8"/>
<stop offset="1" stop-color="#FFD8D3" stop-opacity="0"/>
</radialGradient>
<linearGradient id="paint1_linear_189_1032" x1="131.981" y1="89.9702" x2="128.188" y2="64.3306" gradientUnits="userSpaceOnUse">
<stop stop-color="#E0386F"/>
<stop offset="1" stop-color="#C93890" stop-opacity="0"/>
</linearGradient>
<linearGradient id="paint2_linear_189_1032" x1="1956.6" y1="720.033" x2="1954.51" y2="657.998" gradientUnits="userSpaceOnUse">
<stop stop-color="#E0386F"/>
<stop offset="1" stop-color="#C93890" stop-opacity="0"/>
</linearGradient>
<linearGradient id="paint3_linear_189_1032" x1="2024.1" y1="1250.86" x2="2017.48" y2="1138.41" gradientUnits="userSpaceOnUse">
<stop stop-color="#E0386F"/>
<stop offset="1" stop-color="#C93890" stop-opacity="0"/>
</linearGradient>
<linearGradient id="paint4_linear_189_1032" x1="471.227" y1="445.498" x2="467.55" y2="410.826" gradientUnits="userSpaceOnUse">
<stop stop-color="#E0386F"/>
<stop offset="1" stop-color="#C93890" stop-opacity="0"/>
</linearGradient>
<linearGradient id="paint5_linear_189_1032" x1="1078.96" y1="432.225" x2="1077.8" y2="398.83" gradientUnits="userSpaceOnUse">
<stop stop-color="#E0386F"/>
<stop offset="1" stop-color="#C93890" stop-opacity="0"/>
</linearGradient>
<linearGradient id="paint6_linear_189_1032" x1="377.997" y1="278.111" x2="376.61" y2="259.281" gradientUnits="userSpaceOnUse">
<stop stop-color="#E0386F"/>
<stop offset="1" stop-color="#C93890" stop-opacity="0"/>
</linearGradient>
<linearGradient id="paint7_linear_189_1032" x1="384.686" y1="229.88" x2="383.781" y2="214.743" gradientUnits="userSpaceOnUse">
<stop stop-color="#E0386F"/>
<stop offset="1" stop-color="#C93890" stop-opacity="0"/>
</linearGradient>
<linearGradient id="paint8_linear_189_1032" x1="357.514" y1="372.823" x2="353.765" y2="344.745" gradientUnits="userSpaceOnUse">
<stop stop-color="#E0386F"/>
<stop offset="1" stop-color="#C93890" stop-opacity="0"/>
</linearGradient>
<linearGradient id="paint9_linear_189_1032" x1="137.244" y1="111.009" x2="136.675" y2="110.879" gradientUnits="userSpaceOnUse">
<stop stop-color="#E0386F"/>
<stop offset="1" stop-color="#C93890" stop-opacity="0"/>
</linearGradient>
<linearGradient id="paint10_linear_189_1032" x1="127.247" y1="84.3529" x2="131.504" y2="76.8681" gradientUnits="userSpaceOnUse">
<stop stop-color="#CA1B6A"/>
<stop offset="1" stop-color="#CA1B6A" stop-opacity="0.1"/>
</linearGradient>
<linearGradient id="paint11_linear_189_1032" x1="126.755" y1="90.2598" x2="132.836" y2="78.9239" gradientUnits="userSpaceOnUse">
<stop stop-color="#A41B6A"/>
<stop offset="1" stop-color="#B51B6A" stop-opacity="0.13"/>
</linearGradient>
<linearGradient id="paint12_linear_189_1032" x1="136.484" y1="71.6996" x2="132.068" y2="77.0852" gradientUnits="userSpaceOnUse">
<stop stop-color="#FFB8B1"/>
<stop offset="1" stop-color="#FFC4B1" stop-opacity="0.1"/>
</linearGradient>
<radialGradient id="paint13_radial_189_1032" cx="0" cy="0" r="1" gradientUnits="userSpaceOnUse" gradientTransform="translate(130.838 33.7976) scale(0)">
<stop stop-color="#90DD6F"/>
<stop offset="1" stop-color="#B8FFA9" stop-opacity="0"/>
</radialGradient>
<linearGradient id="paint14_linear_189_1032" x1="130.259" y1="52.1116" x2="131.938" y2="73.1763" gradientUnits="userSpaceOnUse">
<stop stop-color="#F2F236"/>
<stop offset="1" stop-color="#F2F236" stop-opacity="0"/>
</linearGradient>
<linearGradient id="paint15_linear_189_1032" x1="802.492" y1="895.909" x2="808.431" y2="971.586" gradientUnits="userSpaceOnUse">
<stop stop-color="#F2F236"/>
<stop offset="1" stop-color="#F2F236" stop-opacity="0"/>
</linearGradient>
<linearGradient id="paint16_linear_189_1032" x1="670.995" y1="1277.86" x2="686.399" y2="1385.98" gradientUnits="userSpaceOnUse">
<stop stop-color="#F2F236"/>
<stop offset="1" stop-color="#F2F236" stop-opacity="0"/>
</linearGradient>
<linearGradient id="paint17_linear_189_1032" x1="868.255" y1="512.065" x2="869.743" y2="552.506" gradientUnits="userSpaceOnUse">
<stop stop-color="#F2F236"/>
<stop offset="1" stop-color="#F2F236" stop-opacity="0"/>
</linearGradient>
<linearGradient id="paint18_linear_189_1032" x1="393.731" y1="346.424" x2="395.478" y2="372.053" gradientUnits="userSpaceOnUse">
<stop stop-color="#F2F236"/>
<stop offset="1" stop-color="#F2F236" stop-opacity="0"/>
</linearGradient>
<linearGradient id="paint19_linear_189_1032" x1="672.579" y1="328.943" x2="673.326" y2="353.617" gradientUnits="userSpaceOnUse">
<stop stop-color="#F2F236"/>
<stop offset="1" stop-color="#F2F236" stop-opacity="0"/>
</linearGradient>
<linearGradient id="paint20_linear_189_1032" x1="133.965" y1="72.8723" x2="135.065" y2="62.8684" gradientUnits="userSpaceOnUse">
<stop stop-color="#168E26"/>
<stop offset="1" stop-color="#168E26" stop-opacity="0.3"/>
</linearGradient>
<linearGradient id="paint21_linear_189_1032" x1="134.703" y1="72.4525" x2="135.919" y2="61.9852" gradientUnits="userSpaceOnUse">
<stop stop-color="#166F38"/>
<stop offset="1" stop-color="#16653B" stop-opacity="0.3"/>
</linearGradient>
<linearGradient id="paint22_linear_189_1032" x1="140.393" y1="52.0392" x2="135.789" y2="61.1311" gradientUnits="userSpaceOnUse">
<stop stop-color="#E2FFB5"/>
<stop offset="1" stop-color="#FFFFB3" stop-opacity="0"/>
</linearGradient>
<radialGradient id="paint23_radial_189_1032" cx="0" cy="0" r="1" gradientUnits="userSpaceOnUse" gradientTransform="translate(118.787 66.4838) scale(9.39182)">
<stop stop-color="#FFD86C"/>
<stop offset="1" stop-color="#FFD160" stop-opacity="0"/>
</radialGradient>
<radialGradient id="paint24_radial_189_1032" cx="0" cy="0" r="1" gradientUnits="userSpaceOnUse" gradientTransform="translate(118.44 62.3121) scale(11.9761)">
<stop stop-color="#FFE46A"/>
<stop offset="1" stop-color="#FFA44A"/>
</radialGradient>
<linearGradient id="paint25_linear_189_1032" x1="111.945" y1="70.4835" x2="125.8" y2="64.0121" gradientUnits="userSpaceOnUse">
<stop stop-color="#E27437"/>
<stop offset="1" stop-color="#E27437" stop-opacity="0.2"/>
</linearGradient>
<linearGradient id="paint26_linear_189_1032" x1="117.128" y1="77.6788" x2="117.055" y2="58.2645" gradientUnits="userSpaceOnUse">
<stop stop-color="#CC622E"/>
<stop offset="1" stop-color="#CC622E" stop-opacity="0.2"/>
</linearGradient>
<linearGradient id="paint27_linear_189_1032" x1="125.611" y1="58.5106" x2="120.848" y2="63.7949" gradientUnits="userSpaceOnUse">
<stop stop-color="#FFF2B6"/>
<stop offset="1" stop-color="#FFF49A" stop-opacity="0.2"/>
</linearGradient>
<clipPath id="clip0_189_1032">
<rect width="182.17" height="99.6774" fill="white" transform="translate(0.830017 0.586304)"/>
</clipPath>
</defs>
</svg>
