<svg width="116" height="116" viewBox="0 0 116 116" fill="none" xmlns="http://www.w3.org/2000/svg">
<g clip-path="url(#clip0_169_705)">
<path d="M25.1707 37.8205C25.1707 36.95 25.3726 36.126 25.7314 35.3917L6.789 54.2832L11.3352 58.8174L25.1709 45.0188V37.8205H25.1707Z" fill="#FFDC48"/>
<path d="M2.03002 58.7686C1.58891 58.3286 1.58891 57.6086 2.0298 57.1686L5.05373 54.1529C5.49484 53.7129 6.21667 53.7129 6.65779 54.1529L11.4657 58.9481C11.9068 59.388 11.9068 60.1081 11.4657 60.5478L8.44197 63.5634C8.00085 64.0033 7.27902 64.0033 6.83768 63.5634L2.03002 58.7686Z" fill="#FED2A4"/>
<path d="M6.56128 58.7686C6.12016 58.3286 6.12016 57.6086 6.56128 57.1686L8.12161 55.6126L6.65802 54.1529C6.2169 53.7129 5.49508 53.7129 5.05396 54.1529L2.03003 57.1686C1.58891 57.6086 1.58891 58.3286 2.03025 58.7686L6.83814 63.5636C7.27925 64.0036 8.00131 64.0036 8.44243 63.5636L9.90602 62.1041L6.56128 58.7686Z" fill="#FFBD86"/>
<path d="M51.0474 68.7584V79.1284C51.1902 79.0919 51.3388 79.0704 51.4924 79.0704H59.4157V60.4127C59.4157 59.7897 58.906 59.2799 58.2829 59.2799H46.5112V61.2272C46.5112 61.688 46.1367 62.0616 45.6745 62.0616H33.5394V67.6258H49.9148C50.5377 67.6256 51.0474 68.1353 51.0474 68.7584Z" fill="#766E6E"/>
<path d="M51.0474 68.7584V79.1284C51.1902 79.0919 51.3388 79.0704 51.4924 79.0704H54.4459V65.36C54.4459 64.7369 53.9361 64.2272 53.313 64.2272H33.5391V67.6256H49.9146C50.5377 67.6256 51.0474 68.1354 51.0474 68.7584Z" fill="#5B5555"/>
<path d="M25.1708 62.0615H33.5394V93.1171H25.1708V62.0615Z" fill="#766E6E"/>
<path d="M25.1708 62.0615H29.1735V93.1171H25.1708V62.0615Z" fill="#5B5555"/>
<path d="M38.5243 98.9164V94.9298C38.5243 93.9329 37.7087 93.1173 36.7118 93.1173H24.8345C23.8376 93.1173 23.022 93.9329 23.022 94.9298V98.9164H38.5243Z" fill="#CDBFBA"/>
<path d="M28.686 98.9164V94.9298C28.686 93.9329 29.5017 93.1173 30.4985 93.1173H24.8345C23.8376 93.1173 23.022 93.9329 23.022 94.9298V98.9164H28.686Z" fill="#9C9C9C"/>
<path d="M65.1823 84.7396V80.8828C65.1823 79.8859 64.3666 79.0703 63.3698 79.0703H51.4924C50.4956 79.0703 49.6799 79.8859 49.6799 80.8828V84.7396H65.1823Z" fill="#CDBFBA"/>
<path d="M55.344 84.7396V80.8828C55.344 79.8859 56.1596 79.0703 57.1565 79.0703H51.4924C50.4956 79.0703 49.6799 79.8859 49.6799 80.8828V84.7396H55.344Z" fill="#9C9C9C"/>
<path d="M64.3456 32.2568H30.7496C27.6733 32.2568 25.1707 34.7529 25.1707 37.8208V62.0615H45.6745C46.1366 62.0615 46.5112 61.6882 46.5112 61.2271V38.6688H64.3456V32.2568Z" fill="#FFDC48"/>
<path d="M37.5464 32.2568H30.7495C27.6733 32.2568 25.1707 34.7529 25.1707 37.8208V62.0614H31.9675V37.8205C31.9675 34.7527 34.4699 32.2568 37.5464 32.2568Z" fill="#FAC600"/>
<path d="M70.8903 38.8518C70.8903 39.4748 70.3806 39.9846 69.7575 39.9846H65.4782C64.8552 39.9846 64.3454 39.4748 64.3454 38.8518V32.0737C64.3454 31.4507 64.8552 30.9409 65.4782 30.9409H69.7575C70.3806 30.9409 70.8903 31.4507 70.8903 32.0737V38.8518Z" fill="#FED2A4"/>
<path d="M67.744 38.8518V32.0737C67.744 31.4507 68.2538 30.9409 68.8768 30.9409H65.4784C64.8553 30.9409 64.3456 31.4507 64.3456 32.0737V38.8518C64.3456 39.4748 64.8553 39.9846 65.4784 39.9846H68.8768C68.2538 39.9846 67.744 39.4748 67.744 38.8518Z" fill="#FFBD86"/>
<path d="M46.1753 15.8038C46.1753 21.9924 41.1451 27.0089 34.9398 27.0089C28.7345 27.0089 23.7041 21.9924 23.7041 15.8038C23.7041 9.61528 28.7345 4.59851 34.9398 4.59851C41.1449 4.59851 46.1753 9.61528 46.1753 15.8038Z" fill="#FED2A4"/>
<path d="M30.501 15.8038C30.501 10.7968 33.7945 6.55805 38.3382 5.12164C37.2659 4.78248 36.1245 4.59851 34.9398 4.59851C28.7345 4.59851 23.7041 9.61528 23.7041 15.8038C23.7041 21.9924 28.7345 27.0089 34.9398 27.0089C36.1245 27.0089 37.2659 26.8247 38.3382 26.4858C33.7945 25.0496 30.501 20.8111 30.501 15.8038Z" fill="#FFBD86"/>
<path d="M45.0838 110.722C45.0838 111.095 44.778 111.401 44.4041 111.401H11.1608C10.787 111.401 10.4811 111.095 10.4811 110.722V99.5963C10.4811 99.2225 10.787 98.9166 11.1608 98.9166H44.4041C44.778 98.9166 45.0838 99.2225 45.0838 99.5963V110.722Z" fill="#01C0FA"/>
<path d="M18.4108 110.722V99.5963C18.4108 99.2225 18.7167 98.9166 19.0905 98.9166H11.1608C10.787 98.9166 10.4811 99.2225 10.4811 99.5963V110.722C10.4811 111.095 10.787 111.401 11.1608 111.401H19.0905C18.7167 111.401 18.4108 111.095 18.4108 110.722Z" fill="#08A9F1"/>
<path d="M79.6868 110.722C79.6868 111.095 79.381 111.401 79.0071 111.401H45.7636C45.3898 111.401 45.0839 111.095 45.0839 110.722V85.4193C45.0839 85.0455 45.3898 84.7396 45.7636 84.7396H79.0071C79.381 84.7396 79.6868 85.0455 79.6868 85.4193V110.722Z" fill="#08A9F1"/>
<path d="M53.0136 110.722V85.4193C53.0136 85.0455 53.3195 84.7396 53.6933 84.7396H45.7636C45.3898 84.7396 45.0839 85.0455 45.0839 85.4193V110.722C45.0839 111.095 45.3898 111.401 45.7636 111.401H53.6933C53.3195 111.401 53.0136 111.095 53.0136 110.722Z" fill="#0290CF"/>
<path d="M114.29 110.722C114.29 111.096 113.984 111.401 113.61 111.401H80.3666C79.9928 111.401 79.6869 111.096 79.6869 110.722V71.3048C79.6869 70.931 79.9928 70.6251 80.3666 70.6251H113.61C113.984 70.6251 114.29 70.931 114.29 71.3048V110.722Z" fill="#0290CF"/>
<path d="M88.1944 110.722V71.3048C88.1944 70.931 88.5002 70.6251 88.8741 70.6251H80.3666C79.9928 70.6251 79.6869 70.931 79.6869 71.3048V110.722C79.6869 111.096 79.9928 111.401 80.3666 111.401H88.8743C88.5005 111.401 88.1944 111.096 88.1944 110.722Z" fill="#017BAE"/>
<path d="M114.277 13.8031C114.376 13.4424 114.162 13.2288 113.801 13.328L95.5158 18.3625C95.1554 18.4617 95.0765 18.7594 95.3407 19.0241L98.6551 22.3462C98.9193 22.6108 98.9193 23.0438 98.6551 23.3086L67.5329 54.5028C67.269 54.7674 67.269 55.2004 67.5329 55.4653L72.2375 60.1807C72.5015 60.4454 72.9335 60.4454 73.1977 60.181L104.32 28.9865C104.584 28.7219 105.016 28.7219 105.28 28.9865L108.595 32.3086C108.859 32.5733 109.156 32.4949 109.254 32.1342L114.277 13.8031Z" fill="#97D729"/>
<path d="M73.197 55.4653C72.9331 55.2005 72.9331 54.7675 73.197 54.5029L104.319 23.3084C104.584 23.0438 104.584 22.6106 104.319 22.346L99.2999 17.3208L95.516 18.3625C95.1556 18.4618 95.0767 18.7595 95.3409 19.0241L98.6553 22.3462C98.9195 22.6108 98.9195 23.0438 98.6553 23.3087L67.5329 54.5029C67.269 54.7675 67.269 55.2005 67.5329 55.4653L72.2375 60.1808C72.5015 60.4454 72.9335 60.4454 73.1977 60.181L75.5499 57.8234L73.197 55.4653Z" fill="#8BC727"/>
<path d="M39.3487 18.7795C40.2871 18.7795 41.0479 18.0187 41.0479 17.0802V14.5273C41.0479 13.5889 40.2871 12.8281 39.3487 12.8281C38.4103 12.8281 37.6495 13.5889 37.6495 14.5273V17.0802C37.6495 18.0187 38.4103 18.7795 39.3487 18.7795Z" fill="black"/>
<path d="M34.9398 28.7084C42.072 28.7084 47.8745 22.9195 47.8745 15.8041C47.8745 12.0459 46.255 8.65853 43.6765 6.29797H45.5814C46.5199 6.29797 47.2806 5.53718 47.2806 4.59875C47.2806 3.66033 46.5199 2.89954 45.5814 2.89954H34.9398C27.8076 2.89954 22.0049 8.68843 22.0049 15.8041C22.0049 22.9195 27.8074 28.7084 34.9398 28.7084ZM34.9398 6.29775C40.1981 6.29775 44.476 10.5621 44.476 15.8039C44.476 21.0454 40.1981 25.3097 34.9398 25.3097C29.6815 25.3097 25.4033 21.0454 25.4033 15.8039C25.4033 10.5623 29.6813 6.29775 34.9398 6.29775Z" fill="black"/>
<path d="M96.735 22.8274L66.3297 53.3032C65.4055 54.2301 65.4055 55.7383 66.3301 56.6654L71.0343 61.3806C71.4831 61.8308 72.081 62.0787 72.7176 62.0787C73.354 62.0787 73.9517 61.831 74.4005 61.3811L104.8 30.9112L107.391 33.5083C107.813 33.9315 108.354 34.1647 108.912 34.1647C109.838 34.1647 110.634 33.5292 110.893 32.5832L115.916 14.252C116.099 13.5832 115.979 12.9046 115.587 12.3903C115.086 11.7333 114.208 11.4539 113.35 11.6898L95.065 16.7242C94.306 16.9331 93.7403 17.4835 93.5515 18.1962C93.3628 18.909 93.5819 19.6673 94.1377 20.2242L96.735 22.8274ZM112.029 15.5785L108.21 29.5169L106.484 27.7869C106.035 27.3367 105.437 27.0889 104.8 27.0889C104.164 27.0889 103.566 27.3367 103.117 27.7864L72.7174 58.2563L69.4528 54.9843L99.8582 24.5087C100.783 23.5814 100.783 22.073 99.8582 21.1463L98.1234 19.4074L112.029 15.5785Z" fill="black"/>
<path d="M113.61 68.9258H108.752C107.814 68.9258 107.053 69.6866 107.053 70.625C107.053 71.5634 107.814 72.3243 108.752 72.3243H112.591V109.702H81.3863V85.4192V72.3243H100.823C101.761 72.3243 102.522 71.5634 102.522 70.625C102.522 69.6866 101.761 68.9258 100.823 68.9258H80.3667C79.0549 68.9258 77.9878 69.9931 77.9878 71.3047V83.0403H66.8816V80.8827C66.8816 78.9463 65.3063 77.371 63.3699 77.371H61.1151V60.4124C61.1151 58.8507 59.8448 57.5804 58.2831 57.5804H48.2105V40.3677H63.0905C63.5938 41.1572 64.4749 41.6835 65.4783 41.6835H69.7576C71.3194 41.6835 72.5897 40.4132 72.5897 38.8515V32.0734C72.5897 30.5117 71.3194 29.2413 69.7576 29.2413H65.4783C64.4746 29.2413 63.5933 29.7676 63.0901 30.5574H58.4551C57.5166 30.5574 56.7558 31.3182 56.7558 32.2567C56.7558 33.1951 57.5166 33.9559 58.4551 33.9559H62.6463V36.9694H46.5113C45.5729 36.9694 44.8121 37.7302 44.8121 38.6687V60.3621H26.87V37.8206C26.87 35.6896 28.6105 33.9559 30.7497 33.9559H50.5255C51.464 33.9559 52.2248 33.1951 52.2248 32.2567C52.2248 31.3182 51.464 30.5574 50.5255 30.5574H30.7497C27.9849 30.5574 25.5757 32.104 24.3441 34.3755L6.47791 52.1938C6.27582 52.149 6.06829 52.1236 5.85622 52.1236C5.09927 52.1236 4.38831 52.417 3.8543 52.9496L0.829903 55.9654C0.29476 56.4995 -0.000226433 57.2109 1.30412e-07 57.9685C1.30412e-07 58.7263 0.294986 59.4375 0.83013 59.9715L5.63804 64.7665C6.17205 65.2992 6.88324 65.5926 7.63996 65.5926C8.39691 65.5926 9.10787 65.2992 9.64188 64.7665L12.6658 61.751C13.201 61.2172 13.4957 60.5058 13.4957 59.7479C13.4957 59.5377 13.4708 59.3317 13.4266 59.1312L23.4713 49.1132V91.6934C22.2101 92.2265 21.3228 93.4765 21.3228 94.9297V97.217H11.1608C9.84918 97.217 8.78184 98.2844 8.78184 99.596V110.722C8.78184 112.033 9.84918 113.101 11.1608 113.101H113.61C114.922 113.101 115.989 112.033 115.989 110.722V71.3047C115.989 69.9931 114.922 68.9258 113.61 68.9258ZM66.0449 32.64H69.1915V38.2853H66.0449V32.64ZM63.3699 80.7696C63.4281 80.7696 63.4832 80.8247 63.4832 80.8829V83.0405H51.3792V80.8829C51.3792 80.8247 51.4343 80.7696 51.4925 80.7696H63.3699ZM35.2384 63.7606H45.6746C47.0729 63.7606 48.2105 62.6239 48.2105 61.2269V60.9788H57.7167V77.371H52.747V68.7581C52.747 67.1964 51.4764 65.9261 49.915 65.9261H35.2386V63.7606H35.2384ZM24.7213 94.9299C24.7213 94.8717 24.7763 94.8166 24.8346 94.8166H36.7119C36.7702 94.8166 36.8252 94.8717 36.8252 94.9299V97.2173H24.7213V94.9299ZM7.64019 61.9635L3.63431 57.9685L5.856 55.7529L9.86164 59.7481L7.64019 61.9635ZM11.335 56.4177L9.19532 54.2834L23.4716 40.0455V44.3137L11.335 56.4177ZM43.3847 109.702H12.1803V100.616H43.3847V109.702ZM43.3847 85.4192V97.217H40.2237V94.9297C40.2237 92.9932 38.6484 91.4179 36.7119 91.4179H35.2384V82.6327C35.2384 81.6942 34.4776 80.9334 33.5392 80.9334C32.6007 80.9334 31.8399 81.6942 31.8399 82.6327V91.4179H26.87V63.7606H31.8399V74.7029C31.8399 75.6414 32.6007 76.4022 33.5392 76.4022C34.4776 76.4022 35.2384 75.6414 35.2384 74.7029V69.3246H49.3483V78.1077C48.5182 78.7505 47.9808 79.754 47.9808 80.8827V83.0403H45.7636C44.452 83.0403 43.3847 84.1076 43.3847 85.4192ZM77.9878 109.702H46.7832V86.4387H77.9878V109.702Z" fill="black"/>
</g>
<defs>
<clipPath id="clip0_169_705">
<rect width="116" height="116" fill="white"/>
</clipPath>
</defs>
</svg>
