<svg xmlns="http://www.w3.org/2000/svg" version="1.1" xmlns:xlink="http://www.w3.org/1999/xlink" xmlns:svgjs="http://svgjs.com/svgjs" width="512" height="512" x="0" y="0" viewBox="0 0 511.997 511.997" style="enable-background:new 0 0 512 512" xml:space="preserve"><g><path xmlns="http://www.w3.org/2000/svg" d="m111.098 166.932c0-3.842.891-7.479 2.475-10.72l-83.608 83.383 20.066 20.013 61.068-60.904v-31.772z" fill="#FFDC48" data-original="#ffdc48"></path><path xmlns="http://www.w3.org/2000/svg" d="m8.96 259.391c-1.947-1.942-1.947-5.12-.001-7.062l13.347-13.311c1.947-1.942 5.133-1.942 7.08 0l21.221 21.165c1.947 1.942 1.947 5.12 0 7.061l-13.346 13.31c-1.947 1.942-5.133 1.942-7.081 0z" fill="#FED2A4" data-original="#fed2a4"></path><path xmlns="http://www.w3.org/2000/svg" d="m28.96 259.391c-1.947-1.942-1.947-5.12 0-7.062l6.887-6.868-6.46-6.443c-1.947-1.942-5.133-1.942-7.08 0l-13.347 13.311c-1.947 1.942-1.947 5.12.001 7.062l21.221 21.164c1.947 1.942 5.134 1.942 7.081 0l6.46-6.442z" fill="#FFBD86" data-original="#ffbd86"></path><path xmlns="http://www.w3.org/2000/svg" d="m225.312 303.484v45.771c.63-.161 1.286-.256 1.964-.256h34.972v-82.351c0-2.75-2.25-5-5-5h-51.958v8.595c0 2.034-1.653 3.683-3.693 3.683h-53.562v24.559h72.278c2.749-.001 4.999 2.249 4.999 4.999z" fill="#766E6E" data-original="#766e6e"></path><path xmlns="http://www.w3.org/2000/svg" d="m225.312 303.484v45.771c.63-.161 1.286-.256 1.964-.256h13.036v-60.515c0-2.75-2.25-5-5-5h-87.278v15h72.278c2.75 0 5 2.25 5 5z" fill="#5B5555" data-original="#5b5555"></path><path xmlns="http://www.w3.org/2000/svg" d="m111.098 273.925h36.937v137.073h-36.937z" fill="#766E6E" data-original="#766e6e"></path><path xmlns="http://www.w3.org/2000/svg" d="m111.098 273.925h17.667v137.073h-17.667z" fill="#5B5555" data-original="#5b5555"></path><path xmlns="http://www.w3.org/2000/svg" d="m170.038 436.594v-17.596c0-4.4-3.6-8-8-8h-52.424c-4.4 0-8 3.6-8 8v17.596z" fill="#CDBFBA" data-original="#cdbfba"></path><path xmlns="http://www.w3.org/2000/svg" d="m126.614 436.594v-17.596c0-4.4 3.6-8 8-8h-25c-4.4 0-8 3.6-8 8v17.596z" fill="#9C9C9C" data-original="#9c9c9c"></path><path xmlns="http://www.w3.org/2000/svg" d="m287.7 374.021v-17.023c0-4.4-3.6-8-8-8h-52.424c-4.4 0-8 3.6-8 8v17.023z" fill="#CDBFBA" data-original="#cdbfba"></path><path xmlns="http://www.w3.org/2000/svg" d="m244.276 374.021v-17.023c0-4.4 3.6-8 8-8h-25c-4.4 0-8 3.6-8 8v17.023z" fill="#9C9C9C" data-original="#9c9c9c"></path><path xmlns="http://www.w3.org/2000/svg" d="m284.007 142.375h-148.285c-13.578 0-24.624 11.017-24.624 24.558v106.993h90.499c2.04 0 3.693-1.648 3.693-3.683v-99.567h78.717z" fill="#FFDC48" data-original="#ffdc48"></path><path xmlns="http://www.w3.org/2000/svg" d="m165.722 142.375h-30c-13.578 0-24.624 11.017-24.624 24.558v106.993h30v-106.994c0-13.541 11.045-24.557 24.624-24.557z" fill="#FAC600" data-original="#fac600"></path><path xmlns="http://www.w3.org/2000/svg" d="m312.894 171.483c0 2.75-2.25 5-5 5h-18.888c-2.75 0-5-2.25-5-5v-29.917c0-2.75 2.25-5 5-5h18.888c2.75 0 5 2.25 5 5z" fill="#FED2A4" data-original="#fed2a4"></path><path xmlns="http://www.w3.org/2000/svg" d="m299.007 171.483v-29.917c0-2.75 2.25-5 5-5h-15c-2.75 0-5 2.25-5 5v29.917c0 2.75 2.25 5 5 5h15c-2.75 0-5-2.25-5-5z" fill="#FFBD86" data-original="#ffbd86"></path><path xmlns="http://www.w3.org/2000/svg" d="m203.808 69.755c0 27.315-22.202 49.457-49.591 49.457s-49.592-22.142-49.592-49.457 22.203-49.458 49.592-49.458c27.388 0 49.591 22.143 49.591 49.458z" fill="#FED2A4" data-original="#fed2a4"></path><path xmlns="http://www.w3.org/2000/svg" d="m134.625 69.755c0-22.1 14.537-40.809 34.592-47.149-4.733-1.497-9.771-2.309-15-2.309-27.389 0-49.592 22.143-49.592 49.458s22.203 49.457 49.592 49.457c5.229 0 10.267-.813 15-2.309-20.055-6.339-34.592-25.047-34.592-47.148z" fill="#FFBD86" data-original="#ffbd86"></path><path xmlns="http://www.w3.org/2000/svg" d="m198.99 488.7c0 1.65-1.35 3-3 3h-146.729c-1.65 0-3-1.35-3-3v-49.105c0-1.65 1.35-3 3-3h146.729c1.65 0 3 1.35 3 3z" fill="#01C0FA" data-original="#01c0fa"></path><path xmlns="http://www.w3.org/2000/svg" d="m81.261 488.7v-49.105c0-1.65 1.35-3 3-3h-35c-1.65 0-3 1.35-3 3v49.105c0 1.65 1.35 3 3 3h35c-1.65 0-3-1.35-3-3z" fill="#08A9F1" data-original="#08a9f1"></path><path xmlns="http://www.w3.org/2000/svg" d="m351.72 488.7c0 1.65-1.35 3-3 3h-146.73c-1.65 0-3-1.35-3-3v-111.679c0-1.65 1.35-3 3-3h146.73c1.65 0 3 1.35 3 3z" fill="#08A9F1" data-original="#08a9f1"></path><path xmlns="http://www.w3.org/2000/svg" d="m233.99 488.7v-111.679c0-1.65 1.35-3 3-3h-35c-1.65 0-3 1.35-3 3v111.679c0 1.65 1.35 3 3 3h35c-1.65 0-3-1.35-3-3z" fill="#0290CF" data-original="#0290cf"></path><path xmlns="http://www.w3.org/2000/svg" d="m504.449 488.7c0 1.65-1.35 3-3 3h-146.729c-1.65 0-3-1.35-3-3v-173.977c0-1.65 1.35-3 3-3h146.729c1.65 0 3 1.35 3 3z" fill="#0290CF" data-original="#0290cf"></path><path xmlns="http://www.w3.org/2000/svg" d="m389.27 488.7v-173.977c0-1.65 1.35-3 3-3h-37.55c-1.65 0-3 1.35-3 3v173.977c0 1.65 1.35 3 3 3h37.551c-1.65 0-3.001-1.35-3.001-3z" fill="#017BAE" data-original="#017bae"></path><path xmlns="http://www.w3.org/2000/svg" d="m504.393 60.924c.436-1.592-.509-2.535-2.1-2.097l-80.708 22.221c-1.591.438-1.939 1.752-.773 2.92l14.629 14.663c1.166 1.168 1.166 3.079 0 4.248l-137.366 137.684c-1.165 1.168-1.165 3.079 0 4.248l20.765 20.813c1.165 1.168 3.072 1.168 4.238.001l137.367-137.685c1.165-1.168 3.073-1.168 4.238 0l14.629 14.663c1.165 1.168 2.476.822 2.912-.77z" fill="#97D729" data-original="#97d729"></path><path xmlns="http://www.w3.org/2000/svg" d="m323.075 244.811c-1.165-1.169-1.165-3.08 0-4.248l137.367-137.685c1.166-1.168 1.166-3.08 0-4.248l-22.155-22.18-16.701 4.598c-1.591.438-1.939 1.752-.773 2.92l14.629 14.663c1.166 1.168 1.166 3.079 0 4.248l-137.367 137.684c-1.165 1.168-1.165 3.079 0 4.248l20.765 20.813c1.165 1.168 3.072 1.168 4.238.001l10.382-10.406z" fill="#8BC727" data-original="#8bc727"></path><path xmlns="http://www.w3.org/2000/svg" d="m173.677 82.889c4.142 0 7.5-3.358 7.5-7.5v-11.268c0-4.142-3.358-7.5-7.5-7.5s-7.5 3.358-7.5 7.5v11.268c0 4.142 3.358 7.5 7.5 7.5z" fill="#000000" data-original="#000000"></path><path xmlns="http://www.w3.org/2000/svg" d="m154.217 126.713c31.48 0 57.091-25.551 57.091-56.957 0-16.588-7.148-31.539-18.529-41.958h8.408c4.142 0 7.5-3.358 7.5-7.5s-3.358-7.5-7.5-7.5h-46.97c-31.48 0-57.092 25.551-57.092 56.958 0 31.406 25.611 56.957 57.092 56.957zm0-98.916c23.209 0 42.091 18.822 42.091 41.958 0 23.135-18.882 41.957-42.091 41.957s-42.092-18.822-42.092-41.957 18.882-41.958 42.092-41.958z" fill="#000000" data-original="#000000"></path><path xmlns="http://www.w3.org/2000/svg" d="m426.966 100.755-134.202 134.513c-4.079 4.091-4.079 10.748.002 14.84l20.763 20.812c1.981 1.987 4.62 3.081 7.43 3.081 2.809 0 5.447-1.093 7.428-3.079l134.177-134.487 11.437 11.463c1.862 1.868 4.247 2.897 6.713 2.897 4.086 0 7.599-2.805 8.743-6.98l22.17-80.91c.809-2.952.279-5.947-1.453-8.217-2.212-2.9-6.088-4.133-9.871-3.092l-80.708 22.221c-3.35.922-5.847 3.351-6.68 6.497s.134 6.493 2.587 8.951zm67.504-31.995-16.857 61.521-7.619-7.636c-1.981-1.987-4.62-3.081-7.43-3.081s-5.448 1.094-7.429 3.079l-134.177 134.487-14.409-14.442 134.202-134.512c4.082-4.093 4.082-10.751 0-14.841l-7.657-7.675z" fill="#000000" data-original="#000000"></path><path xmlns="http://www.w3.org/2000/svg" d="m501.449 304.223h-21.441c-4.142 0-7.5 3.358-7.5 7.5s3.358 7.5 7.5 7.5h16.941v164.977h-137.729v-107.179-57.798h85.788c4.142 0 7.5-3.358 7.5-7.5s-3.358-7.5-7.5-7.5h-90.288c-5.79 0-10.5 4.711-10.5 10.5v51.798h-49.02v-9.523c0-8.547-6.953-15.5-15.5-15.5h-9.952v-74.851c0-6.893-5.607-12.5-12.5-12.5h-44.458v-75.973h65.677c2.221 3.485 6.11 5.808 10.539 5.808h18.888c6.893 0 12.5-5.607 12.5-12.5v-29.917c0-6.893-5.607-12.5-12.5-12.5h-18.888c-4.43 0-8.32 2.323-10.541 5.809h-20.458c-4.142 0-7.5 3.358-7.5 7.5s3.358 7.5 7.5 7.5h18.499v13.301h-71.216c-4.142 0-7.5 3.358-7.5 7.5v95.75h-79.192v-99.493c0-9.406 7.682-17.058 17.124-17.058h87.286c4.142 0 7.5-3.358 7.5-7.5s-3.358-7.5-7.5-7.5h-87.286c-12.203 0-22.837 6.826-28.273 16.852l-78.857 78.646c-.892-.198-1.808-.31-2.744-.31-3.341 0-6.479 1.295-8.836 3.646l-13.349 13.311c-2.362 2.357-3.664 5.497-3.663 8.841 0 3.345 1.302 6.484 3.664 8.841l21.221 21.164c2.357 2.351 5.496 3.646 8.836 3.646 3.341 0 6.479-1.295 8.836-3.646l13.347-13.31c2.362-2.356 3.663-5.496 3.663-8.841 0-.928-.11-1.837-.305-2.722l44.335-44.217v187.939c-5.567 2.353-9.483 7.87-9.483 14.284v10.096h-44.853c-5.789 0-10.5 4.711-10.5 10.5v49.106c0 5.79 4.711 10.5 10.5 10.5h452.188c5.789 0 10.5-4.71 10.5-10.5v-173.977c0-5.789-4.71-10.5-10.5-10.5zm-209.942-160.157h13.888v24.917h-13.888zm-11.807 212.433c.257 0 .5.243.5.5v9.523h-53.424v-9.523c0-.257.243-.5.5-.5zm-124.166-75.074h46.063c6.172 0 11.193-5.017 11.193-11.183v-1.095h41.958v72.351h-21.935v-38.015c0-6.893-5.608-12.5-12.5-12.5h-64.778v-9.558zm-46.42 137.574c0-.257.243-.5.5-.5h52.424c.257 0 .5.243.5.5v10.096h-53.424zm-75.392-145.506-17.681-17.633 9.806-9.779 17.68 17.634zm16.308-24.478-9.444-9.42 63.012-62.843v18.839zm141.46 235.185h-137.729v-40.105h137.729zm0-107.179v52.073h-13.952v-10.096c0-8.547-6.953-15.5-15.5-15.5h-6.504v-38.776c0-4.142-3.358-7.5-7.5-7.5s-7.5 3.358-7.5 7.5v38.776h-21.936v-122.073h21.936v48.297c0 4.142 3.358 7.5 7.5 7.5s7.5-3.358 7.5-7.5v-23.739h62.278v38.767c-3.664 2.837-6.036 7.266-6.036 12.248v9.523h-9.786c-5.789 0-10.5 4.711-10.5 10.5zm152.73 107.179h-137.73v-102.679h137.73z" fill="#000000" data-original="#000000"></path></g></svg>