<svg xmlns="http://www.w3.org/2000/svg" version="1.1" xmlns:xlink="http://www.w3.org/1999/xlink" xmlns:svgjs="http://svgjs.com/svgjs" width="512" height="512" x="0" y="0" viewBox="0 0 511.96 511.96" style="enable-background:new 0 0 512 512" xml:space="preserve"><g><g xmlns="http://www.w3.org/2000/svg"><g><g><path d="m214.699 67.534 45.679 42.868c5.542 5.201 14.196 5.118 19.637-.188l37.023-36.103c5.798-5.654 5.703-15.004-.209-20.539l-45.129-42.25c-5.479-5.13-14.004-5.111-19.461.042l-37.572 35.486c-5.948 5.617-5.933 15.086.032 20.684z" fill="#60B7FF" data-original="#60b7ff"></path></g><g><path d="m316.83 53.573-45.13-42.25c-5.479-5.13-14.004-5.111-19.461.042l-5.224 4.934 39.814 37.274c5.912 5.535 6.007 14.885.209 20.539l-32.038 31.242 5.379 5.048c5.542 5.201 14.196 5.118 19.637-.188l37.023-36.103c5.798-5.653 5.703-15.003-.209-20.538z" fill="#26A6FE" data-original="#26a6fe"></path></g><g><path d="m132.275 236.924-11.679-4.542c-4.869-1.893-10.398-.109-13.225 4.284-12.885 20.026-44.618 78.982-31.72 157.659 16.028 97.769 113.143 115.4 163.156 108.989s176.033-12.236 195.866-136.451c15.724-98.48-11.061-188.587-38.367-224.845-4.416-5.864-13.224-5.838-17.608.05l-44.529 59.796c-2.284 3.067-2.811 7.101-1.39 10.651l42.467 106.168c7.271 18.177 2.534 38.925-11.843 52.213-20.688 19.121-58.768 41.06-124.596 41.06-112.626 0-121.015-76.165-99.838-162.183 1.319-5.353-1.556-10.851-6.694-12.849z" fill="#60B7FF" data-original="#60b7ff"></path></g><g><g><path d="m396.307 142.018c-2.685-3.565-6.99-4.939-10.941-4.157 20.812 44.576 36.077 119.027 23.308 199.002-19.833 124.215-145.853 130.04-195.866 136.451-32.037 4.107-83.4-1.652-120.398-32.019 34.081 56.572 105.776 67.226 146.398 62.019 50.013-6.411 176.033-12.236 195.866-136.451 15.724-98.48-11.061-188.587-38.367-224.845z" fill="#26A6FE" data-original="#26a6fe"></path></g></g></g><g><g><path d="m270.099 121.765c-5.33 0-10.662-1.961-14.853-5.895l-45.68-42.868c-4.345-4.078-6.842-9.834-6.852-15.792s2.47-11.722 6.802-15.813l37.574-35.485c8.32-7.858 21.382-7.886 29.736-.065l45.13 42.25c4.369 4.09 6.809 9.639 6.869 15.624.062 5.985-2.266 11.582-6.55 15.76l-37.023 36.103c-4.221 4.116-9.686 6.181-15.153 6.181zm-50.266-59.7 45.68 42.868c2.622 2.462 6.694 2.422 9.268-.089l37.023-36.103c1.323-1.291 2.042-3.02 2.023-4.868-.019-1.849-.772-3.563-2.122-4.826l-45.13-42.25c-2.579-2.415-6.614-2.408-9.186.02l-37.573 35.485c-1.357 1.282-2.104 3.017-2.101 4.884.003 1.869.755 3.601 2.118 4.879z" fill="#000000" data-original="#000000"></path></g><g><path d="m238.808 419.456c-27.851 0-51.028-4.626-68.89-13.749-3.688-1.884-5.151-6.402-3.267-10.091 1.885-3.689 6.403-5.152 10.091-3.268 15.728 8.034 36.609 12.107 62.065 12.107 63.837 0 100.223-21.245 119.505-39.067 12.025-11.115 16.032-28.765 9.97-43.919l-42.467-106.168c-2.372-5.929-1.477-12.794 2.338-17.917l44.529-59.796c3.516-4.72 8.906-7.436 14.79-7.452h.052c5.862 0 11.244 2.684 14.773 7.369 16.607 22.053 30.977 59.883 38.438 101.196.736 4.076-1.972 7.978-6.048 8.713-4.074.735-7.978-1.971-8.714-6.047-7.063-39.116-20.395-74.569-35.658-94.838-.912-1.21-2.138-1.393-2.793-1.393-.003 0-.007 0-.01 0-.654.001-1.888.187-2.8 1.411l-44.528 59.795c-.721.968-.891 2.266-.442 3.386l42.468 106.169c8.354 20.886 2.843 45.201-13.716 60.506-21.249 19.641-60.997 43.053-129.686 43.053z" fill="#000000" data-original="#000000"></path></g><g><path d="m219.267 511.96c-19.566 0-48.72-3.054-78.062-17.329-40.314-19.612-65.541-53.878-72.954-99.093-13.198-80.511 18.551-140.763 32.813-162.93 4.734-7.354 14.088-10.389 22.252-7.217l11.678 4.542c8.629 3.355 13.47 12.655 11.259 21.633-13.437 54.58-11.914 93.232 4.656 118.168 2.293 3.45 1.354 8.105-2.095 10.397s-8.104 1.355-10.397-2.096c-19.025-28.628-21.227-71.17-6.729-130.056.415-1.685-.501-3.433-2.131-4.066l-11.679-4.542c-1.54-.598-3.309-.031-4.2 1.354-13.324 20.709-42.981 77.014-30.625 152.387 6.685 40.775 28.457 70.393 64.714 88.031 31.522 15.335 67.206 17.664 90.087 14.732 3.395-.435 7.139-.868 11.104-1.327 27.068-3.13 67.974-7.86 103.769-25.765 19.325-9.667 35.191-22.268 47.157-37.453 14.065-17.851 23.279-39.938 27.385-65.65 4.728-29.614 5.805-60.024 3.201-90.385-.354-4.127 2.705-7.759 6.832-8.113 4.122-.356 7.76 2.705 8.113 6.832 2.708 31.576 1.586 63.213-3.334 94.031-19.402 121.515-135.572 134.948-191.4 141.404-3.917.453-7.617.881-10.919 1.304-3.936.505-11.116 1.207-20.495 1.207z" fill="#000000" data-original="#000000"></path></g></g></g></g></svg>