<svg xmlns="http://www.w3.org/2000/svg" version="1.1" xmlns:xlink="http://www.w3.org/1999/xlink" xmlns:svgjs="http://svgjs.com/svgjs" width="512" height="512" x="0" y="0" viewBox="0 0 512 512" style="enable-background:new 0 0 512 512" xml:space="preserve" class=""><g><g xmlns="http://www.w3.org/2000/svg"><g><path d="m191.732 397.439c0 35.496 28.775 64.268 64.268 64.268 35.49 0 64.266-28.771 64.266-64.268z" fill="#FFA000" data-original="#ff9f00"></path></g><g><g><path d="m368.467 333.173v-80.334c0-50.941-33.881-93.951-80.334-107.781v-4.686c0-17.744-14.387-32.133-32.133-32.133s-32.135 14.389-32.135 32.133v4.686c-46.451 13.83-80.332 56.84-80.332 107.781v80.334l-32.133 64.266h289.2z" fill="#FFA000" data-original="#ffd400" class=""></path></g><g><path d="m437.018 39.686c-5.857-5.857-15.355-5.857-21.214 0-5.857 5.857-5.857 15.355.001 21.213 42.687 42.686 66.195 99.44 66.195 159.808 0 8.284 6.717 15 15 15 8.285 0 15-6.716 15-15 0-68.381-26.629-132.668-74.982-181.021z" fill="#000000" data-original="#000000"></path><path d="m96.193 39.688c-5.857-5.857-15.355-5.857-21.214 0-48.351 48.353-74.979 112.64-74.979 181.019 0 8.284 6.715 15 15 15 8.283 0 15-6.716 15-15 0-60.365 23.508-117.119 66.193-159.806 5.858-5.859 5.858-15.356 0-21.213z" fill="#000000" data-original="#000000"></path><path d="m370.358 85.125c-5.857 5.858-5.857 15.355.001 21.214 30.549 30.547 47.373 71.163 47.373 114.367 0 8.284 6.715 15 15 15 8.283 0 15-6.716 15-15 0-51.218-19.945-99.368-56.16-135.581-5.859-5.859-15.356-5.857-21.214 0z" fill="#000000" data-original="#000000"></path><path d="m141.633 85.132c-5.858-5.857-15.355-5.857-21.213.002-36.211 36.216-56.154 84.363-56.154 135.572 0 8.284 6.717 15 15 15 8.285 0 15-6.716 15-15 0-43.196 16.822-83.811 47.369-114.361 5.857-5.858 5.855-15.355-.002-21.213z" fill="#000000" data-original="#000000"></path><path d="m383.467 329.632v-76.793c0-28.01-8.918-54.589-25.789-76.864-14.102-18.616-33.332-33.16-54.939-41.718-3.008-23.111-22.821-41.017-46.739-41.017s-43.732 17.906-46.739 41.018c-21.606 8.558-40.837 23.102-54.938 41.718-16.872 22.275-25.79 48.854-25.79 76.864v76.793l-30.55 61.099c-2.325 4.649-2.076 10.172.657 14.594 2.732 4.423 7.561 7.114 12.76 7.114h66.773c7.033 36.559 39.247 64.268 77.826 64.268 38.578 0 70.791-27.709 77.824-64.268h66.777c5.199 0 10.027-2.691 12.76-7.114 2.733-4.422 2.982-9.944.657-14.594zm-127.467 117.075c-21.938 0-40.574-14.413-46.934-34.268h93.865c-6.359 19.854-24.993 34.268-46.931 34.268zm64.266-64.268h-128.534-56.062l21.279-42.558c1.042-2.082 1.583-4.379 1.583-6.708v-80.334c0-42.792 28.626-81.202 69.613-93.405 6.359-1.894 10.719-7.74 10.719-14.376v-4.686c0-9.447 7.688-17.133 17.135-17.133s17.133 7.686 17.133 17.133v4.686c0 6.636 4.36 12.482 10.721 14.376 40.987 12.203 69.613 50.613 69.613 93.405v80.334c0 2.329.543 4.625 1.584 6.708l21.279 42.558z" fill="#000000" data-original="#000000"></path></g></g></g></g></svg>