<svg xmlns="http://www.w3.org/2000/svg" version="1.1" xmlns:xlink="http://www.w3.org/1999/xlink" xmlns:svgjs="http://svgjs.com/svgjs" width="512" height="512" x="0" y="0" viewBox="0 0 64 64" style="enable-background:new 0 0 512 512" xml:space="preserve"><g><g xmlns="http://www.w3.org/2000/svg" id="Layer_32" data-name="Layer 32"><path d="M54.927,48.758v0A11.131,11.131,0,0,0,51,44.444h-.032Q51,43.823,51,43.2a24.565,24.565,0,0,0-2.937-11.654l-2.874-5.337-24.741-.433-4.317,2.158-3.637,2.31a8.531,8.531,0,0,0,1.515,13.262l1.156.722A11.678,11.678,0,0,0,17,45.161a11.151,11.151,0,0,0-2.928,3.595l5.912,9.063A14.44,14.44,0,0,1,27,56h9.222a5.56,5.56,0,0,0,5.337,4,6.076,6.076,0,0,0,5.211-2.947l.118-.2a14.448,14.448,0,0,1,2.128.966h0l2.931-4.494,2.979-4.566Z" style="" fill="#5B5B5B" data-original="#5b5b5b"></path><path d="M36.7,51.741l1.788-3.22A19.936,19.936,0,0,0,41,38.988a19.844,19.844,0,0,0-3.514-3.213A9.527,9.527,0,0,0,25.21,36.791l-.7.7-5.386,8.3A12.81,12.81,0,0,0,27.33,56h8.892A5.57,5.57,0,0,1,36.7,51.741Z" style="" fill="#EFEFEF" data-original="#efefef"></path><path d="M45.834,10.8A4.5,4.5,0,0,0,49,6.5h0A4.5,4.5,0,0,0,44.5,2h0a4.857,4.857,0,0,0-4.118,2.282Z" style="" fill="#4C4C4C" data-original="#4c4c4c"></path><path d="M44.5,2c-.085,0-.168.012-.252.016a6.923,6.923,0,0,0-1.042,5.642L45.834,10.8A4.5,4.5,0,0,0,44.5,2Z" style="" fill="#5B5B5B" data-original="#5b5b5b"></path><path d="M20.166,10.8A4.5,4.5,0,0,1,17,6.5h0A4.5,4.5,0,0,1,21.5,2h0a4.857,4.857,0,0,1,4.118,2.282Z" style="" fill="#4C4C4C" data-original="#4c4c4c"></path><path d="M25.618,4.282a4.851,4.851,0,0,0-2.574-2.02,4.466,4.466,0,0,0-1.834,7.29Z" style="" fill="#5B5B5B" data-original="#5b5b5b"></path><path d="M36.783,30A11.217,11.217,0,0,0,46.3,24.728h0A11.224,11.224,0,0,0,48,18.783h0a15.8,15.8,0,0,0-2.653-8.763l-1.464-2.2A13.081,13.081,0,0,0,33,2h0A13.079,13.079,0,0,0,22.117,7.824l-1.464,2.2A15.8,15.8,0,0,0,18,18.783h0a11.224,11.224,0,0,0,1.7,5.945h0A11.217,11.217,0,0,0,29.217,30Z" style="" fill="#E3E3E3" data-original="#e3e3e3"></path><path d="M48,18.783a15.8,15.8,0,0,0-2.653-8.763l-1.464-2.2A13.081,13.081,0,0,0,33,2h0a13.041,13.041,0,0,0-5.732,1.346,13.033,13.033,0,0,0-2.151,2.478l-1.464,2.2A15.8,15.8,0,0,0,21,16.783h0A11.217,11.217,0,0,0,32.217,28h7.566a11.177,11.177,0,0,0,4.686-1.049A11.2,11.2,0,0,0,48,18.783Z" style="" fill="#EFEFEF" data-original="#efefef"></path><path d="M26.744,19.554l1.181-.709A6.333,6.333,0,0,0,31,13.414h0A3.415,3.415,0,0,0,30,11h0a3.415,3.415,0,0,0-2.414-1h0a3.3,3.3,0,0,0-2.577,1.238l-1.842,2.3A5.319,5.319,0,0,0,22,16.868h0A3.132,3.132,0,0,0,25.132,20h0A3.134,3.134,0,0,0,26.744,19.554Z" style="" fill="#4C4C4C" data-original="#4c4c4c"></path><path d="M31,13.414A3.413,3.413,0,0,0,27.586,10h0a3.242,3.242,0,0,0-.381.043c-.063.067-.137.122-.2.2l-1.842,2.3A5.321,5.321,0,0,0,24,15.868,3.106,3.106,0,0,0,27.077,19a3.141,3.141,0,0,0,.723-.079l.128-.077A6.332,6.332,0,0,0,31,13.414Z" style="" fill="#5B5B5B" data-original="#5b5b5b"></path><path d="M39.256,19.554l-1.181-.709A6.333,6.333,0,0,1,35,13.414h0A3.415,3.415,0,0,1,36,11h0a3.415,3.415,0,0,1,2.414-1h0a3.3,3.3,0,0,1,2.577,1.238l1.842,2.3A5.319,5.319,0,0,1,44,16.868h0A3.132,3.132,0,0,1,40.868,20h0A3.134,3.134,0,0,1,39.256,19.554Z" style="" fill="#4C4C4C" data-original="#4c4c4c"></path><polygon points="29 49 32 46 10 21 7 24 29 49" style="" fill="#80A61E" data-original="#80a61e"></polygon><path d="M30.6,44.4,10,21,8.4,22.6l19.1,21.71a2.117,2.117,0,0,0,2.988.193q.051-.045.1-.093Z" style="" fill="#8BBA24" data-original="#8bba24"></path><path d="M10,28l-2.338-.779A4.289,4.289,0,0,0,6.3,27h0a4.3,4.3,0,0,0-3.579,1.915L2,30l.9.453A5.184,5.184,0,0,0,5.225,31h0a5.186,5.186,0,0,0,4.314-2.309Z" style="" fill="#80A61E" data-original="#80a61e"></path><path d="M12,23l-.667-2.67A11.122,11.122,0,0,1,11,17.63h0a11.136,11.136,0,0,1,1.176-4.98L13,11l1.258,2.517A7.019,7.019,0,0,1,15,16.658h0a7.031,7.031,0,0,1-1.4,4.215Z" style="" fill="#80A61E" data-original="#80a61e"></path><path d="M16.162,62h0A3.838,3.838,0,0,0,20,58.162h0a3.831,3.831,0,0,0-.645-2.129l-4-6A4.565,4.565,0,0,0,11.56,48h0A4.559,4.559,0,0,0,7,52.558v0H7a7.478,7.478,0,0,0,2.612,5.679l2.746,2.354A5.847,5.847,0,0,0,16.162,62Z" style="" fill="#E3E3E3" data-original="#e3e3e3"></path><path d="M52.838,62h0A3.838,3.838,0,0,1,49,58.162h0a3.831,3.831,0,0,1,.645-2.129l4-6A4.565,4.565,0,0,1,57.44,48h0A4.559,4.559,0,0,1,62,52.558v0h0a7.478,7.478,0,0,1-2.612,5.679l-2.746,2.354A5.847,5.847,0,0,1,52.838,62Z" style="" fill="#E3E3E3" data-original="#e3e3e3"></path><path d="M36,24a1,1,0,0,1-2,0V22.236H32V24a1,1,0,0,1-2,0H28a3,3,0,0,0,5,2.234A3,3,0,0,0,38,24Z" style="" fill="#5B5B5B" data-original="#5b5b5b"></path><path d="M44,16.868a5.32,5.32,0,0,0-1.167-3.326l-1.842-2.3A3.3,3.3,0,0,0,38.414,10h0a3.411,3.411,0,0,0-.451.045A3.412,3.412,0,0,0,37,12.414a6.333,6.333,0,0,0,3.075,5.431l1.181.709A3.134,3.134,0,0,0,42.868,19c.1,0,.2-.021.308-.031A3.109,3.109,0,0,0,44,16.868Z" style="" fill="#5B5B5B" data-original="#5b5b5b"></path><circle cx="28" cy="16" r="2" style="" fill="#FFFFFF" data-original="#ffffff"></circle><path d="M17,45.161A11.664,11.664,0,0,0,21.343,46h0a4,4,0,0,0,2.829-1.172h0A6.245,6.245,0,0,0,26,40.414h0A3.415,3.415,0,0,0,25,38h0a3.415,3.415,0,0,0-2.414-1h0A22.092,22.092,0,0,1,15.6,35.866L13,35" style="" fill="#5B5B5B" data-original="#5b5b5b"></path><polygon points="13.359 31.227 14.683 32.731 17.683 29.731 16.36 28.227 13.359 31.227" style="" fill="#80A61E" data-original="#80a61e"></polygon><ellipse cx="33" cy="21" rx="3" ry="2" style="" fill="#4C4C4C" data-original="#4c4c4c"></ellipse><path d="M33,19a3.984,3.984,0,0,0-1.869.447A1.393,1.393,0,0,0,31,20c0,1.105,1.343,2,3,2a3.984,3.984,0,0,0,1.869-.447A1.393,1.393,0,0,0,36,21C36,19.9,34.657,19,33,19Z" style="" fill="#5B5B5B" data-original="#5b5b5b"></path><ellipse cx="28.85" cy="16.35" rx="0.756" ry="0.979" style="" fill="#5B5B5B" data-original="#5b5b5b"></ellipse><circle cx="38" cy="16" r="2" style="" fill="#FFFFFF" data-original="#ffffff"></circle><ellipse cx="37.15" cy="16.35" rx="0.756" ry="0.979" style="" fill="#5B5B5B" data-original="#5b5b5b"></ellipse><path d="M19.355,56.033l-4-6a4.533,4.533,0,0,0-7.257-.41,4.57,4.57,0,0,0-.1.935v0a7.478,7.478,0,0,0,2.612,5.679l2.746,2.354A5.845,5.845,0,0,0,17.162,60a3.817,3.817,0,0,0,2.773-1.2A3.776,3.776,0,0,0,20,58.162,3.831,3.831,0,0,0,19.355,56.033Z" style="" fill="#EFEFEF" data-original="#efefef"></path><path d="M62,52.558a4.559,4.559,0,0,0-8.355-2.525L50.1,55.357A3.794,3.794,0,0,0,53.838,60a5.845,5.845,0,0,0,3.8-1.407l2.746-2.354a7.461,7.461,0,0,0,1.248-1.389A7.469,7.469,0,0,0,62,52.56Z" style="" fill="#EFEFEF" data-original="#efefef"></path></g></g></svg>