<svg width="206" height="56" viewBox="0 0 206 56" fill="none" xmlns="http://www.w3.org/2000/svg">
<path d="M15.4652 36.18L2.53523 39L2.05523 37.2L5.08523 36.42C4.38523 35.74 3.85523 34.99 3.49523 34.17C3.15523 33.33 2.98523 32.46 2.98523 31.56C2.98523 30.48 3.23523 29.46 3.73523 28.5C4.25523 27.52 4.98523 26.74 5.92523 26.16C6.86523 25.56 7.95523 25.26 9.19523 25.26C10.4752 25.26 11.8252 25.58 13.2452 26.22L12.8252 28.14C11.9052 27.74 11.0052 27.54 10.1252 27.54C9.20523 27.54 8.39524 27.76 7.69523 28.2C7.01523 28.62 6.48523 29.18 6.10523 29.88C5.74523 30.58 5.56523 31.33 5.56523 32.13C5.56523 32.85 5.71523 33.53 6.01523 34.17C6.31523 34.81 6.76523 35.37 7.36523 35.85L14.9252 33.93L15.4652 36.18ZM24.5878 36.93V39H19.4578V17.46H21.7678V36.93H24.5878ZM31.3601 24V39H24.5801V36.93H29.0501V24H31.3601ZM29.0501 41.4H31.3301V43.92H29.0501V41.4ZM49.14 17.46V39H34.95V36.93H38.79V21.51H41.1V36.93H46.86V17.46H49.14ZM41.52 19.41C41.12 19.41 40.43 19.2 39.45 18.78C39.03 18.6 38.65 18.45 38.31 18.33C37.99 18.19 37.76 18.12 37.62 18.12C37.28 18.12 36.79 18.41 36.15 18.99L35.82 19.26L35.43 17.91C35.77 17.53 36.14 17.21 36.54 16.95C36.96 16.67 37.35 16.53 37.71 16.53C37.93 16.53 38.19 16.58 38.49 16.68C38.79 16.78 39.21 16.95 39.75 17.19C40.73 17.61 41.3 17.82 41.46 17.82C41.6 17.82 41.81 17.74 42.09 17.58C42.37 17.4 42.63 17.2 42.87 16.98L43.17 16.71L43.59 18.06C43.23 18.5 42.87 18.84 42.51 19.08C42.15 19.3 41.82 19.41 41.52 19.41ZM54.2332 17.46H56.5432V39H54.2332V17.46ZM84.1001 36.93V39H74.1101C72.3301 39 70.9301 38.75 69.9101 38.25C68.8901 37.75 68.1501 36.96 67.6901 35.88C67.2501 34.78 67.0301 33.29 67.0301 31.41C67.0301 29.55 67.2401 28.06 67.6601 26.94C68.1001 25.82 68.8101 25 69.7901 24.48C70.7901 23.96 72.1301 23.7 73.8101 23.7C74.5501 23.7 75.6801 23.74 77.2001 23.82C78.7401 23.88 79.9001 23.95 80.6801 24.03V36.93H84.1001ZM69.3401 31.35C69.3401 32.73 69.5001 33.82 69.8201 34.62C70.1601 35.42 70.7001 36.01 71.4401 36.39C72.1801 36.75 73.2001 36.93 74.5001 36.93H78.3701V25.98C76.6101 25.86 75.2501 25.8 74.2901 25.8C72.4701 25.8 71.1901 26.23 70.4501 27.09C69.7101 27.95 69.3401 29.37 69.3401 31.35ZM71.6801 18.69H73.9601V21.21H71.6801V18.69ZM75.4301 18.69H77.7101V21.21H75.4301V18.69ZM102.501 36.93V39H99.3513C98.3513 39 97.3313 38.88 96.2913 38.64C95.2513 38.4 94.3013 38.06 93.4413 37.62C92.5813 38.04 91.6413 38.38 90.6213 38.64C89.6213 38.88 88.6313 39 87.6513 39H84.1113V36.93H87.5613C88.7813 36.93 90.0013 36.7 91.2213 36.24C89.6813 35.06 88.4513 33.67 87.5313 32.07C86.6113 30.47 86.1313 29.06 86.0913 27.84L86.0013 25.71C88.5613 24.37 91.0313 23.7 93.4113 23.7C95.7713 23.7 98.2613 24.37 100.881 25.71L100.791 27.84C100.751 28.62 100.531 29.51 100.131 30.51C99.7313 31.49 99.1413 32.49 98.3613 33.51C97.6013 34.53 96.7013 35.43 95.6613 36.21C96.8613 36.69 98.0813 36.93 99.3213 36.93H102.501ZM88.3713 26.88C88.3713 28.52 88.8313 30.06 89.7513 31.5C90.6713 32.92 91.9013 34.12 93.4413 35.1C94.9613 34.12 96.1913 32.91 97.1313 31.47C98.0713 30.03 98.5413 28.5 98.5413 26.88C96.5613 26.14 94.8613 25.77 93.4413 25.77C92.0613 25.77 90.3713 26.14 88.3713 26.88ZM109.29 24V39H102.51V36.93H106.98V24H109.29ZM106.98 41.4H109.26V43.92H106.98V41.4ZM119.51 36.93V39H114.38V17.46H116.69V36.93H119.51ZM130.752 36.93V39H119.502V36.93H123.972V24H126.282V36.93H130.752ZM122.112 18.69H124.392V21.21H122.112V18.69ZM125.862 18.69H128.142V21.21H125.862V18.69ZM141.072 23.7C143.512 23.7 145.312 24.3 146.472 25.5C147.632 26.7 148.212 28.7 148.212 31.5V39H130.752V36.93H135.702C135.422 35.21 135.282 33.46 135.282 31.68C135.282 30.34 135.362 29.02 135.522 27.72C135.682 26.4 135.862 25.33 136.062 24.51C136.542 24.31 137.242 24.13 138.162 23.97C139.082 23.79 140.052 23.7 141.072 23.7ZM137.592 31.68C137.592 32.66 137.632 33.64 137.712 34.62C137.812 35.58 137.912 36.35 138.012 36.93H145.902V31.47C145.902 29.43 145.472 27.97 144.612 27.09C143.752 26.21 142.442 25.77 140.682 25.77C139.702 25.77 138.832 25.87 138.072 26.07C137.752 27.81 137.592 29.68 137.592 31.68Z" fill="white"/>
<path d="M176 28C179.86 28 183 24.86 183 21C183 17.14 179.86 14 176 14C172.14 14 169 17.14 169 21C169 24.86 172.14 28 176 28ZM176 18C177.66 18 179 19.34 179 21C179 22.66 177.66 24 176 24C174.34 24 173 22.66 173 21C173 19.34 174.34 18 176 18ZM176.1 38H167.54C169.52 37 172.94 36 176 36C176.22 36 176.46 36.02 176.68 36.02C177.36 34.56 178.54 33.36 179.96 32.4C178.5 32.14 177.12 32 176 32C171.32 32 162 34.34 162 39V42H176V39C176 38.66 176.04 38.32 176.1 38ZM191 33C187.32 33 180 35.02 180 39V42H202V39C202 35.02 194.68 33 191 33ZM193.42 29.36C194.94 28.5 196 26.88 196 25C196 22.24 193.76 20 191 20C188.24 20 186 22.24 186 25C186 26.88 187.06 28.5 188.58 29.36C189.3 29.76 190.12 30 191 30C191.88 30 192.7 29.76 193.42 29.36Z" fill="#FFA000"/>
</svg>
