<svg width="48" height="48" viewBox="0 0 48 48" fill="none" xmlns="http://www.w3.org/2000/svg">
<path d="M18 24C21.86 24 25 20.86 25 17C25 13.14 21.86 10 18 10C14.14 10 11 13.14 11 17C11 20.86 14.14 24 18 24ZM18 14C19.66 14 21 15.34 21 17C21 18.66 19.66 20 18 20C16.34 20 15 18.66 15 17C15 15.34 16.34 14 18 14ZM18.1 34H9.54C11.52 33 14.94 32 18 32C18.22 32 18.46 32.02 18.68 32.02C19.36 30.56 20.54 29.36 21.96 28.4C20.5 28.14 19.12 28 18 28C13.32 28 4 30.34 4 35V38H18V35C18 34.66 18.04 34.32 18.1 34ZM33 29C29.32 29 22 31.02 22 35V38H44V35C44 31.02 36.68 29 33 29ZM35.42 25.36C36.94 24.5 38 22.88 38 21C38 18.24 35.76 16 33 16C30.24 16 28 18.24 28 21C28 22.88 29.06 24.5 30.58 25.36C31.3 25.76 32.12 26 33 26C33.88 26 34.7 25.76 35.42 25.36Z" fill="#FFA000"/>
</svg>
