<svg xmlns="http://www.w3.org/2000/svg" version="1.1" xmlns:xlink="http://www.w3.org/1999/xlink" xmlns:svgjs="http://svgjs.com/svgjs" width="512" height="512" x="0" y="0" viewBox="0 0 107.712 123.999" style="enable-background:new 0 0 512 512" xml:space="preserve" class=""><g><g xmlns="http://www.w3.org/2000/svg"><g id="XMLID_8_"><path d="m107.657 100.569c-.72-3.53-11.75-9.25-17.88-10.24 0 0 .83-3.27-.55-7.35-1.37-4.08-7.38-8.38-7.38-8.38l-.08.04c-2.86-5.17-10.82-14.2-16.51-19.65-2.3-2.2-5.49-4.35-8.71-6.23 0 0-1.51-6.12-4.88-8.84-2.26-1.83-8.01-1.44-10.55-3.86-.79-.74-1.6-1.91-2.35-3.16 0 0 2.34-1.91 2.37-3.82s-1.91-3.28-1.91-3.28 2.31-.56 2.79-2.54c.47-1.98-1.22-3.09-1.22-3.09s2.71.24 3.12-1.9c.4-2.13-1.76-2.92-1.76-2.92 1.39.06 2.73-.04 3.78-.41 3.98-1.41 4.02-3.85 4.02-3.85s4.48-1.08 4.81-2.94c.32-1.86-2.03-1.98-2.03-1.98s5.13-4.38 2.63-5.98c-1.26-.81-4.89 1.12-9.05 3.29-4.1 2.13-8.71 4.5-12.04 4.67-6.7.35-15.78-2.98-22.4 1.09-6.61 4.08-5.85 11.17-5.85 11.17-2.34.41-5.18 1.95-5.88 5.17-1.03 4.76 3.69 8.62 3.69 8.71 0 0-.52-2.59.98-3.48 0 0 1.5 4.06 5.35 3.48 2.04.48 3.84 1.2 5.31 2.25-1.53 4.23-1.32 11.41.88 11.88 0 0-1.5 7.97-.57 17.29.6 5.97 2.19 12.49 5.82 17.83 7.37 10.82 16.82 13.22 21.48 15.18 0 0-3.23 6.24-1.89 7.86.39.47.9.71 1.41.8-1.29 2.38-3.48 6.07-5.1 6.69-2.42.94-9.5.06-12.37.99-2.77.91-5.79 4.93-5.97 5.18.3-.06 6.47-1.43 9.73-1.7-.48.06-.9.15-1.26.27-2.77.91-5.79 4.93-5.97 5.18.29-.08 5.53-1.69 7.93-1.98 2.73-.34 15.09-.33 17.52-.06 2.42.28 8.11 2.05 8.11 2.05s-.7-3.23-2.41-4.47-3.69-.5-4.19-2.42c-.49-1.93 3.33-6.79 3.33-6.79.14.02.3.03.46.03 2.52 0 2.12-3.89 4.86-4.89 2.75-.99 5.42.53 9.49-.46s6.4-4.02 6.4-4.02l.01.01c8.32 10.3 27.7 20.15 31.92 16.99 2.3-1.72-.36-5.73-.36-5.73s2.42-.29 2.92-2.52c.5-2.24-2.92-6.39-2.92-6.39s3.45-.2 2.92-2.77z" fill="#1EA6BC" data-original="#1ea6bc" class=""></path><g><path d="m45.117 107.009c-.1.61-.03 1.15.36 1.58.21.23.43.39.67.49 0 0-3.71 7.81-6.14 8.74-2.08.81-7.6.27-10.93.7-.06 0-.12.01-.18.02-3.26.27-9.43 1.64-9.73 1.7.18-.25 3.2-4.27 5.97-5.18 2.87-.93 9.95-.05 12.37-.99 1.62-.62 3.81-4.31 5.1-6.69 1.22.22 2.5-.37 2.5-.37z" fill="#5D5560" data-original="#5d5560"></path><path d="m52.817 119.529c1.71 1.24 2.41 4.47 2.41 4.47s-5.69-1.77-8.11-2.05c-2.43-.27-14.79-.28-17.52.06-2.4.29-7.64 1.9-7.93 1.98.18-.25 3.2-4.27 5.97-5.18.36-.12.78-.21 1.26-.27.06-.01.12-.02.18-.02 3.33-.43 8.85.11 10.93-.7 2.43-.93 6.14-8.74 6.14-8.74.57.26 1.19.19 1.75 0 .89-.3 1.91-.07 2.6.58.34.32.81.58 1.46.66 0 0-3.82 4.86-3.33 6.79.5 1.92 2.48 1.18 4.19 2.42z" fill="#655F68" data-original="#655f68"></path><path d="m42.607 107.379c-.51-.09-1.02-.33-1.41-.8-1.34-1.62 1.89-7.86 1.89-7.86 1.22.51 2.12 1 2.56 1.59 1.61 2.17-.24 4.79-.53 6.7h-.01s-1.28.59-2.5.37z" fill="#DD864A" data-original="#dd864a" class=""></path><path d="m93.297 100.279c.01-1.14-.22-2.71-.97-4.82-.22-.62-.48-1.28-.8-2-.51-1.14-1.1-2.19-1.75-3.13 6.13.99 17.16 6.71 17.88 10.24.53 2.57-2.92 2.77-2.92 2.77s3.42 4.15 2.92 6.39c-.5 2.23-2.92 2.52-2.92 2.52s2.66 4.01.36 5.73c-4.22 3.16-23.6-6.69-31.92-16.99 4.26 1.33 7.46 2.21 8.67 2.56 1.97 1.05 3.88 1.88 5.56 2.42 2.81.91 4.98 1.03 5.76.08.69-.85.39-1.96-.53-3.17 0 0 .65-.7.66-2.6z" fill="#DD864A" data-original="#dd864a" class=""></path><path d="m92.637 102.879c.92 1.21 1.22 2.32.53 3.17-.78.95-2.95.83-5.76-.08-1.68-.54-3.59-1.37-5.56-2.42-4.58-2.44-9.49-6.06-12.66-10.08 3.7 2.52 8.91 5.66 11.27 5.2 1.97-.38.55-3.46.44-3.7.15.06.29.12.44.18 3.96 1.76 9.22 4.99 11.3 7.73z" fill="#FFC05A" data-original="#ffc05a"></path><path d="m92.327 95.459c.75 2.11.98 3.68.97 4.82-.01 1.9-.66 2.6-.66 2.6-2.08-2.74-7.34-5.97-11.3-7.73.72.26 2.14.61 2.82-.43 1.59-2.45-2.65-11.74-2.65-11.74s4.84 2.33 8.27 7.35c.65.94 1.24 1.99 1.75 3.13.32.72.58 1.38.8 2z" fill="#6FCEAE" data-original="#6fceae"></path><path d="m81.847 74.599s6.01 4.3 7.38 8.38c1.38 4.08.55 7.35.55 7.35-3.43-5.02-8.27-7.35-8.27-7.35s2.1-1.78 1.3-5.87c-.13-.65-.49-1.49-1.04-2.47z" fill="#1498B7" data-original="#1498b7" class=""></path><path d="m49.957 11.089s-.04 2.44-4.02 3.85c-1.05.37-2.39.47-3.78.41 0 0 3-1.11 3.55-3.01.54-1.9-.54-3.07-.54-3.07s2.63-.98 2.9-2.86c.28-1.89-1.75-2.93-1.75-2.93 4.16-2.17 7.79-4.1 9.05-3.29 2.5 1.6-2.63 5.98-2.63 5.98s2.35.12 2.03 1.98c-.33 1.86-4.81 2.94-4.81 2.94z" fill="#FFC05A" data-original="#ffc05a"></path><circle cx="20.287" cy="22.049" fill="#543927" r="3.29" data-original="#543927"></circle><path d="m12.627 28.149s1.38 5.56-2.46 6.14c-3.85.58-5.35-3.48-5.35-3.48 1.5-.9 6.44 1.14 7.7-2.32.04-.11.08-.23.11-.34z" fill="#5D5560" data-original="#5d5560"></path><path d="m8.767 20.519c1.8.76 4.8 4.27 3.86 7.63-.03.11-.07.23-.11.34-1.26 3.46-6.2 1.42-7.7 2.32-1.5.89-.98 3.48-.98 3.48 0-.09-4.72-3.95-3.69-8.71.7-3.22 3.54-4.76 5.88-5.17 1.13-.2 2.14-.14 2.74.11z" fill="#655F68" data-original="#655f68"></path><path d="m15.787 65.709c-.93-9.32.57-17.29.57-17.29 2.19.48 2.72-2.96 2.72-2.96s2.29-.11 4.18-2.03c1.9-1.92 1.36-4.57 1.36-4.57 2.39 1.24 5.24 2.19 8.55 2.86-.47.04-.96.1-1.46.19-4.29.77-8.96 5.89-9.2 12.18-.04.92 0 1.99.14 3.17h-.01c-1.06 4.04-3.11 6.9-6.85 8.45z" fill="#F69552" data-original="#f69552" class=""></path><path d="m47.897 109.079c-.56.19-1.18.26-1.75 0-.24-.1-.46-.26-.67-.49-.39-.43-.46-.97-.36-1.58.29-1.91 2.14-4.53.53-6.7-.44-.59-1.34-1.08-2.56-1.59-4.66-1.96-14.11-4.36-21.48-15.18-3.63-5.34-5.22-11.86-5.82-17.83 3.74-1.55 5.79-4.41 6.85-8.45h.01c.73 6.84 4.4 17.46 13.05 25.7 8.54 8.13 26.49 14.58 37.47 18.02 0 0-2.33 3.03-6.4 4.02s-6.74-.53-9.49.46c-2.74 1-2.34 4.89-4.86 4.89-.16 0-.32-.01-.46-.03-.65-.08-1.12-.34-1.46-.66-.69-.65-1.71-.88-2.6-.58z" fill="#DD864A" data-original="#dd864a" class=""></path></g><g id="XMLID_37_"><g><path d="m50.497 109.659c-.69-.65-1.71-.88-2.6-.58-.56.19-1.18.26-1.75 0-.24-.1-.46-.26-.67-.49-.39-.43-.46-.97-.36-1.58.29-1.91 2.14-4.53.53-6.7-.44-.59-1.34-1.08-2.56-1.59-4.66-1.96-14.11-4.36-21.48-15.18-3.63-5.34-5.22-11.86-5.82-17.83 0 0 8.02 32.59 57.37 35.28-.2.26-2.5 3.06-6.39 4.01-4.07.99-6.74-.53-9.49.46-2.74 1-2.34 4.89-4.86 4.89-.16 0-.32-.01-.46-.03-.65-.08-1.12-.34-1.46-.66z" fill="#C57742" data-original="#c57742"></path><g fill="#1498B7"><path d="m24.617 38.859s.54 2.65-1.36 4.57c-1.89 1.92-4.18 2.03-4.18 2.03s-.53 3.44-2.72 2.96c-2.2-.47-2.41-7.65-.88-11.88 1.47 1.05 2.61 2.43 3.34 4.22 0 0 .95 3.12 2.34 0 0 0 .93-1.4-.87-2.76-1.8-1.35-1.47-3.71-1.47-3.71 1.48 1.81 3.41 3.33 5.8 4.57z" fill="#1498B7" data-original="#1498b7" class=""></path><path d="m73.167 100.979c-10.98-3.44-28.93-9.89-37.47-18.02-8.65-8.24-12.32-18.86-13.05-25.7-.14-1.18-.18-2.25-.14-3.17.09-2.44.85-4.7 2-6.6 0 0 1.92 27.02 31.55 34.97 29.03 7.8 22.97-11.53 22.72-12.31 1.24 1.66 2.27 3.19 2.99 4.49.55.98.91 1.82 1.04 2.47.8 4.09-1.3 5.87-1.3 5.87s0 0 .01.01c.16.37 4.2 9.33 2.64 11.73-.68 1.04-2.1.69-2.82.43-.15-.06-.29-.12-.44-.18.11.24 1.53 3.32-.44 3.7-2.36.46-7.57-2.68-11.27-5.2 3.17 4.02 8.08 7.64 12.66 10.08-1.21-.35-4.41-1.23-8.67-2.56h-.01z" fill="#1498B7" data-original="#1498b7" class=""></path></g></g><g><path d="m6.45 23.566c-.322-.449-.948-.553-1.396-.23-1.018.729-1.65 1.793-1.828 3.075-.076.547.306 1.052.853 1.128.047.006.093.009.139.009.491 0 .919-.362.989-.862.104-.747.435-1.311 1.012-1.725.449-.321.553-.946.231-1.395z" fill="#5D5560" data-original="#5d5560"></path><g fill="#C57742"><path d="m98.328 108.492c-.484.265-.662.872-.398 1.356.321.59.589 1.487.461 1.831-.011.03-.019.051-.101.082-1.436.533-5.821-1.538-8.706-4.62-.378-.404-1.011-.424-1.413-.047-.403.377-.424 1.01-.047 1.413 2.602 2.78 6.843 5.323 9.66 5.323.439 0 .845-.062 1.203-.194.616-.23 1.059-.667 1.279-1.261.512-1.379-.396-3.147-.583-3.488-.266-.483-.873-.66-1.355-.395z" fill="#C57742" data-original="#c57742"></path><path d="m100.098 103.468-4.802-3.091c-.462-.299-1.083-.166-1.382.3-.299.464-.165 1.083.3 1.382l4.802 3.091c.167.108.354.159.54.159.329 0 .651-.162.842-.459.299-.465.165-1.083-.3-1.382z" fill="#C57742" data-original="#c57742"></path><path d="m100.841 98.124-6.28-2.772c-.504-.221-1.095.007-1.319.511-.223.505.006 1.096.511 1.319l6.28 2.772c.131.058.269.085.403.085.384 0 .75-.223.916-.597.223-.505-.006-1.095-.511-1.318z" fill="#C57742" data-original="#c57742"></path></g><g fill="#1498B7"><path d="m39.998 16.154c.045.006.089.009.133.009.494 0 .923-.366.99-.868.073-.548-.312-1.05-.859-1.123-3.055-.406-5.91-1.316-5.938-1.326-.524-.169-1.088.121-1.258.646-.169.526.12 1.089.646 1.258.122.04 3.047.974 6.286 1.404z" fill="#1498B7" data-original="#1498b7" class=""></path><path d="m39.227 43.499c.391 0 .761-.23.922-.613.214-.509-.025-1.095-.534-1.31-.083-.035-2.078-.86-5.014-.904-.005 0-.01 0-.015 0-.545 0-.991.438-1 .985-.008.552.433 1.006.985 1.015 2.524.037 4.253.741 4.27.749.127.053.257.078.386.078z" fill="#1498B7" data-original="#1498b7" class=""></path><path d="m35.312 25.836c-.51.212-.751.798-.538 1.308.038.09.935 2.235 2.182 4.575.18.338.525.53.883.53.159 0 .32-.038.469-.118.488-.26.672-.865.412-1.353-1.201-2.252-2.092-4.383-2.101-4.404-.212-.51-.797-.752-1.307-.538z" fill="#1498B7" data-original="#1498b7" class=""></path><path d="m53.661 46.007c-4.938-2.627-9.228-4.415-9.271-4.432-.508-.211-1.095.03-1.307.54s.03 1.095.54 1.307c.042.018 4.248 1.771 9.098 4.351.15.08.311.117.469.117.358 0 .704-.192.884-.53.259-.488.074-1.093-.413-1.353z" fill="#1498B7" data-original="#1498b7" class=""></path><path d="m36.334 45.808c-.425-.353-1.056-.292-1.408.133s-.292 1.056.133 1.408l6.02 4.98c.187.154.412.229.637.229.288 0 .573-.124.771-.363.352-.425.292-1.056-.133-1.408z" fill="#1498B7" data-original="#1498b7" class=""></path><path d="m46.359 48.036-4.57-2.8c-.471-.288-1.086-.142-1.375.33-.289.471-.141 1.086.33 1.375l4.57 2.8c.163.1.343.147.521.147.336 0 .665-.169.854-.478.289-.469.141-1.085-.33-1.374z" fill="#1498B7" data-original="#1498b7" class=""></path></g></g></g></g></g></g></svg>