<svg xmlns="http://www.w3.org/2000/svg" version="1.1" xmlns:xlink="http://www.w3.org/1999/xlink" xmlns:svgjs="http://svgjs.com/svgjs" width="512" height="512" x="0" y="0" viewBox="0 0 513.437 513.437" style="enable-background:new 0 0 512 512" xml:space="preserve"><g><g xmlns="http://www.w3.org/2000/svg"><g><circle cx="53.155" cy="420.42" fill="#9FACBA" r="41.857" data-original="#9facba"></circle></g><g><circle cx="136.577" cy="420.42" fill="#9FACBA" r="41.857" data-original="#9facba"></circle></g><g><circle cx="219.999" cy="420.42" fill="#9FACBA" r="41.857" data-original="#9facba"></circle></g><g><circle cx="303.42" cy="420.42" fill="#9FACBA" r="41.857" data-original="#9facba"></circle></g><g><path d="m345.278 420.419c0 23.12-18.74 41.86-41.86 41.86-12.88 0-24.39-5.81-32.07-14.96 4.81 1.93 10.05 2.99 15.55 2.99 23.12 0 41.86-18.74 41.86-41.86 0-10.25-3.68-19.64-9.8-26.91 15.43 6.17 26.32 21.25 26.32 38.88z" fill="#8D9CA8" data-original="#8d9ca8"></path></g><g><path d="m261.856 420.417c0 23.12-18.74 41.86-41.86 41.86-12.88 0-24.39-5.81-32.07-14.96 4.81 1.93 10.05 2.99 15.55 2.99 23.12 0 41.86-18.74 41.86-41.86 0-10.25-3.68-19.64-9.8-26.91 15.43 6.17 26.32 21.25 26.32 38.88z" fill="#8D9CA8" data-original="#8d9ca8"></path></g><g><path d="m178.434 420.417c0 23.12-18.74 41.86-41.86 41.86-12.88 0-24.39-5.81-32.07-14.96 4.81 1.93 10.05 2.99 15.55 2.99 23.12 0 41.86-18.74 41.86-41.86 0-10.25-3.68-19.64-9.8-26.91 15.43 6.17 26.32 21.25 26.32 38.88z" fill="#8D9CA8" data-original="#8d9ca8"></path></g><g><path d="m95.012 420.417c0 23.12-18.74 41.86-41.86 41.86-12.88 0-24.39-5.81-32.07-14.96 4.81 1.93 10.05 2.99 15.55 2.99 23.12 0 41.86-18.74 41.86-41.86 0-10.25-3.68-19.64-9.8-26.91 15.43 6.17 26.32 21.25 26.32 38.88z" fill="#8D9CA8" data-original="#8d9ca8"></path></g><g><circle cx="460.27" cy="403.297" fill="#9FACBA" r="41.857" data-original="#9facba"></circle></g><g><path d="m473.138 443.129c-11.87 3.84-24.2 2.09-34.15-3.79 5.21.37 10.58-.23 15.86-1.93 21.99-7.11 34.06-30.71 26.96-52.7-3.28-10.13-10.05-18.16-18.55-23.17 16.51 1.18 31.43 12.17 36.84 28.89 7.11 22-4.96 45.59-26.96 52.7z" fill="#8D9CA8" data-original="#8d9ca8"></path></g><g><path d="m496.287 94.227h-479.137c-5.329 0-9.65-4.32-9.65-9.65v-23.768c0-5.329 4.32-9.65 9.65-9.65h479.137c5.329 0 9.65 4.32 9.65 9.65v23.768c0 5.329-4.321 9.65-9.65 9.65z" fill="#D77F4A" data-original="#d77f4a"></path></g><g><path d="m505.938 60.808v23.77c0 5.33-4.32 9.65-9.65 9.65h-20c5.33 0 9.65-4.32 9.65-9.65v-23.77c0-5.33-4.32-9.65-9.65-9.65h20c5.33 0 9.65 4.32 9.65 9.65z" fill="#C86D36" data-original="#c86d36"></path></g><g><path d="m59.404 440.12c1.195 0 2.406-.286 3.533-.889 5.545-2.968 9.795-8.115 11.661-14.121 1.229-3.956-.982-8.158-4.938-9.387-3.952-1.227-8.159.982-9.387 4.938-.696 2.24-2.346 4.239-4.415 5.346-3.652 1.955-5.027 6.5-3.073 10.152 1.352 2.524 3.943 3.961 6.619 3.961z" fill="#000000" data-original="#000000"></path><path d="m226.247 440.12c1.194 0 2.406-.286 3.533-.889 5.545-2.968 9.796-8.115 11.662-14.121 1.229-3.956-.982-8.158-4.938-9.387-3.954-1.227-8.159.982-9.387 4.938-.696 2.24-2.346 4.238-4.415 5.346-3.652 1.955-5.028 6.5-3.073 10.151 1.351 2.525 3.941 3.962 6.618 3.962z" fill="#000000" data-original="#000000"></path><path d="m496.287 86.727h-41.249c-4.142 0-7.5 3.358-7.5 7.5s3.358 7.5 7.5 7.5h41.249c9.457 0 17.15-7.693 17.15-17.149v-23.768c0-9.457-7.693-17.15-17.15-17.15h-479.137c-9.457 0-17.15 7.693-17.15 17.15v23.768c0 9.456 7.693 17.149 17.15 17.149h28.505v269.913c-4.756.723-9.362 2.125-13.755 4.224-3.737 1.786-5.319 6.263-3.534 10s6.263 5.319 10 3.534c4.631-2.213 9.607-3.335 14.788-3.335 14.609 0 27.96 9.633 32.592 23.487 2.701 8.079 2.368 16.449-.963 24.28-2.79 6.557-7.64 12.168-13.712 15.895-5.371 3.297-11.615 5.052-17.916 5.052-18.944 0-34.357-15.413-34.357-34.357 0-3.487.519-6.924 1.542-10.214 1.229-3.955-.98-8.159-4.936-9.388-3.952-1.228-8.158.98-9.388 4.936-1.471 4.733-2.217 9.668-2.217 14.667 0 27.215 22.142 49.357 49.357 49.357 17.535 0 32.953-9.2 41.711-23.019 8.757 13.819 24.175 23.019 41.711 23.019s32.954-9.2 41.711-23.019c8.757 13.819 24.175 23.019 41.711 23.019s32.953-9.2 41.711-23.019c8.757 13.819 24.175 23.019 41.711 23.019 27.216 0 49.357-22.142 49.357-49.357 0-24.667-18.188-45.165-41.857-48.789v-269.905h44.023l83.188 257.45c-9.353 4.668-16.953 12.161-21.803 21.642-6.004 11.737-7.079 25.11-3.025 37.655s12.75 22.761 24.487 28.765c7.062 3.613 14.716 5.44 22.426 5.44 5.104 0 10.232-.801 15.229-2.416 12.545-4.053 22.761-12.75 28.765-24.487s7.079-25.11 3.025-37.655c-7.585-23.472-31.195-37.384-54.83-33.555l-81.699-252.84h49.76c4.142 0 7.5-3.358 7.5-7.5s-3.358-7.5-7.5-7.5c0 0-60.139 0-60.149 0h-343.169c-1.186 0-2.15-.964-2.15-2.149v-23.767c0-1.186.964-2.15 2.15-2.15h479.137c1.186 0 2.15.964 2.15 2.15v23.768c0 1.184-.964 2.149-2.15 2.149zm-36.04 282.21c14.505 0 28.022 9.269 32.716 23.796 2.822 8.732 2.074 18.041-2.105 26.211-4.18 8.17-11.291 14.224-20.023 17.045-8.733 2.822-18.042 2.074-26.211-2.105-8.17-4.18-14.224-11.291-17.045-20.023-5.825-18.026 4.102-37.431 22.129-43.256 3.497-1.131 7.045-1.668 10.539-1.668zm-122.47 51.483c0 18.944-15.413 34.357-34.357 34.357-17.813 0-32.5-13.628-34.191-31.005-.217-2.227-.219-4.451 0-6.705 1.691-17.377 16.378-31.005 34.191-31.005 18.945.001 34.357 15.414 34.357 34.358zm-110.278-318.693h68.421v269.905c-14.38 2.202-26.728 10.639-34.212 22.448-7.484-11.809-19.83-20.247-34.21-22.448v-269.905zm26.732 315.33c.477 4.732-.068 9.525-1.64 14.228-4.63 13.857-17.982 23.492-32.593 23.492-17.813 0-32.5-13.628-34.191-31.005-.467-4.801.069-9.642 1.598-14.218 4.63-13.857 17.982-23.492 32.593-23.492 6.398 0 12.734 1.81 18.16 5.203 6.066 3.793 10.884 9.475 13.613 16.09 1.309 3.173 2.13 6.423 2.46 9.702zm-110.154-315.33h68.422v269.905c-14.38 2.202-26.728 10.639-34.212 22.448-7.484-11.809-19.83-20.247-34.21-22.448zm26.646 315.339c.485 4.697.009 9.528-1.541 14.183-4.619 13.875-17.981 23.528-32.606 23.528-4.779 0-9.541-1.001-13.909-2.943-13.433-5.972-21.692-20.276-20.282-34.766 1.691-17.377 16.378-31.005 34.191-31.005 6.455 0 12.846 1.843 18.303 5.292 9.1 5.752 14.781 15.411 15.844 25.711zm-41.646-45.434c-14.38 2.202-26.728 10.639-34.212 22.448-7.484-11.809-19.83-20.247-34.21-22.448v-269.905h68.421v269.905z" fill="#000000" data-original="#000000"></path><path d="m469.96 420.485c1.966 0 3.93-.769 5.402-2.296 4.364-4.529 6.826-10.733 6.754-17.022-.046-4.113-3.395-7.415-7.498-7.415-.029 0-.058 0-.087 0-4.142.047-7.461 3.442-7.415 7.584.026 2.346-.929 4.755-2.557 6.444-2.874 2.983-2.786 7.731.197 10.605 1.456 1.403 3.331 2.1 5.204 2.1z" fill="#000000" data-original="#000000"></path><path d="m309.669 440.12c1.195 0 2.406-.286 3.533-.889 5.545-2.968 9.795-8.115 11.661-14.121 1.229-3.956-.982-8.158-4.938-9.387-3.952-1.227-8.159.982-9.387 4.938-.696 2.24-2.346 4.239-4.415 5.346-3.652 1.955-5.027 6.5-3.073 10.152 1.352 2.524 3.942 3.961 6.619 3.961z" fill="#000000" data-original="#000000"></path><path d="m142.826 440.12c1.194 0 2.406-.286 3.533-.889 5.545-2.968 9.795-8.115 11.661-14.121 1.229-3.956-.982-8.158-4.938-9.387-3.953-1.227-8.158.982-9.387 4.938-.696 2.24-2.346 4.239-4.414 5.346-3.652 1.955-5.028 6.5-3.073 10.151 1.351 2.525 3.94 3.962 6.618 3.962z" fill="#000000" data-original="#000000"></path></g></g></g></svg>