<svg width="354" height="404" viewBox="0 0 354 404" fill="none" xmlns="http://www.w3.org/2000/svg">
<g clip-path="url(#clip0_3264_4480)">
<path d="M121.977 38.3937C120.53 32.9909 116.002 29.2359 110.79 28.5115C111.188 26.6917 111.172 24.7528 110.657 22.8291C108.936 16.4055 102.333 12.5936 95.9097 14.3148C94.0796 14.8052 92.4625 15.6928 91.1239 16.8585C88.4423 12.3248 82.9843 9.933 77.6472 11.3631C72.3102 12.7931 68.7795 17.5935 68.7238 22.8606C66.9817 22.5202 65.1374 22.5602 63.3073 23.0506C56.8838 24.7717 53.0718 31.3743 54.793 37.7978C55.3084 39.7215 56.264 41.4086 57.5192 42.7853C53.3675 46.0189 51.3239 51.5346 52.7715 56.9374C54.6477 63.9393 61.6967 68.1656 68.7053 66.6223C70.6078 69.8606 75.0347 71.4685 79.4903 70.2747C82.0156 69.598 84.0816 68.1455 85.4048 66.3312C87.458 67.2408 89.9735 67.4657 92.4986 66.7891C95.0237 66.1125 97.0899 64.6599 98.4131 62.8457C100.466 63.7552 102.982 63.9801 105.507 63.3035C109.963 62.1096 112.992 58.5037 113.021 54.7479C119.862 52.5801 123.854 45.3956 121.977 38.3937Z" fill="#129B12"/>
<path d="M76.9556 11.5732C76.8147 11.6201 76.6748 11.6686 76.5368 11.7205C76.4945 11.7363 76.4526 11.7527 76.4107 11.769C76.2628 11.8262 76.1164 11.8859 75.9719 11.9485C75.9448 11.9602 75.9176 11.9718 75.8907 11.9837C75.7192 12.0596 75.5495 12.1384 75.3828 12.2215C75.3825 12.2216 75.3822 12.2218 75.3819 12.2219C78.6015 12.0247 82.03 13.3853 84.5594 15.5804C86.3506 17.135 88.8351 17.642 91.079 16.8741C91.094 16.869 91.1088 16.8639 91.1238 16.8588C88.4422 12.3249 82.9842 9.93304 77.6472 11.3631C77.46 11.4132 77.2757 11.4685 77.0931 11.5268C77.047 11.5416 77.0017 11.5579 76.9556 11.5732Z" fill="#097C09"/>
<path d="M110.79 28.5115C111.188 26.6916 111.172 24.7528 110.657 22.8291C108.936 16.4055 102.333 12.5936 95.9097 14.3148C95.1125 14.5284 94.3559 14.8175 93.645 15.172C99.2415 14.8285 104.493 18.4508 106.001 24.0767C106.516 26.0004 106.532 27.9392 106.134 29.7591C111.346 30.4836 115.874 34.2385 117.321 39.6413C119.197 46.6432 115.206 53.8277 108.365 55.9954C108.341 59.0737 106.301 62.0503 103.113 63.6817C103.9 63.642 104.703 63.5188 105.507 63.3033C109.963 62.1095 112.992 58.5035 113.021 54.7477C119.862 52.5799 123.853 45.3955 121.977 38.3936C120.53 32.9909 116.002 29.2358 110.79 28.5115Z" fill="#097C09"/>
<path d="M83.0646 64.8935C82.4923 66.9536 78.6784 70.1078 77.0967 70.6528C77.2842 70.6433 77.4729 70.6283 77.662 70.6093C77.6772 70.6079 77.6924 70.6065 77.7076 70.6049C77.8991 70.5848 78.0913 70.5601 78.2841 70.53C78.2891 70.5291 78.294 70.5282 78.299 70.5275C78.4723 70.5001 78.6462 70.4673 78.8202 70.4315C78.8625 70.4227 78.9049 70.4139 78.9474 70.4048C79.1283 70.3656 79.3093 70.3232 79.4904 70.2747C81.7935 69.6576 83.7125 68.394 85.0367 66.8002L85.2673 66.5152L83.1671 64.5125L83.0646 64.8935Z" fill="#009000"/>
<path d="M98.0042 64.0736L100.88 54.8753C101.108 54.1477 100.77 53.3631 100.085 53.0287C99.353 52.6716 98.4699 52.9443 98.0671 53.6519L95.3929 58.3505C95.0382 58.9737 94.0945 58.7874 94.0033 58.0763L92.94 49.7917C92.8264 48.9066 91.9877 48.3021 91.112 48.4745L90.0826 48.677C89.3091 48.8293 88.7749 49.5402 88.8438 50.3256L89.85 61.7858C89.9059 62.4232 89.1868 62.831 88.6685 62.4561L80.6477 56.6533C80.0926 56.2517 79.3393 56.2643 78.7981 56.6841L77.8607 57.411C77.1186 57.9866 77.0587 59.0862 77.7338 59.739L86.702 68.4113C88.0007 69.6672 88.8413 71.3236 89.0806 73.1144C89.9376 79.5262 90.5054 85.6376 87.6968 91.4925L109.008 85.7821C103.271 81.8574 100.494 75.8089 98.1247 69.2813C97.5168 67.6047 97.472 65.7754 98.0042 64.0736Z" fill="#BF6101"/>
<path d="M100.88 54.8753C101.108 54.1477 100.77 53.363 100.084 53.0286C99.3529 52.6716 98.4698 52.9443 98.067 53.6519L96.8727 55.7501L95.3928 58.3504C95.0381 58.9736 94.0944 58.7872 94.0032 58.0761L92.9399 49.7915C92.8293 48.9288 92.0294 48.3348 91.1781 48.4648L93.1974 68.1384C93.2116 68.3956 93.2377 68.6522 93.2762 68.9073C93.3565 69.4382 93.4889 69.9629 93.6741 70.4734C96.0437 77.0012 98.8203 83.0497 104.558 86.9744L109.008 85.7819C103.271 81.8572 100.494 75.8087 98.1249 69.281C97.5166 67.6048 97.4719 65.7756 98.004 64.0736L100.88 54.8753Z" fill="#9A4D01"/>
<path d="M77.8802 21.0872C74.6171 21.9616 72.3271 24.6509 71.8002 27.7779C70.2357 27.2008 68.4845 27.0827 66.7511 27.5472C62.2917 28.7421 59.6452 33.3259 60.8401 37.7853C61.2344 39.2566 61.9993 40.5289 63.0052 41.5326C59.2926 43.1655 57.2237 47.3061 58.3059 51.3449C59.5008 55.8043 64.0846 58.4508 68.544 57.2559C73.0034 56.061 89.3132 31.4576 88.1183 26.9982C86.9234 22.5388 82.3399 19.8923 77.8802 21.0872Z" fill="#28A528"/>
</g>
<g clip-path="url(#clip1_3264_4480)">
<path d="M345.896 195.508C335.349 197.326 324.789 205.893 314.144 206.806C283.326 209.423 252.193 206.623 221.304 207.5C190.409 208.37 159.486 212.924 128.584 212.047C97.6955 211.177 67.081 204.883 36.2701 202.259C25.2957 201.325 14.2722 193.838 3.23474 193.417C4.50479 186.908 20.9375 183.807 22.9093 177.579C25.5455 169.253 13.9895 157.918 17.7947 150.187C69.3335 151.779 120.928 144.749 172.467 143.114C188.143 142.615 203.804 143.752 219.101 146.397C232.166 148.65 245.484 149.787 258.837 149.787C265.539 149.787 272.247 149.506 278.941 148.924C296.413 147.422 313.85 152.755 331.279 150.867C338.058 164.81 343.033 179.791 345.896 195.508Z" fill="#6C564B"/>
<path d="M75.0803 151.295C71.663 160.326 68.9756 169.707 67.0881 179.384C65.8671 185.615 64.983 191.965 64.4567 198.413C55.0682 197.185 45.6797 196.042 36.2701 195.242C25.2957 194.309 14.2722 193.838 3.23474 193.417C6.20287 178.205 11.1427 163.701 17.7947 150.187C36.8875 150.776 55.9804 151.148 75.0803 151.295Z" fill="#6C564B"/>
<path d="M348.737 227C348.737 229.273 348.695 231.533 348.611 233.785C337.167 235.813 325.701 244.57 314.144 245.56C283.326 248.177 252.193 245.377 221.304 246.254C190.409 247.124 159.486 251.678 128.584 250.801C97.6955 249.931 67.081 243.637 36.2701 241.013C24.2432 239.988 12.1672 232.508 0.0771591 232.059C0.0210243 230.382 17.7947 218.972 17.7947 217.281C17.7947 205.794 1.10864 204.286 3.23474 193.417C14.2722 193.838 25.2957 194.309 36.2701 195.242C67.081 197.866 97.6955 204.16 128.584 205.03C159.486 205.907 190.409 201.353 221.304 200.483C252.193 199.606 283.326 202.406 314.144 199.789C324.789 198.876 335.349 197.326 345.896 195.508C347.762 205.725 348.737 216.25 348.737 227Z" fill="#6C564B"/>
<path d="M331.279 150.867C313.85 152.755 296.413 154.439 278.941 155.94C272.247 156.523 265.539 156.803 258.837 156.803C245.484 156.803 232.166 155.667 219.101 153.414C203.804 150.769 188.143 149.632 172.467 150.13C120.928 151.765 69.3334 151.779 17.7947 150.187C23.2369 139.106 50.9865 143.831 58.5605 134.23C64.2771 126.984 49.3944 105.06 56.1698 98.8092C76.5117 100.423 94.3766 94.6904 105.877 95.4903C112.164 95.9253 118.136 98.7952 122.023 103.756C125.012 107.587 130.275 110.127 136.267 110.127C141.846 110.127 146.792 107.924 149.866 104.528C154.202 99.7284 160.202 96.8094 166.671 96.8375C208.927 97.027 251.182 102.612 293.36 99.539C308.945 114.099 321.856 131.48 331.279 150.867Z" fill="#6C564B"/>
<path d="M293.36 99.539C251.182 102.612 208.927 104.044 166.671 103.854C160.202 103.826 154.202 106.745 149.866 111.545C146.793 114.941 141.846 117.144 136.267 117.144C130.275 117.144 125.012 114.604 122.023 110.773C118.136 105.812 112.164 102.942 105.877 102.507C94.3767 101.707 76.5118 100.423 56.1699 98.8092C67.7863 88.0945 87.1774 91.1223 101.379 83.8563C122.591 73.0027 140.002 54.1821 165.141 52.8713C168.197 52.712 171.273 52.6313 174.369 52.6313C220.364 52.6313 262.199 70.4471 293.36 99.539Z" fill="#25C826"/>
<path d="M65.5444 237.308C55.798 236.031 46.0446 234.831 36.2701 233.996C24.2432 232.971 12.1672 232.508 0.0771853 232.059C0.0210505 230.382 0 228.691 0 227C0 215.513 1.10866 204.286 3.23477 193.417C14.2723 193.838 25.2957 194.309 36.2701 195.242C45.6797 196.042 55.0682 197.185 64.4568 198.413C64.0568 203.213 63.8533 208.069 63.8533 212.966C63.8533 214.657 63.8744 216.348 63.9305 218.025C64.1129 224.551 64.6603 230.986 65.5444 237.308Z" fill="#6C564B"/>
<path d="M103.435 102.339C94.9379 112.682 87.6053 124.021 81.648 136.153C79.2272 141.072 77.0309 146.124 75.0802 151.295C55.9804 151.148 36.8875 150.776 17.7947 150.187C27.3446 130.743 40.417 113.341 56.1698 98.8092C75.1223 100.311 91.9277 101.532 103.435 102.339Z" fill="#6C564B"/>
<path d="M169.436 52.7015C151.136 60.5604 134.457 71.4646 120.023 84.7756C114.101 90.2347 108.558 96.1078 103.435 102.339C91.9278 101.532 75.1224 100.311 56.1699 98.8092C86.1248 71.1839 125.77 53.9155 169.436 52.7015Z" fill="#2AB42B"/>
<path d="M348.611 233.785C347.776 255.594 342.934 276.371 334.802 295.414H334.795C318.053 297.028 301.31 305.399 284.533 306.494C270.949 307.385 257.364 303.463 246.684 295.014C237.871 288.047 226.174 283.843 213.305 283.843C212.639 283.843 211.951 283.851 211.277 283.879C198.942 284.3 187.238 288.601 178.34 295.976C178.298 296.018 178.242 296.06 178.2 296.102C167.604 304.929 154.314 309.89 140.533 309.581C98.1727 308.627 55.8611 299.021 13.6688 294.79C10.1204 286.388 25.1175 275.296 22.9093 266.284C20.0253 254.515 0.430798 244.632 0.0771484 232.059C12.1672 232.508 24.2432 232.971 36.2701 233.996C67.081 236.62 97.6955 242.914 128.584 243.784C159.486 244.661 190.409 240.107 221.304 239.237C252.193 238.36 283.326 241.16 314.144 238.543C325.701 237.553 337.167 235.813 348.611 233.785Z" fill="#6C564B"/>
<path d="M87.3948 300.509C62.7867 299.154 38.2067 297.253 13.6688 294.79C5.48714 275.416 0.701648 254.26 0.0771484 232.059C12.1672 232.508 24.2432 232.971 36.2701 233.996C46.0445 234.831 55.7979 236.031 65.5443 237.308C67.6634 252.506 71.7472 267.073 77.5221 280.756C80.399 287.576 83.7039 294.165 87.3948 300.509Z" fill="#6C564B"/>
<path d="M55.1567 237.308C54.7238 244.619 58.3936 247.712 67.886 248.274C75.0046 248.696 81.3134 248.412 84.2036 243.815C85.1671 242.282 85.7516 240.569 85.8596 238.741C86.2926 231.43 78.9494 225.047 69.457 224.485C67.6614 224.378 65.9177 224.488 64.2674 224.785C57.1937 226.058 55.5082 231.379 55.1567 237.308Z" fill="#6C564B"/>
<path d="M84.3004 243.644C81.4655 248.338 75.0943 251.391 67.8879 250.963C58.3942 250.401 51.0545 244.016 51.4896 236.704C51.8334 230.775 57.1943 226.053 64.2673 224.783C63.3621 226.27 62.8218 227.926 62.7165 229.687C62.2815 236.999 69.6211 243.384 79.1149 243.946C80.9112 244.051 82.6584 243.939 84.3004 243.644Z" fill="#6C564B"/>
<path d="M334.795 295.414C328.501 310.171 320.228 323.882 310.306 336.217C300.658 337.01 291.017 344.729 281.369 345.353C269.208 346.139 257.497 350.686 248.361 358.741C247.996 359.064 247.625 359.38 247.239 359.696C238.341 367.07 226.644 371.365 214.309 371.793C213.621 371.814 212.947 371.828 212.281 371.828C199.314 371.828 187.553 367.569 178.726 360.517C169.141 352.861 157.248 348.693 144.989 348.462C109.372 347.795 73.7541 338.94 38.2208 335.944H38.2138C33.2402 329.734 46.3575 316.455 42.2576 309.595C38.1443 302.711 16.8173 302.244 13.6688 294.79C55.8611 299.021 98.1727 301.61 140.533 302.564C154.315 302.873 167.604 297.912 178.2 289.085C178.242 289.043 178.298 289.001 178.34 288.959C187.238 281.584 198.942 277.283 211.277 276.862C211.951 276.834 212.639 276.827 213.305 276.827C226.174 276.827 237.871 281.03 246.684 287.997C257.364 296.446 270.949 300.368 284.533 299.477C301.31 298.382 318.053 297.028 334.795 295.414Z" fill="#6C564B"/>
<path d="M119.609 340.764C92.454 339.838 65.3128 338.231 38.2208 335.944H38.2138C28.2498 323.503 19.9559 309.673 13.6688 294.79C38.2067 297.253 62.7868 299.154 87.3949 300.509C91.7593 308.017 96.6641 315.167 102.067 321.91H102.074C107.449 328.618 113.315 334.926 119.609 340.764Z" fill="#6C564B"/>
<path d="M242.899 319.781C242.949 321.243 242.788 322.677 242.434 324.07C239.959 333.815 229.497 337.172 214.947 337.673C198.319 338.245 187.417 334.143 187.014 322.45C186.742 314.537 188.346 306.83 197.363 302.881C201.672 300.993 206.685 299.829 212.062 299.643C228.69 299.071 242.497 308.087 242.899 319.781Z" fill="#6C564B"/>
<path d="M242.25 324.724C239.422 334.154 227.746 341.501 213.523 341.992C196.893 342.561 183.084 333.551 182.684 321.854C182.41 313.939 188.346 306.831 197.363 302.88C196.886 304.473 196.661 306.129 196.717 307.82C197.117 319.517 210.926 328.527 227.556 327.958C232.931 327.769 237.941 326.604 242.25 324.724Z" fill="#6C564B"/>
<path d="M310.306 336.217C292.557 358.28 269.548 375.93 243.183 387.265C222.071 396.342 198.669 391.418 174.232 391.418C119.15 391.418 99.8336 386.155 67.8859 346.272C94.9786 348.556 92.4554 339.839 119.609 340.772C128.069 341.062 136.529 341.287 144.989 341.445C157.248 341.676 169.141 345.844 178.726 353.5C187.553 360.552 199.314 364.811 212.281 364.811C212.947 364.811 213.621 364.797 214.309 364.776C226.644 364.348 238.341 360.054 247.239 352.679C247.625 352.363 247.996 352.047 248.361 351.725C257.497 343.669 269.208 339.122 281.369 338.336C291.017 337.712 300.658 337.01 310.306 336.217Z" fill="#6C564B"/>
<path d="M243.183 387.265C222.069 396.338 198.808 401.369 174.369 401.369C119.286 401.369 70.1685 375.827 38.2208 335.944C65.3129 338.231 92.4541 339.838 119.609 340.764C150.722 369.667 192.409 387.335 238.222 387.335C239.878 387.335 241.534 387.314 243.183 387.265Z" fill="#6C564B"/>
</g>
<path d="M140.632 7.60144L142.065 8.05863L129.736 46.709L128.303 46.2518L140.632 7.60144Z" fill="#514C45"/>
<path d="M135.561 32.1591C137.36 32.1591 138.819 30.7006 138.819 28.9014C138.819 27.1022 137.36 25.6437 135.561 25.6437C133.762 25.6437 132.303 27.1022 132.303 28.9014C132.303 30.7006 133.762 32.1591 135.561 32.1591Z" fill="#006DA2"/>
<path d="M179.111 53.5872C180.91 53.5872 182.368 52.1287 182.368 50.3295C182.368 48.5303 180.91 47.0718 179.111 47.0718C177.312 47.0718 175.853 48.5303 175.853 50.3295C175.853 52.1287 177.312 53.5872 179.111 53.5872Z" fill="#006DA2"/>
<path d="M145.785 25.3587H143.849C143.267 25.3587 142.796 24.887 142.796 24.3052V19.0382C142.796 18.4564 143.267 17.9847 143.849 17.9847H145.785V25.3587Z" fill="black"/>
<path d="M175.296 25.3587H177.232C177.813 25.3587 178.285 24.887 178.285 24.3052V19.0382C178.285 18.4564 177.813 17.9847 177.232 17.9847H175.296V25.3587Z" fill="black"/>
<path d="M145.027 22.3871C145.027 30.9548 151.973 34.0283 160.54 34.0283C169.108 34.0283 176.054 30.9548 176.054 22.3871C176.054 13.8193 169.108 6.51074 160.54 6.51074C151.973 6.51074 145.027 13.8193 145.027 22.3871Z" fill="#99E8FF"/>
<path d="M155.019 32.2896L155.125 40.1819L149.591 40.3108C145.225 40.4126 140.973 38.9051 137.647 36.0753L134.671 33.5442C134.064 33.0277 133.995 32.1146 134.519 31.5134L137.811 27.7334C138.33 27.1372 139.235 27.0747 139.831 27.5939L140.245 27.9543C143.546 30.8293 147.792 32.3863 152.169 32.3278L155.019 32.2896Z" fill="#99E8FF"/>
<path d="M164.393 37.2357L168.622 30.571L173.325 33.4904C177.035 35.7938 179.769 39.3813 181.006 43.5701L182.112 47.3168C182.338 48.0813 181.896 48.8832 181.129 49.1L176.305 50.4634C175.544 50.6784 174.753 50.236 174.538 49.4751L174.389 48.9471C173.198 44.7344 170.496 41.1085 166.799 38.763L164.393 37.2357Z" fill="#99E8FF"/>
<path d="M156.746 65.5291H150.974C150.189 65.5291 149.553 64.8932 149.553 64.1087V48.4921C149.553 47.7078 150.189 47.0718 150.974 47.0718H156.746C157.53 47.0718 158.167 47.7077 158.167 48.4921V64.1087C158.167 64.8932 157.531 65.5291 156.746 65.5291Z" fill="black"/>
<path d="M170.107 65.5291H164.334C163.55 65.5291 162.914 64.8932 162.914 64.1087V48.4921C162.914 47.7078 163.55 47.0718 164.334 47.0718H170.107C170.891 47.0718 171.527 47.7077 171.527 48.4921V64.1087C171.527 64.8932 170.891 65.5291 170.107 65.5291Z" fill="black"/>
<path d="M172.278 53.5208C172.264 53.5633 172.25 53.6075 172.234 53.65C172.231 53.66 172.227 53.6698 172.223 53.6798C171.825 54.7294 170.809 55.4751 169.621 55.4751C168.7 55.4751 152.375 55.4751 151.455 55.4751C150.176 55.4751 149.098 54.6129 148.775 53.4384C148.769 53.4213 148.765 53.4043 148.76 53.3886C148.15 51.2808 148.414 45.9845 149.381 40.7152C149.9 37.8944 150.527 35.1943 151.777 32.5598C151.968 32.1564 152.264 31.7559 152.72 31.6038C152.969 31.5215 153.242 31.52 153.506 31.52C155.721 31.5214 165.358 31.5214 167.574 31.52C167.838 31.52 168.111 31.5214 168.359 31.6038C168.815 31.7559 169.112 32.1563 169.303 32.5598C170.552 35.1945 171.18 37.8945 171.699 40.7152C172.687 46.0982 172.94 51.511 172.278 53.5208Z" fill="#99E8FF"/>
<path d="M150.849 38.9072C145.271 37.4521 138.244 36.203 134.806 31.1842L134.519 31.5134C133.995 32.1146 134.064 33.0277 134.671 33.5442L137.647 36.0753C140.939 38.876 145.137 40.3805 149.456 40.3125C149.431 40.4466 149.406 40.5806 149.381 40.7151C149.168 41.8781 148.988 43.0421 148.845 44.173C149.317 42.4829 150.823 39.0447 150.849 38.9072Z" fill="#62CFF0"/>
<path d="M170.733 34.2954C172.739 33.9194 174.618 34.6212 175.609 35.1745C174.897 34.5566 174.134 33.993 173.325 33.4904L170.738 31.8846C173.995 30.0864 176.054 27.0511 176.054 22.3872C176.054 20.5248 175.725 18.722 175.124 17.0406C174.523 22.9026 171.52 28.1756 165.052 29.6752C159.937 30.8119 154.277 32.6755 149.235 31.1912C149.836 31.6169 150.491 31.9899 151.192 32.3131C150.306 32.2763 149.429 32.1697 148.566 32.0036C154.592 36.1249 161.911 35.8243 170.733 34.2954Z" fill="#62CFF0"/>
<path d="M175.997 47.8218C174.326 44.8308 173.374 43.3771 171.527 41.3887C170.789 45.264 170.542 49.2943 170.003 53.0192C169.831 54.205 168.745 54.7898 166.823 55.2911C168.423 55.4289 169.195 56.0039 169.238 56.3006C169.363 57.1793 169.174 57.8794 168.945 58.7332C168.553 60.2016 165.002 58.683 162.914 59.9864V64.1087C162.914 64.8931 163.55 65.5291 164.334 65.5291H170.107C170.891 65.5291 171.527 64.8932 171.527 64.1087C171.527 64.1087 171.527 54.719 171.527 54.7186C171.527 54.6766 171.719 54.5198 171.753 54.4799C171.827 54.3912 171.896 54.2979 171.959 54.2006C172.096 53.9884 172.198 53.7601 172.278 53.5208C172.797 51.9442 172.753 48.2727 172.233 44.1646C173.176 45.6319 173.906 47.2412 174.388 48.9469L174.538 49.4749C174.753 50.2357 175.544 50.6782 176.305 50.4631L177.865 50.0221C176.916 49.652 176.642 48.7251 175.997 47.8218Z" fill="#62CFF0"/>
<path d="M156.104 59.3598C152.862 58.6568 151.334 59.0673 149.553 60.1883V64.1087C149.553 64.8931 150.189 65.5291 150.974 65.5291H156.746C157.531 65.5291 158.167 64.8932 158.167 64.1087V56.9081C157.851 58.4825 157.299 59.6187 156.104 59.3598Z" fill="#62CFF0"/>
<path d="M146.466 21.1556C146.139 24.9789 147.702 27.9535 150.315 29.3908C153.3 31.0327 157.344 30.2684 160.554 30.2255C163.623 30.1845 167.047 30.7561 170.027 29.633C173.242 28.4219 175.089 24.2945 174.634 21.1557C173.758 15.104 168.33 8.87646 160.554 8.87646C153.325 8.87646 147.065 14.1471 146.466 21.1556Z" fill="#8F6A1D"/>
<path d="M147.622 20.552C147.329 23.9902 148.734 26.6652 151.084 27.9578C153.768 29.4343 157.404 28.7469 160.291 28.7083C163.051 28.6714 166.13 29.1855 168.811 28.1756C171.701 27.0866 173.362 23.3748 172.953 20.5522C172.165 15.11 167.284 9.50989 160.291 9.50989C153.791 9.50961 148.161 14.2494 147.622 20.552Z" fill="#E8B037"/>
<path d="M160.535 18.6034C161.512 17.6723 162.595 16.8186 162.937 15.4368C163.759 12.12 159.866 11.0542 157.336 11.3054C154.466 11.5906 151.914 13.3905 150.466 15.8559C149.476 17.5395 149.018 19.5326 149.187 21.4781C149.297 22.7401 149.684 24.0099 150.492 24.9854C151.172 25.8061 152.183 26.3971 153.259 26.4609C155.151 26.573 156.51 24.0681 157.367 22.7381C158.231 21.3978 159.102 20.0404 160.23 18.9022C160.33 18.8013 160.432 18.7019 160.535 18.6034Z" fill="#F6DB3D"/>
<path d="M171.002 18.8764C170.622 17.6316 169.11 16.4763 168.562 17.4545C167.111 20.1374 164.34 21.413 162.637 23.9032C161.511 25.6374 162.89 27.4893 164.728 27.6961C166.595 28.1252 168.536 27.4131 169.943 26.0937C171.321 24.5519 171.528 22.7143 171.425 20.7373C171.381 20.0637 171.241 19.4104 171.002 18.8764Z" fill="#F6DB3D"/>
<path d="M160.577 12.9031C160.119 12.0267 158.615 11.9824 157.768 12.0356C156.117 12.1392 154.635 12.8611 153.357 13.8814C153.029 14.1428 152.721 14.4242 152.451 14.719C151.27 15.656 150.635 17.772 151.905 18.4068C152.534 18.7214 152.987 18.6696 153.502 18.1667C154.044 17.6368 154.533 17.0506 155.083 16.5235C155.444 16.1777 155.819 15.8369 156.26 15.6015C156.793 15.3171 157.396 15.2002 157.982 15.0546C158.622 14.8957 159.256 14.6967 159.836 14.384C160.266 14.152 160.653 13.8098 160.666 13.2883C160.67 13.146 160.637 13.018 160.577 12.9031Z" fill="#FFFFD1"/>
<path d="M151.357 18.8846C149.446 18.8846 149.443 21.8546 151.357 21.8546C153.268 21.8546 153.272 18.8846 151.357 18.8846Z" fill="#FFFFD1"/>
<path d="M169.391 21.996C168.859 23.5463 167.099 24.1438 166.086 25.032C165.41 25.6241 165.527 26.7757 166.484 26.7132C168.592 26.5973 170.718 24.3779 170.372 22.0023C170.308 21.5642 169.586 21.4262 169.391 21.996Z" fill="#FFFFD1"/>
<path d="M158.619 67.0791H148.948C148.22 67.0791 147.674 66.4018 147.839 65.6924C148.467 62.9903 150.891 60.9757 153.784 60.9757C156.676 60.9757 159.1 62.9903 159.729 65.6924C159.894 66.4019 159.348 67.0791 158.619 67.0791Z" fill="#006DA2"/>
<path d="M172.371 67.0791H162.7C161.972 67.0791 161.426 66.4018 161.591 65.6924C162.219 62.9903 164.643 60.9757 167.536 60.9757C170.428 60.9757 172.852 62.9903 173.481 65.6924C173.646 66.4019 173.1 67.0791 172.371 67.0791Z" fill="#006DA2"/>
<path d="M168.015 44.1958H153.066C152.558 44.1958 152.163 43.7546 152.219 43.2498L152.923 36.8835C152.971 36.4518 153.336 36.125 153.77 36.125H167.311C167.745 36.125 168.11 36.4518 168.158 36.8835L168.862 43.2498C168.918 43.7546 168.523 44.1958 168.015 44.1958Z" fill="#006DA2"/>
<path d="M172.554 49.3464H148.525C148.256 49.3464 148.043 49.1177 148.063 48.8492L148.162 47.5015C148.179 47.2594 148.381 47.072 148.624 47.072H172.455C172.698 47.072 172.9 47.2594 172.918 47.5015L173.016 48.8492C173.036 49.1177 172.823 49.3464 172.554 49.3464Z" fill="#006DA2"/>
<path d="M151.426 31.9301L154.789 32.4423C158.776 33.0498 162.831 33.0498 166.818 32.4425L170.158 31.9337C170.429 31.8925 170.522 32.2821 170.261 32.3656C166.835 33.4632 159.484 35.0843 151.323 32.3624C151.064 32.2762 151.157 31.8889 151.426 31.9301Z" fill="#006DA2"/>
<path d="M137.8 17.2122L124.38 8.50961C124.165 8.36988 124.266 8.03533 124.523 8.03847L140.661 8.23166C140.833 8.23371 140.954 8.40174 140.902 8.5658L138.183 17.0752C138.132 17.2361 137.942 17.3042 137.8 17.2122Z" fill="#FF3333"/>
<path d="M140.661 8.23164L139.462 8.21729C138.831 10.0776 137.883 11.7289 136.362 12.4893C134.901 13.2656 133.278 13.4393 131.621 13.2052L137.8 17.2122C137.941 17.304 138.132 17.2361 138.183 17.0752L140.902 8.56578C140.954 8.40172 140.833 8.23369 140.661 8.23164Z" fill="#D12A2A"/>
<path d="M159.41 39.9639C159.393 41.3367 158.23 42.4746 156.812 42.4746C155.395 42.4746 154.31 41.3367 154.388 39.9639C154.465 38.6242 155.625 37.5616 156.982 37.5616C158.338 37.5618 159.426 38.6244 159.41 39.9639Z" fill="#C2FFF9"/>
<path d="M166.711 38.5623H160.793C160.635 38.5623 160.507 38.4384 160.507 38.2861C160.507 38.1342 160.635 38.0115 160.793 38.0115H166.681C166.838 38.0115 166.973 38.1342 166.982 38.2861C166.99 38.4384 166.869 38.5623 166.711 38.5623Z" fill="black"/>
<path d="M166.897 41.9877H160.795C160.632 41.9877 160.5 41.856 160.5 41.6941C160.5 41.5327 160.632 41.4021 160.795 41.4021H166.866C167.028 41.4021 167.167 41.5327 167.176 41.6941C167.186 41.856 167.061 41.9877 166.897 41.9877Z" fill="black"/>
<path d="M166.803 40.2486H160.794C160.633 40.2486 160.503 40.1209 160.503 39.9639C160.504 39.8074 160.634 39.6808 160.794 39.6808H166.772C166.932 39.6808 167.069 39.8074 167.077 39.9639C167.087 40.121 166.964 40.2486 166.803 40.2486Z" fill="black"/>
<g clip-path="url(#clip2_3264_4480)">
<path d="M212.055 72.4946C211.813 72.3232 211.506 72.6093 211.668 72.8586C213.005 74.9267 215.516 79.8226 211.161 82.4839L212.532 85.0242C213.806 84.2317 216 82.3577 216 79.5269C216 77.1835 214.448 74.1866 212.055 72.4946Z" fill="#F58C46"/>
<path d="M213.638 92.3812C213.077 91.6093 212.774 90.6794 212.774 89.7249V86.1258C212.774 83.1427 210.514 80.6449 207.546 80.3481L194.25 79.0853C193.517 79.0156 192.848 78.6357 192.412 78.0412L191.827 77.2419L191.759 77.1962C192.017 76.3159 191.891 75.2609 191.524 74.5C190.913 73.231 188.722 70.5483 186.524 70.5483H184.793C183.807 70.5483 182.858 70.9247 182.14 71.6004L180.516 73.129L176.474 74.2618C176.151 74.3508 175.949 74.6736 176.011 75.0037L176.256 76.1512C176.361 76.7093 176.817 77.1219 177.371 77.1882L177.507 78.0347C177.6 78.5113 177.944 78.8958 178.408 79.0404C179.36 79.3376 181.097 79.7669 183.015 79.7397C183.327 79.7353 183.591 79.9645 183.606 80.2765C183.65 81.1555 183.804 82.5174 184.287 84.062L184.987 86C185.501 87.2418 186.218 88.7011 187.17 90.3064C190.189 95.4004 190.194 100.226 190.194 100.226L188.326 101.159C187.889 101.378 187.613 101.825 187.613 102.314V102.806C187.613 103.163 187.902 103.452 188.258 103.452H191.587C192.258 103.452 192.817 102.937 192.872 102.268L193.709 92.1693C197.152 93.1208 202.798 92.4531 205.519 91.1363C208.291 95.0203 212.129 95.8171 212.129 95.8171V100.226L209.715 101.192C209.225 101.387 208.903 101.862 208.903 102.39V102.806C208.903 103.163 209.192 103.451 209.549 103.451H212.952C213.591 103.451 214.134 102.983 214.228 102.35L215.316 95.0026C215.341 94.8354 215.299 94.6652 215.2 94.5286L213.638 92.3812Z" fill="#EBA34B"/>
<path d="M184.286 84.062L184.987 86C185.5 87.2418 186.218 88.7011 187.169 90.3064C187.669 91.149 188.079 91.9817 188.427 92.7889C187.92 90.6644 187.128 88.2373 186.685 86.7983C185.718 83.6532 185.987 80.1849 185.919 78.7338C185.839 76.9999 183.742 77.0536 183.151 77.215L177.471 77.8104L177.507 78.0345C177.6 78.5111 177.944 78.8957 178.407 79.0403C179.36 79.3373 181.097 79.7668 183.014 79.7396C183.327 79.7351 183.591 79.9643 183.606 80.2764C183.65 81.1556 183.804 82.5174 184.286 84.062Z" fill="#EBC9A0"/>
<path d="M191.524 74.5C191.112 73.6437 189.98 72.1437 188.612 71.2586C187.64 70.6296 186.334 71.0713 185.939 72.1597L185.933 72.1768C185.757 72.6622 185.819 73.1886 186.045 73.6533C186.851 75.3171 186.512 78.5322 189.105 78.8144C192.017 79.1314 192.311 76.133 191.524 74.5Z" fill="#F58C46"/>
<path d="M183.103 74.4193C182.747 74.4193 182.455 74.1304 182.455 73.7742C182.455 73.4179 182.741 73.129 183.097 73.129H183.103C183.459 73.129 183.748 73.4179 183.748 73.7742C183.748 74.1304 183.459 74.4193 183.103 74.4193Z" fill="#4B3F4E"/>
<path d="M205.519 91.1364C205.179 90.5979 204.914 90.0616 204.727 89.6363C204.516 89.1594 204.003 88.8934 203.494 89.0051C200.453 89.6714 197.254 89.219 195.427 88.833C194.623 88.6634 193.861 89.2487 193.818 90.0689L193.708 92.1694C197.151 93.1208 202.797 92.4532 205.519 91.1364Z" fill="#EBC9A0"/>
<path d="M182.73 76.5218C181.68 76.8028 179.801 77.0375 177.372 77.1962L177.507 78.0347C177.538 78.1936 177.605 78.3362 177.687 78.4691C177.712 78.4673 177.735 78.4661 177.76 78.4645C179.669 78.3324 181.761 78.1166 183.063 77.7682C183.407 77.6762 183.612 77.3226 183.52 76.9785C183.428 76.6337 183.073 76.4283 182.73 76.5218Z" fill="#D99365"/>
<path d="M176.011 75.0037L176.216 75.9659C176.261 75.9707 176.304 75.9784 176.35 75.9784C176.988 75.9784 177.506 75.497 177.506 74.9032C177.506 74.5751 177.344 74.285 177.095 74.0878L176.474 74.2618C176.151 74.3507 175.949 74.6735 176.011 75.0037Z" fill="#4B3F4E"/>
<path d="M184.298 84.7239C184.023 84.7203 183.778 84.5156 183.718 84.2173C183.648 83.8705 183.855 83.528 184.18 83.452C184.225 83.4416 188.748 82.3472 192.58 78.0833C192.811 77.8269 193.192 77.8176 193.433 78.0631C193.673 78.3089 193.681 78.716 193.45 78.9728C189.351 83.534 184.632 84.6638 184.433 84.7095C184.388 84.7198 184.343 84.7245 184.298 84.7239Z" fill="#6E4848"/>
<path d="M184.065 87.1075C183.53 87.1075 183.097 86.6742 183.097 86.1397V85.4946C183.097 84.9601 183.53 84.5269 184.065 84.5269C184.599 84.5269 185.032 84.9601 185.032 85.4946V86.1397C185.032 86.6742 184.599 87.1075 184.065 87.1075Z" fill="#F58C46"/>
</g>
<g clip-path="url(#clip3_3264_4480)">
<path d="M256.073 80.1878C255.917 72.7499 251.898 68.9677 249.496 67.3667C249.155 67.1397 248.763 67.5653 249.011 67.891C251.684 71.4045 252.594 75.4158 252.707 79.0111L252.636 79.443L253.151 80.729L253.611 80.8957L255.925 81.3037L256.276 81.0538L256.388 80.4193L256.073 80.1878Z" fill="#00C02C"/>
<path d="M254.334 80.5793L254.413 80.1071C254.29 76.2174 253.313 71.8824 250.459 68.0703C250.12 67.7999 249.795 67.5663 249.496 67.3667C249.155 67.1397 248.763 67.5653 249.011 67.891C251.684 71.4045 252.594 75.4158 252.707 79.0111L252.636 79.443L253.151 80.729L253.611 80.8957L254.526 81.057L254.334 80.5793Z" fill="#07A408"/>
<path d="M258.055 71.7233C258.921 65.6152 256.739 62.1752 256.717 62.1412C256.494 61.798 256.589 61.3376 256.932 61.1131C257.274 60.8886 257.733 60.9817 257.959 61.3234C258.062 61.4796 260.478 65.2261 259.527 71.9319C259.47 72.3383 259.093 72.6212 258.687 72.5635C258.282 72.5064 257.997 72.1311 258.055 71.7233Z" fill="#00C02C"/>
<path d="M265.076 60.2499C264.33 60.1242 263.558 59.9013 262.854 59.6483C260.817 62.893 257.37 69.8332 255.924 81.3034L259.235 81.8873L259.491 81.7756L259.887 80.8139L259.718 80.5594C260.497 74.5404 262.037 66.8274 265.076 60.2499Z" fill="#4BDC11"/>
<path d="M264.302 60.088C263.808 59.9669 263.317 59.8144 262.854 59.6483C260.817 62.8929 257.37 69.8331 255.924 81.3034L257.55 81.5901C259.048 70.9024 262.11 63.9339 264.302 60.088Z" fill="#00C02C"/>
<path d="M240.209 59.6976C241.081 53.5442 238.895 50.1512 238.872 50.1176C238.646 49.7753 238.74 49.3141 239.082 49.0877C239.425 48.8612 239.886 48.9552 240.112 49.2976C240.216 49.4538 242.631 53.2003 241.681 59.9062C241.623 60.3126 241.247 60.5955 240.841 60.5378C240.436 60.4807 240.151 60.1054 240.209 59.6976Z" fill="#00C02C"/>
<path d="M238.651 68.2216L238.301 67.6472C236.972 62.1304 233.603 59.0763 231.417 57.619C231.031 57.362 230.587 57.8438 230.867 58.2126C235.753 64.6337 235.439 72.524 234.521 77.5295L237.435 78.0434L237.989 77.112L238.651 68.2216Z" fill="#00C02C"/>
<path d="M232.967 58.7963C232.417 58.3237 231.889 57.9338 231.417 57.619C231.031 57.362 230.587 57.8438 230.867 58.2126C235.753 64.6337 235.439 72.524 234.521 77.5295L236.437 77.8674C237.344 72.9255 237.661 65.172 232.967 58.7963Z" fill="#07A408"/>
<path d="M247.23 48.2241L247.114 47.9386L245.189 47.4105L245.008 47.6224C242.496 51.623 237.841 61.2413 237.435 78.0432L240.001 78.4956L240.713 78.0702L242.278 69.1966L241.872 68.5335C242.651 62.5147 244.19 54.8016 247.23 48.2241Z" fill="#4BDC11"/>
<path d="M246.631 47.806L245.189 47.4105L245.008 47.6224C242.496 51.623 237.841 61.2413 237.435 78.0432L239.231 78.3599C239.676 61.8525 244.054 52.1391 246.631 47.806Z" fill="#00C02C"/>
<path d="M250.09 80.2748L253.611 80.8955C252.147 77.3649 249.947 75.0033 248.31 73.6187C247.894 73.2673 247.311 73.7701 247.589 74.2379C248.763 76.2115 249.568 78.245 250.09 80.2748Z" fill="#4BDC11"/>
<path d="M249.25 74.4715C248.923 74.1544 248.607 73.8702 248.31 73.6187C247.894 73.2673 247.311 73.7701 247.589 74.2379C248.763 76.2115 249.568 78.245 250.091 80.2748L251.782 80.5731C251.26 78.5433 250.455 76.5098 249.281 74.5362C249.268 74.5147 249.259 74.4931 249.25 74.4715Z" fill="#00C02C"/>
<path d="M262.596 82.4799C263.83 78.6766 266.139 74.4503 270.46 71.6729C270.804 71.4516 270.581 70.9175 270.183 71.0143C267.238 71.7313 261.796 74.0978 259.233 81.8868L262.596 82.4798L262.596 82.4799Z" fill="#00C02C"/>
<path d="M270.523 71.622C270.771 71.3797 270.553 70.9243 270.183 71.0144C267.238 71.7314 261.796 74.0979 259.233 81.8869L260.746 82.1536C262.998 75.3097 267.473 72.6524 270.523 71.622Z" fill="#07A408"/>
<path d="M252.337 58.9886C248.503 59.922 240.438 63.6488 240.001 78.4957L243.34 79.0845C243.34 79.0845 243.035 65.8042 252.613 59.6473C252.958 59.4259 252.734 58.8919 252.337 58.9886Z" fill="#00C02C"/>
<path d="M252.651 59.6178C252.938 59.3825 252.718 58.8957 252.337 58.9886C248.503 59.922 240.438 63.6488 240.001 78.4957L241.538 78.7668C241.933 65.3585 248.549 61.0202 252.651 59.6178Z" fill="#07A408"/>
<path d="M263.609 83.4132L230.059 77.4975C229.655 77.4262 229.385 77.0407 229.456 76.6364C229.528 76.2321 229.913 75.9622 230.317 76.0334L263.867 81.9491C264.271 82.0204 264.541 82.4059 264.47 82.8103C264.399 83.2147 264.013 83.4845 263.609 83.4132Z" fill="#4BDC11"/>
<path d="M252.552 30.8003C252.338 30.588 251.999 30.5687 251.764 30.7579C251.493 30.9768 250.991 31.2654 250.064 31.5586C249.314 31.7963 248.97 32.2588 248.828 32.7312L248.853 33.1478L250.611 36.4981L253.989 34.4393L254.037 34.1671C254.28 32.757 253.205 31.4483 252.552 30.8003Z" fill="#740BAE"/>
<path d="M249.618 34.3868C249.775 33.8663 250.153 33.3569 250.98 33.0951C252 32.772 252.554 32.4541 252.853 32.213C253.077 32.0321 253.387 32.0247 253.619 32.1786C253.301 31.6028 252.875 31.1206 252.552 30.8002C252.338 30.5879 251.999 30.5686 251.764 30.7578C251.493 30.9766 250.991 31.2653 250.064 31.5585C249.314 31.7961 248.97 32.2587 248.828 32.731L248.853 33.1477L249.633 34.6342L249.618 34.3868Z" fill="#670A9A"/>
<path d="M255.471 36.7003L254.919 36.9389L250.593 40.4034L250.217 42.5377L250.68 42.8357C251.248 44.0293 252.579 45.6132 255.825 45.4289C260.537 45.1613 262.463 46.1174 263.421 43.9672C264.719 41.0565 260.462 34.5255 255.471 36.7003Z" fill="#740BAE"/>
<path d="M256.207 43.0746C253.132 42.3708 252.252 40.5692 252.007 39.2711L250.593 40.4034L250.217 42.5377L250.681 42.8357C251.248 44.0293 252.579 45.6132 255.825 45.4289C260.184 45.1813 262.158 45.9791 263.188 44.3977C261.828 45.1402 260.094 43.9643 256.207 43.0746Z" fill="#670A9A"/>
<path d="M258.969 40.5536C258.055 39.1118 256.225 38.7185 254.958 38.6283L254.727 38.7416L253.241 40.321L253.24 40.578C255.301 42.7256 257.746 41.8358 258.754 41.3171C259.034 41.173 259.137 40.8194 258.969 40.5536Z" fill="#FFCA2B"/>
<path d="M258.66 40.143C257.521 40.5534 255.745 40.7994 254.145 39.36L253.241 40.3209L253.24 40.5779C255.301 42.7256 257.746 41.8358 258.754 41.3171C259.034 41.173 259.137 40.8194 258.969 40.5535C258.875 40.4057 258.771 40.2695 258.66 40.143Z" fill="#FFA000"/>
<path d="M250.805 45.6623C250.512 43.4274 250.739 41.6327 250.936 40.6457L250.854 40.3733L250.33 39.7023L248.597 39.9753L247.098 38.9185L242.06 38.8101L241.798 39.0234C240.346 39.6565 238.829 40.7184 238.359 42.4638C237.327 46.299 240.941 45.6586 243.181 46.8321C245.42 48.0058 251.376 50.0183 250.805 45.6623Z" fill="#8839B4"/>
<path d="M240.715 43.7323C241.306 41.3955 242.943 39.8561 244.588 38.8644L242.06 38.8101L241.798 39.0235C240.346 39.6565 238.828 40.7185 238.359 42.4638C237.706 44.8904 238.913 45.5252 240.455 45.9615C240.411 45.3668 240.487 44.6376 240.715 43.7323Z" fill="#740BAE"/>
<path d="M248.708 40.1081L246.936 38.9821L245.385 39.1698L245.192 39.3947C244.479 40.0274 243.861 41.0218 243.708 42.5853C243.665 43.0234 244.015 43.3986 244.455 43.4015C245.722 43.41 248.155 43.0472 248.911 40.2704L248.708 40.1081Z" fill="#FFCA2B"/>
<path d="M245.616 42.4185C245.769 40.855 246.387 39.8606 247.1 39.2279L247.179 39.1361L246.936 38.9821L245.385 39.1698L245.192 39.3947C244.479 40.0274 243.861 41.0218 243.708 42.5853C243.665 43.0234 244.015 43.3986 244.455 43.4015C244.899 43.4045 245.488 43.3612 246.097 43.1843C245.792 43.0681 245.582 42.7632 245.616 42.4185Z" fill="#FFA000"/>
<path d="M247.389 34.1267L246.966 32.1023L246.803 31.8368C246.205 31.3227 245.294 30.8247 244.146 31.0727C242.01 31.5343 242.48 34.2551 240.474 35.5721C238.508 36.8628 240.244 40.304 246.898 39.2023L247.107 38.7935L247.389 34.1267Z" fill="#740BAE"/>
<path d="M242.558 36.3451C244.565 35.0281 244.094 32.3073 246.23 31.8457C246.406 31.8078 246.575 31.7892 246.739 31.7835C246.141 31.2892 245.254 30.8332 244.146 31.0726C242.009 31.5342 242.48 34.2551 240.474 35.572C238.995 36.5425 239.611 38.729 242.836 39.2855C241.515 38.3881 241.488 37.0479 242.558 36.3451Z" fill="#670A9A"/>
<path d="M250.777 36.4138L250.659 36.1877C250.547 35.555 250.374 35.005 250.173 34.5346C249.62 33.2421 248.522 32.2616 247.192 31.8073C246.797 31.6724 246.42 32.0561 246.567 32.4469C246.699 32.8005 246.837 33.259 246.956 33.845C247.335 35.7097 245.555 37.8125 247.041 39.3679C248.526 40.9233 250.231 40.0046 250.231 40.0046L250.372 39.7557L250.777 36.4138Z" fill="#9132C2"/>
<path d="M248.719 39.6638C247.234 38.1084 249.013 36.0056 248.634 34.1409C248.515 33.555 248.377 33.0964 248.245 32.7428C248.189 32.5941 248.209 32.4467 248.277 32.3283C247.94 32.1146 247.576 31.9383 247.192 31.8073C246.797 31.6724 246.42 32.0561 246.567 32.4469C246.699 32.8005 246.837 33.259 246.956 33.845C247.335 35.7097 245.555 37.8125 247.041 39.3679C247.896 40.2628 248.822 40.3383 249.456 40.2415C249.21 40.1046 248.962 39.9177 248.719 39.6638Z" fill="#8839B4"/>
<path d="M256.234 34.0762C254.539 33.9569 251.325 34.138 250.249 37.0094C250.016 37.6295 249.896 38.1587 249.858 38.6103C249.711 40.3752 251.665 41.5435 253.176 40.6186C254 40.114 254.943 39.2588 255.144 37.9277C255.356 36.524 256.03 35.5125 256.57 34.9025C256.845 34.5928 256.647 34.1053 256.234 34.0762Z" fill="#8839B4"/>
<path d="M251.703 39.2777C251.741 38.8262 251.861 38.297 252.094 37.6768C252.915 35.4861 254.98 34.8619 256.666 34.7418C256.775 34.4477 256.581 34.1005 256.234 34.0761C254.539 33.9568 251.325 34.1379 250.249 37.0092C250.016 37.6294 249.896 38.1586 249.858 38.6102C249.739 40.0404 251 41.0785 252.286 40.9287C251.887 40.5139 251.648 39.9376 251.703 39.2777Z" fill="#740BAE"/>
<path d="M269.405 42.7515C269.191 42.5392 268.852 42.5199 268.618 42.7091C268.346 42.9279 267.844 43.2166 266.917 43.5098C266.167 43.7474 265.823 44.21 265.682 44.6823L265.706 45.099L267.464 48.4491L270.842 46.3903L270.89 46.1181C271.133 44.7082 270.058 43.3995 269.405 42.7515Z" fill="#740BAE"/>
<path d="M266.471 46.3381C266.628 45.8176 267.006 45.3082 267.833 45.0464C268.853 44.7233 269.407 44.4054 269.706 44.1643C269.93 43.9834 270.24 43.976 270.472 44.1299C270.153 43.5541 269.728 43.0719 269.405 42.7515C269.191 42.5392 268.852 42.5199 268.617 42.7091C268.346 42.9279 267.844 43.2166 266.917 43.5098C266.167 43.7474 265.823 44.21 265.681 44.6823L265.706 45.099L266.486 46.5855L266.471 46.3381Z" fill="#670A9A"/>
<path d="M272.324 48.6515L271.772 48.8901L267.446 52.3546L267.07 54.4889L267.534 54.7869C268.101 55.9805 269.432 57.5645 272.678 57.3801C277.39 57.1125 279.316 58.0686 280.275 55.9184C281.572 53.0078 277.315 46.4767 272.324 48.6515Z" fill="#740BAE"/>
<path d="M273.06 55.0259C269.985 54.322 269.104 52.5204 268.86 51.2224L267.446 52.3546L267.07 54.4889L267.533 54.7869C268.101 55.9805 269.432 57.5645 272.678 57.3801C277.037 57.1326 279.011 57.9304 280.041 56.3489C278.681 57.0915 276.947 55.9157 273.06 55.0259Z" fill="#670A9A"/>
<path d="M275.822 52.5048C274.908 51.063 273.078 50.6697 271.811 50.5795L271.58 50.6929L270.094 52.2722L270.093 52.5292C272.154 54.6768 274.599 53.7871 275.607 53.2683C275.887 53.1243 275.99 52.7707 275.822 52.5048Z" fill="#FFCA2B"/>
<path d="M275.513 52.0943C274.374 52.5046 272.598 52.7506 270.998 51.3113L270.094 52.2722L270.093 52.5292C272.154 54.6768 274.599 53.787 275.607 53.2683C275.887 53.1243 275.99 52.7707 275.822 52.5048C275.728 52.357 275.624 52.2208 275.513 52.0943Z" fill="#FFA000"/>
<path d="M267.658 57.6135C267.365 55.3785 267.592 53.5838 267.789 52.5969L267.707 52.3245L267.183 51.6535L265.45 51.9265L263.951 50.8696L258.913 50.7612L258.651 50.9746C257.199 51.6077 255.681 52.6696 255.212 54.415C254.18 58.2502 257.794 57.6098 260.034 58.7833C262.273 59.9569 268.229 61.9695 267.658 57.6135Z" fill="#8839B4"/>
<path d="M257.568 55.6836C258.159 53.3469 259.796 51.8075 261.441 50.8158L258.913 50.7614L258.651 50.9748C257.199 51.6079 255.682 52.6698 255.212 54.4152C254.559 56.8418 255.766 57.4766 257.308 57.9128C257.264 57.318 257.34 56.5889 257.568 55.6836Z" fill="#740BAE"/>
<path d="M265.561 52.0593L263.789 50.9334L262.238 51.1211L262.045 51.346C261.332 51.9786 260.714 52.973 260.561 54.5365C260.518 54.9746 260.868 55.3498 261.308 55.3528C262.575 55.3612 265.008 54.9985 265.764 52.2216L265.561 52.0593Z" fill="#FFCA2B"/>
<path d="M262.469 54.3697C262.622 52.8063 263.24 51.8118 263.953 51.1792L264.032 51.0874L263.789 50.9334L262.238 51.1211L262.045 51.346C261.332 51.9786 260.714 52.973 260.561 54.5365C260.518 54.9746 260.868 55.3498 261.308 55.3528C261.752 55.3557 262.341 55.3124 262.95 55.1355C262.645 55.0193 262.435 54.7144 262.469 54.3697Z" fill="#FFA000"/>
<path d="M264.242 46.0779L263.819 44.0535L263.656 43.788C263.058 43.2739 262.147 42.7758 260.999 43.0239C258.862 43.4855 259.333 46.2063 257.327 47.5233C255.361 48.8139 257.097 52.2552 263.751 51.1535L263.96 50.7447L264.242 46.0779Z" fill="#740BAE"/>
<path d="M259.411 48.2965C261.418 46.9795 260.947 44.2587 263.083 43.7971C263.259 43.7592 263.428 43.7406 263.592 43.7349C262.994 43.2406 262.107 42.7846 260.999 43.024C258.863 43.4856 259.333 46.2065 257.327 47.5234C255.849 48.4939 256.464 50.6804 259.689 51.2369C258.368 50.3394 258.341 48.9992 259.411 48.2965Z" fill="#670A9A"/>
<path d="M267.63 48.365L267.512 48.1389C267.399 47.5062 267.227 46.9562 267.025 46.4857C266.473 45.1933 265.375 44.2127 264.045 43.7585C263.65 43.6236 263.273 44.0073 263.419 44.3981C263.552 44.7516 263.689 45.2102 263.809 45.7962C264.188 47.6609 262.408 49.7637 263.894 51.3191C265.379 52.8745 267.084 51.9557 267.084 51.9557L267.225 51.7068L267.63 48.365Z" fill="#9132C2"/>
<path d="M265.572 51.6151C264.087 50.0597 265.866 47.9569 265.487 46.0922C265.368 45.5063 265.23 45.0476 265.098 44.6941C265.042 44.5454 265.062 44.398 265.13 44.2796C264.792 44.0659 264.429 43.8896 264.045 43.7586C263.65 43.6237 263.273 44.0074 263.419 44.3982C263.552 44.7518 263.689 45.2103 263.809 45.7963C264.188 47.661 262.408 49.7638 263.894 51.3192C264.749 52.2141 265.675 52.2896 266.308 52.1928C266.063 52.0559 265.814 51.869 265.572 51.6151Z" fill="#8839B4"/>
<path d="M273.087 46.0274C271.392 45.9081 268.178 46.0892 267.102 48.9605C266.869 49.5806 266.749 50.1099 266.711 50.5614C266.564 52.3263 268.518 53.4946 270.029 52.5698C270.853 52.0652 271.796 51.21 271.997 49.8788C272.209 48.4751 272.883 47.4637 273.423 46.8537C273.698 46.544 273.5 46.0565 273.087 46.0274Z" fill="#8839B4"/>
<path d="M268.556 51.229C268.594 50.7774 268.714 50.2483 268.947 49.6281C269.768 47.4374 271.833 46.8132 273.519 46.6931C273.628 46.399 273.434 46.0518 273.087 46.0274C271.392 45.9081 268.178 46.0892 267.102 48.9605C266.869 49.5807 266.749 50.1099 266.711 50.5614C266.592 51.9917 267.853 53.0298 269.139 52.88C268.74 52.4651 268.501 51.8888 268.556 51.229Z" fill="#740BAE"/>
</g>
<defs>
<clipPath id="clip0_3264_4480">
<rect width="80" height="80" fill="white" transform="translate(39.0103 21.7158) rotate(-15)"/>
</clipPath>
<clipPath id="clip1_3264_4480">
<rect width="354" height="354" fill="white" transform="translate(0 50)"/>
</clipPath>
<clipPath id="clip2_3264_4480">
<rect width="40" height="40" fill="white" transform="translate(176 67)"/>
</clipPath>
<clipPath id="clip3_3264_4480">
<rect width="50" height="50" fill="white" transform="translate(235.34 27.6572) rotate(10)"/>
</clipPath>
</defs>
</svg>
