<svg xmlns="http://www.w3.org/2000/svg" version="1.1" xmlns:xlink="http://www.w3.org/1999/xlink" xmlns:svgjs="http://svgjs.com/svgjs" width="512" height="512" x="0" y="0" viewBox="0 0 510 510" style="enable-background:new 0 0 512 512" xml:space="preserve"><defs><linearGradient xmlns="http://www.w3.org/2000/svg" id="SVGID_1_" gradientUnits="userSpaceOnUse" x1="-8.26" x2="508.137" y1="255" y2="255"><stop offset="0" stop-color="#fbc56d"></stop><stop offset=".445" stop-color="#fe9738"></stop><stop offset=".5378" stop-color="#fe8c39"></stop><stop offset=".7008" stop-color="#fd6f39"></stop><stop offset=".9133" stop-color="#fb403a"></stop><stop offset=".9984" stop-color="#fb2b3a"></stop></linearGradient><linearGradient xmlns="http://www.w3.org/2000/svg" id="SVGID_2_" gradientUnits="userSpaceOnUse" x1="-180" x2="411.021" xmlns:xlink="http://www.w3.org/1999/xlink" xlink:href="#lg1" y1="260.421" y2="260.421"></linearGradient><linearGradient xmlns="http://www.w3.org/2000/svg" id="SVGID_3_" gradientUnits="userSpaceOnUse" x1="-180" x2="411.021" xmlns:xlink="http://www.w3.org/1999/xlink" xlink:href="#lg1" y1="255" y2="255"></linearGradient><linearGradient xmlns="http://www.w3.org/2000/svg" id="SVGID_4_" gradientUnits="userSpaceOnUse" x1="-180" x2="411.021" xmlns:xlink="http://www.w3.org/1999/xlink" xlink:href="#lg1" y1="367.336" y2="367.336"></linearGradient></defs><g><linearGradient xmlns="http://www.w3.org/2000/svg" id="SVGID_1_" gradientUnits="userSpaceOnUse" x1="-8.26" x2="508.137" y1="255" y2="255"><stop offset="0" stop-color="#fbc56d"></stop><stop offset=".445" stop-color="#fe9738"></stop><stop offset=".5378" stop-color="#fe8c39"></stop><stop offset=".7008" stop-color="#fd6f39"></stop><stop offset=".9133" stop-color="#fb403a"></stop><stop offset=".9984" stop-color="#fb2b3a"></stop></linearGradient><linearGradient xmlns="http://www.w3.org/2000/svg" id="lg1"><stop offset="0" stop-color="#fbc56d"></stop><stop offset=".5841" stop-color="#fe9738"></stop><stop offset=".9984" stop-color="#fb2b3a"></stop></linearGradient><linearGradient xmlns="http://www.w3.org/2000/svg" id="SVGID_2_" gradientUnits="userSpaceOnUse" x1="-180" x2="411.021" xmlns:xlink="http://www.w3.org/1999/xlink" xlink:href="#lg1" y1="260.421" y2="260.421"></linearGradient><linearGradient xmlns="http://www.w3.org/2000/svg" id="SVGID_3_" gradientUnits="userSpaceOnUse" x1="-180" x2="411.021" xmlns:xlink="http://www.w3.org/1999/xlink" xlink:href="#lg1" y1="255" y2="255"></linearGradient><linearGradient xmlns="http://www.w3.org/2000/svg" id="SVGID_4_" gradientUnits="userSpaceOnUse" x1="-180" x2="411.021" xmlns:xlink="http://www.w3.org/1999/xlink" xlink:href="#lg1" y1="367.336" y2="367.336"></linearGradient><g xmlns="http://www.w3.org/2000/svg"><g><circle cx="255" cy="255" fill="url(&quot;#SVGID_1_&quot;)" r="255" data-original="url(#SVGID_1_)"></circle><g><path d="m340.033 260.421c0-14.389-11.665-26.054-26.053-26.054s-26.053 11.665-26.053 26.054 11.665 26.053 26.053 26.053 26.053-11.664 26.053-26.053z" fill="url(&quot;#SVGID_2_&quot;)" data-original="url(#SVGID_2_)"></path><path d="m255 0c-6.73 0-13.41.27-20.01.78.004.021-.003-.016.001.005 8.322.445 10.359 11.835 2.809 15.115-2.94 1.28-5.97 2.38-9.07 3.29-9.91 2.91-19.03 7.73-26.91 14.09-7.89 6.36-14.54 14.26-19.48 23.32l-2.63 4.83c-9.89 18.13-26.58 31.58-46.39 37.41l-2.87.84c-19.81 5.83-36.5 19.28-46.38 37.41l-14.28 26.17c-2.66 4.88 3.44 9.8 7.65 6.18 6.44-5.54 13.43-10.37 20.85-14.41s15.27-7.29 23.42-9.69l49.46-14.54c15.37-4.52 28.32-14.96 35.99-29.03 3.84-7.03 8.99-13.15 15.11-18.09 6.11-4.93 13.19-8.67 20.88-10.93l48.45-14.25c15.3-4.73 24.73-12.9 30.3-19.75 5.25-6.47 14.44-8.21 21.63-4.01.11.07.23.13.34.2 9.62 5.64 11.4 18.79 3.51 26.68l-28.221 28.221c-7.033 7.033-17.736 8.507-26.631 4.056-5.746-2.875-12.305-4.365-19.24-4.032-20.016.961-36.203 17.426-36.849 37.454-.123 3.816.306 7.514 1.213 11.018 3.703 14.311-5.903 28.665-20.42 31.449-5.557 1.066-11.242 1.61-16.984 1.604-24.151-.028-47.217 10.06-64.294 27.137l-20.329 20.329c-16.875 16.874-39.761 26.354-63.625 26.354h-51.79c-.13 3.25-.21 6.51-.21 9.79 0 18.89 2.07 37.28 5.97 55h24.63c25.227 0 49.422-10.021 67.26-27.86l1.78-1.78c17.839-17.839 42.033-27.86 67.26-27.86h56.699c25.228 0 49.422-10.021 67.26-27.86l18.49-18.49c25.15-27.15 70.96-30.01 72.93-30.3 45.38-6.62 86.92 29.05 87.67 74.9.02 1.42.03 2.83.03 4.25v.448c-.035 20.302-13.004 38.24-32.089 45.164-5.934 2.153-11.906 5.34-17.557 9.546-18.36 13.666-27.407 33.674-23.041 48.327 1.611 5.407-.637 11.229-5.669 13.78-.344.175-.68.331-1.004.465-13.78 5.71-26.46 14.11-37.21 24.86l-11.82 11.82c-21.616 21.616-50.968 33.472-81.538 33.591-30.248.118-59.238 12.185-80.643 33.589l-16.33 16.33c22.6 8.73 46.74 14.35 71.91 16.3h.02c6.6.51 13.26.78 19.99.78 140.83 0 255-114.17 255-255s-114.168-255-254.998-255zm158.94 154.65c-14.39 0-26.06-11.66-26.06-26.05s11.67-26.05 26.06-26.05 26.05 11.66 26.05 26.05-11.66 26.05-26.05 26.05z" fill="url(&quot;#SVGID_3_&quot;)" data-original="url(#SVGID_3_)"></path><path d="m206.236 372.508c14.6-14.6 34.403-22.803 55.051-22.803h3c20.648 0 40.451-8.203 55.051-22.803l21.076-21.076c3.929-3.929-.529-10.375-5.592-8.085-15.481 7.004-32.278 10.626-49.27 10.626h-51.557c-16.021 0-31.385 6.364-42.714 17.693s-26.693 17.693-42.714 17.693h-50.5c-16.021 0-31.385 6.364-42.714 17.693l-21.165 21.165c11.69 20.183 26.073 38.607 42.648 54.799l15.405-15.405c14.6-14.601 34.403-22.803 55.052-22.803 20.648 0 40.451-8.202 55.051-22.803z" fill="url(&quot;#SVGID_4_&quot;)" data-original="url(#SVGID_4_)"></path></g></g></g></g></svg>