<svg width="80" height="80" viewBox="0 0 80 80" fill="none" xmlns="http://www.w3.org/2000/svg">
<g clip-path="url(#clip0_234_925)">
<path d="M58.7938 6.182L40.006 1.172L21.2182 6.182L13.703 18.7073L21.2182 26.2225H58.7938L66.3089 18.7073L58.7938 6.182Z" fill="#8CB4EB"/>
<path d="M64.6718 63.4637L51.4709 59.581C49.8717 59.1107 48.7736 57.6431 48.7736 55.9762V51.2726H31.2382V55.9762C31.2382 57.6431 30.1401 59.1107 28.5409 59.581L15.34 63.4637C12.1417 64.4043 9.94543 67.3396 9.94543 70.6734V78.8281H70.0664V70.6734C70.0664 67.3396 67.8701 64.4043 64.6718 63.4637Z" fill="#B67F5F"/>
<path d="M64.6717 63.4637L51.4708 59.581C50.6355 59.3354 49.9425 58.8137 49.4656 58.1375L39.9933 61.2928L30.5438 58.1409C30.067 58.8154 29.3748 59.3357 28.5408 59.581L15.3398 63.4637C12.1416 64.4043 9.94531 67.3396 9.94531 70.6734V78.8281H70.0663V70.6734C70.0664 67.3396 67.8702 64.4043 64.6717 63.4637Z" fill="#8CB4EB"/>
<path d="M42.0275 68.2433L37.963 68.3824L36.7159 78.8281H43.2959L42.0275 68.2433Z" fill="#64505A"/>
<path d="M31.2383 55.3202C33.8697 56.7259 36.8539 57.5352 40.0059 57.5352C43.158 57.5352 46.1422 56.7259 48.7736 55.3202V51.2726H31.2383V55.3202Z" fill="#A06E50"/>
<path d="M58.1675 32.485H56.2886V19.9598H23.7231V32.485H21.8444C20.115 32.485 18.7131 33.8869 18.7131 35.6162C18.7131 37.3456 20.115 38.7475 21.8444 38.7475H23.7864C24.428 47.153 31.4361 53.7778 40.0059 53.7778C48.5758 53.7778 55.5839 47.1531 56.2255 38.7475H58.1675C59.8969 38.7475 61.2988 37.3455 61.2988 35.6162C61.2988 33.8869 59.8969 32.485 58.1675 32.485Z" fill="#CD916E"/>
<path d="M40.006 33.7374C45.9872 33.7374 51.9799 32.8471 56.2888 30.9769V19.9596H23.7232V32.4847H21.9543C20.5282 32.4847 19.1965 33.3885 18.8269 34.7657C18.2682 36.8488 19.8454 38.7472 21.8444 38.7472H23.7865C24.428 47.1527 31.4362 53.7776 40.006 53.7776C40.8629 53.7776 41.6982 53.6941 42.519 53.5665C34.7149 52.3621 28.7333 45.6362 28.7333 37.4947V37.0247C28.7333 34.7488 30.7347 33.0188 32.9926 33.3057C35.2608 33.5943 37.6324 33.7374 40.006 33.7374Z" fill="#B67F5F"/>
<path d="M24.0375 32.7619L21.2181 33.1184V23.7172H26.2283V30.2767C26.2281 31.5387 25.2894 32.6036 24.0375 32.7619Z" fill="#5A4650"/>
<path d="M55.9744 32.7619L58.7937 33.1184V23.7172H53.7836V30.2767C53.7836 31.5387 54.7223 32.6036 55.9744 32.7619Z" fill="#5A4650"/>
<path d="M40.006 29.9799C29.6297 29.9799 21.2181 27.176 21.2181 23.7173H58.7938C58.7938 27.1759 50.382 29.9799 40.006 29.9799Z" fill="#6E5A64"/>
<path d="M57.5413 16.2023H22.4706C21.7789 16.2023 21.2181 16.7631 21.2181 17.4548V23.7174H58.7938V17.4548C58.7938 16.7629 58.233 16.2023 57.5413 16.2023Z" fill="#739BD7"/>
<path d="M22.8018 61.2691C22.9193 61.7193 23.0761 62.1198 23.2857 62.4862L27.2114 69.3563C28.1011 70.9133 29.7686 71.8808 31.5633 71.8808C32.7571 71.8808 33.9144 71.4526 34.8218 70.6746L39.9935 66.2418L45.1652 70.6746C46.0727 71.4524 47.23 71.8808 48.4238 71.8808C50.2182 71.8808 51.8858 70.9135 52.7757 69.3562L56.7013 62.4866C56.9111 62.1194 57.0685 61.7166 57.1864 61.2621L51.4711 59.5812C50.6357 59.3355 49.9429 58.8138 49.466 58.1376L39.9936 61.2929L30.5441 58.141C30.0674 58.8155 29.3752 59.3359 28.5411 59.5812L22.8018 61.2691Z" fill="#739BD7"/>
<path d="M40.7011 68.9724H39.3108C38.1333 68.9724 37.0922 68.1852 36.7405 67.0287L34.996 61.2927H45.0161L43.2716 67.0287C42.9197 68.1852 41.8786 68.9724 40.7011 68.9724Z" fill="#5A4650"/>
<path d="M28.1358 56.2003L26.5154 59.4407C26.3281 59.8153 26.3404 60.2587 26.5483 60.6223L30.4739 67.492C30.864 68.1748 31.7795 68.3332 32.3765 67.8215L39.9934 61.2928L29.8643 55.6654C29.2409 55.3192 28.4547 55.5625 28.1358 56.2003Z" fill="#8CB4EB"/>
<path d="M51.8511 56.2002C51.5322 55.5624 50.7459 55.3191 50.1225 55.6655L39.9933 61.2929L47.6102 67.8216C48.2072 68.3334 49.1227 68.1748 49.5128 67.4921L53.4384 60.6224C53.6463 60.2588 53.6586 59.8154 53.4713 59.4408L51.8511 56.2002Z" fill="#8CB4EB"/>
<path d="M40.0059 17.4548C37.9306 17.4548 36.2484 15.7725 36.2484 13.6973V8.68701H43.7636V13.6972C43.7634 15.7725 42.0811 17.4548 40.0059 17.4548Z" fill="#FFE17D"/>
<path d="M40.0059 17.4548C37.9306 17.4548 36.2484 15.7725 36.2484 13.6973V8.68701H40.0059V17.4548Z" fill="#FFD164"/>
<path d="M64.9962 62.3394L54.7268 59.3191L52.9054 55.6763C52.6112 55.0878 52.082 54.6388 51.4535 54.4444C50.9581 54.2911 50.4248 54.3056 49.9392 54.4744V51.8424C53.854 49.1247 56.6099 44.8483 57.2984 39.9194H57.9949C60.279 39.9194 62.2379 38.2224 62.4549 36.0557C62.5765 34.8414 62.1793 33.6291 61.3652 32.7296C60.9713 32.2943 60.4954 31.9496 59.972 31.7088V26.7077L67.1438 19.5359C67.5241 19.1555 67.5966 18.5654 67.3201 18.1043L59.8049 5.57916C59.6484 5.31807 59.3962 5.12823 59.102 5.04979L40.314 0.0394872C40.1161 -0.0133252 39.9079 -0.0133252 39.7101 0.0394872L20.9223 5.04979C20.6281 5.12823 20.3761 5.31807 20.2194 5.57916L12.7042 18.1043C12.4275 18.5654 12.5002 19.1557 12.8805 19.5359L20.0523 26.7077V31.761C18.7039 32.404 17.7197 33.6775 17.5695 35.1763C17.4478 36.3905 17.8449 37.603 18.6589 38.5027C19.4736 39.403 20.6369 39.9194 21.8505 39.9194H22.7252C23.4117 44.8394 26.1573 49.1088 30.06 51.827V54.4744C29.5744 54.3058 29.0412 54.2911 28.5456 54.4444C27.9172 54.6388 27.3878 55.0878 27.0937 55.6763L25.2723 59.3191L15.003 62.3394C11.3314 63.4194 8.76721 66.8464 8.76721 70.6734V78.8281C8.76721 79.4753 9.2919 79.9999 9.93908 79.9999C10.5863 79.9999 11.111 79.4753 11.111 78.8281V70.6736C11.111 69.5195 11.431 68.4156 11.9949 67.4612L18.6997 73.2081C19.5516 73.9382 20.04 75.0004 20.04 76.1223V78.8279C20.04 79.4751 20.5647 79.9998 21.2119 79.9998C21.8591 79.9998 22.3837 79.4751 22.3837 78.8279V76.1221C22.3837 74.3153 21.5969 72.6045 20.225 71.4284L13.5352 65.6942C14.157 65.2014 14.8753 64.8198 15.6645 64.5876L25.7723 61.6148L29.4628 68.0731C29.8228 68.7031 30.4392 69.1353 31.1542 69.259C31.2931 69.2831 31.4323 69.295 31.5708 69.295C32.1445 69.295 32.7019 69.0914 33.1458 68.7109L35.5525 66.6481L35.8248 67.4653C36.0312 68.0845 36.3922 68.6181 36.8539 69.0339L35.1022 78.6168C34.9858 79.2535 35.4076 79.8639 36.0442 79.9804C36.1154 79.9934 36.1864 79.9998 36.2562 79.9998C36.8112 79.9998 37.3043 79.6039 37.4076 79.0384L39.0654 69.9697C39.1475 69.9751 39.2298 69.9795 39.3129 69.9795H40.712C40.7979 69.9795 40.8831 69.9751 40.9679 69.9693L42.6171 79.0375C42.7201 79.6034 43.2132 79.9999 43.7687 79.9999C43.8382 79.9999 43.9089 79.9937 43.9798 79.9807C44.6167 79.865 45.0389 79.2548 44.9231 78.6181L43.1789 69.0272C43.637 68.6123 43.9951 68.0812 44.2004 67.4653L44.4673 66.6648L46.8545 68.7111C47.2982 69.0915 47.8557 69.2951 48.4295 69.2951C48.5678 69.2951 48.7071 69.2833 48.846 69.2592C49.561 69.1354 50.1774 68.7031 50.5374 68.0733L54.2279 61.615L64.3357 64.5878C65.1249 64.82 65.8432 65.2014 66.4651 65.6944L59.7752 71.4286C58.4032 72.6045 57.6165 74.3153 57.6165 76.1223V78.8279C57.6165 79.4751 58.1412 79.9998 58.7884 79.9998C59.4356 79.9998 59.9602 79.4751 59.9602 78.8279V76.1221C59.9602 75.0003 60.4487 73.9381 61.3005 73.2079L68.0054 67.4611C68.5691 68.4154 68.8893 69.5192 68.8893 70.6734V78.8279C68.8893 79.4751 69.414 79.9998 70.0612 79.9998C70.7083 79.9998 71.233 79.4751 71.233 78.8279V70.6734C71.2319 66.8462 68.6677 63.4192 64.9962 62.3394ZM25.0625 28.7824V29.9797C25.0625 30.7149 24.4644 31.3129 23.7294 31.3129H22.3962V27.3891C23.0827 27.8658 23.9562 28.3361 25.0625 28.7824ZM27.0978 27.034C25.5928 26.5324 23.9127 25.7516 23.025 24.8893H56.9993C56.1118 25.7516 54.4315 26.5324 52.9267 27.034C49.4945 28.178 44.9081 28.808 40.0123 28.808C35.1165 28.808 30.53 28.178 27.0978 27.034ZM54.9617 28.7824C56.0681 28.336 56.9417 27.866 57.6281 27.3891V31.3129H56.2948C55.5596 31.3129 54.9617 30.7147 54.9617 29.9797V28.7824ZM21.985 7.19182L40.0122 2.38464L58.0393 7.19182L64.8394 18.5254L59.9718 23.393V17.4546C59.9718 16.1177 58.8843 15.0302 57.5474 15.0302H56.2954C55.6482 15.0302 55.1235 15.5549 55.1235 16.2021C55.1235 16.8493 55.6482 17.374 56.2954 17.374H57.5474C57.592 17.374 57.6281 17.4101 57.6281 17.4546V22.5454H22.3962V17.4546C22.3962 17.4101 22.4323 17.374 22.4769 17.374H36.7336C37.6054 18.1523 38.7542 18.6265 40.0122 18.6265C41.2701 18.6265 42.4189 18.1523 43.2907 17.374H51.2848C51.932 17.374 52.4567 16.8493 52.4567 16.2021C52.4567 15.5549 51.932 15.0302 51.2848 15.0302H44.7568C44.8762 14.6059 44.9415 14.1591 44.9415 13.6971V8.68697C44.9415 8.03978 44.4168 7.5151 43.7696 7.5151H36.2545C35.6073 7.5151 35.0826 8.03978 35.0826 8.68697V13.697C35.0826 14.159 35.1479 14.6057 35.2673 15.0301H22.4769C21.14 15.0301 20.0525 16.1176 20.0525 17.4545V23.393L15.1849 18.5254L21.985 7.19182ZM42.5978 13.6971C42.5978 15.1229 41.4379 16.2827 40.0122 16.2827C38.5864 16.2827 37.4265 15.1229 37.4265 13.6971V9.85884H42.5979V13.697H42.5978V13.6971ZM24.9012 37.495C24.9012 36.8479 24.3766 36.3232 23.7294 36.3232C23.0822 36.3232 22.5575 36.8479 22.5575 37.495V37.5757H21.8506C21.298 37.5757 20.7683 37.3404 20.397 36.9302C20.0209 36.5146 19.8452 35.9747 19.9017 35.41C20.0002 34.4269 20.9348 33.6569 22.0297 33.6569H23.7294C25.7569 33.6569 27.4062 32.0074 27.4062 29.9801V29.5805C30.924 30.5961 35.3465 31.1518 40.0122 31.1518C44.6776 31.1518 49.1001 30.596 52.6179 29.5805V29.9799C52.6179 32.0074 54.2674 33.6569 56.2948 33.6569H58.1735C58.7262 33.6569 59.2559 33.8921 59.6271 34.3022C60.0031 34.7177 60.179 35.2575 60.1224 35.8224C60.024 36.8055 59.0893 37.5758 57.9946 37.5758H57.466V37.5072C57.466 36.8602 56.9417 36.3355 56.2946 36.3354C56.2945 36.3354 56.2943 36.3354 56.2941 36.3354C55.6473 36.3354 55.1227 36.8594 55.1223 37.5064C55.116 45.8324 48.3378 52.6061 40.012 52.6061C31.68 52.6056 24.9012 45.8269 24.9012 37.495ZM31.62 66.9318C31.6114 66.9392 31.5917 66.9568 31.5537 66.9501C31.5162 66.9436 31.5026 66.9197 31.4975 66.9106L27.5506 60.0034L29.1901 56.7244C29.1939 56.7167 29.2056 56.6936 29.2386 56.6834C29.2715 56.6731 29.294 56.6858 29.3014 56.69L37.9583 61.4994L31.62 66.9318ZM41.9764 66.7243C41.7946 67.2695 41.2864 67.6359 40.7117 67.6359H39.3126C38.7379 67.6359 38.2295 67.2695 38.0478 66.7243L37.4734 65.0014L39.9995 62.8361L42.545 65.018L41.9764 66.7243ZM48.5017 66.9104C48.4965 66.9195 48.4828 66.9434 48.4454 66.95C48.4078 66.9568 48.3879 66.9392 48.3792 66.9317L42.0411 61.4991L43.0742 60.9251C43.64 60.6108 43.8437 59.8973 43.5295 59.3316C43.2153 58.7659 42.5018 58.562 41.9359 58.8762L39.9995 59.952L32.4037 55.7322V53.2017C34.7045 54.3208 37.2861 54.9494 40.012 54.9494C42.7276 54.9494 45.3004 54.3247 47.5953 53.2127V55.7322L46.2007 56.507C45.635 56.8214 45.4312 57.5348 45.7454 58.1006C46.0598 58.6666 46.7732 58.8703 47.339 58.5559L50.6979 56.6898C50.7053 56.6858 50.7279 56.6731 50.7607 56.6833C50.7937 56.6934 50.8053 56.7166 50.8092 56.7242L52.4487 60.0033L48.5017 66.9104Z" fill="black"/>
<path d="M32.4971 32.5656C31.8499 32.5656 31.3252 33.0902 31.3252 33.7374V34.9899C31.3252 35.6371 31.8499 36.1618 32.4971 36.1618C33.1443 36.1618 33.6689 35.6371 33.6689 34.9899V33.7374C33.6689 33.0901 33.1443 32.5656 32.4971 32.5656Z" fill="black"/>
<path d="M47.5272 36.1619C48.1744 36.1619 48.6991 35.6372 48.6991 34.99V33.7375C48.6991 33.0904 48.1744 32.5657 47.5272 32.5657C46.88 32.5657 46.3553 33.0904 46.3553 33.7375V34.99C46.3553 35.6372 46.88 36.1619 47.5272 36.1619Z" fill="black"/>
<path d="M43.6891 43.7574C43.6891 43.1103 43.1644 42.5856 42.5172 42.5856H37.5072C36.86 42.5856 36.3353 43.1103 36.3353 43.7574C36.3353 44.4046 36.86 44.9293 37.5072 44.9293H42.5172C43.1644 44.9293 43.6891 44.4046 43.6891 43.7574Z" fill="black"/>
</g>
<defs>
<clipPath id="clip0_234_925">
<rect width="80" height="80" fill="white"/>
</clipPath>
</defs>
</svg>
