<svg xmlns="http://www.w3.org/2000/svg" version="1.1" xmlns:xlink="http://www.w3.org/1999/xlink" xmlns:svgjs="http://svgjs.com/svgjs" width="512" height="512" x="0" y="0" viewBox="0 0 512.001 512.001" style="enable-background:new 0 0 512 512" xml:space="preserve"><g>
<polygon xmlns="http://www.w3.org/2000/svg" style="" points="376.28,39.565 256.038,7.501 135.796,39.565 87.699,119.727 135.796,167.824 376.28,167.824   424.377,119.727 " fill="#8CB4EB" data-original="#8cb4eb"></polygon>
<path xmlns="http://www.w3.org/2000/svg" style="" d="M413.9,406.168l-84.486-24.849c-10.235-3.01-17.263-12.403-17.263-23.071v-30.103H199.925v30.103  c0,10.668-7.028,20.061-17.263,23.071l-84.486,24.849c-20.469,6.02-34.525,24.806-34.525,46.142v52.19h384.774v-52.19  C448.425,430.974,434.369,412.188,413.9,406.168z" fill="#B67F5F" data-original="#b67f5f"></path>
<path xmlns="http://www.w3.org/2000/svg" style="" d="M413.899,406.168l-84.486-24.849c-5.346-1.572-9.781-4.911-12.833-9.239l-60.623,20.194  l-60.477-20.172c-3.051,4.317-7.481,7.647-12.819,9.217l-84.486,24.849c-20.469,6.02-34.525,24.806-34.525,46.142v52.19h384.774  v-52.19C448.425,430.974,434.369,412.188,413.899,406.168z" fill="#8CB4EB" data-original="#8cb4eb"></path>
<polygon xmlns="http://www.w3.org/2000/svg" style="" points="268.976,436.757 242.963,437.647 234.982,504.5 277.094,504.5 " fill="#64505A" data-original="#64505a"></polygon>
<path xmlns="http://www.w3.org/2000/svg" style="" d="M199.925,354.05c16.841,8.996,35.94,14.176,56.113,14.176s39.272-5.18,56.113-14.176v-25.905H199.925  V354.05z" fill="#A06E50" data-original="#a06e50"></path>
<path xmlns="http://www.w3.org/2000/svg" style="" d="M372.272,207.904h-12.025v-80.161H151.828v80.161h-12.024c-11.068,0-20.04,8.972-20.04,20.04  s8.972,20.04,20.04,20.04h12.429c4.106,53.795,48.958,96.194,103.805,96.194s99.699-42.398,103.805-96.194h12.429  c11.068,0,20.04-8.973,20.04-20.04C392.312,216.876,383.34,207.904,372.272,207.904z" fill="#CD916E" data-original="#cd916e"></path>
<path xmlns="http://www.w3.org/2000/svg" style="" d="M256.038,215.92c38.28,0,76.633-5.698,104.21-17.667v-70.511h-208.42v80.161h-11.321  c-9.127,0-17.65,5.784-20.015,14.598c-3.576,13.332,6.518,25.482,19.312,25.482h12.429c4.106,53.795,48.958,96.194,103.805,96.194  c5.484,0,10.83-0.534,16.083-1.351c-49.946-7.708-88.228-50.754-88.228-102.859v-3.008c0-14.566,12.809-25.638,27.259-23.802  C225.669,215.004,240.847,215.92,256.038,215.92z" fill="#B67F5F" data-original="#b67f5f"></path>
<g xmlns="http://www.w3.org/2000/svg">
	<path style="" d="M153.84,209.676l-18.044,2.282V151.79h32.065v41.981C167.86,201.848,161.852,208.663,153.84,209.676   z" fill="#5A4650" data-original="#5a4650"></path>
	<path style="" d="M358.236,209.676l18.044,2.282V151.79h-32.065v41.981   C344.215,201.848,350.223,208.663,358.236,209.676z" fill="#5A4650" data-original="#5a4650"></path>
</g>
<path xmlns="http://www.w3.org/2000/svg" style="" d="M256.038,191.872c-66.408,0-120.242-17.945-120.242-40.081H376.28  C376.28,173.926,322.445,191.872,256.038,191.872z" fill="#6E5A64" data-original="#6e5a64"></path>
<g xmlns="http://www.w3.org/2000/svg">
	<path style="" d="M368.264,103.695H143.812c-4.427,0-8.016,3.589-8.016,8.016v40.081H376.28v-40.081   C376.28,107.283,372.691,103.695,368.264,103.695z" fill="#739BD7" data-original="#739bd7"></path>
	<path style="" d="M145.931,392.123c0.752,2.881,1.756,5.444,3.097,7.789l25.125,43.969   c5.694,9.965,16.366,16.157,27.852,16.157c7.64,0,15.047-2.741,20.854-7.72l33.099-28.37l33.099,28.37   c5.808,4.978,13.215,7.72,20.855,7.72c11.484,0,22.157-6.191,27.852-16.158l25.124-43.965c1.343-2.35,2.35-4.928,3.105-7.837   l-36.578-10.758c-5.347-1.572-9.781-4.911-12.833-9.239l-60.623,20.194l-60.477-20.172c-3.051,4.317-7.481,7.647-12.819,9.217   L145.931,392.123z" fill="#739BD7" data-original="#739bd7"></path>
</g>
<path xmlns="http://www.w3.org/2000/svg" style="" d="M260.487,441.424h-8.898c-7.536,0-14.199-5.038-16.45-12.44l-11.165-36.71h64.129l-11.165,36.71  C274.686,436.386,268.023,441.424,260.487,441.424z" fill="#5A4650" data-original="#5a4650"></path>
<g xmlns="http://www.w3.org/2000/svg">
	<path style="" d="M180.069,359.682l-10.37,20.739c-1.199,2.397-1.12,5.235,0.21,7.562l25.124,43.966   c2.497,4.37,8.356,5.384,12.177,2.109l48.748-41.784l-64.826-36.015C187.142,354.043,182.11,355.6,180.069,359.682z" fill="#8CB4EB" data-original="#8cb4eb"></path>
	<path style="" d="M331.847,359.682c-2.041-4.082-7.073-5.639-11.063-3.422l-64.827,36.015l48.748,41.784   c3.821,3.275,9.68,2.26,12.177-2.109l25.124-43.966c1.33-2.327,1.409-5.165,0.21-7.562L331.847,359.682z" fill="#8CB4EB" data-original="#8cb4eb"></path>
</g>
<path xmlns="http://www.w3.org/2000/svg" style="" d="M256.038,111.711L256.038,111.711c-13.282,0-24.048-10.767-24.048-24.048V55.597h48.097v32.065  C280.086,100.944,269.319,111.711,256.038,111.711z" fill="#FFE17D" data-original="#ffe17d"></path>
<path xmlns="http://www.w3.org/2000/svg" style="" d="M256.038,111.711L256.038,111.711c-13.282,0-24.048-10.767-24.048-24.048V55.597h24.048V111.711z" fill="#FFD164" data-original="#ffd164"></path>
<path xmlns="http://www.w3.org/2000/svg" d="M415.976,398.973l-65.724-19.33l-11.657-23.314c-1.883-3.766-5.27-6.64-9.292-7.884c-3.171-0.981-6.584-0.888-9.692,0.192  v-16.845c25.055-17.393,42.693-44.762,47.099-76.307h4.458c14.618,0,27.155-10.861,28.544-24.728  c0.778-7.771-1.764-15.53-6.974-21.287c-2.521-2.786-5.567-4.992-8.917-6.533V170.93l45.9-45.9c2.434-2.434,2.898-6.211,1.128-9.162  l-48.097-80.161c-1.002-1.671-2.616-2.886-4.499-3.388L258.01,0.253c-1.267-0.338-2.599-0.338-3.865,0L133.903,32.319  c-1.883,0.502-3.496,1.717-4.499,3.388l-48.097,80.161c-1.771,2.951-1.306,6.729,1.128,9.162l45.9,45.9v32.341  c-8.63,4.115-14.929,12.266-15.89,21.858c-0.779,7.771,1.762,15.531,6.972,21.289c5.214,5.762,12.659,9.067,20.426,9.067h5.598  c4.394,31.488,21.966,58.812,46.943,76.209v16.943c-3.108-1.079-6.52-1.173-9.692-0.192c-4.022,1.244-7.41,4.118-9.292,7.884  l-11.657,23.314l-65.724,19.33c-23.498,6.912-39.909,28.845-39.909,53.338v52.19c0,4.142,3.358,7.5,7.5,7.5s7.5-3.358,7.5-7.5  v-52.189c0-7.386,2.048-14.451,5.657-20.559l42.911,36.78c5.452,4.673,8.578,11.471,8.578,18.651V504.5c0,4.142,3.358,7.5,7.5,7.5  s7.5-3.358,7.5-7.5v-17.317c0-11.564-5.036-22.513-13.816-30.04l-42.815-36.699c3.98-3.154,8.577-5.596,13.628-7.082l64.69-19.026  l23.619,41.333c2.304,4.032,6.249,6.798,10.825,7.59c0.889,0.154,1.78,0.23,2.666,0.23c3.672,0,7.239-1.303,10.08-3.738l0,0  l15.403-13.202l1.743,5.23c1.321,3.963,3.631,7.378,6.586,10.039l-11.211,61.331c-0.745,4.075,1.955,7.981,6.029,8.727  c0.456,0.083,0.91,0.124,1.357,0.124c3.552,0,6.708-2.534,7.369-6.153l10.61-58.04c0.525,0.035,1.052,0.063,1.584,0.063h8.954  c0.55,0,1.095-0.028,1.638-0.065l10.555,58.036c0.659,3.622,3.815,6.16,7.37,6.16c0.445,0,0.897-0.04,1.351-0.123  c4.076-0.741,6.778-4.646,6.037-8.721l-11.163-61.382c2.932-2.655,5.224-6.054,6.538-9.996l1.708-5.123l15.278,13.096  c2.84,2.435,6.408,3.738,10.08,3.738c0.885,0,1.777-0.076,2.666-0.23c4.576-0.792,8.521-3.559,10.825-7.59l23.619-41.333  l64.69,19.026c5.051,1.486,9.648,3.927,13.628,7.082l-42.815,36.699c-8.781,7.526-13.816,18.475-13.816,30.04V504.5  c0,4.142,3.358,7.5,7.5,7.5s7.5-3.358,7.5-7.5v-17.317c0-7.18,3.126-13.978,8.578-18.651l42.911-36.78  c3.608,6.108,5.657,13.172,5.657,20.559V504.5c0,4.142,3.358,7.5,7.5,7.5s7.5-3.358,7.5-7.5v-52.189  C455.885,427.817,439.474,405.884,415.976,398.973z M160.4,184.208v7.663c0,4.705-3.828,8.532-8.532,8.532h-8.532v-25.112  C147.729,178.342,153.32,181.352,160.4,184.208z M173.426,173.018c-9.632-3.21-20.385-8.207-26.066-13.726h217.436  c-5.68,5.519-16.434,10.516-26.065,13.726c-21.966,7.322-51.319,11.354-82.652,11.354S195.392,180.34,173.426,173.018z   M351.755,184.208c7.081-2.857,12.672-5.865,17.065-8.917v25.112h-8.533c-4.705,0-8.532-3.828-8.532-8.532V184.208z M140.704,46.028  l115.374-30.766l115.374,30.766l43.521,72.535l-31.153,31.153V111.71c0-8.556-6.96-15.516-15.516-15.516h-8.013  c-4.142,0-7.5,3.358-7.5,7.5s3.358,7.5,7.5,7.5h8.013c0.285,0,0.516,0.231,0.516,0.516v32.581H143.336V111.71  c0-0.285,0.231-0.516,0.516-0.516h91.243c5.58,4.981,12.932,8.016,20.983,8.016c8.051,0,15.403-3.035,20.983-8.016h51.162  c4.142,0,7.5-3.358,7.5-7.5s-3.358-7.5-7.5-7.5h-41.779c0.764-2.716,1.182-5.575,1.182-8.532V55.597c0-4.142-3.358-7.5-7.5-7.5  h-48.097c-4.142,0-7.5,3.358-7.5,7.5v32.064c0,2.957,0.418,5.816,1.182,8.532h-81.859c-8.556,0-15.516,6.96-15.516,15.516v38.007  l-31.153-31.153L140.704,46.028z M272.626,87.662c0,9.125-7.423,16.548-16.548,16.548s-16.548-7.423-16.548-16.548V63.097h33.097  v24.564H272.626z M159.368,239.969c0-4.142-3.358-7.5-7.5-7.5s-7.5,3.358-7.5,7.5v0.516h-4.524c-3.537,0-6.927-1.506-9.303-4.131  c-2.407-2.66-3.532-6.115-3.17-9.729c0.63-6.292,6.612-11.22,13.619-11.22h10.878c12.976,0,23.532-10.557,23.532-23.532v-2.557  c22.514,6.5,50.818,10.056,80.678,10.056c29.859,0,58.163-3.557,80.677-10.056v2.556c0,12.976,10.557,23.533,23.532,23.533h12.024  c3.537,0,6.927,1.505,9.303,4.13c2.406,2.659,3.532,6.114,3.17,9.729c-0.63,6.292-6.612,11.222-13.618,11.222h-3.383v-0.439  c0-4.141-3.356-7.499-7.497-7.5c-0.001,0-0.002,0-0.003,0c-4.14,0-7.497,3.354-7.5,7.495c-0.04,53.286-43.421,96.638-96.706,96.638  C202.752,336.677,159.368,293.293,159.368,239.969z M202.368,428.365L202.368,428.365c-0.055,0.047-0.181,0.16-0.424,0.117  c-0.24-0.042-0.327-0.195-0.36-0.253l-25.26-44.206l10.493-20.986c0.024-0.049,0.099-0.197,0.31-0.262  c0.211-0.066,0.355,0.015,0.402,0.042l55.404,30.78L202.368,428.365z M268.649,427.037c-1.163,3.489-4.416,5.834-8.094,5.834h-8.954  c-3.678,0-6.932-2.345-8.095-5.834l-3.676-11.027l16.167-13.858l16.291,13.964L268.649,427.037z M310.411,428.228  c-0.033,0.058-0.121,0.211-0.36,0.253c-0.241,0.044-0.368-0.069-0.424-0.117l-40.564-34.769l6.612-3.673  c3.621-2.012,4.925-6.578,2.914-10.199c-2.011-3.62-6.577-4.925-10.199-2.914l-12.393,6.885l-48.613-27.007v-16.195  c14.725,7.162,31.247,11.185,48.693,11.185c17.38,0,33.846-3.998,48.533-11.115v16.125l-8.925,4.959  c-3.621,2.012-4.925,6.578-2.914,10.199c2.012,3.622,6.578,4.926,10.199,2.914l21.497-11.943c0.047-0.026,0.192-0.107,0.402-0.042  c0.211,0.065,0.285,0.213,0.31,0.262l10.493,20.986L310.411,428.228z" fill="#000000" data-original="#000000" style=""></path>
<path xmlns="http://www.w3.org/2000/svg" d="M207.981,208.42c-4.142,0-7.5,3.358-7.5,7.5v8.016c0,4.142,3.358,7.5,7.5,7.5s7.5-3.358,7.5-7.5v-8.016  C215.481,211.777,212.123,208.42,207.981,208.42z" fill="#000000" data-original="#000000" style=""></path>
<path xmlns="http://www.w3.org/2000/svg" d="M304.174,231.437c4.142,0,7.5-3.358,7.5-7.5v-8.016c0-4.142-3.358-7.5-7.5-7.5s-7.5,3.358-7.5,7.5v8.016  C296.674,228.079,300.032,231.437,304.174,231.437z" fill="#000000" data-original="#000000" style=""></path>
<path xmlns="http://www.w3.org/2000/svg" d="M279.61,280.048c0-4.142-3.358-7.5-7.5-7.5h-32.064c-4.142,0-7.5,3.358-7.5,7.5s3.358,7.5,7.5,7.5h32.064  C276.252,287.548,279.61,284.19,279.61,280.048z" fill="#000000" data-original="#000000" style=""></path>
<g xmlns="http://www.w3.org/2000/svg">
</g>
<g xmlns="http://www.w3.org/2000/svg">
</g>
<g xmlns="http://www.w3.org/2000/svg">
</g>
<g xmlns="http://www.w3.org/2000/svg">
</g>
<g xmlns="http://www.w3.org/2000/svg">
</g>
<g xmlns="http://www.w3.org/2000/svg">
</g>
<g xmlns="http://www.w3.org/2000/svg">
</g>
<g xmlns="http://www.w3.org/2000/svg">
</g>
<g xmlns="http://www.w3.org/2000/svg">
</g>
<g xmlns="http://www.w3.org/2000/svg">
</g>
<g xmlns="http://www.w3.org/2000/svg">
</g>
<g xmlns="http://www.w3.org/2000/svg">
</g>
<g xmlns="http://www.w3.org/2000/svg">
</g>
<g xmlns="http://www.w3.org/2000/svg">
</g>
<g xmlns="http://www.w3.org/2000/svg">
</g>
</g></svg>