<svg xmlns="http://www.w3.org/2000/svg" version="1.1" xmlns:xlink="http://www.w3.org/1999/xlink" xmlns:svgjs="http://svgjs.com/svgjs" width="512" height="512" x="0" y="0" viewBox="0 0 512 512" style="enable-background:new 0 0 512 512" xml:space="preserve" class=""><g><g xmlns="http://www.w3.org/2000/svg"><g><path d="m324 128s3 38 32 58c0 0-29 42-100 42s-100-42-100-42c29-20 32-58 32-58z" fill="#243254" data-original="#6e83b7" style="" class=""></path></g><g><path d="m353.524 232.087-67.524-18.087h-60l-67.524 18.087c-26.234 7.027-44.476 30.799-44.476 57.957v55.956h52v156h180v-156h52v-55.956c0-27.158-18.242-50.93-44.476-57.957z" fill="#FF1A08" data-original="#ffb0aa" style="" class=""></path></g><g><path d="m286 214h-60l-39.205 10.501c5.13 34.135 34.343 59.499 69.205 59.499s64.075-25.364 69.205-59.499z" fill="#EDEFF1" data-original="#edeff1" style="" class=""></path></g><g><path d="m286 214v-31h-60v31l-19.719 5.282c2.648 25.096 23.933 44.718 49.719 44.718s47.071-19.622 49.719-44.718z" fill="#FFD3B3" data-original="#ffd3b3" style="" class=""></path></g><g><path d="m324 90h-8v38h8c5.523 0 10-4.477 10-10v-18c0-5.523-4.477-10-10-10z" fill="#FFD3B3" data-original="#ffd3b3" style="" class=""></path></g><g><path d="m188 90h8v38h-8c-5.523 0-10-4.477-10-10v-18c0-5.523 4.477-10 10-10z" fill="#FFD3B3" data-original="#ffd3b3" style="" class=""></path></g><g><path d="m226 199.631c9.177 4.082 19.323 6.369 30 6.369s20.823-2.288 30-6.369v-16.631h-60z" fill="#FCB98B" data-original="#fcb98b" style="" class=""></path></g><g><path d="m316 132.107c0 33.078-26.922 59.893-60 59.893s-60-26.815-60-59.893v-60.107h120z" fill="#FFD3B3" data-original="#ffd3b3" style="" class=""></path></g><g><path d="m188 70v20h8v38l3.745-10.948c5.536-16.18 20.745-27.052 37.847-27.052h27.952c4.774 0 9.352-1.896 12.728-5.272l4.728-4.728 7.435 7.435c1.703 1.703 3.619 3.18 5.699 4.394 5.725 3.34 10.082 8.599 12.299 14.845l7.567 21.326v-38h8v-23c0-22.091-17.909-40-40-40h-1c0-9.389-7.611-17-17-17h-18c-33.137 0-60 26.863-60 60z" fill="#243254" data-original="#6e83b7" style="" class=""></path></g><g><path d="m346 346h52v20h-52z" fill="#EDEFF1" data-original="#edeff1" style="" class=""></path></g><g><path d="m346 366h52v74.761c0 12.231-7.425 23.237-18.766 27.817l-33.234 13.422z" fill="#FFD3B3" data-original="#ffd3b3" style="" class=""></path></g><g><path d="m166 366h-52v74.761c0 12.231 7.425 23.237 18.766 27.817l33.234 13.422z" fill="#FFD3B3" data-original="#ffd3b3" style="" class=""></path></g><g><path d="m114 346h52v20h-52z" fill="#EDEFF1" transform="matrix(-1 0 0 -1 280 712)" data-original="#edeff1" style="" class=""></path></g><g><path d="m156 332h200v140h-200z" fill="#243254" data-original="#6e83b7" style="" class=""></path></g><g><path d="m146 472h220v30h-220z" fill="#466089" data-original="#466089" style="" class=""></path></g><g><path d="m346 10v130h22v30l40-30h94v-130z" fill="#EDEFF1" data-original="#edeff1" style="" class=""></path></g><g><g><g><path d="m390.257 105.243-30.242-30.243 30.242-30.243 8.486 8.486-21.758 21.757 21.758 21.757z" fill="#243254" data-original="#6e83b7" style="" class=""></path></g><g><path d="m457.743 105.243-8.486-8.486 21.758-21.757-21.758-21.757 8.486-8.486 30.242 30.243z" fill="#243254" data-original="#6e83b7" style="" class=""></path></g><g><path d="m381.574 69h84.853v12h-84.853z" fill="#243254" transform="matrix(.272 -.962 .962 .272 236.581 462.653)" data-original="#6e83b7" style="" class=""></path></g></g></g><g><circle cx="256" cy="402" fill="#466089" r="20" data-original="#466089" style="" class=""></circle></g></g></g></svg>