<svg width="80" height="80" viewBox="0 0 80 80" fill="none" xmlns="http://www.w3.org/2000/svg">
<path d="M50.625 20C50.625 20 51.0938 25.9375 55.625 29.0625C55.625 29.0625 51.0938 35.625 40 35.625C28.9062 35.625 24.375 29.0625 24.375 29.0625C28.9062 25.9375 29.375 20 29.375 20H50.625Z" fill="#243254"/>
<path d="M55.2381 36.2636L44.6875 33.4375H35.3125L24.7619 36.2636C20.6628 37.3616 17.8125 41.0759 17.8125 45.3194V54.0625H25.9375V78.4375H54.0625V54.0625H62.1875V45.3194C62.1875 41.0759 59.3372 37.3616 55.2381 36.2636Z" fill="#FF1A08"/>
<path d="M44.6874 33.4375H35.3124L29.1866 35.0783C29.9882 40.4119 34.5527 44.375 39.9999 44.375C45.4471 44.375 50.0117 40.4119 50.8132 35.0783L44.6874 33.4375Z" fill="#EDEFF1"/>
<path d="M44.6875 33.4375V28.5938H35.3125V33.4375L32.2314 34.2628C32.6452 38.1841 35.971 41.25 40 41.25C44.0291 41.25 47.3549 38.1841 47.7686 34.2628L44.6875 33.4375Z" fill="#FFD3B3"/>
<path d="M50.625 14.0625H49.375V20H50.625C51.488 20 52.1875 19.3005 52.1875 18.4375V15.625C52.1875 14.762 51.488 14.0625 50.625 14.0625Z" fill="#FFD3B3"/>
<path d="M29.375 14.0625H30.625V20H29.375C28.512 20 27.8125 19.3005 27.8125 18.4375V15.625C27.8125 14.762 28.512 14.0625 29.375 14.0625Z" fill="#FFD3B3"/>
<path d="M35.3125 31.1923C36.7464 31.8302 38.3317 32.1875 40 32.1875C41.6683 32.1875 43.2536 31.83 44.6875 31.1923V28.5938H35.3125V31.1923Z" fill="#FCB98B"/>
<path d="M49.375 20.6417C49.375 25.8102 45.1684 30 40 30C34.8316 30 30.625 25.8102 30.625 20.6417V11.25H49.375V20.6417Z" fill="#FFD3B3"/>
<path d="M29.375 10.9375V14.0625H30.625V20L31.2102 18.2894C32.0752 15.7613 34.4516 14.0625 37.1237 14.0625H41.4913C42.2372 14.0625 42.9525 13.7662 43.48 13.2387L44.2188 12.5L45.3805 13.6617C45.6466 13.9278 45.9459 14.1586 46.2709 14.3483C47.1655 14.8702 47.8463 15.6919 48.1927 16.6678L49.375 20V14.0625H50.625V10.4688C50.625 7.01703 47.8267 4.21875 44.375 4.21875H44.2188C44.2188 2.75172 43.0295 1.5625 41.5625 1.5625H38.75C33.5723 1.5625 29.375 5.75984 29.375 10.9375Z" fill="#243254"/>
<path d="M54.0625 54.0625H62.1875V57.1875H54.0625V54.0625Z" fill="#EDEFF1"/>
<path d="M54.0625 57.1875H62.1875V68.8689C62.1875 70.78 61.0273 72.4997 59.2553 73.2153L54.0625 75.3125V57.1875Z" fill="#FFD3B3"/>
<path d="M25.9375 57.1875H17.8125V68.8689C17.8125 70.78 18.9727 72.4997 20.7447 73.2153L25.9375 75.3125V57.1875Z" fill="#FFD3B3"/>
<path d="M25.9375 57.1875H17.8125V54.0625H25.9375V57.1875Z" fill="#EDEFF1"/>
<path d="M24.375 51.875H55.625V73.75H24.375V51.875Z" fill="#243254"/>
<path d="M22.8125 73.75H57.1875V78.4375H22.8125V73.75Z" fill="#466089"/>
<path d="M54.0625 1.5625V21.875H57.5V26.5625L63.75 21.875H78.4375V1.5625H54.0625Z" fill="#EDEFF1"/>
<path d="M60.9776 16.4442L56.2523 11.7187L60.9776 6.99323L62.3036 8.31916L58.9039 11.7187L62.3036 15.1182L60.9776 16.4442Z" fill="#243254"/>
<path d="M71.5224 16.4442L70.1964 15.1182L73.5961 11.7187L70.1964 8.31916L71.5224 6.99323L76.2477 11.7187L71.5224 16.4442Z" fill="#243254"/>
<path d="M63.5542 17.8667L67.1605 5.11223L68.9642 5.62223L65.3579 18.3767L63.5542 17.8667Z" fill="#243254"/>
<path d="M40 65.9375C41.7259 65.9375 43.125 64.5384 43.125 62.8125C43.125 61.0866 41.7259 59.6875 40 59.6875C38.2741 59.6875 36.875 61.0866 36.875 62.8125C36.875 64.5384 38.2741 65.9375 40 65.9375Z" fill="#466089"/>
</svg>
