<svg xmlns="http://www.w3.org/2000/svg" version="1.1" xmlns:xlink="http://www.w3.org/1999/xlink" xmlns:svgjs="http://svgjs.com/svgjs" width="512" height="512" x="0" y="0" viewBox="0 0 64 64" style="enable-background:new 0 0 512 512" xml:space="preserve"><g><g xmlns="http://www.w3.org/2000/svg" fill="#F59519"><path d="m3 24h2a8 8 0 0 1 8 8 8 8 0 0 1 -8 8h-2v-1.3945a11.9083 11.9083 0 0 1 2-6.6055 11.9083 11.9083 0 0 1 -2-6.6055z" fill="#F59519" data-original="#f59519"></path><path d="m38 10h-8l4-6z" fill="#F59519" data-original="#f59519"></path><path d="m38 54h-8l4 6z" fill="#F59519" data-original="#f59519"></path><path d="m29.276 10.144-7.391 3.061 1.4-7.074z" fill="#F59519" data-original="#f59519"></path><path d="m46.115 50.795-7.391 3.061 5.991 4.013z" fill="#F59519" data-original="#f59519"></path><path d="m21.272 13.615-5.657 5.657-1.414-7.071z" fill="#F59519" data-original="#f59519"></path><path d="m52.385 44.728-5.657 5.657 7.071 1.414z" fill="#F59519" data-original="#f59519"></path><path d="m15.615 44.728 5.657 5.657-7.071 1.414z" fill="#F59519" data-original="#f59519"></path><path d="m46.728 13.615 5.657 5.657 1.414-7.071z" fill="#F59519" data-original="#f59519"></path><path d="m21.885 50.795 7.391 3.061-5.991 4.013z" fill="#F59519" data-original="#f59519"></path><path d="m38.724 10.144 7.391 3.061-1.4-7.074z" fill="#F59519" data-original="#f59519"></path></g><path xmlns="http://www.w3.org/2000/svg" d="m56.6462 36h2.3538a2 2 0 0 0 0-4 2 2 0 0 0 0-4h-2.3538a22.9977 22.9977 0 1 0 -39.3809 19.7692z" fill="#FFBE4E" data-original="#ffbe4e"></path><path xmlns="http://www.w3.org/2000/svg" d="m56.6462 36h2.3538a2 2 0 0 0 0-4 2 2 0 0 0 0-4h-2.3538a22.9132 22.9132 0 0 0 -5.5392-11.3375 22.993 22.993 0 0 0 -33.6625 30.9156z" fill="#FAA931" data-original="#faa931"></path><path xmlns="http://www.w3.org/2000/svg" d="m17.2653 47.7692a22.9908 22.9908 0 0 0 39.3809-11.7692c-22.3438-2.8242-34.2854 6.2106-39.3809 11.7692z" fill="#D7F5FC" data-original="#d7f5fc"></path><circle xmlns="http://www.w3.org/2000/svg" cx="50" cy="26" fill="#3F484D" r="2" data-original="#3f484d"></circle><circle xmlns="http://www.w3.org/2000/svg" cx="17" cy="30" fill="#F59519" r="1" data-original="#f59519"></circle><circle xmlns="http://www.w3.org/2000/svg" cx="18" cy="24" fill="#F59519" r="1" data-original="#f59519"></circle><circle xmlns="http://www.w3.org/2000/svg" cx="25" cy="18" fill="#F59519" r="1" data-original="#f59519"></circle><circle xmlns="http://www.w3.org/2000/svg" cx="38" cy="16" fill="#F59519" r="1" data-original="#f59519"></circle><circle xmlns="http://www.w3.org/2000/svg" cx="39" cy="24" fill="#F59519" r="1" data-original="#f59519"></circle><circle xmlns="http://www.w3.org/2000/svg" cx="26" cy="31" fill="#F59519" r="1" data-original="#f59519"></circle><circle xmlns="http://www.w3.org/2000/svg" cx="25" cy="25" fill="#F59519" r="1" data-original="#f59519"></circle><circle xmlns="http://www.w3.org/2000/svg" cx="32" cy="29" fill="#F59519" r="1" data-original="#f59519"></circle><circle xmlns="http://www.w3.org/2000/svg" cx="31" cy="22" fill="#F59519" r="1" data-original="#f59519"></circle><circle xmlns="http://www.w3.org/2000/svg" cx="31" cy="15" fill="#F59519" r="1" data-original="#f59519"></circle></g></svg>