<svg width="80" height="80" viewBox="0 0 80 80" fill="none" xmlns="http://www.w3.org/2000/svg">
<g clip-path="url(#clip0_235_349)">
<path d="M40.0923 19.5512H46.4709V26.1395H40.0923V19.5512Z" fill="#D07D62"/>
<path d="M55.5307 73.6511V60.7075C55.5307 54.9896 50.8954 50.3542 45.1775 50.3542H14.1126C8.3945 50.3542 3.75903 54.9897 3.75903 60.7078V76.2397C3.75903 77.6694 4.91794 78.8283 6.34763 78.8283H17.997L29.6454 74.8296L41.2934 78.8283H52.9423C54.372 78.8283 55.5309 77.6694 55.5307 76.2397V73.6511Z" fill="#FFF5F5"/>
<path d="M55.5308 73.6511V60.7075C55.5308 54.9896 50.8955 50.3542 45.1775 50.3542H41.5837C47.3017 50.3542 51.937 54.9896 51.937 60.7075V73.6511V76.2396C51.937 77.6692 50.7781 78.8282 49.3486 78.8282H52.9423C54.372 78.8282 55.5309 77.6692 55.5308 76.2396V73.6511Z" fill="#ECE6F2"/>
<path d="M46.3496 65.4134L41.8414 63.9108C41.2514 63.7141 41.2514 62.8795 41.8414 62.683L46.6283 61.0874C47.2699 60.8734 47.6386 60.2017 47.4747 59.5456L45.1777 50.3541H14.1128L11.8158 59.5456C11.6519 60.2017 12.0207 60.8734 12.6622 61.0874L17.4491 62.683C18.0391 62.8797 18.0391 63.7142 17.4491 63.9108L12.941 65.4134C12.1938 65.6625 11.8403 66.5156 12.1927 67.2202L17.9971 78.8281H24.4685L29.645 76.9969L34.8228 78.8281H41.2935L47.0978 67.2202C47.4502 66.5158 47.0967 65.6625 46.3496 65.4134Z" fill="#ECE6F2"/>
<path d="M23.1658 60.0655L24.4684 78.8282H34.8228L36.1248 60.0655V57.6707L29.645 56.8255L23.1658 57.6707V60.0655Z" fill="#333373"/>
<path d="M12.8199 24.9871V11.5261C12.8199 7.23737 16.2967 3.7605 20.5856 3.7605H26.4857V24.9872H12.8199V24.9871Z" fill="#D07D62"/>
<path d="M21.8796 41.1225V56.8255H37.411V41.1255L21.8796 41.1225Z" fill="#FFCEBF"/>
<path d="M33.8173 41.1255H37.411V56.8256H33.8173V41.1255Z" fill="#FFAEA5"/>
<path d="M45.1767 21.88C46.6064 21.88 47.7653 23.0389 47.7653 24.4686V29.6458C47.7653 31.0755 46.6064 32.2344 45.1767 32.2344H14.1144C12.6847 32.2344 11.5258 31.0755 11.5258 29.6458V24.4686C11.5258 23.0389 12.6847 21.88 14.1144 21.88H45.1767Z" fill="#FFCEBF"/>
<path d="M45.1768 21.88H41.583C43.0127 21.88 44.1716 23.0389 44.1716 24.4686V29.6458C44.1716 31.0755 43.0127 32.2344 41.583 32.2344H45.1768C46.6064 32.2344 47.7654 31.0755 47.7654 29.6458V24.4686C47.7654 23.0389 46.6064 21.88 45.1768 21.88Z" fill="#FFAEA5"/>
<path d="M42.5883 21.8802V12.0772H16.703L16.7032 32.2347C16.7032 39.3827 22.4977 45.1772 29.6457 45.1772C31.1072 45.1772 32.5107 44.9314 33.8211 44.4849L35.1613 42.5886H37.4116C40.5547 40.2274 42.5883 36.4688 42.5883 32.2347L41.0443 27.0572L42.5883 21.8802Z" fill="#FFCEBF"/>
<path d="M38.9944 12.077V32.2347C38.9944 38.7726 34.1458 44.1751 27.8488 45.0503C28.4364 45.132 29.0356 45.1773 29.6456 45.1773C36.7936 45.1773 42.5881 39.3828 42.5881 32.2348V12.0772H38.9944V12.077Z" fill="#FFAEA5"/>
<path d="M21.8798 47.7656L17.9969 50.3542L21.3749 59.3622C21.6448 60.0817 22.4784 60.4091 23.1655 60.0653L29.6452 56.8255L21.8798 47.7656Z" fill="#FFF5F5"/>
<path d="M37.4106 47.7656L41.2934 50.3542L37.9155 59.3622C37.6456 60.0817 36.812 60.4091 36.1248 60.0653L29.6451 56.8255L37.4106 47.7656Z" fill="#FFF5F5"/>
<path d="M21.8798 14.1145C19.0205 14.1145 16.7027 16.4323 16.7027 19.2915V21.8801L14.6337 21.5676V10.4H21.8799L22.5049 14.1147H21.8798V14.1145Z" fill="#D07D62"/>
<path d="M21.8798 6.34891C21.8798 3.48969 24.1976 1.17188 27.0568 1.17188H34.8225C41.2557 1.17188 46.4709 6.38703 46.4709 12.8203V21.8802H32.2339C26.5154 21.8802 21.8796 17.2444 21.8796 11.5259L21.8798 6.34891Z" fill="#D07D62"/>
<path d="M42.8773 12.8203V21.88H45.1769C45.6489 21.88 46.0901 22.0084 46.4711 22.2291V12.8203C46.4711 6.38703 41.2559 1.17188 34.8226 1.17188H31.2289C37.662 1.17188 42.8773 6.38703 42.8773 12.8203Z" fill="#CA6348"/>
<path d="M55.5497 63.2969L64.1591 68.4739L72.1903 63.2969L68.0939 56.1282C67.8703 55.7371 67.7528 55.2944 67.7528 54.8439V44.3958H59.9872V54.8439C59.9872 55.2944 59.8697 55.7371 59.6461 56.1282L55.5497 63.2969Z" fill="#E6FFFF"/>
<path d="M69.5639 64.9899L72.1903 63.2969L68.0939 56.1282C67.8703 55.7371 67.7528 55.2944 67.7528 54.8439V44.3958H64.1591V54.8439C64.1591 55.2944 64.2766 55.7371 64.5001 56.1282L69.5639 64.9899Z" fill="#B3F2FF"/>
<path d="M59.9872 44.3958H67.7528V48.7708H59.9872V44.3958Z" fill="#B3F2FF"/>
<path d="M69.0915 45.177H58.6488C57.9585 45.177 57.3988 44.6173 57.3988 43.927V42.5C57.3988 41.1192 58.5182 40 59.8988 40H67.8415C69.2222 40 70.3415 41.1192 70.3415 42.5V43.927C70.3415 44.6175 69.7818 45.177 69.0915 45.177Z" fill="#E6FFFF"/>
<path d="M73.6464 73.6511C75.6339 73.6511 76.88 71.5039 75.8939 69.7783L72.1903 63.2969H55.5497L51.8461 69.7783C50.86 71.5039 52.1061 73.6511 54.0936 73.6511H73.6464Z" fill="#2EE6A8"/>
<path d="M67.8414 40H64.2477C65.6285 40 66.7477 41.1194 66.7477 42.5V43.927C66.7477 44.6173 66.188 45.177 65.4977 45.177H69.0914C69.7817 45.177 70.3414 44.6173 70.3414 43.927V42.5C70.3414 41.1194 69.2221 40 67.8414 40Z" fill="#B3F2FF"/>
<path d="M75.8939 69.7783L72.1903 63.2969H68.5966L72.3002 69.7783C73.2863 71.5039 72.0402 73.6511 70.0527 73.6511H73.6464C75.6339 73.6511 76.88 71.5039 75.8939 69.7783Z" fill="#24B3B3"/>
<path d="M24.4683 29.5235C25.1154 29.5235 25.6401 28.9988 25.6401 28.3516V27.0574C25.6401 26.4102 25.1154 25.8855 24.4683 25.8855C23.8211 25.8855 23.2964 26.4102 23.2964 27.0574V28.3516C23.2964 28.9988 23.8211 29.5235 24.4683 29.5235Z" fill="black"/>
<path d="M34.8225 29.5235C35.4697 29.5235 35.9944 28.9988 35.9944 28.3516V27.0574C35.9944 26.4102 35.4697 25.8855 34.8225 25.8855C34.1753 25.8855 33.6506 26.4102 33.6506 27.0574V28.3516C33.6506 28.9988 34.1753 29.5235 34.8225 29.5235Z" fill="black"/>
<path d="M29.6455 35.9952C30.9815 35.9952 32.2287 35.2755 32.9005 34.1169C33.2251 33.557 33.0344 32.8399 32.4744 32.5153C31.9142 32.1906 31.1973 32.3813 30.8728 32.9414C30.6187 33.3795 30.1486 33.6516 29.6455 33.6516C29.1423 33.6516 28.6722 33.3795 28.4183 32.9414C28.0937 32.3816 27.3767 32.1908 26.8167 32.5153C26.2569 32.8399 26.0661 33.557 26.3906 34.1169C27.0623 35.2755 28.3095 35.9952 29.6455 35.9952Z" fill="black"/>
<path d="M76.9114 69.1967L69.1112 55.5466C68.9892 55.333 68.9247 55.09 68.9247 54.8439V46.3491H69.0912C70.4267 46.3491 71.5131 45.2627 71.5131 43.9272V42.5C71.5131 40.4753 69.8659 38.8281 67.8412 38.8281H59.8986C57.8739 38.8281 56.2267 40.4753 56.2267 42.5V43.927C56.2267 45.2625 57.3131 46.3489 58.6486 46.3489H58.8151V54.8438C58.8151 55.09 58.7506 55.333 58.6286 55.5466L56.5897 59.1147C55.8142 53.5331 51.029 49.218 45.2453 49.1839C45.2439 49.1839 41.6483 49.1822 41.6483 49.1822L38.5828 47.1386V43.1508C41.4576 40.7928 43.3875 37.3237 43.7107 33.4061H45.1765C47.2501 33.4061 48.9368 31.7192 48.9368 29.6456V24.4688C48.9368 23.3384 48.4348 22.3236 47.6428 21.6337V12.8203C47.6428 5.75109 41.8915 0 34.8225 0H27.0568C24.9625 0 23.1025 1.02 21.9453 2.58859H20.5854C15.6573 2.58859 11.6479 6.59797 11.6479 11.5261V13.6267C11.6479 14.2739 12.1726 14.7986 12.8198 14.7986C13.467 14.7986 13.9917 14.2739 13.9917 13.6267V11.5261C13.9917 7.89031 16.9497 4.93234 20.5854 4.93234H20.8692C20.7648 5.38828 20.7079 5.86188 20.7079 6.34891C20.7079 6.99609 21.2326 7.52078 21.8798 7.52078C22.527 7.52078 23.0517 6.99609 23.0517 6.34891C23.0517 4.14047 24.8484 2.34375 27.0568 2.34375H34.8225C40.5992 2.34375 45.299 7.04359 45.299 12.8203V20.7114C45.2582 20.7102 45.2176 20.7083 45.1765 20.7083H32.234C27.1709 20.7083 23.0517 16.5891 23.0517 11.5259C23.0517 10.8787 22.527 10.3541 21.8798 10.3541C21.2326 10.3541 20.7079 10.8787 20.7079 11.5259C20.7079 12.0375 20.745 12.5405 20.8098 13.0347C17.8168 13.545 15.5308 16.1556 15.5308 19.2917V19.2933V20.7084H14.114C14.0729 20.7084 14.0323 20.7103 13.9917 20.7116V19.0956C13.9917 18.4484 13.467 17.9237 12.8198 17.9237C12.1726 17.9237 11.6479 18.4484 11.6479 19.0956V21.6337C10.8558 22.3237 10.3537 23.3384 10.3537 24.4689V29.6461C10.3537 31.7195 12.0406 33.4066 14.114 33.4066H15.5798C15.9033 37.3241 17.8329 40.793 20.7076 43.1511V47.1389L17.642 49.1827C17.642 49.1827 14.0701 49.1841 14.0487 49.1842C14.0476 49.1842 14.0465 49.1842 14.0454 49.1844C7.72122 49.2209 2.58716 54.3755 2.58716 60.7081V76.2398C2.58716 78.3134 4.27403 80.0003 6.34763 80.0003H9.04231C9.6895 80.0003 10.2142 79.4756 10.2142 78.8284C10.2142 78.1813 9.6895 77.6566 9.04231 77.6566H6.34778C5.56653 77.6566 4.93106 77.0211 4.93106 76.2398V60.7078C4.93106 56.1675 8.24419 52.3889 12.5793 51.6566L10.6789 59.2616C10.3684 60.5039 11.0768 61.7941 12.2915 62.1991L15.585 63.2969L12.5704 64.3017C11.8918 64.5278 11.3456 65.0366 11.0718 65.6975C10.7981 66.3583 10.8245 67.1044 11.1445 67.7444L16.1009 77.6562H14.5112C13.864 77.6562 13.3393 78.1809 13.3393 78.8281C13.3393 79.4753 13.864 80 14.5112 80H52.9423C53.9468 80 54.8912 79.6089 55.6014 78.8986C56.3117 78.1883 56.7029 77.2439 56.7028 76.2395V74.823H73.6464C75.0025 74.823 76.2182 74.1228 76.8987 72.95C77.5795 71.7772 77.5842 70.3742 76.9114 69.1967ZM58.5704 43.927V42.5C58.5704 41.7677 59.1664 41.1719 59.8986 41.1719H67.8412C68.5734 41.1719 69.1693 41.7677 69.1693 42.5V43.927C69.1693 43.9702 69.1342 44.0052 69.0912 44.0052H58.6486C58.6056 44.0052 58.5704 43.9702 58.5704 43.927ZM60.6636 56.7095C60.9876 56.1425 61.159 55.4972 61.159 54.8438V46.3489H66.5809V54.8438C66.5809 55.4972 66.7523 56.1423 67.0764 56.7094L70.1711 62.1248H57.569L60.6636 56.7095ZM41.4707 65.0227L45.979 66.5253C46.0142 66.537 46.039 66.5603 46.0532 66.5944C46.0675 66.6288 46.0662 66.663 46.0496 66.6961L40.5692 77.6562H36.0787L37.2125 61.3187C37.3454 61.2908 37.477 61.2536 37.6051 61.2033C38.2547 60.9481 38.7676 60.427 39.0126 59.7738L42.1054 51.5263H44.2626L46.3378 59.8298C46.3532 59.8916 46.3179 59.9556 46.2576 59.9758L41.4706 61.5714C40.7267 61.8194 40.227 62.5128 40.227 63.297C40.2272 64.0811 40.7268 64.7745 41.4707 65.0227ZM25.5617 77.6562L24.3889 60.7639L29.6451 58.1358L34.9015 60.7641L33.7293 77.6562H25.5617ZM36.8181 58.9508C36.8054 58.9845 36.782 59.0084 36.7482 59.0217C36.7147 59.035 36.6812 59.0333 36.6489 59.0173C36.6486 59.0172 36.6482 59.017 36.6479 59.0169L31.5114 56.4486L37.6245 49.3167L39.8695 50.8134L36.8181 58.9508ZM46.5932 24.4688V29.6459C46.5932 30.427 45.9578 31.0627 45.1767 31.0627H43.76L43.7601 23.0522H45.1767C45.9578 23.052 46.5932 23.6877 46.5932 24.4688ZM12.6976 29.6458V24.4688C12.6976 23.6877 13.3331 23.0522 14.1142 23.0522H15.5309L15.5311 31.0627H14.1142C13.3331 31.0625 12.6976 30.427 12.6976 29.6458ZM17.8748 32.235L17.8747 19.2917C17.8747 19.2914 17.8747 19.2911 17.8747 19.2908C17.8751 17.2612 19.3933 15.5809 21.3534 15.3223C22.9265 19.8178 27.2084 23.0522 32.2342 23.0522H41.4164L41.4162 32.2352C41.4162 38.7256 36.1359 44.0059 29.6456 44.0059C23.1553 44.0059 17.8748 38.7253 17.8748 32.235ZM29.6454 46.3494C32.0257 46.3494 34.2698 45.7563 36.239 44.7113V47.3317L29.6451 55.0245L23.0515 47.332V44.7113C25.0209 45.7563 27.265 46.3494 29.6454 46.3494ZM21.6659 49.3167L27.7789 56.4486L22.6417 59.0172C22.6092 59.0334 22.5758 59.0348 22.5422 59.0217C22.5086 59.0084 22.4851 58.9847 22.4723 58.9508L19.4209 50.8134L21.6659 49.3167ZM13.2408 66.6963C13.2242 66.6631 13.2229 66.6289 13.2372 66.5947C13.2514 66.5605 13.2764 66.5372 13.3115 66.5255L17.8197 65.0228C18.5636 64.7748 19.0634 64.0812 19.0634 63.2972C19.0634 62.513 18.5636 61.8195 17.8197 61.5716L13.0328 59.9759C12.9725 59.9559 12.9375 59.8917 12.9528 59.8302L15.0279 51.5264H17.185L20.2778 59.7739C20.5228 60.4273 21.0357 60.9484 21.6853 61.2036C21.8134 61.2539 21.945 61.2911 22.0781 61.3192L23.2123 77.6562H18.7212L13.2408 66.6963ZM54.3589 76.2397C54.3589 76.618 54.2117 76.9737 53.944 77.2412C53.6765 77.5088 53.3207 77.6562 52.9423 77.6562H43.1897L48.1461 67.7442C48.4661 67.1044 48.4925 66.3583 48.2187 65.6973C47.9448 65.0366 47.3987 64.528 46.7203 64.3017L43.7054 63.2969L46.999 62.1991C48.2136 61.7941 48.9221 60.5037 48.6117 59.2616L46.7112 51.6567C51.0459 52.3894 54.3587 56.1678 54.3587 60.7078V63.0192L50.8286 69.1969C50.1557 70.3742 50.1606 71.7773 50.8412 72.95C51.5217 74.1227 52.7376 74.8228 54.0934 74.8228H54.3589V76.2397ZM74.8718 71.7736C74.7487 71.9858 74.3828 72.4792 73.6464 72.4792H54.0934C53.3572 72.4792 52.9912 71.9858 52.8681 71.7736C52.7451 71.5614 52.4981 70.9989 52.8634 70.3597L56.2296 64.4688H71.5103L74.8765 70.3595C75.2418 70.9989 74.9948 71.5614 74.8718 71.7736Z" fill="black"/>
</g>
<defs>
<clipPath id="clip0_235_349">
<rect width="80" height="80" fill="white"/>
</clipPath>
</defs>
</svg>
