<svg xmlns="http://www.w3.org/2000/svg" version="1.1" xmlns:xlink="http://www.w3.org/1999/xlink" xmlns:svgjs="http://svgjs.com/svgjs" width="512" height="512" x="0" y="0" viewBox="0 0 512 512" style="enable-background:new 0 0 512 512" xml:space="preserve" class=""><g><g xmlns="http://www.w3.org/2000/svg"><g><path d="m256.591 125.128h40.823v42.165h-40.823z" fill="#D07D62" data-original="#d07d62" style=""></path><g><path d="m355.397 471.367v-82.839c0-36.595-29.666-66.261-66.261-66.261h-198.815c-36.596 0-66.263 29.667-66.263 66.263v99.404c0 9.15 7.417 16.567 16.567 16.567h74.556l74.55-25.592 74.547 25.592h74.553c9.15 0 16.567-7.417 16.566-16.567z" fill="#FFF5F5" data-original="#fff5f5" style=""></path><path d="m355.397 471.367v-82.839c0-36.595-29.666-66.261-66.261-66.261h-23c36.595 0 66.261 29.666 66.261 66.261v82.839 16.566c0 9.15-7.417 16.567-16.566 16.567h23c9.15 0 16.567-7.417 16.566-16.567z" fill="#ECE6F2" data-original="#ece6f2" style=""></path><path d="m296.637 418.646-28.852-9.617c-3.776-1.259-3.776-6.6 0-7.858l30.636-10.212c4.106-1.369 6.466-5.668 5.417-9.867l-14.701-58.826h-198.815l-14.701 58.826c-1.049 4.199 1.311 8.498 5.417 9.867l30.636 10.212c3.776 1.259 3.776 6.6 0 7.858l-28.852 9.617c-4.782 1.594-7.044 7.054-4.789 11.563l37.148 74.291h41.417l33.13-11.72 33.138 11.72h41.412l37.148-74.291c2.255-4.508-.007-9.969-4.789-11.563z" fill="#ECE6F2" data-original="#ece6f2" style=""></path><path d="m148.261 384.419 8.337 120.081h66.268l8.333-120.081v-15.327l-41.471-5.409-41.467 5.409z" fill="#333373" data-original="#333373" style=""></path><path d="m82.048 159.917v-86.15c0-27.448 22.251-49.7 49.7-49.7h37.761v135.851h-87.461z" fill="#D07D62" data-original="#d07d62" style=""></path><path d="m140.03 263.184v100.499h99.401v-100.48z" fill="#FFCEBF" data-original="#ffcebf" style=""></path><path d="m216.431 263.203h23v100.481h-23z" fill="#FFAEA5" data-original="#ffaea5" style="" class=""></path><path d="m289.131 140.032c9.15 0 16.567 7.417 16.567 16.567v33.134c0 9.15-7.417 16.567-16.567 16.567h-198.799c-9.15 0-16.567-7.417-16.567-16.567v-33.134c0-9.15 7.417-16.567 16.567-16.567z" fill="#FFCEBF" data-original="#ffcebf" style=""></path><path d="m289.131 140.032h-23c9.15 0 16.567 7.417 16.567 16.567v33.134c0 9.15-7.417 16.567-16.567 16.567h23c9.15 0 16.567-7.417 16.567-16.567v-33.134c0-9.15-7.417-16.567-16.567-16.567z" fill="#FFAEA5" data-original="#ffaea5" style="" class=""></path><path d="m272.565 140.033v-62.739h-165.666l.001 129.008c0 45.747 37.085 82.832 82.832 82.832 9.354 0 18.336-1.573 26.723-4.431l8.577-12.136h14.402c20.116-15.112 33.131-39.167 33.131-66.265l-9.882-33.136z" fill="#FFCEBF" data-original="#ffcebf" style=""></path><path d="m249.564 77.293v129.009c0 41.843-31.031 76.419-71.332 82.02 3.761.523 7.596.813 11.5.813 45.747 0 82.832-37.085 82.832-82.832v-129.009h-23z" fill="#FFAEA5" data-original="#ffaea5" style="" class=""></path><path d="m140.031 305.7-24.85 16.567 21.619 57.651c1.727 4.605 7.062 6.7 11.46 4.5l41.47-20.735z" fill="#FFF5F5" data-original="#fff5f5" style=""></path><path d="m239.428 305.7 24.85 16.567-21.619 57.651c-1.727 4.605-7.062 6.7-11.46 4.5l-41.47-20.735z" fill="#FFF5F5" data-original="#fff5f5" style=""></path><path d="m140.031 90.333c-18.299 0-33.133 14.834-33.133 33.133v16.567l-13.242-2v-71.473h46.376l4 23.774h-4.001z" fill="#D07D62" data-original="#d07d62" style=""></path><path d="m140.031 40.633c0-18.299 14.834-33.133 33.133-33.133h49.7c41.173 0 74.55 33.377 74.55 74.55v57.983h-91.117c-36.598 0-66.267-29.669-66.267-66.267z" fill="#D07D62" data-original="#d07d62" style=""></path><path d="m274.415 82.05v57.982h14.717c3.021 0 5.845.822 8.283 2.234v-60.216c0-41.173-33.377-74.55-74.55-74.55h-23c41.172 0 74.55 33.377 74.55 74.55z" fill="#CA6348" data-original="#ca6348" style=""></path></g><g><path d="m355.518 405.1 55.1 33.133 51.4-33.133-26.217-45.88c-1.431-2.503-2.183-5.336-2.183-8.219v-66.868h-49.7v66.868c0 2.883-.752 5.716-2.183 8.219z" fill="#E6FFFF" data-original="#e6ffff" style=""></path><path d="m445.209 415.935 16.809-10.835-26.217-45.88c-1.431-2.503-2.183-5.336-2.183-8.219v-66.868h-23v66.868c0 2.883.752 5.716 2.183 8.219z" fill="#B3F2FF" data-original="#b3f2ff" style=""></path><path d="m383.918 284.133h49.7v28h-49.7z" fill="#B3F2FF" data-original="#b3f2ff" style=""></path><path d="m442.185 289.133h-66.833c-4.418 0-8-3.582-8-8v-9.133c0-8.837 7.164-16 16-16h50.833c8.837 0 16 7.163 16 16v9.133c0 4.419-3.582 8-8 8z" fill="#E6FFFF" data-original="#e6ffff" style=""></path><path d="m471.337 471.367c12.72 0 20.695-13.742 14.384-24.786l-23.703-41.481h-106.5l-23.703 41.481c-6.311 11.044 1.664 24.786 14.384 24.786z" fill="#2EE6A8" data-original="#2ee6a8" style=""></path><path d="m434.185 256h-23c8.837 0 16 7.164 16 16v9.133c0 4.418-3.582 8-8 8h23c4.418 0 8-3.582 8-8v-9.133c0-8.836-7.164-16-16-16z" fill="#B3F2FF" data-original="#b3f2ff" style=""></path><path d="m485.721 446.581-23.703-41.481h-23l23.703 41.481c6.311 11.044-1.664 24.786-14.384 24.786h23c12.72 0 20.695-13.742 14.384-24.786z" fill="#24B3B3" data-original="#24b3b3" style="" class=""></path></g></g><g><path d="m156.597 188.95c4.142 0 7.5-3.358 7.5-7.5v-8.283c0-4.142-3.358-7.5-7.5-7.5s-7.5 3.358-7.5 7.5v8.283c0 4.142 3.358 7.5 7.5 7.5z" fill="#000000" data-original="#000000" style="" class=""></path><path d="m222.864 188.95c4.142 0 7.5-3.358 7.5-7.5v-8.283c0-4.142-3.358-7.5-7.5-7.5s-7.5 3.358-7.5 7.5v8.283c0 4.142 3.358 7.5 7.5 7.5z" fill="#000000" data-original="#000000" style="" class=""></path><path d="m189.731 230.369c8.551 0 16.533-4.606 20.832-12.021 2.078-3.583.857-8.173-2.727-10.25-3.585-2.078-8.173-.858-10.25 2.727-1.626 2.804-4.635 4.545-7.855 4.545s-6.229-1.741-7.854-4.545c-2.077-3.583-6.666-4.804-10.25-2.727-3.583 2.077-4.804 6.667-2.727 10.25 4.299 7.415 12.281 12.021 20.831 12.021z" fill="#000000" data-original="#000000" style="" class=""></path><path d="m492.233 442.859-49.921-87.361c-.781-1.367-1.194-2.922-1.194-4.497v-54.367h1.066c8.547 0 15.5-6.953 15.5-15.5v-9.134c0-12.958-10.542-23.5-23.5-23.5h-50.833c-12.958 0-23.5 10.542-23.5 23.5v9.133c0 8.547 6.953 15.5 15.5 15.5h1.066v54.367c0 1.576-.413 3.131-1.194 4.498l-13.049 22.836c-4.963-35.722-35.588-63.339-72.604-63.557-.009 0-23.021-.011-23.021-.011l-19.619-13.079v-25.522c18.399-15.091 30.75-37.293 32.819-62.366h9.381c13.271 0 24.066-10.796 24.066-24.067v-33.132c0-7.234-3.213-13.729-8.282-18.144v-56.406c0-45.243-36.808-82.05-82.05-82.05h-49.7c-13.404 0-25.308 6.528-32.714 16.567h-8.703c-31.54 0-57.2 25.66-57.2 57.2v13.444c0 4.142 3.358 7.5 7.5 7.5s7.5-3.358 7.5-7.5v-13.444c0-23.269 18.931-42.2 42.2-42.2h1.816c-.668 2.918-1.032 5.949-1.032 9.066 0 4.142 3.358 7.5 7.5 7.5s7.5-3.358 7.5-7.5c0-14.134 11.499-25.633 25.633-25.633h49.7c36.971 0 67.05 30.079 67.05 67.05v50.503c-.261-.008-.521-.02-.784-.02h-82.832c-32.404 0-58.767-26.363-58.767-58.767 0-4.142-3.358-7.5-7.5-7.5s-7.5 3.358-7.5 7.5c0 3.274.237 6.493.652 9.656-19.155 3.266-33.786 19.974-33.786 40.045v.01 9.057h-9.067c-.263 0-.523.012-.783.02v-10.342c0-4.142-3.358-7.5-7.5-7.5s-7.5 3.358-7.5 7.5v16.244c-5.07 4.416-8.283 10.91-8.283 18.145v33.134c0 13.27 10.796 24.067 24.066 24.067h9.381c2.07 25.072 14.42 47.273 32.818 62.365v25.522l-19.62 13.08s-22.86.009-22.997.01c-.007 0-.014 0-.021.001-40.475.234-73.333 33.223-73.333 73.752v99.403c0 13.271 10.796 24.067 24.067 24.067h17.246c4.142 0 7.5-3.358 7.5-7.5s-3.358-7.5-7.5-7.5h-17.245c-5 0-9.067-4.067-9.067-9.067v-99.405c0-29.058 21.204-53.241 48.949-57.928l-12.163 48.672c-1.987 7.951 2.547 16.208 10.321 18.8l21.078 7.026-19.293 6.431c-4.343 1.447-7.839 4.703-9.591 8.933-1.752 4.229-1.583 9.004.465 13.1l31.721 63.436h-10.174c-4.142 0-7.5 3.358-7.5 7.5s3.358 7.5 7.5 7.5h245.959c6.429 0 12.473-2.503 17.018-7.049 4.546-4.546 7.05-10.59 7.049-17.018v-9.066h108.439c8.679 0 16.46-4.481 20.815-11.987 4.357-7.506 4.387-16.485.081-24.021zm-117.382-161.726v-9.133c0-4.687 3.814-8.5 8.5-8.5h50.833c4.686 0 8.5 3.813 8.5 8.5v9.133c0 .276-.225.5-.5.5h-66.833c-.275 0-.5-.224-.5-.5zm13.396 81.808c2.074-3.629 3.171-7.759 3.171-11.941v-54.367h34.7v54.367c0 4.182 1.097 8.311 3.171 11.94l19.806 34.659h-80.653zm-122.834 53.204 28.853 9.617c.225.075.384.224.475.442.091.22.083.439-.023.651l-35.075 70.145h-28.739l7.256-104.56c.851-.179 1.693-.417 2.513-.739 4.157-1.633 7.44-4.968 9.008-9.149l19.794-52.784h13.806l13.281 53.143c.099.395-.127.805-.513.934l-30.637 10.212c-4.761 1.587-7.959 6.025-7.959 11.044.001 5.018 3.199 9.456 7.96 11.044zm-101.818 80.855-7.506-108.111 33.64-16.82 33.641 16.821-7.502 108.11zm72.041-119.715c-.081.216-.231.369-.447.454-.215.085-.429.074-.636-.028-.002-.001-.004-.002-.006-.003l-32.874-16.437 39.124-45.644 14.368 9.579zm62.561-220.685v33.134c0 4.999-4.067 9.067-9.066 9.067h-9.067l.001-51.267h9.066c4.999-.001 9.066 4.067 9.066 9.066zm-216.932 33.133v-33.133c0-4.999 4.067-9.066 9.066-9.066h9.067l.001 51.267h-9.068c-4.999-.001-9.066-4.068-9.066-9.068zm33.134 16.571-.001-82.837c0-.002 0-.004 0-.006.003-12.989 9.719-23.743 22.264-25.398 10.068 28.771 37.472 49.471 69.637 49.471h58.766l-.001 58.771c0 41.539-33.794 75.333-75.332 75.333s-75.333-33.796-75.333-75.334zm75.332 90.332c15.234 0 29.596-3.796 42.199-10.484v16.771l-42.201 49.234-42.199-49.232v-16.773c12.604 6.688 26.966 10.484 42.201 10.484zm-51.069 18.991 39.123 45.644-32.878 16.439c-.208.104-.422.113-.637.029-.215-.085-.365-.237-.447-.454l-19.529-52.079zm-53.921 111.229c-.106-.212-.114-.431-.023-.65s.251-.368.476-.443l28.852-9.617c4.761-1.587 7.96-6.026 7.96-11.044 0-5.019-3.199-9.457-7.96-11.044l-30.636-10.212c-.386-.128-.61-.539-.512-.933l13.281-53.144h13.805l19.794 52.784c1.568 4.182 4.851 7.517 9.008 9.15.82.322 1.662.56 2.514.74l7.259 104.557h-28.743zm263.156 61.078c0 2.421-.942 4.698-2.655 6.41-1.712 1.712-3.989 2.656-6.411 2.656h-62.417l31.721-63.437c2.048-4.095 2.217-8.87.465-13.1-1.753-4.229-5.248-7.484-9.59-8.932l-19.295-6.431 21.079-7.026c7.773-2.592 12.308-10.85 10.321-18.8l-12.163-48.671c27.742 4.689 48.944 28.871 48.944 57.927v14.793l-22.593 39.537c-4.306 7.535-4.275 16.515.081 24.02 4.355 7.505 12.137 11.986 20.814 11.986h1.699zm131.283-28.583c-.788 1.358-3.13 4.516-7.843 4.516h-125.139c-4.712 0-7.054-3.158-7.842-4.516-.787-1.358-2.368-4.958-.03-9.049l21.544-37.702h97.796l21.544 37.701c2.338 4.092.757 7.692-.03 9.05z" fill="#000000" data-original="#000000" style="" class=""></path></g></g></g></svg>