<svg xmlns="http://www.w3.org/2000/svg" xmlns:xlink="http://www.w3.org/1999/xlink" xmlns:svgjs="http://svgjs.com/svgjs" version="1.1" width="512" height="512" x="0" y="0" viewBox="0 0 430.333 430.333" style="enable-background:new 0 0 512 512" xml:space="preserve" class="">
  <g transform="matrix(-1,2.465190328815662e-32,2.465190328815662e-32,1,430.33302307128906,0)">
<g xmlns="http://www.w3.org/2000/svg" id="XMLID_495_">
	<path id="XMLID_496_" style="" d="M278.256,220.333c10-40,22-138-8-178S216.589,0,170.589,0   c0.667,17.333-2.667,26.667-2.667,26.667S155.256,22,143.923,20c6.425,17.989,2.298,58.747-11.372,66.853   c-13.67,8.105-40.474,25.061-40.474,25.061l15.793,25.507c0,0,31.804-19.636,32.053-19.753c15.443-7.315,14.5-2.167,35,1.833   c21.131,4.123,43.333-9.166,43.333-9.166s-60,50-60,110s48.265,84.703,65.667,107c21.333,27.333,16.666,69.333-23.334,69.333   c-22.201-1.783-31.751-16.767-32.264-32.489c0.317-3.659,1.32-7.263,3.012-10.647c3.701-7.402,11.18-11.996,19.432-11.94l0.092-20   c-0.066,0-0.13-0.001-0.197-0.001c-12.9,0-24.729,5.815-32.517,15.617c-13.988,16.373-18.961,52.297,2.442,73.458   c11.669,11.538,27.659,19.667,47.667,19.667c50,0,80-40,80-80S268.256,260.333,278.256,220.333z" fill="#ffda44" data-original="#ffda44"/>
	<g id="XMLID_63_">
		<path id="XMLID_498_" style="" d="M288.256,350.333c0-40-20-90-10-130s22-138-8-178    c-14.401-19.201-27.347-29.709-42-35.459v326.799c10.592,17.777,11.292,39.416,0,52.15v42.218    C266.146,419.008,288.256,384.671,288.256,350.333z" fill="#ff9811" data-original="#ff9811"/>
	</g>
	<g id="XMLID_497_">
		<g id="XMLID_500_">
			<path id="XMLID_501_" style="" d="M322.256,172.333l-64,32v32l64,32c0,0,16-13.175,16-48     S322.256,172.333,322.256,172.333z" fill="#ff5023" data-original="#ff5023"/>
		</g>
	</g>
	<g id="XMLID_502_">
		<g id="XMLID_503_">
			<circle id="XMLID_504_" style="" cx="168.256" cy="80.333" r="10" fill="#802812" data-original="#802812"/>
		</g>
	</g>
</g>















</g>
</svg>