<svg width="48" height="48" viewBox="0 0 48 48" fill="none" xmlns="http://www.w3.org/2000/svg">
<path d="M38.8601 25.96C38.9401 25.32 39.0001 24.68 39.0001 24C39.0001 23.32 38.9401 22.68 38.8601 22.04L43.0801 18.74C43.4601 18.44 43.5601 17.9 43.3201 17.46L39.3201 10.54C39.1401 10.22 38.8001 10.04 38.4401 10.04C38.3201 10.04 38.2001 10.06 38.1001 10.1L33.1201 12.1C32.0801 11.3 30.9601 10.64 29.7401 10.14L28.9801 4.84C28.9201 4.36 28.5001 4 28.0001 4H20.0001C19.5001 4 19.0801 4.36 19.0201 4.84L18.2601 10.14C17.0401 10.64 15.9201 11.32 14.8801 12.1L9.90014 10.1C9.78014 10.06 9.66014 10.04 9.54014 10.04C9.20014 10.04 8.86014 10.22 8.68014 10.54L4.68014 17.46C4.42014 17.9 4.54014 18.44 4.92014 18.74L9.14014 22.04C9.06014 22.68 9.00014 23.34 9.00014 24C9.00014 24.66 9.06014 25.32 9.14014 25.96L4.92014 29.26C4.54014 29.56 4.44014 30.1 4.68014 30.54L8.68014 37.46C8.86014 37.78 9.20014 37.96 9.56014 37.96C9.68014 37.96 9.80014 37.94 9.90014 37.9L14.8801 35.9C15.9201 36.7 17.0401 37.36 18.2601 37.86L19.0201 43.16C19.0801 43.64 19.5001 44 20.0001 44H28.0001C28.5001 44 28.9201 43.64 28.9801 43.16L29.7401 37.86C30.9601 37.36 32.0801 36.68 33.1201 35.9L38.1001 37.9C38.2201 37.94 38.3401 37.96 38.4601 37.96C38.8001 37.96 39.1401 37.78 39.3201 37.46L43.3201 30.54C43.5601 30.1 43.4601 29.56 43.0801 29.26L38.8601 25.96ZM34.9001 22.54C34.9801 23.16 35.0001 23.58 35.0001 24C35.0001 24.42 34.9601 24.86 34.9001 25.46L34.6201 27.72L36.4001 29.12L38.5601 30.8L37.1601 33.22L34.6201 32.2L32.5401 31.36L30.7401 32.72C29.8801 33.36 29.0601 33.84 28.2401 34.18L26.1201 35.04L25.8001 37.3L25.4001 40H22.6001L22.2201 37.3L21.9001 35.04L19.7801 34.18C18.9201 33.82 18.1201 33.36 17.3201 32.76L15.5001 31.36L13.3801 32.22L10.8401 33.24L9.44014 30.82L11.6001 29.14L13.3801 27.74L13.1001 25.48C13.0401 24.86 13.0001 24.4 13.0001 24C13.0001 23.6 13.0401 23.14 13.1001 22.54L13.3801 20.28L11.6001 18.88L9.44014 17.2L10.8401 14.78L13.3801 15.8L15.4601 16.64L17.2601 15.28C18.1201 14.64 18.9401 14.16 19.7601 13.82L21.8801 12.96L22.2001 10.7L22.6001 8H25.3801L25.7601 10.7L26.0801 12.96L28.2001 13.82C29.0601 14.18 29.8601 14.64 30.6601 15.24L32.4801 16.64L34.6001 15.78L37.1401 14.76L38.5401 17.18L36.4001 18.88L34.6201 20.28L34.9001 22.54ZM24.0001 16C19.5801 16 16.0001 19.58 16.0001 24C16.0001 28.42 19.5801 32 24.0001 32C28.4201 32 32.0001 28.42 32.0001 24C32.0001 19.58 28.4201 16 24.0001 16ZM24.0001 28C21.8001 28 20.0001 26.2 20.0001 24C20.0001 21.8 21.8001 20 24.0001 20C26.2001 20 28.0001 21.8 28.0001 24C28.0001 26.2 26.2001 28 24.0001 28Z" fill="#FFA000"/>
</svg>
