<svg width="108" height="108" viewBox="0 0 108 108" fill="none" xmlns="http://www.w3.org/2000/svg">
<g clip-path="url(#clip0_226_896)">
<path d="M54 106.418C82.9496 106.418 106.418 82.9496 106.418 54C106.418 25.0504 82.9496 1.58203 54 1.58203C25.0504 1.58203 1.58203 25.0504 1.58203 54C1.58203 82.9496 25.0504 106.418 54 106.418Z" fill="#6746C3"/>
<path d="M10.0195 54C10.0195 26.4708 31.2422 3.90002 58.2188 1.75141C56.827 1.64046 55.4202 1.58203 54 1.58203C25.0503 1.58203 1.58203 25.0503 1.58203 54C1.58203 82.9497 25.0503 106.418 54 106.418C55.4202 106.418 56.827 106.36 58.2188 106.249C31.2422 104.1 10.0195 81.5292 10.0195 54Z" fill="#6746C3"/>
<path d="M92.1837 15.8161C81.9844 5.61706 68.4239 0 54 0C38.2539 0 23.3276 6.85336 13.0481 18.8025C12.4784 19.4649 12.5535 20.4637 13.2156 21.0336C13.8782 21.6034 14.8768 21.5285 15.4467 20.8661C25.1245 9.61622 39.1766 3.16406 54 3.16406C67.5787 3.16406 80.3448 8.45184 89.9463 18.0535C99.5481 27.6552 104.836 40.4211 104.836 54C104.836 66.7486 100.094 78.9429 91.4844 88.3366C90.894 88.9808 90.9377 89.9815 91.5817 90.5719C91.8854 90.8504 92.2683 90.9877 92.6503 90.9877C93.0783 90.9877 93.505 90.8149 93.817 90.4747C102.963 80.4957 108 67.5422 108 54C108 39.5761 102.383 26.0156 92.1837 15.8161Z" fill="black"/>
<path d="M11.2632 23.6048C10.5367 23.1194 9.5542 23.3147 9.06905 24.0414C3.1358 32.9221 0 43.2817 0 54C0 68.4239 5.61684 81.9845 15.8161 92.1839C26.0153 102.383 39.5761 108 54 108C66.8843 108 79.3608 103.386 89.1319 95.0071C89.7952 94.4384 89.8718 93.4396 89.3031 92.7764C88.7344 92.113 87.7354 92.0365 87.0723 92.6052C77.8745 100.492 66.1291 104.836 54 104.836C40.4211 104.836 27.655 99.5482 18.0535 89.9465C8.45184 80.3448 3.16406 67.5789 3.16406 54C3.16406 43.9094 6.11571 34.1578 11.6999 25.7992C12.1852 25.0725 11.9897 24.0901 11.2632 23.6048Z" fill="black"/>
<path d="M38.1927 18.2039C40.1192 18.2039 41.9512 17.3694 43.2192 15.9148C43.7931 15.2561 43.7246 14.2568 43.066 13.6827C42.4073 13.1087 41.4081 13.1773 40.8339 13.836C40.1671 14.6011 39.2044 15.0401 38.1927 15.0401C37.1811 15.0401 36.2184 14.6011 35.5516 13.836C34.9776 13.1773 33.9782 13.1087 33.3197 13.6827C32.6609 14.2568 32.5924 15.2561 33.1663 15.9148C34.4343 17.3696 36.2662 18.2039 38.1927 18.2039Z" fill="black"/>
<path d="M69.807 18.2038C71.7335 18.2038 73.5655 17.3694 74.8335 15.9145C75.4076 15.2558 75.3389 14.2566 74.6801 13.6824C74.0216 13.1082 73.0222 13.177 72.448 13.8357C71.7812 14.6008 70.8185 15.0398 69.8068 15.0398C68.7952 15.0398 67.8327 14.6008 67.1657 13.8357C66.5915 13.177 65.5923 13.1084 64.9336 13.6824C64.2748 14.2563 64.2062 15.2558 64.7802 15.9145C66.0484 17.3696 67.8806 18.2038 69.807 18.2038Z" fill="black"/>
<path d="M56.9641 20.1085C56.9641 18.3625 55.637 16.9471 54 16.9471C52.3629 16.9471 51.0356 18.3625 51.0356 20.1085C51.0356 21.8544 52.3629 23.2698 54 23.2698C55.637 23.2698 56.9641 21.8544 56.9641 20.1085Z" fill="black"/>
<path d="M55.5009 73.8306C55.5009 74.4379 55.0071 74.9329 54.3987 74.9329C53.7913 74.9329 53.2964 74.4379 53.2964 73.8306C53.2964 73.2233 53.7913 72.7284 54.3987 72.7284C55.0071 72.7284 55.5009 73.2233 55.5009 73.8306ZM82 54.8136C81.9999 57.2366 80.2796 59.3806 77.6737 59.6403C76.8044 59.7269 76.1052 60.1385 75.651 60.8131C74.1531 63.0529 72.7806 65.4079 71.6896 67.8642C70.178 71.267 66.2811 74.9329 60.6704 74.9329H59.361C59.3599 74.9329 59.3599 74.9329 59.3588 74.9329C58.7514 74.9329 58.2565 74.439 58.2565 73.8306C58.2565 73.2233 58.7514 72.7284 59.3588 72.7284H60.6704C64.5184 72.7284 68.0588 70.4555 69.6901 66.9372C70.8684 64.3954 72.2572 61.9231 73.818 59.5885C74.6237 58.3782 75.9495 57.6147 77.4488 57.4468C78.9462 57.2792 79.7996 56.0525 79.7955 54.8136C79.7926 53.9438 79.4218 53.2363 78.712 52.7083C77.8445 52.0712 76.8894 51.5658 75.8682 51.2203C74.1035 50.6231 71.7287 51.0159 70.2721 53.0445C63.9104 61.9045 55.1252 64.5995 52.2129 65.3399C51.4462 66.2565 47.9055 70.0446 41.7261 70.0446C37.8947 70.0446 34.2474 70.9517 30.8867 72.7285H49.4385C50.047 72.7285 50.5408 73.2234 50.5408 73.8307C50.5408 74.4381 50.047 74.933 49.4385 74.933H27.1015C26.1025 74.933 25.5672 73.6265 26.438 72.95C29.0723 70.9034 32.669 69.301 35.4767 68.6194C33.18 67.5153 31.098 65.82 29.6685 63.4946C23.8411 54.0152 28.4357 44.0786 34.6798 40.2038C43.6388 34.6443 55.8417 36.3935 62.1168 46.1073C63.8976 48.864 65.0768 51.9656 65.5819 55.1856C66.5626 54.1867 67.4727 53.1227 68.3006 52.0034C68.3552 47.7022 69.3378 43.5765 71.229 39.7357C71.498 39.1896 72.1588 38.9649 72.7048 39.2339C73.251 39.5028 73.4756 40.1636 73.2067 40.7097C71.8661 43.4319 71.0194 46.3098 70.6757 49.2977C73.4668 46.5031 76.8105 44.3061 80.4898 42.8683C81.0564 42.6468 81.696 42.9266 81.9176 43.4937C82.1392 44.0607 81.8592 44.6999 81.2922 44.9216C78.8787 45.8648 76.6227 47.1637 74.5937 48.7617C75.2724 48.7888 75.9415 48.9144 76.5857 49.1361C77.8147 49.5594 78.9729 50.1579 80.0159 50.9306C81.5595 52.0737 82 53.6737 82 54.8136ZM60.2167 56.8734C58.5381 58.0637 56.7279 59.0581 54.8298 59.8391C54.6499 60.7595 54.3641 61.6586 53.9785 62.5175C57.4908 61.3189 60.7109 59.4849 63.5842 57.0446C63.2976 53.5891 62.1932 50.2076 60.2649 47.303C56.2907 41.3165 50.4859 39.1566 45.3026 39.2433C40.5239 39.3232 35.4301 40.9972 31.6946 46.1331C28.4413 50.6061 28.321 57.5848 31.5201 62.2984C35.2739 67.8291 42.6977 69.5809 48.2805 65.9046C53.4095 62.5271 53.8788 56.1056 51.2572 52.0696C48.7855 48.2644 43.6915 47.1597 39.8798 49.6217C36.7596 51.6369 35.8608 55.8149 37.8759 58.935C39.3472 61.213 42.3919 61.8604 44.6757 60.398C46.8813 58.9857 46.796 56.191 45.8522 54.93C45.4874 54.4426 45.6686 53.7362 46.1801 53.406C46.6914 53.0758 47.3652 53.228 47.7041 53.7339C49.2066 55.9774 49.1854 60.0951 45.8717 62.2499C42.5792 64.391 38.1549 63.4303 36.0239 60.1309C33.3492 55.9897 34.5424 50.4445 38.6836 47.7698C43.5164 44.6487 49.9877 46.0409 53.1089 50.8737C53.5223 51.5137 53.8673 52.1782 54.1471 52.8589C54.6425 52.5954 55.1278 52.3147 55.5956 52.0144C56.1079 51.6858 56.7898 51.8344 57.1185 52.3467C57.4473 52.8591 57.2985 53.5409 56.7862 53.8697C56.1493 54.2784 55.4854 54.6578 54.8045 55.0039C54.9645 55.7751 55.048 56.5549 55.0572 57.3325C56.4144 56.6983 57.7161 55.9437 58.9413 55.075C59.4379 54.723 60.1259 54.8401 60.4781 55.3367C60.8305 55.8334 60.7133 56.5213 60.2167 56.8734Z" fill="white"/>
</g>
<defs>
<clipPath id="clip0_226_896">
<rect width="108" height="108" fill="white"/>
</clipPath>
</defs>
</svg>
