<svg xmlns="http://www.w3.org/2000/svg" version="1.1" xmlns:xlink="http://www.w3.org/1999/xlink" xmlns:svgjs="http://svgjs.com/svgjs" width="512" height="512" x="0" y="0" viewBox="0 0 508.054 508.054" style="enable-background:new 0 0 512 512" xml:space="preserve" class=""><g><g xmlns="http://www.w3.org/2000/svg"><path d="m267.644 415.793c0 5.51-4.48 10-10 10-5.51 0-10-4.49-10-10s4.49-10 10-10c5.52 0 10 4.49 10 10zm240.41-172.53c-.001 21.983-15.608 41.434-39.25 43.79-7.886.786-14.23 4.52-18.35 10.64-13.59 20.32-26.042 41.686-35.94 63.97-13.714 30.872-49.068 64.13-99.97 64.13h-11.88c-.01 0-.01 0-.02 0-5.51 0-10-4.48-10-10 0-5.51 4.49-10 10-10h11.9c34.91 0 67.03-20.62 81.83-52.54 10.69-23.06 23.29-45.49 37.45-66.67 7.31-10.98 19.338-17.907 32.94-19.43 13.585-1.521 21.327-12.65 21.29-23.89-.026-7.891-3.39-14.31-9.83-19.1-7.87-5.78-16.535-10.365-25.8-13.5-16.01-5.418-37.555-1.854-50.77 16.55-57.716 80.382-137.418 104.832-163.84 111.549-6.956 8.316-39.078 42.683-95.14 42.683-34.76 0-67.85 8.229-98.34 24.349h168.31c5.52 0 10 4.49 10 10s-4.48 10-10 10h-202.65c-9.064 0-13.92-11.853-6.02-17.99 23.899-18.568 56.53-33.105 82.003-39.289-20.837-10.017-39.726-25.397-52.695-46.494-52.868-86.001-11.184-176.15 45.465-211.304 81.279-50.438 191.989-34.568 248.919 53.559 16.156 25.01 26.854 53.149 31.437 82.362 8.897-9.062 17.154-18.715 24.665-28.87.495-39.022 9.41-76.452 26.568-111.297 2.44-4.955 8.435-6.993 13.389-4.553 4.955 2.44 6.993 8.435 4.553 13.389-12.162 24.697-19.844 50.806-22.962 77.914 25.322-25.354 55.657-45.286 89.037-58.33 5.141-2.01 10.943.529 12.954 5.674 2.01 5.144-.53 10.943-5.674 12.954-21.896 8.557-42.364 20.341-60.772 34.839 6.158.246 12.228 1.385 18.073 3.397 11.15 3.84 21.657 9.27 31.12 16.28 14.004 10.371 18 24.887 18 35.228zm-197.626 18.688c-15.229 10.798-31.652 19.82-48.872 26.906-1.633 8.35-4.225 16.507-7.724 24.299 31.865-10.874 61.079-27.513 87.147-49.652-2.6-31.35-12.62-62.028-30.114-88.38-36.056-54.312-88.719-73.907-135.744-73.121-43.354.725-89.567 15.912-123.457 62.507-29.515 40.581-30.607 103.895-1.583 146.658 34.056 50.177 101.407 66.07 152.057 32.717 46.532-30.642 50.79-88.9 27.006-125.516-22.425-34.523-68.639-44.545-103.221-22.209-28.307 18.283-36.462 56.187-18.18 84.494 13.348 20.667 40.971 26.541 61.691 13.273 20.01-12.813 19.236-38.167 10.673-49.608-3.309-4.422-1.665-10.83 2.975-13.826 4.639-2.996 10.752-1.615 13.826 2.975 13.632 20.354 13.439 57.711-16.624 77.26-29.871 19.425-70.01 10.709-89.343-19.224-24.266-37.571-13.441-87.879 24.13-112.145 43.845-28.316 102.555-15.685 130.872 28.16 3.75 5.806 6.88 11.835 9.419 18.01 4.494-2.39 8.897-4.937 13.141-7.661 4.648-2.981 10.834-1.633 13.817 3.015s1.633 10.834-3.015 13.817c-5.778 3.708-11.802 7.15-17.979 10.29 1.452 6.996 2.209 14.071 2.293 21.126 12.313-5.754 24.122-12.6 35.238-20.481 4.505-3.194 10.747-2.131 13.942 2.374 3.197 4.506 2.134 10.747-2.371 13.942z" fill="#FFFFFF" data-original="#000000" class=""></path></g></g></svg>