<svg xmlns="http://www.w3.org/2000/svg" version="1.1" xmlns:xlink="http://www.w3.org/1999/xlink" xmlns:svgjs="http://svgjs.com/svgjs" width="512" height="512" x="0" y="0" viewBox="0 0 512 512" style="enable-background:new 0 0 512 512" xml:space="preserve" class=""><g><g xmlns="http://www.w3.org/2000/svg"><path d="m304.1 0h-244.8c-26.1 0-47.4 21.3-47.4 47.4v417.1c0 26.2 21.3 47.5 47.4 47.5h244.8c26.2 0 47.4-21.3 47.4-47.5v-417.1c.1-26.1-21.2-47.4-47.4-47.4z" fill="#FFA000" data-original="#fcbc04" class=""></path><g fill="#4891D3"><ellipse cx="181.7" cy="345.5" rx="102.2" ry="102.2" transform="matrix(.707 -.707 .707 .707 -191.052 229.699)" fill="#DED5EF" data-original="#4891d3" class=""></ellipse><ellipse cx="181.7" cy="140.3" rx="76" ry="76" transform="matrix(.987 -.16 .16 .987 -20.126 30.924)" fill="#DED5EF" data-original="#4891d3" class=""></ellipse></g><g><g fill="#57B7EB"><circle cx="181.7" cy="345.5" r="73" fill="#DED5EF" data-original="#57b7eb" class=""></circle><path d="m181.7 187c25.8 0 46.7-21 46.7-46.7s-21-46.7-46.7-46.7c-25.8 0-46.7 21-46.7 46.7s21 46.7 46.7 46.7z" fill="#DED5EF" data-original="#57b7eb" class=""></path></g></g><g fill="#4891D3"><path d="m290.8 80.4c12.3 0 22.3-10 22.3-22.3s-10-22.3-22.3-22.3-22.3 10-22.3 22.3 10 22.3 22.3 22.3z" fill="#DED5EF" data-original="#4891d3" class=""></path><path d="m72.6 35.8c-12.3 0-22.3 10-22.3 22.3s10 22.3 22.3 22.3 22.4-10 22.4-22.3-10.1-22.3-22.4-22.3z" fill="#DED5EF" data-original="#4891d3" class=""></path><path d="m290.8 431.6c-12.3 0-22.3 10-22.3 22.3s10 22.3 22.3 22.3 22.3-10 22.3-22.3-10-22.3-22.3-22.3z" fill="#DED5EF" data-original="#4891d3" class=""></path><circle cx="72.6" cy="453.9" r="22.3" fill="#DED5EF" data-original="#4891d3" class=""></circle></g><g fill="#4891D3"><path d="m412.6 219.8c19 0 34.4-15.4 34.4-34.4s-15.4-34.4-34.4-34.4-34.4 15.4-34.4 34.4 15.5 34.4 34.4 34.4z" fill="#DED5EF" data-original="#4891d3" class=""></path><path d="m412.6 375.2c-19 0-34.4 15.4-34.4 34.4s15.4 34.4 34.4 34.4 34.4-15.4 34.4-34.4-15.4-34.4-34.4-34.4z" fill="#DED5EF" data-original="#4891d3" class=""></path></g><g><path d="m304.1 0h-244.8c-26.1 0-47.4 21.3-47.4 47.4v417.1c0 26.2 21.3 47.5 47.4 47.5h244.8c26.2 0 47.5-21.3 47.5-47.5v-417.1c0-26.1-21.3-47.4-47.5-47.4zm31.5 464.5c0 17.3-14.1 31.5-31.5 31.5h-244.8c-17.3 0-31.4-14.1-31.4-31.5v-417.1c0-17.3 14.1-31.4 31.4-31.4h244.8c17.3 0 31.5 14.1 31.5 31.4z" fill="#000000" data-original="#000000" class=""></path><path d="m181.7 243.3c-56.3 0-102.2 45.8-102.2 102.2s45.8 102.2 102.2 102.2 102.2-45.8 102.2-102.2-45.8-102.2-102.2-102.2zm0 188.4c-47.5 0-86.2-38.7-86.2-86.2s38.7-86.2 86.2-86.2 86.2 38.7 86.2 86.2-38.6 86.2-86.2 86.2z" fill="#000000" data-original="#000000" class=""></path><path d="m181.7 272.5c-40.2 0-73 32.7-73 73s32.7 73 73 73 73-32.7 73-73-32.7-73-73-73zm0 129.9c-31.4 0-57-25.6-57-57s25.6-57 57-57 57 25.6 57 57-25.5 57-57 57z" fill="#000000" data-original="#000000" class=""></path><path d="m181.7 216.3c41.9 0 76-34.1 76-76s-34.1-76-76-76-76 34.1-76 76 34.2 76 76 76zm0-136c33.1 0 60 26.9 60 60s-26.9 60-60 60-60-26.9-60-60 27-60 60-60z" fill="#000000" data-original="#000000" class=""></path><path d="m181.7 187c25.8 0 46.7-21 46.7-46.7s-21-46.7-46.7-46.7-46.7 21-46.7 46.7 21 46.7 46.7 46.7zm0-77.5c17 0 30.7 13.8 30.7 30.7s-13.7 30.8-30.7 30.8-30.7-13.7-30.7-30.7 13.8-30.8 30.7-30.8z" fill="#000000" data-original="#000000" class=""></path><path d="m290.8 431.6c-12.3 0-22.3 10-22.3 22.3s10 22.3 22.3 22.3 22.3-10 22.3-22.3-10-22.3-22.3-22.3zm0 28.6c-3.5 0-6.3-2.8-6.3-6.3s2.8-6.3 6.3-6.3 6.3 2.8 6.3 6.3-2.8 6.3-6.3 6.3z" fill="#000000" data-original="#000000" class=""></path><path d="m290.8 35.8c-12.3 0-22.3 10-22.3 22.3s10 22.3 22.3 22.3 22.3-10 22.3-22.3-10-22.3-22.3-22.3zm0 28.6c-3.5 0-6.3-2.8-6.3-6.3s2.8-6.3 6.3-6.3 6.3 2.8 6.3 6.3-2.8 6.3-6.3 6.3z" fill="#000000" data-original="#000000" class=""></path><path d="m72.6 80.4c12.3 0 22.3-10 22.3-22.3s-10-22.3-22.3-22.3-22.3 10-22.3 22.3 10 22.3 22.3 22.3zm0-28.6c3.5 0 6.3 2.8 6.3 6.3s-2.8 6.3-6.3 6.3-6.3-2.8-6.3-6.3 2.9-6.3 6.3-6.3z" fill="#000000" data-original="#000000" class=""></path><path d="m72.6 431.6c-12.3 0-22.3 10-22.3 22.3s10 22.3 22.3 22.3 22.3-10 22.3-22.3-10-22.3-22.3-22.3zm0 28.6c-3.5 0-6.3-2.8-6.3-6.3s2.8-6.3 6.3-6.3 6.3 2.8 6.3 6.3-2.8 6.3-6.3 6.3z" fill="#000000" data-original="#000000" class=""></path><path d="m412.6 219.8c19 0 34.4-15.4 34.4-34.4v-102.2c2.2 1.9 5.1 5.1 7.5 7.6 8.6 9.4 20.4 22.2 36.5 24.5 4.4.6 8.4-2.4 9.1-6.8.6-4.4-2.4-8.4-6.8-9.1-10.4-1.5-19.6-11.5-27-19.5-8.3-9-16.8-18.2-26.9-12.5-5.2 2.9-8.3 8.2-8.3 14.2v74.8c-5.3-3.4-11.6-5.3-18.4-5.3-19 0-34.4 15.4-34.4 34.4s15.4 34.3 34.3 34.3zm0-52.8c10.1 0 18.4 8.2 18.4 18.4s-8.2 18.4-18.4 18.4-18.4-8.2-18.4-18.4 8.3-18.4 18.4-18.4z" fill="#000000" data-original="#000000" class=""></path><path d="m493.2 323.6c-10.4-1.5-19.6-11.5-27-19.5-8.3-9-16.8-18.2-26.9-12.5-5.2 2.9-8.3 8.2-8.3 14.2v74.8c-5.3-3.4-11.6-5.3-18.4-5.3-19 0-34.4 15.4-34.4 34.4s15.4 34.4 34.4 34.4 34.4-15.4 34.4-34.4v-102.3c2.2 1.9 5.1 5.1 7.5 7.6 8.6 9.4 20.4 22.2 36.5 24.5 4.4.6 8.4-2.4 9.1-6.8.6-4.4-2.5-8.5-6.9-9.1zm-80.6 104.4c-10.1 0-18.4-8.2-18.4-18.4s8.2-18.4 18.4-18.4 18.4 8.2 18.4 18.4-8.3 18.4-18.4 18.4z" fill="#000000" data-original="#000000" class=""></path></g></g></g></svg>