<svg xmlns="http://www.w3.org/2000/svg" version="1.1" xmlns:xlink="http://www.w3.org/1999/xlink" xmlns:svgjs="http://svgjs.com/svgjs" width="512" height="512" x="0" y="0" viewBox="0 0 525.624 525.624" style="enable-background:new 0 0 512 512" xml:space="preserve" class=""><g>
<g xmlns="http://www.w3.org/2000/svg">
	<g>
		<path d="M5.893,369.377c40.793,33.412,91.721,51.814,143.407,51.814c0,0,0.003,0,0.006,0c21.414,0,42.745-3.113,63.397-9.256    c36.836-10.957,80.662-36.648,108.156-72.525c-4.269,18.039-11.047,36.088-19.73,52.125    c-28.312,52.283-84.197,88.568-145.846,94.697c-10.787,1.074-16.172,10.479-15.759,18.779c0.438,8.783,6.656,14.914,15.129,14.914    c0.593,0,1.208-0.029,1.842-0.092c75.074-7.463,140.993-50.881,176.333-116.143c18.299-33.797,31.126-82.947,25.196-127.758    c9.733,15.77,17.705,33.326,22.904,50.809c16.949,56.99,3.094,122.164-36.163,170.09c-4.373,5.338-5.215,12.256-2.253,18.508    c2.91,6.146,8.997,10.275,15.147,10.275c4.449,0,8.61-2.09,11.72-5.881c47.807-58.363,63.716-135.676,42.559-206.809    c-10.958-36.838-36.644-80.664-72.525-108.158c18.036,4.269,36.087,11.047,52.124,19.731    c52.283,28.311,88.569,84.197,94.698,145.845c1.031,10.361,9.765,15.783,17.858,15.783c4.779,0,9.188-1.844,12.099-5.057    c1.983-2.191,4.227-6.041,3.642-11.936c-7.463-75.072-50.879-140.992-116.143-176.332    c-31.337-16.968-69.483-26.702-104.651-26.702c-7.956,0-15.655,0.496-23.069,1.481c15.759-9.725,33.302-17.687,50.769-22.883    c15.875-4.721,32.552-7.117,49.56-7.117c43.653,0,86.457,15.37,120.53,43.28c3.188,2.61,6.961,3.99,10.915,3.99    c7.387,0,14.528-4.988,16.982-11.86c2.188-6.126,0.321-12.387-4.993-16.744c-40.793-33.412-91.724-51.815-143.407-51.815    c-21.42,0-42.751,3.115-63.403,9.257c-36.839,10.958-80.665,36.646-108.159,72.525c4.269-18.036,11.046-36.083,19.731-52.127    c28.311-52.283,84.196-88.569,145.846-94.698c10.786-1.074,16.172-10.478,15.759-18.779c-0.438-8.782-6.655-14.915-15.129-14.915    c-0.593,0-1.208,0.031-1.842,0.092c-75.074,7.463-140.993,50.882-176.333,116.142c-18.299,33.798-31.126,82.948-25.196,127.761    c-9.737-15.771-17.706-33.326-22.904-50.808c-16.952-56.989-3.094-122.165,36.166-170.09c4.37-5.337,5.211-12.255,2.249-18.51    c-2.91-6.145-8.996-10.275-15.147-10.275c-4.449,0-8.611,2.09-11.72,5.881c-47.797,58.37-63.706,135.68-42.549,206.813    c10.958,36.839,36.644,80.665,72.522,108.159c-18.036-4.27-36.083-11.047-52.124-19.73    c-52.283-28.312-88.568-84.197-94.698-145.846c-1.031-10.361-9.764-15.784-17.858-15.784c-4.78,0-9.189,1.845-12.099,5.058    c-1.983,2.191-4.226,6.041-3.642,11.934c7.463,75.074,50.882,140.993,116.142,176.333c31.337,16.967,69.48,26.701,104.652,26.701    c7.956,0,15.658-0.496,23.069-1.48c-15.759,9.725-33.302,17.686-50.771,22.883c-15.875,4.721-32.549,7.117-49.56,7.117    c-43.651,0-86.457-15.367-120.53-43.281c-3.186-2.609-6.958-3.99-10.912-3.99c-7.387,0-14.529,4.988-16.986,11.861    C-1.292,358.762,0.575,365.02,5.893,369.377z" fill="#EE8126" data-original="#000000" class=""></path>
	</g>
</g>
<g xmlns="http://www.w3.org/2000/svg">
</g>
<g xmlns="http://www.w3.org/2000/svg">
</g>
<g xmlns="http://www.w3.org/2000/svg">
</g>
<g xmlns="http://www.w3.org/2000/svg">
</g>
<g xmlns="http://www.w3.org/2000/svg">
</g>
<g xmlns="http://www.w3.org/2000/svg">
</g>
<g xmlns="http://www.w3.org/2000/svg">
</g>
<g xmlns="http://www.w3.org/2000/svg">
</g>
<g xmlns="http://www.w3.org/2000/svg">
</g>
<g xmlns="http://www.w3.org/2000/svg">
</g>
<g xmlns="http://www.w3.org/2000/svg">
</g>
<g xmlns="http://www.w3.org/2000/svg">
</g>
<g xmlns="http://www.w3.org/2000/svg">
</g>
<g xmlns="http://www.w3.org/2000/svg">
</g>
<g xmlns="http://www.w3.org/2000/svg">
</g>
</g></svg>