<svg xmlns="http://www.w3.org/2000/svg" version="1.1" xmlns:xlink="http://www.w3.org/1999/xlink" xmlns:svgjs="http://svgjs.com/svgjs" width="512" height="512" x="0" y="0" viewBox="0 0 511.999 511.999" style="enable-background:new 0 0 512 512" xml:space="preserve" class=""><g>
<path xmlns="http://www.w3.org/2000/svg" style="" d="M456.622,223.065l-123.869-17.999L277.357,92.821c-8.736-17.702-33.979-17.702-42.715,0  l-55.396,112.244L55.378,223.064c-19.535,2.839-27.335,26.845-13.2,40.624l89.632,87.37l-21.16,123.369  c-3.337,19.456,17.084,34.293,34.557,25.107l110.792-58.247l110.792,58.247c17.473,9.186,37.894-5.651,34.557-25.107l-21.16-123.369  l89.632-87.37C483.957,249.91,476.157,225.903,456.622,223.065z" fill="#28FFCB" data-original="#ffca28" class=""></path>
<path xmlns="http://www.w3.org/2000/svg" style="" d="M256,79.545L256,79.545c-8.495,0-16.989,4.425-21.357,13.276l-55.396,112.245L55.378,223.065  c-19.535,2.839-27.335,26.845-13.2,40.624l89.632,87.37l-21.16,123.369c-3.337,19.456,17.084,34.293,34.557,25.107L256,441.288  C129.898,298.601,256,79.545,256,79.545z" fill="#28FFCB" data-original="#e6b624" class=""></path>
<path xmlns="http://www.w3.org/2000/svg" d="M457.701,215.643L337.733,198.21L284.082,89.501c-5.314-10.768-16.075-17.457-28.083-17.457  c-12.008,0-22.769,6.689-28.083,17.457L174.266,198.21L54.298,215.643c-11.883,1.727-21.57,9.894-25.28,21.313  c-3.711,11.42-0.674,23.722,7.925,32.103l86.809,84.618L103.259,473.16c-1.589,9.266,0.837,18.285,6.83,25.395  c9.422,11.177,25.69,14.409,38.609,7.618L256,449.76c0,0,107.258,56.39,107.301,56.413c12.99,6.829,29.139,3.616,38.606-7.613  c5.996-7.111,8.423-16.132,6.833-25.4l-20.492-119.483l86.809-84.618c8.599-8.381,11.635-20.683,7.925-32.103  C479.271,225.536,469.584,217.369,457.701,215.643z M464.586,258.318l-89.632,87.37c-1.768,1.723-2.575,4.206-2.157,6.638  l21.16,123.369c0.83,4.836-0.419,9.522-3.516,13.195c-4.987,5.916-13.32,7.602-20.159,4.006c0,0-110.781-58.242-110.791-58.247  c-2.167-1.139-4.814-1.138-6.98,0c0,0-110.736,58.217-110.792,58.247c-6.495,3.415-15.065,2.035-20.159-4.007  c-3.096-3.673-4.345-8.358-3.516-13.193l21.16-123.369c0.417-2.433-0.389-4.915-2.157-6.638l-89.634-87.371  c-4.548-4.433-6.091-10.686-4.129-16.727c1.963-6.04,6.887-10.191,13.172-11.105l123.87-18c2.443-0.355,4.555-1.889,5.647-4.103  L241.368,96.14c2.811-5.695,8.281-9.096,14.632-9.096c6.351,0,11.821,3.4,14.632,9.096l55.396,112.245  c1.092,2.213,3.204,3.748,5.647,4.103l123.87,18c6.285,0.914,11.209,5.065,13.172,11.105  C470.678,247.632,469.135,253.885,464.586,258.318z" fill="#000000" data-original="#000000" class=""></path>
<path xmlns="http://www.w3.org/2000/svg" d="M106.368,152.254c2.846-0.028,5.611-1.67,6.84-4.391c1.705-3.775,0.026-8.217-3.749-9.922L10.588,93.29  c-3.775-1.704-8.217-0.026-9.922,3.749s-0.026,8.217,3.749,9.922c0,0,98.871,44.652,98.876,44.654  C104.28,152.06,105.329,152.264,106.368,152.254z" fill="#000000" data-original="#000000" class=""></path>
<path xmlns="http://www.w3.org/2000/svg" d="M149.888,3.633c-3.384,2.389-4.191,7.068-1.802,10.453c0,0,38.214,54.137,38.272,54.22  c2.256,3.196,7.025,4.221,10.453,1.802c3.384-2.389,4.191-7.068,1.802-10.453l-38.272-54.22  C157.951,2.051,153.271,1.246,149.888,3.633z" fill="#000000" data-original="#000000" class=""></path>
<path xmlns="http://www.w3.org/2000/svg" d="M501.411,93.29l-98.87,44.652c-3.775,1.705-5.453,6.147-3.749,9.922c1.678,3.716,6.211,5.424,9.922,3.749l98.87-44.652  c3.775-1.705,5.453-6.147,3.749-9.922C509.628,93.264,505.185,91.585,501.411,93.29z" fill="#000000" data-original="#000000" class=""></path>
<path xmlns="http://www.w3.org/2000/svg" d="M351.659,5.435l-38.272,54.22c-2.389,3.384-1.582,8.064,1.802,10.452c3.19,2.252,8.012,1.656,10.453-1.802l38.272-54.22  c2.389-3.384,1.582-8.064-1.802-10.453C358.727,1.244,354.047,2.051,351.659,5.435z" fill="#000000" data-original="#000000" class=""></path>
<g xmlns="http://www.w3.org/2000/svg">
</g>
<g xmlns="http://www.w3.org/2000/svg">
</g>
<g xmlns="http://www.w3.org/2000/svg">
</g>
<g xmlns="http://www.w3.org/2000/svg">
</g>
<g xmlns="http://www.w3.org/2000/svg">
</g>
<g xmlns="http://www.w3.org/2000/svg">
</g>
<g xmlns="http://www.w3.org/2000/svg">
</g>
<g xmlns="http://www.w3.org/2000/svg">
</g>
<g xmlns="http://www.w3.org/2000/svg">
</g>
<g xmlns="http://www.w3.org/2000/svg">
</g>
<g xmlns="http://www.w3.org/2000/svg">
</g>
<g xmlns="http://www.w3.org/2000/svg">
</g>
<g xmlns="http://www.w3.org/2000/svg">
</g>
<g xmlns="http://www.w3.org/2000/svg">
</g>
<g xmlns="http://www.w3.org/2000/svg">
</g>
</g></svg>