<svg width="60" height="60" viewBox="0 0 60 60" fill="none" xmlns="http://www.w3.org/2000/svg">
<g clip-path="url(#clip0_3366_5269)">
<path d="M8.80078 38.8007V54.0535C8.80078 57.3376 11.4631 60 14.7473 60H21.883H30.0001L37.1359 49.4004L30.0001 38.8008L15.9366 35.9465L8.80078 38.8007Z" fill="#B28AE4"/>
<path d="M17.1258 54.0535V38.8006H30.0001L19.5363 30.811C17.3191 29.118 14.6068 28.2009 11.8171 28.2009H3.27811C0.574008 28.2009 -0.586388 31.6331 1.56279 33.2741L8.80073 38.8006V54.0535C8.80073 57.3376 11.4631 60 14.7472 60H23.0723C19.7882 60 17.1258 57.3376 17.1258 54.0535Z" fill="#976BCF"/>
<path d="M56.7219 28.2009H48.1829C45.3933 28.2009 42.681 29.118 40.4638 30.811L30 38.8006L40.6591 43.5578L51.1992 38.8006L58.4371 33.2741C60.5864 31.6331 59.4259 28.2009 56.7219 28.2009Z" fill="#B28AE4"/>
<path d="M30 38.8007V60H45.2528C48.537 60 51.1993 57.3376 51.1993 54.0535V38.8007C50.341 38.8007 30.8726 38.8007 30 38.8007Z" fill="#C9AAF2"/>
<path d="M36.0289 53.4297C36.0252 54.6052 34.8256 55.5544 33.3494 55.5498C31.8732 55.5451 30.6795 54.5885 30.6832 53.413C30.6869 52.2375 31.8866 51.2882 33.3627 51.2928C34.8389 51.2976 36.0326 52.2542 36.0289 53.4297Z" fill="#FF8E9E"/>
<path d="M45.1707 53.4584C45.167 54.6339 46.3607 55.5905 47.8368 55.5952C49.313 55.5998 50.5126 54.6506 50.5163 53.4751C50.52 52.2996 49.3263 51.3429 47.8501 51.3383C46.374 51.3337 45.1743 52.2829 45.1707 53.4584Z" fill="#FF8E9E"/>
<path d="M34.1775 48.999C33.6849 48.999 33.2855 49.3984 33.2855 49.891V51.0803C33.2855 51.5729 33.6849 51.9723 34.1775 51.9723C34.6701 51.9723 35.0695 51.5729 35.0695 51.0803V49.891C35.0695 49.3984 34.6702 48.999 34.1775 48.999Z" fill="#313D40"/>
<path d="M47.0219 48.999C46.5292 48.999 46.1299 49.3984 46.1299 49.891V51.0803C46.1299 51.5729 46.5292 51.9723 47.0219 51.9723C47.5145 51.9723 47.9138 51.5729 47.9138 51.0803V49.891C47.9138 49.3984 47.5146 48.999 47.0219 48.999Z" fill="#313D40"/>
<path d="M42.9469 50.0378C42.5025 49.8251 41.9699 50.0133 41.7575 50.4577C41.5593 50.8721 41.1282 51.1398 40.6593 51.1398C40.1903 51.1398 39.7592 50.8721 39.5611 50.4577C39.3486 50.0133 38.8159 49.8253 38.3717 50.0378C37.9272 50.2503 37.7392 50.7829 37.9517 51.2272C38.4446 52.2578 39.5073 52.9237 40.6593 52.9237C41.8112 52.9237 42.8741 52.2578 43.3668 51.2272C43.5794 50.7829 43.3913 50.2503 42.9469 50.0378Z" fill="#313D40"/>
<path d="M36.1527 18.8327L33.4715 18.4408L32.2725 15.9974C31.346 14.1096 28.6593 14.099 27.7277 15.9974L26.5287 18.4408L23.8475 18.8327C21.769 19.1364 20.9391 21.7053 22.4431 23.1797L24.3832 25.0815L23.9252 27.767C23.5702 29.8489 25.7429 31.4366 27.602 30.4536L30.0001 29.1857C32.1672 30.3316 31.4538 29.9544 32.3982 30.4536C34.2572 31.4366 36.43 29.8489 36.0749 27.767L35.6169 25.0815L37.557 23.1797C39.0611 21.7053 38.2312 19.1365 36.1527 18.8327Z" fill="#FFA000"/>
<path d="M21.1451 14.062C20.5648 13.7069 19.9285 13.4342 19.2528 13.2603C19.0788 12.5844 18.8061 11.9483 18.451 11.368C18.0185 10.6614 17.0061 10.6614 16.5738 11.368C16.2186 11.9483 15.9459 12.5845 15.7719 13.2603C15.0962 13.4343 14.46 13.7069 13.8797 14.062C13.1731 14.4943 13.1731 15.5067 13.8797 15.9392C14.4599 16.2943 15.0964 16.5682 15.7723 16.7422C15.9463 17.4179 16.2186 18.0529 16.5738 18.6332C17.0061 19.3397 18.0185 19.3397 18.451 18.6332C18.8061 18.0529 19.0783 17.4179 19.2524 16.7422C19.9282 16.5682 20.5648 16.2943 21.1449 15.9392C21.8516 15.5067 21.8516 14.4943 21.1451 14.062Z" fill="#FFA000"/>
<path d="M44.9311 6.92625C44.3508 6.57112 43.7145 6.29842 43.0388 6.12454C42.8648 5.44866 42.5921 4.81251 42.237 4.23225C41.8045 3.52569 40.7921 3.52569 40.3598 4.23225C40.0047 4.81251 39.7319 5.44878 39.558 6.12454C38.8822 6.29854 38.246 6.57112 37.6657 6.92625C36.9591 7.35856 36.9591 8.371 37.6657 8.80343C38.2459 9.15856 38.8824 9.43245 39.5583 9.60644C39.7323 10.2822 40.0047 10.9172 40.3598 11.4974C40.7921 12.204 41.8045 12.204 42.237 11.4974C42.5921 10.9172 42.8643 10.2822 43.0384 9.60644C43.7142 9.43245 44.3508 9.15856 44.931 8.80343C45.6375 8.37088 45.6376 7.35856 44.9311 6.92625Z" fill="#FFA000"/>
<path d="M11.8632 20.2181H11.1497C10.6571 20.2181 10.2577 20.6174 10.2577 21.1101C10.2577 21.6027 10.6571 22.002 11.1497 22.002H11.8632C12.3558 22.002 12.7552 21.6027 12.7552 21.1101C12.7552 20.6174 12.3558 20.2181 11.8632 20.2181Z" fill="white"/>
<path d="M7.81966 20.2181H7.10608C6.61348 20.2181 6.21411 20.6174 6.21411 21.1101C6.21411 21.6027 6.61348 22.002 7.10608 22.002H7.81966C8.31227 22.002 8.71163 21.6027 8.71163 21.1101C8.71163 20.6174 8.31227 20.2181 7.81966 20.2181Z" fill="white"/>
<path d="M9.48462 21.8831C8.99202 21.8831 8.59265 22.2824 8.59265 22.775V23.4886C8.59265 23.9812 8.99202 24.3806 9.48462 24.3806C9.97723 24.3806 10.3766 23.9812 10.3766 23.4886V22.775C10.3766 22.2824 9.97723 21.8831 9.48462 21.8831Z" fill="white"/>
<path d="M9.48462 20.337C9.97723 20.337 10.3766 19.9376 10.3766 19.445V18.7314C10.3766 18.2388 9.97723 17.8395 9.48462 17.8395C8.99202 17.8395 8.59265 18.2388 8.59265 18.7314V19.445C8.59265 19.9376 8.99202 20.337 9.48462 20.337Z" fill="white"/>
<path d="M53.4886 17.8395H52.775C52.2824 17.8395 51.8831 18.2388 51.8831 18.7314C51.8831 19.2241 52.2824 19.6234 52.775 19.6234H53.4886C53.9812 19.6234 54.3806 19.2241 54.3806 18.7314C54.3806 18.2388 53.9812 17.8395 53.4886 17.8395Z" fill="white"/>
<path d="M49.445 17.8395H48.7314C48.2388 17.8395 47.8395 18.2388 47.8395 18.7314C47.8395 19.2241 48.2388 19.6234 48.7314 19.6234H49.445C49.9376 19.6234 50.337 19.2241 50.337 18.7314C50.337 18.2388 49.9376 17.8395 49.445 17.8395Z" fill="white"/>
<path d="M51.11 19.5045C50.6174 19.5045 50.218 19.9038 50.218 20.3964V21.11C50.218 21.6026 50.6174 22.002 51.11 22.002C51.6026 22.002 52.002 21.6026 52.002 21.11V20.3964C52.002 19.9038 51.6026 19.5045 51.11 19.5045Z" fill="white"/>
<path d="M51.11 17.9584C51.6026 17.9584 52.002 17.559 52.002 17.0664V16.3528C52.002 15.8602 51.6026 15.4609 51.11 15.4609C50.6174 15.4609 50.218 15.8602 50.218 16.3528V17.0664C50.218 17.559 50.6174 17.9584 51.11 17.9584Z" fill="white"/>
<path d="M32.3786 2.3786H31.665C31.1724 2.3786 30.7731 2.77797 30.7731 3.27057C30.7731 3.76318 31.1724 4.16255 31.665 4.16255H32.3786C32.8712 4.16255 33.2706 3.76318 33.2706 3.27057C33.2706 2.77797 32.8712 2.3786 32.3786 2.3786Z" fill="white"/>
<path d="M28.335 2.3786H27.6215C27.1289 2.3786 26.7295 2.77797 26.7295 3.27057C26.7295 3.76318 27.1289 4.16255 27.6215 4.16255H28.335C28.8276 4.16255 29.227 3.76318 29.227 3.27057C29.227 2.77797 28.8276 2.3786 28.335 2.3786Z" fill="white"/>
<path d="M30 4.04364C29.5074 4.04364 29.108 4.44301 29.108 4.93561V5.64919C29.108 6.1418 29.5074 6.54116 30 6.54116C30.4926 6.54116 30.892 6.1418 30.892 5.64919V4.93561C30.892 4.44301 30.4926 4.04364 30 4.04364Z" fill="white"/>
<path d="M30 2.49752C30.4926 2.49752 30.892 2.09816 30.892 1.60555V0.891972C30.892 0.399366 30.4926 0 30 0C29.5074 0 29.108 0.399366 29.108 0.891972V1.60555C29.108 2.09816 29.5074 2.49752 30 2.49752Z" fill="white"/>
<path d="M18.2703 43.8727V52.6H16.1652V45.8415H16.1141L14.1624 47.0346V45.2108L16.3144 43.8727H18.2703ZM20.1997 52.6V51.0829L23.3829 48.296C23.6215 48.0801 23.8247 47.8826 23.9923 47.7037C24.1599 47.5219 24.2877 47.34 24.3758 47.1582C24.4639 46.9736 24.5079 46.7733 24.5079 46.5574C24.5079 46.3159 24.4553 46.1099 24.3502 45.9395C24.2451 45.7662 24.1002 45.6326 23.9156 45.5389C23.7309 45.4451 23.5193 45.3983 23.2806 45.3983C23.0392 45.3983 22.8275 45.448 22.6457 45.5474C22.4639 45.644 22.3218 45.7846 22.2196 45.9693C22.1201 46.154 22.0704 46.3784 22.0704 46.6426H20.0718C20.0718 46.0488 20.2053 45.5361 20.4724 45.1042C20.7394 44.6724 21.1144 44.34 21.5974 44.1071C22.0832 43.8713 22.6471 43.7534 23.2892 43.7534C23.9511 43.7534 24.5264 43.8642 25.015 44.0858C25.5036 44.3074 25.8815 44.617 26.1485 45.0147C26.4184 45.4096 26.5534 45.8684 26.5534 46.3912C26.5534 46.7236 26.4866 47.0531 26.3531 47.3798C26.2196 47.7065 25.9795 48.0673 25.6329 48.4622C25.2892 48.8571 24.8005 49.3301 24.167 49.8812L23.123 50.8443V50.8997H26.6599V52.6H20.1997Z" fill="#000063"/>
</g>
<defs>
<clipPath id="clip0_3366_5269">
<rect width="60" height="60" fill="white"/>
</clipPath>
</defs>
</svg>
