<svg xmlns="http://www.w3.org/2000/svg" version="1.1" xmlns:xlink="http://www.w3.org/1999/xlink" xmlns:svgjs="http://svgjs.com/svgjs" width="512" height="512" x="0" y="0" viewBox="0 0 512 512" style="enable-background:new 0 0 512 512" xml:space="preserve"><g>
<path xmlns="http://www.w3.org/2000/svg" style="" d="M497.666,185.695l-156.615-22.757L271.009,21.019c-6.126-12.414-23.887-12.42-30.018,0  l-70.04,141.919L14.336,185.695c-13.697,1.991-19.198,18.879-9.276,28.549l113.327,110.468L91.633,480.694  c-1.078,6.28,1.503,12.625,6.659,16.371c5.154,3.744,11.986,4.238,17.626,1.273L256,424.695  c152.506,80.175,142.031,75.567,147.869,75.567c10.316,0,18.259-9.3,16.498-19.568l-26.753-155.982l113.328-110.468  C516.853,204.581,511.374,187.688,497.666,185.695z" fill="#F7AC16" data-original="#f7ac16"></path>
<path xmlns="http://www.w3.org/2000/svg" style="" d="M256.001,11.689c-6.384,0-12.196,3.629-15.011,9.33l-70.04,141.919L14.336,185.695  c-13.697,1.991-19.198,18.879-9.276,28.549l113.327,110.468L91.633,480.694c-1.078,6.28,1.503,12.625,6.659,16.371  c5.154,3.744,11.986,4.238,17.626,1.273L256,424.695h0.001V11.689z" fill="#F2D422" data-original="#f2d422"></path>
<path xmlns="http://www.w3.org/2000/svg" style="" d="M14.336,185.695c-13.697,1.991-19.198,18.879-9.276,28.549l113.327,110.468L91.633,480.694  c-1.078,6.28,1.503,12.625,6.659,16.371c5.154,3.744,11.986,4.238,17.626,1.273L256,424.695  c152.506,80.175,142.031,75.567,147.869,75.567c3.47,0,6.924-1.079,9.839-3.197L170.95,162.937L14.336,185.695z" fill="#F7AC16" data-original="#f7ac16"></path>
<path xmlns="http://www.w3.org/2000/svg" style="" d="M178.558,305.445C57.164,187.114,62.382,193.456,60.753,187.319  c-0.663-2.465-0.799-5.333-0.078-8.358l-46.339,6.733c-13.697,1.991-19.198,18.879-9.276,28.549l113.327,110.468L91.633,480.694  c-1.078,6.28,1.503,12.625,6.659,16.371c5.154,3.744,11.986,4.238,17.626,1.273l41.187-21.653c-4.237-3.816-6.279-9.56-5.301-15.258  L178.558,305.445z" fill="#F48B19" data-original="#f48b19"></path>
<path xmlns="http://www.w3.org/2000/svg" style="" d="M5.06,214.244l113.327,110.468L91.633,480.694c-1.078,6.28,1.503,12.625,6.659,16.371  c5.154,3.744,11.986,4.238,17.626,1.273L256,424.695c152.506,80.175,142.031,75.567,147.869,75.567  c10.316,0,18.259-9.3,16.498-19.568l-26.753-155.982L0.823,197.086C-1.134,204.101,0.825,210.118,5.06,214.244z" fill="#F2D422" data-original="#f2d422"></path>
<path xmlns="http://www.w3.org/2000/svg" style="" d="M5.06,214.244l113.327,110.468L91.633,480.694c-1.078,6.28,1.503,12.625,6.659,16.371  c5.154,3.744,11.986,4.238,17.626,1.273l41.187-21.653c-4.237-3.816-6.279-9.56-5.301-15.258l26.754-155.982l-77.878-75.913  L0.823,197.086C-1.134,204.101,0.825,210.118,5.06,214.244z" fill="#EFB616" data-original="#efb616"></path>
<path xmlns="http://www.w3.org/2000/svg" style="" d="M91.633,480.694c-1.078,6.28,1.503,12.625,6.659,16.371c5.154,3.744,11.986,4.238,17.626,1.273  L256,424.695c152.506,80.175,142.031,75.567,147.869,75.567c10.316,0,18.259-9.3,16.498-19.568l-26.753-155.982l113.328-110.468  c4.561-4.447,6.202-11.099,4.235-17.157l-392.79,127.625L91.633,480.694z" fill="#F7AC16" data-original="#f7ac16"></path>
<path xmlns="http://www.w3.org/2000/svg" style="" d="M91.633,480.694c-1.078,6.28,1.503,12.625,6.659,16.371c5.154,3.744,11.986,4.238,17.626,1.273  l41.187-21.653c-4.237-3.816-6.279-9.56-5.301-15.258l26.754-155.982l-0.219-0.213l-59.952,19.48L91.633,480.694z" fill="#F48B19" data-original="#f48b19"></path>
<path xmlns="http://www.w3.org/2000/svg" style="" d="M115.919,498.338L256,424.695c152.506,80.175,142.031,75.567,147.869,75.567  c10.316,0,18.259-9.3,16.498-19.568l-26.753-155.982l113.328-110.468c9.91-9.663,4.431-26.556-9.277-28.549L341.05,162.938  L98.292,497.065C103.446,500.809,110.278,501.303,115.919,498.338z" fill="#F2D422" data-original="#f2d422"></path>
<path xmlns="http://www.w3.org/2000/svg" style="" d="M511.178,197.086L256,279.998L98.292,497.065c5.154,3.744,11.986,4.238,17.626,1.273L256,424.695  c152.506,80.175,142.031,75.567,147.869,75.567c10.316,0,18.259-9.3,16.498-19.568l-26.753-155.982l113.328-110.468  C511.504,209.796,513.145,203.145,511.178,197.086z" fill="#F7AC16" data-original="#f7ac16"></path>
<path xmlns="http://www.w3.org/2000/svg" style="" d="M393.615,324.712L256,279.998L98.292,497.065c5.154,3.744,11.986,4.238,17.626,1.273L256,424.695  c152.506,80.175,142.031,75.567,147.869,75.567c10.316,0,18.259-9.3,16.498-19.568L393.615,324.712z" fill="#F2D422" data-original="#f2d422"></path>
<path xmlns="http://www.w3.org/2000/svg" style="" d="M98.292,497.065c5.154,3.744,11.986,4.238,17.626,1.273L256,424.695  c152.506,80.175,142.031,75.567,147.869,75.567c3.47,0,6.924-1.079,9.839-3.197L256,279.998L98.292,497.065z" fill="#F7AC16" data-original="#f7ac16"></path>
<path xmlns="http://www.w3.org/2000/svg" style="" d="M256.001,280L256,279.998L98.292,497.065c5.154,3.744,11.986,4.238,17.626,1.273L256,424.695h0.001  V280z" fill="#F2D422" data-original="#f2d422"></path>
<path xmlns="http://www.w3.org/2000/svg" style="" d="M160.339,411.665l-62.047,85.4c5.154,3.744,11.986,4.238,17.626,1.273l41.187-21.653  c-4.237-3.816-6.279-9.56-5.301-15.258L160.339,411.665z" fill="#EFB616" data-original="#efb616"></path>
<g xmlns="http://www.w3.org/2000/svg">
</g>
<g xmlns="http://www.w3.org/2000/svg">
</g>
<g xmlns="http://www.w3.org/2000/svg">
</g>
<g xmlns="http://www.w3.org/2000/svg">
</g>
<g xmlns="http://www.w3.org/2000/svg">
</g>
<g xmlns="http://www.w3.org/2000/svg">
</g>
<g xmlns="http://www.w3.org/2000/svg">
</g>
<g xmlns="http://www.w3.org/2000/svg">
</g>
<g xmlns="http://www.w3.org/2000/svg">
</g>
<g xmlns="http://www.w3.org/2000/svg">
</g>
<g xmlns="http://www.w3.org/2000/svg">
</g>
<g xmlns="http://www.w3.org/2000/svg">
</g>
<g xmlns="http://www.w3.org/2000/svg">
</g>
<g xmlns="http://www.w3.org/2000/svg">
</g>
<g xmlns="http://www.w3.org/2000/svg">
</g>
</g></svg>