<svg xmlns="http://www.w3.org/2000/svg" version="1.1" xmlns:xlink="http://www.w3.org/1999/xlink" xmlns:svgjs="http://svgjs.com/svgjs" width="512" height="512" x="0" y="0" viewBox="0 0 512.00006 512" style="enable-background:new 0 0 512 512" xml:space="preserve" class=""><g><path xmlns="http://www.w3.org/2000/svg" d="m493.929688 222.535156c20.710937-20.1875 9.28125-55.359375-19.335938-59.515625l-111.269531-16.167969c-11.367188-1.652343-21.191407-8.792968-26.273438-19.089843l-49.761719-100.828125c-12.800781-25.933594-49.78125-25.933594-62.578124 0l-49.761719 100.828125c-5.082031 10.296875-14.90625 17.4375-26.273438 19.089843l-111.269531 16.167969c-28.621094 4.15625-40.046875 39.328125-19.339844 59.515625l80.519532 78.484375c8.222656 8.015625 11.972656 19.5625 10.035156 30.882813l-19.007813 110.820312c-4.890625 28.503906 25.027344 50.242188 50.625 36.78125l99.523438-52.320312c10.164062-5.34375 22.308593-5.34375 32.472656 0l99.523437 52.320312c25.597657 13.457032 55.515626-8.277344 50.628907-36.78125l-19.007813-110.820312c-1.941406-11.316406 1.8125-22.867188 10.035156-30.882813zm0 0" fill="#FFA000" data-original="#f4e64c"></path><path xmlns="http://www.w3.org/2000/svg" d="m129.613281 452.722656 19.007813-110.820312c1.941406-11.320313-1.8125-22.867188-10.035156-30.882813l-80.515626-78.484375c-20.710937-20.1875-9.28125-55.359375 19.335938-59.515625l111.269531-16.167969c11.367188-1.652343 21.191407-8.789062 26.273438-19.089843l49.761719-100.828125c4.09375-8.292969 10.664062-13.917969 18.121093-16.90625-15.414062-18.761719-46.585937-16.464844-58.121093 6.90625l-49.761719 100.828125c-5.082031 10.300781-14.90625 17.4375-26.273438 19.089843l-111.269531 16.167969c-28.621094 4.15625-40.046875 39.328125-19.339844 59.515625l80.519532 78.484375c8.222656 8.015625 11.972656 19.5625 10.035156 30.882813l-19.007813 110.820312c-4.695312 27.367188 22.695313 48.476563 47.546875 38.207032-6.164062-7.339844-9.421875-17.269532-7.546875-28.207032zm0 0" fill="#FFFFAA" data-original="#fab659" class="" fill-opacity="0"></path><path xmlns="http://www.w3.org/2000/svg" d="m159.28125 222.167969v16.148437c0 4.144532 3.355469 7.5 7.5 7.5 4.140625 0 7.5-3.355468 7.5-7.5v-16.148437c0-4.140625-3.359375-7.5-7.5-7.5-4.144531 0-7.5 3.359375-7.5 7.5zm0 0" fill="#000000" data-original="#000000" class=""></path><path xmlns="http://www.w3.org/2000/svg" d="m352.71875 238.316406v-16.148437c0-4.140625-3.359375-7.5-7.5-7.5s-7.5 3.359375-7.5 7.5v16.148437c0 4.144532 3.359375 7.5 7.5 7.5s7.5-3.355468 7.5-7.5zm0 0" fill="#000000" data-original="#000000" class=""></path><path xmlns="http://www.w3.org/2000/svg" d="m256 254.4375c10.746094 0 20.832031-4.484375 27.667969-12.308594 2.726562-3.117187 2.40625-7.855468-.710938-10.582031-3.117187-2.726563-7.855469-2.410156-10.582031.710937-3.988281 4.5625-9.957031 7.179688-16.375 7.179688s-12.386719-2.617188-16.375-7.179688c-2.722656-3.117187-7.460938-3.4375-10.582031-.710937-3.117188 2.726563-3.4375 7.464844-.710938 10.582031 6.835938 7.824219 16.921875 12.308594 27.667969 12.308594zm0 0" fill="#000000" data-original="#000000" class=""></path><path xmlns="http://www.w3.org/2000/svg" d="m101.226562 330.648438-19.007812 110.824218c-2.746094 16.019532 3.714844 31.90625 16.867188 41.460938 13.148437 9.554687 30.253906 10.789062 44.644531 3.226562l99.523437-52.320312c7.980469-4.199219 17.511719-4.199219 25.492188 0 0 0 99.519531 52.320312 99.523437 52.320312 13.945313 7.332032 31.558594 6.28125 44.644531-3.226562 13.148438-9.554688 19.613282-25.441406 16.863282-41.460938l-8.667969-50.554687c-.703125-4.082031-4.574219-6.824219-8.660156-6.125-4.085938.703125-6.824219 4.578125-6.125 8.660156l8.667969 50.554687c1.804687 10.507813-2.269532 20.523438-10.894532 26.789063-8.625 6.269531-19.410156 7.046875-28.847656 2.085937l-99.523438-52.320312c-12.351562-6.496094-27.101562-6.496094-39.453124 0l-99.523438 52.320312c-9.4375 4.960938-20.222656 4.183594-28.847656-2.085937-8.625-6.265625-12.699219-16.28125-10.898438-26.789063l19.007813-110.820312c2.359375-13.753906-2.199219-27.78125-12.191407-37.523438l-80.515624-78.484374c-7.632813-7.441407-10.226563-17.9375-6.933594-28.078126 3.296875-10.140624 11.5625-17.109374 22.113281-18.644531l111.273437-16.167969c13.808594-2.007812 25.742188-10.675781 31.917969-23.191406l23.074219-46.75c1.832031-3.714844.308594-8.210937-3.40625-10.046875-3.71875-1.832031-8.210938-.308593-10.046875 3.40625l-23.074219 46.753907c-3.988281 8.082031-11.699218 13.6875-20.625 14.984374l-111.269531 16.167969c-16.085937 2.335938-29.199219 13.390625-34.222656 28.851563-5.023438 15.457031-.910157 32.109375 10.726562 43.453125l80.519531 78.484375c6.457032 6.296875 9.402344 15.359375 7.875 24.246094zm0 0" fill="#000000" data-original="#000000" class=""></path><path xmlns="http://www.w3.org/2000/svg" d="m475.671875 155.613281-111.273437-16.167969c-8.921876-1.296874-16.632813-6.898437-20.625-14.984374l-49.757813-100.832032c-7.195313-14.574218-21.761719-23.628906-38.015625-23.628906s-30.820312 9.054688-38.015625 23.628906l-12.667969 25.671875c-1.832031 3.710938-.308594 8.210938 3.40625 10.042969s8.210938.308594 10.046875-3.40625l12.667969-25.667969c4.71875-9.5625 13.898438-15.269531 24.5625-15.269531s19.84375 5.707031 24.5625 15.269531l49.761719 100.828125c6.179687 12.515625 18.109375 21.183594 31.917969 23.191406l111.273437 16.167969c10.550781 1.535157 18.816406 8.503907 22.113281 18.644531 3.292969 10.140626.703125 20.636719-6.933594 28.078126l-80.515624 78.484374c-9.992188 9.742188-14.550782 23.769532-12.191407 37.523438 0 0 4.078125 23.789062 4.085938 23.835938.691406 4.011718 4.660156 6.8125 8.660156 6.125 4.085937-.699219 6.824219-4.578126 6.125-8.660157l-4.085937-23.835937c-1.527344-8.886719 1.417968-17.953125 7.875-24.246094l80.519531-78.484375c11.636719-11.34375 15.75-27.996094 10.726562-43.457031-5.023437-15.460938-18.136719-26.515625-34.222656-28.851563zm0 0" fill="#000000" data-original="#000000" class=""></path></g></svg>
<svg xmlns="http://www.w3.org/2000/svg" version="1.1" xmlns:xlink="http://www.w3.org/1999/xlink" xmlns:svgjs="http://svgjs.com/svgjs" width="512" height="512" x="0" y="0" viewBox="0 0 511.98685 511" style="enable-background:new 0 0 512 512" xml:space="preserve"><g><path xmlns="http://www.w3.org/2000/svg" d="m510.652344 185.902344c-3.351563-10.367188-12.546875-17.730469-23.425782-18.710938l-147.773437-13.417968-58.433594-136.769532c-4.308593-10.023437-14.121093-16.511718-25.023437-16.511718s-20.714844 6.488281-25.023438 16.535156l-58.433594 136.746094-147.796874 13.417968c-10.859376 1.003906-20.03125 8.34375-23.402344 18.710938-3.371094 10.367187-.257813 21.738281 7.957031 28.90625l111.699219 97.960937-32.9375 145.089844c-2.410156 10.667969 1.730468 21.695313 10.582031 28.09375 4.757813 3.4375 10.324219 5.1875 15.9375 5.1875 4.839844 0 9.640625-1.304687 13.949219-3.882813l127.46875-76.183593 127.421875 76.183593c9.324219 5.609376 21.078125 5.097657 29.910156-1.304687 8.855469-6.417969 12.992187-17.449219 10.582031-28.09375l-32.9375-145.089844 111.699219-97.941406c8.214844-7.1875 11.351563-18.539063 7.980469-28.925781zm0 0" fill="#FFC107" data-original="#ffc107"></path></g></svg>
