<svg xmlns="http://www.w3.org/2000/svg" version="1.1" xmlns:xlink="http://www.w3.org/1999/xlink" xmlns:svgjs="http://svgjs.com/svgjs" width="512" height="512" x="0" y="0" viewBox="0 0 511.99956 511" style="enable-background:new 0 0 512 512" xml:space="preserve" class=""><g><path xmlns="http://www.w3.org/2000/svg" d="m501.105469 222.035156c21.332031-20.796875 9.5625-57.027344-19.921875-61.308594l-114.625-16.65625c-11.707032-1.703124-21.828125-9.054687-27.0625-19.664062l-51.265625-103.871094c-13.183594-26.714844-51.277344-26.714844-64.460938 0l-51.265625 103.871094c-5.234375 10.609375-15.355468 17.960938-27.0625 19.664062l-114.625 16.65625c-29.484375 4.28125-41.257812 40.511719-19.921875 61.308594l82.945313 80.851563c8.46875 8.257812 12.335937 20.152343 10.335937 31.8125l-19.582031 114.164062c-5.035156 29.363281 25.785156 51.757813 52.15625 37.890625l102.523438-53.898437c10.472656-5.507813 22.980468-5.507813 33.453124 0l102.523438 53.898437c26.371094 13.863282 57.191406-8.527344 52.152344-37.890625l-19.578125-114.164062c-2-11.660157 1.863281-23.554688 10.335937-31.8125zm0 0" fill="#FFA000" data-original="#f4e64c" class=""></path><path xmlns="http://www.w3.org/2000/svg" d="m125.800781 459.167969 19.582031-114.164063c2-11.660156-1.863281-23.558594-10.335937-31.816406l-82.945313-80.851562c-21.332031-20.792969-9.5625-57.023438 19.921876-61.308594l114.625-16.65625c11.707031-1.699219 21.828124-9.054688 27.0625-19.664063l51.265624-103.867187c4.214844-8.542969 10.984376-14.339844 18.664063-17.417969-15.875-19.328125-47.988281-16.960937-59.871094 7.117187l-51.265625 103.867188c-5.234375 10.609375-15.355468 17.960938-27.0625 19.664062l-114.625 16.65625c-29.484375 4.28125-41.257812 40.511719-19.921875 61.308594l82.945313 80.847656c8.46875 8.257813 12.335937 20.15625 10.335937 31.816407l-19.582031 114.164062c-4.835938 28.195313 23.382812 49.941407 48.984375 39.359375-6.351563-7.5625-9.707031-17.789062-7.777344-29.054687zm0 0" fill="#FFA000" data-original="#fab659" class=""></path><g xmlns="http://www.w3.org/2000/svg" fill="#423E4F"><path d="m164.089844 246.003906c-4.265625 0-7.726563-3.460937-7.726563-7.726562v-16.632813c0-4.269531 3.460938-7.726562 7.726563-7.726562 4.269531 0 7.726562 3.457031 7.726562 7.726562v16.632813c0 4.265625-3.457031 7.726562-7.726562 7.726562zm0 0" fill="#423E4F" data-original="#423e4f"></path><path d="m347.910156 246.003906c-4.269531 0-7.726562-3.460937-7.726562-7.726562v-16.632813c0-4.269531 3.457031-7.726562 7.726562-7.726562 4.265625 0 7.726563 3.457031 7.726563 7.726562v16.632813c0 4.265625-3.460938 7.726562-7.726563 7.726562zm0 0" fill="#423E4F" data-original="#423e4f"></path><path d="m256 254.882812c-11.070312 0-21.457031-4.621093-28.503906-12.675781-2.804688-3.214843-2.480469-8.09375.734375-10.902343 3.210937-2.808594 8.09375-2.480469 10.902343.730468 4.105469 4.699219 10.253907 7.394532 16.867188 7.394532s12.761719-2.695313 16.867188-7.394532c2.808593-3.210937 7.6875-3.539062 10.902343-.730468 3.214844 2.808593 3.539063 7.6875.734375 10.902343-7.046875 8.054688-17.433594 12.675781-28.503906 12.675781zm0 0" fill="#423E4F" data-original="#423e4f"></path></g></g></svg>