<svg width="80" height="80" viewBox="0 0 80 80" fill="none" xmlns="http://www.w3.org/2000/svg">
<g clip-path="url(#clip0_234_786)">
<path d="M38.1489 30.0386V6.72956C38.1489 5.34003 39.2753 4.21362 40.6649 4.21362H73.8741C75.2636 4.21362 76.39 5.34003 76.39 6.72956V30.0386C76.39 31.4282 75.2636 32.5546 73.8741 32.5546H40.665C39.2753 32.5546 38.1489 31.4282 38.1489 30.0386Z" fill="#46738C"/>
<path d="M40.0923 24.1272C39.7226 24.1272 39.3567 23.9641 39.1101 23.6513C38.6829 23.1092 38.7758 22.3235 39.3178 21.8961L49.5615 13.8189C50.1037 13.3916 50.8895 13.4846 51.3167 14.0266C51.7439 14.5686 51.6511 15.3544 51.109 15.7817L40.8653 23.8589C40.6358 24.0394 40.3631 24.1272 40.0923 24.1272Z" fill="#FF8C46"/>
<path d="M20.0451 11.1219C23.0514 11.1219 25.4886 8.68475 25.4886 5.67842C25.4886 2.6721 23.0514 0.234985 20.0451 0.234985C17.0388 0.234985 14.6017 2.6721 14.6017 5.67842C14.6017 8.68475 17.0388 11.1219 20.0451 11.1219Z" fill="#FFB69E"/>
<path d="M23.8187 66.7C22.069 66.7 20.6508 65.2815 20.6508 63.532V38.21C20.6508 36.4603 22.0692 35.042 23.8187 35.042C25.5683 35.042 26.9867 36.4604 26.9867 38.21V63.532C26.9869 65.2815 25.5684 66.7 23.8187 66.7Z" fill="#343E6B"/>
<path d="M16.1713 66.7C14.4216 66.7 13.0033 65.2815 13.0033 63.532V38.21C13.0033 36.4603 14.4217 35.042 16.1713 35.042C17.9208 35.042 19.3392 36.4604 19.3392 38.21V63.532C19.3394 65.2815 17.921 66.7 16.1713 66.7Z" fill="#414B82"/>
<path d="M42.2864 21.4947C41.5213 20.2624 39.9022 19.8836 38.6697 20.6486L33.3502 23.9514V19.0403C33.3331 15.6303 30.5202 12.856 27.11 12.856H27.0128C25.3338 12.856 14.6455 12.856 12.9084 12.856C9.42719 12.856 6.58079 15.6446 6.5636 19.0721C6.5636 19.0764 6.5636 19.081 6.5636 19.0853V38.4803C6.5636 39.9383 7.74563 41.1203 9.2036 41.1203C10.6616 41.1203 11.8436 39.9383 11.8436 38.4803V19.0942C11.8492 18.5922 12.3553 18.1361 12.9084 18.1361H13.0034V38.2102H26.987C26.987 36.3386 26.987 20.2136 26.987 18.1092C27.0011 18.1092 27.1242 18.1092 27.1102 18.1092C27.6383 18.1092 28.1184 18.5389 28.1211 19.0671V28.6725C28.1314 30.7292 30.3952 31.9697 32.133 30.8908L41.4409 25.1117C42.6728 24.3463 43.0514 22.727 42.2864 21.4947Z" fill="#252D5C"/>
<path d="M42.2864 21.4947C41.5213 20.2624 39.9022 19.8836 38.6697 20.6486L33.3502 23.9514V19.0403C33.3332 15.6303 30.5202 12.856 27.11 12.856C26.2083 12.856 20.8615 12.856 19.9943 12.856V38.2099H26.9869C26.9869 36.3383 26.9869 20.2133 26.9869 18.1089C27.001 18.1089 27.1241 18.1089 27.11 18.1089C27.6382 18.1089 28.1183 18.5386 28.121 19.0667V28.6722C28.1313 30.7289 30.395 31.9694 32.1329 30.8905L41.4408 25.1114C42.6729 24.3463 43.0514 22.7271 42.2864 21.4947Z" fill="#1B224A"/>
<path d="M42.2864 21.4946C41.5212 20.2623 39.9022 19.8835 38.6697 20.6485L41.4405 25.1113C42.6728 24.3462 43.0514 22.727 42.2864 21.4946Z" fill="#FFB69E"/>
<path d="M37.7375 21.218L40.4827 25.6967L41.4373 25.1115L38.6921 20.6328L37.7375 21.218Z" fill="white"/>
<path d="M6.56262 37.1188V38.4805C6.56262 39.9385 7.74465 41.1205 9.20262 41.1205C10.6606 41.1205 11.8426 39.9385 11.8426 38.4805V37.1188H6.56262Z" fill="white"/>
<path d="M6.56262 38.4125V38.4804C6.56262 39.9384 7.74465 41.1204 9.20262 41.1204C10.6606 41.1204 11.8426 39.9384 11.8426 38.4804V38.4125H6.56262Z" fill="#FFB69E"/>
<path d="M15.9661 12.856L19.9942 23.4272L24.0234 12.856H15.9661Z" fill="white"/>
<path d="M21.7462 16.4546L20.8514 14.8271L21.6226 13.4245C21.7629 13.1693 21.5781 12.8562 21.2865 12.8562H18.701C18.4098 12.8562 18.2245 13.169 18.365 13.4245L19.1389 14.8318L18.2465 16.455C18.1229 16.6798 18.0828 16.9407 18.1331 17.1923L18.6835 19.9867L19.9942 23.4275L21.306 19.9862L21.8596 17.1926C21.9101 16.9407 21.8698 16.6795 21.7462 16.4546Z" fill="#FF3C3C"/>
<path d="M25.4316 20.9784H21.9442V22.0539H25.4316V20.9784Z" fill="#252D5C"/>
<path d="M67.0492 56.5767C69.9825 56.5767 72.3604 54.1988 72.3604 51.2655C72.3604 48.3322 69.9825 45.9542 67.0492 45.9542C64.1158 45.9542 61.7379 48.3322 61.7379 51.2655C61.7379 54.1988 64.1158 56.5767 67.0492 56.5767Z" fill="#80391B"/>
<path d="M73.9057 58.2701C72.3449 58.2701 61.7083 58.2701 60.1478 58.2701C56.8207 58.2701 54.0702 60.977 54.0535 64.3042V70.2472H59.1789V64.3298C59.1814 63.8145 59.6325 63.3953 60.1478 63.3953H60.1983V70.247H73.7724V63.3953H73.9058C74.4211 63.3953 74.8721 63.8145 74.8747 64.3298V70.2472H80V64.3042C79.9833 60.9772 77.2332 58.2701 73.9057 58.2701Z" fill="#80391B"/>
<path d="M73.9056 58.2701H69.7047C68.0687 59.5672 65.9212 59.5167 64.4295 58.2701H60.148C56.8208 58.2701 54.0703 60.977 54.0536 64.3042V68.0344H59.1791V64.33C59.1816 63.8147 59.6327 63.3954 60.148 63.3954H60.1984V70.2472H73.7725V63.3954H73.9059C74.4212 63.3954 74.8722 63.8147 74.8748 64.33V68.0344H80.0003V64.3042C79.9833 60.9772 77.2331 58.2701 73.9056 58.2701Z" fill="#55C7A6"/>
<path d="M40.0248 56.5767C42.9581 56.5767 45.336 54.1988 45.336 51.2655C45.336 48.3322 42.9581 45.9542 40.0248 45.9542C37.0914 45.9542 34.7135 48.3322 34.7135 51.2655C34.7135 54.1988 37.0914 56.5767 40.0248 56.5767Z" fill="#FFB69E"/>
<path d="M46.8811 58.2701C45.3203 58.2701 34.6838 58.2701 33.1233 58.2701C29.7961 58.2701 27.0456 60.977 27.0289 64.3042V70.2472H32.1544V64.3298C32.1569 63.8145 32.608 63.3953 33.1233 63.3953H33.1738V70.247H46.7478V63.3953H46.8813C47.3966 63.3953 47.8475 63.8145 47.8502 64.3298V70.2472H52.9756V64.3042C52.9589 60.9772 50.2085 58.2701 46.8811 58.2701Z" fill="#FFB69E"/>
<path d="M46.8811 58.2701H42.4706C40.8347 59.5672 38.6872 59.5167 37.1955 58.2701H33.1234C29.7962 58.2701 27.0458 60.977 27.0291 64.3042V68.0344H32.1545V64.33C32.157 63.8147 32.6081 63.3954 33.1234 63.3954H33.1739V70.2472H46.748V63.3954H46.8814C47.3967 63.3954 47.8476 63.8147 47.8503 64.33V68.0344H52.9758V64.3042C52.9589 60.9772 50.2084 58.2701 46.8811 58.2701Z" fill="#252D5C"/>
<path d="M12.994 56.4921C15.9273 56.4921 18.3052 54.1142 18.3052 51.1809C18.3052 48.2476 15.9273 45.8696 12.994 45.8696C10.0607 45.8696 7.68274 48.2476 7.68274 51.1809C7.68274 54.1142 10.0607 56.4921 12.994 56.4921Z" fill="#FFB69E"/>
<path d="M19.8522 58.1854C18.2914 58.1854 7.65484 58.1854 6.09438 58.1854C2.76719 58.1854 0.0167188 60.8923 0 64.2195V70.1626H5.12547V64.2453C5.12797 63.73 5.57906 63.3107 6.09438 63.3107H6.14484V70.1625H19.7187V63.3106H19.8522C20.3675 63.3106 20.8184 63.7298 20.8211 64.2451V70.1625H25.9466V64.2193C25.9298 60.8923 23.1794 58.1854 19.8522 58.1854Z" fill="#FFB69E"/>
<path d="M19.8522 58.1854H15.4416C13.8056 59.4825 11.6581 59.432 10.1664 58.1854H6.09438C2.76719 58.1854 0.0167188 60.8923 0 64.2195V67.9496H5.12547V64.2453C5.12797 63.73 5.57906 63.3107 6.09438 63.3107H6.14484V70.1625H19.7187V63.3106H19.8522C20.3675 63.3106 20.8184 63.7298 20.8211 64.2451V67.9495H25.9466V64.2193C25.9298 60.8923 23.1794 58.1854 19.8522 58.1854Z" fill="#78BEFF"/>
<path d="M55.0415 66.0952C57.9748 66.0952 60.3527 63.7172 60.3527 60.7839C60.3527 57.8506 57.9748 55.4727 55.0415 55.4727C52.1082 55.4727 49.7302 57.8506 49.7302 60.7839C49.7302 63.7172 52.1082 66.0952 55.0415 66.0952Z" fill="#FFB69E"/>
<path d="M61.8989 67.788C60.3382 67.788 49.7016 67.788 48.1411 67.788C44.8139 67.788 42.0635 70.4948 42.0468 73.822V79.765H47.1722V73.8476C47.1747 73.3323 47.6258 72.9131 48.1411 72.9131H48.1916V79.7648H61.7657V72.9131H61.8991C62.4144 72.9131 62.8653 73.3323 62.868 73.8476V79.765H67.9935V73.822C67.9764 70.4947 65.2261 67.788 61.8989 67.788Z" fill="#FFB69E"/>
<path d="M61.8989 67.788H57.698C56.062 69.085 53.9145 69.0345 52.4228 67.788H48.1412C44.8141 67.788 42.0636 70.4948 42.0469 73.822V77.5522H47.1723V73.8478C47.1748 73.3325 47.6259 72.9133 48.1412 72.9133H48.1917V79.765H61.7656V72.9133H61.8991C62.4144 72.9133 62.8653 73.3325 62.868 73.8478V77.5522H67.9934V73.822C67.9764 70.4947 65.2261 67.788 61.8989 67.788Z" fill="#78BEFF"/>
<path d="M28.0169 66.0952C30.9503 66.0952 33.3282 63.7172 33.3282 60.7839C33.3282 57.8506 30.9503 55.4727 28.0169 55.4727C25.0836 55.4727 22.7057 57.8506 22.7057 60.7839C22.7057 63.7172 25.0836 66.0952 28.0169 66.0952Z" fill="#BA6746"/>
<path d="M34.8744 67.788C33.3136 67.788 22.6771 67.788 21.1166 67.788C17.7894 67.788 15.0389 70.4948 15.0222 73.822V79.765H20.1477V73.8476C20.1502 73.3323 20.6013 72.9131 21.1166 72.9131H21.1671V79.7648H34.7411V72.9131H34.8746C35.3899 72.9131 35.8408 73.3323 35.8435 73.8476V79.765H40.9688V73.822C40.9519 70.4947 38.2017 67.788 34.8744 67.788Z" fill="#BA6746"/>
<path d="M34.8744 67.788H30.4639C28.828 69.085 26.6805 69.0345 25.1888 67.788H21.1166C17.7894 67.788 15.0389 70.4948 15.0222 73.822V77.5522H20.1477V73.8478C20.1502 73.3325 20.6013 72.9133 21.1166 72.9133H21.1671V79.765H34.7411V72.9133H34.8746C35.3899 72.9133 35.8408 73.3325 35.8435 73.8478V77.5522H40.9689V73.822C40.9519 70.4947 38.2017 67.788 34.8744 67.788Z" fill="#FF3C3C"/>
</g>
<defs>
<clipPath id="clip0_234_786">
<rect width="80" height="80" fill="white"/>
</clipPath>
</defs>
</svg>
