<svg xmlns="http://www.w3.org/2000/svg" version="1.1" xmlns:xlink="http://www.w3.org/1999/xlink" xmlns:svgjs="http://svgjs.com/svgjs" width="512" height="512" x="0" y="0" viewBox="0 0 309.142 309.142" style="enable-background:new 0 0 512 512" xml:space="preserve" class=""><g>
<g xmlns="http://www.w3.org/2000/svg">
	<path style="" d="M154.571,0C69.662,0,0.83,68.832,0.83,153.741c0,38.283,13.997,73.295,37.147,100.207   c-6.953,19.986-19.807,37.21-36.479,49.581c10.592,3.619,21.938,5.613,33.757,5.613c20.214,0,39.082-5.751,55.067-15.698   c19.551,9.006,41.311,14.038,64.249,14.038c84.909,0,153.741-68.832,153.741-153.742C308.313,68.832,239.48,0,154.571,0z" fill="#61B4E4" data-original="#61b4e4" class=""></path>
	<g>
		<g>
			<path style="" d="M240.278,88.33c-6.817,3.988-14.372,6.875-22.411,8.436c-6.424-6.749-15.593-10.969-25.744-10.969     c-19.478,0-35.271,15.546-35.271,34.73c0,2.715,0.313,5.358,0.906,7.903c-29.316-1.449-55.31-15.27-72.709-36.278     c-3.032,5.123-4.78,11.087-4.78,17.458c0,12.045,6.238,22.672,15.698,28.905c-5.774-0.191-11.22-1.747-15.978-4.345     c0,0.147,0,0.29,0,0.437c0,16.819,12.163,30.855,28.305,34.051c-2.967,0.795-6.082,1.219-9.303,1.219     c-2.272,0-4.479-0.222-6.639-0.625c4.499,13.79,17.517,23.836,32.955,24.117c-12.078,9.307-27.28,14.864-43.818,14.864     c-2.854,0-5.654-0.164-8.418-0.486c15.62,9.848,34.168,15.599,54.082,15.599c64.891,0,100.364-52.907,100.364-98.796     c0-1.505-0.021-3.008-0.091-4.497c6.885-4.889,12.872-11.009,17.6-17.978c-6.327,2.766-13.121,4.624-20.263,5.463     C232.052,103.254,237.637,96.445,240.278,88.33z" fill="#FFFFFF" data-original="#ffffff"></path>
		</g>
	</g>
</g>
<g xmlns="http://www.w3.org/2000/svg">
</g>
<g xmlns="http://www.w3.org/2000/svg">
</g>
<g xmlns="http://www.w3.org/2000/svg">
</g>
<g xmlns="http://www.w3.org/2000/svg">
</g>
<g xmlns="http://www.w3.org/2000/svg">
</g>
<g xmlns="http://www.w3.org/2000/svg">
</g>
<g xmlns="http://www.w3.org/2000/svg">
</g>
<g xmlns="http://www.w3.org/2000/svg">
</g>
<g xmlns="http://www.w3.org/2000/svg">
</g>
<g xmlns="http://www.w3.org/2000/svg">
</g>
<g xmlns="http://www.w3.org/2000/svg">
</g>
<g xmlns="http://www.w3.org/2000/svg">
</g>
<g xmlns="http://www.w3.org/2000/svg">
</g>
<g xmlns="http://www.w3.org/2000/svg">
</g>
<g xmlns="http://www.w3.org/2000/svg">
</g>
</g></svg>