<svg xmlns="http://www.w3.org/2000/svg" version="1.1" xmlns:xlink="http://www.w3.org/1999/xlink" xmlns:svgjs="http://svgjs.com/svgjs" width="512" height="512" x="0" y="0" viewBox="0 0 32 32" style="enable-background:new 0 0 512 512" xml:space="preserve" class=""><g><g xmlns="http://www.w3.org/2000/svg" id="Ikon"><rect fill="#FFA000" height="24" rx="2" width="14" x="9" y="4" data-original="#2196f3" class=""></rect></g><g xmlns="http://www.w3.org/2000/svg" id="Line"><path d="m21 3h-10a3.0033 3.0033 0 0 0 -3 3v20a3.0033 3.0033 0 0 0 3 3h10a3.0033 3.0033 0 0 0 3-3v-20a3.0033 3.0033 0 0 0 -3-3zm1 23a1.0009 1.0009 0 0 1 -1 1h-10a1.0009 1.0009 0 0 1 -1-1v-20a1.0009 1.0009 0 0 1 1-1h10a1.0009 1.0009 0 0 1 1 1zm5-17v14a1 1 0 0 1 -2 0v-14a1 1 0 0 1 2 0zm3 2v10a1 1 0 0 1 -2 0v-10a1 1 0 0 1 2 0zm-23-2v14a1 1 0 0 1 -2 0v-14a1 1 0 0 1 2 0zm-3 2v10a1 1 0 0 1 -2 0v-10a1 1 0 0 1 2 0z" fill="#000000" data-original="#000000" class=""></path></g></g></svg>